<svg width="88" height="88" viewBox="0 0 88 88" fill="none" xmlns="http://www.w3.org/2000/svg">
<path d="M59.6942 14.1697C59.8055 14.2853 59.4198 14.4889 59.3361 14.5403C58.7603 14.896 58.0704 15.175 57.4669 15.5223C56.638 15.9999 55.8637 16.5663 55.0452 17.058L56.7016 17.4659C57.3327 17.6695 58.2487 17.9527 58.1588 18.7847C55.0916 24.0604 51.1546 28.7028 47.5426 33.5741C46.9059 34.4321 45.806 35.753 45.5191 36.7421C44.8997 38.878 44.8534 42.3707 44.7338 44.6602C44.4151 50.751 44.7463 56.5677 44.9474 62.6388C44.9875 63.8399 44.8935 65.0424 45.0518 66.2378L45.1064 66.3456C45.5648 66.626 45.9305 67.0614 46.1296 67.5636C47.4437 67.8391 49.4326 67.9729 50.5919 68.6534C51.1325 68.9711 51.2348 69.1501 51.1995 69.782C51.1664 70.3822 50.65 72.8055 50.2393 73.162C49.9414 73.4205 48.1668 73.6276 47.6967 73.6755C45.4037 73.9073 43.045 73.8848 40.7499 73.7854C39.63 73.7368 37.3425 73.6833 36.358 73.2508C36.1064 73.1402 36.029 72.9091 35.9218 72.6604C35.6502 72.0271 35.1421 69.9884 35.2243 69.3487C35.299 68.769 36.3518 68.4153 36.835 68.2667C37.9473 67.925 39.153 67.7545 40.2964 67.546C40.4146 67.3234 40.5369 67.1142 40.6959 66.9184C40.8045 66.7852 41.3174 66.3625 41.3382 66.3196C41.3893 66.2139 41.464 65.5327 41.4737 65.3678C41.5131 64.7063 41.5055 64.0125 41.5269 63.3517C41.7806 55.573 42.1484 47.85 41.4177 40.0812C41.3195 39.0372 41.2089 37.71 40.922 36.7174C40.6462 35.7636 39.444 34.3039 38.8205 33.4649C35.2672 28.6802 31.4139 24.1118 28.3694 18.9467C27.9975 18.1464 28.9494 17.7209 29.5536 17.5194C32.2662 16.6135 36.8323 16.5036 39.7323 16.455C40.9172 16.4353 42.1235 16.5769 43.2593 16.5684C43.5372 16.5663 43.9374 16.4599 44.2216 16.455C47.6642 16.393 51.1152 16.6079 54.5337 17.001C55.6086 16.2944 56.6567 15.535 57.7876 14.9221C58.0413 14.7847 59.52 13.9887 59.6942 14.169V14.1697ZM28.769 18.8938C28.919 19.0319 29.3386 19.1298 29.5432 19.1672C31.2058 19.4736 33.4228 19.1651 35.1365 19.1263C40.4934 19.0044 45.9229 18.996 51.2797 19.1263C51.4574 19.1305 51.6205 19.2116 51.8141 19.1862C51.9945 19.1629 52.6278 18.5318 52.8282 18.3669C53.2423 18.0267 53.6702 17.7019 54.0816 17.3574C54.0829 17.2806 53.6163 17.2412 53.5147 17.2278C49.1865 16.6544 44.3743 16.7459 40.0033 16.8418C36.9159 16.9101 32.8642 16.9044 29.9165 17.7815C29.5806 17.8815 28.1627 18.3331 28.769 18.8931V18.8938ZM52.4266 19.1827C53.1849 19.2461 53.9392 19.2285 54.7003 19.2355C55.2623 19.2404 55.8361 19.294 56.4078 19.2369C56.7762 19.2003 58.1471 19.0502 57.7178 18.3923C57.3182 17.7808 55.3542 17.5476 54.6553 17.3948L52.4273 19.1827H52.4266ZM51.5182 19.511C50.5836 19.4645 49.6462 19.48 48.7102 19.4581C43.4577 19.3362 38.3144 19.4384 33.0523 19.5624C32.9257 19.5652 32.8089 19.6187 32.6824 19.6216C31.4782 19.6455 30.2587 19.6638 29.0731 19.4567L30.9742 22.3401C31.0254 22.4316 31.0931 22.4669 31.1809 22.5105C31.6932 22.7663 32.9804 23.0509 33.5922 23.2122C37.9245 24.3534 42.485 24.6444 46.9481 24.252C47.0317 24.2449 47.1064 24.2083 47.1879 24.1963C45.1617 22.1252 47.5592 19.1594 50.0727 20.1922C50.2172 20.2513 50.4488 20.462 50.5698 20.4296L51.5162 19.511H51.5182ZM51.0371 23.6511L55.3625 22.4767L57.3957 19.4011C55.6204 19.8738 53.7553 19.463 51.9461 19.5927L50.7702 20.6818C51.5922 21.4764 51.6357 22.7015 51.0364 23.6511H51.0371ZM50.2352 20.7099C48.695 19.7801 46.5989 20.8882 46.8209 22.8015C46.8679 23.2059 47.2412 23.8885 47.5868 24.0907C47.799 24.2146 48.3307 24.109 48.5975 24.0801C49.069 24.0287 49.8619 23.9329 50.2995 23.799C50.6154 23.7025 50.7813 23.4101 50.9023 23.1058C51.1968 22.364 51.1014 21.5468 50.5221 20.9854C50.4529 20.9734 49.6393 21.8033 49.651 21.873C49.6593 21.9216 50.0264 22.2027 49.8301 22.3492C49.566 22.5458 48.4724 21.8448 48.8146 21.5764C49.0392 21.3996 49.2895 21.7068 49.3814 21.6645L50.2352 20.7099ZM42.9669 39.2366C42.812 37.1239 41.6181 35.1634 40.5314 33.4107C38.705 30.4646 36.4057 26.8035 34.1487 24.2252C33.8956 23.9364 33.6053 23.687 33.308 23.4482L31.3185 22.8353C34.6886 27.8757 38.7499 32.392 42.0288 37.498L42.9682 39.2366H42.9669ZM55.0445 22.8888C54.4777 23.1115 53.6495 23.208 53.12 23.4602C53.017 23.5088 52.6236 23.8533 52.531 23.9491C51.6233 24.8846 50.3866 26.6676 49.604 27.7757C48.4627 29.3903 47.32 31.1881 46.2588 32.8654C45.0207 34.8224 43.6395 36.9675 43.4494 39.345L43.8483 38.4722C46.8706 33.336 50.9237 28.9451 54.2869 24.0498L55.0445 22.8881V22.8888ZM43.3955 36.7026C43.3623 37.0203 43.4197 37.3866 43.3955 37.7107L44.2229 35.7481C45.8938 32.9013 47.6739 29.956 49.6047 27.2854C50.5013 26.0448 51.4885 24.8592 52.4273 23.6525L50.6665 24.0639C50.2815 24.476 49.9296 24.9163 49.6047 25.3791C48.3894 27.1107 47.1064 29.148 45.992 30.9591C45.1369 32.349 43.5614 35.1119 43.3955 36.7033V36.7026ZM43.0208 37.6565C43.1819 36.6498 42.7809 35.5825 42.4048 34.6611C41.791 33.1578 40.9441 31.746 40.0828 30.3808C38.7416 28.2554 37.3618 26.1216 35.8575 24.1174L34.0968 23.7067C35.0992 25.0825 36.206 26.383 37.1862 27.7764C38.9843 30.3322 40.6877 33.0915 42.2472 35.803L43.0208 37.6565ZM38.5211 24.4809L36.3415 24.2238C36.5765 24.5295 36.8261 24.8212 37.048 25.1382C38.7112 27.5186 40.2535 30.1039 41.7668 32.5872L43.074 35.4762C42.8846 31.3727 40.7167 27.7715 38.5211 24.4802V24.4809ZM50.1287 24.197L47.938 24.4964C45.7334 27.7292 43.5538 31.3642 43.3962 35.4219L44.6502 32.6421C46.1455 30.1835 47.6677 27.6003 49.3158 25.2474C49.5701 24.8846 49.8474 24.538 50.1294 24.197H50.1287ZM40.4941 24.7035C40.3164 24.5591 39.1965 24.5711 38.9069 24.5507C40.3261 26.4943 41.5027 28.6457 42.42 30.8859L43.074 32.9697C43.1556 31.1437 42.6357 29.31 41.9776 27.6313C41.7813 27.1318 41.5393 26.5647 41.3036 26.0843C41.1646 25.8011 40.6946 24.867 40.4941 24.7035ZM47.5101 24.5239L46.0141 24.6599C45.609 24.8465 44.4621 27.608 44.2637 28.1603C44.0481 28.7612 43.8261 29.4488 43.6775 30.0694C43.4611 30.9761 43.2862 31.9292 43.3955 32.8598L43.943 31.1029C44.841 28.7598 46.1109 26.5844 47.5101 24.5232V24.5239ZM43.1279 30.2998V27.6566C43.1279 27.4756 42.7747 26.4428 42.6869 26.1991C42.5071 25.7003 42.27 25.2305 42.0488 24.7514L40.8301 24.6873C41.6223 25.8511 42.1221 27.1931 42.6088 28.5133L43.1279 30.2998ZM45.5862 24.6873H44.6509C44.6239 24.6873 44.4131 24.769 44.384 24.7965C44.3356 24.8416 44.0418 25.4756 43.9907 25.594C43.4003 26.967 43.3332 27.8659 43.2862 29.3438C43.2828 29.4495 43.2655 30.3547 43.3153 30.3547C43.8102 28.371 44.525 26.4252 45.5862 24.6866V24.6873ZM44.0895 24.7416H42.326C42.7408 25.4418 42.9959 26.2435 43.2074 27.0311L44.0888 24.7416H44.0895ZM43.0685 66.4781C43.1604 58.0626 42.9682 49.6393 43.0719 41.2238C43.074 41.0689 43.1397 40.9174 43.1328 40.7899C43.1203 40.5666 42.6544 39.3824 42.5327 39.1084C42.194 38.3489 41.7025 37.6762 41.3105 36.9485C41.2144 36.9351 41.2614 37.0668 41.2711 37.1253C42.6164 45.6183 42.1352 54.3022 41.8483 62.8621C41.8442 62.991 41.7951 63.11 41.7903 63.239C41.7571 64.2414 41.8649 65.3601 41.6845 66.3463C41.6541 66.514 41.1287 66.8395 40.9635 67.0283C40.7554 67.2671 40.6628 67.5411 40.4733 67.782C39.2809 68.0793 38.0047 68.2174 36.835 68.595C36.6028 68.6696 35.5326 69.0655 35.5534 69.3459C35.7573 69.6305 36.253 69.7249 36.5827 69.7531C40.1422 70.056 43.9755 69.944 47.535 69.8059C48.3016 69.7764 49.1236 69.82 49.8875 69.7531C50.1882 69.7263 50.717 69.615 50.8802 69.3459C50.8781 68.8296 48.6798 68.3519 48.2594 68.2547C47.4921 68.0772 46.7109 67.9624 45.9443 67.782C45.797 67.5658 45.73 67.3516 45.5606 67.1374C45.3456 66.8655 45.0567 66.6655 44.7947 66.4478C44.5645 65.0804 44.6758 63.6954 44.6274 62.3133C44.3564 54.5276 43.9416 46.8778 44.8458 39.1076C44.9301 38.3828 45.029 37.6522 45.2129 36.9485C44.3557 38.0869 43.6796 39.3859 43.3415 40.7885C43.4148 49.1272 43.2862 57.4729 43.3415 65.8004C43.3429 65.9878 43.4501 66.2308 43.3941 66.4485C43.9851 66.6922 44.3619 67.0409 44.6882 67.5918C44.7891 67.7623 44.9585 68.254 45.0919 68.3245C45.7168 68.4717 46.3639 68.4703 46.9964 68.5619C47.3352 68.6112 49.0807 68.8556 49.2217 69.0169C49.4188 69.2417 49.1091 69.3811 48.9148 69.4128C47.5917 69.6312 46.1455 69.4283 44.8154 69.4234C43.7363 69.4192 42.6834 69.4192 41.6043 69.4234C40.3012 69.4291 38.9048 69.6164 37.6045 69.4199C37.3473 69.3811 36.974 69.1959 37.3072 68.9655C37.4959 68.8352 39.1232 68.6133 39.4765 68.5619C40.1042 68.4703 40.7506 68.4851 41.363 68.3061C41.7882 67.5608 42.1663 66.7035 43.0699 66.4774L43.0685 66.4781ZM48.9528 69.1001C48.2283 69.0043 47.5073 68.8739 46.7821 68.7788C46.2851 68.714 45.4341 68.7429 44.9958 68.5837C44.7158 68.4823 44.4227 67.6545 44.1704 67.3544C44.0239 67.1804 43.4134 66.65 43.2074 66.6507C42.8908 66.6514 42.1843 67.4404 42.0163 67.72C41.6589 68.316 41.8608 68.5238 41.0644 68.6563C40.4713 68.7549 39.8138 68.7563 39.2083 68.8338C38.6435 68.9063 38.0738 69.0127 37.5167 69.1254C37.7005 69.1402 37.8934 69.1994 38.0759 69.2093C41.4667 69.3988 44.9875 69.0726 48.3942 69.2093L48.9528 69.0987V69.1001ZM50.876 69.8081C50.5414 69.932 50.1923 70.0497 49.8335 70.0793C45.5254 70.4378 40.9607 70.0828 36.6353 70.0793L35.5382 69.8355L35.8631 71.441L39.4641 71.7714C42.2631 71.8975 45.0622 71.9165 47.8557 71.7143C48.7489 71.6495 49.6455 71.5333 50.5324 71.4234C50.6306 71.3811 50.9306 69.8693 50.8753 69.8073L50.876 69.8081ZM50.502 71.6608C48.7745 72.0201 46.993 72.0398 45.2364 72.094C42.5825 72.1764 39.8145 72.1821 37.1696 71.8778C36.7763 71.8327 36.3753 71.7742 35.9944 71.6594C35.861 71.6551 36.3014 72.9309 36.4334 73.0225C37.1088 73.1225 37.7794 73.2627 38.4582 73.343C41.417 73.6917 45 73.6946 47.9636 73.3494C48.641 73.2705 49.3144 73.143 49.9829 73.0112C50.2034 72.895 50.4239 71.9348 50.502 71.6608Z" fill="#9B3C34" stroke="#9B3C34" stroke-width="0.543441" stroke-miterlimit="10"/>
</svg>
