<svg width="17" height="16" viewBox="0 0 17 16" fill="none" xmlns="http://www.w3.org/2000/svg">
<path d="M8.49996 0.959961C4.61566 0.959961 1.45996 4.11566 1.45996 7.99996C1.45996 11.5261 4.06077 14.4442 7.44809 14.9531L7.81559 15.0087V9.46121H6.15246V8.33496H7.81559V6.83934C7.81559 5.91835 8.03659 5.31177 8.40246 4.93121C8.76833 4.55065 9.30892 4.35871 10.0612 4.35871C10.6627 4.35871 10.8968 4.39516 11.1193 4.42246V5.34434H10.3362C9.89186 5.34434 9.5273 5.59225 9.33809 5.92246C9.14887 6.25267 9.08996 6.64694 9.08996 7.04871V8.33434H11.0493L10.875 9.46059H9.08996V15.0175L9.45309 14.9681C12.8885 14.5022 15.54 11.5606 15.54 7.99996C15.54 4.11566 12.3843 0.959961 8.49996 0.959961ZM8.49996 1.59996C12.0384 1.59996 14.9 4.46154 14.9 7.99996C14.9 11.1135 12.6714 13.6741 9.72996 14.2506V10.1006H11.4237L11.7956 7.69434H9.72996V7.04871C9.72996 6.71672 9.7907 6.41925 9.89309 6.24059C9.99547 6.06192 10.0942 5.98434 10.3362 5.98434H11.7593V3.84309L11.4818 3.80559C11.2899 3.77961 10.8517 3.71871 10.0612 3.71871C9.19622 3.71871 8.45374 3.95434 7.94121 4.48746C7.42868 5.02058 7.17559 5.8144 7.17559 6.83934V7.69496H5.51246V10.1012H7.17559V14.2306C4.2814 13.6175 2.09996 11.0798 2.09996 7.99996C2.09996 4.46154 4.96154 1.59996 8.49996 1.59996Z" fill="white" fill-opacity="0.7"/>
</svg>
