<svg width="88" height="88" viewBox="0 0 88 88" fill="none" xmlns="http://www.w3.org/2000/svg">
<mask id="mask0_1304_708" style="mask-type:luminance" maskUnits="userSpaceOnUse" x="12" y="18" width="64" height="52">
<path d="M75.4284 18.8564H12.5713V69.1422H75.4284V18.8564Z" fill="white"/>
</mask>
<g mask="url(#mask0_1304_708)">
<path d="M32.6751 55.9328C32.5023 55.8643 32.3254 55.8051 32.1589 55.724C31.7896 55.5431 31.4264 55.3474 31.0592 55.1614C30.5895 54.9242 30.1157 54.6966 29.6501 54.4521C29.2611 54.2474 28.8835 54.0185 28.4966 53.8106C28.3032 53.7067 28.0921 53.636 27.9018 53.5277C27.3969 53.2397 26.9034 52.931 26.3955 52.647C25.8306 52.3309 25.2441 52.0544 24.6895 51.7204C24.2561 51.4596 23.8578 51.1382 23.4419 50.847C23.3271 50.7671 23.1967 50.7077 23.0881 50.6204C22.6329 50.2575 22.185 49.8853 21.7308 49.5212C21.6294 49.4402 21.5022 49.3903 21.4049 49.3061C20.8338 48.8081 20.238 48.3328 19.7083 47.7932C19.2883 47.3646 18.9562 46.8509 18.5776 46.382C18.2341 45.9568 17.8627 45.5533 17.5378 45.1144C17.1902 44.6455 16.8778 44.1505 16.5612 43.6609C16.3243 43.2947 16.0864 42.9277 15.8826 42.5429C15.7026 42.2019 15.5702 41.8348 15.4139 41.4812C15.3788 41.4001 15.3291 41.3263 15.2888 41.2473C15.0167 40.7107 14.726 40.1815 14.4787 39.6335C14.2542 39.1354 14.0804 38.6134 13.8777 38.1059C13.7928 37.8938 13.6811 37.6931 13.5963 37.482C13.4939 37.2252 13.4049 36.9621 13.3128 36.7011C13.1763 36.3122 13.0107 35.9306 12.9145 35.5323C12.7821 34.9875 12.7242 34.4239 12.5897 33.879C12.5214 33.6034 12.6342 33.383 12.689 33.1438C12.7087 33.0606 12.8028 32.9837 12.8794 32.9275C13.2373 32.6665 13.6521 32.5906 14.0846 32.5584C14.5925 32.5199 15.0984 32.4482 15.6064 32.4086C15.7802 32.3951 15.9581 32.4451 16.135 32.4482C16.6875 32.4575 17.2399 32.4388 17.7913 32.4658C18.4989 32.5002 19.2065 32.5594 19.9121 32.6249C20.3693 32.6676 20.8276 32.7217 21.2777 32.81C21.8901 32.9307 22.4964 33.0856 23.1036 33.2333C23.2443 33.2676 23.3798 33.3237 23.5143 33.3778C23.9737 33.5639 24.4392 33.7355 24.8861 33.9476C25.1261 34.062 25.3475 34.2304 25.5513 34.4052C25.9517 34.7504 26.3324 35.1185 26.7224 35.4762C26.7555 35.5063 26.7959 35.5292 26.8517 35.5677C26.8931 34.8949 26.9272 34.2388 26.9759 33.5837C27.0193 32.9951 27.0721 32.4066 27.129 31.8191C27.1672 31.425 27.2097 31.0298 27.2676 30.6388C27.3328 30.2 27.4031 29.7612 27.4973 29.3287C27.6473 28.6403 27.8045 27.9519 27.9856 27.2708C28.1087 26.8091 28.2866 26.362 28.4232 25.9034C28.4946 25.6663 28.5132 25.4126 28.5856 25.1755C28.7211 24.7336 28.8856 24.3 29.0253 23.8591C29.0967 23.6324 29.1101 23.3839 29.2001 23.1655C29.4805 22.4927 29.7991 21.8366 30.0753 21.1628C30.2346 20.7739 30.3422 20.3642 30.4664 19.9607C30.5346 19.7403 30.576 19.5126 30.6526 19.2952C30.7571 18.9958 31.1968 18.818 31.4792 18.9843C31.7978 19.1725 32.1123 19.3795 32.3854 19.627C32.8168 20.0179 33.2265 20.4349 33.6165 20.8675C33.9155 21.1992 34.1669 21.5735 34.4452 21.924C34.5424 22.0466 34.6666 22.1465 34.7648 22.2682C35.3452 22.9825 35.8749 23.7343 36.2939 24.5558C36.6011 25.1589 36.8587 25.789 37.139 26.4067C37.3377 26.8455 37.5529 27.277 37.7339 27.7221C37.8871 28.0985 38.0082 28.4895 38.1322 28.8774C38.2234 29.1612 38.2978 29.4513 38.396 29.7935C38.6009 29.2423 38.7903 28.7308 38.9806 28.2202C39.0002 28.1682 39.0024 28.0975 39.0385 28.0663C39.3777 27.7855 39.3179 27.3405 39.4814 26.9869C39.7492 26.4077 39.9096 25.763 40.2531 25.2369C40.5438 24.7908 40.6421 24.2854 40.8913 23.8352C41.2803 23.1302 41.6425 22.4096 42.0085 21.6921C42.1627 21.3905 42.2891 21.0744 42.4505 20.777C42.6336 20.4391 42.8457 20.1167 43.0391 19.784C43.1631 19.5698 43.2634 19.342 43.396 19.1341C43.4549 19.0405 43.5552 18.9459 43.6567 18.9115C44.1936 18.7306 44.6406 18.975 44.8287 19.5188C44.8723 19.6436 44.9623 19.7528 45.0346 19.8672C45.0636 19.9129 45.1091 19.9503 45.134 19.9971C45.5818 20.8467 46.0434 21.689 46.4707 22.5489C46.8152 23.2435 47.1141 23.962 47.4399 24.667C47.7595 25.3575 48.099 26.0386 48.4061 26.7353C48.5469 27.0545 48.6203 27.4039 48.7455 27.7304C48.8128 27.9062 48.9473 28.0549 49.0175 28.2306C49.2171 28.7318 49.4003 29.2403 49.6092 29.7976C49.9032 28.5976 50.348 27.5276 50.827 26.4597C51.2088 25.6081 51.6174 24.771 52.0467 23.9465C52.264 23.5295 52.6126 23.1842 52.8941 22.7995C52.9975 22.6581 53.0617 22.4844 53.1722 22.3503C53.7506 21.6494 54.3215 20.9413 54.932 20.2685C55.2341 19.9347 55.6159 19.6737 55.9573 19.3753C56.0401 19.3036 56.0949 19.1954 56.1837 19.1341C56.4631 18.9427 56.7858 18.872 57.0931 19.002C57.2193 19.0561 57.3074 19.2588 57.3622 19.4127C57.5008 19.8016 57.6011 20.2051 57.7366 20.5961C57.8441 20.908 57.9736 21.2127 58.105 21.5143C58.286 21.9292 58.4969 22.3316 58.6585 22.7527C58.7837 23.0782 58.8404 23.4286 58.9491 23.7603C59.0681 24.1211 59.2304 24.4674 59.339 24.8303C59.4334 25.1454 59.4695 25.4771 59.548 25.7974C59.604 26.0241 59.6981 26.2414 59.7592 26.467C59.965 27.2292 60.1781 27.9904 60.3603 28.7588C60.4811 29.2704 60.5515 29.7945 60.6456 30.3134C60.6985 30.6014 60.7586 30.8884 60.8041 31.1775C60.8474 31.4572 60.8785 31.739 60.9125 32.0198C60.9645 32.4461 61.0327 32.8724 61.0595 33.2998C61.0906 33.8114 61.0844 34.3251 61.0978 34.8377C61.104 35.0779 61.1196 35.3171 61.133 35.6103C61.3015 35.4325 61.4258 35.2682 61.5821 35.1424C62.0764 34.7441 62.5576 34.3199 63.0914 33.984C63.4928 33.7313 63.9613 33.5743 64.4154 33.4204C64.9184 33.2488 65.4357 33.1178 65.9518 32.9899C66.405 32.8776 66.8622 32.783 67.3225 32.7019C67.5916 32.654 67.8688 32.6499 68.1419 32.6218C68.6126 32.573 69.0822 32.5116 69.5541 32.4721C69.8583 32.4461 70.1645 32.4471 70.4697 32.4399C71.0696 32.4263 71.6685 32.4055 72.2687 32.4066C72.5574 32.4066 72.847 32.4399 73.1345 32.47C73.5721 32.5168 74.0159 32.5397 74.4423 32.6405C74.7298 32.7081 75.0247 32.8495 75.2493 33.0378C75.3795 33.1469 75.4343 33.4173 75.4231 33.6097C75.396 34.0703 75.3412 34.5341 75.2399 34.9833C75.1425 35.4138 74.9718 35.8277 74.8363 36.2488C74.7245 36.5961 74.6233 36.9475 74.5065 37.2928C74.4454 37.4737 74.3635 37.6474 74.2891 37.8231C74.0418 38.4117 73.8019 39.0033 73.5432 39.5867C73.4553 39.7853 73.3114 39.9589 73.2142 40.1544C73.0405 40.5059 72.8801 40.8636 72.7166 41.2203C72.5241 41.6424 72.3546 42.0771 72.1382 42.4868C71.9635 42.8174 71.7296 43.118 71.5268 43.4352C71.3169 43.7636 71.1266 44.1058 70.902 44.4241C70.5781 44.8856 70.2296 45.3298 69.8954 45.784C69.6575 46.1065 69.4341 46.4402 69.1888 46.7573C69.0729 46.9072 68.9168 47.0256 68.7895 47.168C68.5319 47.4592 68.2846 47.7609 68.027 48.053C67.8915 48.2058 67.757 48.3661 67.5988 48.4919C67.1684 48.835 66.7214 49.1562 66.2901 49.4984C65.8493 49.8477 65.4398 50.2397 64.9813 50.5612C64.3101 51.0323 63.6128 51.4678 62.9133 51.8973C62.0807 52.4079 61.2374 52.9019 60.3911 53.3905C60.1438 53.533 59.8657 53.6194 59.6131 53.7524C59.4539 53.8366 59.3247 53.9812 59.1643 54.0623C58.4763 54.4107 57.7842 54.7486 57.09 55.0835C56.6048 55.3174 56.1124 55.5358 55.6283 55.7697C55.5237 55.8207 55.4368 55.909 55.2898 56.0202C55.4514 56.0443 55.5558 56.0753 55.6583 56.0734C56.278 56.0577 56.8976 56.0308 57.5173 56.0161C58.0748 56.0036 58.6336 55.9788 59.1901 56.0026C59.7053 56.0255 60.2185 56.1034 60.7315 56.1617C61.1557 56.2096 61.5809 56.25 62.0019 56.3157C63.3779 56.5276 64.7527 56.7461 66.0873 57.1609C66.6874 57.3481 67.2895 57.53 67.8865 57.7276C68.4553 57.9148 69.0368 58.0772 69.579 58.3245C70.1738 58.596 70.7354 58.9453 71.3025 59.2759C71.6934 59.5048 72.0834 59.7418 72.4487 60.01C72.9236 60.3584 73.4077 60.7059 73.8216 61.1207C74.2187 61.5189 74.015 62.0182 73.4314 62.3247C72.9349 62.5858 72.4114 62.7251 71.8682 62.8488C71.0646 63.0319 70.2514 63.0892 69.436 63.113C68.4627 63.1411 67.4882 63.1402 66.5146 63.1161C65.9879 63.1036 65.4646 63.0037 64.939 62.9686C64.3587 62.9289 63.7741 62.9364 63.1948 62.8895C62.6971 62.849 62.2028 62.7554 61.7061 62.6972C61.498 62.6722 61.2862 62.6857 61.0782 62.6669C60.7356 62.6358 60.3933 62.5993 60.0529 62.5516C59.424 62.4631 58.7918 62.3842 58.168 62.2665C57.6456 62.1679 57.1345 62.0139 56.6163 61.8955C56.2273 61.8069 55.8258 61.7653 55.4452 61.6532C54.6236 61.4097 53.8064 61.1508 52.9985 60.8649C52.293 60.6142 51.6081 60.3086 50.9077 60.0444C50.3056 59.8178 49.7024 59.5858 49.086 59.4092C48.5552 59.2574 48.0078 59.1419 47.4605 59.0774C46.6641 58.9838 45.8581 58.9578 45.0708 59.1669C44.9798 59.1908 44.8991 59.326 44.8484 59.4268C44.5185 60.0882 44.4946 60.7889 44.5381 61.5148C44.5743 62.12 44.54 62.7314 44.5048 63.3377C44.4491 64.2994 44.4625 65.2571 44.5618 66.2159C44.626 66.8367 44.6487 67.4628 44.6727 68.0877C44.6818 68.3237 44.6643 68.566 44.6207 68.798C44.5795 69.0215 44.4378 69.1649 44.1812 69.1305C44.1345 69.1245 44.0871 69.1305 44.0404 69.1305C43.4508 69.1305 43.2481 68.8603 43.307 68.2489C43.3659 67.6331 43.3711 67.0124 43.4085 66.3937C43.4281 66.0694 43.4848 65.747 43.4891 65.4236C43.5004 64.5627 43.4923 63.7006 43.4911 62.8396C43.4911 62.2251 43.4776 61.6094 43.4879 60.9949C43.4973 60.4157 43.3876 59.8666 43.1135 59.357C43.0628 59.2625 42.9448 59.1616 42.8445 59.145C42.4153 59.0733 41.9746 58.961 41.5482 58.9942C40.7992 59.0546 40.0523 59.1835 39.3157 59.3342C38.666 59.4675 38.0278 59.6638 37.3884 59.8491C37.1691 59.9123 36.9642 60.0278 36.7521 60.1193C36.0632 60.4167 35.3804 60.7307 34.6821 61.0064C34.2507 61.1758 33.8007 61.3017 33.3517 61.4191C32.7361 61.5803 32.1113 61.7102 31.4937 61.8632C30.9878 61.9891 30.4881 62.146 29.9791 62.2583C29.646 62.3322 29.2994 62.3476 28.9601 62.3945C28.4666 62.4631 27.9752 62.5485 27.4807 62.6046C26.9045 62.6712 26.3251 62.7126 25.7468 62.7667C25.302 62.8084 24.8571 62.8625 24.4113 62.8947C23.5536 62.9571 22.6939 63.0122 21.8353 63.0632C21.078 63.1067 20.3197 63.164 19.5614 63.1703C18.9686 63.1743 18.3737 63.1277 17.783 63.0694C17.2399 63.0153 16.6988 62.9289 16.1609 62.8322C15.8081 62.7689 15.4481 62.7003 15.1181 62.5651C14.785 62.4289 14.4611 62.2405 14.1777 62.017C13.8704 61.7747 13.9366 61.2372 14.2511 60.9917C14.6381 60.6912 15.0074 60.3669 15.4046 60.0808C15.7471 59.8344 16.1185 59.6253 16.4775 59.403C16.7816 59.2146 17.0816 59.0202 17.394 58.8467C17.7365 58.6551 18.083 58.467 18.442 58.3089C18.862 58.1239 19.2934 57.9617 19.7269 57.8089C20.3497 57.5895 20.9694 57.3491 21.6077 57.1869C22.4405 56.9749 23.2878 56.8178 24.1319 56.6588C25.0082 56.4944 25.8875 56.3364 26.771 56.2136C27.2573 56.146 27.7549 56.1638 28.2463 56.1244C28.6652 56.0909 29.0822 56.0067 29.5012 55.9932C29.9801 55.9788 30.4602 56.0161 30.9402 56.0327C31.4337 56.0505 31.9271 56.0734 32.4206 56.0859C32.4982 56.0878 32.5758 56.0443 32.6534 56.0214C32.6585 55.9901 32.6637 55.9579 32.6689 55.9266L32.6751 55.9328ZM51.9825 55.5346C52.0706 55.5284 52.1036 55.5358 52.1211 55.5233C52.4378 55.2882 52.7782 55.0782 53.0617 54.8077C53.6223 54.2724 54.1944 53.7377 54.6816 53.1379C55.0976 52.6251 55.5754 52.1624 55.9333 51.5999C56.3111 51.0051 56.7197 50.43 57.1087 49.8427C57.2432 49.6389 57.3881 49.4339 57.4769 49.2094C57.6145 48.8641 57.7024 48.4991 57.8235 48.1466C58.0574 47.4676 58.3243 46.798 58.5333 46.1118C58.7298 45.4669 58.8725 44.8057 59.0319 44.1505C59.1696 43.587 59.3204 43.0244 59.4219 42.4535C59.5854 41.5312 59.7292 40.6047 59.8511 39.6761C59.9329 39.0522 59.9681 38.422 60.0105 37.794C60.0538 37.141 60.1058 36.4859 60.1089 35.8318C60.112 35.236 60.0311 34.6402 60.0292 34.0443C60.0249 33.0128 59.8844 31.9969 59.7156 30.9841C59.6059 30.3207 59.4901 29.6593 59.3608 29.0001C59.3007 28.6933 59.1995 28.3938 59.1219 28.0902C58.8756 27.1231 58.6305 26.1551 58.3872 25.187C58.3262 24.9457 58.2776 24.7014 58.2146 24.4601C58.14 24.1773 58.077 23.8893 57.9724 23.6168C57.8441 23.2799 57.6715 22.9617 57.5307 22.629C57.1853 21.8127 56.848 20.9943 56.4951 20.1469C56.43 20.1874 56.3482 20.2238 56.2831 20.281C56.0812 20.4588 55.8962 20.6585 55.6841 20.8217C55.5247 20.9444 55.5745 21.0318 55.6499 21.1732C55.8601 21.5652 56.0722 21.9593 56.2407 22.3701C56.4123 22.7891 56.5303 23.231 56.6773 23.6605C56.8178 24.0712 56.9794 24.4757 57.1065 24.8917C57.2236 25.2712 57.3043 25.6622 57.4034 26.048C57.6933 27.1731 57.9951 28.294 58.2704 29.4233C58.3657 29.8163 58.405 30.224 58.4514 30.6274C58.5311 31.3179 58.6005 32.0104 58.6635 32.7019C58.6759 32.8371 58.5984 32.993 58.6417 33.1095C58.7753 33.4631 58.6956 33.7906 58.5756 34.1171C58.5488 34.1909 58.4483 34.2377 58.381 34.297C58.3231 34.2221 58.2281 34.1535 58.2125 34.0714C58.1278 33.6128 58.0605 33.1511 57.9891 32.6894C57.8431 31.7504 57.7076 30.8094 57.5504 29.8725C57.4304 29.155 57.2875 28.4417 57.1439 27.7283C57.0859 27.4393 56.9689 27.1596 56.9327 26.8684C56.8138 25.9065 56.4528 25.0164 56.1454 24.1107C56.0161 23.7312 55.8601 23.36 55.7327 22.9794C55.5589 22.4626 55.3437 21.9718 54.9889 21.5798C54.7996 21.7898 54.632 22.0227 54.4199 22.2026C54.0929 22.4792 54.0403 22.707 54.2088 23.0969C54.4159 23.5752 54.5885 24.0691 54.7697 24.5579C54.8214 24.6972 54.842 24.8469 54.8886 24.9873C55.1388 25.7516 55.4193 26.5065 55.6365 27.2802C55.8268 27.9592 55.951 28.6579 56.0959 29.3494C56.2625 30.1418 56.4715 30.931 56.5677 31.7317C56.6804 32.679 56.7072 33.6367 56.7434 34.5913C56.7786 35.5136 56.7858 36.438 56.7932 37.3614C56.7963 37.7254 56.7714 38.0903 56.7527 38.4553C56.7113 39.2685 56.7341 40.0931 56.6048 40.8927C56.4238 42.0095 56.4331 43.1522 56.132 44.2535C56.0099 44.6996 55.9987 45.1748 55.8962 45.6281C55.7078 46.463 55.529 47.3045 55.2745 48.1197C55.0241 48.9214 54.7043 49.7053 54.3732 50.4779C54.1748 50.9418 53.9048 51.3742 53.6513 51.8121C53.4753 52.1158 53.2819 52.41 53.0813 52.6968C52.7605 53.1545 52.4409 53.6141 52.0953 54.0529C51.724 54.5241 51.3247 54.9733 50.9366 55.4307C50.9563 55.4514 50.9771 55.4714 50.9967 55.492C51.1353 55.3549 51.2624 55.2019 51.4156 55.0835C52.0632 54.5823 52.5412 53.9302 53.0265 53.2844C53.3791 52.8164 53.7113 52.333 54.0527 51.8569C54.4975 51.237 54.9786 50.6495 55.3416 49.9632C55.7607 49.1719 56.0813 48.3473 56.3587 47.5071C56.6452 46.6409 56.8542 45.7499 57.1056 44.8712C57.1946 44.5603 57.3258 44.2598 57.4046 43.9467C57.5089 43.5307 57.5803 43.1075 57.6653 42.6875C57.8256 41.9014 58.0231 41.1204 58.1318 40.327C58.2063 39.7894 58.1328 39.2331 58.167 38.6882C58.2209 37.8221 58.3078 36.9569 58.3853 36.0928C58.3956 35.9763 58.4327 35.862 58.4576 35.7497C58.6831 35.7549 58.8217 35.8329 58.8323 36.0419C58.8631 36.6585 58.8921 37.2762 58.9077 37.8938C58.918 38.3233 58.9148 38.7527 58.8995 39.1822C58.8818 39.6719 58.8643 40.1648 58.8052 40.6504C58.7597 41.0248 58.6554 41.3918 58.5704 41.761C58.377 42.6084 58.2187 43.4652 57.9745 44.2983C57.7222 45.1613 57.3881 45.9994 57.0838 46.8468C56.8499 47.4977 56.6101 48.1476 56.368 48.7955C56.2728 49.0504 56.1693 49.303 56.0566 49.5504C55.7442 50.2378 55.4761 50.9522 55.0945 51.5989C54.6433 52.3643 54.1157 53.089 53.5756 53.796C53.1794 54.314 52.711 54.7767 52.2722 55.2613C52.1946 55.3474 52.1024 55.4213 51.9784 55.5378L51.9825 55.5346ZM37.0109 55.4952C37.0262 55.4774 37.0408 55.4598 37.0564 55.4432C36.9085 55.2519 36.7636 55.0575 36.6104 54.8703C36.2691 54.4521 35.909 54.0489 35.5821 53.6203C35.3018 53.2522 35.0483 52.8633 34.7969 52.4745C34.4566 51.9483 34.0924 51.4315 33.8058 50.8761C33.5451 50.3699 33.3693 49.8186 33.1634 49.2852C32.9927 48.8454 32.7982 48.4108 32.6751 47.9575C32.4434 47.1048 32.2365 46.2426 32.0534 45.3776C31.9106 44.7037 31.8113 44.0206 31.7099 43.3394C31.652 42.9515 31.6447 42.5554 31.5826 42.1686C31.3664 40.8262 31.2495 39.4733 31.2112 38.1174C31.1833 37.1368 31.2371 36.1541 31.2526 35.1715C31.2578 34.8138 31.2423 34.4561 31.265 34.0994C31.3075 33.4454 31.3644 32.7913 31.4295 32.1383C31.4854 31.5893 31.5299 31.0361 31.6375 30.4964C31.7999 29.6853 32.0099 28.8826 32.2085 28.0788C32.3968 27.3155 32.5561 26.5419 32.8003 25.7974C33.1148 24.8407 33.4965 23.9049 33.8607 22.9648C33.9393 22.7621 33.9341 22.6019 33.7852 22.4397C33.5224 22.1527 33.2679 21.8574 32.9989 21.5538C32.851 21.7909 32.6813 22.0082 32.5706 22.2536C32.4216 22.5832 32.3192 22.9347 32.194 23.2757C31.9209 24.0203 31.625 24.7565 31.3819 25.5104C31.235 25.9658 31.1761 26.4493 31.0623 26.9162C30.9536 27.3582 30.7943 27.7897 30.7126 28.2368C30.5791 28.971 30.4985 29.7155 30.3826 30.4527C30.2233 31.4718 30.0536 32.4898 29.886 33.5078C29.8632 33.6471 29.8198 33.7823 29.8012 33.9216C29.7815 34.0662 29.8198 34.244 29.5994 34.2565C29.3739 34.2689 29.4256 34.0495 29.3542 33.9351C29.3315 33.8987 29.3346 33.8426 29.3377 33.7968C29.3574 33.5223 29.3894 33.2478 29.4008 32.9723C29.4277 32.3702 29.4319 31.7671 29.4722 31.1671C29.4908 30.8842 29.615 30.6045 29.615 30.3238C29.615 29.4929 29.9315 28.7308 30.0857 27.9342C30.2109 27.2843 30.4126 26.6479 30.5947 26.0095C30.7902 25.3263 30.994 24.6442 31.2112 23.9672C31.3354 23.5794 31.5185 23.2082 31.6261 22.8161C31.7958 22.2026 31.9851 21.6068 32.3813 21.0952C32.4185 21.0474 32.4061 20.9039 32.3627 20.8592C32.1609 20.6533 31.9437 20.4619 31.7254 20.2748C31.654 20.2134 31.5599 20.1791 31.5092 20.151C31.2102 20.8644 30.9288 21.5475 30.6371 22.2255C30.5471 22.4355 30.4043 22.6248 30.3298 22.84C30.0877 23.5357 29.8498 24.2334 29.6408 24.9395C29.497 25.4251 29.4029 25.9253 29.2849 26.4192C29.1453 27.0057 28.9994 27.59 28.867 28.1776C28.7149 28.8524 28.5587 29.5262 28.4325 30.2063C28.3321 30.747 28.2752 31.295 28.1966 31.8399C28.1438 32.209 28.0694 32.575 28.0363 32.9462C27.997 33.3851 27.9949 33.827 27.97 34.2669C27.9494 34.6391 27.8966 35.0124 27.9028 35.3836C27.9111 35.9732 27.9566 36.5628 27.9845 37.1524C28.0032 37.533 28.0042 37.9146 28.0383 38.2931C28.0921 38.8973 28.1697 39.4993 28.2308 40.1035C28.2639 40.4279 28.2649 40.7565 28.3145 41.0778C28.3859 41.5436 28.4873 42.0053 28.5763 42.4691C28.6425 42.8133 28.6901 43.1616 28.779 43.4997C28.9539 44.1609 29.1577 44.8151 29.3398 45.4753C29.4618 45.9202 29.5456 46.3769 29.6874 46.8146C29.856 47.3336 30.0639 47.8408 30.2626 48.3495C30.4167 48.7455 30.5491 49.1562 30.7498 49.5285C31.2537 50.4666 31.7968 51.3795 32.5323 52.1656C32.9886 52.6533 33.3972 53.1858 33.8327 53.6932C33.959 53.8398 34.0986 53.9769 34.2414 54.109C34.5942 54.4367 34.948 54.7642 35.309 55.0823C35.488 55.2404 35.6856 55.3778 35.8749 55.5253C35.8894 55.5046 35.9039 55.4836 35.9184 55.4629C35.7063 55.2466 35.4932 55.0315 35.2832 54.813C34.6676 54.1757 34.0748 53.5205 33.6703 52.7187C33.6155 52.6107 33.5348 52.5161 33.4675 52.4151C33.2555 52.098 33.0072 51.7996 32.8396 51.4606C32.4578 50.6901 32.0989 49.9081 31.7637 49.1168C31.3923 48.2412 31.0581 47.3502 30.7085 46.4652C30.6536 46.3269 30.5895 46.1916 30.5502 46.0492C30.4115 45.5511 30.2874 45.049 30.1488 44.5509C29.9563 43.8594 29.7494 43.1719 29.5632 42.4785C29.4856 42.1904 29.4474 41.892 29.3894 41.5988C29.318 41.2358 29.2074 40.8761 29.1804 40.51C29.1225 39.7156 29.0832 38.918 29.0811 38.1226C29.0791 37.4436 29.1401 36.7645 29.1732 36.0855C29.1815 35.9181 29.2342 35.7538 29.4277 35.8048C29.5146 35.8277 29.6025 35.9961 29.6181 36.1094C29.6863 36.6086 29.736 37.1098 29.7784 37.612C29.8115 38.0009 29.825 38.3919 29.8426 38.7818C29.8746 39.4546 29.8974 40.1274 29.9367 40.8002C29.947 40.9665 30.0122 41.1298 30.0453 41.2951C30.1767 41.9481 30.2915 42.6043 30.4416 43.253C30.5388 43.6763 30.694 44.0851 30.8088 44.5052C31.0302 45.3141 31.2236 46.1315 31.4626 46.9342C31.652 47.5716 31.8599 48.207 32.1165 48.8194C32.3689 49.4195 32.6865 49.9924 32.9927 50.5684C33.0879 50.7484 33.2451 50.8939 33.3641 51.0624C33.7469 51.604 34.1038 52.1646 34.5093 52.6877C35.038 53.3708 35.5314 54.0862 36.1584 54.6872C36.4429 54.9596 36.7294 55.2291 37.015 55.4993L37.0109 55.4952ZM65.7895 47.1098C65.7802 47.086 65.7718 47.0622 65.7624 47.0381C65.9176 46.9705 66.0739 46.906 66.2271 46.8343C66.6295 46.6462 67.0494 46.4859 67.4259 46.2561C67.8688 45.9847 68.2753 45.6541 68.6944 45.3432C68.8486 45.2289 69.0171 45.1175 69.133 44.9688C69.4909 44.5093 69.8272 44.0319 70.1726 43.5598C68.7026 43.7554 67.2677 44.0945 65.7802 43.9198C65.8991 43.8459 66.0294 43.8064 66.1546 43.7564C66.404 43.6577 66.647 43.5444 66.8995 43.4549C67.154 43.3644 67.4125 43.2793 67.6763 43.2179C68.2413 43.0846 68.8072 42.9506 69.3781 42.8528C69.6699 42.8029 69.9751 42.8424 70.2732 42.8216C70.4158 42.8112 70.6102 42.8008 70.6868 42.7104C71.0768 42.2497 71.3346 41.71 71.5268 41.1454C71.1462 41.1454 70.7862 41.1537 70.4271 41.1443C69.1962 41.1111 68.0055 41.3534 66.8189 41.6435C66.2654 41.7786 65.7036 41.8785 65.1511 42.0178C64.5603 42.1675 63.9666 42.3173 63.3935 42.52C62.8534 42.7103 62.3361 42.9681 61.8095 43.2001C61.4609 43.3541 61.1062 43.5006 60.7698 43.6784C60.4316 43.8572 59.9887 43.9624 60.0706 44.5155C60.0859 44.6226 60.0052 44.7431 59.9713 44.8586C59.8906 45.1332 59.8118 45.4087 59.7106 45.7561C61.1134 45.022 62.5183 44.554 64.0255 44.4303C63.8931 44.5218 63.7504 44.5822 63.6106 44.6507C62.8441 45.0292 62.0857 45.4222 61.3108 45.784C60.8639 45.9931 60.3849 46.1315 59.9392 46.3415C59.7642 46.4236 59.5078 46.3913 59.4281 46.6596C59.2936 47.1141 59.1363 47.5622 58.9915 48.0145C58.9098 48.2693 58.8311 48.5261 58.7597 48.753C59.724 48.4431 60.658 48.104 61.6139 47.8492C62.3081 47.6642 63.0335 47.5944 63.743 47.4623C64.0152 47.4125 64.279 47.323 64.5512 47.2722C64.7393 47.2369 64.9349 47.2388 65.1274 47.2231C65.1293 47.2482 65.1314 47.2742 65.1336 47.2992C64.971 47.349 64.8044 47.3875 64.6474 47.4488C64.1105 47.6579 63.5828 47.8908 63.0406 48.0843C62.4127 48.31 61.7796 48.5251 61.1383 48.706C60.3923 48.9161 59.6318 49.0751 58.8828 49.278C58.7339 49.3186 58.5622 49.4245 58.4847 49.5516C58.2446 49.9423 58.0459 50.3593 57.8288 50.7659C57.7419 50.9281 57.6507 51.0874 57.5793 51.2161C57.959 51.1548 58.3458 51.109 58.7257 51.0292C59.7458 50.8148 60.7627 50.5809 61.7827 50.3668C62.1872 50.2813 62.6299 50.3023 62.9992 50.1432C63.5424 49.9091 64.1425 49.7989 64.6163 49.3891C65.1635 48.9151 65.7687 48.5075 66.3149 48.0333C66.7971 47.6153 67.2347 47.1442 67.7271 46.6606C67.0453 46.8187 66.4174 46.9633 65.7895 47.1089V47.1098ZM20.4242 46.7231C20.5411 46.8781 20.6414 47.0528 20.7811 47.1849C21.1835 47.5684 21.587 47.9544 22.0184 48.3057C22.6401 48.8131 23.2174 49.3976 23.9644 49.7188C24.5044 49.9507 25.0723 50.1307 25.6424 50.2782C26.1917 50.4197 26.7596 50.4832 27.3173 50.5934C27.8552 50.6983 28.389 50.8232 28.926 50.9303C29.1846 50.9822 29.4505 51.002 29.707 51.0592C29.9491 51.1122 30.1839 51.1954 30.4084 51.2621C30.1095 50.6858 29.8167 50.1016 29.4991 49.5306C29.4401 49.4245 29.2953 49.3393 29.1722 49.3008C28.9436 49.2291 28.7025 49.2 28.4677 49.15C28.0683 49.0648 27.6628 49.0025 27.2728 48.886C26.7917 48.7424 26.3241 48.5552 25.8513 48.3848C25.2916 48.1829 24.733 47.9772 24.1723 47.7766C23.7647 47.631 23.355 47.4926 22.9474 47.3471C22.9029 47.3314 22.8678 47.2845 22.7767 47.2087C22.9122 47.2087 22.9857 47.1952 23.0519 47.2109C23.3147 47.271 23.5733 47.3584 23.8392 47.4022C24.5116 47.5133 25.1934 47.5788 25.8596 47.7162C26.4772 47.843 27.0866 48.0217 27.6876 48.2121C28.2007 48.3742 28.6973 48.5865 29.2301 48.7862C29.2136 48.7029 29.2063 48.6302 29.1846 48.5626C28.9932 47.9585 28.8049 47.3543 28.6011 46.7542C28.5649 46.6471 28.4853 46.5162 28.3911 46.4746C27.9587 46.2833 27.5066 46.1346 27.0742 45.9433C26.2579 45.5824 25.4489 45.208 24.6409 44.8295C24.3885 44.7109 24.1506 44.5622 23.9054 44.4282C23.9157 44.4 23.9271 44.3721 23.9374 44.344C24.434 44.4438 24.9368 44.5249 25.4272 44.6486C25.9207 44.7735 26.411 44.919 26.889 45.0968C27.3462 45.2662 27.7849 45.4888 28.2308 45.6885C28.117 45.1924 28.0125 44.7557 27.9173 44.318C27.8811 44.1536 27.8532 43.9977 27.6773 43.9154C27.3007 43.7398 26.9386 43.5307 26.5527 43.381C25.7561 43.0723 25.0413 42.5679 24.1609 42.4483C23.654 42.3786 23.1657 42.1707 22.6671 42.0334C22.0484 41.8629 21.4339 41.6726 20.8059 41.5426C20.1666 41.4095 19.5169 41.3138 18.8672 41.2483C18.081 41.1693 17.2896 41.1381 16.4102 41.0809C16.6606 41.5738 16.8375 41.9908 17.0785 42.3651C17.2026 42.5575 17.304 42.8081 17.6578 42.8029C18.1958 42.7956 18.7358 42.8788 19.2717 42.9434C19.5655 42.9787 19.8624 43.0285 20.1438 43.1168C20.7904 43.3206 21.4297 43.5495 22.0701 43.7742C22.2284 43.8293 22.3805 43.9051 22.5563 43.9811C20.9518 44.0954 19.4393 43.8064 17.9061 43.5754C18.8393 45.3692 20.48 46.2479 22.1705 47.0766C21.5849 46.958 20.9994 46.8406 20.4211 46.7231H20.4242ZM33.5907 32.6998C33.6848 32.7872 33.7138 32.8111 33.7376 32.8381C34.05 33.1916 33.8969 33.6149 33.8783 34.0027C33.8483 34.636 33.7179 35.2651 33.6931 35.8984C33.6517 36.9351 33.6341 37.9739 33.6579 39.0106C33.6745 39.7104 33.7717 40.4092 33.8451 41.108C33.9041 41.6601 33.9724 42.2112 34.0552 42.7592C34.1224 43.2063 34.2083 43.6503 34.3034 44.0923C34.5445 45.209 34.7959 46.3237 35.0535 47.4864C35.1021 46.2989 35.1456 45.1676 35.1952 44.0372C35.2066 43.7845 35.2418 43.5338 35.2614 43.2812C35.2842 42.9891 35.3452 42.6906 35.3131 42.4036C35.2335 41.6955 35.0876 40.9936 35.0111 40.2854C34.9325 39.5586 34.8673 38.8265 34.8642 38.0955C34.8611 37.3458 34.9262 36.595 34.9883 35.8464C35.0245 35.4034 35.1052 34.9646 35.1776 34.5247C35.2335 34.1857 35.308 33.8499 35.3742 33.513C35.4683 33.0378 35.5552 32.5605 35.6597 32.0874C35.7828 31.5321 35.9287 30.981 36.0497 30.4246C36.2442 29.5377 36.3891 28.6372 36.6344 27.7647C36.7356 27.406 36.7253 27.1387 36.5525 26.8278C36.3715 26.5013 36.2318 26.1509 36.0735 25.8109C35.8832 26.1873 35.7683 26.5388 35.6587 26.8923C35.4539 27.5474 35.2552 28.2046 35.0473 28.8586C34.8383 29.5148 34.6304 30.1709 34.4017 30.8198C34.3024 31.1016 34.2476 31.425 33.9103 31.6018C33.8669 31.4801 33.7914 31.374 33.7986 31.2752C33.8389 30.7262 33.8441 30.1647 33.9683 29.6333C34.1162 28.998 34.3645 28.3845 34.5838 27.7668C34.8673 26.9672 35.1714 26.1759 35.4539 25.3762C35.5087 25.2213 35.5821 25.0081 35.519 24.8885C35.2894 24.4508 35.0111 24.038 34.739 23.6251C34.65 23.491 34.5217 23.3828 34.3748 23.2237C34.2817 23.4754 34.2186 23.6688 34.14 23.856C34.0221 24.1399 33.8721 24.4112 33.7748 24.7014C33.5648 25.3274 33.3765 25.9596 33.1872 26.5918C32.9927 27.2427 32.7785 27.8895 32.6265 28.5498C32.4651 29.2496 32.3451 29.9609 32.2447 30.6721C32.1516 31.3397 32.0927 32.0146 32.0471 32.6873C32.0068 33.2832 32.0068 33.8821 31.9851 34.479C31.9665 35.001 31.9395 35.523 31.922 36.045C31.9147 36.2446 31.9282 36.4443 31.9209 36.6439C31.9044 37.0609 31.8599 37.4768 31.863 37.8928C31.8682 38.4709 31.8971 39.0501 31.9344 39.6283C31.9685 40.1513 32.0151 40.6733 32.0771 41.1932C32.1247 41.5925 32.2096 41.9877 32.2665 42.3859C32.3172 42.7405 32.3254 43.1024 32.3999 43.4508C32.5437 44.1298 32.7196 44.8026 32.8851 45.4773C32.973 45.8372 33.0455 46.2032 33.1613 46.5535C33.3144 47.0162 33.5265 47.4604 33.6724 47.9262C33.9538 48.8225 34.2403 49.7137 34.6945 50.5414C35.0359 51.1632 35.3618 51.7924 35.6949 52.4182C35.7601 52.3694 35.7704 52.3424 35.7632 52.3215C35.547 51.7527 35.6835 51.109 35.399 50.5539C35.3752 50.507 35.3794 50.4447 35.3732 50.3896C35.3163 49.8749 35.2821 49.3716 35.0245 48.8839C34.6769 48.2246 34.4038 47.5196 34.1597 46.8124C33.8907 46.0348 33.6455 45.2424 33.4696 44.4385C33.2327 43.3572 33.0496 42.2632 32.8892 41.1672C32.8106 40.6296 32.8261 40.0775 32.821 39.5316C32.8179 39.178 32.8541 38.8255 32.8737 38.4719C32.9099 37.794 32.9193 37.1139 32.9886 36.4401C33.0827 35.5198 33.2131 34.6017 33.3475 33.6866C33.3941 33.3716 33.4986 33.0658 33.5907 32.6988V32.6998ZM51.9971 25.8389L51.9184 25.8182C51.7529 26.1759 51.6038 26.5429 51.4166 26.8881C51.2904 27.1211 51.2667 27.3238 51.3328 27.589C51.6174 28.7328 51.8791 29.8818 52.1285 31.034C52.3591 32.0998 52.5692 33.1709 52.7801 34.2419C52.8711 34.7057 52.9623 35.1715 53.015 35.6405C53.0782 36.1947 53.1258 36.7541 53.1339 37.3115C53.1442 38.0311 53.1299 38.7527 53.0854 39.4702C53.0533 39.9714 52.9561 40.4685 52.8804 40.9665C52.8175 41.3825 52.7387 41.7963 52.6798 42.2133C52.6612 42.3464 52.6767 42.4857 52.6901 42.6209C52.7191 42.9121 52.772 43.2011 52.7885 43.4934C52.8101 43.8719 52.7998 44.2525 52.8175 44.631C52.8412 45.1467 52.8888 45.6625 52.9075 46.1782C52.923 46.6024 52.9106 47.0278 52.9106 47.452C52.9736 47.3074 53.0047 47.163 53.042 47.0193C53.1464 46.6243 53.2663 46.2323 53.3554 45.8329C53.4765 45.2881 53.5737 44.7381 53.6833 44.19C53.7154 44.0278 53.7671 43.8697 53.7908 43.7066C53.8839 43.0752 53.9677 42.4421 54.0599 41.8109C54.1509 41.1922 54.3031 40.5776 54.333 39.9558C54.3869 38.8453 54.39 37.7295 54.3723 36.6179C54.362 35.9649 54.271 35.3129 54.2119 34.6599C54.1695 34.193 54.1126 33.7272 54.0817 33.2592C54.0733 33.1355 54.1231 32.9982 54.1779 32.8839C54.2119 32.8132 54.3081 32.7726 54.3776 32.7185C54.4168 32.7861 54.4779 32.8506 54.4922 32.9234C54.5772 33.3549 54.6641 33.7875 54.7271 34.2232C54.8264 34.9084 54.9269 35.5947 54.9909 36.2841C55.0603 37.0266 55.0955 37.7732 55.1316 38.5187C55.1575 39.0491 55.201 39.5836 55.1658 40.1118C55.1129 40.8875 55.0304 41.6643 54.8989 42.4296C54.7426 43.3312 54.542 44.2265 54.3206 45.1144C54.1353 45.8579 53.8995 46.5889 53.6699 47.3199C53.6017 47.5383 53.4775 47.7381 53.3834 47.9481C53.1732 48.4159 52.9022 48.8673 52.7751 49.3569C52.6023 50.0215 52.5453 50.7149 52.4294 51.3951C52.3737 51.7257 52.2961 52.0522 52.2276 52.3809C52.4668 52.0835 52.6621 51.7715 52.8309 51.4449C53.104 50.9187 53.3865 50.3937 53.6182 49.849C53.9222 49.1355 54.1975 48.4086 54.4561 47.6777C54.6495 47.1307 54.8005 46.5682 54.9619 46.0107C55.0924 45.5615 55.2154 45.1113 55.3303 44.658C55.4141 44.3252 55.4782 43.9883 55.5496 43.6524C55.6231 43.304 55.7109 42.9588 55.7638 42.6074C55.8423 42.0812 55.8984 41.552 55.9582 41.0227C56.0276 40.4019 56.132 39.7811 56.1454 39.1583C56.1641 38.3035 56.1114 37.4467 56.0887 36.5899C56.0628 35.6259 56.0566 34.6599 56.0058 33.697C55.9573 32.7622 55.8632 31.8295 55.7885 30.8957C55.7689 30.6524 55.7732 30.4039 55.7224 30.1668C55.5682 29.4399 55.3976 28.7172 55.2247 27.9945C55.0727 27.3613 54.9435 26.7197 54.7407 26.102C54.4996 25.37 54.1923 24.6587 53.9119 23.9402C53.8272 23.7218 53.7341 23.5076 53.6388 23.2789C53.5591 23.3256 53.5127 23.3423 53.4806 23.3745C53.0265 23.8237 52.7595 24.3998 52.4378 24.9395C52.4263 24.9582 52.4347 24.9936 52.4428 25.0175C52.5992 25.4958 52.7387 25.9804 52.9178 26.4504C53.1495 27.0556 53.4329 27.642 53.6584 28.2493C53.8313 28.7162 53.972 29.1987 54.0826 29.6843C54.1779 30.1002 54.2346 30.5297 54.2595 30.956C54.2729 31.1816 54.182 31.4125 54.1384 31.6413C54.1032 31.6433 54.0683 31.6454 54.0331 31.6475C53.9419 31.5123 53.8241 31.3875 53.7662 31.2388C53.6192 30.8655 53.494 30.4818 53.3697 30.1002C53.0202 29.0281 52.6758 27.954 52.3301 26.8809C52.2185 26.5336 52.1087 26.1842 51.9981 25.8358L51.9971 25.8389ZM45.6544 23.2456C45.6264 23.2529 45.5974 23.2602 45.5694 23.2674C45.6015 23.4754 45.6233 23.6854 45.6699 23.8903C45.7422 24.2095 45.8531 24.5215 45.9098 24.8438C46.0257 25.502 46.1116 26.1665 46.2172 26.8268C46.2823 27.2375 46.362 27.6462 46.4343 28.0559C46.4716 28.267 46.4975 28.4801 46.547 28.6881C46.6722 29.2049 46.8161 29.7165 46.9372 30.2343C47.1017 30.9342 47.2453 31.6392 47.41 32.339C47.5228 32.8194 47.681 33.2904 47.7741 33.774C47.9127 34.4935 48.0099 35.2214 48.1299 35.9452C48.2345 36.5753 48.3659 37.2013 48.4506 37.8345C48.5478 38.5531 48.6069 39.2768 48.6814 39.9974C48.6814 40.0068 48.6783 40.0161 48.6792 40.0255C48.7403 40.9083 48.8035 41.7901 48.8593 42.6729C48.8748 42.9224 48.877 43.1731 48.8676 43.4227C48.8418 44.1173 48.8066 44.8108 48.7733 45.5054C48.7403 46.2239 48.7154 46.9436 48.668 47.662C48.6297 48.2371 48.5646 48.81 48.5086 49.3829C48.4547 49.9341 48.4341 50.4914 48.3326 51.0332C48.1806 51.8475 47.9458 52.6461 47.7947 53.4603C47.6365 54.3109 47.1678 55.0106 46.7479 55.7271C46.4601 56.2168 46.036 56.6234 45.6802 57.0736C45.5799 57.2004 45.5074 57.3481 45.4226 57.4875C45.4423 57.5009 45.461 57.5134 45.4806 57.5269C45.6522 57.346 45.8157 57.1569 45.9967 56.9853C46.6009 56.4124 47.2599 55.8924 47.7286 55.1894C48.1298 54.5864 48.521 53.975 48.9131 53.3645C49.0953 53.0816 49.2585 52.7864 49.452 52.5118C49.4977 52.4464 49.6289 52.4423 49.721 52.4088C49.7344 52.4911 49.7799 52.5835 49.7572 52.6543C49.5638 53.2377 49.4003 53.8366 49.1427 54.3908C48.9078 54.8951 48.583 55.36 48.2665 55.8207C48.0233 56.1752 47.7595 56.5226 47.4565 56.8241C47.0964 57.1828 46.6856 57.4906 46.2969 57.8202C46.3785 57.8452 46.4405 57.8359 46.4984 57.814C47.1369 57.577 47.7243 57.2526 48.2438 56.8075C48.3307 56.7327 48.46 56.7014 48.5325 56.6162C48.9627 56.1087 49.4077 55.6107 49.7967 55.0729C50.0904 54.6665 50.3365 54.2182 50.5539 53.7637C50.9678 52.9018 51.2397 51.9887 51.4374 51.052C51.5066 50.7243 51.6309 50.4053 51.666 50.0744C51.7467 49.3237 51.8066 48.5689 51.8408 47.8148C51.8791 46.978 51.9143 46.1387 51.8906 45.3026C51.8647 44.4241 51.7757 43.5463 51.696 42.6698C51.6536 42.1967 51.5791 41.7256 51.5097 41.2546C51.4393 40.7846 51.3568 40.3177 51.2802 39.8487C51.2222 39.4889 51.1849 39.125 51.1064 38.7693C50.9117 37.8938 50.7142 37.0183 50.4907 36.15C50.2695 35.289 50.0222 34.4353 49.7718 33.5826C49.5927 32.9754 49.3921 32.3754 49.1965 31.7733C49.09 31.4468 48.9763 31.1224 48.8624 30.7979C48.7673 30.5276 48.6668 30.2593 48.549 29.9349C48.521 30.0264 48.5086 30.0461 48.5126 30.0617C48.7175 30.8416 48.939 31.6184 49.1252 32.4024C49.2722 33.018 49.3725 33.645 49.5018 34.2658C49.6724 35.0821 49.8596 35.8953 50.0263 36.7126C50.167 37.404 50.1814 38.1143 50.3614 38.8047C50.4981 39.3309 50.5103 39.8893 50.5828 40.4321C50.6233 40.7305 50.6956 41.0258 50.7142 41.3253C50.765 42.1031 50.7928 42.8819 50.8323 43.6609C50.8351 43.7138 50.8653 43.7658 50.8746 43.8187C50.9005 43.9655 50.945 44.113 50.9429 44.2598C50.9295 45.4513 50.9149 46.6421 50.8828 47.8326C50.8715 48.2693 50.8382 48.7092 50.7638 49.1387C50.6872 49.5763 50.5713 50.0099 50.4287 50.43C50.3252 50.7349 50.1627 51.0229 49.9942 51.2984C49.9528 51.366 49.7862 51.3557 49.6765 51.3817C49.6765 51.2859 49.6569 51.1841 49.6818 51.0946C49.7117 50.9885 49.8132 50.898 49.8266 50.7931C49.9279 50.0359 50.0418 49.2801 50.1007 48.5188C50.1649 47.6861 50.2331 46.8459 50.1929 46.0138C50.1565 45.2725 50.2953 44.5374 50.1701 43.7896C50.0428 43.0232 50.0636 42.2341 49.9839 41.4584C49.9197 40.8293 49.7998 40.2064 49.7107 39.5794C49.6425 39.0948 49.5949 38.6061 49.5192 38.1226C49.3454 37.0058 49.1635 35.8911 48.9804 34.7764C48.943 34.5487 48.8904 34.324 48.8406 34.0994C48.7384 33.6388 48.6316 33.1781 48.5303 32.7175C48.4693 32.4388 48.4248 32.156 48.3575 31.8794C48.279 31.556 48.1734 31.2399 48.0959 30.9165C48.013 30.5733 47.9685 30.2198 47.8723 29.8808C47.7318 29.3848 47.5589 28.8992 47.4038 28.4073C47.173 27.6774 46.9454 26.9464 46.7199 26.2143C46.6837 26.0958 46.6744 25.9689 46.6308 25.8535C46.4944 25.4896 46.3424 25.1308 46.2069 24.7669C46.0185 24.2615 45.8385 23.752 45.6553 23.2435L45.6544 23.2456ZM42.6707 57.6133C42.6779 57.6029 42.6841 57.5936 42.6915 57.5832C42.5766 57.4179 42.4804 57.2348 42.3449 57.0892C41.8534 56.5589 41.4323 55.9848 41.0568 55.3621C40.5923 54.5905 40.2364 53.795 40.0741 52.9069C39.9498 52.2248 39.7648 51.5532 39.6686 50.868C39.5465 49.9977 39.4783 49.1177 39.4016 48.2412C39.3365 47.4946 39.2848 46.747 39.2444 45.9994C39.2164 45.4888 39.2269 44.9751 39.2051 44.4636C39.1874 44.056 39.1139 43.6484 39.1254 43.2427C39.1513 42.3932 39.2092 41.5436 39.2681 40.6951C39.3085 40.1222 39.3643 39.5492 39.4285 38.9784C39.4967 38.3732 39.5764 37.768 39.6654 37.1649C39.7452 36.6169 39.8361 36.071 39.9355 35.5261C40.0317 34.9937 40.1382 34.4634 40.251 33.9341C40.4114 33.1792 40.5758 32.4253 40.7465 31.6724C40.9524 30.7626 41.1769 29.8569 41.3756 28.945C41.5286 28.242 41.6528 27.5328 41.7914 26.8268C41.8503 26.5273 41.9279 26.231 41.9777 25.9294C42.0459 25.5145 42.0789 25.0934 42.1555 24.6795C42.2434 24.2054 42.3614 23.7364 42.466 23.2654C42.4349 23.2581 42.4038 23.2508 42.3717 23.2435C42.3387 23.3475 42.3106 23.4536 42.2714 23.5555C42.0263 24.195 41.7718 24.8314 41.5338 25.474C41.418 25.7859 41.3352 26.1093 41.2317 26.4254C41.1087 26.7998 40.9689 27.1699 40.854 27.5464C40.7238 27.9737 40.6213 28.4084 40.492 28.8358C40.3793 29.2091 40.2251 29.572 40.1258 29.9484C40.0202 30.3529 39.9676 30.7709 39.8735 31.1785C39.743 31.7463 39.5972 32.3099 39.4565 32.8756C39.3478 33.3154 39.2123 33.75 39.1326 34.1941C39.0239 34.7993 38.9641 35.4127 38.8678 36.02C38.6567 37.3531 38.424 38.682 38.2222 40.0161C38.1023 40.8116 38.0144 41.6133 37.9325 42.415C37.8861 42.8705 37.8861 43.33 37.854 43.7877C37.8375 44.0175 37.7671 44.2463 37.769 44.4749C37.7734 44.817 37.8416 45.1582 37.8447 45.5001C37.8509 46.1875 37.8085 46.875 37.8291 47.5612C37.8488 48.2048 37.8986 48.8506 37.9823 49.4902C38.0546 50.039 38.1085 50.5997 38.3484 51.1153C38.3816 51.187 38.3268 51.3006 38.3122 51.3951C38.2109 51.366 38.0618 51.3679 38.0185 51.3006C37.8696 51.0696 37.7204 50.8273 37.6388 50.5674C37.466 50.0205 37.2694 49.4683 37.2022 48.9048C37.11 48.131 37.1287 47.3439 37.1019 46.5629C37.0698 45.6053 36.9819 44.6495 37.1711 43.6909C37.252 43.2812 37.195 42.8455 37.2146 42.4223C37.2333 42.0178 37.252 41.6123 37.3037 41.2119C37.4018 40.4487 37.5189 39.6875 37.6388 38.9274C37.6728 38.7091 37.7578 38.498 37.7949 38.2796C37.8416 38.004 37.854 37.7233 37.8974 37.4477C37.9957 36.8363 38.096 36.2259 38.2129 35.6186C38.3041 35.1455 38.4199 34.6765 38.5265 34.2065C38.7871 33.0544 39.0488 31.9033 39.3116 30.7512C39.3717 30.4901 39.4388 30.2312 39.5029 29.9713C39.4802 29.965 39.4574 29.9588 39.4347 29.9526C39.3282 30.252 39.2133 30.5494 39.1151 30.852C38.874 31.5903 38.6308 32.3276 38.4053 33.071C38.1549 33.8998 37.917 34.7317 37.6865 35.5666C37.5488 36.0637 37.4349 36.567 37.3099 37.0671C37.1679 37.637 36.9932 38.2006 36.8898 38.7777C36.7263 39.6948 36.6042 40.6192 36.476 41.5416C36.3829 42.2112 36.2753 42.8809 36.2298 43.5548C36.1646 44.5177 36.1346 45.4835 36.1201 46.4486C36.1097 47.1192 36.1397 47.79 36.1718 48.4606C36.1884 48.8049 36.2453 49.1468 36.2856 49.4902C36.3125 49.7147 36.296 49.9579 36.3808 50.1586C36.5992 50.6807 36.5276 51.2599 36.7699 51.783C36.9819 52.2404 37.0337 52.7707 37.2321 53.2356C37.4837 53.8241 37.8064 54.3826 38.1085 54.9492C38.2129 55.1448 38.3175 55.3506 38.4673 55.5096C38.8906 55.9569 39.3241 56.3968 39.7782 56.8106C40.2002 57.1954 40.6845 57.4937 41.2255 57.6893C41.3031 57.7172 41.3713 57.7704 41.4489 57.7974C41.5255 57.8243 41.6083 57.8349 41.689 57.8515C41.3423 57.5062 40.9421 57.2442 40.6213 56.9052C40.2189 56.48 39.8713 56.0005 39.5206 55.5296C38.9021 54.6997 38.5688 53.7346 38.272 52.7572C38.2409 52.6543 38.2689 52.5337 38.2689 52.4213C38.3898 52.4745 38.5573 52.493 38.6227 52.5857C38.8202 52.8655 38.9921 53.166 39.1503 53.4707C39.6614 54.4521 40.2912 55.3433 41.0857 56.1138C41.5152 56.5289 41.9434 56.9446 42.3738 57.3585C42.4679 57.449 42.5713 57.53 42.6707 57.6155V57.6133ZM43.5231 57.6756C43.5471 57.6621 43.5708 57.6487 43.5945 57.6352C43.578 57.5945 43.5698 57.5469 43.5449 57.5134C42.9946 56.7878 42.6551 55.96 42.3667 55.1032C42.139 54.4283 41.96 53.7471 41.8989 53.0339C41.8235 52.1374 41.7096 51.2433 41.6466 50.3458C41.599 49.6721 41.5968 48.995 41.5896 48.3191C41.5856 47.9375 41.6382 47.5549 41.6186 47.1755C41.5968 46.7604 41.4884 46.3497 41.4769 45.9359C41.4532 45.0624 41.2772 44.2056 41.2554 43.3269C41.2327 42.3974 41.3021 41.4833 41.4046 40.5683C41.4841 39.856 41.6289 39.151 41.7428 38.4428C41.7852 38.1798 41.8111 37.9136 41.8596 37.6515C41.9248 37.3021 42.0169 36.958 42.0758 36.6075C42.1266 36.3028 42.1381 35.993 42.1804 35.6862C42.2621 35.0873 42.3717 34.4925 42.4339 33.8925C42.4969 33.2842 42.5103 32.6717 42.557 32.0624C42.6168 31.2783 42.6862 30.4943 42.7576 29.7113C42.8435 28.7692 42.9273 27.8282 43.0298 26.8881C43.0547 26.6636 43.2241 26.4348 43.1942 26.2279C43.1425 25.8754 43.3256 25.5852 43.3443 25.2639C43.3948 24.3811 43.6969 23.5263 43.6203 22.63C43.5988 22.3753 43.6175 22.1174 43.6175 21.8605C43.487 22.0383 43.4166 22.2224 43.3462 22.4064C43.2696 22.6071 43.1736 22.8016 43.1186 23.0085C42.9678 23.5856 42.8363 24.1679 42.6915 24.7471C42.5196 25.4355 42.3355 26.1208 42.1689 26.8112C42.0646 27.2448 41.9901 27.6857 41.8917 28.1204C41.778 28.6205 41.6332 29.1134 41.5379 29.6167C41.4096 30.304 41.3155 30.9986 41.2078 31.6901C41.1097 32.3161 41.005 32.9421 40.9181 33.5702C40.8696 33.9175 40.8624 34.271 40.8159 34.6194C40.7403 35.1892 40.6378 35.7549 40.5686 36.3247C40.5107 36.8009 40.4837 37.2803 40.4475 37.7586C40.436 37.9115 40.459 38.0685 40.4363 38.2193C40.3771 38.6072 40.2799 38.9898 40.2385 39.3787C40.1619 40.1024 40.1196 40.8303 40.0523 41.5551C40.0121 41.9887 39.9498 42.4213 39.8993 42.8538C39.8517 43.2636 39.7988 43.6722 39.7617 44.0829C39.7409 44.3055 39.7502 44.5312 39.7399 44.7557C39.7203 45.2133 39.6851 45.6707 39.6789 46.1284C39.6717 46.7106 39.6872 47.2939 39.6944 47.8774C39.6975 48.1444 39.6841 48.4139 39.7181 48.6769C39.7605 48.9993 39.8383 49.3174 39.9106 49.6358C40.1062 50.4914 40.2893 51.3504 40.5138 52.1988C40.6421 52.6834 40.8004 53.1701 41.0187 53.6203C41.3713 54.3482 41.7553 55.0647 42.1804 55.7531C42.591 56.4174 43.0712 57.0382 43.52 57.6787L43.5231 57.6756ZM44.4843 21.8449L44.3952 21.8584C44.3952 22.1049 44.3952 22.3513 44.3952 22.5978C44.3952 22.8109 44.3725 23.0251 44.3952 23.2352C44.4428 23.6969 44.507 24.1565 44.5752 24.6151C44.6126 24.8688 44.6715 25.1204 44.7201 25.3731C44.8019 25.7994 44.8982 26.2247 44.9602 26.6542C45.0128 27.0192 45.0234 27.3914 45.0574 27.7595C45.138 28.6527 45.2218 29.547 45.3037 30.4402C45.3429 30.8749 45.3834 31.3096 45.4174 31.7442C45.4432 32.0822 45.461 32.4201 45.4825 32.758C45.5012 33.0388 45.5064 33.3206 45.5447 33.5982C45.6419 34.3074 45.7619 35.0135 45.859 35.7216C45.9689 36.5139 46.0237 37.3157 46.1767 38.0997C46.3608 39.0408 46.543 39.9756 46.637 40.9333C46.7024 41.5884 46.7881 42.2393 46.7666 42.8975C46.7426 43.5848 46.7086 44.2732 46.6507 44.9585C46.5803 45.7987 46.363 46.6252 46.4467 47.4792C46.5037 48.0602 46.3732 48.6343 46.395 49.2207C46.4271 50.1057 46.3474 50.9979 46.2636 51.8817C46.1932 52.6148 46.1023 53.3552 45.9222 54.0674C45.7288 54.8381 45.4485 55.5909 45.1545 56.3313C44.9798 56.7721 44.7076 57.1735 44.4802 57.5926C44.8587 57.1422 45.2053 56.6701 45.5342 56.1867C46.1767 55.2413 46.8089 54.2868 47.1503 53.1805C47.4296 52.2738 47.7119 51.3648 47.9283 50.4425C48.099 49.7169 48.2914 48.9868 48.2768 48.2255C48.2687 47.8273 48.3173 47.4281 48.3214 47.0299C48.3276 46.4818 48.3556 45.9308 48.3048 45.3868C48.2304 44.5913 48.2531 43.7918 48.1196 42.9985C47.9872 42.2112 47.9261 41.4116 47.8414 40.6172C47.7617 39.8716 47.686 39.125 47.6168 38.3794C47.5869 38.0612 47.591 37.7399 47.5548 37.4228C47.4926 36.8883 47.4016 36.3569 47.3384 35.8224C47.2712 35.2547 47.2362 34.6838 47.1637 34.1171C47.0821 33.4755 46.9734 32.8371 46.8781 32.1965C46.7768 31.5165 46.6909 30.8333 46.5741 30.1564C46.4841 29.6396 46.3558 29.1301 46.244 28.6174C46.125 28.0725 46.0163 27.5245 45.883 26.9828C45.6211 25.9232 45.3544 24.8646 45.0708 23.8113C44.8938 23.152 44.6818 22.5011 44.4864 21.847L44.4843 21.8449ZM60.388 43.067C60.9178 42.8133 61.4662 42.6168 61.944 42.3079C62.6548 41.8504 63.4648 41.6882 64.2385 41.4345C65.1398 41.1391 66.0966 41.1142 67.0381 41.0279C67.9878 40.9416 68.9364 40.8501 69.8851 40.7648C70.3661 40.7211 70.8472 40.6775 71.3293 40.6494C71.619 40.6328 71.8703 40.5901 71.9903 40.2698C72.1176 39.9319 72.2708 39.6033 72.4125 39.2716C72.4599 39.1603 72.5066 39.0501 72.5531 38.9389C72.6234 38.7725 72.5615 38.7122 72.3908 38.7226C71.7215 38.7652 71.0521 38.8068 70.3816 38.8453C69.8107 38.8785 69.2395 38.9066 68.6686 38.9368C68.3406 38.9545 68.0127 38.9711 67.6888 38.9877C67.6526 38.6841 67.6866 38.6123 67.8678 38.5343C68.5879 38.2255 69.3606 38.1486 70.1221 38.03C70.3775 37.9905 70.6423 37.9832 70.9011 37.9947C71.4474 38.0186 71.9924 38.0706 72.5378 38.0987C72.6555 38.1049 72.8324 38.0987 72.8832 38.0279C73.0074 37.8533 73.0828 37.6411 73.1594 37.4373C73.2803 37.1171 73.3859 36.7916 73.5204 36.4016C73.09 36.4016 72.6866 36.4027 72.2821 36.4016C72.1382 36.4016 71.9924 36.3756 71.8507 36.3892C71.229 36.4495 70.5968 36.6231 69.9885 36.5607C69.2685 36.4869 68.6178 36.7552 67.9246 36.7864C67.2792 36.8155 66.6407 37.0224 66.0025 37.1659C65.3734 37.3073 64.7486 37.4654 64.1239 37.6224C63.71 37.7264 63.292 37.82 62.8905 37.9604C62.2854 38.1704 61.6917 38.4148 61.0968 38.6529C61.0389 38.6758 60.9726 38.76 60.9664 38.8203C60.9218 39.2893 60.8919 39.7582 60.8577 40.2251C61.0315 40.1731 61.2199 40.1409 61.3865 40.0629C61.8023 39.8685 62.1935 39.6085 62.6227 39.4598C63.112 39.2903 63.6283 39.1801 64.1413 39.1011C64.8181 38.9971 65.5018 38.943 66.1845 38.8806C66.2745 38.8723 66.3719 38.9461 66.465 38.9815C66.3904 39.0616 66.3293 39.1853 66.2395 39.2134C65.9157 39.3153 65.5793 39.3745 65.2535 39.4671C64.6306 39.6439 64.0049 39.8113 63.3923 40.0192C62.6725 40.2636 61.9627 40.5392 61.2551 40.8199C61.0741 40.8917 60.8412 40.9946 60.772 41.1475C60.6499 41.4168 60.6322 41.736 60.5755 42.0344C60.5113 42.3703 60.4512 42.7072 60.3861 43.0639L60.388 43.067ZM27.6338 43.0952C27.4993 42.4348 27.3887 41.8442 27.2531 41.2587C27.2273 41.1454 27.1279 41.0008 27.0266 40.9593C26.471 40.7315 25.9062 40.5277 25.3423 40.3229C24.703 40.09 24.0668 39.8456 23.4181 39.6418C22.8822 39.4733 22.3277 39.3621 21.7846 39.2154C21.6812 39.1874 21.5901 39.1125 21.4349 39.0272C21.5767 38.9576 21.6398 38.9014 21.7039 38.8993C22.0091 38.891 22.3215 38.8598 22.6195 38.9066C23.415 39.0324 24.2044 39.1915 24.9958 39.3444C25.1582 39.3756 25.3206 39.4245 25.4717 39.4921C26.0355 39.7437 26.5941 40.0057 27.16 40.2667C27.1103 39.7697 27.0607 39.3246 27.0255 38.8785C27.0141 38.7267 26.9541 38.6654 26.8083 38.6186C26.4338 38.499 26.0675 38.3565 25.7003 38.2162C25.4592 38.1236 25.2306 37.9978 24.9854 37.9209C24.5933 37.7981 24.1909 37.7098 23.7957 37.5954C23.4988 37.5101 23.2102 37.3895 22.9112 37.3177C22.6019 37.2439 22.2812 37.2158 21.9687 37.1545C21.3242 37.0287 20.687 36.8612 20.0383 36.7697C19.1631 36.646 18.2806 36.5503 17.3992 36.4921C16.5623 36.437 15.7202 36.4463 14.8812 36.4276C14.7591 36.4245 14.6381 36.4276 14.4994 36.4276C14.6463 36.855 14.7332 37.272 14.9267 37.6307C15.2164 38.1673 15.0343 38.212 15.655 38.0227C15.6819 38.0144 15.7108 38.0134 15.7388 38.0134C16.4454 38.0165 17.1509 38.0165 17.8575 38.0248C18.021 38.0269 18.1855 38.0487 18.3469 38.0768C18.6086 38.1226 18.8724 38.1683 19.129 38.237C19.4952 38.3357 19.8593 38.4449 20.2131 38.578C20.2824 38.604 20.3114 38.7631 20.3342 38.8661C20.3394 38.891 20.2504 38.969 20.2038 38.97C19.9535 38.9752 19.7011 38.9742 19.4507 38.9555C18.9707 38.9191 18.4927 38.8588 18.0116 38.8297C17.601 38.8058 17.1882 38.8172 16.7764 38.8037C16.345 38.7891 15.9136 38.7631 15.4481 38.7402C15.4584 38.838 15.447 38.9336 15.4791 39.0106C15.6426 39.3922 15.8288 39.7645 15.985 40.1482C16.1402 40.5298 16.2457 40.6172 16.6533 40.6203C16.7837 40.6213 16.9161 40.6088 17.0454 40.6234C17.7665 40.7045 18.4855 40.8002 19.2076 40.8761C20.4283 41.005 21.6563 41.084 22.8698 41.2587C23.5857 41.3617 24.3027 41.5509 24.9813 41.8057C25.6982 42.074 26.3696 42.4649 27.0607 42.8039C27.2397 42.8913 27.4166 42.9828 27.6349 43.094L27.6338 43.0952ZM43.7611 27.7939C43.7228 27.7887 43.6835 27.7835 43.6452 27.7782C43.6069 28.0559 43.577 28.3356 43.5284 28.6112C43.3929 29.3796 43.2407 30.1449 43.1114 30.9144C43.0257 31.4229 42.9635 31.9345 42.8983 32.4461C42.8136 33.1033 42.7245 33.7605 42.6604 34.4197C42.6034 35.0051 42.5807 35.5947 42.5383 36.1822C42.5084 36.6044 42.4545 37.0256 42.438 37.4477C42.4028 38.3638 42.3987 39.281 42.3552 40.197C42.3253 40.848 42.2455 41.4969 42.201 42.1468C42.1546 42.8341 42.1297 43.5225 42.0842 44.2097C42.0686 44.4417 42.0085 44.6705 41.9889 44.9024C41.9518 45.3454 41.9322 45.7893 41.9011 46.2333C41.8565 46.8759 41.7955 47.5164 41.7706 48.1601C41.7603 48.4171 41.8297 48.676 41.8596 48.9339C41.926 49.4984 41.9674 50.0681 42.0614 50.6276C42.1649 51.2443 42.3181 51.8516 42.4483 52.463C42.5819 53.0922 42.7018 53.7243 42.8519 54.3494C42.95 54.757 43.0836 55.1562 43.216 55.5544C43.3886 56.0753 43.5739 56.5933 43.758 57.1099C43.7757 57.1609 43.8202 57.2016 43.8564 57.2545C43.8159 56.8479 43.7601 56.4644 43.7424 56.0796C43.7178 55.5305 43.7249 54.9793 43.7125 54.4293C43.7 53.8783 43.6773 53.327 43.668 52.776C43.6577 52.1812 43.6629 51.5855 43.6536 50.9907C43.6483 50.6629 43.6122 50.3345 43.6163 50.0068C43.6234 49.54 43.6754 49.072 43.6723 48.6052C43.668 47.9751 43.6153 47.3459 43.6122 46.7157C43.6091 46.092 43.6433 45.4691 43.6586 44.8452C43.6763 44.0798 43.6981 43.3144 43.7043 42.5492C43.7072 42.1582 43.668 41.7672 43.668 41.3762C43.668 40.9229 43.7032 40.4695 43.7022 40.0161C43.7 39.464 43.667 38.9118 43.6648 38.3597C43.6608 37.5943 43.6773 36.829 43.6773 36.0626C43.6773 35.3296 43.6648 34.5954 43.668 33.8624C43.6701 33.4371 43.6981 33.0128 43.7063 32.5875C43.7218 31.8513 43.7302 31.1151 43.7424 30.3789C43.7498 29.9806 43.7611 29.5824 43.7652 29.1841C43.7673 28.9782 43.7601 28.7723 43.7592 28.5664C43.758 28.3086 43.7592 28.0507 43.7592 27.7928L43.7611 27.7939ZM44.2619 27.3602C44.2619 27.7949 44.2578 28.1973 44.2628 28.6008C44.2681 28.9657 44.2949 29.3307 44.293 29.6947C44.2908 30.2666 44.2535 30.8375 44.264 31.4083C44.2846 32.5074 44.3342 33.6055 44.3581 34.7046C44.3715 35.3181 44.3581 35.9327 44.356 36.5472C44.3538 37.1566 44.3466 37.7649 44.3488 38.3742C44.3509 38.9128 44.3694 39.4505 44.3643 39.9891C44.3612 40.2834 44.298 40.5766 44.3042 40.8698C44.3136 41.2525 44.3849 41.6341 44.3933 42.0168C44.4089 42.7218 44.3911 43.4267 44.3995 44.1317C44.4036 44.5353 44.446 44.9388 44.4469 45.3423C44.4481 45.831 44.4045 46.3206 44.416 46.8093C44.4294 47.4229 44.4864 48.0364 44.508 48.65C44.5226 49.0595 44.5142 49.4702 44.506 49.88C44.4958 50.3915 44.4677 50.9033 44.4606 51.4149C44.4512 52.1208 44.4646 52.828 44.4491 53.5339C44.4397 53.9521 44.3756 54.3679 44.3662 54.7861C44.3519 55.4576 44.3622 56.1304 44.3622 56.7555C44.3849 56.7076 44.446 56.6037 44.4843 56.4913C44.598 56.1576 44.7016 55.8207 44.8101 55.4848C44.9499 55.0522 45.1299 54.628 45.223 54.185C45.5002 52.8747 45.7485 51.5573 45.9988 50.2419C46.1664 49.3591 46.2595 48.4669 46.1944 47.5675C46.1126 46.4424 46.0091 45.3182 45.917 44.1943C45.8777 43.7169 45.8394 43.2396 45.8105 42.7613C45.797 42.5315 45.8219 42.2996 45.8073 42.0698C45.7796 41.6508 45.7248 41.2348 45.6989 40.8158C45.6802 40.5184 45.6999 40.2179 45.6833 39.9205C45.6594 39.491 45.6089 39.0626 45.5849 38.6331C45.5519 38.0259 45.5395 37.4176 45.5064 36.8103C45.461 35.9691 45.4183 35.1268 45.3501 34.2876C45.2912 33.5618 45.2187 32.836 45.1153 32.1154C45.0035 31.3366 44.8496 30.564 44.7107 29.7903C44.6581 29.4961 44.5949 29.2039 44.54 28.9106C44.4481 28.4094 44.3581 27.9082 44.2597 27.3634L44.2619 27.3602ZM74.1701 33.8343C73.9932 33.8343 73.901 33.8415 73.8101 33.8332C73.3902 33.7968 72.971 33.7428 72.5512 33.7209C72.1569 33.7001 71.7617 33.7095 71.3664 33.7074C71.1378 33.7064 70.9083 33.7033 70.6796 33.7126C70.541 33.7189 70.4034 33.7594 70.2648 33.7636C69.9462 33.775 69.6275 33.7636 69.3099 33.7833C69.0626 33.7989 68.8196 33.8582 68.5723 33.879C68.3033 33.9019 68.0292 33.8821 67.7623 33.9175C67.4032 33.9643 67.0506 34.0495 66.6936 34.1119C66.4825 34.1483 66.2663 34.1618 66.0564 34.2045C65.5319 34.3116 65.0072 34.4176 64.488 34.5486C64.2076 34.6194 63.9367 34.7337 63.6685 34.844C63.383 34.9615 63.0964 35.0842 62.8245 35.2297C62.4831 35.4127 62.1446 35.6082 61.8241 35.8256C61.5871 35.9868 61.2467 36.1552 61.1847 36.384C61.0502 36.8821 61.0648 37.4207 61.0193 37.9437C61.0492 37.9552 61.0791 37.9666 61.1102 37.978C61.2965 37.8439 61.4703 37.6838 61.6721 37.5798C62.6289 37.09 63.624 36.6949 64.6649 36.4297C65.356 36.254 66.0583 36.1198 66.7566 35.9753C67.7199 35.7757 68.6901 35.653 69.6761 35.627C70.5482 35.6041 71.4193 35.5355 72.2914 35.5032C72.7848 35.4855 73.2803 35.5001 73.8204 35.5001C73.925 34.9999 74.0449 34.428 74.1692 33.8322L74.1701 33.8343ZM13.8601 33.8603C13.9749 34.4447 14.0898 35.027 14.1942 35.5562C14.8315 35.5334 15.4522 35.4928 16.0729 35.4928C16.5095 35.4928 16.945 35.5552 17.3816 35.575C17.8141 35.5947 18.2496 35.5718 18.68 35.6134C19.341 35.6769 20.0011 35.7653 20.6569 35.8703C21.3728 35.9836 22.0888 36.1063 22.7953 36.2654C23.2898 36.3767 23.7709 36.5514 24.2561 36.7063C25.1189 36.9808 25.9527 37.3198 26.7007 37.8439C26.7731 37.8948 26.8569 37.9292 26.9107 37.9583C26.9107 37.5559 26.9272 37.1649 26.9034 36.777C26.8931 36.6023 26.8559 36.3694 26.74 36.2717C26.4027 35.9847 26.0282 35.7393 25.6517 35.5032C25.3713 35.3264 25.0703 35.1798 24.7692 35.0384C24.4744 34.9001 24.1744 34.7691 23.8671 34.6662C23.5174 34.5497 23.1574 34.4582 22.7984 34.376C22.3701 34.2783 21.9398 34.1889 21.5063 34.1202C21.1959 34.0714 20.8639 34.1119 20.569 34.0225C20.1562 33.8977 19.7424 33.906 19.3255 33.8738C19.1165 33.8572 18.9096 33.8104 18.7017 33.7812C18.5362 33.7584 18.3706 33.7261 18.2051 33.7241C17.9661 33.7209 17.7147 33.7937 17.4913 33.7396C17.1168 33.6502 16.7568 33.6596 16.3864 33.7282C16.3181 33.7407 16.2436 33.7157 16.1723 33.7178C15.745 33.7324 15.3188 33.7428 14.8915 33.7667C14.5646 33.7854 14.2398 33.8239 13.8591 33.8582L13.8601 33.8603ZM20.628 61.549C21.0966 61.549 21.588 61.5627 22.0784 61.5439C22.3536 61.5336 22.6257 61.4576 22.9008 61.4306C23.5867 61.364 24.2747 61.312 24.9606 61.2465C25.332 61.2112 25.7013 61.157 26.0727 61.1217C26.3076 61.1 26.5507 61.126 26.7793 61.0791C27.1217 61.0083 27.4538 60.8868 27.7931 60.7983C28.7118 60.5582 29.6315 60.3212 30.5512 60.0861C31.413 59.8666 32.2716 59.6306 33.1406 59.4415C33.7934 59.2988 34.4607 59.2208 35.1207 59.1087C35.188 59.0972 35.249 59.0524 35.3131 59.0233C35.1424 59.0139 34.9862 59.0389 34.83 59.0461C34.1731 59.0796 33.5141 59.0899 32.8582 59.1441C31.9665 59.2167 31.0767 59.326 30.185 59.408C30.0577 59.4196 29.9253 59.3654 29.795 59.3416V59.2345C32.1899 58.6677 34.621 58.3859 37.0935 58.4328C37.0904 58.3849 37.0885 58.3361 37.0854 58.2882C36.6923 58.2882 36.298 58.3017 35.9059 58.2851C35.4125 58.2642 34.92 58.1937 34.4276 58.1915C33.6931 58.1874 32.9565 58.1999 32.224 58.2519C31.9385 58.2716 31.6654 58.1987 31.3581 58.2829C30.8833 58.4119 30.364 58.3828 29.8622 58.4097C29.4784 58.4307 29.0925 58.4119 28.7108 58.4514C28.3456 58.4898 27.9856 58.5815 27.6224 58.6458C27.5138 58.6657 27.4031 58.6689 27.2935 58.6833C26.6283 58.7728 25.9631 58.8621 25.2989 58.9525C25.0102 58.991 24.6885 58.9631 24.4433 59.0878C24.1857 59.2189 23.9333 59.2127 23.6768 59.2593C23.146 59.3551 22.6039 59.4143 22.0939 59.5765C21.8332 59.6597 21.5787 59.6826 21.3221 59.7389C20.8018 59.8532 20.2959 60.0341 19.7828 60.1797C19.579 60.2379 19.3638 60.2576 19.1621 60.3221C18.741 60.4561 18.3272 60.6111 17.9082 60.7535C17.2823 60.9658 16.6554 61.1749 16.0295 61.3849C16.0378 61.4078 16.0461 61.4306 16.0543 61.4535C16.4485 61.4306 16.8457 61.4337 17.2368 61.3806C17.903 61.2913 18.5662 61.1727 19.2283 61.0562C19.6297 60.9864 20.0311 60.9097 20.4273 60.8161C21.0035 60.6809 21.5725 60.5165 22.1498 60.3876C22.8264 60.2357 23.5071 60.1017 24.1888 59.9737C24.6358 59.8905 25.0868 59.824 25.5389 59.7668C26.1472 59.691 26.7565 59.6234 27.3669 59.5692C27.6307 59.5464 27.8976 59.5651 28.1635 59.5651C28.1635 59.5943 28.1645 59.6243 28.1656 59.6535C25.6962 60.4853 23.1802 61.1351 20.6269 61.5471L20.628 61.549ZM71.7782 61.4722L71.8043 61.3527C71.4648 61.2256 71.1275 61.0957 70.7862 60.9751C70.5865 60.9044 70.3807 60.8546 70.181 60.787C69.703 60.6258 69.2323 60.4439 68.7492 60.3014C68.2971 60.1681 67.8314 60.0798 67.3742 59.9624C66.8684 59.8334 66.3698 59.6775 65.8608 59.5639C65.3 59.4393 64.7312 59.3561 64.1672 59.2449C63.9438 59.2011 63.7277 59.1106 63.5031 59.0765C63.1244 59.0182 62.7416 58.9942 62.362 58.9422C61.8593 58.8746 61.3585 58.7904 60.8558 58.7196C60.5537 58.677 60.2485 58.6501 59.9454 58.6106C59.4891 58.5512 59.0338 58.4817 58.5766 58.4297C58.319 58.4006 58.0583 58.4037 57.8008 58.3787C57.3062 58.3308 56.8128 58.2528 56.3173 58.2247C55.8548 58.1987 55.3892 58.2247 54.9257 58.2228C54.329 58.2216 53.7319 58.204 53.1349 58.2153C52.5297 58.2269 51.9255 58.2601 51.3216 58.2913C51.215 58.2964 51.1095 58.3402 51.0039 58.3652C51.0061 58.39 51.008 58.415 51.0092 58.44C51.2347 58.44 51.459 58.44 51.6847 58.44C52.1005 58.4379 52.5194 58.4006 52.9312 58.44C53.882 58.5283 54.8317 58.6323 55.7763 58.7697C56.5708 58.8849 57.3569 59.0546 58.1452 59.2083C58.2053 59.2199 58.2529 59.2928 58.3066 59.3373C58.2953 59.3623 58.285 59.3861 58.2735 59.4112C56.4319 59.2697 54.5906 59.1294 52.7481 58.9879C52.744 59.0161 52.7409 59.043 52.7368 59.0712C53.0573 59.1294 53.3791 59.1835 53.6999 59.2459C54.2069 59.3435 54.7136 59.4434 55.2197 59.5464C55.6944 59.6431 56.1713 59.7314 56.6409 59.8491C57.1676 59.98 57.6858 60.1443 58.2103 60.2867C58.8198 60.4511 59.4312 60.6101 60.0426 60.766C60.4409 60.8681 60.8371 61.0011 61.2417 61.0509C62.153 61.1623 63.0696 61.2331 63.9853 61.313C64.9514 61.3984 65.9176 61.4763 66.884 61.5543C66.9263 61.5574 66.9709 61.5387 67.0712 61.5199C64.5696 61.0709 62.1779 60.4552 59.756 59.6275C59.8906 59.5827 59.9495 59.5423 60.0043 59.5473C60.3727 59.5827 60.7399 59.6316 61.1081 59.6681C61.7133 59.7283 62.3196 59.7762 62.9248 59.8406C63.3602 59.8876 63.8 59.9249 64.2273 60.0153C65.1573 60.2119 66.0801 60.4439 67.008 60.6527C67.6028 60.787 68.1989 60.9128 68.7969 61.0312C69.104 61.0926 69.4164 61.1301 69.7269 61.1749C70.4106 61.2747 71.0945 61.3734 71.7782 61.4722ZM38.0206 57.9222C38.0247 57.8941 38.0288 57.8659 38.034 57.838C37.4856 57.7216 36.9353 57.6092 36.388 57.4875C36.1377 57.4314 35.8946 57.3284 35.6421 57.2952C35.2718 57.2464 34.8952 57.2505 34.5228 57.2141C33.8265 57.1453 33.1324 57.0394 32.4351 56.9947C31.5237 56.9365 30.6091 56.9124 29.6946 56.8939C29.3077 56.8854 28.9187 56.9198 28.5318 56.9509C28.2535 56.9737 27.9783 57.032 27.7011 57.0633C26.92 57.1496 26.1338 57.2004 25.3589 57.3222C24.5582 57.447 23.7667 57.6383 22.9722 57.8015C22.7291 57.8515 22.4808 57.8888 22.2449 57.9639C21.7846 58.1094 21.3304 58.2779 20.8732 58.4359C20.4087 58.5969 19.9421 58.7531 19.4807 58.9225C19.2986 58.9891 19.129 59.089 18.9531 59.172C18.3158 59.4756 17.6796 59.7783 17.0423 60.082C17.0537 60.1121 17.0651 60.1421 17.0764 60.1725C17.1902 60.1484 17.3061 60.1328 17.4178 60.0995C18.2434 59.8594 19.0658 59.6099 19.8945 59.377C20.2938 59.2646 20.7014 59.1814 21.1059 59.089C21.7194 58.9475 22.3308 58.7904 22.9495 58.6739C23.8247 58.5108 24.7051 58.3765 25.5844 58.2341C25.9331 58.178 26.2827 58.127 26.6324 58.0791C27.0814 58.019 27.5304 57.9639 27.9804 57.9076C28.4387 57.8503 28.896 57.7829 29.3563 57.7423C29.7526 57.7079 30.1508 57.7038 30.5481 57.6872C31.0943 57.6643 31.6406 57.6424 32.1868 57.6205C32.3172 57.6155 32.4485 57.6123 32.5799 57.6133C33.2606 57.6164 33.9414 57.6008 34.62 57.6321C35.2821 57.6633 35.9422 57.7444 36.6032 57.8027C37.076 57.8443 37.5498 57.8825 38.0226 57.9222H38.0206ZM48.8739 58.0635C48.8758 58.0854 48.8779 58.1082 48.881 58.1301C49.1863 58.076 49.4903 58.0002 49.7986 57.9711C50.7102 57.8837 51.6237 57.8193 52.535 57.737C52.8505 57.7091 53.1639 57.6311 53.4806 57.6236C54.3103 57.6061 55.14 57.6143 55.9697 57.6123C56.1828 57.6123 56.397 57.5998 56.6101 57.6143C57.1046 57.6477 57.597 57.7006 58.0914 57.7319C58.6573 57.7682 59.2263 57.7661 59.7891 57.8233C60.3995 57.8847 61.0037 57.998 61.612 58.0791C62.035 58.1364 62.4613 58.1677 62.8834 58.23C63.2082 58.2779 63.529 58.3599 63.8517 58.4213C64.3079 58.5086 64.7673 58.5834 65.2224 58.6792C65.7117 58.7832 66.196 58.9059 66.6831 59.0192C66.973 59.0868 67.2636 59.1501 67.5533 59.2199C67.9298 59.3103 68.3054 59.4008 68.6798 59.4997C69.0078 59.587 69.3357 59.6794 69.6596 59.7803C70.0795 59.9114 70.4965 60.0538 70.9154 60.191C70.9288 60.1578 70.9425 60.1255 70.9559 60.0923C70.5554 59.8936 70.1602 59.6857 69.7537 59.5007C69.1062 59.2054 68.4543 58.9203 67.7996 58.6448C67.6059 58.5637 67.3919 58.5346 67.1932 58.467C66.7061 58.3007 66.2312 58.0948 65.7356 57.9639C65.1841 57.8181 64.6141 57.7432 64.0544 57.628C63.5434 57.5228 63.0385 57.3857 62.5245 57.2993C62.0103 57.2129 61.4878 57.1672 60.9685 57.1111C60.4151 57.0517 59.8616 56.9759 59.307 56.954C58.5218 56.9239 57.7335 56.9177 56.9473 56.9365C56.1466 56.9552 55.3468 57.0072 54.5482 57.0654C54.1353 57.0955 53.7257 57.1766 53.314 57.2192C52.9748 57.2545 52.6303 57.2464 52.2949 57.2983C51.9423 57.3534 51.5966 57.4605 51.2469 57.5394C50.4576 57.7163 49.6662 57.89 48.877 58.0647L48.8739 58.0635ZM35.6132 40.1055C35.6266 40.1066 35.6401 40.1076 35.6535 40.1097C35.7042 39.8029 35.7445 39.4941 35.8076 39.1905C35.9142 38.6768 36.0321 38.1663 36.1511 37.6557C36.3642 36.7417 36.5702 35.8256 36.8007 34.9157C36.9808 34.2045 37.1847 33.4994 37.3925 32.7955C37.556 32.2433 37.6968 31.6787 37.9316 31.1577C38.0795 30.8291 37.9843 30.5505 37.9213 30.2697C37.8291 29.8621 37.6584 29.4722 37.5167 29.077C37.3937 28.736 37.2632 28.398 37.1131 27.9977C37.048 28.2618 36.9963 28.4427 36.9592 28.6257C36.7895 29.4742 36.6095 30.3196 36.4604 31.1723C36.2742 32.2423 36.0994 33.3144 35.9484 34.3895C35.8459 35.1133 35.7859 35.8433 35.7197 36.5722C35.6742 37.0734 35.6308 37.5767 35.6173 38.0799C35.5997 38.7548 35.6132 39.4297 35.6132 40.1045V40.1055ZM52.3519 40.1087C52.3684 40.1066 52.3861 40.1055 52.4026 40.1035C52.4026 39.4349 52.4232 38.7662 52.3964 38.0987C52.3694 37.4415 52.2961 36.7864 52.2413 36.1302C52.1812 35.4179 52.1388 34.7036 52.0529 33.9944C51.9866 33.4506 51.8676 32.913 51.7673 32.3743C51.6907 31.9615 51.6091 31.5508 51.5262 31.139C51.3939 30.4725 51.2593 29.807 51.125 29.1404C51.0535 28.7869 50.9771 28.4344 50.9036 28.0808C50.8787 28.0808 50.8538 28.0798 50.8292 28.0788C50.5682 28.8306 50.2932 29.5772 50.0552 30.3352C49.9889 30.5473 49.9858 30.8032 50.0315 31.0225C50.0986 31.348 50.2436 31.6558 50.3396 31.9771C50.4483 32.3411 50.5311 32.7123 50.6398 33.0762C50.7514 33.4527 50.8921 33.8208 50.9998 34.1993C51.1021 34.557 51.1724 34.923 51.2687 35.2828C51.4362 35.9119 51.6256 36.5358 51.7776 37.169C51.8386 37.4238 51.8233 37.6962 51.8501 37.9593C51.8554 38.0082 51.9018 38.0508 51.9246 38.0987C51.9775 38.2151 52.0507 38.3285 52.0735 38.4512C52.175 39.0023 52.2619 39.5555 52.3528 40.1076L52.3519 40.1087ZM19.6338 62.356C19.6338 62.3945 19.6338 62.433 19.6328 62.4715C20.6187 62.4412 21.6035 62.4121 22.5894 62.381C22.7198 62.3767 22.8502 62.3676 22.9805 62.356C23.6312 62.3019 24.2819 62.2458 24.9327 62.1917C25.1903 62.1698 25.4499 62.1638 25.7065 62.1315C26.3127 62.0555 26.9179 61.9713 27.5231 61.8861C27.76 61.8527 27.9959 61.8069 28.2318 61.7696C28.7811 61.6811 29.3336 61.6116 29.8788 61.5014C30.514 61.3724 31.1429 61.208 31.774 61.0553C32.2437 60.9419 32.7123 60.8211 33.182 60.7059C33.3258 60.6705 33.4779 60.659 33.6145 60.6048C34.529 60.2401 35.4404 59.8676 36.3518 59.4944C36.3829 59.4819 36.4025 59.4403 36.4449 59.3914C35.849 59.4966 35.2997 59.6359 34.7483 59.774C34.2083 59.9104 33.661 60.0216 33.1148 60.1265C32.3027 60.2827 31.4874 60.4261 30.6722 60.5707C30.5171 60.5976 30.3577 60.5957 30.2026 60.6217C29.5229 60.7328 28.8421 60.8452 28.1635 60.9636C27.7911 61.0293 27.4197 61.1051 27.0493 61.1821C26.859 61.2215 26.6707 61.2778 26.4803 61.3183C26.2165 61.3743 25.9506 61.4159 25.6879 61.4773C25.2172 61.5875 24.7527 61.7239 24.2789 61.8185C23.7243 61.9296 23.1647 62.0182 22.6039 62.0993C22.0391 62.1804 21.4804 62.3394 20.9001 62.2458C20.8494 62.2374 20.7925 62.2728 20.7366 62.279C20.4749 62.3062 20.2131 62.3341 19.9504 62.3551C19.8459 62.3632 19.7404 62.356 19.6348 62.356H19.6338ZM51.605 59.4258C51.5988 59.4352 51.5925 59.4444 51.5863 59.4537C51.8449 59.5485 52.1223 59.6087 52.3591 59.7418C53.4258 60.3428 54.5978 60.6424 55.7595 60.9658C56.3556 61.1311 56.9658 61.2456 57.5731 61.3693C58.2642 61.5095 58.9563 61.6542 59.6526 61.7603C60.2444 61.8507 60.8433 61.883 61.4382 61.9515C61.8499 61.9982 62.2586 62.0743 62.6703 62.1168C63.4991 62.2032 64.3276 62.2884 65.1582 62.3498C65.8431 62.4008 66.5302 62.4227 67.2169 62.4455C67.5978 62.458 67.9784 62.4475 68.3593 62.4475C68.3593 62.4205 68.3593 62.3936 68.3581 62.3664C68.2609 62.3664 68.1647 62.3644 68.0675 62.3664C67.8719 62.3717 67.6732 62.4029 67.4808 62.382C67.0867 62.3385 66.6956 62.2583 66.3025 62.2083C65.8525 62.1513 65.3962 62.1325 64.9493 62.0565C64.4032 61.9641 63.8641 61.8298 63.3222 61.7114C62.2885 61.4857 61.2603 61.2403 60.2226 61.0396C59.2957 60.8596 58.3573 60.735 57.4264 60.5757C56.554 60.4261 55.6841 60.2661 54.8139 60.1027C54.3112 60.0081 53.8095 59.9061 53.313 59.7887C53.0688 59.7304 52.8402 59.6036 52.5951 59.5536C52.2702 59.4872 51.9361 59.4663 51.606 59.4258H51.605ZM32.3399 53.8191C32.2964 53.7149 32.2913 53.6848 32.2747 53.6641C31.8195 53.0775 31.3633 52.4899 30.9029 51.9076C30.875 51.8713 30.8098 51.8525 30.7591 51.8484C30.3143 51.8099 29.8653 51.7986 29.4236 51.7373C28.6311 51.628 27.8428 51.4938 27.0545 51.3638C26.7235 51.3088 26.3945 51.2361 26.0645 51.1716C26.2362 51.3244 26.4183 51.4449 26.6055 51.5563C27.0431 51.8152 27.5293 52.0147 27.908 52.3424C28.2939 52.6752 28.7315 52.853 29.1866 52.9861C30.2098 53.2844 31.2485 53.5339 32.3389 53.82L32.3399 53.8191ZM61.9783 51.2204C61.9648 51.1923 61.9512 51.1632 61.9378 51.135C61.7453 51.1986 61.5572 51.2828 61.3606 51.3203C60.7792 51.4305 60.1958 51.5426 59.6081 51.6165C58.8435 51.7123 58.0748 51.7818 57.3062 51.835C57.1582 51.8453 57.1096 51.8869 57.0299 51.995C56.8075 52.3008 56.5521 52.5826 56.3182 52.88C56.099 53.1598 55.89 53.4478 55.6374 53.7837C56.161 53.6764 56.612 53.6141 57.0436 53.4882C57.8886 53.2409 58.7298 52.9757 59.5583 52.6793C59.8358 52.5794 60.0663 52.3537 60.326 52.1969C60.8745 51.8672 61.4267 51.5448 61.9783 51.2204ZM53.916 55.5368C53.9388 55.5669 53.9615 55.5972 53.9845 55.6282C54.6414 55.2923 55.2982 54.9564 55.9551 54.6205C55.7751 54.5864 55.62 54.629 55.4668 54.6205C55.1141 54.603 54.7582 54.5457 54.5554 54.9461C54.5442 54.968 54.5059 54.9733 54.4862 54.9918C54.2957 55.1728 54.1054 55.3559 53.916 55.5378V55.5368ZM34.0127 55.622C34.0324 55.5909 34.052 55.5597 34.0728 55.5296C33.7717 55.231 33.4696 54.9326 33.1675 54.6362C33.1489 54.6186 33.1158 54.6071 33.0899 54.6071C32.7537 54.6051 32.4175 54.6061 32.0306 54.6061C32.7134 54.9564 33.3631 55.2904 34.0127 55.6232V55.622ZM38.1923 57.8691C38.187 57.9035 38.1808 57.9376 38.1758 57.972C38.4922 58.0209 38.8099 58.0709 39.1264 58.1198C39.1307 58.0907 39.1347 58.0616 39.1388 58.0324C38.8233 57.9783 38.5078 57.9232 38.1923 57.8691ZM49.9248 58.3806C49.9248 58.4254 49.9269 58.4711 49.9279 58.5158C50.2103 58.4679 50.4928 58.4203 50.7762 58.3724C50.7741 58.3558 50.7722 58.3392 50.77 58.3224C50.4887 58.3424 50.2072 58.3609 49.926 58.3806H49.9248ZM37.2436 58.3224C37.2414 58.3455 37.2395 58.3683 37.2383 58.39L38.1549 58.4848C38.1571 58.4526 38.1602 58.4203 38.1624 58.3881C37.8559 58.3662 37.5498 58.3443 37.2436 58.3224Z" fill="#9B3C34"/>
</g>
</svg>
