<svg width="16" height="16" viewBox="0 0 16 16" fill="none" xmlns="http://www.w3.org/2000/svg">
<path d="M7.99996 0.959961C4.11566 0.959961 0.959961 4.11566 0.959961 7.99996C0.959961 11.5261 3.56077 14.4442 6.94809 14.9531L7.31559 15.0087V9.46121H5.65246V8.33496H7.31559V6.83934C7.31559 5.91835 7.53659 5.31177 7.90246 4.93121C8.26833 4.55065 8.80892 4.35871 9.56121 4.35871C10.1627 4.35871 10.3968 4.39516 10.6193 4.42246V5.34434H9.83621C9.39186 5.34434 9.0273 5.59225 8.83809 5.92246C8.64887 6.25267 8.58996 6.64694 8.58996 7.04871V8.33434H10.5493L10.375 9.46059H8.58996V15.0175L8.95309 14.9681C12.3885 14.5022 15.04 11.5606 15.04 7.99996C15.04 4.11566 11.8843 0.959961 7.99996 0.959961ZM7.99996 1.59996C11.5384 1.59996 14.4 4.46154 14.4 7.99996C14.4 11.1135 12.1714 13.6741 9.22996 14.2506V10.1006H10.9237L11.2956 7.69434H9.22996V7.04871C9.22996 6.71672 9.2907 6.41925 9.39309 6.24059C9.49547 6.06192 9.59416 5.98434 9.83621 5.98434H11.2593V3.84309L10.9818 3.80559C10.7899 3.77961 10.3517 3.71871 9.56121 3.71871C8.69622 3.71871 7.95374 3.95434 7.44121 4.48746C6.92868 5.02058 6.67559 5.8144 6.67559 6.83934V7.69496H5.01246V10.1012H6.67559V14.2306C3.7814 13.6175 1.59996 11.0798 1.59996 7.99996C1.59996 4.46154 4.46154 1.59996 7.99996 1.59996Z" fill="white" fill-opacity="0.7"/>
</svg>
