<svg width="16" height="16" viewBox="0 0 16 16" fill="none" xmlns="http://www.w3.org/2000/svg">
<path d="M5.12021 0.959961C2.8266 0.959961 0.960205 2.82636 0.960205 5.11996V10.88C0.960205 13.1736 2.8266 15.04 5.12021 15.04H10.8802C13.1738 15.04 15.0402 13.1736 15.0402 10.88V5.11996C15.0402 2.82636 13.1738 0.959961 10.8802 0.959961H5.12021ZM5.12021 1.59996H10.8802C12.8279 1.59996 14.4002 3.17229 14.4002 5.11996V10.88C14.4002 12.8276 12.8279 14.4 10.8802 14.4H5.12021C3.17253 14.4 1.60021 12.8276 1.60021 10.88V5.11996C1.60021 3.17229 3.17253 1.59996 5.12021 1.59996ZM11.8402 3.51996C11.6705 3.51996 11.5077 3.58739 11.3877 3.70741C11.2676 3.82744 11.2002 3.99022 11.2002 4.15996C11.2002 4.3297 11.2676 4.49249 11.3877 4.61251C11.5077 4.73253 11.6705 4.79996 11.8402 4.79996C12.0099 4.79996 12.1727 4.73253 12.2928 4.61251C12.4128 4.49249 12.4802 4.3297 12.4802 4.15996C12.4802 3.99022 12.4128 3.82744 12.2928 3.70741C12.1727 3.58739 12.0099 3.51996 11.8402 3.51996ZM8.00021 4.47996C6.05995 4.47996 4.48021 6.05971 4.48021 7.99996C4.48021 9.94021 6.05995 11.52 8.00021 11.52C9.94046 11.52 11.5202 9.94021 11.5202 7.99996C11.5202 6.05971 9.94046 4.47996 8.00021 4.47996ZM8.00021 5.11996C9.59458 5.11996 10.8802 6.40559 10.8802 7.99996C10.8802 9.59433 9.59458 10.88 8.00021 10.88C6.40584 10.88 5.12021 9.59433 5.12021 7.99996C5.12021 6.40559 6.40584 5.11996 8.00021 5.11996Z" fill="white" fill-opacity="0.7"/>
</svg>
