<svg width="88" height="88" viewBox="0 0 88 88" fill="none" xmlns="http://www.w3.org/2000/svg">
<path d="M17.1417 37.0396C16.9495 37.0339 16.7064 37.0202 16.4364 36.9967L16.4467 37.8101C16.681 37.8174 16.9177 37.8142 17.152 37.8029L17.1417 37.0396ZM16.4578 29.6694C16.4276 29.9656 16.4046 30.2659 16.3911 30.5678H17.0964C17.1123 30.2659 17.1353 29.9656 17.1671 29.6694H16.4586H16.4578ZM24.2632 37.0396V37.785C24.4975 37.7923 24.7318 37.7923 24.9685 37.7834V37.0113C24.7056 37.0291 24.4641 37.038 24.2632 37.0396ZM24.2918 29.6694C24.2815 29.7754 24.2727 29.8815 24.2656 29.9875V30.5678H24.9693V30.0271C24.978 29.9065 24.9884 29.7884 24.9995 29.6694H24.2926H24.2918ZM31.8446 16.4652C30.7643 16.8763 29.6643 17.3846 28.5975 17.9901C29.6468 17.5732 30.9208 17.0868 32.4935 16.5024L32.252 15.8266C31.3974 16.143 30.6301 16.432 29.9375 16.6975C30.6571 16.5146 31.3815 16.347 32.1059 16.1924C32.3862 16.3794 31.97 16.415 31.8453 16.4636M31.9716 29.6694C31.9558 29.9697 31.9415 30.2691 31.9295 30.5678H32.6333C32.646 30.2675 32.6595 29.9697 32.6777 29.6694H31.9724H31.9716ZM32.6857 37.0412C32.5181 37.0396 32.2695 37.025 31.9788 36.9983L31.9875 37.7794C32.2218 37.7883 32.4585 37.7883 32.6928 37.781L32.6857 37.0412ZM36.5411 15.5093L35.0161 16.2329C35.5784 16.0799 36.1392 15.9472 36.6888 15.8363L36.5411 15.5093ZM36.6888 15.8363L35.1972 16.9395L36.8382 16.1617L36.688 15.8363H36.6888ZM39.8421 37.0145C39.8366 37.2735 39.8334 37.5301 39.8294 37.785C40.0637 37.7939 40.3004 37.7956 40.5347 37.7891C40.5379 37.543 40.5419 37.2913 40.5451 37.042C40.3473 37.0404 40.1058 37.0331 39.8413 37.0153M40.2107 14.8108C39.5617 15.2082 38.9644 15.6178 38.4148 16.0378C38.5578 15.9836 38.7023 15.9318 38.8485 15.8816C39.3068 15.7254 39.9343 15.4721 40.4259 15.5206C40.4752 15.4883 40.5244 15.4575 40.5736 15.4276L40.2107 14.8116V14.8108ZM39.9708 29.6694C39.966 29.9624 39.9605 30.2602 39.9533 30.5678H40.6586C40.6658 30.2611 40.6713 29.9624 40.6777 29.6694H39.9708ZM43.5776 14.7695C43.5141 14.7841 42.9517 14.9185 42.5442 15.3393C42.8969 15.2098 43.267 15.1329 43.6531 15.12L43.5776 14.7695ZM43.6531 15.12V15.4915C43.6991 15.4769 43.7269 15.4721 43.7293 15.4696L43.6531 15.1192V15.12ZM34.4855 58.8014V57.9467C34.4593 58.1604 34.4696 58.4752 34.4855 58.8014Z" fill="#9B3C34"/>
<path d="M38.5271 71.7352V71.4697C38.5255 71.5418 38.5255 71.6332 38.5271 71.7352Z" fill="#9B3C34"/>
<path d="M32.4931 16.5014C30.9205 17.0849 29.6464 17.5722 28.5972 17.989C28.5956 17.989 28.594 17.9906 28.594 17.9906C25.0333 19.4022 24.0722 19.9938 22.9253 20.698L22.7084 20.8307C19.6505 22.702 18.2946 24.4576 17.5345 27.5397C17.3638 28.2244 17.2422 28.9375 17.166 29.6683C17.1342 29.9646 17.1112 30.2649 17.0953 30.5668C17.0762 30.9423 17.0691 31.3227 17.0738 31.7072L17.1406 37.0386L17.1509 37.8018C16.9166 37.8123 16.6799 37.8164 16.4456 37.8091L16.4352 36.9957L16.3685 31.7185C16.363 31.3308 16.3701 30.9464 16.39 30.5676C16.4043 30.2657 16.4273 29.9662 16.4567 29.6692C16.5345 28.8768 16.6664 28.1062 16.8499 27.3649C17.6521 24.112 19.1413 22.1735 22.3462 20.2156L22.5591 20.0845C23.8919 19.267 24.9793 18.5993 29.9363 16.6989C30.629 16.4334 31.3962 16.1436 32.2509 15.8271L32.4923 16.5022L32.4931 16.5014Z" fill="#9B3C34"/>
<path d="M36.8388 16.1602L35.1978 16.938L35.1962 16.9396L33.6641 17.6656C31.6704 18.6118 29.9572 19.8785 28.5712 21.4268C26.4679 23.7813 25.2979 26.4814 24.9977 29.6679C24.9874 29.7869 24.9763 29.9051 24.9675 30.0257V37.7819C24.7316 37.7908 24.4965 37.7908 24.2622 37.7836V37.0381L24.2638 30.5663V29.986C24.2709 29.88 24.2797 29.7739 24.29 29.6679C24.5918 26.2928 25.8238 23.4349 28.0501 20.9436C29.4973 19.3232 31.2844 18.0015 33.3646 17.0149L35.0143 16.2314L36.5393 15.5078L36.6871 15.8348L36.8372 16.1602H36.8388Z" fill="#9B3C34"/>
<path d="M40.5733 15.4255C40.5241 15.4563 40.4749 15.4862 40.4256 15.5186C34.0372 19.4934 32.9674 24.4606 32.6767 29.6673C32.6592 29.9676 32.6449 30.2655 32.6322 30.5658C32.6306 30.6143 32.6282 30.6629 32.6266 30.7114C32.625 30.7689 32.6266 30.9704 32.6266 31.0255L32.6846 37.0392L32.6917 37.7798C32.4574 37.787 32.2207 37.787 31.9864 37.7781L31.9777 36.9971L31.9213 31.0384C31.9213 30.9866 31.9197 30.7584 31.9229 30.6831C31.9245 30.6435 31.9269 30.6062 31.9284 30.5666C31.9412 30.2687 31.9547 29.9684 31.9705 29.6682C32.2366 24.8904 33.1921 20.0115 38.4081 16.0382C38.4097 16.0366 38.4113 16.0366 38.4137 16.0366C38.9633 15.6165 39.5614 15.207 40.2096 14.8096L40.5726 15.4255H40.5733Z" fill="#9B3C34"/>
<path d="M43.729 15.4695C43.729 15.4695 43.6988 15.4768 43.6527 15.4913C43.5137 15.5367 43.2191 15.6492 43.0197 15.8685C40.8672 18.2376 40.818 21.1764 40.6996 28.2771C40.6925 28.7206 40.6837 29.186 40.6766 29.6692C40.6694 29.9622 40.6639 30.2601 40.6575 30.5676C40.6472 31.169 40.6329 31.7963 40.6186 32.4462C40.617 32.4932 40.5813 34.7926 40.5447 37.0411C40.5408 37.2912 40.5376 37.5421 40.5344 37.7881C40.3001 37.7954 40.0634 37.793 39.8291 37.7841C39.8323 37.5291 39.8363 37.2725 39.8418 37.0135C39.8768 34.7505 39.9125 32.4511 39.9141 32.4276C39.9284 31.7825 39.9419 31.1609 39.953 30.5668C39.9602 30.2593 39.9657 29.9614 39.9705 29.6684C39.9792 29.1796 39.988 28.7109 39.9951 28.265C40.1166 20.97 40.1683 17.951 42.5034 15.3788C42.5161 15.3643 42.5296 15.3497 42.5439 15.3375C42.9514 14.9175 43.5137 14.7823 43.5773 14.7686L43.729 15.4687V15.4695Z" fill="#9B3C34"/>
<path d="M43.9951 14.1738C43.8506 14.1754 43.706 14.1779 43.5598 14.1795C33.7219 14.3414 19.5703 17.0641 14.2487 24.9394C11.7912 28.5767 12.8142 32.0449 12.6339 36.2181C12.9985 36.8356 13.6299 37.2419 14.3845 37.488C14.6101 37.5633 14.8468 37.6232 15.0898 37.6677C15.5267 37.7543 15.9873 37.7972 16.4472 37.8077L16.4369 36.9943C16.0223 36.9603 15.5449 36.9044 15.0898 36.8235C14.8428 36.7822 14.6037 36.732 14.3845 36.6762C13.7816 36.5216 13.3337 36.3136 13.3337 36.0441V30.5654H16.39C16.4043 30.2635 16.4266 29.964 16.4568 29.667H13.3329C13.6696 25.7148 16.6537 22.7767 20.0032 20.7128C21.3567 19.8759 22.7705 19.1839 24.0913 18.6254C25.9849 17.8257 27.9468 17.2009 29.9364 16.6967C30.058 16.6497 30.185 16.6012 30.3121 16.5526C30.4178 16.5129 30.5258 16.47 30.6362 16.4304C30.6433 16.4263 30.6521 16.4247 30.6592 16.4215L30.7013 16.4053C30.7172 16.3996 30.7315 16.3948 30.7474 16.3875C30.9356 16.3154 31.1278 16.2442 31.3256 16.1698C31.6219 16.0589 31.9301 15.9431 32.2509 15.825L32.3566 16.1212L32.4924 16.5C30.9197 17.0835 29.6457 17.5708 28.5965 17.9876C28.5949 17.9876 28.5933 17.9892 28.5933 17.9892C28.0167 18.3146 27.4495 18.6683 26.8991 19.0487C26.8975 19.0487 26.8951 19.0503 26.8936 19.052C23.2995 21.5327 20.4194 25.1466 20.3837 29.6662H17.1653C17.1335 29.9624 17.1105 30.2627 17.0946 30.5646H20.3837V35.8636C20.3837 36.2084 19.7419 36.503 19.0525 36.7118C18.815 36.7838 18.5711 36.8445 18.3471 36.8931C17.9714 36.9757 17.6458 37.0258 17.4814 37.0364C17.4059 37.042 17.2892 37.042 17.1398 37.0364L17.1502 37.7996C17.564 37.7818 17.9683 37.7405 18.3471 37.6806C18.5942 37.645 18.8301 37.5981 19.0525 37.5479C19.2479 37.5034 19.4329 37.4524 19.6029 37.4006C19.9746 37.2857 20.3876 36.8672 20.6466 36.8583C20.9269 36.8478 21.6021 37.3213 22.0095 37.4402C22.1279 37.4742 22.2455 37.505 22.3678 37.5333C22.5965 37.5892 22.8332 37.6361 23.0731 37.6717C23.4631 37.7332 23.861 37.7689 24.2629 37.781V37.0356C24.0778 37.0396 23.9277 37.0356 23.8261 37.0267C23.699 37.0161 23.4138 36.9635 23.0731 36.8826C22.8531 36.8308 22.6076 36.7677 22.3678 36.698C21.7101 36.5022 21.0898 36.2545 21.0898 36.0424V30.5638H24.2645V29.9834C24.2716 29.8774 24.2804 29.7714 24.2907 29.6653H21.0898C21.4123 24.2984 25.2677 20.521 29.8435 18.1981C31.5162 17.3482 33.2859 16.695 35.0158 16.2297L36.5408 15.5061L36.6886 15.8331L36.7799 16.0322L36.7958 16.0645L36.8379 16.1576L35.1969 16.9354L35.1953 16.937L32.8069 18.7031C32.7116 18.8035 32.6163 18.9063 32.5234 19.0083L32.5218 19.0099C29.8721 21.9147 28.0731 25.6023 28.1414 29.6653H24.9984C24.9881 29.7843 24.977 29.9025 24.9682 30.0231V30.5638H28.1414V35.8628C28.1414 36.2796 27.5472 36.5596 26.7911 36.7426C26.5671 36.7984 26.3272 36.8429 26.0858 36.881C25.7053 36.9417 25.3169 36.9813 24.9682 37.0064V37.7786C25.3455 37.7664 25.7196 37.7316 26.0858 37.6798C26.3256 37.6442 26.56 37.6013 26.7911 37.5487C26.9372 37.5179 27.0818 37.4823 27.2248 37.4427C27.6195 37.3326 28.1763 36.9125 28.436 36.8891C28.7077 36.864 29.471 37.3666 29.9007 37.4815C29.9769 37.501 30.054 37.5212 30.1318 37.539C30.359 37.5908 30.5957 37.6361 30.8371 37.6717C31.2104 37.7276 31.5965 37.7616 31.988 37.7745L31.9793 36.9935C31.637 36.9611 31.2351 36.9142 30.8371 36.8502C30.5973 36.8105 30.3574 36.7636 30.1318 36.7118C29.4178 36.5499 28.8467 36.3274 28.8467 36.0416V30.563H31.9301C31.9428 30.2651 31.9563 29.9648 31.9722 29.6645H28.8467C28.919 24.903 31.498 20.3866 35.3002 17.7011C35.7196 17.4049 36.1516 17.1297 36.5996 16.882C37.181 16.5566 37.7855 16.2709 38.4098 16.0338C38.4114 16.0322 38.4137 16.0322 38.4153 16.0322C38.5472 15.9318 38.6814 15.8314 38.8188 15.7319C38.9666 15.6242 39.1198 15.5166 39.2755 15.4106C39.3518 15.3588 39.4272 15.3078 39.5027 15.2576C39.5607 15.2179 39.6155 15.1807 39.6735 15.1443C39.6735 15.1443 39.6748 15.1437 39.6774 15.1427C39.6774 15.1427 39.6774 15.141 39.679 15.141C39.8514 15.0277 40.0301 14.9168 40.2112 14.8051L40.2835 14.9274L40.3454 15.0318L40.5742 15.4219C40.5249 15.4526 40.4757 15.4826 40.4264 15.515C40.5059 15.5223 40.5781 15.5344 40.6488 15.5619H40.6504C40.6504 15.5619 40.656 15.5635 40.6576 15.5635C40.548 15.6639 40.4407 15.7651 40.3367 15.8687L40.3351 15.8703C36.8466 19.3296 35.8633 24.8609 35.8983 29.6637H32.6775C32.66 29.964 32.6457 30.2619 32.633 30.5621H35.8975V36.0408C35.8975 36.2723 35.328 36.5006 34.6743 36.6802C34.4431 36.7434 34.2001 36.8008 33.969 36.851C33.4598 36.9587 33.0031 37.0291 32.8212 37.0364C32.7863 37.038 32.7402 37.038 32.6854 37.0364L32.6926 37.7761C33.1247 37.7616 33.5544 37.7243 33.969 37.6596C34.2104 37.6215 34.4447 37.577 34.6743 37.5212C34.7783 37.4977 34.8808 37.471 34.9809 37.4419C35.3915 37.3253 36.0508 36.8454 36.3415 36.8567C36.6107 36.8656 36.9157 37.2371 37.2636 37.3431C37.4082 37.386 37.5559 37.4273 37.706 37.4653C37.9372 37.5244 38.1715 37.577 38.4114 37.6199C38.8752 37.7065 39.3526 37.76 39.8307 37.7802C39.8347 37.5252 39.8379 37.2687 39.8434 37.0097C39.401 36.9789 38.8935 36.9255 38.4121 36.8373C38.1659 36.7944 37.9261 36.7401 37.7068 36.6778C37.0722 36.4965 36.6036 36.2327 36.6036 35.862V30.563H39.9546C39.9618 30.2562 39.9673 29.9575 39.9721 29.6645H36.6036C36.6687 26.4424 37.0921 23.0398 38.3931 20.0799C39.0261 18.6392 40.0658 16.9184 41.4447 15.9286C41.4447 15.9286 41.4452 15.928 41.4463 15.9269C41.7918 15.6777 42.1588 15.4745 42.5464 15.3345C42.5972 15.2827 42.6504 15.2341 42.7052 15.1904C42.7314 15.1669 42.76 15.1475 42.7878 15.1273C42.814 15.1054 42.8426 15.0876 42.8704 15.0698C42.899 15.052 42.9252 15.0342 42.953 15.0196C42.9673 15.0107 42.9792 15.0034 42.9935 14.9962C43.0182 14.9816 43.0428 14.9678 43.0674 14.9565C43.092 14.9435 43.1166 14.9314 43.1397 14.9209H43.1413C43.1587 14.912 43.1746 14.9047 43.1905 14.8974C43.2151 14.8869 43.2398 14.8756 43.2628 14.8667C43.2874 14.8561 43.3104 14.8472 43.3335 14.8399C43.339 14.8383 43.3438 14.8359 43.3478 14.8343C43.3637 14.827 43.3796 14.8213 43.3938 14.8181C43.4328 14.8035 43.4661 14.793 43.4939 14.7857C43.536 14.7736 43.5662 14.7663 43.5789 14.7639L43.6552 15.1143L43.6568 15.1248V15.1265L43.71 15.3685V15.3701L43.7314 15.4632C43.7314 15.4632 43.7211 15.4664 43.7052 15.4705C43.6949 15.4737 43.679 15.4777 43.6607 15.4834C43.6591 15.4834 43.6575 15.485 43.656 15.485V29.6629H40.6806C40.6735 29.9559 40.6679 30.2538 40.6615 30.5613H43.6568V36.04C43.6568 36.2715 43.073 36.5103 42.4383 36.6956C42.2016 36.7636 41.957 36.8251 41.733 36.8769C41.3684 36.9595 41.0579 37.0137 40.9221 37.0242C40.8323 37.0315 40.7052 37.0372 40.5487 37.0347C40.5448 37.284 40.5416 37.5358 40.5384 37.7818C40.9403 37.7689 41.3406 37.73 41.7338 37.6596C41.9713 37.6183 42.208 37.5641 42.4391 37.4993C42.8625 37.3828 43.2707 37.2266 43.6575 37.0267V57.3817H34.4892V60.2413H43.6575V71.2521H44.0102V59.3H35.3725V58.4016H44.0102V14.1738H43.9999H43.9951Z" fill="#9B3C34"/>
<path d="M38.5464 72.2395H38.5273V71.749C38.5305 71.8979 38.5401 72.0687 38.5464 72.2395Z" fill="#9B3C34"/>
<path d="M38.5464 72.2395H38.5273V71.749C38.5305 71.8979 38.5401 72.0687 38.5464 72.2395Z" fill="#9B3C34"/>
<path d="M44.0056 72.2391V71.2581H38.5267V71.7486C38.5299 71.8975 38.5394 72.0683 38.5458 72.2391H38.5267V73.1375H32.2829L28.8858 65.8215C28.6141 65.2396 28.6546 64.6034 28.6705 63.9753C28.665 63.9769 28.6618 63.9769 28.6562 63.9785V63.6734H20.1845C20.1019 63.3019 20.0185 62.9264 19.9851 62.6423L21.0217 62.4521L19.4196 53.3506L17.6055 53.6808L17.7429 54.4546L17.7445 54.4675L17.7484 54.4837L17.7611 54.5574L18.3886 58.1356L19.2417 62.7774L19.6769 65.1489L19.6785 73.1391H19.5244C19.5657 73.3771 19.5554 73.6255 19.4943 73.8578H44.0048V73.1391H39.6435V72.2407H44.0048L44.0056 72.2391ZM20.5618 64.2942H27.9001V65.1133H20.5618V64.2942ZM20.5618 73.1367V65.9518H28.0534L31.3147 73.1367H20.5618Z" fill="#9B3C34"/>
<path d="M49.4725 71.7361V71.4706C49.4741 71.5426 49.4741 71.6341 49.4725 71.7361ZM70.8584 37.0396C71.0506 37.0339 71.2937 37.0202 71.5637 36.9967L71.5534 37.8101C71.3191 37.8174 71.0824 37.8142 70.8481 37.8029L70.8584 37.0396ZM71.5423 29.6694C71.5725 29.9656 71.5955 30.2659 71.609 30.5678H70.9037C70.8878 30.2659 70.8648 29.9656 70.833 29.6694H71.5415H71.5423ZM63.7369 37.0396V37.785C63.5026 37.7923 63.2683 37.7923 63.0316 37.7834V37.0113C63.2945 37.0291 63.536 37.038 63.7369 37.0396ZM63.7083 29.6694C63.7187 29.7754 63.7274 29.8815 63.7346 29.9875V30.5678H63.0308V30.0271C63.0221 29.9065 63.0118 29.7884 63.0006 29.6694H63.7076H63.7083ZM56.1548 16.4652C57.235 16.8763 58.3351 17.3846 59.4018 17.9901C58.3525 17.5732 57.0785 17.0868 55.5059 16.5024L55.7473 15.8266C56.602 16.143 57.3692 16.432 58.0618 16.6975C57.3422 16.5146 56.6178 16.347 55.8935 16.1924C55.6131 16.3794 56.0293 16.415 56.154 16.4636M56.0285 29.6694C56.0444 29.9697 56.0587 30.2691 56.0706 30.5678H55.3669C55.3541 30.2675 55.3406 29.9697 55.3224 29.6694H56.0277H56.0285ZM55.3144 37.0412C55.482 37.0396 55.7306 37.025 56.0213 36.9983L56.0126 37.7794C55.7783 37.7883 55.5416 37.7883 55.3073 37.781L55.3144 37.0412ZM51.459 15.5093L52.984 16.2329C52.4217 16.0799 51.8609 15.9472 51.3113 15.8363L51.459 15.5093ZM51.3113 15.8363L52.8029 16.9395L51.162 16.1617L51.3121 15.8363H51.3113ZM48.1572 37.0145C48.1628 37.2735 48.1659 37.5301 48.1699 37.785C47.9356 37.7939 47.6989 37.7956 47.4646 37.7891C47.4614 37.543 47.4575 37.2913 47.4543 37.042C47.652 37.0404 47.8935 37.0331 48.158 37.0153M47.7895 14.8108C48.4384 15.2082 49.0357 15.6178 49.5853 16.0378C49.4423 15.9836 49.2978 15.9318 49.1516 15.8816C48.6933 15.7254 48.0659 15.4721 47.5742 15.5206C47.525 15.4883 47.4757 15.4575 47.4265 15.4276L47.7895 14.8116V14.8108ZM48.0293 29.6694C48.0341 29.9624 48.0397 30.2602 48.0468 30.5678H47.3415C47.3343 30.2611 47.3288 29.9624 47.3224 29.6694H48.0293ZM44.4225 14.7695C44.4861 14.7841 45.0484 14.9185 45.4559 15.3393C45.1032 15.2098 44.7331 15.1329 44.3471 15.12L44.4225 14.7695ZM44.3463 15.12V15.4915C44.3002 15.4769 44.2724 15.4721 44.27 15.4696L44.3463 15.1192V15.12ZM53.5146 58.8014V57.9467C53.5408 58.1604 53.5305 58.4752 53.5146 58.8014Z" fill="#9B3C34"/>
<path d="M55.5068 16.5014C57.0795 17.0849 58.3535 17.5722 59.4028 17.989C59.4043 17.989 59.4059 17.9906 59.4059 17.9906C62.9667 19.4022 63.9278 19.9938 65.0747 20.698L65.2915 20.8307C68.3495 22.702 69.7053 24.4576 70.4654 27.5397C70.6362 28.2244 70.7577 28.9375 70.834 29.6683C70.8658 29.9646 70.8888 30.2649 70.9047 30.5668C70.9237 30.9423 70.9309 31.3227 70.9261 31.7072L70.8594 37.0386L70.8491 37.8018C71.0834 37.8123 71.3201 37.8164 71.5544 37.8091L71.5647 36.9957L71.6314 31.7185C71.637 31.3308 71.6298 30.9464 71.61 30.5676C71.5957 30.2657 71.5727 29.9662 71.5433 29.6692C71.4654 28.8768 71.3336 28.1062 71.1501 27.3649C70.3479 24.112 68.8586 22.1735 65.6537 20.2156L65.4408 20.0845C64.1081 19.267 63.0207 18.5993 58.0636 16.6989C57.371 16.4334 56.6037 16.1436 55.7491 15.8271L55.5076 16.5022L55.5068 16.5014Z" fill="#9B3C34"/>
<path d="M51.1611 16.1602L52.8021 16.938L52.8037 16.9396L54.3359 17.6656C56.3295 18.6118 58.0427 19.8785 59.4288 21.4268C61.532 23.7813 62.702 26.4814 63.0022 29.6679C63.0125 29.7869 63.0236 29.9051 63.0324 30.0257V37.7819C63.2683 37.7908 63.5034 37.7908 63.7377 37.7836V37.0381L63.7361 30.5663V29.986C63.729 29.88 63.7202 29.7739 63.7099 29.6679C63.4089 26.2928 62.1762 23.4349 59.9498 20.9436C58.5026 19.3232 56.7155 18.0015 54.6353 17.0149L52.9856 16.2314L51.4606 15.5078L51.3128 15.8348L51.1627 16.1602H51.1611Z" fill="#9B3C34"/>
<path d="M47.4268 15.4255C47.476 15.4563 47.5252 15.4862 47.5745 15.5186C53.9629 19.4934 55.0327 24.4606 55.3235 29.6673C55.3409 29.9676 55.3552 30.2655 55.3679 30.5658C55.3695 30.6143 55.3719 30.6629 55.3735 30.7114C55.3751 30.7689 55.3735 30.9704 55.3735 31.0255L55.3155 37.0392L55.3084 37.7798C55.5427 37.787 55.7794 37.787 56.0137 37.7781L56.0224 36.9971L56.0788 31.0384C56.0788 30.9866 56.0804 30.7584 56.0772 30.6831C56.0756 30.6435 56.0732 30.6062 56.0717 30.5666C56.0589 30.2687 56.0454 29.9684 56.0296 29.6682C55.7635 24.8904 54.808 20.0115 49.592 16.0382C49.5904 16.0366 49.588 16.0366 49.5864 16.0366C49.0368 15.6165 48.4387 15.207 47.7905 14.8096L47.4275 15.4255H47.4268Z" fill="#9B3C34"/>
<path d="M44.2708 15.4695C44.2708 15.4695 44.301 15.4768 44.3463 15.4913C44.4853 15.5367 44.7799 15.6492 44.9793 15.8685C47.1318 18.2376 47.181 21.1764 47.2994 28.2771C47.3065 28.7206 47.3153 29.186 47.3224 29.6692C47.3296 29.9622 47.3351 30.2601 47.3415 30.5676C47.3518 31.169 47.3661 31.7963 47.3804 32.4462C47.382 32.4932 47.4177 34.7926 47.4543 37.0411C47.4582 37.2912 47.4614 37.5421 47.4646 37.7881C47.6989 37.7954 47.9356 37.793 48.1699 37.7841C48.1667 37.5291 48.1628 37.2725 48.1572 37.0135C48.1223 34.7505 48.0865 32.4511 48.0849 32.4276C48.0706 31.7825 48.0571 31.1609 48.046 30.5668C48.0389 30.2593 48.0333 29.9614 48.0285 29.6684C48.0198 29.1796 48.0111 28.7109 48.0039 28.265C47.8824 20.97 47.8308 17.951 45.4956 15.3788C45.4829 15.3643 45.4694 15.3497 45.4551 15.3375C45.0476 14.9175 44.4853 14.7823 44.4217 14.7686L44.27 15.4687L44.2708 15.4695Z" fill="#9B3C34"/>
<path d="M43.9941 58.4064V14.1738C53.8463 14.2604 68.3482 16.9435 73.7509 24.9386C76.2084 28.5759 75.1854 32.0449 75.3657 36.2173C74.6961 37.3528 73.129 37.7697 71.5531 37.8069L71.5635 36.9935C72.82 36.8874 74.6659 36.5896 74.6659 36.0433V30.5646H71.6095C71.5952 30.2627 71.5722 29.9624 71.5428 29.6662H74.6667C74.1941 24.1154 68.4968 20.5647 63.909 18.6246C62.0155 17.8249 60.0536 17.2001 58.0639 16.695C57.3713 16.4296 56.6041 16.1398 55.7494 15.8242L55.508 16.5C57.0806 17.0835 58.3547 17.5708 59.4039 17.9876C59.4055 17.9876 59.4079 17.9892 59.4079 17.9892C63.7478 20.4433 67.5762 24.4521 67.6167 29.667H70.8359C70.8677 29.9632 70.8907 30.2635 70.9066 30.5654H67.6175V35.8644C67.6175 36.5232 69.9709 37.0016 70.519 37.0372C70.5952 37.0428 70.7112 37.0428 70.8613 37.0372L70.851 37.8004C69.9288 37.7608 69.0496 37.6045 68.3991 37.4014C68.0273 37.2865 67.6143 36.868 67.3554 36.8591C67.075 36.8486 66.3999 37.3229 65.9924 37.4411C65.2855 37.6458 64.5174 37.7575 63.7398 37.7826V37.0372C63.9249 37.0412 64.075 37.0372 64.1767 37.0283C64.612 36.9919 66.9122 36.4536 66.9122 36.0441V30.5654H63.7375V29.9851C63.7303 29.879 63.7216 29.773 63.7113 29.667H66.9122C66.4714 22.338 59.4452 17.9714 52.9861 16.2305L51.4611 15.5069L51.3134 15.8339L51.1633 16.1592L52.8043 16.937L52.8058 16.9387L55.1942 18.7047C57.9988 21.6541 59.9305 25.4606 59.8606 29.667H63.0036C63.0139 29.7859 63.025 29.9041 63.0337 30.0247V30.5654H59.8606V35.8644C59.8606 36.5993 61.7168 36.915 63.0337 37.0088V37.781C62.2561 37.7543 61.4881 37.641 60.7772 37.4451C60.3824 37.3358 59.8257 36.915 59.5659 36.8915C59.2943 36.8664 58.531 37.369 58.1013 37.4848C57.4563 37.6555 56.7423 37.7543 56.0139 37.7778L56.0227 36.9967C57.2228 36.885 59.1553 36.5694 59.1553 36.0449V30.5662H56.0719C56.06 30.2683 56.0457 29.9681 56.0298 29.6678H59.1553C59.0655 23.697 55.0338 18.1139 49.5922 16.0378C49.5906 16.0362 49.5882 16.0362 49.5866 16.0362C49.0362 15.6161 48.4389 15.2066 47.79 14.8092L47.427 15.4251C47.4762 15.4559 47.5255 15.4858 47.5747 15.5182C47.4937 15.5255 47.4159 15.5401 47.3436 15.5668C51.095 18.9993 52.1402 24.7209 52.1029 29.6678H55.3237C55.3412 29.9681 55.3555 30.2659 55.3682 30.5662H52.1037V36.0449C52.1037 36.537 54.6827 37.0169 55.1799 37.0396C55.2149 37.0412 55.2609 37.0412 55.3158 37.0396L55.3086 37.7802C54.5104 37.7551 53.7224 37.6434 53.0203 37.4459C52.6097 37.3294 51.9504 36.8494 51.6597 36.8599C51.3896 36.8688 51.0846 37.2411 50.7375 37.3472C49.9306 37.5916 49.0545 37.7478 48.1712 37.7834C48.1673 37.5285 48.1641 37.2719 48.1585 37.0129C49.4802 36.9247 51.3984 36.6123 51.3984 35.8652V30.5662H48.0473C48.0402 30.2594 48.0346 29.9608 48.0299 29.6678H51.3984C51.3333 26.4456 50.9099 23.043 49.6089 20.0831C48.8178 18.2814 47.3881 16.0378 45.4556 15.3377C45.0481 14.9176 44.4858 14.7825 44.4231 14.7679L44.2713 15.468C44.2713 15.468 44.3015 15.4753 44.3476 15.4899V29.6678H47.3229C47.3301 29.9608 47.3349 30.2586 47.342 30.5662H44.3468V36.0449C44.3468 36.503 46.6367 36.991 47.0807 37.0291C47.1704 37.0364 47.2975 37.042 47.4548 37.0396C47.458 37.2897 47.462 37.5406 47.4651 37.7867C46.3706 37.751 45.2904 37.5188 44.3468 37.0323V57.3874H53.5151V60.2469H44.3468V71.2577H43.9941V59.3056H52.6319V58.4072H43.9941V58.4064Z" fill="#9B3C34"/>
<path d="M49.4531 72.2395H49.4722V71.749C49.4682 71.8979 49.4595 72.0687 49.4531 72.2395Z" fill="#9B3C34"/>
<path d="M49.4531 72.2395H49.4722V71.749C49.4682 71.8979 49.4595 72.0687 49.4531 72.2395Z" fill="#9B3C34"/>
<path d="M68.4634 73.1381H68.3188L68.3204 65.1479L68.7556 62.7764L69.6087 58.1347L70.2362 54.5564L70.2489 54.4827L70.2529 54.4666L70.2544 54.4536L70.3918 53.6798L68.5777 53.3496L66.9757 62.4511L68.0122 62.6413C67.9788 62.9254 67.8954 63.3001 67.8128 63.6724H59.3411V63.9776C59.3355 63.976 59.3323 63.976 59.3268 63.9743C59.3427 64.6032 59.3832 65.2386 59.1115 65.8205L55.7144 73.1365H49.4706V72.2381H49.4516C49.4587 72.0673 49.4674 71.8965 49.4706 71.7476V71.2571H43.9917V72.2381H48.3531V73.1365H43.9917V73.8552H68.4618C68.4109 73.6197 68.4109 73.372 68.4618 73.1365M60.0393 64.4519H67.3776V65.271H60.0393V64.4519ZM67.4379 73.1381H56.685L59.9463 65.9533H67.4379V73.1381Z" fill="#9B3C34"/>
<path d="M33.4327 16.5799C33.0642 16.6697 32.6869 16.7701 32.2993 16.8801C30.5789 17.3706 28.6965 18.0659 26.8998 19.0485C26.8982 19.0485 26.8958 19.0501 26.8942 19.0525C24.4884 20.3678 22.2334 22.1978 20.7195 24.7416C19.4288 26.91 19.1365 28.8339 19.0714 29.6667C19.05 29.9435 19.0539 30.0997 19.0539 30.1054V37.5493C18.8315 37.5994 18.5956 37.6464 18.3486 37.682V30.1159C18.3486 30.0924 18.3439 29.9346 18.3645 29.6667C18.4225 28.7861 18.7156 26.719 20.1167 24.3677C21.1659 22.6057 22.5472 21.1739 24.0849 20.0116C25.7616 18.7433 27.621 17.7947 29.4383 17.0857C29.4383 17.0857 29.4396 17.0852 29.4423 17.0841C29.8815 16.9133 30.3168 16.7555 30.7465 16.6122C31.2048 16.4576 31.6559 16.3192 32.0983 16.1938C32.0999 16.1922 32.1039 16.1922 32.1055 16.1922C32.1905 16.1671 32.2747 16.1436 32.3573 16.1226C32.6654 16.036 32.9705 15.9574 33.2667 15.8838L33.3922 16.4099L33.4327 16.5823V16.5799Z" fill="#9B3C34"/>
<path d="M37.4566 15.8577C37.2342 15.9119 37.0086 15.971 36.7799 16.0341C36.5892 16.0843 36.397 16.1385 36.2016 16.1944C34.594 16.6646 32.8506 17.3259 31.1707 18.251C28.683 19.6181 26.3351 21.5654 24.7664 24.3367C23.4408 26.6758 23.1517 28.7843 23.0897 29.6681C23.0707 29.9449 23.0722 30.1011 23.0722 30.1084V37.6745C22.8324 37.6389 22.5965 37.5919 22.3669 37.5361V30.1173C22.3669 30.0938 22.3637 29.936 22.3812 29.6681C22.436 28.7487 22.7212 26.5285 24.1334 24.0154C25.5663 21.4683 27.6187 19.5873 29.8427 18.2008C30.6449 17.6998 31.4717 17.2628 32.2986 16.8823C32.2986 16.8823 32.3001 16.8807 32.3017 16.8807C32.6647 16.714 33.0277 16.557 33.3907 16.4097C34.7425 15.8633 36.0737 15.4595 37.2898 15.1592L37.4558 15.8577H37.4566Z" fill="#9B3C34"/>
<path d="M38.9215 16.2315C38.9143 16.2331 38.9056 16.2356 38.8985 16.2372C38.8317 16.2517 38.7642 16.2655 38.6975 16.2841C38.3996 16.3505 38.1066 16.4241 37.8214 16.5051C37.402 16.6184 36.9946 16.7463 36.5982 16.8863C36.4275 16.9454 36.2599 17.0069 36.0939 17.0708L36.0923 17.0724C34.7682 17.5807 33.5784 18.2274 32.5228 19.0101L32.5212 19.0117C30.6602 20.3877 29.2178 22.1821 28.2099 24.386C27.2266 26.5341 26.9232 28.5551 26.831 29.6672C26.7834 30.2184 26.7905 30.547 26.7905 30.5559V37.5506C26.5594 37.6024 26.3251 37.6461 26.0852 37.6817V30.5648C26.0836 30.5292 26.078 30.2022 26.117 29.6664C26.2051 28.5187 26.5117 26.4046 27.557 24.1108C28.3362 22.399 29.6245 20.4119 31.7452 18.7292C32.9001 17.8146 34.298 16.9891 35.9954 16.3472C36.2543 16.2469 36.5204 16.153 36.796 16.0648C37.4004 15.8657 38.0406 15.6892 38.7174 15.5403C38.7364 15.5371 38.7539 15.5314 38.7738 15.5273L38.8182 15.7337L38.8484 15.877L38.8945 16.0963L38.9207 16.2258L38.9223 16.2299L38.9215 16.2315Z" fill="#9B3C34"/>
<path d="M42.3078 15.1184C41.9345 15.1993 41.5676 15.2908 41.2117 15.3928C41.0211 15.4446 40.8345 15.5028 40.6494 15.5635C40.6478 15.5619 40.6478 15.5635 40.6478 15.5635C40.4349 15.6299 40.2268 15.7003 40.0219 15.7756C40.0203 15.7756 40.0187 15.7772 40.0164 15.7772C39.6391 15.914 39.2745 16.0629 38.9203 16.2264C38.9131 16.228 38.906 16.2313 38.8988 16.2353C38.8003 16.2798 38.701 16.3252 38.6041 16.3737C37.9576 16.6845 37.3492 17.0382 36.7813 17.4316C34.5795 18.9548 32.956 21.0851 31.9322 23.8087C31.0299 26.2085 30.848 28.4756 30.825 29.6662C30.8123 30.2085 30.8337 30.5282 30.8353 30.5371V37.6734C30.5939 37.6377 30.358 37.5924 30.13 37.5406V30.5638C30.1228 30.4667 30.107 30.151 30.1141 29.6654C30.1356 28.4278 30.3206 26.0976 31.2634 23.5756C31.9687 21.6946 33.188 19.5157 35.2984 17.7019C35.5485 17.4866 35.813 17.2762 36.0895 17.0698C36.0895 17.0698 36.091 17.0698 36.0934 17.0682C36.8623 16.5024 37.7312 15.9852 38.7161 15.5393C39.0243 15.3992 39.3436 15.2681 39.6748 15.1443C39.6748 15.1443 39.6748 15.1427 39.6764 15.1427C39.8742 15.069 40.0751 14.997 40.2808 14.929C40.8718 14.7331 41.4969 14.5607 42.1601 14.415L42.3063 15.1176L42.3078 15.1184Z" fill="#9B3C34"/>
<path d="M41.2396 15.3808C41.2308 15.3849 41.2237 15.3881 41.2149 15.3914C41.2133 15.393 41.2118 15.393 41.2118 15.393C40.9052 15.5314 40.6145 15.6908 40.3357 15.8705L40.3341 15.8721C35.8075 18.7948 34.8957 26.9372 34.7162 29.6656C34.6828 30.1901 34.6741 30.5154 34.6741 30.564V37.5222C34.4453 37.5781 34.2102 37.6226 33.9688 37.6606V30.564C33.9688 30.5227 33.9743 30.1973 34.0053 29.6656C34.0792 28.4766 34.2873 26.2476 34.8885 23.8211C35.4946 21.367 36.3548 19.3395 37.4389 17.7823C37.8019 17.2594 38.1895 16.7892 38.6041 16.374C38.6343 16.3416 38.6661 16.3108 38.6979 16.2825C38.763 16.2177 38.8265 16.157 38.8933 16.0971C39.0434 15.9571 39.1983 15.8244 39.3555 15.7022C39.6732 15.4488 40.0021 15.2263 40.3444 15.0344C40.5454 14.9195 40.7495 14.8167 40.9576 14.7236L41.2396 15.3808Z" fill="#9B3C34"/>
<path d="M43.7268 15.093C43.7022 15.1059 43.6775 15.1164 43.6545 15.1294V15.131H43.6529C43.3725 15.2694 43.108 15.4329 42.8578 15.6174C42.1724 16.1225 41.5918 16.7854 41.1017 17.5519C38.722 21.2629 38.4274 27.3923 38.4051 29.6675C38.3996 30.2097 38.4099 30.5335 38.4099 30.5529V37.6228C38.17 37.5799 37.9357 37.5273 37.7046 37.4682V30.5651C37.7046 30.5594 37.6942 30.2292 37.699 29.6666C37.7093 28.4469 37.7943 26.1353 38.228 23.678C38.8467 20.1661 39.9238 17.5729 41.4416 15.9307C41.4416 15.9307 41.4422 15.9301 41.4432 15.929C42.0231 15.3026 42.668 14.8153 43.3749 14.4665C43.3908 14.4576 43.4083 14.4503 43.4257 14.4414L43.5759 14.7668L43.726 15.0921L43.7268 15.093Z" fill="#9B3C34"/>
<path d="M44.0054 14.1755H44.0038L43.9689 14.1455H43.5868C43.5781 14.1576 43.5686 14.1682 43.5606 14.1811C43.4971 14.271 43.4351 14.3681 43.3771 14.4685C43.2945 14.6101 43.2151 14.7631 43.1412 14.9249H43.1397C43.0991 15.0132 43.0586 15.1046 43.0197 15.1993C42.9633 15.3345 42.9101 15.4721 42.8593 15.6178H42.8577C42.7783 15.8444 42.7028 16.0832 42.6321 16.3325C41.4812 20.3793 41.6027 27.1911 41.6925 29.6678C41.7084 30.1453 41.7258 30.4618 41.7314 30.5662V37.6653C41.9689 37.624 42.2056 37.5698 42.4367 37.505V30.5662L42.4351 30.5468C42.4351 30.5362 42.4177 30.2141 42.3978 29.6686C42.3557 28.4456 42.3041 26.0944 42.4065 23.5788C42.5582 19.8678 42.9848 17.1192 43.6543 15.4996C43.6559 15.4964 43.6575 15.4923 43.6599 15.4891C43.6758 15.451 43.6917 15.4138 43.7091 15.3758V15.3741C43.8005 15.1637 43.8974 14.9751 43.9967 14.8084C44.0006 14.8027 44.0038 14.7979 44.007 14.7922C44.0936 14.6481 44.1833 14.5194 44.2763 14.4077L44.007 14.1779V14.1763L44.0054 14.1755Z" fill="#9B3C34"/>
<path d="M30.7773 16.7558C30.3453 16.8529 29.8997 16.9622 29.4414 17.0844C28.7877 17.2568 28.1102 17.4559 27.4231 17.6882C23.6614 18.946 19.59 21.1046 17.092 24.7962C15.6496 26.9281 15.2461 28.8269 15.1317 29.6678C15.0944 29.9551 15.0896 30.1186 15.0896 30.1243V37.6685C14.8465 37.6232 14.6099 37.5641 14.3843 37.4888V30.117C14.3843 30.0903 14.3898 29.9317 14.42 29.6678C14.5257 28.788 14.9331 26.7241 16.5121 24.389C17.4851 22.95 18.6821 21.7359 20.0038 20.7136C23.3016 18.1576 27.3707 16.7873 30.6264 16.0557L30.7019 16.4061L30.7233 16.5033L30.7464 16.6125L30.7781 16.7566L30.7773 16.7558Z" fill="#9B3C34"/>
<path d="M54.5352 16.5799C54.9037 16.6697 55.281 16.7701 55.6686 16.8801C57.389 17.3706 59.2714 18.0659 61.0681 19.0485C61.0697 19.0485 61.072 19.0501 61.0736 19.0525C63.4795 20.3678 65.7345 22.1978 67.2483 24.7416C68.539 26.91 68.8313 28.8339 68.8965 29.6667C68.9179 29.9435 68.9139 30.0997 68.9139 30.1054V37.5493C69.1363 37.5994 69.3722 37.6464 69.6193 37.682V30.1159C69.6193 30.0924 69.6248 29.9346 69.6034 29.6667C69.5454 28.7861 69.2523 26.719 67.8512 24.3677C66.802 22.6057 65.4207 21.1739 63.883 20.0116C62.2063 18.7433 60.3469 17.7947 58.5296 17.0857C58.5296 17.0857 58.5282 17.0852 58.5256 17.0841C58.0864 16.9133 57.6511 16.7555 57.2214 16.6122C56.7631 16.4576 56.312 16.3192 55.8695 16.1938C55.868 16.1922 55.864 16.1922 55.8624 16.1922C55.7774 16.1671 55.6932 16.1436 55.6106 16.1226C55.3024 16.036 54.9974 15.9574 54.7012 15.8838L54.5757 16.4099L54.5352 16.5823V16.5799Z" fill="#9B3C34"/>
<path d="M50.5107 15.8577C50.7331 15.9119 50.9587 15.971 51.1875 16.0341C51.3781 16.0843 51.5695 16.1385 51.7657 16.1944C53.3733 16.6646 55.1168 17.3259 56.7966 18.251C59.2843 19.6181 61.6322 21.5654 63.2009 24.3367C64.5265 26.6758 64.8157 28.7843 64.8776 29.6681C64.8967 29.9449 64.8951 30.1011 64.8951 30.1084V37.6745C65.135 37.6389 65.3709 37.5919 65.6004 37.5361V30.1173C65.6004 30.0938 65.6036 29.936 65.5861 29.6681C65.5313 28.7487 65.2462 26.5285 63.8339 24.0154C62.4011 21.4683 60.3487 19.5873 58.1247 18.2008C57.3225 17.6998 56.4956 17.2628 55.6688 16.8823C55.6688 16.8823 55.6672 16.8807 55.6656 16.8807C55.3026 16.714 54.9396 16.557 54.5758 16.4097C53.224 15.8633 51.8928 15.4595 50.6767 15.1592L50.5107 15.8577Z" fill="#9B3C34"/>
<path d="M49.0457 16.2315C49.0529 16.2331 49.0616 16.2356 49.0688 16.2372C49.1355 16.2517 49.203 16.2655 49.2697 16.2841C49.5676 16.3505 49.8606 16.4241 50.1458 16.5051C50.5652 16.6184 50.9726 16.7463 51.369 16.8863C51.5397 16.9454 51.7073 17.0069 51.8733 17.0708L51.8749 17.0724C53.199 17.5807 54.3888 18.2274 55.4444 19.0101L55.446 19.0117C57.307 20.3877 58.7494 22.1821 59.7573 24.386C60.7406 26.5341 61.0441 28.5551 61.1362 29.6672C61.1838 30.2184 61.1767 30.547 61.1767 30.5559V37.5506C61.4078 37.6024 61.6421 37.6461 61.882 37.6817V30.5648C61.8836 30.5292 61.8892 30.2022 61.8502 29.6664C61.7621 28.5187 61.4555 26.4046 60.4102 24.1108C59.631 22.399 58.3427 20.4119 56.222 18.7292C55.0671 17.8146 53.6692 16.9891 51.9718 16.3472C51.7129 16.2469 51.4468 16.153 51.1712 16.0648C50.5668 15.8657 49.9266 15.6892 49.2498 15.5403C49.2308 15.5371 49.2133 15.5314 49.1935 15.5273L49.149 15.7337L49.1188 15.877L49.0727 16.0963L49.0465 16.2258L49.0449 16.2299L49.0457 16.2315Z" fill="#9B3C34"/>
<path d="M45.6602 15.1184C46.0335 15.1993 46.4004 15.2908 46.7563 15.3928C46.9469 15.4446 47.1335 15.5028 47.3186 15.5635C47.3202 15.5619 47.3202 15.5635 47.3202 15.5635C47.5331 15.6299 47.7412 15.7003 47.9461 15.7756C47.9477 15.7756 47.9493 15.7772 47.9509 15.7772C48.3281 15.914 48.6927 16.0629 49.0477 16.2264C49.0549 16.228 49.062 16.2313 49.0692 16.2353C49.1677 16.2798 49.267 16.3252 49.3639 16.3737C50.0104 16.6845 50.6188 17.0382 51.1867 17.4316C53.3885 18.9548 55.012 21.0851 56.0358 23.8087C56.9381 26.2085 57.12 28.4756 57.143 29.6662C57.1557 30.2085 57.1343 30.5282 57.1327 30.5371V37.6734C57.3741 37.6377 57.61 37.5924 57.838 37.5406V30.5638C57.8451 30.4667 57.861 30.151 57.8539 29.6654C57.8324 28.4278 57.6474 26.0976 56.7046 23.5756C55.9993 21.6946 54.78 19.5157 52.6696 17.7019C52.4194 17.4866 52.155 17.2762 51.8785 17.0698C51.8785 17.0698 51.877 17.0698 51.8746 17.0682C51.1057 16.5024 50.2368 15.9852 49.2519 15.5393C48.9429 15.3992 48.6244 15.2681 48.2932 15.1443C48.2932 15.1443 48.2932 15.1427 48.2916 15.1427C48.0938 15.069 47.8929 14.997 47.6872 14.929C47.0962 14.7331 46.4711 14.5607 45.8079 14.415L45.6617 15.1176L45.6602 15.1184Z" fill="#9B3C34"/>
<path d="M46.7285 15.3808C46.7373 15.3849 46.7444 15.3881 46.7531 15.3914C46.7547 15.393 46.7563 15.393 46.7563 15.393C47.0629 15.5314 47.3536 15.6908 47.6324 15.8705L47.634 15.8721C52.1606 18.7948 53.0724 26.9372 53.2519 29.6656C53.2853 30.1901 53.294 30.5154 53.294 30.564V37.5222C53.5228 37.5781 53.7579 37.6226 53.9993 37.6606V30.564C53.9993 30.5227 53.9938 30.1973 53.9628 29.6656C53.8889 28.4766 53.6808 26.2476 53.0795 23.8211C52.4735 21.367 51.6133 19.3395 50.5291 17.7823C50.1661 17.2594 49.7785 16.7892 49.3639 16.374C49.3337 16.3416 49.302 16.3108 49.2702 16.2825C49.2051 16.2177 49.1415 16.157 49.0748 16.0971C48.9247 15.9571 48.7698 15.8244 48.6125 15.7022C48.2948 15.4488 47.966 15.2263 47.6237 15.0344C47.4227 14.9195 47.2186 14.8167 47.0105 14.7236L46.7285 15.3808Z" fill="#9B3C34"/>
<path d="M44.2405 15.093C44.2652 15.1059 44.2898 15.1164 44.3128 15.1294V15.131H44.3144C44.5948 15.2694 44.8593 15.4329 45.1095 15.6174C45.7949 16.1225 46.3756 16.7854 46.8656 17.5519C49.2453 21.2629 49.54 27.3923 49.5622 29.6675C49.5678 30.2097 49.5566 30.5335 49.5566 30.5529V37.6228C49.7965 37.5799 50.0308 37.5273 50.2619 37.4682V30.5651C50.2619 30.5594 50.2723 30.2292 50.2667 29.6666C50.2564 28.4469 50.1714 26.1353 49.7377 23.678C49.119 20.1661 48.0419 17.5729 46.5241 15.9307C46.5241 15.9307 46.5236 15.9301 46.5225 15.929C45.9427 15.3026 45.2977 14.8153 44.5908 14.4665C44.5749 14.4576 44.5575 14.4503 44.54 14.4414L44.3899 14.7668L44.2397 15.0921L44.2405 15.093Z" fill="#9B3C34"/>
<path d="M45.3377 16.3313C45.267 16.082 45.1915 15.8424 45.1121 15.6166H45.1105C45.0597 15.4709 45.0065 15.3325 44.9501 15.1982C44.9112 15.1027 44.8707 15.0112 44.8302 14.923H44.8286C44.7547 14.7611 44.6753 14.6089 44.5927 14.4665C44.5347 14.3661 44.4727 14.269 44.4092 14.1792C44.4004 14.167 44.3909 14.1557 44.3822 14.1436H44.0001L43.9652 14.1735H43.9636V14.1751L43.6943 14.405C43.7881 14.5167 43.8778 14.6454 43.9636 14.7894C43.9676 14.7951 43.9707 14.8 43.9739 14.8056C44.0724 14.9724 44.1693 15.1609 44.2615 15.3714V15.373C44.2789 15.411 44.2948 15.4483 44.3107 15.4863L44.3163 15.4968C44.9858 17.1172 45.4124 19.8651 45.5641 23.5761C45.6665 26.0908 45.6149 28.442 45.5728 29.665C45.5537 30.2114 45.5355 30.5327 45.5355 30.5432L45.5339 30.5626V37.5014C45.765 37.5662 46.0009 37.6204 46.2392 37.6617V30.5626C46.2448 30.4582 46.2622 30.1426 46.2781 29.6642C46.3679 27.1875 46.4894 20.3758 45.3385 16.3289" fill="#9B3C34"/>
<path d="M57.1899 16.7558C57.622 16.8529 58.0676 16.9622 58.5259 17.0844C59.1796 17.2568 59.8571 17.4559 60.5442 17.6882C64.3059 18.946 68.3773 21.1046 70.8753 24.7962C72.3169 26.9281 72.7212 28.8269 72.8356 29.6678C72.8729 29.9551 72.8777 30.1186 72.8777 30.1243V37.6685C73.1207 37.6232 73.3574 37.5641 73.583 37.4888V30.117C73.583 30.0903 73.5774 29.9317 73.5481 29.6678C73.4424 28.788 73.035 26.7241 71.4559 24.389C70.4829 22.95 69.286 21.7359 67.9643 20.7136C64.6665 18.1576 60.5974 16.7873 57.3416 16.0557L57.2662 16.4061L57.2447 16.5033L57.2217 16.6125L57.1899 16.7566V16.7558Z" fill="#9B3C34"/>
</svg>
