<svg width="15" height="16" viewBox="0 0 15 16" fill="none" xmlns="http://www.w3.org/2000/svg">
<path d="M4.61996 0.959961C2.32636 0.959961 0.459961 2.82636 0.459961 5.11996V10.88C0.459961 13.1736 2.32636 15.04 4.61996 15.04H10.38C12.6736 15.04 14.54 13.1736 14.54 10.88V5.11996C14.54 2.82636 12.6736 0.959961 10.38 0.959961H4.61996ZM4.61996 1.59996H10.38C12.3276 1.59996 13.9 3.17229 13.9 5.11996V10.88C13.9 12.8276 12.3276 14.4 10.38 14.4H4.61996C2.67229 14.4 1.09996 12.8276 1.09996 10.88V5.11996C1.09996 3.17229 2.67229 1.59996 4.61996 1.59996ZM11.34 3.51996C11.1702 3.51996 11.0074 3.58739 10.8874 3.70741C10.7674 3.82744 10.7 3.99022 10.7 4.15996C10.7 4.3297 10.7674 4.49249 10.8874 4.61251C11.0074 4.73253 11.1702 4.79996 11.34 4.79996C11.5097 4.79996 11.6725 4.73253 11.7925 4.61251C11.9125 4.49249 11.98 4.3297 11.98 4.15996C11.98 3.99022 11.9125 3.82744 11.7925 3.70741C11.6725 3.58739 11.5097 3.51996 11.34 3.51996ZM7.49996 4.47996C5.55971 4.47996 3.97996 6.05971 3.97996 7.99996C3.97996 9.94021 5.55971 11.52 7.49996 11.52C9.44021 11.52 11.02 9.94021 11.02 7.99996C11.02 6.05971 9.44021 4.47996 7.49996 4.47996ZM7.49996 5.11996C9.09433 5.11996 10.38 6.40559 10.38 7.99996C10.38 9.59433 9.09433 10.88 7.49996 10.88C5.90559 10.88 4.61996 9.59433 4.61996 7.99996C4.61996 6.40559 5.90559 5.11996 7.49996 5.11996Z" fill="white" fill-opacity="0.7"/>
</svg>
