<svg width="88" height="88" viewBox="0 0 88 88" fill="none" xmlns="http://www.w3.org/2000/svg">
<mask id="mask0_1304_734" style="mask-type:luminance" maskUnits="userSpaceOnUse" x="12" y="18" width="64" height="52">
<path d="M75.4289 18.8564H12.5718V69.1422H75.4289V18.8564Z" fill="white"/>
</mask>
<g mask="url(#mask0_1304_734)">
<path d="M44.0272 49.46C44.2818 49.1111 44.5202 48.7903 44.7528 48.4646C44.8813 48.2844 44.9998 48.0977 45.1226 47.9138C45.45 47.4251 45.6224 46.8791 45.7478 46.3142C45.8196 45.9925 45.947 45.6772 45.9766 45.3524C46.0176 44.9013 46.0274 44.4415 45.9862 43.9901C45.9297 43.3662 45.83 42.7442 45.7152 42.1278C45.653 41.79 45.4968 41.4691 45.4279 41.1313C45.2949 40.484 45.2087 39.8301 45.2852 39.1667C45.3359 38.7229 45.361 38.2735 45.4547 37.8391C45.5544 37.3813 45.7141 36.9347 45.8645 36.489C45.9698 36.1785 46.0704 35.8594 46.2312 35.5752C46.4601 35.1708 46.7368 34.7908 47.002 34.4071C47.1608 34.1772 47.3285 33.953 47.5047 33.7353C47.7047 33.4867 47.9241 33.2521 48.1261 33.0054C48.4277 32.6376 48.711 32.2566 49.0212 31.8964C49.4204 31.4319 49.8427 30.9872 50.2448 30.5247C50.4832 30.2497 50.6921 29.9514 50.9294 29.6755C51.162 29.4053 51.4274 29.1623 51.6561 28.8884C52.0316 28.438 52.381 27.968 52.7554 27.5167C53.0033 27.2183 53.2809 26.9444 53.5337 26.6497C53.7041 26.4508 53.845 26.2275 54.0145 26.0277C54.4137 25.5586 54.8196 25.096 55.2266 24.6335C55.5195 24.3004 55.8135 23.9692 56.1121 23.6427C56.362 23.3697 56.6263 23.1098 56.8725 22.833C57.0429 22.6416 57.1855 22.4267 57.353 22.2316C57.6805 21.8497 57.9774 21.4172 58.4703 21.2314C58.7424 21.1292 59.0649 21.0869 59.3552 21.1142C59.7323 21.1489 60.1047 21.2258 60.4226 21.5063C60.663 21.7184 61.0153 21.8056 61.3055 21.9698C61.6961 22.1912 62.0849 22.4183 62.4553 22.6707C62.9388 23.0009 63.4051 23.3546 63.8744 23.7037C64.5751 24.2244 65.2836 24.7357 65.9673 25.2762C66.873 25.9911 67.7588 26.7304 68.6539 27.4585C69.0035 27.7418 69.3653 28.0111 69.7033 28.3076C70.0297 28.5947 70.3266 28.9137 70.6474 29.2074C70.8523 29.395 71.0858 29.5536 71.2916 29.7403C71.6842 30.0959 72.0405 30.4927 72.4579 30.8164C72.9989 31.2358 73.4795 31.6984 73.8893 32.2407C74.1583 32.5972 74.4264 32.9659 74.7567 33.2634C75.177 33.6424 75.3265 34.1059 75.4127 34.6276C75.5055 35.1914 75.1761 35.5864 74.8792 35.9889C74.6774 36.2629 74.4177 36.4956 74.1995 36.7592C73.9467 37.0641 73.715 37.385 73.4662 37.6937C73.2151 38.0052 72.9539 38.3092 72.7 38.6188C72.3832 39.0072 72.0768 39.406 71.7522 39.7879C71.513 40.0693 71.2429 40.3255 71.0007 40.6042C70.746 40.8969 70.5113 41.2084 70.2586 41.503C70.0585 41.7375 69.8374 41.9552 69.6362 42.188C69.3001 42.5764 68.9747 42.9721 68.6415 43.3616C68.5189 43.5051 68.384 43.6373 68.2624 43.7811C67.6447 44.5175 67.0359 45.2624 66.4096 45.9914C66.0879 46.3668 65.7278 46.7102 65.3986 47.0788C65.0845 47.4316 64.7991 47.8087 64.4785 48.155C64.2419 48.4103 63.9787 48.6448 63.7106 48.8691C63.3506 49.1702 62.9953 49.4854 62.598 49.7351C62.2083 49.9789 61.7716 50.1543 61.3505 50.3478C60.9714 50.5212 60.5959 50.7257 60.1957 50.8308C59.5322 51.0045 58.8649 51.1929 58.1584 51.1443C57.7629 51.117 57.3637 51.1508 56.9662 51.1376C56.364 51.118 55.7607 51.0392 55.1614 51.0616C54.2376 51.0963 53.3288 51.2474 52.4986 51.6884C52.0316 51.9372 51.5566 52.1745 51.1055 52.4484C50.8911 52.5789 50.7265 52.788 50.535 52.956C50.3578 53.1117 50.1511 53.2413 49.9978 53.4156C49.5345 53.9458 49.0901 54.4918 48.6315 55.0398C48.8623 55.2875 49.0817 55.5239 49.3019 55.7575C49.6282 56.1038 49.9672 56.4397 50.2822 56.7961C50.7965 57.378 51.2943 57.9717 51.7999 58.5601C51.953 58.7383 52.1005 58.9231 52.268 59.0883C52.3283 59.1474 52.4375 59.1801 52.5266 59.1869C52.8875 59.2121 53.2504 59.2459 53.6113 59.2338C54.5677 59.2019 55.1863 59.6897 55.6737 60.4356C55.913 60.8025 56.2329 61.1178 56.4885 61.4762C56.6647 61.7228 56.8082 61.996 56.9385 62.2699C57.0322 62.4669 57.1098 62.6807 57.1406 62.8948C57.1769 63.1566 57.1999 63.4351 57.1501 63.6913C57.0717 64.0882 56.9711 64.4926 56.7978 64.8565C56.6168 65.2356 56.3592 65.5855 56.0988 65.9214C55.8126 66.2911 55.4831 66.6289 55.1747 66.9826C54.7582 67.4611 54.2356 67.798 53.6735 68.0887C53.3527 68.2548 53.0521 68.4584 52.7324 68.6265C52.2346 68.8872 51.7223 69.1078 51.1352 69.0954C50.7273 69.0872 50.3111 69.1556 49.9136 69.0937C49.6302 69.0496 49.3679 68.8544 49.1056 68.7109C48.4746 68.3647 48.059 67.7961 47.5773 67.2922C47.3188 67.0221 47.0873 66.7405 46.8679 66.4374C46.5624 66.0163 46.5788 65.5564 46.6065 65.0957C46.6304 64.7028 46.733 64.3142 46.7731 63.9212C46.7846 63.8133 46.7253 63.6735 46.6515 63.5862C46.1107 62.951 45.5475 62.3336 45.0133 61.6929C44.6677 61.2782 44.3576 60.8345 44.0071 60.3709C43.6661 60.8156 43.3637 61.2322 43.038 61.6299C42.7356 61.9997 42.4072 62.3488 42.0922 62.7081C41.8241 63.014 41.5521 63.3179 41.2946 63.6331C41.241 63.6978 41.2171 63.8122 41.2286 63.8978C41.2773 64.2907 41.3549 64.6793 41.3999 65.0723C41.4641 65.6335 41.4114 66.1747 41.0113 66.6261C40.5795 67.1131 40.1437 67.5981 39.7052 68.0794C39.2945 68.5307 38.7736 68.8395 38.2144 69.0635C37.9694 69.1621 37.6658 69.1406 37.3891 69.1378C37.0951 69.1349 36.8031 69.0852 36.5091 69.0646C35.9626 69.0262 35.5106 68.7455 35.0471 68.5045C34.6211 68.2822 34.2094 68.0325 33.7967 67.7856C33.3113 67.4958 32.913 67.1131 32.5645 66.6739C32.3213 66.3671 32.0551 66.0762 31.8004 65.7779C31.383 65.2881 31.0881 64.7421 30.9923 64.1023C30.9426 63.7721 30.8066 63.4399 30.8305 63.1171C30.8564 62.7736 31.0029 62.4312 31.1398 62.1056C31.3954 61.4968 31.8741 61.0342 32.2705 60.5153C32.4831 60.2376 32.7081 59.9843 32.9475 59.732C33.3075 59.353 33.7661 59.275 34.241 59.2327C34.6527 59.1962 35.0673 59.1982 35.4818 59.1943C35.7395 59.1925 35.8141 58.9756 35.9424 58.833C36.5896 58.1096 37.2188 57.3704 37.8668 56.6479C38.3493 56.1103 38.8511 55.5906 39.3585 55.0482C39.2457 54.8887 39.1356 54.7087 38.9996 54.5491C38.6462 54.1353 38.2911 53.7215 37.9186 53.3258C37.7117 53.1052 37.4638 52.9222 37.2387 52.7176C36.4537 52.0047 35.4685 51.6519 34.4966 51.2898C34.1491 51.1602 33.7517 51.1443 33.3745 51.1161C32.8096 51.0748 32.2418 51.0477 31.6759 51.0533C31.247 51.057 30.8181 51.1367 30.3882 51.1556C29.6787 51.1856 28.9731 51.1556 28.2875 50.937C27.8873 50.8093 27.4545 50.7531 27.0811 50.5738C26.3247 50.2116 25.5808 49.8156 24.8694 49.3756C24.5046 49.1496 24.2183 48.8016 23.9024 48.5022C23.662 48.2751 23.4255 48.0424 23.1958 47.8042C23.0311 47.6344 22.8798 47.4514 22.7237 47.2732C22.3771 46.8752 22.0267 46.4812 21.6887 46.0778C21.3105 45.6264 20.9496 45.1612 20.5723 44.709C20.3397 44.4302 20.084 44.1695 19.8504 43.8907C19.5948 43.5859 19.365 43.2583 19.1007 42.96C18.711 42.5219 18.2945 42.1072 17.902 41.6719C17.6597 41.4025 17.4481 41.107 17.2107 40.8339C16.934 40.5159 16.6372 40.2138 16.3614 39.8948C16.056 39.5411 15.7649 39.1761 15.4672 38.8158C15.1962 38.4875 14.9224 38.16 14.6552 37.8288C14.4178 37.5342 14.1947 37.2274 13.9525 36.9366C13.6949 36.6269 13.4144 36.3361 13.1597 36.0255C13.0027 35.8341 12.86 35.6286 12.7365 35.4147C12.501 35.0066 12.5527 34.5703 12.6886 34.1519C12.7978 33.8169 12.9548 33.5111 13.2487 33.2587C13.5207 33.025 13.692 32.6826 13.9304 32.4068C14.2052 32.0887 14.4934 31.78 14.796 31.4882C15.0688 31.2255 15.3753 30.9966 15.6558 30.7405C16.0148 30.4121 16.3452 30.0527 16.7176 29.7412C17.2394 29.304 17.722 28.8264 18.2275 28.3742C19.0107 27.6743 19.8542 27.0391 20.6681 26.372C21.0223 26.0812 21.3593 25.7706 21.7203 25.4873C21.9693 25.2921 22.2517 25.1392 22.5064 24.9506C22.8233 24.716 23.123 24.4608 23.4361 24.2225C23.9244 23.851 24.4089 23.4747 24.9115 23.1229C25.4582 22.7392 26.0155 22.3704 26.5832 22.0177C26.8274 21.8657 27.1146 21.7812 27.3703 21.6452C27.5953 21.526 27.7877 21.3346 28.0232 21.253C28.5633 21.0663 29.1301 20.9865 29.6567 21.2802C29.9056 21.4191 30.1182 21.6349 30.3135 21.846C30.5634 22.1162 30.7702 22.4239 31.0134 22.7007C31.2518 22.9719 31.5151 23.2233 31.7621 23.4879C31.8311 23.562 31.8732 23.6586 31.9421 23.7337C32.2188 24.0367 32.5022 24.3332 32.7809 24.6344C33.0107 24.884 33.2404 25.1345 33.4626 25.3906C33.6933 25.6562 33.9164 25.9282 34.1424 26.1985C34.3961 26.5015 34.6517 26.8027 34.8998 27.1104C35.1832 27.4622 35.4492 27.8282 35.7412 28.1734C36.086 28.5797 36.4566 28.9644 36.8051 29.3678C37.1153 29.7271 37.4035 30.1053 37.7117 30.4655C37.9224 30.7114 38.155 30.9375 38.3695 31.1805C38.7419 31.6027 39.1135 32.0258 39.4764 32.4555C39.9226 32.9847 40.3965 33.496 40.789 34.0618C41.2477 34.7214 41.6662 35.4147 42.0337 36.1269C42.228 36.504 42.2759 36.9534 42.3928 37.37C42.4808 37.6834 42.614 37.9911 42.656 38.3101C42.7566 39.0729 42.8102 39.8404 42.6514 40.6059C42.5756 40.9692 42.5116 41.335 42.4341 41.6982C42.2971 42.3399 42.1314 42.9769 42.0242 43.6243C41.9619 44.0006 41.981 44.3918 41.9792 44.7756C41.9743 45.6191 42.2588 46.4091 42.5174 47.1933C42.6514 47.5997 42.9893 47.9384 43.1636 48.337C43.3225 48.7002 43.5943 48.9592 43.8367 49.2499C43.8845 49.3072 43.937 49.3597 44.0272 49.4583V49.46ZM59.785 22.4052C59.5486 22.3535 59.3437 22.3038 59.1378 22.2654C58.9318 22.2269 58.7585 22.2541 58.6055 22.4333C58.3841 22.6913 58.1324 22.9249 57.8863 23.1623C57.7159 23.3274 57.5159 23.4654 57.3617 23.6417C56.9031 24.1662 56.4655 24.7095 56.0078 25.2358C55.6391 25.6608 55.2467 26.0662 54.877 26.4902C54.5688 26.8439 54.2826 27.2164 53.9799 27.5748C53.845 27.7343 53.6802 27.8713 53.5519 28.0355C53.2648 28.4005 52.9956 28.7795 52.7122 29.1473C52.583 29.3153 52.445 29.4766 52.3026 29.6343C52.1167 29.8397 51.9157 30.0321 51.7327 30.2404C51.3612 30.6654 50.9983 31.0979 50.6299 31.5248C50.3137 31.8898 49.9865 32.2463 49.6801 32.6178C49.3296 33.0429 48.9935 33.481 48.6545 33.9154C48.3501 34.3057 48.0428 34.6932 47.7497 35.092C47.5984 35.2984 47.4672 35.5207 47.3429 35.7441C47.1628 36.0659 46.9694 36.3849 46.8316 36.7254C46.7091 37.0266 46.6391 37.3512 46.5739 37.6703C46.4802 38.1309 46.4045 38.5954 46.3356 39.0607C46.2246 39.8123 46.3136 40.5469 46.5166 41.2796C46.6765 41.8558 46.8037 42.4439 46.8852 43.0351C47.0097 43.9432 47.1141 44.859 46.9253 45.7738C46.8881 45.953 46.8163 46.1247 46.7711 46.3029C46.6965 46.5958 46.6555 46.8997 46.5558 47.1839C46.4113 47.5986 46.2762 48.0285 46.0493 48.3999C45.6922 48.9844 45.2805 49.5399 44.8583 50.0822C44.3939 50.6799 43.8978 51.2539 43.402 51.8273C43.2219 52.0366 42.9815 52.197 42.8094 52.41C42.3842 52.9354 42.0011 53.4936 41.5656 54.0096C41.1242 54.5313 40.6472 55.0268 40.1696 55.5174C39.8669 55.8289 39.5184 56.0962 39.2198 56.4106C38.854 56.7953 38.5237 57.2119 38.1685 57.6068C37.953 57.8469 37.7117 58.0647 37.4955 58.3039C37.3182 58.5 37.168 58.7177 36.9957 58.9174C36.8567 59.0779 36.7017 59.2253 36.5552 59.3801C36.3972 59.5453 36.2555 59.7292 36.0802 59.8727C35.7949 60.1063 35.4368 60.0874 35.0892 60.0941C34.8087 60.0998 34.5292 60.1193 34.195 60.1354C34.4124 60.3848 34.5761 60.5904 34.7589 60.7771C34.939 60.9602 35.1506 61.113 35.3267 61.2988C35.6619 61.6516 35.9894 62.0127 36.3015 62.3852C36.3837 62.4838 36.4001 62.6358 36.446 62.7634C36.3244 62.7493 36.1932 62.7586 36.0831 62.7165C35.391 62.4519 34.9341 61.8881 34.4133 61.4124C34.1328 61.1562 33.9384 60.8099 33.6991 60.5088C33.4913 60.247 33.4271 60.2554 33.2634 60.5218C33.5507 60.8842 33.8168 61.2452 34.1098 61.5859C34.6517 62.2155 35.1956 62.845 35.7672 63.4492C36.0459 63.7439 36.3762 63.9953 36.7037 64.2393C37.0138 64.4709 37.343 64.6698 37.6993 64.8472C38.5802 65.2844 39.4112 65.8191 40.2604 66.3126C40.5086 66.0566 40.5086 66.0154 40.2166 65.8652C40.0347 65.7705 39.822 65.7253 39.6536 65.6138C39.1106 65.2544 38.564 64.8951 38.0544 64.4926C37.82 64.3068 37.665 64.0224 37.4848 63.7758C37.4514 63.7306 37.4427 63.6088 37.4667 63.5956C37.5241 63.5617 37.6102 63.5563 37.6802 63.5684C37.7454 63.5797 37.8045 63.6255 37.8639 63.6614C38.1743 63.8461 38.4845 64.03 38.7927 64.2187C38.9757 64.3302 39.1556 64.4455 39.3328 64.5647C39.6986 64.8096 40.0624 65.0573 40.427 65.3042C40.451 65.2929 40.4749 65.2816 40.499 65.2703C40.4616 64.974 40.451 64.6717 40.3821 64.3828C40.2549 63.8498 40.3716 63.3939 40.7403 62.9886C41.107 62.5852 41.4785 62.1844 41.8259 61.766C42.1458 61.3813 42.4301 60.9695 42.7413 60.5763C43.0314 60.2094 43.3513 59.8634 43.6309 59.488C44.0223 58.9635 44.3671 58.4053 44.7701 57.8901C45.2059 57.3328 45.674 56.7981 46.1508 56.2727C46.5414 55.8411 46.91 55.3934 47.2796 54.946C47.5554 54.6119 47.8359 54.2808 48.1299 53.9608C48.4409 53.6212 48.7695 53.2956 49.0921 52.9662C49.4311 52.6202 49.7508 52.2496 50.1205 51.938C50.4229 51.6827 50.8049 51.5186 51.1199 51.2746C51.5921 50.9088 52.1645 50.7624 52.7007 50.5512C53.1708 50.3664 53.6917 50.2924 54.1964 50.2069C55.0159 50.0673 55.844 50.0831 56.6751 50.1094C57.4153 50.1328 58.1584 50.269 58.8994 50.0972C59.5953 49.9359 60.3001 49.8111 60.9377 49.4611C61.2508 49.2894 61.607 49.19 61.9085 49.0032C62.2801 48.7733 62.6335 48.5078 62.96 48.2208C63.3103 47.9121 63.632 47.5695 63.947 47.2252C64.3376 46.7975 64.7045 46.3481 65.0911 45.9165C65.2205 45.7719 65.3946 45.6649 65.5211 45.5185C65.68 45.3357 65.7996 45.1199 65.9578 44.935C66.4087 44.4059 66.8759 43.8898 67.3268 43.3608C67.5951 43.0464 67.8324 42.7058 68.1082 42.3981C68.4864 41.9767 68.8962 41.5835 69.2762 41.1643C69.6123 40.7937 69.9273 40.4052 70.251 40.0243C70.543 39.68 70.835 39.3366 71.1233 38.9894C71.443 38.6047 71.76 38.2182 72.0759 37.8307C72.2855 37.5736 72.4867 37.3081 72.7011 37.0548C72.8666 36.8587 73.0649 36.6879 73.2171 36.4834C73.5273 36.0668 73.8089 35.6305 74.1153 35.2111C74.3479 34.8931 74.2456 34.3348 73.9276 34.135C73.7026 34.4971 73.5025 34.8753 73.2477 35.2158C72.9185 35.6577 72.5489 36.0706 72.1918 36.4918C71.7926 36.9628 71.4046 37.446 70.9795 37.8945C70.3744 38.5334 69.7454 39.1499 69.1182 39.7672C68.7057 40.1735 68.2642 40.5516 67.8603 40.9663C67.506 41.3293 67.1852 41.7234 66.854 42.1072C66.4251 42.6035 66.0017 43.1046 65.5719 43.6C65.232 43.9912 64.8902 44.3805 64.5397 44.7624C64.2237 45.1067 63.8972 45.4425 63.5717 45.7775C63.2682 46.0891 62.9618 46.3967 62.6516 46.7026C62.3051 47.0441 61.9699 47.3989 61.5995 47.7132C61.3571 47.9195 61.07 48.0819 60.7864 48.2347C60.4552 48.4132 60.1211 48.6101 59.7619 48.7086C58.7922 48.975 57.7906 49.0521 56.7852 49.1018C56.002 49.1411 55.2171 49.2097 54.4405 49.3204C53.5989 49.4405 52.7765 49.673 52.0037 50.0221C51.5557 50.2238 51.1315 50.4941 50.7342 50.7839C50.3846 51.0392 50.0926 51.3714 49.7663 51.6584C49.4616 51.9267 49.1428 52.1801 48.8335 52.4437C48.7839 52.4869 48.7551 52.5535 48.7159 52.6089C48.6087 52.76 48.5118 52.9204 48.3902 53.0592C47.9526 53.5602 47.4969 54.0452 47.0671 54.5519C46.7071 54.9751 46.3788 55.4236 46.0263 55.8533C45.5907 56.3852 45.1483 56.9125 44.7021 57.4351C44.0598 58.1886 43.4067 58.9335 42.7662 59.6877C42.0596 60.519 41.3635 61.3588 40.657 62.1892C40.5602 62.3027 40.4137 62.375 40.3123 62.4847C40.0719 62.7445 39.8508 63.0205 39.6095 63.2784C39.5329 63.36 39.4199 63.4089 39.3233 63.4736C39.304 63.4614 39.2849 63.4492 39.2657 63.4371C39.2838 63.3535 39.2781 63.2549 39.3233 63.1902C39.5559 62.8516 39.7923 62.5148 40.0451 62.1911C40.2281 61.9556 40.4443 61.7463 40.6331 61.5155C40.9288 61.1534 41.216 60.7837 41.5042 60.415C41.6814 60.1888 41.8403 59.9487 42.0288 59.7329C42.4387 59.2657 42.8647 58.8135 43.2795 58.3499C43.6422 57.9446 44.0062 57.5401 44.3527 57.1209C44.7911 56.5897 45.2116 56.0437 45.6414 55.5052C45.7945 55.3138 45.9507 55.1242 46.1038 54.9327C46.3796 54.5876 46.6544 54.2424 46.9293 53.8961C47.1274 53.6455 47.3199 53.3913 47.5228 53.1445C47.7182 52.9072 47.9192 52.6736 48.125 52.4456C48.3654 52.1792 48.6095 51.9155 48.8586 51.6575C49.2146 51.2887 49.5746 50.922 49.9395 50.5607C50.1615 50.341 50.3932 50.13 50.6259 49.9218C50.8902 49.6854 51.1727 49.4676 51.4235 49.218C51.6151 49.0267 51.7567 48.7883 51.9406 48.5886C52.3407 48.1513 52.7554 47.7271 53.1604 47.2938C53.3357 47.106 53.4916 46.9015 53.6698 46.7176C54.09 46.2814 54.5276 45.8611 54.9403 45.4182C55.2935 45.0392 55.6209 44.6358 55.9637 44.2472C56.3038 43.8627 56.6569 43.4893 56.9921 43.1007C57.3588 42.6747 57.7102 42.2357 58.0722 41.805C58.2359 41.6109 58.4196 41.4316 58.5738 41.2308C58.8534 40.8649 59.1062 40.4793 59.3915 40.1181C59.7026 39.724 60.0398 39.3497 60.3652 38.9659C60.9665 38.2566 61.5669 37.5455 62.1682 36.8362C62.3251 36.6504 62.485 36.4656 62.641 36.2798C62.8805 35.9946 63.1093 35.7 63.3601 35.425C63.79 34.9541 64.2295 34.4915 64.6719 34.0318C65.004 33.6865 65.3191 33.3168 65.7912 33.1433C65.8676 33.1151 65.9673 33.1451 66.0564 33.1489C66.0429 33.2249 66.0535 33.3178 66.0123 33.375C65.8351 33.6227 65.6589 33.8742 65.4531 34.0984C64.9467 34.6491 64.4143 35.1774 63.9107 35.7309C63.0653 36.6588 62.2285 37.5942 61.3983 38.5362C61.0115 38.9753 60.6524 39.4388 60.2733 39.8845C60.1087 40.0778 59.9141 40.2467 59.7524 40.4427C59.4431 40.8172 59.1549 41.2093 58.8438 41.5827C58.2645 42.2778 57.6756 42.9656 57.0887 43.6554C56.9336 43.8382 56.7661 44.0108 56.6157 44.1975C56.2989 44.5878 55.9991 44.9914 55.6746 45.3742C55.3338 45.7767 54.9718 46.1614 54.6187 46.5535C54.4108 46.7851 54.1964 47.0113 53.9972 47.2497C53.6266 47.6924 53.2665 48.1429 52.899 48.5886C52.8148 48.6908 52.716 48.7827 52.6232 48.8793C52.6338 48.8999 52.6442 48.9207 52.6557 48.9414C52.9163 48.8671 53.1775 48.7959 53.436 48.7188C53.5643 48.6804 53.7291 48.6663 53.8084 48.5801C53.9742 48.3999 54.092 48.1776 54.2336 47.9759C54.361 47.7949 54.476 47.6014 54.6262 47.4401C54.9871 47.0526 55.3673 46.6829 55.7368 46.3021C56.0931 45.9352 56.4387 45.558 56.7996 45.1977C57.3377 44.6601 57.8912 44.1367 58.4293 43.5989C58.6409 43.387 58.839 43.1599 59.0286 42.9292C59.5083 42.3456 59.9698 41.7468 60.4609 41.1728C60.6123 40.9963 60.8334 40.8771 61.023 40.7316L61.1121 40.8048C60.9971 40.9785 60.8976 41.1632 60.7653 41.3219C60.326 41.851 59.8798 42.3755 59.4278 42.8933C59.1387 43.2255 58.8314 43.5427 58.5354 43.8692C58.3527 44.0709 58.1688 44.2717 57.9975 44.4819C57.6488 44.9087 57.3196 45.3507 56.9615 45.7699C56.6082 46.1848 56.2251 46.575 55.8633 46.9831C55.689 47.1802 55.5425 47.4017 55.3664 47.5969C55.1116 47.8791 54.8406 48.1485 54.5763 48.4234L54.6051 48.5002C54.8799 48.4581 55.1557 48.3802 55.4304 48.3812C55.7829 48.383 55.9524 48.1654 56.1332 47.9364C56.2185 47.8294 56.3075 47.7243 56.3995 47.6231C56.6139 47.3856 56.8322 47.1503 57.0475 46.9128C57.2467 46.6941 57.4421 46.4718 57.645 46.2552C57.8309 46.0563 58.0232 45.8639 58.212 45.6677C58.3279 45.5476 58.4417 45.4267 58.5585 45.3095C58.6063 45.2615 58.6695 45.2287 58.7127 45.1781C58.9338 44.918 59.1425 44.648 59.3705 44.3946C59.9928 43.7031 60.6255 43.021 61.249 42.3304C61.4759 42.0781 61.6903 41.8145 61.9048 41.5516C62.1576 41.2431 62.3931 40.9194 62.6574 40.62C63.001 40.2307 63.3688 39.862 63.7202 39.4792C63.8972 39.2868 64.058 39.0795 64.2344 38.8862C64.3952 38.7108 64.557 38.5353 64.7369 38.3796C65.0012 38.1506 65.2788 37.9358 65.5584 37.7228C65.6016 37.6899 65.7088 37.6768 65.7385 37.704C65.7855 37.7472 65.816 37.8354 65.8094 37.9001C65.8016 37.9696 65.7538 38.0427 65.7059 38.099C65.3918 38.4725 65.0721 38.8412 64.7552 39.2127C64.4688 39.5477 64.1894 39.8882 63.8983 40.2185C63.521 40.6472 63.1313 41.0649 62.754 41.4937C62.4965 41.7863 62.2639 42.1016 61.9967 42.3868C61.6099 42.7995 61.1905 43.1842 60.8066 43.6C60.4485 43.9893 60.1182 44.4031 59.7772 44.8073C59.604 45.0129 59.4365 45.2231 59.2641 45.4295C59.1339 45.5843 58.998 45.7354 58.8669 45.8891C58.5919 46.212 58.3354 46.5506 58.0425 46.8565C57.5675 47.352 57.0688 47.8248 56.5909 48.2968C56.9108 48.2968 57.2524 48.3005 57.5952 48.294C57.669 48.2929 57.7629 48.2762 57.8107 48.2301C57.9762 48.0706 58.1267 47.896 58.2809 47.7254C58.7998 47.152 59.3177 46.5769 59.8386 46.0038C59.9478 45.8835 60.0646 45.7699 60.1805 45.6566C60.505 45.3394 60.8544 45.0439 61.1504 44.7022C61.7142 44.0522 62.2429 43.3729 62.7963 42.7134C63.3821 42.0152 63.9767 41.3256 64.5731 40.637C64.6996 40.4915 64.8614 40.3752 64.9859 40.2288C65.1237 40.0665 65.2263 39.8742 65.365 39.7128C65.6609 39.3694 65.9778 39.0438 66.2738 38.7004C66.5533 38.3768 66.807 38.0324 67.0895 37.7115C67.6533 37.0707 68.2327 36.4421 68.7994 35.8022C68.9623 35.6193 69.0819 35.3978 69.2534 35.2243C69.7253 34.7439 70.2173 34.2832 70.6932 33.8066C71.0533 33.4463 71.3922 33.0654 71.7571 32.7098C71.9964 32.4762 72.2654 32.2726 72.5392 32.0399C72.2454 31.7697 71.959 31.506 71.6681 31.2386C71.4536 31.4873 71.264 31.7059 71.0754 31.9245C70.7909 32.2538 70.5124 32.5888 70.2202 32.9115C69.8688 33.3 69.4889 33.6649 69.1508 34.0637C68.6999 34.5957 68.3025 35.1727 67.8363 35.6906C67.4331 36.1381 66.9688 36.5331 66.5217 36.9403C66.4603 36.9966 66.3092 37.0323 66.2516 36.9966C66.1922 36.96 66.1818 36.824 66.1807 36.7311C66.1807 36.671 66.2317 36.6063 66.2718 36.5519C66.5629 36.1644 66.8367 35.7628 67.1546 35.3978C67.6208 34.8631 68.1215 34.3583 68.6022 33.8366C68.8723 33.5439 69.1306 33.2427 69.3961 32.9462C69.7953 32.5006 70.1925 32.054 70.5958 31.6121C70.8177 31.3691 71.0495 31.1355 71.2238 30.9525C71.0896 30.7564 70.9471 30.5472 70.812 30.3483C70.3035 30.9197 69.8746 31.4132 69.4313 31.8945C69.1442 32.2069 68.8329 32.4978 68.5391 32.8046C68.3503 33.0025 68.18 33.2164 67.9914 33.4144C67.6801 33.7409 67.3536 34.0543 67.0463 34.3855C66.6643 34.7974 66.2899 35.2168 65.9213 35.6408C65.6609 35.9411 65.4272 36.2629 65.1649 36.5603C64.6267 37.173 64.0753 37.7753 63.5334 38.3842C63.1082 38.8628 62.6937 39.3506 62.2619 39.8235C62.125 39.9736 61.9564 40.1031 61.7843 40.2138C61.7134 40.2589 61.5727 40.2617 61.5007 40.2213C61.4539 40.195 61.4366 40.0374 61.471 39.9699C61.5572 39.7991 61.6684 39.6368 61.79 39.4886C62.417 38.7267 63.0413 37.962 63.6847 37.2133C64.128 36.6982 64.5999 36.2057 65.0614 35.7056C65.4837 35.2487 65.9097 34.7955 66.3331 34.3386C66.5886 34.0627 66.8338 33.7756 67.097 33.5073C67.4772 33.1189 67.8784 32.7492 68.2555 32.358C68.6262 31.9733 68.9747 31.5689 69.3367 31.1758C69.6726 30.8108 70.0126 30.4496 70.3303 30.109C70.0795 29.8651 69.8449 29.6371 69.597 29.395C69.3681 29.7215 69.1433 30.0687 68.8894 30.3952C68.7066 30.6297 68.4844 30.8343 68.2814 31.0548C67.8669 31.5051 67.4562 31.9573 67.0388 32.4049C66.9938 32.4537 66.918 32.5146 66.8653 32.5081C66.7534 32.4931 66.5675 32.4537 66.5542 32.3946C66.5245 32.2623 66.5485 32.0934 66.6145 31.9733C66.6978 31.8203 66.8482 31.704 66.9641 31.568C67.4063 31.0463 67.8315 30.5106 68.2921 30.0049C68.5985 29.669 68.9536 29.3762 69.2886 29.0629C68.9747 28.818 68.6423 28.5581 68.3264 28.3104C68.1408 28.5478 67.9837 28.7692 67.8055 28.9737C67.5213 29.2993 67.214 29.607 66.9315 29.9354C66.6931 30.2122 66.4891 30.5171 66.2498 30.7939C65.7088 31.4197 65.1476 32.0296 64.6106 32.6582C64.175 33.1677 63.7643 33.6959 63.3391 34.2138C63.1054 34.4981 62.8718 34.7833 62.6257 35.0573C62.349 35.366 62.0494 35.6549 61.7765 35.9655C61.5485 36.2244 61.3533 36.5106 61.1282 36.7714C60.9348 36.9957 60.7071 37.1918 60.5174 37.4188C60.0579 37.9686 59.6155 38.5325 59.1578 39.0842C58.9444 39.3412 58.7032 39.5758 58.4905 39.8338C58.1909 40.196 57.9151 40.5768 57.6136 40.9381C57.1596 41.4832 56.6961 42.0199 56.2309 42.5557C55.9876 42.8351 55.7244 43.0989 55.4831 43.3794C54.994 43.948 54.5141 44.524 54.0278 45.0965C53.8698 45.2821 53.7003 45.4586 53.5452 45.6462C53.3126 45.9267 53.0982 46.2222 52.8587 46.4953C52.3859 47.0339 51.8965 47.5573 51.4226 48.0949C51.1142 48.4449 50.8233 48.8109 50.5226 49.1674C50.1941 49.5569 49.8657 49.9453 49.5334 50.3317C49.1114 50.8234 48.688 51.3141 48.2619 51.8019C47.8705 52.2504 47.4683 52.6894 47.0815 53.1417C46.7702 53.5049 46.4849 53.8887 46.1701 54.2469C45.9144 54.5378 45.6146 54.7921 45.3647 55.0867C44.7798 55.7792 44.2206 56.4922 43.6384 57.1865C43.0314 57.9099 42.4139 58.6248 41.7933 59.338C41.6518 59.501 41.4699 59.6326 41.331 59.7976C41.1127 60.0575 40.9297 60.3475 40.7057 60.6017C40.2739 61.0896 39.8211 61.5615 39.3806 62.0418C39.2302 62.2061 39.1002 62.3909 38.9373 62.542C38.7889 62.6798 38.6548 62.875 38.3332 62.8055C38.473 62.5804 38.5793 62.3674 38.7238 62.1827C39.191 61.5867 39.6678 60.9986 40.1474 60.4131C40.5956 59.8662 41.0514 59.3247 41.5042 58.7805C41.8596 58.3536 42.209 57.922 42.5699 57.5009C42.8791 57.1405 43.2 56.7896 43.5179 56.4368C43.6758 56.2614 43.85 56.099 43.9984 55.9162C44.3221 55.5183 44.6236 55.1045 44.9531 54.7115C45.2834 54.3173 45.6394 53.9438 45.9766 53.5555C46.2589 53.2289 46.5243 52.8894 46.8048 52.5629C47.2222 52.0768 47.6511 51.6022 48.0656 51.1141C48.4458 50.6667 48.8096 50.2051 49.1889 49.7557C49.3057 49.6168 49.4685 49.5145 49.5813 49.373C49.862 49.0191 50.1137 48.6439 50.399 48.294C50.7858 47.8183 51.1928 47.3576 51.5912 46.8902C51.9942 46.4165 52.3972 45.9428 52.8004 45.4688C53.1604 45.0457 53.5176 44.6217 53.8822 44.2022C54.1503 43.8935 54.4281 43.5944 54.7 43.2893C54.9997 42.9535 55.3032 42.6204 55.5952 42.2789C56.1726 41.6033 56.7451 40.9231 57.3176 40.2429C57.6747 39.8188 58.0232 39.3882 58.3824 38.9659C58.6187 38.6864 58.8669 38.4162 59.1099 38.1422C59.2728 37.9583 59.4442 37.78 59.5973 37.5877C59.7619 37.3813 59.8971 37.1514 60.0675 36.9506C60.5691 36.3586 61.0842 35.7778 61.5908 35.1896C62.1048 34.5928 62.6153 33.9924 63.1284 33.3947C63.8562 32.5447 64.5866 31.6965 65.3124 30.8455C65.5652 30.5481 65.8036 30.2394 66.0573 29.942C66.2928 29.6652 66.5378 29.396 66.782 29.1257C67.1287 28.7411 67.4772 28.3583 67.8237 27.9745C67.8392 27.9576 67.8448 27.9323 67.8592 27.9013C67.5824 27.6724 67.3077 27.4463 67.0665 27.2464C66.8491 27.4848 66.6462 27.6977 66.4545 27.9192C66.1158 28.3114 65.7855 28.711 65.4494 29.106C65.0989 29.5179 64.7455 29.927 64.3952 30.3379C63.7623 31.0801 63.1266 31.8203 62.4974 32.5653C62.0426 33.1039 61.6032 33.6537 61.1455 34.1885C60.684 34.727 60.2053 35.2524 59.7371 35.7853C59.5581 35.9889 59.3895 36.201 59.2096 36.4046C58.996 36.6457 58.7701 36.8774 58.5605 37.1214C58.3613 37.3541 58.1823 37.6027 57.982 37.8354C57.375 38.5419 56.7575 39.2399 56.1533 39.9492C55.5846 40.6172 55.0312 41.2974 54.4653 41.9683C54.2241 42.2544 53.9684 42.5275 53.7234 42.8108C53.5634 42.9967 53.4198 43.1947 53.257 43.3775C52.694 44.009 52.1167 44.6291 51.5615 45.2671C51.0435 45.8629 50.5494 46.4794 50.039 47.0825C49.7634 47.4082 49.4731 47.7234 49.1936 48.0463C48.9292 48.3511 48.6747 48.6646 48.4075 48.9676C48.1088 49.3063 47.7967 49.6346 47.4989 49.9743C47.2404 50.2698 47 50.5814 46.7397 50.876C46.2886 51.3864 45.8167 51.8779 45.3762 52.3968C44.9156 52.94 44.4954 53.5153 44.0348 54.0585C43.3358 54.883 42.6159 55.69 41.9083 56.5072C41.422 57.0693 40.9441 57.6378 40.4558 58.1988C39.8191 58.9298 39.1748 59.6532 38.5372 60.3831C38.4424 60.491 38.3801 60.628 38.2787 60.7283C37.9587 61.0464 37.6313 61.3559 37.2992 61.661C37.2531 61.7031 37.1594 61.6966 37.0876 61.7126C37.0798 61.6506 37.0482 61.5793 37.0683 61.5277C37.1144 61.4096 37.1709 61.2904 37.2484 61.1909C37.661 60.6636 38.0755 60.1382 38.5007 59.6202C38.9938 59.0208 39.4936 58.4259 39.9992 57.8367C40.386 57.3854 40.7899 56.9472 41.1796 56.4978C41.5578 56.0606 41.9265 55.6149 42.3027 55.1759C42.5413 54.8982 42.793 54.6316 43.0267 54.3492C43.3608 53.9458 43.6787 53.5303 44.0137 53.1278C44.2186 52.8818 44.4475 52.6549 44.6562 52.4118C45.022 51.9869 45.3754 51.5514 45.7429 51.1274C46.1277 50.6827 46.5327 50.2548 46.9129 49.8054C47.4577 49.1617 47.9823 48.5013 48.5262 47.8567C48.8346 47.4918 49.1725 47.1503 49.4818 46.7862C49.8409 46.3639 50.1837 45.9286 50.535 45.4999C50.7982 45.179 51.0654 44.8618 51.3306 44.5418C51.5615 44.2624 51.7855 43.978 52.023 43.7031C52.3398 43.3362 52.6739 42.9834 52.9889 42.6148C53.2809 42.2722 53.5501 41.9112 53.8439 41.5705C54.1082 41.2638 54.4013 40.9813 54.6665 40.6745C55.2753 39.9708 55.8757 39.2587 56.4799 38.5503C56.8953 38.0634 57.31 37.5764 57.7266 37.0904C57.9466 36.8333 58.163 36.5725 58.391 36.322C58.5288 36.1719 58.6992 36.0499 58.8323 35.8961C58.9816 35.7253 59.0946 35.5245 59.2422 35.3519C59.5054 35.0423 59.7888 34.7505 60.0502 34.4399C60.3604 34.0721 60.6466 33.6846 60.9599 33.3197C61.3485 32.8665 61.7621 32.4321 62.1509 31.9789C62.442 31.6393 62.7119 31.2809 62.9915 30.9319C63.7479 29.9899 64.6097 29.1351 65.341 28.1706C65.6982 27.6996 66.1311 27.284 66.5361 26.8365C66.2305 26.5737 65.9117 26.2979 65.6206 26.0465C65.3497 26.4452 65.1055 26.8336 64.8308 27.1995C64.6192 27.481 64.3664 27.7315 64.1367 27.9999C63.8245 28.3639 63.523 28.7354 63.2071 29.0957C63.0307 29.2965 62.7857 29.3612 62.6594 29.2374C62.4735 29.0563 62.5951 28.8537 62.7081 28.7064C63.1926 28.074 63.6732 27.4369 64.2018 26.8421C64.5273 26.4752 64.9371 26.1806 65.3326 25.8344C64.9571 25.582 64.6843 25.3991 64.4048 25.2114C63.9681 25.7443 63.523 26.2575 63.1111 26.7952C62.4957 27.6002 61.9077 28.4239 61.3006 29.2355C60.887 29.7881 60.4696 30.337 60.0407 30.8774C59.6671 31.3484 59.2719 31.8025 58.8908 32.2688C58.4455 32.8149 58.0186 33.3759 57.5588 33.9107C57.1377 34.4024 56.6886 34.8706 56.2424 35.3415C56.1199 35.471 55.9446 35.6333 55.7714 35.487C55.5826 35.3284 55.7503 35.1379 55.8518 34.9897C56.068 34.6754 56.2922 34.3639 56.5324 34.0665C56.9748 33.5195 57.4297 32.9819 57.8816 32.4424C58.1832 32.0821 58.4925 31.7275 58.794 31.3672C59.1148 30.9825 59.4278 30.5932 59.7486 30.2085C59.8789 30.0527 60.0205 29.9063 60.1516 29.7516C60.3998 29.4607 60.6535 29.1726 60.889 28.8715C61.1034 28.5985 61.2902 28.3048 61.5007 28.029C61.8771 27.5354 62.261 27.0466 62.6459 26.5597C62.777 26.3936 62.9275 26.2425 63.0575 26.0765C63.3679 25.6824 63.6712 25.2837 64.0084 24.8464C63.8139 24.7095 63.6052 24.5622 63.3927 24.413C63.3524 24.4468 63.3218 24.4646 63.3028 24.4909C63.0232 24.8736 62.756 25.2658 62.462 25.6383C62.1259 26.0633 61.7563 26.463 61.4194 26.8871C61.0613 27.3375 60.7368 27.8141 60.3748 28.2616C59.9017 28.8452 59.4117 29.4147 58.9185 29.9824C58.7845 30.1362 58.6236 30.2723 58.4541 30.3877C58.3899 30.4318 58.2501 30.4224 58.1774 30.3811C58.1362 30.3576 58.1258 30.2 58.163 30.139C58.4187 29.7196 58.6533 29.2805 58.9635 28.9015C59.4979 28.2494 60.0819 27.6358 60.6457 27.0072C60.731 26.9115 60.8276 26.8252 60.9062 26.7257C61.1695 26.3936 61.4202 26.0511 61.6894 25.7228C62.1212 25.1964 62.5634 24.6785 63.0241 24.1306C62.6871 23.8913 62.3625 23.6615 62.0215 23.4203C61.8933 23.6783 61.8119 23.9214 61.6664 24.1203C61.3015 24.6203 60.908 25.1007 60.5281 25.5895C60.0473 26.2069 59.6529 26.8834 59.1119 27.4604C58.6513 27.9511 58.257 28.5009 57.8289 29.0207C57.2438 29.7318 56.6569 30.4421 56.068 31.1505C55.687 31.6083 55.3013 32.0624 54.9144 32.5147C54.3725 33.147 53.8297 33.7785 53.282 34.4052C52.7315 35.0357 52.1741 35.6596 51.6226 36.2892C51.437 36.5012 51.2444 36.7086 51.0807 36.9366C50.5895 37.6187 50.1289 38.3223 49.6207 38.9913C49.2443 39.4857 48.8087 39.937 48.4046 40.4118C48.3605 40.4643 48.328 40.5516 48.3357 40.6172C48.3778 40.9652 48.4343 41.3107 48.4908 41.6943C48.7245 41.3556 48.9179 41.0553 49.1324 40.7703C49.5354 40.2345 49.9375 39.6968 50.3656 39.1799C50.6604 38.8243 51.0138 38.5147 51.3116 38.1609C51.8581 37.5117 52.3876 36.8474 52.9163 36.1841C53.2244 35.7966 53.4763 35.3556 53.8306 35.016C54.18 34.681 54.4213 34.2776 54.7305 33.9201C54.9929 33.6171 55.2514 33.3112 55.5137 33.0082C55.823 32.6498 56.1372 32.2942 56.4453 31.9348C56.7125 31.6224 56.9691 31.3006 57.2458 30.9956C57.2937 30.9431 57.4306 30.9206 57.4977 30.9497C57.5464 30.9703 57.5857 31.1157 57.56 31.1767C57.4747 31.3794 57.3789 31.5849 57.2478 31.7603C56.8322 32.3167 56.4012 32.8627 55.9723 33.4097C55.6564 33.8132 55.3414 34.2185 55.0139 34.6125C54.7698 34.9053 54.497 35.1755 54.2509 35.4673C53.9321 35.8454 53.6266 36.2338 53.3144 36.6175C52.9592 37.0538 52.5819 37.4751 52.2507 37.9283C51.8601 38.4631 51.3488 38.9087 51.0366 39.5017C51.0251 39.5233 51.0012 39.5392 50.985 39.5589C50.7821 39.8038 50.5723 40.0449 50.3771 40.2954C50.1185 40.6276 49.8839 40.9785 49.6158 41.3031C49.3794 41.5903 49.1085 41.8482 48.8595 42.1259C48.7684 42.2273 48.6383 42.3445 48.6326 42.46C48.6144 42.8399 48.645 43.2218 48.6574 43.6028C49.1094 43.1382 49.4971 42.6693 49.8801 42.1962C50.0352 42.0039 50.1693 41.7948 50.333 41.6098C50.6556 41.2468 51.0023 40.9045 51.3202 40.5375C51.6935 40.1059 52.0469 39.6584 52.4087 39.2174C52.7831 38.7614 53.1518 38.3017 53.5317 37.8513C53.9618 37.3428 54.3984 36.8399 54.8406 36.3417C54.9508 36.2179 55.0972 36.1231 55.2266 36.0152C55.2572 36.1681 55.2724 36.306 55.2102 36.3905C54.9384 36.7592 54.6568 37.1242 54.3543 37.4695C53.7473 38.1638 53.0999 38.8262 52.5179 39.5392C52.0766 40.0806 51.7175 40.6858 51.3067 41.2525C50.8319 41.9092 50.3463 42.5594 49.8522 43.2031C49.6723 43.4376 49.4751 43.6703 49.2454 43.857C48.9264 44.1158 48.6335 44.3655 48.6211 44.8149C48.6144 45.0683 48.5732 45.3197 48.5473 45.573C48.8805 45.2502 49.1486 44.9115 49.4302 44.5833C49.7337 44.2285 50.0476 43.8833 50.356 43.5323C50.6815 43.1617 51.0089 42.7922 51.3306 42.4177C51.9357 41.7132 52.5341 41.0048 53.1394 40.3001C53.4447 39.9445 53.7588 39.5946 54.0661 39.2399C54.363 38.8975 54.6521 38.5494 54.9508 38.2097C55.2946 37.8185 55.6506 37.4376 55.9905 37.0435C56.2951 36.6917 56.5834 36.3258 56.8829 35.9692C57.1348 35.6709 57.3951 35.38 57.647 35.0817C57.9552 34.7167 58.257 34.3461 58.5634 33.9811C58.8658 33.6208 59.1771 33.268 59.4737 32.904C59.8444 32.4499 60.2053 31.9883 60.5682 31.5276C60.6688 31.4 60.7521 31.2593 60.8584 31.1364C61.2058 30.732 61.5572 30.3323 61.9143 29.9364C61.9489 29.8989 62.0676 29.8763 62.0896 29.8989C62.1336 29.9448 62.1671 30.0349 62.1518 30.0931C62.1048 30.2732 62.0656 30.4684 61.9633 30.6185C61.6788 31.0322 61.3897 31.4488 61.0545 31.8222C60.6466 32.2773 60.3863 32.8374 59.9124 33.2493C59.5964 33.5233 59.3713 33.8967 59.1004 34.2204C58.613 34.803 58.1218 35.3819 57.6335 35.9636C57.419 36.2188 57.2219 36.489 56.993 36.7301C56.6771 37.0632 56.3228 37.3606 56.0126 37.6984C55.554 38.1994 55.1182 38.722 54.676 39.2371C54.0269 39.9933 53.3824 40.7523 52.7324 41.5067C52.6165 41.6417 52.4672 41.7496 52.3588 41.8905C51.8036 42.6111 51.2608 43.341 50.7034 44.0616C50.4526 44.3853 50.1759 44.6892 49.9193 45.0092C49.5775 45.4369 49.2463 45.8733 48.9053 46.3021C48.6574 46.6145 48.3769 46.9043 48.1547 47.2328C47.9518 47.533 47.8273 47.8839 47.631 48.1898C47.4854 48.4169 47.2663 48.597 47.1054 48.8165C46.8584 49.1533 46.6584 49.5249 46.394 49.8467C45.8769 50.4752 45.3321 51.0833 44.7911 51.6931C44.5086 52.0112 44.2062 52.3123 43.9209 52.6276C43.7323 52.836 43.5609 53.0583 43.379 53.2732C43.1703 53.5198 42.9682 53.7741 42.7471 54.0096C42.4015 54.3783 42.0308 54.7245 41.693 55.0988C41.3586 55.4694 41.0514 55.8646 40.7306 56.2464C40.6215 56.3767 40.4979 56.497 40.3918 56.6292C40.0814 57.0148 39.7856 57.4116 39.4657 57.7898C39.1777 58.1313 38.8673 58.455 38.562 58.7824C38.2421 59.1259 37.9186 59.4654 37.5941 59.8052C37.4131 59.9947 37.2263 60.1786 37.0453 60.369C36.8645 60.5585 36.693 60.7583 36.5045 60.9404C36.448 60.9947 36.3465 61.0042 36.2661 61.0342C36.2555 60.9272 36.2756 60.8653 36.312 60.8136C36.6394 60.3614 36.9525 59.897 37.3038 59.4637C37.6734 59.0086 38.0861 58.5872 38.4721 58.1454C38.8321 57.7336 39.1824 57.3141 39.5348 56.8956C40.1189 56.2032 40.6922 55.5013 41.2851 54.8175C41.6402 54.4074 42.0346 54.0303 42.3946 53.6241C42.8647 53.0939 43.3205 52.5516 43.7782 52.0112C44.2302 51.4782 44.6591 50.9246 45.1312 50.4096C45.4806 50.0286 45.7908 49.6252 46.0695 49.1956C46.2494 48.9168 46.3834 48.6016 46.6007 48.3558C47.023 47.8774 47.3133 47.3285 47.4796 46.7373C47.6445 46.1518 47.7497 45.5402 47.7909 44.9341C47.8445 44.1328 47.8503 43.3241 47.8004 42.5227C47.7488 41.6849 47.5802 40.8556 47.5151 40.0177C47.477 39.5233 47.4816 39.0119 47.5707 38.5259C47.7114 37.7641 47.9385 37.0219 48.4314 36.3811C48.8566 35.8294 49.2376 35.2449 49.6455 34.681C49.8648 34.378 50.0975 34.0834 50.331 33.7897C50.6117 33.4369 50.8931 33.0851 51.1842 32.7408C51.4638 32.4086 51.7624 32.0924 52.042 31.7594C52.4643 31.2574 52.8808 30.7517 53.2905 30.2404C53.662 29.7759 54.0269 29.3059 54.384 28.8311C54.6043 28.5375 54.7994 28.226 55.015 27.9285C55.2744 27.5701 55.5445 27.2192 55.8097 26.8646C56.1513 26.4058 56.4828 25.9395 56.8359 25.4891C57.1138 25.1364 57.4162 24.8024 57.713 24.4637C58.0768 24.0489 58.4302 23.6239 58.8179 23.2317C59.0966 22.9503 59.4241 22.7148 59.7965 22.4033L59.785 22.4052ZM15.4614 32.0521C15.7084 32.2454 15.9401 32.3936 16.1307 32.5822C16.5836 33.0316 17.023 33.4951 17.4577 33.9614C17.9661 34.5065 18.5483 34.9784 19.003 35.5799C19.4071 36.1156 19.8964 36.5894 20.3454 37.0932C20.9591 37.7819 21.5719 38.4715 22.1799 39.1639C22.5724 39.6105 22.9583 40.0637 23.3442 40.5159C23.7415 40.9813 24.1379 41.4485 24.5314 41.9177C25.081 42.5716 25.6267 43.2274 26.1763 43.8814C26.2749 43.9986 26.3822 44.1076 26.4846 44.222C26.8015 44.5765 27.107 44.9434 27.4373 45.286C27.9639 45.832 28.5192 46.3518 29.041 46.9026C29.4336 47.3172 29.7907 47.7647 30.167 48.1945C30.2034 48.2358 30.2637 48.2827 30.3145 48.2835C30.6936 48.2911 31.0728 48.2872 31.4356 48.2872C31.1819 48.0452 30.9205 47.8107 30.6773 47.561C30.1967 47.0667 29.7189 46.5684 29.2517 46.0628C29.063 45.8583 28.9022 45.6293 28.7299 45.4098C28.6063 45.2513 28.4915 45.0861 28.3612 44.9332C28.1851 44.7259 27.9945 44.5316 27.8165 44.326C27.5981 44.0737 27.4 43.8034 27.1682 43.5633C26.8408 43.2227 26.4703 42.9196 26.1543 42.5688C25.5176 41.8604 24.9067 41.1305 24.2834 40.4099C24.0441 40.1331 23.8028 39.8591 23.5625 39.5833C23.3681 39.3591 23.1747 39.1348 22.9822 38.9087C22.7371 38.6207 22.4834 38.3392 22.2584 38.038C22.2048 37.9658 22.2469 37.8241 22.245 37.7143C22.336 37.7312 22.4317 37.7369 22.5169 37.7697C22.5868 37.796 22.6491 37.8485 22.7065 37.8982C23.2293 38.3477 23.7492 38.7952 24.1628 39.3553C24.4548 39.7503 24.8206 40.0918 25.1509 40.4606C25.5702 40.9288 25.9896 41.3968 26.4023 41.8708C26.8609 42.397 27.3071 42.9337 27.7657 43.4591C28.276 44.0438 28.7959 44.6206 29.311 45.2005C29.334 45.2259 29.358 45.2502 29.3828 45.2747C29.6586 45.5439 29.943 45.8066 30.2091 46.0854C30.4849 46.3733 30.7424 46.6772 31.0105 46.9729C31.2834 47.274 31.5802 47.5565 31.8272 47.8773C32.0446 48.1598 32.259 48.3906 32.6535 48.4008C32.9053 48.4075 33.1552 48.4629 33.4655 48.503C33.2309 48.2189 33.0585 47.987 32.8632 47.776C32.4946 47.3763 32.0972 47.002 31.7411 46.593C31.4289 46.2345 31.1733 45.8292 30.8621 45.4688C30.3336 44.8572 29.7831 44.2652 29.2402 43.6656C29.0937 43.5032 28.9347 43.3512 28.7921 43.1862C28.4551 42.7922 28.12 42.3953 27.7916 41.9945C27.5062 41.6465 27.2286 41.2937 26.9538 40.9381C26.9241 40.8997 26.9384 40.8274 26.9308 40.7514C27.3099 40.8893 27.5292 41.1352 27.7427 41.4064C28.1046 41.866 28.4953 42.3032 28.8735 42.7518C29.2478 43.1955 29.6002 43.6599 29.9985 44.0822C30.4437 44.5531 30.9339 44.9819 31.3973 45.4369C31.946 45.9755 32.4965 46.5131 33.0269 47.0676C33.2969 47.35 33.5631 47.6503 33.7642 47.9805C33.9767 48.3296 34.1682 48.6561 34.6163 48.7442C34.8652 48.7931 35.1074 48.8728 35.4051 48.9524C35.1506 48.6279 34.9476 48.3493 34.7226 48.0895C34.3559 47.6661 33.9681 47.2619 33.6023 46.8387C33.3372 46.5309 33.1026 46.1978 32.8393 45.8891C32.2294 45.1753 31.6032 44.4754 30.9981 43.7585C30.2819 42.9103 29.583 42.0481 28.8716 41.1962C28.4091 40.6415 27.9448 40.0881 27.4698 39.543C26.9567 38.9547 26.4253 38.3805 25.9101 37.7941C25.4132 37.2283 24.9355 36.6476 24.4338 36.0856C24.113 35.7253 23.7635 35.3903 23.4303 35.0404C23.2714 34.8734 23.1163 34.7017 22.966 34.5262C22.6395 34.1462 22.313 33.7653 21.9961 33.3778C21.952 33.3243 21.9635 33.2277 21.9491 33.1517C22.0382 33.1479 22.1521 33.1067 22.2115 33.1451C22.5045 33.3365 22.8118 33.5214 23.0588 33.7616C23.5289 34.2185 23.9598 34.7139 24.4108 35.1896C24.5333 35.3181 24.6836 35.4222 24.7976 35.5573C25.1203 35.9364 25.4266 36.3295 25.7474 36.7104C26.2137 37.2649 26.6914 37.81 27.1539 38.3674C27.7666 39.1039 28.3737 39.8451 28.975 40.5901C29.1607 40.82 29.3091 41.0807 29.4968 41.3087C29.8367 41.7216 30.1957 42.1194 30.5442 42.5266C30.7329 42.747 30.9081 42.9778 31.0996 43.1947C31.4452 43.5848 31.8042 43.9649 32.1489 44.357C32.6324 44.9059 33.0987 45.4688 33.5889 46.0111C33.9145 46.3715 34.2726 46.7046 34.6115 47.0534C34.7609 47.2065 34.8978 47.3715 35.0434 47.5282C35.4167 47.9318 35.8035 48.3231 36.1617 48.7386C36.5495 49.1889 36.8827 49.6891 37.4427 49.9676C37.548 50.0202 37.6486 50.0935 37.7299 50.1769C38.136 50.5916 38.5427 51.0062 38.9353 51.4322C39.3049 51.8347 39.6536 52.2561 40.0203 52.6603C40.248 52.912 40.4933 53.1484 40.7297 53.3894C40.9672 53.1764 40.9634 53.1043 40.766 52.9428C40.6752 52.8679 40.5919 52.7806 40.5172 52.6894C40.1333 52.2222 39.7637 51.7429 39.3691 51.285C38.8033 50.6283 38.2135 49.9902 37.6448 49.3363C37.3546 49.0022 37.0951 48.6429 36.8089 48.3061C36.5944 48.0536 36.3532 47.8229 36.1329 47.5743C35.7135 47.1034 35.3028 46.6258 34.8854 46.1529C34.6221 45.8544 34.3501 45.5646 34.0926 45.2615C33.7737 44.8863 33.4712 44.4968 33.1504 44.1234C32.8622 43.7884 32.5511 43.4732 32.2638 43.1374C31.9565 42.777 31.6721 42.397 31.3667 42.0349C30.5816 41.107 29.7898 40.1857 29.0027 39.2596C28.7097 38.9144 28.4263 38.5616 28.1315 38.2172C27.7619 37.7847 27.3808 37.3625 27.0141 36.9281C26.7364 36.5988 26.4817 36.2507 26.2012 35.9242C25.8594 35.5264 25.4994 35.1436 25.149 34.7523C24.8799 34.4521 24.6061 34.1556 24.3495 33.846C24.0201 33.4491 23.7185 33.0297 23.3815 32.6385C22.9315 32.115 22.4547 31.6149 21.9999 31.096C21.5805 30.6175 21.1736 30.1287 20.7657 29.6408C20.4019 29.2064 20.0429 28.7664 19.6752 28.3217C19.3611 28.5684 19.0327 28.8264 18.7053 29.0835C18.7158 29.1042 18.7196 29.1229 18.7311 29.1332C19.229 29.593 19.7422 30.0377 20.22 30.5181C20.4996 30.7995 20.7188 31.1373 20.9678 31.4479C21.1277 31.6477 21.3019 31.8363 21.4494 32.0437C21.5518 32.1881 21.5537 32.358 21.412 32.4874C21.2703 32.616 21.1363 32.524 21.0137 32.4387C20.9572 32.3992 20.9036 32.3542 20.8567 32.3045C20.5302 31.9564 20.2037 31.6083 19.882 31.2565C19.791 31.157 19.7144 31.0454 19.6302 30.9393C19.3717 30.6166 19.1132 30.2939 18.8547 29.9711C18.6976 29.775 18.5396 29.5789 18.418 29.4279C18.1672 29.6587 17.9307 29.8763 17.6866 30.1015C18.3003 30.7855 18.9131 31.4948 19.5555 32.1759C20.1396 32.7942 20.759 33.3806 21.3565 33.9867C21.5891 34.2232 21.7988 34.4821 22.0286 34.7223C22.5121 35.228 23.0033 35.7262 23.4859 36.2319C23.6151 36.367 23.7176 36.5275 23.8439 36.6654C24.1092 36.9534 24.3926 37.2255 24.6492 37.5201C24.9173 37.8279 25.1662 38.1516 25.4171 38.4724C25.7828 38.9406 26.1524 39.4069 26.4999 39.8882C26.5583 39.9699 26.5153 40.1209 26.5191 40.2401C26.3937 40.2129 26.2319 40.2251 26.1486 40.1519C25.8221 39.8648 25.5042 39.5645 25.2112 39.2437C24.6616 38.6404 24.1293 38.0212 23.5931 37.4047C23.2532 37.0135 22.9258 36.611 22.583 36.2226C22.2642 35.8613 21.929 35.5133 21.6054 35.1558C21.2052 34.7148 20.8155 34.2645 20.4105 33.8282C19.9356 33.3168 19.4463 32.8186 18.9705 32.3092C18.7378 32.0596 18.5272 31.7913 18.2955 31.5398C17.9518 31.1664 17.5985 30.8014 17.1829 30.3633C17.0431 30.5472 16.8938 30.7433 16.7339 30.9534C16.7492 30.9722 16.7837 31.02 16.8239 31.0613C17.1236 31.3653 17.4366 31.6571 17.722 31.9724C18.2064 32.5071 18.6679 33.0616 19.1505 33.5974C19.4473 33.9267 19.7757 34.2297 20.0716 34.56C20.5551 35.1004 21.0271 35.6502 21.4944 36.2029C21.6207 36.352 21.7347 36.519 21.817 36.6945C21.8553 36.7761 21.8026 36.899 21.7912 37.0032C21.6897 36.9853 21.5604 36.9994 21.4905 36.9431C21.1458 36.6635 20.7791 36.3971 20.49 36.0668C19.9241 35.4194 19.4042 34.7336 18.8652 34.0637C18.7752 33.952 18.69 33.8357 18.5904 33.7315C18.3089 33.4379 18.0102 33.1601 17.7402 32.8571C17.2758 32.3354 16.8287 31.7988 16.348 31.2386C16.0522 31.5107 15.7659 31.7753 15.4624 32.0559L15.4614 32.0521ZM21.4714 26.8449C21.6648 27.0504 21.8534 27.2333 22.021 27.4322C22.4528 27.9445 22.8683 28.469 23.303 28.9775C23.7415 29.4907 24.203 29.9852 24.6415 30.4975C24.9297 30.8333 25.1853 31.1955 25.4755 31.5295C25.7426 31.8363 26.0461 32.1122 26.3161 32.4171C26.5832 32.7182 26.8293 33.0363 27.0821 33.3497C27.3741 33.71 27.6575 34.0768 27.9572 34.4315C28.1745 34.6895 28.4158 34.9287 28.6379 35.183C28.9261 35.5133 29.2076 35.8491 29.491 36.1841C29.7859 36.5331 30.0751 36.8887 30.3757 37.234C31.0144 37.9667 31.6606 38.6948 32.3012 39.4257C32.7579 39.9464 33.2146 40.4681 33.6656 40.9935C33.9672 41.3454 34.2563 41.7075 34.556 42.0612C34.6824 42.2114 34.8289 42.3456 34.9523 42.4965C35.3775 43.0145 35.7882 43.5427 36.22 44.055C36.5359 44.4302 36.8778 44.7839 37.2044 45.1508C37.3058 45.2643 37.3929 45.3911 37.4906 45.5072C37.7538 45.8225 38.0192 46.1351 38.2824 46.4493C38.584 46.8088 38.8788 47.1726 39.1852 47.5265C39.6095 48.0152 40.048 48.492 40.4693 48.9826C40.7977 49.3645 41.1098 49.7594 41.4287 50.1489C41.4927 50.2266 41.5512 50.3082 41.6183 50.3834C41.8576 50.6517 42.0931 50.9237 42.345 51.1808C42.3842 51.2212 42.52 51.2127 42.5794 51.1762C42.6159 51.1536 42.6226 51.0167 42.5891 50.965C42.5116 50.8449 42.3986 50.7483 42.3056 50.6367C42.0481 50.33 41.7887 50.0241 41.5405 49.7097C41.1863 49.2612 40.8389 48.8081 40.497 48.3502C40.3696 48.1804 40.2414 48.0039 40.1572 47.8127C39.9886 47.4308 39.8277 47.0526 39.5127 46.7543C39.3222 46.5732 39.148 46.3733 38.9852 46.167C38.6673 45.7626 38.3706 45.3422 38.0516 44.9389C37.5393 44.2895 37.0196 43.6469 36.4987 43.0041C36.1252 42.5425 35.747 42.0846 35.3688 41.6278C34.9629 41.137 34.555 40.6483 34.1471 40.1594C33.836 39.785 33.5248 39.4116 33.2117 39.0382C33.0643 38.8628 32.9206 38.6826 32.7617 38.5175C32.4151 38.1563 32.0513 37.8091 31.7095 37.4432C31.3322 37.0388 30.9741 36.6175 30.6036 36.2076C30.4322 36.0171 30.2436 35.8416 30.0789 35.6465C29.6662 35.1558 29.2612 34.6585 28.8553 34.1631C28.7442 34.0271 28.6418 33.8845 28.5269 33.7513C28.2722 33.4585 28.0022 33.177 27.7561 32.8768C27.6001 32.6863 27.4861 32.4621 27.3348 32.2669C26.9949 31.8307 26.6244 31.416 26.3017 30.9675C26.1217 30.7161 26.0059 30.4186 25.8776 30.1343C25.8498 30.0724 25.891 29.9795 25.8996 29.9007C25.9753 29.9167 26.0777 29.9082 26.1227 29.9533C26.4224 30.2535 26.7307 30.5481 26.9949 30.8765C27.3885 31.3644 27.7332 31.8917 28.1267 32.3795C28.84 33.2634 29.5724 34.1322 30.302 35.0028C30.7702 35.5602 31.2508 36.1081 31.7229 36.6626C31.8885 36.8568 32.0408 37.0632 32.2083 37.2555C32.5511 37.6477 32.9053 38.0315 33.2462 38.4255C33.52 38.7408 33.7718 39.0738 34.0495 39.3853C34.6728 40.0853 35.3218 40.7646 35.9329 41.4748C36.582 42.2292 37.192 43.0173 37.8342 43.7782C38.3438 44.3824 38.8751 44.9677 39.3979 45.5609C39.4055 45.5702 39.4285 45.5665 39.4764 45.5722C39.4409 45.2962 39.4103 45.0279 39.37 44.7615C39.349 44.6234 39.3518 44.4576 39.2734 44.3579C39.1221 44.1666 38.92 44.0136 38.7401 43.8438C38.5897 43.7023 38.4193 43.5766 38.2957 43.415C37.8726 42.8586 37.4667 42.2891 37.0539 41.7253C36.4287 40.8725 35.8046 40.0187 35.1745 39.1686C34.9762 38.9012 34.7715 38.6366 34.5503 38.3871C34.0418 37.8138 33.5114 37.2584 33.0116 36.6776C32.867 36.5106 32.7962 36.2826 32.6918 36.0828C32.7225 36.0602 32.7541 36.0377 32.7847 36.0162C32.8383 36.0565 32.8977 36.0903 32.9436 36.1372C33.205 36.4065 33.475 36.6692 33.7192 36.9534C34.1577 37.4657 34.5799 37.9911 35.0099 38.5109C35.3305 38.8984 35.6455 39.2915 35.9759 39.6715C36.3272 40.0749 36.7017 40.4587 37.0493 40.8658C37.437 41.3209 37.8019 41.7937 38.1829 42.2544C38.2968 42.3925 38.4413 42.506 38.5505 42.6467C38.7984 42.9656 39.0339 43.295 39.2743 43.6195C39.2982 43.613 39.3222 43.6065 39.3461 43.6009C39.3634 43.371 39.3939 43.141 39.3939 42.9111C39.3939 42.7312 39.417 42.5143 39.3279 42.3773C39.1394 42.0894 38.8808 41.8454 38.6557 41.579C38.3839 41.2581 38.1043 40.9437 37.8515 40.6088C37.6266 40.3104 37.4514 39.9764 37.2225 39.6818C36.9775 39.3657 36.6853 39.0842 36.4298 38.7736C35.9845 38.2322 35.5547 37.6796 35.1151 37.1355C34.5004 36.3736 33.8858 35.6108 33.2644 34.8537C32.9235 34.439 32.5654 34.0374 32.2236 33.6236C31.7908 33.1001 31.3523 32.5794 30.9435 32.0371C30.7453 31.7734 30.6026 31.4685 30.4542 31.173C30.4255 31.1157 30.4676 30.9675 30.5155 30.9459C30.5816 30.9168 30.7214 30.9384 30.7673 30.9909C31.2863 31.5792 31.7956 32.1759 32.3021 32.7736C32.5003 33.0072 32.6784 33.2568 32.8766 33.4904C33.3266 34.0177 33.7958 34.529 34.2333 35.0657C34.7531 35.7037 35.2377 36.368 35.7556 37.0079C36.1837 37.5361 36.6356 38.0446 37.0779 38.5625C37.2148 38.7229 37.3508 38.8834 37.4906 39.041C37.7425 39.3272 38.0163 39.5974 38.2461 39.8995C38.6779 40.4681 39.0858 41.0545 39.5196 41.6567C39.5712 41.351 39.6199 41.0469 39.6726 40.7449C39.7032 40.5732 39.6582 40.4465 39.5213 40.317C39.3175 40.1256 39.1411 39.9042 38.9708 39.6828C38.718 39.3535 38.4874 39.0082 38.2337 38.6798C38.0143 38.3964 37.7339 38.1516 37.5557 37.8476C37.0942 37.0613 36.4679 36.4027 35.8946 35.7037C35.5432 35.2749 35.1497 34.8799 34.7877 34.4596C34.5378 34.1706 34.3185 33.8563 34.0686 33.5664C33.7852 33.238 33.4789 32.9303 33.1935 32.6038C33.0604 32.4518 32.9637 32.2698 32.8326 32.1159C32.6708 31.9282 32.4783 31.765 32.3203 31.5755C31.9268 31.1045 31.5476 30.6213 31.157 30.1484C31.0105 29.9711 30.8382 29.8135 30.6907 29.6371C30.1431 28.9822 29.604 28.3198 29.0554 27.6658C28.9156 27.4988 28.7251 27.3703 28.5968 27.1967C28.2808 26.7689 27.9945 26.3195 27.6814 25.8888C27.4679 25.5942 27.2123 25.3287 27.0055 25.0303C26.6464 24.5143 26.3104 23.9833 25.9523 23.44C25.6411 23.6643 25.3184 23.896 25.0015 24.1249C25.3931 24.6044 25.7512 25.05 26.117 25.4891C26.4167 25.8485 26.7288 26.1994 27.0323 26.5559C27.3837 26.9697 27.7293 27.3881 28.0845 27.7981C28.2961 28.043 28.5278 28.271 28.7385 28.5159C28.9281 28.7354 29.1176 28.9568 29.2794 29.1961C29.4939 29.5123 29.6854 29.8444 29.874 30.1766C29.9018 30.2263 29.8836 30.3464 29.8424 30.3773C29.7869 30.4186 29.6825 30.4271 29.6107 30.4074C29.5322 30.3867 29.4537 30.3286 29.3982 30.2676C29.0018 29.8322 28.5997 29.4016 28.2224 28.9512C27.7858 28.4286 27.3712 27.8891 26.9499 27.3534C26.8035 27.1667 26.6761 26.9659 26.5248 26.783C26.2769 26.4837 26.0088 26.2013 25.7627 25.901C25.4822 25.5576 25.216 25.202 24.946 24.8502C24.8368 24.7076 24.7344 24.5594 24.6233 24.4055C24.3993 24.5678 24.1953 24.7151 24.0048 24.854C24.3256 25.2565 24.6051 25.6102 24.8876 25.9611C25.0255 26.1318 25.1787 26.2923 25.3089 26.4687C25.5099 26.7426 25.6842 27.0372 25.8929 27.3046C26.4205 27.9801 26.9586 28.6482 27.4995 29.3134C27.7456 29.6164 28.0079 29.9054 28.2636 30.201C28.4359 30.3999 28.614 30.5941 28.7806 30.7977C28.996 31.0604 29.1952 31.3362 29.4145 31.5961C29.807 32.0633 30.2111 32.5221 30.6065 32.9875C30.9492 33.39 31.3016 33.786 31.6233 34.2044C31.8617 34.514 32.0666 34.8499 32.2648 35.1858C32.3088 35.2609 32.2629 35.3866 32.2581 35.4889C32.1441 35.4785 32.0245 35.486 31.9191 35.4523C31.8435 35.4279 31.7794 35.3528 31.7219 35.2899C31.3973 34.9409 31.0689 34.5957 30.7558 34.2363C30.3652 33.7888 29.988 33.33 29.6078 32.8731C29.4116 32.6366 29.222 32.3946 29.0296 32.1553C28.6628 31.7012 28.2923 31.2499 27.9285 30.793C27.7475 30.5659 27.5828 30.3267 27.4038 30.0968C27.106 29.7149 26.7939 29.3444 26.5038 28.9568C26.1735 28.514 25.869 28.0515 25.5377 27.6086C25.193 27.1489 24.833 26.7004 24.473 26.2519C24.1896 25.9001 23.8957 25.5576 23.6065 25.2114C23.325 25.4 23.0579 25.5792 22.7888 25.7593C22.7984 25.7866 22.8003 25.8147 22.8156 25.8316C23.2628 26.3214 23.7205 26.8027 24.157 27.3018C24.5362 27.7353 24.8972 28.1847 25.2572 28.6341C25.4611 28.8884 25.4946 29.1304 25.3663 29.2327C25.2102 29.3556 24.9881 29.2871 24.7593 29.0441C24.7478 29.0319 24.7344 29.0207 24.7229 29.0075C24.2011 28.393 23.6659 27.7888 23.1613 27.1601C22.8808 26.8102 22.6529 26.4208 22.3934 26.0389C22.0956 26.2988 21.7768 26.5766 21.4723 26.8421L21.4714 26.8449ZM41.3108 52.7092C41.5618 52.3781 41.7752 52.1059 41.9726 51.8236C42.002 51.7813 41.9859 51.6697 41.9475 51.6256C41.7541 51.3985 41.5416 51.1875 41.3462 50.9622C41.062 50.6319 40.7928 50.2896 40.5057 49.9622C40.248 49.6665 39.9684 49.3897 39.7119 49.0942C39.3844 48.7188 39.0742 48.3296 38.7488 47.9533C38.2135 47.3342 37.6676 46.7243 37.1335 46.1041C36.8844 45.8151 36.6613 45.5044 36.4114 45.2165C36.0534 44.8047 35.6723 44.4115 35.3172 43.9977C34.9007 43.5136 34.5091 43.0097 34.0916 42.5266C33.6981 42.0696 33.2768 41.6352 32.8824 41.1793C32.3021 40.5084 31.7315 39.8291 31.1618 39.1489C30.6792 38.5728 30.2101 37.9864 29.7247 37.4122C29.3417 36.96 28.9424 36.5218 28.5518 36.0771C27.9313 35.3716 27.308 34.6688 26.6943 33.9577C26.1667 33.3469 25.6526 32.7248 25.1298 32.1093C24.5056 31.3728 23.8823 30.6363 23.2523 29.9054C23.0981 29.7262 22.9066 29.5789 22.7563 29.3969C22.5294 29.1229 22.3379 28.8208 22.1062 28.5506C21.7328 28.1143 21.3402 27.694 20.9409 27.2502C20.6978 27.4529 20.4239 27.6809 20.1721 27.891C20.3617 28.1237 20.5369 28.3479 20.7226 28.5637C21.0759 28.9766 21.436 29.3847 21.7912 29.7966C22.1186 30.1756 22.4432 30.5575 22.7697 30.9375C23.4035 31.6759 24.0402 32.4124 24.6702 33.1545C24.9824 33.5223 25.2763 33.9051 25.5904 34.272C26.0164 34.7702 26.4569 35.2562 26.8848 35.7525C27.1855 36.1015 27.4746 36.4609 27.7724 36.8118C28.1123 37.2124 28.456 37.6102 28.7969 38.0099C29.0238 38.2754 29.2459 38.5456 29.4757 38.8083C29.7333 39.1039 30.0014 39.39 30.257 39.6875C30.6132 40.1022 30.9588 40.5253 31.315 40.9409C31.8358 41.5488 32.3634 42.1513 32.8852 42.7583C33.1907 43.1139 33.4884 43.4769 33.7929 43.8345C34.1251 44.2237 34.4669 44.6056 34.7954 44.9968C35.0797 45.3357 35.342 45.6922 35.6302 46.0272C36.1194 46.5958 36.6261 47.1503 37.1162 47.7178C37.4399 48.0923 37.7463 48.4807 38.0642 48.8606C38.2948 49.1363 38.5332 49.4058 38.7621 49.6834C39.0437 50.0249 39.3126 50.3758 39.5971 50.7155C39.888 51.0627 40.1915 51.3994 40.4864 51.7429C40.7527 52.0525 41.0159 52.364 41.3108 52.7103V52.7092ZM47.7958 56.0306C48.217 56.5456 48.6162 57.0467 49.0298 57.5365C49.4311 58.0102 49.8562 58.4652 50.2546 58.9409C50.6518 59.4148 51.0337 59.8998 51.4139 60.3868C51.5595 60.5735 51.68 60.778 51.8132 60.9741C51.7846 60.9995 51.7558 61.0249 51.7261 61.0511C51.6275 60.9949 51.5107 60.9563 51.435 60.8785C51.0865 60.521 50.7513 60.1504 50.4085 59.7882C50.1854 59.5527 49.9539 59.3267 49.7326 59.0903C49.5977 58.9465 49.474 58.7928 49.3458 58.6437C49.2751 58.561 49.2071 58.4765 49.1362 58.3949C48.8681 58.0901 48.5934 57.7898 48.3308 57.4802C48.0399 57.1368 47.7603 56.784 47.4701 56.4284C47.4118 56.4744 47.3686 56.5176 47.3179 56.5467C47.1216 56.6611 47.1054 56.7718 47.2692 56.9472C47.5352 57.2325 47.7765 57.5401 48.0198 57.8441C48.1605 58.0197 48.2726 58.2166 48.419 58.3864C48.8796 58.9194 49.3544 59.4402 49.815 59.9741C49.9902 60.1775 50.1416 60.4029 50.3013 60.6187C50.5149 60.9065 50.7331 61.1927 50.9334 61.4892C50.9677 61.5398 50.9247 61.6393 50.9179 61.7163C50.8423 61.6901 50.757 61.676 50.693 61.6327C50.623 61.5867 50.5762 61.5107 50.514 61.4526C50.2468 61.2022 49.9597 60.9695 49.7144 60.7012C49.3841 60.3408 49.0912 59.9478 48.7724 59.5772C48.3654 59.1042 47.9498 58.6389 47.5372 58.1706C47.2568 57.8536 46.9752 57.5384 46.6898 57.2175C46.4217 57.4924 46.1557 57.7644 45.8905 58.0364C46.0732 58.259 46.2485 58.4804 46.4333 58.6943C46.7388 59.0488 47.0622 59.3894 47.3562 59.7535C47.6808 60.1541 47.9307 60.6252 48.3031 60.9723C48.824 61.4573 49.1371 62.0804 49.587 62.6075C49.6282 62.6555 49.6245 62.7408 49.6435 62.8196C49.361 62.8657 49.2175 62.6939 49.0826 62.5533C48.622 62.0672 48.1988 61.5446 47.72 61.0783C47.2193 60.5904 46.8708 59.9823 46.3471 59.5123C46.0905 59.2826 45.9173 58.9654 45.6913 58.7008C45.6242 58.6228 45.5524 58.4324 45.3924 58.5901C45.2728 58.7084 45.0889 58.8237 45.2949 59.0273C45.5437 59.2741 45.7928 59.5227 46.0205 59.7882C46.3174 60.1334 46.5979 60.4919 46.8775 60.8503C47.4243 61.5511 47.9662 62.2558 48.5101 62.9595C48.5732 63.0411 48.647 63.1171 48.69 63.208C48.7234 63.2784 48.7159 63.3685 48.7358 63.5224C48.5761 63.4126 48.4735 63.362 48.398 63.286C48.0437 62.9275 47.6857 62.5711 47.3505 62.1957C46.9885 61.7904 46.6515 61.3644 46.303 60.9489C46.1661 60.7856 46.0291 60.6213 45.8894 60.46C45.5437 60.0631 45.1972 59.6682 44.8142 59.2318C44.6945 59.4222 44.6112 59.5555 44.5164 59.7066C44.753 59.9778 44.9923 60.2348 45.2125 60.506C45.5276 60.8953 45.8224 61.2997 46.1364 61.6892C46.3404 61.9406 46.5682 62.1731 46.778 62.4208C46.9158 62.5832 47.0374 62.7586 47.1686 62.9267C47.2931 63.086 47.4375 63.2334 47.543 63.4041C47.7373 63.7176 47.6742 64.0563 47.6148 64.3958C47.5629 64.6867 47.5439 64.9833 47.5047 65.3257C47.8071 65.1418 48.0437 65.0057 48.2715 64.8565C48.4793 64.7206 48.6698 64.5582 48.8796 64.426C49.2933 64.165 49.7098 63.9088 50.1358 63.6696C50.2497 63.606 50.401 63.6069 50.5359 63.5786C50.4967 63.7091 50.4852 63.8574 50.4125 63.967C50.0171 64.5658 49.3907 64.9203 48.8249 65.3285C48.5167 65.5508 48.1374 65.6785 47.7958 65.8586C47.4932 66.018 47.4912 66.081 47.7535 66.3044C47.8454 66.2442 47.9356 66.1804 48.0313 66.1259C48.7168 65.7358 49.4129 65.3624 50.0868 64.9531C50.3924 64.7684 50.7705 64.7308 51.0271 64.4447C51.2176 64.2317 51.4551 64.0554 51.6878 63.8837C52.1216 63.5645 52.5724 63.2671 52.8166 62.7652C52.8338 62.7287 52.8788 62.7061 52.9065 62.6742C53.5262 61.964 54.1456 61.2528 54.764 60.5435C54.5478 60.2498 54.5123 60.247 54.295 60.521C54.0612 60.8156 53.8488 61.1271 53.5997 61.4085C53.4026 61.6319 53.1593 61.8158 52.9448 62.0251C52.6165 62.3459 52.2383 62.5926 51.8094 62.7615C51.7385 62.7897 51.6466 62.768 51.5644 62.7691C51.5719 62.6798 51.5681 62.588 51.5929 62.5035C51.6082 62.4519 51.6687 62.4134 51.7088 62.3694C51.9328 62.1217 52.1521 61.8703 52.3819 61.6271C52.5629 61.4358 52.7592 61.2593 52.942 61.0709C53.2227 60.7808 53.4983 60.4873 53.7761 60.1944L53.7444 60.0941C53.4628 60.0941 53.1815 60.0941 52.899 60.0941C52.4577 60.095 52.0316 60.0585 51.7146 59.6962C51.458 59.4027 51.1842 59.123 50.9314 58.8265C50.7103 58.5675 50.5206 58.2813 50.2927 58.0291C50.0295 57.7381 49.7279 57.4811 49.4636 57.1913C49.0059 56.6893 48.6257 56.1151 48.0149 55.7482C47.948 55.8335 47.8751 55.9256 47.7938 56.0287L47.7958 56.0306ZM14.054 34.149C13.7399 34.3789 13.6576 34.9062 13.9142 35.2402C14.4523 35.9401 14.976 36.6513 15.5208 37.3466C16.0177 37.9808 16.5261 38.6076 17.0451 39.2249C17.587 39.8695 18.1452 40.5019 18.7034 41.1333C18.8556 41.305 19.0509 41.4411 19.2003 41.6146C19.5201 41.9832 19.8178 42.3708 20.1348 42.7424C20.4086 43.0633 20.7025 43.3681 20.9764 43.689C21.1353 43.8757 21.2636 44.0878 21.4226 44.2754C21.6475 44.5409 21.885 44.7962 22.1205 45.0533C22.3293 45.2812 22.5456 45.5016 22.7505 45.7315C22.8702 45.8648 22.9755 46.0103 23.0856 46.1518C23.1479 46.2326 23.1967 46.3246 23.2676 46.3967C23.8239 46.9636 24.383 47.5274 24.9441 48.0884C25.0427 48.1869 25.1557 48.2733 25.2667 48.3587C25.5817 48.5999 25.8824 48.8654 26.2223 49.0671C26.565 49.2705 26.9461 49.4151 27.3138 49.5764C27.5646 49.6862 27.8145 49.8252 28.0797 49.8738C28.8409 50.0156 29.5839 50.2848 30.3882 50.1535C30.775 50.0907 31.179 50.1337 31.5745 50.1131C32.8575 50.0475 34.1223 50.132 35.346 50.5512C35.5057 50.6057 35.6427 50.7314 35.8035 50.7755C36.5772 50.9847 37.2234 51.4211 37.8353 51.8948C38.4796 52.394 39.01 53.0114 39.5377 53.6277C39.7128 53.8323 39.9341 54.0003 40.135 54.185C40.3696 54.019 40.4233 53.8876 40.2442 53.7272C39.6793 53.2224 39.3011 52.5563 38.7093 52.075C38.3398 51.7748 38.0152 51.4228 37.6621 51.102C37.4341 50.8946 37.2159 50.663 36.9516 50.511C36.5523 50.282 36.1194 50.1085 35.6974 49.919C34.7571 49.4948 33.746 49.3259 32.7349 49.1956C32.035 49.1046 31.3188 49.1383 30.6151 49.0688C29.919 48.9996 29.2277 48.8849 28.5384 48.764C27.7781 48.6298 27.1232 48.2536 26.5172 47.807C26.2156 47.5847 25.9628 47.3003 25.6928 47.0385C25.3194 46.6763 24.947 46.3142 24.5822 45.9445C24.1638 45.5196 23.7482 45.0917 23.3422 44.6553C23.0828 44.3768 22.8405 44.0813 22.5926 43.7913C22.3226 43.4752 22.0564 43.156 21.7854 42.8408C21.4637 42.4685 21.1382 42.0987 20.8146 41.7281C20.5905 41.4711 20.377 41.2045 20.1396 40.9607C19.8073 40.6192 19.4559 40.2954 19.116 39.9605C18.8125 39.6612 18.5128 39.3581 18.2112 39.056C17.9211 38.7661 17.6253 38.4809 17.3428 38.1835C17.0508 37.8767 16.776 37.5539 16.4878 37.2433C16.1297 36.8568 15.7554 36.4853 15.4097 36.0893C15.2201 35.8716 15.0756 35.6164 14.9109 35.3782C14.6294 34.9738 14.3469 34.5694 14.0549 34.15L14.054 34.149ZM43.287 50.2848C43.1397 50.0588 43.0267 49.8693 42.8973 49.691C42.6177 49.3081 42.2885 48.9535 42.0539 48.5462C41.806 48.1166 41.623 47.6466 41.4506 47.1794C41.2993 46.7701 41.175 46.3481 41.0888 45.9221C41.0113 45.5363 40.945 45.133 40.9747 44.7454C41.0389 43.8983 41.1433 43.052 41.2793 42.2131C41.3615 41.701 41.5656 41.2073 41.6526 40.696C41.7207 40.3011 41.7111 39.8901 41.7025 39.4867C41.6881 38.8271 41.6469 38.1694 41.3981 37.5426C41.3177 37.3409 41.2773 37.1251 41.2027 36.9215C41.0724 36.5678 40.9528 36.2076 40.7824 35.8726C40.6368 35.5874 40.4414 35.3219 40.2414 35.0676C39.7369 34.4258 39.2178 33.7944 38.7047 33.1592C38.3121 32.6723 37.9262 32.1806 37.5232 31.7012C37.2952 31.4301 37.03 31.1899 36.8011 30.9197C36.4794 30.5406 36.1828 30.1419 35.864 29.7609C35.5565 29.3941 35.2253 29.0469 34.9208 28.6782C34.4612 28.1237 34.0303 27.5457 33.5621 26.9997C32.6736 25.9648 31.7679 24.945 30.8679 23.9195C30.7396 23.7731 30.6122 23.6258 30.4753 23.4879C30.1814 23.1933 29.8558 22.9249 29.5897 22.6087C29.2498 22.2062 28.6284 22.1218 28.298 22.4492C28.5489 22.6754 28.8026 22.8987 29.0506 23.1295C29.3618 23.4185 29.6787 23.7037 29.9736 24.0086C30.144 24.185 30.2704 24.4027 30.4274 24.5922C30.73 24.959 31.0546 25.309 31.3447 25.6843C31.72 26.1712 32.0666 26.6779 32.4314 27.1723C32.6641 27.4876 32.9159 27.7888 33.1447 28.1068C33.4827 28.5759 33.7958 29.0629 34.1414 29.5264C34.4286 29.912 34.7427 30.2798 35.0549 30.6476C35.6571 31.3578 36.2719 32.0568 36.8692 32.7708C37.3107 33.299 37.7396 33.8376 38.1599 34.3827C38.4978 34.8199 38.8186 35.2703 39.1383 35.7197C39.3758 36.0527 39.6372 36.3755 39.82 36.7367C40.024 37.1392 40.1465 37.5811 40.3151 38.0014C40.5697 38.6366 40.5507 39.3037 40.5132 39.9586C40.4682 40.7542 40.3267 41.5434 40.2471 42.3371C40.2022 42.7911 40.1782 43.2489 40.1829 43.704C40.1897 44.3054 40.1869 44.9126 40.2748 45.5055C40.3544 46.0459 40.5582 46.5667 40.6913 47.1006C40.8034 47.55 41.0819 47.9028 41.3471 48.2657C41.4382 48.3895 41.531 48.5115 41.6143 48.64C41.9752 49.1956 42.2577 49.8044 42.7699 50.2577C42.8676 50.3449 42.9472 50.4518 43.0506 50.5672C43.1492 50.45 43.2239 50.3608 43.289 50.2831L43.287 50.2848ZM39.7655 39.7822C39.7808 39.6743 39.8009 39.619 39.7943 39.5655C39.7444 39.1301 39.7139 38.691 39.6306 38.2613C39.5634 37.917 39.4639 37.5708 39.3155 37.2527C39.1518 36.9009 38.9229 36.5781 38.7122 36.2488C38.4404 35.8247 38.1829 35.3894 37.8765 34.9888C37.5116 34.5122 37.1018 34.0684 36.7121 33.6096C36.1846 32.9885 35.6628 32.3617 35.1275 31.7462C34.6364 31.1823 34.1299 30.6316 33.6301 30.0752C33.6129 30.0565 33.6052 30.0302 33.5899 30.0096C33.1849 29.4438 32.7876 28.8724 32.372 28.3151C31.7593 27.4932 31.1369 26.6769 30.5098 25.8644C30.1459 25.3934 29.7773 24.9243 29.3876 24.473C29.0094 24.0349 28.6044 23.6192 28.209 23.1951C28.0884 23.0657 27.9294 22.9578 27.8471 22.8086C27.7274 22.5947 27.5934 22.5909 27.4019 22.6848C27.0811 22.8414 26.7537 22.9869 26.4367 23.1501C26.4032 23.167 26.386 23.2984 26.4147 23.3321C26.5019 23.4353 26.634 23.5038 26.7163 23.6099C27.0687 24.0649 27.4134 24.5256 27.7542 24.99C28.0941 25.4535 28.4225 25.9245 28.7615 26.3889C28.9309 26.6216 29.108 26.8487 29.2909 27.071C29.3771 27.1752 29.4949 27.2549 29.583 27.3581C29.8769 27.6996 30.1603 28.0496 30.4542 28.3911C31.0718 29.1107 31.6942 29.8257 32.3117 30.5443C32.5606 30.8343 32.801 31.1317 33.0518 31.4197C33.1782 31.5652 33.3295 31.6909 33.4511 31.8391C33.7431 32.1947 34.0198 32.5616 34.3099 32.9181C34.6163 33.2943 34.9361 33.6602 35.2434 34.0355C35.5383 34.3958 35.8274 34.7617 36.1148 35.1276C36.4987 35.6164 36.8769 36.11 37.2589 36.5997C37.526 36.9431 37.7884 37.2912 38.0671 37.6252C38.3657 37.9827 38.6961 38.3158 38.9852 38.6807C39.2533 39.0185 39.4859 39.3844 39.7646 39.7813L39.7655 39.7822ZM48.1797 39.71C48.2046 39.7147 48.2294 39.7184 48.2544 39.7231C48.5655 39.3234 48.8727 38.92 49.1889 38.5241C49.5392 38.0849 49.9012 37.6534 50.2546 37.2161C50.6567 36.7189 51.0606 36.2226 51.456 35.7197C51.865 35.2008 52.2574 34.6698 52.671 34.1547C53.0492 33.6828 53.4486 33.2268 53.8344 32.7605C54.2967 32.2013 54.7478 31.6327 55.2171 31.0792C55.7694 30.428 56.3323 29.7863 56.8973 29.1445C57.3435 28.6379 57.8059 28.1443 58.2454 27.633C58.5873 27.2342 58.907 26.8177 59.2324 26.4058C59.495 26.0727 59.7582 25.7387 60.0072 25.3963C60.2733 25.0294 60.5079 24.641 60.7835 24.2816C61.0374 23.9523 61.3303 23.6521 61.5955 23.3303C61.6234 23.2974 61.5995 23.1679 61.5629 23.1492C61.2536 22.9897 60.9359 22.8443 60.6198 22.696C60.4877 22.6341 60.3595 22.559 60.2245 22.7054C59.9075 23.0478 59.5772 23.3781 59.2641 23.7243C58.817 24.2188 58.3642 24.7085 57.9468 25.2255C57.6193 25.6299 57.351 26.0802 57.0391 26.4977C56.5142 27.2014 55.9723 27.892 55.4457 28.5938C55.284 28.8096 55.1652 29.0591 54.9948 29.2683C54.5181 29.8529 54.0258 30.4261 53.5366 31.0013C53.1832 31.4169 52.8281 31.8325 52.4663 32.2416C52.1397 32.6113 51.7941 32.9641 51.4742 33.3394C51.1718 33.694 50.8873 34.0646 50.6031 34.4343C50.3024 34.8237 50.0075 35.2186 49.7164 35.6146C49.5899 35.7863 49.4827 35.972 49.3593 36.1456C48.9572 36.7076 48.6115 37.294 48.466 37.9761C48.4152 38.2154 48.3406 38.4509 48.3023 38.692C48.2486 39.0298 48.219 39.3703 48.1797 39.71ZM29.5016 48.2488C29.1109 47.835 28.7538 47.4644 28.4062 47.0873C28.0309 46.68 27.6623 46.2665 27.2918 45.8544C26.8647 45.3778 26.4463 44.8937 26.0097 44.4246C25.5588 43.9395 25.0829 43.478 24.6348 42.9902C24.2432 42.564 23.8803 42.1137 23.4964 41.6812C22.9909 41.1118 22.4662 40.5563 21.9683 39.9802C21.4043 39.3281 20.8605 38.6592 20.309 37.9958C19.8715 37.4704 19.4444 36.9356 18.9992 36.4168C18.6727 36.0368 18.3271 35.6727 17.9843 35.3068C17.6885 34.9906 17.3869 34.6782 17.0824 34.3695C16.7128 33.9961 16.3318 33.634 15.9641 33.2587C15.6912 32.981 15.4317 32.691 15.1636 32.4039C14.9252 32.7126 14.6744 33.0279 14.4369 33.3525C14.3383 33.4867 14.2991 33.6283 14.5049 33.7306C14.5767 33.7663 14.6275 33.8479 14.6801 33.9145C15.3044 34.7148 15.9076 35.532 16.5577 36.3117C16.9034 36.7264 17.3323 37.0735 17.7172 37.4582C18.4056 38.1478 19.0959 38.8346 19.7709 39.5364C20.3186 40.1059 20.8567 40.6847 21.3785 41.2768C21.7912 41.744 22.178 42.2349 22.5696 42.7207C22.8587 43.0792 23.1201 43.4602 23.4217 43.8073C23.7769 44.2172 24.1618 44.6011 24.5324 44.9979C24.8004 45.2849 25.057 45.5832 25.3357 45.8611C25.6689 46.1942 26.0135 46.5168 26.3649 46.8303C26.5947 47.0348 26.8341 47.2365 27.0945 47.4006C27.3061 47.5348 27.5656 47.5949 27.7868 47.716C28.3057 48.0002 28.8629 48.1559 29.5016 48.2479V48.2488ZM72.8257 32.3833C72.6723 32.5709 72.5363 32.7652 72.3717 32.9322C71.8834 33.4285 71.3807 33.9117 70.8886 34.4043C70.6062 34.6867 70.3352 34.9794 70.0585 35.2674C69.846 35.4889 69.6229 35.7018 69.4229 35.9336C69.1787 36.216 68.9585 36.5181 68.719 36.8043C68.3734 37.218 68.0142 37.6215 67.6706 38.0371C67.415 38.3458 67.1852 38.676 66.92 38.9763C66.5533 39.3919 66.1539 39.7803 65.7883 40.1969C65.5327 40.4878 65.3257 40.8189 65.0701 41.1107C64.5195 41.7383 63.9528 42.3521 63.3898 42.9693C63.2921 43.0763 63.1745 43.1656 63.0777 43.2735C62.7819 43.6009 62.4945 43.9339 62.1988 44.2613C62.1192 44.3497 62.0158 44.4161 61.9345 44.5034C61.6021 44.859 61.272 45.2165 60.9464 45.5778C60.7357 45.8123 60.5405 46.06 60.3278 46.2927C59.9161 46.743 59.4967 47.1867 59.0802 47.6325C58.8994 47.8265 58.7156 48.0189 58.5337 48.2123C58.5452 48.2347 58.5576 48.2573 58.5691 48.2799C59.0027 48.1522 59.4451 48.0463 59.8674 47.8895C60.2416 47.7506 60.6171 47.5893 60.9492 47.3743C61.2709 47.167 61.5496 46.8913 61.8264 46.6247C62.3816 46.0908 62.9303 45.5504 63.4674 44.9997C63.8761 44.5804 64.2754 44.1517 64.6575 43.7088C65.1306 43.1588 65.5776 42.5876 66.042 42.0301C66.3464 41.6652 66.6606 41.3087 66.9716 40.9503C67.3184 40.5525 67.6562 40.1472 68.0171 39.7625C68.2967 39.4651 68.6109 39.1986 68.9 38.9097C69.2082 38.601 69.5004 38.2764 69.8095 37.9696C70.1121 37.6703 70.4482 37.4 70.7364 37.0886C71.219 36.5669 71.69 36.034 72.1382 35.4842C72.5518 34.9775 72.9271 34.4408 73.3215 33.9192C73.3722 33.8516 73.4241 33.77 73.4958 33.7334C73.717 33.6208 73.6576 33.4773 73.5532 33.3356C73.3186 33.0185 73.0736 32.7089 72.8237 32.3842L72.8257 32.3833ZM33.476 64.3003C33.4606 64.3255 33.4444 64.3509 33.4291 64.3763C33.364 64.3819 33.2835 64.4136 33.2357 64.3884C32.5626 64.0224 32.1633 63.3939 31.7047 62.8112C31.5122 63.208 31.5783 63.4052 31.8751 63.6865C32.2399 64.0328 32.5721 64.4119 32.913 64.7805C33.1447 65.0311 33.3486 65.3116 33.6014 65.5395C34.0658 65.9581 34.5512 66.3558 35.0405 66.7462C35.2463 66.9103 35.4752 67.0529 35.7116 67.1712C36.3128 67.4724 36.9084 67.7791 37.4159 68.2248C37.6658 68.4443 37.9875 68.4228 38.2211 68.1704C38.0584 68.0935 37.8861 68.0316 37.7339 67.9378C37.326 67.6853 36.9219 67.4263 36.5264 67.1552C36.4097 67.0755 36.2995 66.9544 36.4221 66.7781C37.2522 67.0015 37.9071 67.5475 38.6318 67.948C38.8053 67.8119 38.9632 67.6873 39.1489 67.5418C36.2947 66.2592 34.0016 64.3517 32.1968 61.8429C32.0819 62.0437 31.9824 62.2174 31.8789 62.3974C32.1604 62.7089 32.4438 63.0044 32.7071 63.3179C32.9743 63.6368 33.2213 63.9718 33.4779 64.2992L33.476 64.3003ZM54.476 64.3218C55.0418 63.6472 55.576 63.01 56.1132 62.3683C56.0155 62.2042 55.9149 62.0335 55.8106 61.857C55.642 62.0821 55.5033 62.2943 55.3376 62.4847C55.0914 62.768 54.8291 63.0391 54.5697 63.3114C54.0595 63.847 53.553 64.3865 53.0321 64.911C52.786 65.1587 52.5294 65.4064 52.2412 65.6033C51.8094 65.8971 51.3421 66.1411 50.8968 66.416C50.6048 66.5961 50.3368 66.8156 50.0381 66.9817C49.725 67.1563 49.3861 67.2885 49.0606 67.4405C48.9973 67.4695 48.9379 67.508 48.8623 67.5503C49.0557 67.6986 49.2157 67.8215 49.3794 67.9472C50.107 67.5353 50.759 67.0032 51.6754 66.7527C51.6054 66.9159 51.5912 67.0521 51.5136 67.1131C51.2329 67.3362 50.9409 67.5484 50.6356 67.737C50.3627 67.9059 50.0658 68.0381 49.7796 68.1873C50.0851 68.4359 50.3206 68.4144 50.6299 68.1986C51.0645 67.8946 51.524 67.6252 51.976 67.3467C52.2738 67.1628 52.5868 67.0015 52.8731 66.8024C53.1126 66.6363 53.3279 66.4357 53.5461 66.2434C53.9378 65.8999 54.3419 65.5677 54.7086 65.2C55.2027 64.7045 55.6497 64.1642 56.1476 63.6724C56.4234 63.3995 56.4981 63.1611 56.3133 62.8609C55.9129 63.2962 55.5099 63.7447 55.0943 64.1828C54.9614 64.3246 54.8063 64.4596 54.474 64.3218H54.476ZM32.8632 61.0624C32.4697 61.4573 32.462 61.463 32.7914 61.8542C33.137 62.2652 33.4923 62.6677 33.8523 63.0665C34.0887 63.3292 34.331 63.5891 34.5866 63.8348C34.8508 64.0882 35.1304 64.3266 35.41 64.5638C35.6954 64.8059 35.975 65.0565 36.2794 65.2731C36.7074 65.5771 37.1516 65.8615 37.5987 66.1391C38.066 66.429 38.5361 66.7171 39.0206 66.9769C39.4496 67.2069 39.4602 67.1899 39.777 66.8269C39.7865 66.8156 39.7856 66.795 39.8018 66.7264C39.6401 66.6487 39.4611 66.5764 39.2973 66.4798C38.7517 66.155 38.2029 65.8352 37.6725 65.4881C37.1067 65.1183 36.5331 64.7525 36.0122 64.3274C35.5115 63.9193 35.0615 63.4492 34.6125 62.9849C34.2084 62.5674 33.8369 62.1188 33.4482 61.6872C33.2577 61.4762 33.0604 61.2715 32.8651 61.0633L32.8632 61.0624ZM55.1125 61.0557C55.0073 61.1975 54.9124 61.3475 54.7948 61.4771C54.3705 61.9443 53.9436 62.4106 53.5069 62.8665C53.0713 63.3216 52.6347 63.7775 52.1732 64.2074C51.4618 64.8706 50.5933 65.3237 49.7804 65.8482C49.3429 66.1307 48.8632 66.3484 48.4057 66.6007C48.328 66.6439 48.2659 66.7151 48.1979 66.7716C48.4192 67.0529 48.6793 67.1237 48.9782 66.9835C49.0644 66.9433 49.1506 66.9018 49.2319 66.8532C49.6081 66.6281 49.9865 66.4075 50.356 66.1719C50.7858 65.899 51.2156 65.6259 51.6275 65.3276C51.9855 65.0686 52.3245 64.7825 52.6586 64.4935C53.0904 64.121 53.528 63.7512 53.9283 63.3479C54.3169 62.9558 54.6539 62.5157 55.0283 62.1095C55.5166 61.5774 55.5376 61.4929 55.192 61.0952C55.1874 61.0896 55.1767 61.0867 55.1116 61.054L55.1125 61.0557ZM31.9191 64.1633C31.9747 64.5254 31.9986 64.8726 32.305 65.1361C32.62 65.4073 32.8699 65.7479 33.1658 66.0434C33.4894 66.3671 33.8111 66.6993 34.173 66.9789C34.5493 67.2707 34.9696 67.508 35.3755 67.7613C35.8257 68.0429 36.2756 68.3308 36.8798 68.252C36.8184 68.2034 36.7726 68.1573 36.7178 68.1245C36.3148 67.8805 35.907 67.6432 35.5068 67.3955C35.3775 67.3156 35.2731 67.1964 35.1419 67.1204C34.9131 66.9891 34.6412 66.9142 34.443 66.7509C34.0753 66.4487 33.746 66.1007 33.4051 65.7685C33.2921 65.6587 33.1945 65.5349 33.0834 65.4234C32.9101 65.2477 32.7234 65.0855 32.5568 64.9034C32.3366 64.6633 32.1317 64.4099 31.9201 64.1622L31.9191 64.1633ZM51.1381 68.2201C51.1496 68.252 51.162 68.2839 51.1735 68.3167C51.4791 68.2407 51.8114 68.2164 52.0832 68.0785C52.5629 67.8345 53.0111 67.5286 53.4628 67.2331C53.7539 67.0427 54.0575 66.8541 54.3025 66.6139C54.7948 66.1307 55.2332 65.594 55.7293 65.1146C56.0069 64.8452 56.0328 64.517 56.1132 64.1876C55.9437 64.3348 55.8028 64.5 55.6564 64.6605C55.4794 64.8548 55.3032 65.0499 55.1165 65.2347C54.9785 65.3717 54.7622 65.4646 54.6884 65.625C54.4558 66.1279 53.9906 66.3934 53.6017 66.734C53.4438 66.8727 53.238 66.9591 53.0532 67.067C52.9019 67.1563 52.7468 67.2379 52.5992 67.3317C52.3972 67.4602 52.2066 67.6065 52.0019 67.7303C51.7183 67.9011 51.4274 68.0579 51.1392 68.2212L51.1381 68.2201Z" fill="#9B3C34"/>
<path d="M38.356 23.908C38.3932 23.6688 38.3989 23.2287 38.537 22.8337C38.7446 22.238 38.9515 21.6441 39.368 21.1214C39.8016 20.5773 40.2852 20.0988 40.8577 19.7244C41.4178 19.3576 42.0614 19.1512 42.7229 18.9842C43.1412 18.8791 43.5569 18.8594 43.9705 18.8566C44.5066 18.8528 45.037 18.9476 45.534 19.1877C45.9467 19.3876 46.3967 19.5189 46.7988 19.7347C47.1205 19.9074 47.4191 20.1391 47.6854 20.3878C48.0109 20.6927 48.3326 21.0154 48.5805 21.3804C48.82 21.7332 48.9904 22.1385 49.1417 22.5391C49.3686 23.1387 49.4567 23.7729 49.4231 24.41C49.3916 25.0161 49.2997 25.6231 49.0181 26.1748C48.8344 26.5341 48.6122 26.8747 48.3968 27.2172C48.3364 27.3129 48.2349 27.3842 48.1573 27.4705C47.7324 27.9424 47.2804 28.4106 46.7241 28.7043C46.3364 28.9088 45.9753 29.2128 45.4784 29.2391C45.1529 29.2569 44.8398 29.4455 44.5115 29.5018C44.2616 29.5449 43.9953 29.4962 43.7359 29.4962C43.6353 29.4962 43.528 29.5412 43.4343 29.5215C42.9115 29.4108 42.3888 29.2954 41.8697 29.1649C41.3374 29.0308 40.8701 28.7493 40.4786 28.39C40.0506 27.9978 39.6629 27.5578 39.2991 27.1065C38.5886 26.2273 38.4142 25.1765 38.356 23.9071V23.908ZM39.5911 22.8018C39.6675 22.8459 39.724 22.8835 39.7854 22.9116C40.1177 23.0636 40.4527 23.21 40.7839 23.3648C41.0263 23.4783 41.1612 23.6631 41.188 23.9362C41.2215 24.2711 41.2915 24.6032 41.3278 24.9382C41.3538 25.1746 41.3489 25.4092 41.1018 25.5621C40.8951 25.6897 40.6988 25.8342 40.4939 25.9665C40.3579 26.0547 40.221 26.142 40.0765 26.2142C39.9146 26.2949 39.8906 26.4093 39.9894 26.5388C40.2391 26.8672 40.4997 27.1881 40.7629 27.5202C41.1468 27.1693 41.4849 26.8625 41.8199 26.5529C42.3295 26.0828 42.6128 26.1748 42.9325 26.3474C43.2017 26.4928 43.4669 26.6477 43.7465 26.7678C44.1812 26.9535 44.3352 27.1674 44.3161 27.6384C44.3026 27.9659 44.2855 28.2933 44.2691 28.6517C44.8254 28.5354 45.3616 28.4632 45.824 28.2164C45.6862 27.9143 45.536 27.6563 45.4535 27.3795C45.3809 27.1365 45.2889 26.8353 45.3751 26.6251C45.5138 26.2846 45.7887 25.9965 46.0107 25.6897C46.2549 25.352 46.6244 25.2478 47.0046 25.2975C47.3808 25.3463 47.7437 25.4918 48.1115 25.594C48.1478 25.412 48.2034 25.2187 48.2234 25.0208C48.2435 24.8256 48.2282 24.6267 48.2282 24.4419C47.8616 24.3762 47.4776 24.3265 47.1032 24.2355C46.8715 24.1792 46.6313 24.121 46.5679 23.8048C46.5001 23.468 46.3546 23.1471 46.252 22.8168C46.2177 22.7061 46.1851 22.5851 46.1966 22.4725C46.2405 22.0344 46.4713 21.6816 46.7902 21.3888C47.0496 21.1515 47.0746 20.9807 46.815 20.7696C46.6628 20.6458 46.4915 20.5435 46.344 20.4422C46.2462 20.5538 46.1649 20.6636 46.0672 20.7565C45.7715 21.0379 45.4631 21.3072 45.1702 21.5924C45.0036 21.7548 44.8024 21.7613 44.6015 21.7379C44.3294 21.706 44.0604 21.6487 43.7924 21.5915C43.7321 21.5784 43.6756 21.5296 43.6266 21.4864C43.3049 21.2068 43.1585 20.8541 43.1643 20.4328C43.1671 20.2292 43.1432 20.0256 43.1317 19.8192C42.8435 19.868 42.5667 19.9149 42.2843 19.9627C42.3877 20.3361 42.4892 20.6927 42.5831 21.0501C42.6751 21.3992 42.6261 21.7163 42.3399 21.9724C42.201 22.0972 42.0623 22.222 41.9234 22.3468C41.5031 22.7249 41.0894 22.799 40.6893 22.5691C40.4308 22.4209 40.1693 22.2745 39.8897 22.116C39.7932 22.3393 39.6954 22.5635 39.592 22.8009L39.5911 22.8018ZM43.8555 28.6508C43.803 28.3628 43.7474 28.1479 43.7281 27.9312C43.7013 27.6366 43.5234 27.4865 43.2677 27.3832C43.0628 27.3007 42.8339 27.2397 42.6693 27.1055C42.452 26.9273 42.3035 26.9957 42.1263 27.1346C41.9061 27.3082 41.6812 27.4752 41.4561 27.6412C41.2837 27.7689 41.28 27.8767 41.484 27.9978C41.7291 28.1441 41.9807 28.2961 42.2499 28.3862C42.5745 28.496 42.9192 28.5542 43.2582 28.6142C43.443 28.647 43.6353 28.6386 43.8546 28.6499L43.8555 28.6508ZM39.6802 25.9309C40.0085 25.6681 40.3158 25.4317 40.6089 25.1793C40.6585 25.1362 40.6654 25.0208 40.6576 24.9429C40.6337 24.6943 40.5743 24.4484 40.5648 24.1998C40.5571 24.0065 40.4538 23.8977 40.3025 23.8273C40.0171 23.6941 39.7223 23.5796 39.3813 23.4361C39.3345 24.2861 39.3746 25.0996 39.6802 25.9318V25.9309ZM43.7042 19.7085C43.7713 19.943 43.8154 20.1035 43.865 20.2639C43.9186 20.4375 43.9408 20.6345 44.0423 20.7771C44.2089 21.0117 44.4856 21.1102 44.7698 21.1365C44.8695 21.1458 45.0036 21.0961 45.0773 21.0276C45.3204 20.8006 45.5388 20.5491 45.7743 20.3136C45.9102 20.1776 45.8432 20.0622 45.7187 20.0125C45.5512 19.9449 45.3616 19.928 45.1797 19.8952C45.1241 19.8849 45.0618 19.9064 45.0073 19.8933C44.7612 19.8361 44.5199 19.7544 44.2711 19.7141C44.0959 19.686 43.912 19.7085 43.7033 19.7085H43.7042ZM48.3067 23.909C48.2034 23.0524 47.9994 22.2699 47.4422 21.6056C47.3762 21.6619 47.3148 21.6985 47.2747 21.751C47.0573 22.0381 46.7921 22.3111 46.9175 22.7202C46.9922 22.9632 47.0602 23.2071 47.1464 23.4455C47.1712 23.5149 47.2364 23.5984 47.3015 23.62C47.6174 23.7232 47.9411 23.8067 48.3058 23.9099L48.3067 23.909ZM40.1674 21.6656C40.4325 21.7501 40.7026 21.8064 40.9448 21.9218C41.1402 22.0146 41.2809 22.0043 41.4351 21.8702C41.5941 21.7313 41.7692 21.6103 41.9187 21.4639C41.977 21.4067 42.0248 21.2913 42.0087 21.2171C41.9386 20.8869 41.8429 20.5613 41.7587 20.2414C41.1143 20.5726 40.5637 21.0126 40.1674 21.6666V21.6656ZM46.2606 27.9884C46.8544 27.5587 47.3675 27.0586 47.7122 26.384C47.6232 26.338 47.5361 26.2855 47.4431 26.248C46.9156 26.0331 46.8389 26.0481 46.4647 26.4319C46.0548 26.8522 45.9649 27.5371 46.2606 27.9884Z" fill="#9B3C34"/>
<path d="M35.7602 66.4555C35.538 66.3843 35.3474 66.3569 35.1952 66.2668C34.7194 65.9846 34.2636 65.6694 34.0013 65.1626C33.9678 65.0979 33.9783 65.0115 33.9688 64.9355C34.0434 64.9609 34.1325 64.9694 34.1899 65.0152C34.6782 65.4038 35.1609 65.7996 35.6443 66.1937C35.6769 66.2199 35.7028 66.2557 35.7256 66.2914C35.738 66.3111 35.7363 66.3391 35.7602 66.4546V66.4555Z" fill="#9B3C34"/>
<path d="M52.2113 66.3495C52.471 66.0981 52.6987 65.8504 52.9564 65.6355C53.2455 65.3943 53.5606 65.1824 53.8688 64.9638C53.91 64.9347 53.9789 64.944 54.0345 64.9355C54.0374 64.9892 54.0631 65.0547 54.0402 65.0942C53.6705 65.7462 53.1257 66.1928 52.3972 66.4199C52.3742 66.4275 52.3454 66.4199 52.3206 66.4151C52.3053 66.4114 52.2909 66.3984 52.2104 66.3487L52.2113 66.3495Z" fill="#9B3C34"/>
<path d="M44.1278 22.5948C44.6247 22.4587 44.9176 22.7121 45.1436 23.0977C45.3169 23.3932 45.5189 23.6737 45.6625 23.9815C45.7181 24.1006 45.6855 24.293 45.6262 24.4225C45.452 24.8006 45.2422 25.1627 45.0499 25.5324C44.9225 25.7773 44.732 25.8514 44.461 25.8251C44.1278 25.7923 43.7908 25.7857 43.4556 25.7942C43.2048 25.8007 43.0238 25.7303 42.8935 25.5146C42.6676 25.1402 42.4188 24.778 42.2003 24.3999C42.0816 24.1945 42.0576 23.9956 42.3297 23.8417C42.4502 23.7732 42.5413 23.6174 42.5987 23.4823C42.8849 22.8059 43.3617 22.4569 44.1287 22.5957L44.1278 22.5948ZM43.9803 23.1361C43.694 23.1483 43.3838 23.092 43.1818 23.3801C43.0305 23.5959 42.8696 23.8051 42.705 24.0106C42.614 24.1232 42.5863 24.216 42.6782 24.3483C42.882 24.6392 43.0659 24.945 43.2689 25.2369C43.3043 25.2875 43.3971 25.3222 43.4651 25.326C43.8261 25.3466 44.1872 25.3579 44.5481 25.3626C44.5911 25.3626 44.6562 25.311 44.6764 25.2678C44.8326 24.9422 44.9856 24.6157 45.1254 24.2836C45.1485 24.2282 45.1217 24.1354 45.0862 24.0772C44.9398 23.8314 44.796 23.5818 44.6219 23.3547C44.5461 23.2562 44.4092 23.1877 44.2867 23.1436C44.1958 23.1108 44.0817 23.1371 43.9785 23.1371L43.9803 23.1361Z" fill="#9B3C34"/>
</g>
</svg>
