<svg width="88" height="88" viewBox="0 0 88 88" fill="none" xmlns="http://www.w3.org/2000/svg">
<path d="M26.8413 69.3221C26.8835 69.0127 26.9444 68.7058 26.9608 68.394C26.9749 68.1465 26.921 67.8967 26.9233 67.6468C26.9257 67.2423 26.9585 66.8401 26.9631 66.4356C26.9678 66.1143 26.9749 65.7859 26.9327 65.4694C26.8858 65.1125 26.9139 64.7794 26.9725 64.4224C27.0451 63.9798 27.1365 63.5324 27.0381 63.0517C26.9421 62.5853 27.0381 62.0808 27.0358 61.593C27.0334 61.2146 26.9889 60.8363 26.9912 60.4603C26.9912 60.189 27.0639 59.9177 27.0592 59.6465C27.0498 59.1634 27.003 58.6803 26.9725 58.1973C26.9561 57.9093 26.9374 57.619 26.9303 57.3311C26.921 56.9765 26.9186 56.6219 26.9186 56.2674C26.9186 55.7438 26.9303 55.2203 26.9233 54.6968C26.9186 54.3803 26.8765 54.0638 26.8718 53.7497C26.8647 53.3356 26.8718 52.9216 26.8811 52.5075C26.8905 52.0792 26.9069 51.6508 26.9303 51.2225C26.9538 50.7704 26.9959 50.3182 27.017 49.8661C27.024 49.74 26.9749 49.6139 26.9725 49.4854C26.9725 48.7786 26.9819 48.0719 26.9772 47.3627C26.9725 46.951 26.9444 46.5394 26.928 46.1277C26.928 46.0849 26.9186 46.0396 26.928 45.9992C27.1318 45.2591 26.9795 44.5 27.0358 43.7528C27.0639 43.3602 27.0779 42.9651 27.0756 42.5701C27.0756 42.0775 27.0428 41.5826 27.0451 41.09C27.0451 40.9305 27.1201 40.7759 27.1365 40.614C27.167 40.3023 27.2372 39.9787 27.1857 39.6812C27.0639 38.9721 27.3099 38.2891 27.27 37.5895C27.2326 36.9375 27.2372 36.2926 27.4153 35.6549C27.4551 35.5097 27.4622 35.3431 27.4411 35.1932C27.4036 34.9243 27.5559 34.7387 27.7199 34.5959C28.1486 34.2247 28.6078 33.8892 29.0459 33.5298C29.327 33.299 29.5848 33.042 29.8636 32.8064C30.311 32.4304 30.7655 32.0616 31.22 31.6928C31.2856 31.6404 31.3606 31.6023 31.4309 31.5524C32.0564 31.1002 32.6843 30.6528 33.3028 30.1912C33.5957 29.9699 33.8581 29.7081 34.1509 29.4868C34.4602 29.2536 34.7929 29.0537 35.1091 28.83C35.3083 28.6896 35.4957 28.5302 35.6855 28.3779C36.065 28.0733 36.4399 27.764 36.8217 27.4665C36.9084 27.3975 37.0349 27.3832 37.124 27.3166C37.3442 27.15 37.5504 26.9644 37.7682 26.7931C38.5062 26.2124 39.2091 25.5794 39.9963 25.0797C40.4765 24.7751 40.8561 24.3587 41.3246 24.0469C41.8893 23.671 42.3836 23.1927 42.9178 22.7691C43.1497 22.5835 43.3793 22.3645 43.6464 22.2694C43.8666 22.1932 44.2016 22.1861 44.3844 22.3074C44.9795 22.7048 45.5253 23.176 46.0946 23.6139C46.4133 23.8613 46.7413 24.0993 47.0599 24.3468C47.2192 24.4705 47.3621 24.6109 47.5191 24.737C47.6737 24.8608 47.833 24.9774 47.99 25.0964C48.4937 25.4795 48.9974 25.8626 49.5034 26.241C49.8057 26.4694 50.1173 26.6836 50.4148 26.9192C50.546 27.0215 50.635 27.1976 50.7803 27.269C51.0708 27.4094 51.3004 27.6117 51.53 27.833C51.7549 28.0495 52.0454 28.1971 52.3008 28.385C52.6452 28.642 52.9825 28.9086 53.3246 29.1679C53.5518 29.3393 53.7861 29.4987 54.0134 29.6677C54.3062 29.8842 54.5944 30.1055 54.8849 30.3245C55.1543 30.5267 55.4308 30.7242 55.6979 30.9336C55.8431 31.0479 55.965 31.1906 56.1126 31.3001C56.2461 31.4001 56.4101 31.4572 56.5413 31.5595C56.8857 31.826 57.2231 32.1044 57.5581 32.3828C57.9915 32.7446 58.4179 33.111 58.8513 33.4751C58.9216 33.5346 59.0059 33.5751 59.0762 33.6345C59.4932 33.9796 59.9079 34.3294 60.325 34.6768C60.4913 34.8148 60.5124 34.9957 60.5311 35.2003C60.5756 35.6668 60.6717 36.1284 60.7092 36.5948C60.7373 36.9399 60.6975 37.2873 60.7115 37.6347C60.7279 38.0559 60.7818 38.4771 60.7982 38.9007C60.8123 39.2196 60.7818 39.5408 60.7982 39.8597C60.8169 40.2166 60.8732 40.5712 60.9013 40.9282C60.9153 41.1138 60.9013 41.3018 60.9013 41.4898C60.906 42.0728 60.906 42.6582 60.9177 43.2412C60.9317 43.9408 60.9692 44.6404 60.9763 45.34C60.9809 45.8564 61.0255 46.3704 60.9739 46.8939C60.9177 47.4698 60.9997 48.0576 61.002 48.6406C61.002 49.0142 60.9645 49.3854 60.9622 49.759C60.9622 49.9946 61.0114 50.2278 61.0161 50.4634C61.0231 50.9036 61.002 51.3439 61.0161 51.7841C61.0278 52.1077 61.0957 52.429 61.1051 52.7526C61.1192 53.1833 61.1004 53.6164 61.0981 54.0471C61.0981 54.3755 61.1121 54.7039 61.1004 55.0323C61.0793 55.6962 60.9716 56.3673 61.0325 57.0241C61.1121 57.8808 60.8661 58.7041 60.9036 59.5489C60.913 59.7726 60.9435 59.9939 60.9528 60.2152C60.9599 60.4246 60.9458 60.634 60.9481 60.8434C60.9552 61.317 60.9809 61.7929 60.9716 62.2664C60.9645 62.6353 60.9107 63.0041 60.8849 63.373C60.8779 63.4801 60.8802 63.5919 60.8989 63.699C60.9575 64.0274 61.0372 64.351 61.084 64.6818C61.1121 64.8793 61.1332 65.0935 61.084 65.2838C60.9669 65.7431 60.9997 66.181 61.084 66.645C61.152 67.0257 61.0583 67.4327 61.0559 67.8277C61.0559 68.1632 61.1075 68.4987 61.0981 68.8343C61.084 69.2769 61.152 69.7124 61.0301 70.1621C60.7841 71.0569 60.3039 71.7898 59.6807 72.4394C59.2379 72.9011 58.685 73.1771 58.0524 73.1819C57.4339 73.1866 56.8295 73.2866 56.2203 73.3508C55.6323 73.4127 55.0442 73.4936 54.4538 73.546C53.9736 73.5888 53.4886 73.6055 53.006 73.6245C52.8584 73.6316 52.7108 73.6031 52.5608 73.5983C52.3242 73.5936 52.0852 73.5864 51.8486 73.5983C51.2535 73.6245 50.6608 73.653 50.0657 73.6887C49.7518 73.7078 49.4402 73.7387 49.1286 73.7649C49.1122 73.7649 49.0911 73.7744 49.0794 73.7697C48.6694 73.6078 48.2594 73.7268 47.8494 73.7649C47.5308 73.7958 47.2122 73.8291 46.8912 73.8553C46.7905 73.8625 46.6897 73.8458 46.589 73.8387C46.343 73.822 46.0806 73.7411 45.8533 73.8006C45.3543 73.9362 44.9021 73.753 44.4312 73.6959C44.1267 73.6578 43.8127 73.6768 43.5058 73.7006C43.1239 73.7316 42.7444 73.803 42.3625 73.8434C42.2501 73.8553 42.1329 73.8101 42.0181 73.8101C41.5402 73.8149 41.0646 73.8339 40.5867 73.8339C40.4461 73.8339 40.3079 73.7863 40.1673 73.7744C39.7667 73.7411 39.3778 73.6602 38.9584 73.734C38.5484 73.8053 38.108 73.7102 37.6816 73.684C37.0935 73.6483 36.5055 73.5959 35.9151 73.5769C35.573 73.565 35.2286 73.6174 34.8866 73.6126C34.5867 73.6078 34.2868 73.5531 33.9846 73.5364C33.7644 73.5246 33.5441 73.5364 33.3216 73.5364C33.2044 73.5364 33.0849 73.5364 32.9678 73.5222C32.3282 73.4436 31.6886 73.3627 31.049 73.2794C30.796 73.2461 30.5453 73.1985 30.2923 73.1724C30.1634 73.1605 30.0276 73.2081 29.8987 73.1914C29.5613 73.1486 29.2544 73.0224 28.9358 72.8844C28.4251 72.6655 28.1111 72.2705 27.8089 71.8612C27.5465 71.5066 27.345 71.1021 27.1482 70.7023C26.9397 70.2763 26.8226 69.8194 26.8413 69.3269V69.3221ZM59.84 34.8482C59.5635 34.6364 59.2801 34.4079 58.9849 34.1938C58.2586 33.6679 57.5229 33.1515 56.7967 32.6256C56.5952 32.478 56.4171 32.2948 56.2156 32.1449C55.8689 31.8903 55.5034 31.6594 55.159 31.4024C54.7139 31.0693 54.2805 30.7242 53.8447 30.3792C53.662 30.234 53.4956 30.0675 53.3082 29.9318C53.0294 29.7319 52.7295 29.563 52.4554 29.3583C51.9751 29.0014 51.5112 28.6254 51.0333 28.2637C50.7779 28.0709 50.5038 27.9091 50.2532 27.7116C49.801 27.357 49.3629 26.9811 48.9107 26.6265C48.6061 26.3885 48.2852 26.1767 47.9759 25.9483C47.4558 25.5604 46.9404 25.1701 46.425 24.7799C46.1813 24.5943 45.9424 24.3991 45.694 24.2183C45.441 24.0351 45.1739 23.8732 44.9185 23.6924C44.6351 23.4901 44.3633 23.2736 44.0822 23.0689C44.047 23.0451 43.9767 23.0404 43.9392 23.057C43.7823 23.1332 43.6159 23.2046 43.4777 23.3116C42.9037 23.7543 42.3461 24.2159 41.7698 24.6561C41.1091 25.163 40.4391 25.6556 39.7714 26.1506C39.2653 26.5265 38.7546 26.8954 38.2462 27.269C38.1033 27.3737 37.9604 27.4832 37.8221 27.595C37.4238 27.9139 37.0303 28.2423 36.6249 28.554C36.4891 28.6587 36.3133 28.7087 36.1751 28.8134C35.8448 29.0585 35.5285 29.325 35.2028 29.5749C35.0178 29.7176 34.8186 29.839 34.6265 29.977C34.5726 30.0151 34.5305 30.0722 34.4789 30.115C34.2353 30.3221 33.9986 30.5386 33.7409 30.7266C33.3708 30.9979 32.9772 31.2359 32.6093 31.5095C32.2111 31.8046 31.8386 32.1306 31.4426 32.4281C31.0045 32.7588 30.5547 33.0682 30.1119 33.3918C29.5637 33.7916 29.0178 34.1938 28.4743 34.6007C28.2845 34.7435 27.9916 34.8529 28.247 35.1789C28.2611 35.1956 28.254 35.2289 28.2517 35.2551C28.2376 35.6882 28.2165 36.1189 28.2119 36.552C28.2095 36.9518 28.0596 37.3563 28.2447 37.7537C28.2634 37.7918 28.2353 37.8513 28.2306 37.9012C28.1931 38.3201 28.1416 38.7365 28.1205 39.1553C28.0947 39.6598 28.0947 40.1643 28.076 40.6688C28.0619 41.0448 28.0268 41.4207 28.0174 41.7991C28.0104 42.1013 28.0502 42.4035 28.0361 42.7058C28.0151 43.1341 27.9635 43.5624 27.926 43.9884C27.8979 44.3406 27.8651 44.6928 27.8487 45.0473C27.8394 45.2972 27.8651 45.5494 27.8604 45.8017C27.8558 45.9659 27.7667 46.1515 27.8159 46.2919C28.001 46.8297 27.755 47.3603 27.8253 47.8934C27.8511 48.0861 27.837 48.286 27.837 48.4812C27.8347 48.9095 27.83 49.3354 27.823 49.7638C27.823 49.8233 27.8136 49.8828 27.8089 49.9423C27.7878 50.3563 27.7433 50.7728 27.7527 51.1868C27.7667 51.7222 27.6918 52.2481 27.6636 52.7788C27.6355 53.3095 27.6847 53.8449 27.6988 54.3779C27.7035 54.5112 27.7152 54.6421 27.7128 54.7753C27.7082 55.0609 27.68 55.3464 27.6871 55.632C27.6988 56.1341 27.7597 56.6362 27.741 57.1359C27.7246 57.5643 27.7339 57.9807 27.7948 58.4067C27.8604 58.854 27.8698 59.3109 27.8768 59.7631C27.8862 60.2366 27.8183 60.7149 27.8722 61.1813C27.912 61.524 27.8534 61.8476 27.8464 62.1808C27.8394 62.4711 27.8675 62.7614 27.8745 63.0541C27.8815 63.3301 27.9003 63.6062 27.8792 63.8798C27.8558 64.194 27.7878 64.5033 27.7527 64.8174C27.7386 64.9507 27.755 65.0887 27.762 65.2243C27.7761 65.5932 27.8089 65.962 27.8019 66.3309C27.7948 66.6759 27.7199 67.0186 27.7199 67.3636C27.7199 67.7801 27.7738 68.1965 27.7925 68.613C27.8066 68.9485 27.7503 69.2959 27.8159 69.6195C27.9659 70.3525 28.2821 71.0212 28.8023 71.5637C29.0998 71.8731 29.4465 72.1277 29.894 72.1586C30.3204 72.1896 30.7491 72.1777 31.1755 72.2157C31.5668 72.2491 31.9557 72.3204 32.3446 72.3823C32.6585 72.4323 32.9701 72.5132 33.2864 72.5465C33.8159 72.6036 34.3501 72.6179 34.8795 72.6774C35.1724 72.7107 35.2989 72.6393 35.3106 72.3466C35.32 72.1087 35.3059 71.8683 35.3247 71.6303C35.3715 70.9926 35.4418 70.3549 35.4793 69.7171C35.5051 69.2935 35.5098 68.8652 35.4887 68.4392C35.4418 67.4755 35.3739 66.5094 35.313 65.5456C35.2989 65.3243 35.2684 65.103 35.2661 64.8817C35.2614 64.4771 35.2825 64.0702 35.2755 63.6657C35.2708 63.3849 35.2239 63.1041 35.2169 62.8233C35.2028 62.2688 35.1654 61.7096 35.2028 61.1575C35.252 60.4103 35.0787 59.656 35.2966 58.9159C35.3012 58.9016 35.2919 58.8826 35.2895 58.8659C35.2333 58.3305 35.2638 57.8046 35.3176 57.2668C35.4067 56.3982 35.3832 55.5201 35.409 54.6444C35.4137 54.4564 35.4184 54.2685 35.4465 54.0828C35.5074 53.6878 35.6246 53.2976 35.641 52.9002C35.6714 52.1839 35.8963 51.5366 36.2079 50.9132C36.4 50.5324 36.646 50.1778 36.8639 49.8114C36.9459 49.6757 36.9951 49.5115 37.0982 49.3973C37.4613 48.9975 37.8315 48.6025 38.2227 48.2313C38.5203 47.9481 38.8342 47.6768 39.1763 47.4531C39.5113 47.2342 39.8885 47.0772 40.2516 46.8987C40.4016 46.8249 40.5585 46.7393 40.7179 46.7178C41.0154 46.6774 41.3059 46.6464 41.587 46.5132C42.1681 46.2371 42.817 46.2728 43.4332 46.1586C43.5808 46.1324 43.7331 46.0872 43.8783 46.1015C44.4359 46.1491 44.9935 46.2133 45.5488 46.2752C45.6495 46.2871 45.7526 46.299 45.8486 46.3276C46.2422 46.4466 46.6335 46.5751 47.0247 46.6964C47.2075 46.7535 47.3996 46.7845 47.5776 46.8535C47.7791 46.932 47.9689 47.0391 48.1634 47.1343C48.4117 47.258 48.6741 47.3603 48.899 47.5198C49.2387 47.7601 49.5714 48.0195 49.8689 48.3122C50.2578 48.6953 50.6257 49.1022 50.9654 49.5306C51.1879 49.8114 51.3449 50.1421 51.523 50.4563C51.8744 51.0773 52.1977 51.7103 52.2703 52.4409C52.2867 52.6146 52.3148 52.7907 52.3453 52.962C52.4203 53.3975 52.5351 53.8306 52.5679 54.2708C52.6264 55.0775 52.6358 55.889 52.6616 56.6981C52.6663 56.8765 52.6452 57.055 52.6522 57.2335C52.6709 57.7189 52.6944 58.2044 52.7201 58.6898C52.7365 58.9754 52.7693 59.261 52.7811 59.5465C52.7881 59.7131 52.7553 59.8797 52.7553 60.0462C52.7459 61.0504 52.7412 62.0523 52.7319 63.0565C52.7295 63.2826 52.6967 63.5086 52.6991 63.7371C52.7014 64.1844 52.7436 64.6318 52.7225 65.0768C52.6944 65.6884 52.6217 66.2999 52.5749 66.9115C52.5515 67.2137 52.528 67.5183 52.528 67.8229C52.5304 68.5463 52.5374 69.2697 52.5632 69.9932C52.5913 70.7927 52.6381 71.5899 52.678 72.3871C52.6897 72.6298 52.8537 72.7369 53.088 72.6845C53.3316 72.6298 53.5776 72.5798 53.8236 72.5608C54.2617 72.5275 54.7069 72.5465 55.1426 72.4894C55.6651 72.4204 56.1782 72.2871 56.6983 72.2015C56.9724 72.1563 57.2558 72.1158 57.5276 72.1396C58.111 72.1872 58.61 72.0872 59.0669 71.6613C59.5659 71.1949 59.8189 70.6023 60.0696 70.0003C60.2664 69.5267 60.1516 69.0127 60.1727 68.5178C60.182 68.3226 60.1399 68.1156 60.1891 67.9348C60.3343 67.4041 60.2336 66.8806 60.1586 66.3666C60.1094 66.0382 60.1375 65.7312 60.161 65.4147C60.182 65.1577 60.1797 64.896 60.168 64.639C60.1469 64.2463 60.0907 63.856 60.0836 63.4658C60.0766 63.1088 60.1328 62.7495 60.1328 62.3926C60.1328 62.0808 60.079 61.7691 60.0766 61.455C60.0719 61.0576 60.093 60.6602 60.1071 60.2628C60.1118 60.1343 60.1352 60.0082 60.1328 59.8797C60.1282 59.5322 60.093 59.1848 60.1094 58.8398C60.1305 58.4019 60.2102 57.9664 60.2312 57.5262C60.25 57.1359 60.2078 56.7409 60.2195 56.3506C60.2266 56.0865 60.2922 55.8247 60.3109 55.5606C60.332 55.275 60.3273 54.9966 60.2711 54.7015C60.1961 54.3065 60.2734 53.883 60.2922 53.4713C60.2968 53.3618 60.346 53.2523 60.3414 53.1453C60.3296 52.7978 60.3015 52.4504 60.2828 52.103C60.2664 51.8269 60.2523 51.5485 60.243 51.2701C60.2242 50.7371 60.2102 50.204 60.1914 49.671C60.1774 49.2688 60.1586 48.8643 60.1422 48.4621C60.1235 47.9886 60.1071 47.5126 60.0907 47.0391C60.0907 47.0129 60.1 46.9891 60.1024 46.9629C60.1305 46.694 60.1867 46.4251 60.175 46.1586C60.1539 45.6827 60.079 45.2115 60.0508 44.7356C60.018 44.155 60.0134 43.5696 59.9899 42.9889C59.9852 42.8604 59.936 42.7343 59.936 42.6082C59.9384 42.2441 59.9759 41.88 59.9665 41.5159C59.9524 40.9567 59.9126 40.3975 59.8775 39.8407C59.8517 39.4242 59.8189 39.0078 59.7908 38.589C59.772 38.301 59.7346 38.0131 59.751 37.7252C59.765 37.4658 59.8025 37.2135 59.8002 36.9446C59.7931 36.2569 59.6432 35.5573 59.8376 34.8553L59.84 34.8482ZM39.4457 68.0656C39.4691 68.0704 39.4949 68.0752 39.5183 68.0799C39.5628 68.1703 39.6378 68.2584 39.6448 68.3512C39.6683 68.6296 39.6612 68.908 39.6706 69.1865C39.68 69.4244 39.687 69.6648 39.7081 69.9027C39.7315 70.1907 39.7948 70.4786 39.7901 70.7642C39.7831 71.2782 39.7362 71.7898 39.7128 72.3038C39.7058 72.4632 39.7198 72.625 39.7245 72.7869C39.8862 72.7726 40.0478 72.7631 40.2071 72.744C40.507 72.7083 40.5515 72.6417 40.5187 72.3276C40.4883 72.0325 40.4461 71.7398 40.432 71.4447C40.4133 71.0735 40.4227 70.7023 40.4133 70.3311C40.4063 70.0788 40.3758 69.8242 40.3688 69.572C40.3617 69.1936 40.3735 68.8152 40.3641 68.4369C40.3571 68.1465 40.3102 67.8562 40.3079 67.5683C40.3055 67.0805 40.3407 66.5926 40.3313 66.1072C40.3219 65.5837 40.2751 65.0625 40.261 64.539C40.2469 63.9655 40.2516 63.392 40.2446 62.8185C40.2423 62.5544 40.2142 62.2902 40.2259 62.0285C40.2376 61.7834 40.3617 61.5216 40.3032 61.3003C40.1696 60.7815 40.3407 60.2818 40.3243 59.7726C40.3008 59.1253 40.3852 58.4757 40.3992 57.8284C40.4109 57.3001 40.3852 56.7718 40.3805 56.2436C40.3805 55.8961 40.3899 55.5463 40.3922 55.1989C40.3922 54.9562 40.3735 54.7111 40.3875 54.4707C40.4086 54.0828 40.4695 53.695 40.4789 53.3071C40.4929 52.7502 40.4742 52.1934 40.4789 51.6342C40.4812 51.4224 40.5187 51.213 40.5375 51.0012C40.5632 50.7061 40.596 50.4134 40.6077 50.1184C40.6195 49.7638 40.6077 49.4092 40.6148 49.0546C40.6195 48.8714 40.6499 48.6906 40.6616 48.5073C40.6687 48.4098 40.6616 48.3098 40.664 48.2123C40.6687 48.0933 40.6757 47.9767 40.6827 47.822C40.4156 47.941 40.1931 48.0219 39.9916 48.1385C39.8885 48.198 39.7596 48.3122 39.7479 48.4121C39.7034 48.8381 39.6917 49.2688 39.68 49.6995C39.673 49.9375 39.694 50.1778 39.6987 50.4158C39.7011 50.5253 39.694 50.6371 39.6987 50.7466C39.7058 51.1678 39.7268 51.5913 39.7222 52.0125C39.7128 52.6931 39.6823 53.3713 39.673 54.0519C39.6659 54.5445 39.6776 55.0347 39.68 55.5273C39.68 55.8105 39.6706 56.0913 39.6776 56.3744C39.6847 56.6719 39.7128 56.967 39.7198 57.2644C39.7292 57.6618 39.7198 58.0592 39.7268 58.4566C39.7315 58.7755 39.755 59.092 39.7596 59.4109C39.7643 59.675 39.7526 59.9391 39.755 60.2033C39.755 60.5436 39.7714 60.8839 39.7667 61.2242C39.762 61.5549 39.7292 61.8881 39.7268 62.2188C39.7245 62.5163 39.7948 62.8233 39.7456 63.1112C39.6519 63.649 39.6448 64.1821 39.6753 64.7222C39.687 64.915 39.5886 65.1125 39.5488 65.31C39.5324 65.3957 39.5136 65.4909 39.5324 65.5742C39.5699 65.7455 39.516 65.8431 39.3707 65.8906C39.3707 65.5813 39.3824 65.2838 39.3684 64.9888C39.3496 64.5557 39.2958 64.1249 39.2864 63.6918C39.2723 63.0446 39.277 62.3973 39.2887 61.7501C39.2934 61.4859 39.359 61.2218 39.3567 60.9576C39.352 60.5936 39.2911 60.2318 39.2817 59.8701C39.2723 59.5346 39.3098 59.1967 39.3004 58.8612C39.277 58.1639 39.2302 57.4667 39.2044 56.7718C39.1693 55.7391 39.1458 54.7087 39.1177 53.6759C39.1154 53.5474 39.1224 53.4165 39.1154 53.288C39.0943 52.9049 39.0404 52.5218 39.0521 52.141C39.0685 51.6294 39.0849 51.1226 39.0474 50.6086C39.0076 50.0327 39.0381 49.4497 39.0381 48.8262C38.8787 48.969 38.7569 49.0594 38.6609 49.1712C38.5765 49.2688 38.4711 49.3854 38.4617 49.4996C38.4453 49.7209 38.4969 49.9446 38.5109 50.1683C38.532 50.4991 38.5578 50.8322 38.5625 51.1654C38.5695 51.6961 38.5601 52.2291 38.5625 52.7598C38.5625 53.0215 38.5812 53.2809 38.5812 53.5427C38.5789 54.1756 38.5554 54.8086 38.5648 55.4392C38.5765 56.1793 38.6257 56.9194 38.6351 57.6595C38.6421 58.1497 38.6023 58.6399 38.5929 59.1277C38.5882 59.3442 38.6187 59.5608 38.614 59.7773C38.6093 60.0367 38.5695 60.2985 38.5695 60.5579C38.5695 61.2551 38.6257 61.9571 38.5835 62.6519C38.5461 63.2707 38.6843 63.8751 38.5882 64.5033C38.4922 65.1434 38.5484 65.8097 38.5437 66.4641C38.5437 66.6569 38.5765 66.8496 38.5695 67.04C38.5578 67.4327 38.5343 67.8229 38.5062 68.2156C38.4898 68.4464 38.4195 68.6772 38.4313 68.9033C38.4594 69.403 38.4687 69.8932 38.361 70.3858C38.3211 70.5714 38.3094 70.7903 38.361 70.9688C38.5015 71.44 38.3118 71.8755 38.279 72.3276C38.2673 72.5037 38.2415 72.6988 38.4336 72.7583C38.6234 72.8178 38.8366 72.8059 39.0381 72.8178C39.1716 72.8249 39.2419 72.7726 39.2138 72.6131C39.1786 72.4109 39.1529 72.2038 39.1482 71.9968C39.1364 71.4519 39.1318 70.9069 39.1318 70.362C39.1318 70.0169 39.1271 69.6695 39.1575 69.3245C39.1833 69.0294 39.2489 68.7391 39.3122 68.4488C39.3403 68.3203 39.3988 68.2013 39.4457 68.0775V68.0656ZM47.3012 47.8101C47.2895 47.9267 47.2707 48.0076 47.2778 48.0885C47.3082 48.5311 47.3621 48.9714 47.3738 49.414C47.3832 49.7447 47.3434 50.0779 47.4535 50.4039C47.4699 50.4515 47.43 50.5158 47.423 50.5752C47.4113 50.668 47.3926 50.7609 47.3996 50.8537C47.4347 51.282 47.4792 51.7103 47.5167 52.1387C47.5308 52.2814 47.5495 52.4242 47.5472 52.5646C47.5402 52.8573 47.5003 53.15 47.5074 53.4427C47.5167 53.8187 47.5776 54.1923 47.5894 54.5683C47.6011 54.93 47.5612 55.2941 47.5706 55.6558C47.587 56.215 47.6432 56.7742 47.6503 57.3334C47.655 57.7879 47.587 58.2425 47.6011 58.697C47.6222 59.4251 47.6901 60.1509 47.7229 60.8791C47.7299 61.0314 47.6526 61.1885 47.662 61.3431C47.6831 61.7263 47.7768 62.1022 47.7182 62.4973C47.662 62.8733 47.6714 63.2611 47.655 63.6443C47.6503 63.7466 47.6573 63.8489 47.6667 63.9512C47.6854 64.1702 47.7229 64.3891 47.7252 64.608C47.7323 65.2315 47.7276 65.8549 47.7182 66.4784C47.7112 66.8925 47.6901 67.3065 47.6737 67.723C47.6503 68.2917 47.6222 68.8581 47.6011 69.4268C47.5894 69.7481 47.594 70.0717 47.5847 70.3929C47.5683 70.8689 47.5495 71.3448 47.5261 71.8207C47.5144 72.0801 47.4886 72.3419 47.4792 72.6012C47.4792 72.6441 47.512 72.7226 47.5425 72.7274C47.7932 72.775 48.0486 72.8083 48.3086 72.8487C48.2875 72.5203 48.2711 72.2657 48.2524 72.0111C48.2313 71.6946 48.1821 71.3781 48.1938 71.0616C48.2243 70.1716 48.2782 69.2816 48.3273 68.394C48.332 68.2941 48.3672 68.1918 48.407 68.099C48.4257 68.0537 48.5054 67.9871 48.5288 67.999C48.5804 68.0228 48.646 68.0847 48.6507 68.137C48.6835 68.563 48.6905 68.9889 48.8451 69.3959C48.9412 69.6505 48.8428 69.9003 48.8311 70.155C48.7912 70.9545 48.7936 71.7589 48.7819 72.5608C48.7819 72.6369 48.7819 72.7107 48.7819 72.8297C49.1614 72.7559 49.6042 72.9772 49.7448 72.5584C49.6674 72.0753 49.6018 71.6994 49.5526 71.3234C49.5409 71.2377 49.5948 71.1473 49.6159 71.0569C49.6276 71.0093 49.6417 70.9569 49.637 70.9093C49.5972 70.5643 49.5503 70.2192 49.5105 69.8742C49.5034 69.8242 49.5105 69.7718 49.5128 69.7219C49.5175 69.3197 49.5316 68.9152 49.5222 68.513C49.5128 68.1323 49.48 67.7515 49.4613 67.3684C49.4449 67.0162 49.4238 66.6616 49.4191 66.3095C49.4144 65.9834 49.4378 65.6598 49.4308 65.3338C49.4191 64.7865 49.3886 64.2368 49.3769 63.6895C49.3722 63.4943 49.398 63.2992 49.3957 63.1041C49.3957 62.8994 49.3676 62.6972 49.3722 62.4925C49.3746 62.3592 49.4355 62.226 49.4355 62.0927C49.4355 61.7977 49.4191 61.5002 49.4051 61.2027C49.391 60.8886 49.3722 60.5769 49.3629 60.2628C49.3535 59.9748 49.3512 59.6893 49.3558 59.4013C49.3558 59.2443 49.3886 59.0849 49.3863 58.9278C49.3816 58.6422 49.3465 58.3591 49.3488 58.0735C49.3535 57.6309 49.3887 57.1907 49.3957 56.748C49.4097 55.8842 49.4074 55.0228 49.4238 54.159C49.4308 53.8044 49.4777 53.4522 49.4777 53.0977C49.48 52.5456 49.4613 51.9935 49.4472 51.4438C49.4425 51.282 49.405 51.1202 49.4144 50.9607C49.4355 50.5705 49.473 50.1802 49.5058 49.79C49.5409 49.3545 49.3722 49.0665 48.974 48.8809C48.981 49.0047 48.9997 49.1332 48.9927 49.2593C48.9599 49.828 48.9013 50.3944 48.8873 50.9631C48.8756 51.4605 48.9177 51.9602 48.9177 52.4599C48.9177 52.7812 48.8709 53.1048 48.8662 53.4261C48.8568 53.9472 48.8826 54.4683 48.8615 54.9895C48.817 56.1579 48.7444 57.3239 48.6999 58.4899C48.6858 58.8493 48.7397 59.211 48.7397 59.5727C48.7397 59.9415 48.7116 60.3104 48.6881 60.6768C48.6811 60.7982 48.6249 60.9219 48.6343 61.0409C48.6577 61.4074 48.7209 61.7715 48.735 62.1356C48.7467 62.4663 48.7092 62.7995 48.7022 63.1326C48.6952 63.5634 48.7022 63.9917 48.6905 64.4224C48.6881 64.5557 48.6343 64.6865 48.6225 64.8198C48.6038 65.0459 48.5944 65.2743 48.5897 65.5028C48.5897 65.567 48.6225 65.6313 48.6436 65.6931C48.6624 65.7479 48.6858 65.8026 48.7092 65.8573C48.6764 65.874 48.6436 65.8906 48.6108 65.9073C48.564 65.8097 48.5031 65.7169 48.4703 65.6122C48.4445 65.5266 48.4562 65.429 48.4422 65.3362C48.3953 65.0435 48.332 64.7556 48.2992 64.4605C48.2852 64.3367 48.3391 64.2059 48.3438 64.0774C48.3672 63.53 48.1587 63.0065 48.2899 62.4354C48.3789 62.0499 48.2313 61.612 48.2243 61.198C48.2149 60.7054 48.2571 60.2128 48.2547 59.7226C48.2547 59.3704 48.2032 59.0206 48.2055 58.6684C48.2055 58.2734 48.2454 57.8784 48.2618 57.481C48.2688 57.3192 48.2547 57.1573 48.2594 56.9955C48.2828 56.3292 48.3156 55.6629 48.3297 54.9942C48.3367 54.7134 48.2946 54.4303 48.2922 54.1471C48.2922 53.6878 48.311 53.2309 48.3063 52.7717C48.3016 52.3814 48.2664 51.9888 48.2594 51.5985C48.25 51.0702 48.2547 50.5395 48.2547 50.0113C48.2547 49.9518 48.2688 49.8947 48.2735 49.8352C48.2922 49.4949 48.3484 49.1498 48.3133 48.8143C48.2875 48.5811 48.318 48.2765 48.0251 48.1409C47.7979 48.0362 47.5706 47.9291 47.3059 47.8077L47.3012 47.8101ZM41.7745 47.4222C41.7838 47.565 41.7932 47.6982 41.7979 47.8339C41.8026 48.0195 41.8166 48.2075 41.8049 48.3931C41.7745 48.8405 41.73 49.2879 41.6901 49.7328C41.6901 49.74 41.6995 49.7495 41.6995 49.7566C41.6878 50.0969 41.6784 50.4348 41.6597 50.7751C41.6245 51.3915 41.58 52.0054 41.5402 52.6217C41.5238 52.8883 41.5214 53.1572 41.5004 53.4261C41.4558 53.9662 41.3996 54.5064 41.3551 55.049C41.3364 55.2846 41.3481 55.5225 41.3293 55.7557C41.3129 55.9747 41.2544 56.1912 41.252 56.4078C41.2473 56.8551 41.2848 57.3049 41.2731 57.7523C41.2614 58.2567 41.2075 58.7612 41.1888 59.2681C41.1724 59.6512 41.1888 60.0367 41.1747 60.4198C41.1677 60.6126 41.1044 60.803 41.1068 60.9957C41.1161 61.5216 41.1489 62.0451 41.1724 62.571C41.1864 62.878 41.1934 63.185 41.2075 63.492C41.2192 63.7609 41.238 64.0274 41.2497 64.2963C41.2661 64.658 41.2684 65.0221 41.2918 65.3838C41.3129 65.6884 41.3738 65.9906 41.3809 66.2928C41.3949 66.8473 41.3809 67.4017 41.3879 67.9538C41.3973 68.5273 41.4254 69.1008 41.4371 69.6743C41.4441 70.0217 41.4418 70.3691 41.4254 70.7142C41.3949 71.3615 41.3504 72.0063 41.3082 72.6917C41.4558 72.6726 41.6105 72.6512 41.7956 72.6274C41.7417 72.518 41.6925 72.468 41.6925 72.4156C41.6831 71.9207 41.669 71.4257 41.6854 70.9307C41.6995 70.4976 41.7557 70.0669 41.7768 69.6338C41.7932 69.3054 41.7698 68.9747 41.7979 68.6487C41.8377 68.1941 41.9057 67.742 41.9666 67.2923C41.9736 67.2351 42.0252 67.1852 42.0556 67.1328C42.0954 67.1852 42.1634 67.2375 42.1704 67.2946C42.1962 67.5588 42.1938 67.8253 42.222 68.0894C42.2735 68.5796 42.3649 69.0651 42.3016 69.5648C42.2454 70.0193 42.3766 70.4715 42.2735 70.9379C42.1634 71.4352 42.1423 71.954 42.0978 72.4656C42.0931 72.5203 42.1821 72.6274 42.2383 72.6369C42.5031 72.6774 42.7725 72.6917 43.0818 72.7178C43.0654 72.556 43.0443 72.4085 43.0373 72.2586C43.0138 71.7113 42.9904 71.1616 42.9787 70.6142C42.967 70.0265 42.9763 69.4387 42.9646 68.8509C42.9576 68.5344 42.8615 68.206 42.9178 67.9062C43.0068 67.435 42.9435 66.971 42.9506 66.507C42.9599 66.0239 42.9295 65.5408 42.9389 65.0578C42.9529 64.3701 42.9951 63.6823 43.0091 62.9946C43.0232 62.383 43.0091 61.7715 43.0185 61.1599C43.0255 60.6221 43.0419 60.0867 43.0537 59.5489C43.0583 59.3109 43.0677 59.0753 43.0677 58.8374C43.0677 58.5994 43.0209 58.3567 43.0607 58.1282C43.131 57.707 42.9482 57.2716 43.1427 56.8623C43.1497 56.8504 43.1357 56.829 43.1357 56.8123C43.1263 55.9294 43.1169 55.049 43.1052 54.1661C43.1005 53.7759 43.0771 53.3856 43.0771 52.9953C43.0771 52.3528 43.0982 51.7103 43.1029 51.0678C43.1029 50.7037 43.0841 50.3397 43.0841 49.9756C43.0841 49.7447 43.1052 49.5163 43.1075 49.2855C43.1075 49.0213 43.0818 48.7572 43.0935 48.4954C43.1146 48.0385 43.1567 47.5816 43.1942 47.0938C43.0045 47.1152 42.8615 47.1343 42.6975 47.1533C42.6975 47.6126 42.6975 48.0504 42.6975 48.4883C42.6975 48.9023 42.6975 49.314 42.6858 49.7281C42.6788 49.9732 42.6062 50.2207 42.6273 50.461C42.6601 50.8156 42.6788 51.1606 42.653 51.52C42.6155 52.0292 42.6671 52.5432 42.653 53.0548C42.6343 53.7211 42.5851 54.3851 42.5523 55.0514C42.5429 55.2655 42.5476 55.4797 42.5476 55.6915C42.5476 56.1032 42.5546 56.5172 42.5476 56.9289C42.5382 57.3525 42.5101 57.7761 42.4961 58.202C42.4914 58.3638 42.5078 58.5256 42.5031 58.6875C42.4984 58.8802 42.4773 59.073 42.4773 59.2657C42.4773 59.5299 42.5101 59.7964 42.4961 60.0605C42.4609 60.7173 42.393 61.3741 42.3625 62.0309C42.3391 62.502 42.3578 62.9756 42.3508 63.4467C42.3461 63.7537 42.2852 64.0512 42.3086 64.3701C42.3391 64.7556 42.1798 65.1553 42.1025 65.548C42.079 65.548 42.058 65.548 42.0345 65.548C42.0111 65.4433 41.9689 65.3386 41.9689 65.2362C41.9713 64.9911 42.0111 64.7437 42.0041 64.4986C41.9994 64.3153 41.9268 64.1345 41.9127 63.9512C41.8916 63.6657 41.8916 63.3777 41.8869 63.0898C41.8846 62.9399 41.8916 62.79 41.894 62.64C41.8963 62.4663 41.9033 62.295 41.9057 62.1213C41.9057 61.8262 41.8916 61.5335 41.9057 61.2384C41.9244 60.8125 41.976 60.3889 41.9877 59.9629C42.0041 59.3466 41.9924 58.7303 42.0041 58.1116C42.0088 57.8403 42.0556 57.5714 42.0626 57.3001C42.0697 56.967 42.0486 56.6338 42.0533 56.3007C42.065 55.3274 42.0884 54.3517 42.0954 53.3785C42.1001 52.6789 42.0814 51.9792 42.0767 51.2796C42.0744 50.8132 42.0697 50.3444 42.0861 49.878C42.1072 49.2117 42.147 48.5454 42.1728 47.8791C42.1798 47.6982 42.1728 47.5174 42.1728 47.3342C42.0392 47.3651 41.9221 47.3937 41.7698 47.4293L41.7745 47.4222ZM45.8299 47.3389C45.8299 48.029 45.8041 48.7001 45.8393 49.3664C45.865 49.8376 45.9517 50.2992 45.9025 50.7823C45.851 51.2796 45.9166 51.7912 45.9189 52.2957C45.9189 52.9335 45.9002 53.5736 45.8978 54.2113C45.8978 54.7491 45.9049 55.2869 45.9119 55.8271C45.9189 56.3554 45.9213 56.8861 45.94 57.4143C45.9588 57.9307 46.0033 58.4471 46.022 58.9635C46.0384 59.4132 46.0361 59.863 46.0384 60.3128C46.0431 60.9505 45.9892 61.593 46.0642 62.2212C46.1274 62.7614 46.0244 63.2849 46.0548 63.8156C46.0759 64.1606 46.0478 64.5081 46.0337 64.8531C46.0244 65.0554 45.9986 65.26 45.9752 65.5147C45.9096 65.4433 45.8674 65.4195 45.8604 65.3885C45.7948 65.1363 45.7245 64.8841 45.6846 64.6271C45.6659 64.5009 45.7081 64.3629 45.7221 64.232C45.7268 64.1844 45.7292 64.1368 45.7245 64.0916C45.701 63.8632 45.6659 63.6347 45.6565 63.4063C45.6284 62.7448 45.6214 62.0832 45.5886 61.424C45.5652 60.9386 45.4925 60.4555 45.4761 59.9701C45.4597 59.4608 45.6026 58.9468 45.4246 58.4424C45.4222 58.4352 45.4246 58.4257 45.4246 58.4162C45.4996 58.0925 45.5417 57.7689 45.4761 57.4334C45.4363 57.2335 45.4222 57.0265 45.4222 56.8242C45.4222 56.422 45.4574 56.0223 45.4433 55.6201C45.4222 54.9728 45.359 54.3279 45.3426 53.6831C45.3192 52.8288 45.3192 51.9721 45.3121 51.1178C45.3075 50.6871 45.3075 50.2564 45.3051 49.8257C45.3051 49.5377 45.3051 49.2498 45.3004 48.9618C45.2957 48.612 45.2817 48.2646 45.277 47.9172C45.2723 47.6626 45.277 47.4079 45.277 47.1462C45.1317 47.1248 44.9841 47.1033 44.8155 47.0772C44.8155 47.1985 44.8108 47.2985 44.8155 47.3984C44.8389 47.8363 44.8834 48.2741 44.8881 48.7144C44.8951 49.2902 44.8647 49.8661 44.8623 50.442C44.8623 50.7609 44.8904 51.0773 44.8928 51.3962C44.8975 52.5147 44.8623 53.6378 44.9092 54.7539C44.9443 55.5987 44.8014 56.4339 44.9256 57.2858C45.0216 57.9569 44.9349 58.6565 44.9349 59.3442C44.9349 59.5061 44.9654 59.6679 44.9654 59.8273C44.9654 60.2794 44.9537 60.7292 44.9537 61.1813C44.9537 61.3193 44.9959 61.455 44.9959 61.593C45.0005 62.1118 44.9959 62.6305 44.9959 63.1493C44.9959 63.6038 44.9959 64.0583 45.0005 64.5152C45.0029 64.8626 45.0779 65.2077 44.9654 65.5599C44.9256 65.686 45.0451 65.8549 45.0451 66.0025C45.0404 66.3999 44.9396 66.8068 45.0029 67.1899C45.1013 67.7872 45.0357 68.375 45.031 68.9675C45.024 69.6243 44.9748 70.2787 44.9584 70.9355C44.9467 71.4209 44.9584 71.9064 44.956 72.3918C44.956 72.4989 44.9443 72.6084 44.9396 72.7178C45.2184 72.6941 45.4457 72.6845 45.6682 72.6465C45.7526 72.6322 45.8885 72.5537 45.8932 72.4942C45.9142 72.2871 45.9119 72.0706 45.8744 71.8659C45.776 71.3115 45.6425 70.7642 45.68 70.1907C45.7081 69.7361 45.694 69.2816 45.7104 68.8247C45.7198 68.5701 45.8276 68.3012 45.769 68.068C45.6659 67.6492 45.8369 67.3137 45.933 66.9305C45.9822 66.9662 46.008 66.9758 46.0197 66.9972C46.0384 67.0234 46.0525 67.0567 46.0572 67.09C46.0876 67.4565 46.1157 67.8205 46.1415 68.187C46.1649 68.494 46.1813 68.801 46.2048 69.1079C46.2212 69.3102 46.2493 69.5148 46.261 69.7171C46.2727 69.9027 46.275 70.0883 46.2774 70.2763C46.2774 70.3953 46.2704 70.5143 46.2727 70.6357C46.2821 71.1663 46.3196 71.6946 46.3008 72.2229C46.2844 72.6417 46.3594 72.7512 46.7272 72.6369C46.6967 72.5275 46.6429 72.418 46.6382 72.3085C46.6171 71.7922 46.6077 71.2758 46.5983 70.757C46.596 70.6023 46.6124 70.4477 46.603 70.293C46.5773 69.8623 46.5187 69.4316 46.5163 68.9985C46.514 68.5202 46.5585 68.0418 46.5819 67.5635C46.6101 66.99 46.6382 66.4189 46.6616 65.8454C46.671 65.5694 46.6593 65.291 46.671 65.0149C46.6874 64.6033 46.7202 64.194 46.7436 63.7823C46.7553 63.561 46.7553 63.3373 46.7694 63.116C46.7951 62.7638 46.8818 62.4068 46.8467 62.0618C46.7951 61.5549 46.9006 61.0576 46.8326 60.546C46.7553 59.9606 46.7787 59.3585 46.7623 58.7636C46.7436 58.0378 46.7295 57.312 46.7155 56.5886C46.7131 56.472 46.7202 56.3554 46.7131 56.2388C46.6921 55.9604 46.6522 55.6843 46.6382 55.4059C46.6194 55.0752 46.6288 54.7444 46.6101 54.416C46.5726 53.7616 46.5281 53.1096 46.4835 52.4552C46.4625 52.1315 46.4437 51.8055 46.4156 51.4819C46.3875 51.1773 46.3336 50.8727 46.3149 50.5657C46.2797 49.9779 46.261 49.3902 46.2399 48.8024C46.2282 48.4788 46.2024 48.1528 46.2141 47.8291C46.2258 47.446 46.2422 47.4484 45.851 47.3413L45.8299 47.3389ZM36.6273 53.0287H36.5828C36.564 53.219 36.5664 53.4142 36.5242 53.5998C36.4281 54.0352 36.3204 54.4636 36.4188 54.9157C36.4281 54.9609 36.4071 55.0157 36.3977 55.0633C36.3625 55.2608 36.3016 55.4583 36.2923 55.6582C36.2595 56.2674 36.2431 56.8765 36.2196 57.4857C36.1915 58.252 36.1587 59.0182 36.133 59.7868C36.1283 59.9011 36.1517 60.0177 36.147 60.1319C36.1306 60.4508 36.0884 60.7696 36.0884 61.0885C36.0884 61.4716 36.1212 61.8548 36.1423 62.2379C36.1587 62.5401 36.2009 62.8447 36.1962 63.1469C36.1892 63.6038 36.1236 64.0607 36.1306 64.5152C36.14 65.053 36.2103 65.5908 36.236 66.131C36.2641 66.6831 36.2712 67.2375 36.2852 67.7896C36.2923 68.0704 36.2993 68.3512 36.2946 68.6296C36.2899 68.9318 36.1939 69.2602 36.2829 69.5267C36.4071 69.9003 36.3297 70.2644 36.3719 70.6285C36.4375 71.1901 36.4 71.766 36.4071 72.3347C36.4117 72.6869 36.5687 72.8011 36.9178 72.7202C36.885 72.6084 36.8288 72.4965 36.8217 72.3823C36.8007 71.9992 36.796 71.6161 36.7889 71.2329C36.7796 70.5238 36.7819 69.8171 36.7679 69.1079C36.7632 68.8795 36.6905 68.651 36.6999 68.425C36.7304 67.7135 36.8124 67.0019 36.8194 66.2904C36.8241 65.6979 36.7397 65.103 36.7163 64.5081C36.6976 64.0226 36.7163 63.5348 36.714 63.0493C36.714 62.8376 36.6741 62.6258 36.6788 62.414C36.6835 62.1141 36.7257 61.8119 36.7257 61.5121C36.721 60.7125 36.6788 59.913 36.7023 59.1158C36.7116 58.8183 36.8147 58.4971 37.1287 58.3115C37.1497 58.3662 37.1708 58.3971 37.1732 58.4281C37.1942 58.8088 37.2224 59.1896 37.227 59.5703C37.2317 59.8868 37.1943 60.2057 37.1943 60.5222C37.1943 61.4003 37.2083 62.2783 37.2177 63.1588C37.2224 63.5681 37.2177 63.9798 37.2434 64.3867C37.2833 65.0673 37.3629 65.7455 37.391 66.4261C37.4074 66.8496 37.3465 67.2756 37.3348 67.6992C37.3231 68.0966 37.3348 68.4916 37.3231 68.889C37.302 69.472 37.2739 70.055 37.2388 70.6357C37.1989 71.2591 37.1568 71.885 37.0935 72.5061C37.0724 72.7155 37.1357 72.794 37.3254 72.8011C37.4684 72.8059 37.6113 72.8011 37.7542 72.8107C38.0236 72.8273 38.1033 72.725 38.0236 72.4585C38.0049 72.3942 38.0025 72.3252 38.0025 72.2586C38.0025 71.7731 38.0588 71.2948 37.9463 70.8046C37.862 70.431 37.9112 70.0241 37.9182 69.6314C37.9252 69.1746 37.944 68.7153 37.9697 68.2584C37.9791 68.0728 38.0424 67.8872 38.0447 67.7016C38.0517 67.1542 38.0377 66.6045 38.0353 66.0572C38.0353 65.7312 38.0424 65.4076 38.0517 65.0816C38.0658 64.6532 38.115 64.2273 38.1033 63.8013C38.0869 63.2659 38.0072 62.7329 37.9885 62.1998C37.9697 61.6573 37.9885 61.1099 37.9978 60.5674C38.0072 60.12 38.026 59.675 37.9791 59.2229C37.9252 58.7255 37.965 58.2163 37.965 57.7118C37.965 57.4239 37.9744 57.1383 37.9674 56.8504C37.951 56.0318 37.9229 55.2132 37.9112 54.3946C37.9065 54.0448 37.9346 53.695 37.9276 53.3452C37.9158 52.8811 37.869 52.4195 37.8643 51.9554C37.8596 51.4652 37.8877 50.975 37.8924 50.4848C37.8924 50.3872 37.8549 50.2921 37.8221 50.1302C37.7237 50.2968 37.6745 50.3968 37.6089 50.4824C37.4285 50.7204 37.3208 50.975 37.3418 51.2868C37.3606 51.5604 37.3629 51.8365 37.3536 52.1101C37.3395 52.5503 37.3114 52.9882 37.288 53.4284C37.2716 53.7616 37.2552 54.0947 37.2388 54.4255C37.2177 54.8515 37.1404 55.2846 37.1966 55.6962C37.2341 55.9628 37.2388 56.1936 37.1685 56.4435C37.1287 56.5815 37.1216 56.7266 37.0841 56.8646C37.0584 56.9551 37.0045 57.036 36.9623 57.1193C36.9014 57.0384 36.8007 56.9622 36.7866 56.8742C36.7187 56.4054 36.6507 55.9342 36.6273 55.4607C36.6039 54.9776 36.6273 54.4898 36.6343 54.0043C36.639 53.7092 36.6554 53.4165 36.6624 53.1215C36.6624 53.0905 36.646 53.0596 36.6367 53.0287H36.6273ZM51.1177 72.7393C51.4269 72.8011 51.5628 72.7012 51.5675 72.3538C51.5698 72.1991 51.5464 72.0444 51.5534 71.8897C51.5768 71.3567 51.612 70.8213 51.6354 70.2882C51.6518 69.9146 51.6542 69.5386 51.6635 69.165C51.6729 68.839 51.694 68.5154 51.6916 68.1894C51.6916 67.8753 51.6518 67.5612 51.6612 67.247C51.6706 66.8639 51.7151 66.4808 51.7408 66.0977C51.7526 65.924 51.7408 65.7502 51.7572 65.5765C51.7783 65.3505 51.8228 65.1244 51.8439 64.8983C51.9119 64.1511 51.6799 63.3992 51.8674 62.6519C51.8767 62.6115 51.8603 62.5663 51.8556 62.5234C51.8392 62.3021 51.7783 62.0713 51.8182 61.8619C51.947 61.1599 51.7877 60.4627 51.8346 59.7631C51.8603 59.3609 51.8275 58.9516 51.8064 58.5471C51.7854 58.114 51.7455 57.6809 51.7174 57.2478C51.7034 57.0312 51.6987 56.8147 51.694 56.5957C51.6893 56.3863 51.7034 56.1769 51.6846 55.9699C51.6518 55.5773 51.5886 55.187 51.5628 54.7944C51.5511 54.6206 51.6471 54.435 51.6214 54.2661C51.5581 53.8592 51.4527 53.457 51.3636 53.0525C51.3402 53.1215 51.3379 53.1929 51.3426 53.2619C51.3496 53.388 51.3683 53.5165 51.373 53.6426C51.3847 53.9234 51.3918 54.2018 51.3965 54.4826C51.3988 54.6706 51.3918 54.8586 51.3941 55.0466C51.3988 55.5392 51.1715 56.0056 51.2489 56.5172C51.277 56.7123 51.2723 56.9836 51.0216 57.1907C50.9677 57.0574 50.9068 56.9575 50.8904 56.8504C50.8271 56.4363 50.717 56.0389 50.792 55.5915C50.8623 55.168 50.7405 54.7134 50.7053 54.2708C50.7006 54.228 50.6983 54.1852 50.6959 54.1423C50.6585 53.5926 50.7967 53.0429 50.6819 52.4909C50.6421 52.3029 50.635 52.103 50.6374 51.9102C50.6421 51.4819 50.7358 51.044 50.4991 50.6466C50.4054 50.4896 50.2953 50.3444 50.1922 50.1921H50.1243C50.1149 50.3278 50.0962 50.4634 50.0985 50.5967C50.1009 50.8061 50.129 51.0155 50.1266 51.2249C50.122 51.5818 50.0962 51.9388 50.0915 52.2933C50.0868 52.7407 50.1032 53.1905 50.0962 53.6378C50.0892 54.0233 50.0423 54.4065 50.0423 54.792C50.0423 55.2275 50.0868 55.6629 50.0845 56.0984C50.0821 56.5862 50.047 57.0741 50.0282 57.5619C50.0118 58.0188 49.9931 58.4733 49.9884 58.9302C49.9837 59.2729 50.0048 59.6155 50.0048 59.9582C50.0048 60.3461 49.9837 60.7363 49.9837 61.1242C49.9837 61.4883 50.0212 61.8548 50.0072 62.2188C49.9837 62.8518 49.9252 63.4824 49.8947 64.113C49.8877 64.2534 49.9392 64.3962 49.9439 64.539C49.9626 65.172 49.9767 65.8026 49.9837 66.4356C49.9884 66.8401 49.972 67.247 49.965 67.654C49.965 67.7087 49.965 67.7658 49.9697 67.8205C49.9978 68.1584 50.0446 68.494 50.0564 68.8319C50.0657 69.1769 50.0001 69.5291 50.0423 69.8694C50.0821 70.2026 50.136 70.5238 50.0517 70.857C50.0212 70.9783 49.9908 71.1044 49.9884 71.2282C49.9767 71.7184 49.979 72.2062 49.9744 72.7535C50.2227 72.8939 50.5437 72.7916 50.8693 72.7535C50.8318 72.023 50.7967 71.3139 50.7569 70.6047C50.7334 70.1692 50.6936 69.7362 50.6795 69.3031C50.6608 68.7653 50.6678 68.2275 50.6538 67.6897C50.6397 67.1804 50.5882 66.6712 50.5999 66.1619C50.6139 65.6194 50.6913 65.0768 50.7241 64.5342C50.7498 64.1012 50.7428 63.6681 50.7592 63.235C50.7709 62.9637 50.8154 62.6924 50.8154 62.4211C50.8154 62.0904 50.7662 61.7596 50.7615 61.4264C50.7545 60.5531 50.7545 59.6798 50.7662 58.8041C50.7662 58.6399 50.8271 58.478 50.8717 58.2639C51.2957 58.6446 51.2981 59.0944 51.3027 59.5299C51.3074 60.1652 51.2887 60.7982 51.2746 61.4336C51.2723 61.5644 51.2137 61.6929 51.2161 61.8214C51.2231 62.1498 51.2653 62.4806 51.2653 62.809C51.2653 63.5967 51.2465 64.382 51.2325 65.1696C51.2278 65.4909 51.2207 65.8097 51.2067 66.131C51.1926 66.4618 51.1387 66.7925 51.1551 67.1185C51.1833 67.7111 51.3027 68.2988 51.2184 68.8985C51.1856 69.1341 51.2184 69.3792 51.2161 69.6219C51.2161 70.0455 51.2161 70.4691 51.2067 70.8927C51.1973 71.3186 51.1762 71.7422 51.1551 72.1682C51.1481 72.3466 51.1317 72.5251 51.12 72.7345L51.1177 72.7393ZM43.9838 46.9582C43.63 46.9629 43.6394 46.9629 43.6511 47.3032C43.6651 47.7244 43.6651 48.1456 43.6651 48.5668C43.6651 48.6596 43.623 48.7548 43.6253 48.8476C43.6464 49.3688 43.7284 49.8947 43.6886 50.4087C43.6534 50.8418 43.637 51.263 43.6722 51.6961C43.705 52.0816 43.6604 52.4718 43.6511 52.8597C43.63 53.614 43.5972 54.3684 43.5855 55.1204C43.5667 56.2745 43.562 57.4286 43.5574 58.5851C43.5574 58.7446 43.6112 58.904 43.6089 59.0634C43.6019 59.6012 43.5738 60.139 43.5667 60.6768C43.5527 61.6335 43.5456 62.5925 43.5386 63.5491C43.5316 64.6056 43.5269 65.6598 43.5199 66.7164C43.5152 67.2328 43.4871 67.7515 43.5035 68.2679C43.5339 69.1793 43.3652 70.0836 43.4238 70.995C43.4426 71.2615 43.4051 71.5352 43.3887 71.8041C43.384 71.8802 43.3652 71.9564 43.3582 72.0325C43.3371 72.2229 43.309 72.4156 43.309 72.606C43.309 72.6536 43.398 72.744 43.4472 72.7464C43.8174 72.7583 44.1899 72.7607 44.5601 72.744C44.6187 72.7416 44.7217 72.6274 44.7194 72.5703C44.7007 72.1515 44.6632 71.7303 44.628 71.3115C44.5882 70.8379 44.5413 70.3668 44.4992 69.8932C44.4992 69.867 44.4992 69.8409 44.4992 69.8147C44.5039 68.9889 44.5437 68.1608 44.4195 67.3375C44.4148 67.3042 44.4078 67.2685 44.4125 67.2375C44.464 66.852 44.4757 66.4713 44.4547 66.0739C44.4055 65.1744 44.4547 64.2677 44.4617 63.3635C44.4617 63.204 44.4242 63.0422 44.4242 62.8828C44.4265 62.4235 44.4523 61.9642 44.45 61.505C44.4453 61.029 44.4078 60.5507 44.4008 60.0748C44.3891 59.2657 44.3961 58.4543 44.3891 57.6452C44.3867 57.3096 44.3563 56.9741 44.3586 56.641C44.3633 56.1008 44.3961 55.563 44.3937 55.0228C44.3937 54.3827 44.3586 53.7449 44.3516 53.1048C44.3469 52.5694 44.3703 52.034 44.3727 51.4985C44.3727 51.0464 44.3656 50.5967 44.3539 50.1445C44.3399 49.5639 44.3164 48.9833 44.3024 48.4002C44.2977 48.2146 44.3118 48.029 44.3141 47.8434C44.3141 47.684 44.2907 47.5198 44.3141 47.3651C44.3563 47.0748 44.4242 46.9272 43.9838 46.9582Z" fill="#9B3C34"/>
<path d="M43.9978 20.1736C43.5574 20.5353 43.1193 20.878 42.7023 21.2468C42.3579 21.5514 42.0181 21.8513 41.6058 22.0678C41.3551 22.1987 41.156 22.4271 40.924 22.5961C40.5187 22.8936 40.0994 23.1696 39.6988 23.4742C39.4645 23.6527 39.2677 23.8835 39.031 24.062C38.778 24.2523 38.4922 24.3975 38.2321 24.576C37.9299 24.783 37.6347 25.0019 37.3466 25.2256C36.9951 25.4969 36.6484 25.7777 36.3017 26.0585C35.8846 26.3964 35.4723 26.7391 35.0553 27.077C34.9077 27.196 34.7484 27.2983 34.6008 27.4149C34.0268 27.8694 33.4528 28.3263 32.8835 28.7879C32.4594 29.133 32.0494 29.4947 31.6207 29.8326C31.0584 30.2752 30.4797 30.694 29.9175 31.1367C29.7207 31.2913 29.5567 31.4912 29.3646 31.653C29.1256 31.8577 28.8679 32.0409 28.6266 32.2432C28.4274 32.4098 28.2423 32.593 28.0479 32.7643C27.7949 32.9856 27.5348 33.1974 27.2865 33.4235C26.9983 33.6876 26.7312 33.9756 26.4337 34.2278C26.026 34.5729 25.5973 34.8894 25.185 35.2296C24.9811 35.3986 24.8031 35.5985 24.5992 35.7674C24.2806 36.0316 23.9479 36.2814 23.6199 36.5361C23.3552 36.7431 23.0881 36.9501 22.821 37.1524C22.7625 37.1976 22.6969 37.2452 22.6289 37.2619C22.144 37.3761 21.9401 37.1595 22.0151 36.6527C22.0971 36.1101 22.1393 35.5628 22.2189 35.0202C22.3291 34.2706 22.4579 33.5234 22.5821 32.7786C22.6102 32.612 22.6711 32.4478 22.6898 32.2813C22.7297 31.9552 22.7695 31.6269 22.7765 31.3008C22.7812 31.1081 22.7789 30.9534 22.9874 30.863C23.0717 30.8249 23.1444 30.7321 23.1982 30.6464C23.4302 30.2657 23.7347 29.9778 24.133 29.7755C24.3158 29.6827 24.4517 29.5042 24.618 29.3757C25.028 29.0616 25.4497 28.7665 25.8503 28.4429C26.0752 28.262 26.2627 28.036 26.4782 27.8432C26.7242 27.6243 26.9842 27.422 27.2349 27.2102C27.4669 27.0127 27.6894 26.8009 27.9307 26.6177C28.3126 26.325 28.7156 26.0609 29.0951 25.7634C29.5754 25.3874 30.0346 24.9805 30.5172 24.6045C30.7257 24.4403 30.9788 24.3356 31.1943 24.1786C31.5036 23.9573 31.7917 23.7074 32.0963 23.479C32.3891 23.26 32.696 23.0554 32.9912 22.8388C33.167 22.7103 33.345 22.5794 33.5067 22.4343C33.8698 22.113 34.2142 21.7751 34.582 21.461C34.8046 21.2706 35.067 21.1255 35.2942 20.9399C35.491 20.7804 35.655 20.5805 35.8542 20.4211C36.2361 20.1189 36.6367 19.8429 37.0162 19.5383C37.3325 19.286 37.623 19.0028 37.9346 18.7458C38.1408 18.5769 38.3774 18.4412 38.5812 18.2699C38.8788 18.0224 39.1576 17.7511 39.4528 17.4989C39.7034 17.2847 39.9705 17.0896 40.2259 16.8778C40.4649 16.6803 40.6945 16.4733 40.9287 16.271C40.9662 16.2377 40.999 16.1972 41.0388 16.1639C41.3387 15.9236 41.6363 15.6832 41.9408 15.45C42.1493 15.2906 42.3743 15.1526 42.5804 14.9931C42.8124 14.8147 43.049 14.6386 43.2528 14.4292C43.6183 14.0532 44.2391 14.0484 44.6796 14.4149C45.0544 14.729 45.4551 15.0074 45.8346 15.312C46.0947 15.5214 46.3383 15.7522 46.596 15.9664C46.8654 16.1901 47.1419 16.4066 47.4113 16.6303C47.908 17.0396 48.4 17.4584 48.9014 17.863C49.2364 18.1343 49.5902 18.3794 49.9252 18.6483C50.1641 18.8386 50.3773 19.0623 50.6163 19.2527C50.9256 19.4954 51.2582 19.7048 51.5628 19.9547C51.8861 20.2212 52.179 20.5234 52.4999 20.7947C52.6991 20.9637 52.9287 21.0969 53.1302 21.2635C53.5472 21.6109 53.9455 21.9798 54.3672 22.3177C54.7397 22.6175 55.1403 22.8864 55.5198 23.1791C55.8666 23.4456 56.2016 23.7288 56.5507 23.9953C56.7756 24.1667 57.0216 24.3142 57.2512 24.4832C57.5839 24.7283 57.9072 24.9829 58.2375 25.2304C58.5116 25.435 58.7881 25.6325 59.0622 25.8348C59.2871 26.0014 59.512 26.1632 59.7299 26.3393C60.2289 26.7462 60.7279 27.1531 61.2176 27.5719C61.4776 27.7933 61.7143 28.0455 61.9696 28.2739C62.1875 28.4667 62.4195 28.6475 62.6467 28.8284C62.956 29.0735 63.2676 29.3186 63.5792 29.5613C63.865 29.7826 64.1578 29.9944 64.439 30.2181C64.5374 30.2966 64.6194 30.3942 64.699 30.4942C64.767 30.5798 64.8021 30.7202 64.8864 30.7607C65.2707 30.9463 65.184 31.3008 65.2215 31.6173C65.2636 31.979 65.3316 32.3384 65.3855 32.7001C65.4066 32.8429 65.4136 32.988 65.437 33.1308C65.5495 33.7947 65.6713 34.4563 65.7767 35.1202C65.8657 35.6865 65.9524 36.2577 65.9993 36.8288C66.011 36.962 65.8751 37.1453 65.758 37.2428C65.5729 37.3975 65.3574 37.288 65.198 37.1667C64.7154 36.8026 64.2469 36.4218 63.7783 36.0411C63.3074 35.658 62.8388 35.2725 62.3796 34.8775C61.9767 34.53 61.5901 34.1636 61.1871 33.8185C60.9107 33.5829 60.6155 33.3664 60.332 33.1403C60.2734 33.0927 60.2102 33.0475 60.161 32.9904C59.7814 32.5502 59.3504 32.1766 58.8607 31.8601C58.5983 31.6911 58.3968 31.4222 58.1602 31.208C57.9657 31.0343 57.7619 30.8701 57.5581 30.7083C57.2746 30.4846 56.9841 30.2752 56.703 30.0492C56.1641 29.6161 55.63 29.1782 55.0981 28.7403C54.6764 28.3929 54.2641 28.036 53.8353 27.6981C53.587 27.5006 53.3129 27.3364 53.0575 27.146C52.8748 27.008 52.7131 26.8462 52.5351 26.7034C52.2469 26.4725 51.9517 26.2536 51.6659 26.0228C51.3285 25.7491 51.0029 25.4612 50.6655 25.1875C50.5554 25.0971 50.4219 25.04 50.3 24.9615C49.8994 24.7045 49.4964 24.4498 49.1028 24.1857C48.9646 24.0929 48.8194 23.9882 48.721 23.8573C48.4305 23.4718 48.0017 23.2862 47.6245 23.0221C47.3574 22.8341 47.1068 22.6199 46.8467 22.4224C46.6265 22.2558 46.3945 22.1011 46.1743 21.9322C45.8651 21.6942 45.5628 21.4515 45.2606 21.2064C44.9795 20.9779 44.7007 20.7471 44.4219 20.5163C44.2813 20.3997 44.1407 20.2807 44.0025 20.1641L43.9978 20.1736ZM65.2777 36.36C65.2988 36.2862 65.3128 36.26 65.3105 36.2386C65.2051 35.589 65.0996 34.9417 64.9895 34.2921C64.9825 34.2492 64.9427 34.2016 64.9052 34.1778C64.6967 34.047 64.4741 33.9351 64.2726 33.7923C63.6729 33.364 63.0801 32.9238 62.4851 32.4883C61.89 32.0552 61.2926 31.6221 60.6998 31.1866C60.4773 31.0224 60.2594 30.8535 60.0462 30.6774C59.8142 30.4823 59.601 30.2609 59.3621 30.0777C59.1536 29.9183 58.9076 29.8088 58.6991 29.6494C58.2492 29.3091 57.8135 28.9474 57.366 28.6023C57.0052 28.3239 56.6257 28.0645 56.2695 27.7814C55.9275 27.5077 55.6393 27.1484 55.2645 26.9413C54.7865 26.6772 54.4468 26.2512 53.99 25.9633C53.5238 25.6706 53.1161 25.2827 52.6827 24.9377C52.2516 24.595 51.8158 24.2571 51.3894 23.9097C51.0169 23.6075 50.6608 23.2862 50.286 22.9864C49.8057 22.6032 49.3114 22.2344 48.8264 21.856C48.6811 21.7418 48.5476 21.6086 48.3977 21.4991C48.1165 21.2897 47.8237 21.0993 47.5425 20.8875C47.0833 20.5401 46.6335 20.1831 46.179 19.831C45.8205 19.5525 45.4574 19.2741 45.1013 18.9933C44.7546 18.722 44.4149 18.4436 44.0658 18.1771C44.0259 18.1462 43.9182 18.1509 43.876 18.1842C43.6769 18.3389 43.4894 18.5103 43.2973 18.6768C43.0982 18.8482 42.9061 19.029 42.6976 19.1885C42.1587 19.6001 41.6105 20.0023 41.067 20.4068C40.7975 20.6067 40.5234 20.8066 40.2563 21.0089C39.9822 21.2159 39.7034 21.4206 39.4364 21.6371C39.0498 21.9512 38.682 22.2891 38.2907 22.5985C37.8362 22.9578 37.3606 23.2933 36.9014 23.6503C36.6531 23.843 36.4235 24.0643 36.1798 24.2642C35.9081 24.4879 35.6316 24.7116 35.3505 24.9258C34.985 25.2066 34.6125 25.4779 34.2447 25.7539C34.0338 25.9109 33.8206 26.068 33.6191 26.2346C33.5231 26.3131 33.4551 26.4273 33.3567 26.5035C32.928 26.839 32.4899 27.1626 32.0611 27.4958C31.4778 27.9503 30.9014 28.4143 30.3134 28.8641C29.5871 29.4209 28.8538 29.9682 28.1252 30.5227C27.4786 31.0129 26.8366 31.5126 26.1853 32.0005C25.6301 32.4169 25.0678 32.8262 24.5055 33.2355C24.3275 33.364 24.1401 33.4806 23.9597 33.6067C23.6598 33.8114 23.3599 34.0184 23.0647 34.2302C23.0296 34.254 23.0155 34.3182 23.0085 34.3658C22.903 34.9703 22.8023 35.5747 22.7016 36.1791C22.6945 36.222 22.7109 36.2696 22.718 36.3219C23.1889 35.9459 23.6481 35.5914 24.0909 35.2177C24.3603 34.9893 24.5969 34.7204 24.864 34.4896C25.2693 34.135 25.691 33.7971 26.1033 33.452C26.4805 33.1379 26.8835 32.8524 27.2256 32.5026C27.6215 32.0956 28.0081 31.6935 28.4907 31.3794C28.9452 31.0819 29.3599 30.7107 29.7675 30.3466C30.1564 29.9992 30.6109 29.7398 30.9647 29.3376C31.2552 29.0092 31.6746 28.7998 32.0213 28.5167C32.4407 28.174 32.839 27.8075 33.2536 27.4601C33.8675 26.9485 34.5961 26.5915 35.1396 25.9847C35.238 25.8753 35.4254 25.8586 35.5473 25.7634C35.7839 25.5802 35.9947 25.3613 36.2314 25.178C36.7116 24.8044 37.2013 24.4427 37.691 24.081C37.8268 23.9811 37.9791 23.9049 38.1103 23.8002C38.5109 23.4837 38.8975 23.1529 39.3005 22.8412C39.6378 22.5794 39.9916 22.3415 40.3337 22.0845C40.4813 21.975 40.6101 21.8418 40.7554 21.7323C41.2591 21.3515 41.7675 20.9779 42.2712 20.5972C42.4797 20.4401 42.6788 20.2712 42.8803 20.1046C42.9998 20.007 43.1427 19.9285 43.2294 19.8072C43.4426 19.5097 43.6698 19.2741 44.0705 19.3574C44.1899 19.3812 44.3399 19.3645 44.4219 19.4336C44.6655 19.643 44.8787 19.8904 45.1154 20.1094C45.2302 20.2165 45.3988 20.2736 45.4926 20.3949C45.769 20.7566 46.1532 20.966 46.5117 21.2183C46.7741 21.4015 47.0482 21.5776 47.2778 21.7989C47.6034 22.113 47.9549 22.3819 48.3367 22.6175C48.4351 22.677 48.5499 22.7151 48.639 22.7865C49.1052 23.1506 49.5597 23.5289 50.0283 23.8906C50.457 24.2214 50.9021 24.5284 51.3332 24.8568C51.5558 25.0257 51.7549 25.2232 51.9798 25.3874C52.3031 25.6254 52.6475 25.8324 52.9638 26.0751C53.3785 26.394 53.7698 26.7414 54.1774 27.0675C54.8404 27.5981 55.5175 28.1145 56.1758 28.6523C56.5905 28.9902 56.9724 29.3686 57.3871 29.7065C57.7643 30.0135 58.1719 30.2847 58.5585 30.5822C58.9966 30.9201 59.4347 31.258 59.8587 31.615C60.1282 31.841 60.3695 32.1052 60.6295 32.3431C60.8474 32.5406 61.077 32.7239 61.2949 32.9214C61.6791 33.2688 62.0563 33.6234 62.4405 33.9684C62.717 34.2159 63.0005 34.4539 63.284 34.6918C63.53 34.8989 63.7783 35.1035 64.0243 35.3082C64.2187 35.4676 64.4132 35.6247 64.6053 35.7865C64.8232 35.9697 65.0364 36.1553 65.28 36.3624L65.2777 36.36ZM23.1444 33.6805C23.1701 33.6972 23.1982 33.7114 23.224 33.7281C23.5426 33.4663 23.8613 33.2093 24.1775 32.9428C24.5571 32.6239 24.9296 32.2979 25.3068 31.9767C25.3138 31.9719 25.3232 31.9719 25.3302 31.9648C25.6465 31.7339 26.0284 31.5602 26.2603 31.2604C26.5907 30.8321 27.0569 30.5965 27.4294 30.2348C27.9331 29.7469 28.5094 29.3353 29.0553 28.8926C29.2615 28.7261 29.4676 28.5547 29.6832 28.3977C29.8073 28.3049 29.9596 28.2478 30.0791 28.1526C30.5313 27.7909 30.9717 27.4149 31.4239 27.0532C31.8011 26.7486 32.1853 26.4559 32.5649 26.1561C32.839 25.9419 33.099 25.7039 33.3919 25.5183C33.6379 25.3613 33.8019 25.1185 34.09 24.9972C34.3735 24.8758 34.5914 24.6045 34.8421 24.4023C34.978 24.2928 35.1232 24.1976 35.2568 24.0881C35.5074 23.8835 35.7511 23.6646 36.0065 23.4647C36.2337 23.2862 36.4821 23.1363 36.7093 22.9602C37.2154 22.5652 37.7144 22.1559 38.2181 21.7585C38.4617 21.5657 38.7194 21.3872 38.9631 21.1921C39.2396 20.9708 39.5043 20.7328 39.7808 20.5115C40.4742 19.9571 41.1724 19.405 41.8705 18.8577C41.9994 18.7577 42.1564 18.6959 42.2852 18.5959C42.5242 18.4103 42.7491 18.208 42.9834 18.0153C43.1052 17.9153 43.2552 17.8416 43.3512 17.7202C43.6558 17.3347 44.2485 17.3871 44.5507 17.6203C44.7522 17.7749 44.942 17.9463 45.1411 18.1081C45.4691 18.3722 45.8041 18.6316 46.1321 18.8958C46.2868 19.0219 46.4273 19.1694 46.5867 19.2884C47.2333 19.7762 47.8893 20.2474 48.5289 20.74C48.9271 21.047 49.302 21.3849 49.6956 21.699C49.9228 21.8798 50.1735 22.0321 50.4055 22.213C50.8037 22.5223 51.1926 22.846 51.5909 23.1577C51.783 23.3076 51.9892 23.4361 52.179 23.5908C52.514 23.8645 52.8373 24.1548 53.1723 24.4284C53.3644 24.5855 53.573 24.7235 53.7721 24.8734C53.9806 25.0352 54.1891 25.1971 54.3929 25.366C54.6038 25.5445 54.8076 25.7325 55.0185 25.9133C55.0747 25.9609 55.152 25.9871 55.2153 26.0299C55.2832 26.0751 55.3441 26.1323 55.4144 26.1703C55.6604 26.3036 55.8361 26.5082 56.0353 26.701C56.3258 26.9865 56.6842 27.2031 57.0146 27.4434C57.2652 27.6243 57.53 27.7861 57.7736 27.9765C58.1016 28.2311 58.4109 28.5119 58.7365 28.7713C59.1044 29.0664 59.4886 29.3424 59.8517 29.6422C60.2031 29.9302 60.5288 30.2538 60.8849 30.5346C61.1543 30.7488 61.4612 30.913 61.6557 31.2152C61.6955 31.2747 61.7658 31.3127 61.8267 31.358C62.0024 31.4841 62.1828 31.6054 62.3585 31.7363C62.4382 31.7982 62.5015 31.8815 62.5835 31.9434C62.9138 32.198 63.2605 32.4336 63.5768 32.7048C63.9493 33.0237 64.2984 33.3759 64.6615 33.7067C64.6967 33.7376 64.7599 33.7352 64.863 33.759C64.7857 33.3354 64.7248 32.9523 64.6381 32.5763C64.6147 32.4716 64.5257 32.3622 64.4366 32.2979C64.0477 32.0195 63.6424 31.7673 63.2535 31.4888C62.799 31.1628 62.3562 30.8202 61.9087 30.4846C61.7283 30.349 61.5456 30.2157 61.3652 30.0801C60.9505 29.766 60.5335 29.4519 60.1211 29.1354C59.8166 28.9022 59.512 28.6666 59.2168 28.4215C58.9427 28.1954 58.6873 27.9408 58.4085 27.7219C58.1485 27.5172 57.8603 27.3506 57.6003 27.146C57.113 26.7605 56.6374 26.3559 56.1571 25.9633C55.4636 25.3969 54.7725 24.8282 54.0767 24.2666C53.7018 23.9644 53.3223 23.6717 52.938 23.3838C52.5585 23.0982 52.1649 22.8317 51.7924 22.539C51.4972 22.3058 51.2348 22.0297 50.942 21.7942C50.5554 21.4848 50.1431 21.2064 49.7588 20.8947C49.2294 20.4639 48.7139 20.0118 48.1915 19.5716C48.147 19.5335 48.0884 19.5145 48.0392 19.4811C47.7581 19.286 47.4676 19.1004 47.1981 18.891C46.828 18.6007 46.4765 18.2842 46.1064 17.9891C45.8323 17.7702 45.5394 17.5727 45.263 17.3537C44.8834 17.0539 44.5133 16.7422 44.1314 16.4423C44.0822 16.4043 43.9767 16.3757 43.9322 16.4019C43.6652 16.5708 43.3957 16.7398 43.1497 16.9397C42.7397 17.2728 42.3485 17.6274 41.9502 17.9701C41.8096 18.0914 41.6714 18.2152 41.5215 18.3246C41.1349 18.6126 40.739 18.8862 40.3571 19.1813C39.9822 19.4716 39.6261 19.7834 39.2583 20.0808C38.942 20.3378 38.621 20.5877 38.3024 20.8423C37.9955 21.0874 37.698 21.3444 37.3864 21.5824C37.0678 21.8275 36.7327 22.0512 36.4188 22.3034C36.0791 22.5747 35.7581 22.8698 35.4208 23.1458C35.1349 23.3814 34.8327 23.6003 34.5469 23.8359C34.2751 24.0596 34.0197 24.3047 33.7433 24.5212C33.5348 24.6831 33.2958 24.802 33.085 24.9615C32.8015 25.1756 32.5367 25.4136 32.2603 25.6349C32.0213 25.8253 31.7683 25.9942 31.534 26.1894C31.131 26.5249 30.7445 26.8795 30.3392 27.2102C29.8519 27.6053 29.3552 27.986 28.8585 28.3691C28.6172 28.5547 28.3665 28.7308 28.1252 28.9164C27.7621 29.1949 27.4036 29.478 27.0428 29.7565C26.5625 30.1253 26.0823 30.4965 25.5949 30.8582C25.2295 31.1319 24.8546 31.3913 24.4821 31.6578C24.1705 31.8815 23.8308 32.079 23.5497 32.3384C23.1584 32.6977 23.2779 33.2307 23.1537 33.6829L23.1444 33.6805ZM23.4934 31.941C23.7019 31.7506 23.8753 31.5793 24.0604 31.4222C24.4165 31.12 24.7796 30.8321 25.1334 30.5275C25.4544 30.2514 25.7566 29.954 26.0799 29.6803C26.3821 29.4257 26.7008 29.1877 27.0124 28.945C27.4294 28.6214 27.8534 28.3049 28.2634 27.9717C28.7765 27.5577 29.2708 27.1222 29.7863 26.7129C30.3228 26.2846 30.878 25.88 31.4192 25.4564C31.8222 25.1423 32.2158 24.8116 32.6187 24.4951C33.1084 24.1096 33.6098 23.7336 34.0971 23.3433C34.7437 22.8245 35.3786 22.2891 36.0275 21.7727C36.6273 21.2944 37.2411 20.8328 37.8479 20.3616C38.0213 20.2284 38.19 20.0903 38.361 19.9523C38.7522 19.6382 39.1412 19.3217 39.5371 19.0147C40.015 18.6411 40.5023 18.2794 40.9803 17.9058C41.1607 17.7654 41.3176 17.5965 41.498 17.4561C41.9713 17.0825 42.4516 16.7208 42.9248 16.3519C43.1966 16.1401 43.4496 15.8926 43.7425 15.7213C43.8737 15.6428 44.0986 15.6737 44.2602 15.7213C44.4055 15.7641 44.532 15.8926 44.6562 15.995C45.113 16.3686 45.5675 16.7493 46.0244 17.1253C46.3875 17.4228 46.7507 17.7202 47.1185 18.0105C47.2567 18.12 47.416 18.1985 47.5542 18.3104C47.9619 18.6388 48.3578 18.9814 48.7678 19.3074C49.1755 19.6311 49.5995 19.9357 50.0072 20.2593C50.2719 20.4687 50.5132 20.709 50.778 20.9161C51.3426 21.3587 51.9189 21.7846 52.4835 22.2296C53.2942 22.865 54.1001 23.5075 54.906 24.1524C55.4542 24.5902 55.9978 25.0376 56.5483 25.4731C56.8388 25.7015 57.1458 25.9062 57.4339 26.1346C57.776 26.4059 58.104 26.6962 58.4437 26.9723C58.8537 27.303 59.2754 27.6243 59.6854 27.9551C59.8939 28.124 60.0837 28.3144 60.2945 28.4833C60.5639 28.6975 60.8427 28.8974 61.1192 29.1021C61.3839 29.2972 61.658 29.4804 61.9087 29.6922C62.2109 29.9492 62.4851 30.2419 62.7849 30.5013C63.3425 30.982 63.9095 31.4484 64.5163 31.96C64.4882 31.8053 64.4905 31.6602 64.4343 31.5436C64.2 31.0486 63.7994 30.725 63.3542 30.4251C63.0309 30.2086 62.7896 29.8659 62.4757 29.628C62.0704 29.3186 61.644 29.0426 61.2879 28.6594C60.9435 28.2882 60.5311 27.986 60.1469 27.6552C59.7744 27.334 59.4089 27.0056 59.0247 26.6986C58.4695 26.2536 57.9001 25.8277 57.3379 25.3898C57.1668 25.2565 57.0169 25.0924 56.8318 24.9876C56.4289 24.7592 56.0165 24.5474 55.6885 24.2071C55.637 24.1524 55.569 24.1119 55.5058 24.0691C55.1239 23.8097 54.7327 23.5646 54.3601 23.2886C54.0532 23.0601 53.7674 22.8008 53.4792 22.5461C53.3152 22.4034 53.1794 22.2249 53.0083 22.094C52.7506 21.8989 52.4554 21.7537 52.2047 21.5514C51.8861 21.2944 51.5956 21.0041 51.291 20.7281C51.2489 20.6876 51.1997 20.6543 51.1528 20.6186C50.8553 20.3973 50.5531 20.1808 50.2602 19.9523C49.9228 19.6906 49.5948 19.4145 49.2575 19.1504C49.1403 19.0576 48.9974 18.9957 48.8826 18.8981C48.5991 18.6578 48.3297 18.4032 48.0462 18.1628C47.8588 18.0058 47.6503 17.8725 47.4605 17.7178C47.1653 17.4775 46.8795 17.2276 46.589 16.9825C46.3688 16.7969 46.1064 16.647 45.9377 16.4233C45.6542 16.0473 45.2606 15.8165 44.9209 15.5143C44.6585 15.2811 44.45 14.9884 44.2181 14.7242C44.1501 14.6457 44.0822 14.5315 43.9978 14.5148C43.9369 14.5029 43.8455 14.6219 43.78 14.6933C43.5105 14.9836 43.2575 15.2953 42.974 15.569C42.6765 15.8546 42.2805 16.0283 42.065 16.409C42.0299 16.4733 41.9619 16.5209 41.901 16.5685C41.5543 16.8493 41.2028 17.1229 40.8608 17.4061C40.3922 17.794 39.9283 18.1914 39.4621 18.584C39.2958 18.7244 39.1365 18.8743 38.9631 19.0028C38.7148 19.1861 38.4547 19.3479 38.204 19.5264C38.0939 19.6049 38.0049 19.712 37.8971 19.7953C37.4871 20.1213 37.0701 20.4378 36.6625 20.7685C36.3298 21.0374 36.0182 21.3325 35.6808 21.5943C35.4067 21.8108 35.081 21.9679 34.8304 22.2058C34.3735 22.6366 33.9049 23.0459 33.3848 23.4004C32.8764 23.7479 32.4102 24.1595 31.9253 24.5403C31.8456 24.6021 31.7542 24.6497 31.6676 24.7045C31.3255 24.9234 30.9741 25.128 30.6437 25.3636C30.2455 25.6492 29.8683 25.9633 29.4817 26.2655C29.0694 26.5891 28.65 26.908 28.247 27.2459C27.9448 27.5006 27.666 27.7814 27.3778 28.0526C27.0545 28.3596 26.7336 28.6666 26.4103 28.9736C26.3798 29.0021 26.3447 29.0259 26.3119 29.0521C25.9136 29.3638 25.513 29.6708 25.1194 29.9897C24.9483 30.1277 24.7984 30.2966 24.6274 30.4347C24.3814 30.6345 24.0862 30.7868 23.88 31.0224C23.6691 31.2652 23.4091 31.5245 23.4864 31.9362L23.4934 31.941Z" fill="#9B3C34"/>
<path d="M43.6654 45.0027C43.3749 44.691 43.396 44.2436 43.2906 43.8391C43.143 43.2703 43.0235 42.6897 42.8337 42.1352C42.5995 41.4523 42.3277 40.7788 42.0231 40.1268C41.8802 39.8198 41.5991 39.5842 41.4187 39.2939C41.0673 38.73 40.4722 38.4301 40.0575 37.9351C39.9802 37.8447 39.8443 37.8066 39.7459 37.7329C39.2235 37.3474 38.708 36.9524 38.1809 36.574C38.038 36.4717 37.867 36.4146 37.7076 36.336C37.4921 36.2289 37.2391 36.1599 37.0681 36.0029C36.8455 35.8006 37.0189 35.3056 37.307 35.1533C37.5788 35.0106 37.8388 34.8416 38.0989 34.6774C38.3402 34.5251 38.5839 34.3776 38.8111 34.2086C39.3172 33.8326 39.8349 33.4638 40.3129 33.0521C40.847 32.5881 41.3367 32.0741 41.7256 31.4697C41.9036 31.1936 42.1098 30.9366 42.2832 30.6582C42.4706 30.356 42.6018 30.0133 42.815 29.7349C43.2531 29.1662 43.4827 28.4856 43.8294 27.8716C43.9677 27.6265 44.0356 27.6241 44.1621 27.8764C44.4105 28.369 44.6283 28.8758 44.879 29.366C44.9985 29.6016 45.1766 29.8039 45.3125 30.03C45.7482 30.7581 46.184 31.4863 46.7603 32.1122C47.0719 32.4501 47.4069 32.7618 47.7326 33.0878C47.8099 33.1663 47.8732 33.2591 47.9575 33.3258C48.1777 33.4947 48.4097 33.6518 48.6346 33.816C48.7962 33.9326 48.9485 34.0635 49.1172 34.1729C49.6303 34.5037 50.141 34.8416 50.6658 35.1486C50.9376 35.308 51.118 35.7602 50.9188 35.9957C50.8017 36.1338 50.5979 36.1932 50.4315 36.2884C50.0871 36.4836 49.7334 36.6597 49.4007 36.8762C48.9298 37.1808 48.4753 37.514 48.0184 37.8376C47.9294 37.9018 47.8591 37.9899 47.7748 38.0637C47.4796 38.3254 47.1586 38.561 46.8939 38.8513C46.6151 39.1607 46.3691 39.5057 46.1512 39.8627C45.6779 40.6384 45.3195 41.4737 45.0758 42.3518C44.8579 43.1394 44.6846 43.9414 44.4971 44.7386C44.4479 44.9456 44.291 45.0646 44.0708 45.0408C43.9466 45.0265 43.8224 45.0217 43.6608 45.0098L43.6654 45.0027ZM39.8607 34.6084C40.0106 34.6917 40.1348 34.7583 40.2566 34.8297C40.8353 35.1748 41.3461 35.6102 41.8638 36.0433C42.5057 36.5811 43.0165 37.2141 43.4288 37.9351C43.567 38.1755 43.6373 38.4563 43.7568 38.7085C43.8084 38.818 43.9044 38.9037 43.9817 39.0012C44.059 38.9203 44.1645 38.8489 44.209 38.7514C44.3168 38.5182 44.3613 38.2493 44.4948 38.0351C44.8392 37.4902 45.1438 36.9119 45.6358 36.4788C46.1137 36.06 46.5893 35.6388 47.0883 35.2485C47.4046 35.001 47.7607 34.8083 48.1098 34.5846C46.0903 33.2901 44.797 31.4125 43.9888 29.1471C43.1828 31.4221 41.8872 33.2782 39.8584 34.606L39.8607 34.6084ZM49.8294 35.634C49.5928 35.4722 49.3726 35.3104 49.1406 35.17C49.0469 35.1129 48.904 35.0415 48.8243 35.0748C48.173 35.3509 47.5334 35.6578 46.9946 36.1314C46.3597 36.6882 45.6264 37.1451 45.207 37.9233C44.9329 38.4301 44.5932 38.9108 44.3823 39.4438C44.2441 39.7937 44.2722 40.2125 44.2465 40.6027C44.1973 41.3737 44.1598 42.1447 44.12 42.9157C44.1106 43.0823 44.12 43.2489 44.12 43.4131C44.1504 43.4131 44.1809 43.4131 44.2137 43.4131C44.2137 43.3155 44.1949 43.2132 44.216 43.1228C44.4433 42.1995 44.6401 41.2643 44.9235 40.3576C45.1555 39.6152 45.6475 39.0036 46.1254 38.3992C46.2824 38.1993 46.4885 38.0399 46.6783 37.8709C46.854 37.7138 47.0321 37.5615 47.2172 37.4211C47.4655 37.2332 47.7232 37.0571 47.9786 36.8786C48.4518 36.5454 48.9227 36.2099 49.4007 35.8815C49.5295 35.7911 49.6748 35.7245 49.8294 35.6364V35.634ZM38.1786 35.6174C38.462 35.8173 38.7174 36.0053 38.9798 36.1813C39.2094 36.336 39.4554 36.4693 39.6803 36.6335C40.2074 37.0214 40.7275 37.4188 41.2477 37.8162C41.3929 37.9256 41.5499 38.0256 41.6694 38.1612C41.8755 38.392 42.0536 38.649 42.2457 38.8918C42.7236 39.4962 43.0376 40.1934 43.2648 40.9192C43.4569 41.5332 43.553 42.1804 43.6889 42.8134C43.7334 43.0181 43.7662 43.2251 43.813 43.4869C43.8599 43.4012 43.8833 43.3774 43.881 43.356C43.8365 42.4136 43.7732 41.4737 43.7474 40.5337C43.731 39.9555 43.724 39.3891 43.3351 38.9132C43.3211 38.8965 43.3281 38.8608 43.3187 38.8394C43.0259 38.2136 42.6604 37.6258 42.1707 37.1546C41.6553 36.6597 41.0766 36.2218 40.4886 35.8125C40.0762 35.5246 39.6053 35.3223 39.1579 35.0867C39.1133 35.0629 39.0384 35.0534 39.0009 35.0772C38.7174 35.2557 38.4409 35.4413 38.1762 35.6174H38.1786ZM43.9653 44.0032C43.9302 43.9176 43.8997 43.8486 43.8716 43.7772C43.8576 43.7819 43.8412 43.7867 43.8271 43.7915C43.8482 44.0009 43.8693 44.2103 43.8974 44.4863C43.9677 44.3816 43.9934 44.3412 44.0216 44.3007C44.0309 44.3412 44.0403 44.384 44.052 44.4244C44.0637 44.4244 44.0754 44.4197 44.0872 44.4197C44.12 44.196 44.1528 43.9747 44.1856 43.751C44.1715 43.7439 44.1551 43.7367 44.141 43.7296C44.0872 43.8176 44.0333 43.9033 43.9724 44.0032H43.9653Z" fill="#9B3C34"/>
</svg>
