<svg width="9" height="3" viewBox="0 0 9 3" fill="none" xmlns="http://www.w3.org/2000/svg">
<path d="M0.0383285 0.000821649C0.333539 0.0681311 0.63038 0.128876 0.923959 0.203573C1.28278 0.295508 1.63833 0.399755 1.99552 0.499898C2.4416 0.624667 2.88931 0.742868 3.33212 0.878307C3.82713 1.03016 4.31806 1.19926 4.81062 1.35851C5.37494 1.54073 5.94008 1.72296 6.50522 1.90273C6.9725 2.0513 7.44468 2.18756 7.9087 2.3468C8.23082 2.45762 8.54478 2.59388 8.8563 2.73342C8.91828 2.76133 8.95253 2.85081 8.99983 2.91237C8.91665 2.93946 8.8245 3.00348 8.7511 2.98706C8.43958 2.91729 8.13214 2.82372 7.82388 2.73835C7.26282 2.58239 6.69768 2.4371 6.14151 2.26554C5.53641 2.08003 4.93947 1.86907 4.33845 1.67207C3.99349 1.55961 3.64364 1.46275 3.30195 1.34127C3.00919 1.23702 2.72947 1.09173 2.43508 0.992406C1.91234 0.816745 1.38227 0.66407 0.857087 0.497438C0.632826 0.426024 0.407749 0.353788 0.190011 0.265137C0.115801 0.234766 0.0627933 0.15268 0 0.0943994C0.013048 0.0623864 0.0260956 0.0311922 0.0391435 0" fill="#9B3C34"/>
</svg>
