<svg width="29" height="32" viewBox="0 0 29 32" fill="none" xmlns="http://www.w3.org/2000/svg">
<path d="M18.9239 11.5613C18.8774 11.5098 18.8342 11.4615 18.787 11.4099C18.8022 11.3874 18.8126 11.3648 18.8294 11.3479C18.9399 11.2368 19.0511 11.1256 19.1631 11.0161C19.3464 10.8364 19.5392 10.6657 19.7128 10.4764C20.0065 10.1566 20.2938 9.83044 20.5723 9.49778C20.942 9.0572 21.3044 8.60937 21.6637 8.16074C21.8198 7.96662 21.9774 7.7709 22.1055 7.55746C22.4319 7.01458 22.7728 6.47573 23.0465 5.90548C23.1793 5.63001 23.2345 5.31347 23.1001 4.96551C22.8248 4.25188 22.3103 3.84594 21.6293 3.59302C21.3437 3.48671 21.0428 3.3965 20.7899 3.23379C20.5891 3.10492 20.437 2.88826 20.2866 2.69253C20.0233 2.35102 19.696 2.19799 19.2647 2.24712C19.0543 2.27128 18.8262 2.29625 18.6302 2.23906C18.4525 2.18751 18.2477 2.05864 18.1573 1.90319C17.7644 1.23386 17.1642 0.968063 16.4384 0.984172C16.0223 0.993031 15.6846 0.815027 15.3205 0.682128C14.9204 0.535535 14.5211 0.38411 14.1154 0.256043C13.8178 0.161806 13.5129 0.0740125 13.2048 0.0329345C12.7119 -0.032307 12.2198 -0.00250723 11.7364 0.139252C11.0707 0.334171 10.4089 0.550839 9.73274 0.694209C9.41106 0.762672 9.05816 0.68535 8.71968 0.670046C8.52043 0.661186 8.32038 0.628161 8.12193 0.63541C7.86827 0.64427 7.64501 0.586277 7.43616 0.441296C7.04566 0.170665 6.62635 0.119922 6.15984 0.220603C5.80054 0.297927 5.41965 0.298733 5.12197 0.546006C4.86831 0.757034 4.61704 0.979337 4.40179 1.22903C4.10732 1.57134 3.76963 1.84922 3.32392 1.90641C2.90301 1.96038 2.57893 2.13597 2.33247 2.46862C2.13162 2.73844 1.86035 2.80288 1.54107 2.81577C0.837692 2.84476 0.458397 3.07512 0.186328 3.74526C-0.180964 4.653 0.0206893 5.4657 0.564026 6.24457C0.885707 6.70448 1.14337 7.2095 1.44265 7.68552C1.67871 8.06086 1.93877 8.4209 2.18123 8.79302C2.43649 9.18527 2.68776 9.58075 2.93422 9.97864C3.15828 10.3395 3.38074 10.7019 3.58959 11.0724C3.70322 11.2746 3.79204 11.4921 3.88326 11.7063C4.0289 12.0511 4.16573 12.3998 4.30657 12.747C4.52182 13.277 4.75468 13.8005 4.94913 14.3377C5.15318 14.9024 5.31722 15.4815 5.50367 16.0517C5.74773 16.8008 5.75733 17.57 5.69332 18.3424C5.6461 18.9063 5.59009 19.4717 5.49407 20.0299C5.33963 20.9328 5.00114 21.7777 4.47061 22.5179C4.05371 23.0994 3.55438 23.6214 3.08066 24.161C2.99584 24.2577 2.83179 24.2786 2.74697 24.3825C2.56453 24.6056 2.52612 24.6628 2.72857 24.8311C2.75418 24.8521 2.77898 24.8746 2.79899 24.9004C2.8566 24.9753 2.93422 25.1251 2.96463 25.1155C3.10307 25.072 3.2327 24.993 3.35513 24.9109C3.46396 24.8384 3.55278 24.7345 3.66081 24.6628C3.90727 24.4985 4.14653 24.3149 4.41379 24.1932C5.01555 23.9178 5.57009 23.5577 6.21985 23.362C6.95844 23.1397 7.69782 23.1341 8.44281 23.1139C9.35584 23.089 10.2593 23.2347 11.1235 23.5038C11.6964 23.6818 12.2278 24.0104 12.7591 24.3044C13.3368 24.6242 13.9002 24.9713 14.4571 25.3273C14.8484 25.577 15.2165 25.8645 15.599 26.1295C15.7823 26.256 15.9871 26.3535 16.1608 26.492C16.5168 26.7755 16.8585 27.0776 17.205 27.3732C17.4323 27.5681 17.6611 27.7606 17.8812 27.9644C18.0396 28.1101 18.1805 28.2753 18.3349 28.4259C18.8542 28.9341 19.3712 29.4456 19.8985 29.9458C20.2474 30.276 20.6067 30.5958 20.9692 30.9107C21.5813 31.4415 22.2975 31.547 23.0577 31.369C23.633 31.2337 23.9643 30.8261 24.0867 30.2591C24.1556 29.9417 24.25 29.6872 24.5677 29.5189C24.9358 29.324 25.1974 29.0179 25.3375 28.5926C25.4815 28.1544 25.828 27.8919 26.2345 27.6639C26.7082 27.3981 27.1643 27.0711 27.3444 26.4992C27.3996 26.3228 27.482 26.1553 27.542 25.9805C27.6709 25.6028 27.6933 25.2226 27.4964 24.8601C27.3228 24.5412 27.4316 24.2134 27.4548 23.892C27.4796 23.5448 27.5212 23.1945 27.6036 22.8578C27.6781 22.5533 27.7997 22.2569 27.9317 21.9718C28.2062 21.3782 28.5527 20.8128 28.7695 20.1998C28.9328 19.7359 29.012 19.2139 28.9984 18.7218C28.9816 18.1282 28.8664 17.5281 28.7199 16.9498C28.5943 16.4537 28.6023 15.9688 28.6887 15.4863C28.7975 14.8814 28.5223 14.4376 28.155 14.0333C27.8805 13.7304 27.7589 13.4195 27.8885 13.0184C27.9445 12.8444 27.9941 12.6616 27.9997 12.4812C28.0085 12.1872 27.9157 11.9198 27.6957 11.7063C27.2732 11.2964 27.1435 10.7615 27.0699 10.2034C26.9563 9.34475 26.5338 8.702 25.7256 8.3774C25.5295 8.29847 25.2542 8.32102 25.047 8.39029C24.2828 8.64562 23.5186 8.91061 22.78 9.23199C22.2551 9.46073 21.7686 9.7813 21.2692 10.068C20.7971 10.3395 20.3242 10.6109 19.8633 10.9009C19.5472 11.0998 19.2511 11.331 18.9222 11.5646M9.65911 1.41589C9.5911 1.5504 9.47267 1.68169 9.46387 1.82023C9.42306 2.50567 9.43266 3.19513 9.38065 3.87977C9.34224 4.37592 9.23581 4.86725 9.15819 5.36099C9.07097 5.91434 9.00295 6.47251 8.89012 7.02102C8.75969 7.65169 8.60285 8.27833 8.43321 8.89933C8.14753 9.94884 7.84026 10.9927 7.54978 12.0406C7.35934 12.7293 7.18489 13.4227 7.00005 14.1138C6.97844 14.1952 6.94003 14.2717 6.90962 14.3506C6.97364 13.8021 7.08247 13.2697 7.2161 12.7437C7.31693 12.3451 7.45296 11.9552 7.56419 11.5589C7.67061 11.182 7.76504 10.8026 7.86587 10.4241C7.92348 10.2074 7.9915 9.99314 8.04111 9.77486C8.15394 9.28112 8.26836 8.78657 8.36439 8.2888C8.426 7.97226 8.46281 7.65008 8.49962 7.32871C8.53563 7.02022 8.56364 6.71092 8.58364 6.40083C8.62365 5.76049 8.66927 5.12016 8.68527 4.47902C8.69247 4.20114 8.63246 3.92165 8.60045 3.64296C8.59485 3.59383 8.57644 3.54631 8.56444 3.49879C8.52923 3.55436 8.47882 3.60511 8.46281 3.66632C8.44441 3.7364 8.46281 3.81613 8.45321 3.89024C8.32518 4.87852 8.21235 5.86923 8.05951 6.85429C7.92188 7.7411 7.75624 8.62387 7.57139 9.50181C7.48017 9.93353 7.31052 10.3483 7.18889 10.7744C7.00805 11.4091 6.84 12.0478 6.66316 12.6841C6.64315 12.755 6.59754 12.8179 6.56394 12.8847C6.51352 12.8283 6.50392 12.7881 6.51112 12.751C6.60475 12.2508 6.70237 11.7506 6.79439 11.2496C6.88482 10.7591 6.96163 10.2654 7.05766 9.77647C7.17849 9.1595 7.32253 8.54655 7.44016 7.92877C7.54818 7.36334 7.63781 6.79469 7.73063 6.22685C7.77704 5.94414 7.83385 5.66062 7.84826 5.37468C7.88187 4.72307 7.89387 4.06985 7.91148 3.41824C7.91708 3.21044 7.92908 3.00182 7.90827 2.79563C7.86986 2.41868 7.81225 2.04334 7.75704 1.668C7.73783 1.53993 7.70022 1.41428 7.66662 1.26769C7.94349 1.29991 8.18675 1.3289 8.45001 1.35951C8.49082 1.6688 8.53483 1.99904 8.57804 2.32927L8.68367 2.32283C8.68367 2.00387 8.68367 1.68411 8.68447 1.36595C9.01175 1.38529 9.33424 1.40381 9.65672 1.42234C10.1264 1.29266 10.5954 1.16379 11.0771 1.03089C10.7722 2.65548 10.4289 4.24302 10.4049 5.89339C10.5137 5.83782 10.6122 5.76936 10.6354 5.67995C10.7554 5.2297 10.8674 4.77623 10.961 4.31874C11.0843 3.71707 11.1947 3.11217 11.2963 2.50567C11.382 1.99582 11.4628 1.48275 11.3203 0.941483C11.6356 0.84805 11.9477 0.756228 12.3142 0.648298C12.2902 1.0027 12.2942 1.30796 12.2454 1.60437C12.1285 2.30914 12.0157 3.01713 11.8469 3.70982C11.63 4.59984 11.3619 5.47698 11.1091 6.35733C10.977 6.81563 10.8386 7.27313 10.6866 7.72499C10.4897 8.31055 10.2841 8.89289 10.0688 9.4712C9.92478 9.85782 9.75994 10.2364 9.5983 10.6157C9.33423 11.2376 9.06777 11.8594 8.7965 12.4788C8.56044 13.016 8.31318 13.5492 8.07712 14.0864C7.82346 14.6631 7.57059 15.2398 7.32813 15.8214C7.12488 16.3087 6.93283 16.8016 6.74318 17.2945C6.63995 17.5628 6.55353 17.8374 6.45991 18.1097C6.43911 18.104 6.4191 18.0992 6.39829 18.0936C6.4223 17.9566 6.4271 17.8125 6.47351 17.6844C6.62155 17.2792 6.78959 16.8814 6.94323 16.4778C7.16089 15.9068 7.36974 15.3317 7.5866 14.7606C7.85706 14.0494 8.12833 13.339 8.406 12.6302C8.54924 12.2637 8.71328 11.9061 8.85732 11.5404C9.01096 11.149 9.15019 10.7527 9.30063 10.3604C9.43186 10.0189 9.5863 9.68546 9.70313 9.33911C9.82556 8.97747 9.91118 8.60293 10.0208 8.23564C10.1528 7.79506 10.2993 7.35851 10.4249 6.91551C10.4457 6.84221 10.3929 6.74798 10.3745 6.6634C10.2905 6.72864 10.1632 6.77697 10.1288 6.86235C9.91838 7.38831 9.73274 7.92394 9.53269 8.45392C9.29023 9.09587 9.03416 9.73217 8.7981 10.3765C8.38679 11.4993 7.9867 12.6262 7.58019 13.7506C7.56419 13.7957 7.52658 13.8327 7.49857 13.873C7.50497 13.7449 7.55459 13.6402 7.58499 13.5299C7.74984 12.9451 7.89867 12.3547 8.07472 11.7732C8.26276 11.1506 8.48042 10.5376 8.67487 9.91662C8.74129 9.70479 8.77329 9.48167 8.82691 9.26501C8.92613 8.86873 9.04456 8.47728 9.12858 8.07858C9.25261 7.48899 9.36624 6.89618 9.45987 6.30095C9.57269 5.58813 9.68152 4.87289 9.75354 4.15443C9.81835 3.50443 9.84716 2.84879 9.85916 2.19557C9.86397 1.92896 9.91598 1.62531 9.65831 1.4167M10.4249 21.2864C10.0608 21.4483 9.69752 21.6102 9.33343 21.7712C9.32223 21.7422 9.31023 21.7141 9.29902 21.6851C9.51268 21.6037 9.72473 21.5175 9.93999 21.441C10.0992 21.3846 10.2633 21.3387 10.4249 21.2888C10.4585 21.2533 10.4849 21.2042 10.5257 21.1857C11.0731 20.9376 11.6148 20.675 12.1726 20.4527C13.0536 20.1015 13.937 19.756 14.8332 19.4499C15.6118 19.1849 16.4096 18.9787 17.1978 18.7444C17.3563 18.6976 17.5083 18.6276 17.6691 18.5881C18.1637 18.4657 18.6622 18.3561 19.1567 18.2329C19.2047 18.2208 19.2375 18.1483 19.2767 18.1048C19.2647 18.0774 19.2527 18.0493 19.2399 18.0219C18.078 18.0364 16.9682 18.365 15.8671 18.6976C14.7428 19.0367 13.6369 19.4387 12.5518 19.8035C12.5406 19.8164 12.5518 19.7914 12.571 19.7834C13.2424 19.5031 13.909 19.2099 14.5876 18.9498C15.2069 18.7121 15.8415 18.5124 16.4672 18.2917C16.9121 18.1346 17.3563 17.976 17.7964 17.8052C17.966 17.7392 18.1693 17.686 18.2021 17.4033C16.9313 17.711 15.723 18.1153 14.5315 18.5664C13.3352 19.0198 12.1533 19.5111 10.965 19.9856C11.1595 19.8567 11.3627 19.7423 11.5708 19.6384C12.1117 19.3694 12.6535 19.102 13.1976 18.8394C13.5737 18.6574 13.9562 18.4874 14.3299 18.3006C14.3787 18.2764 14.3963 18.187 14.4283 18.1274C14.4043 18.1024 14.3811 18.0766 14.3579 18.0517C12.9848 18.7057 11.6116 19.3589 10.2385 20.0129C10.3257 19.9171 10.4353 19.8607 10.5409 19.7995C10.9971 19.5353 11.4476 19.2607 11.9101 19.0077C12.4382 18.7194 12.9776 18.4528 13.5097 18.1717C14.001 17.9115 14.4875 17.6433 14.9781 17.3807C16.1287 16.7662 17.281 16.1556 18.4301 15.5379C18.887 15.2922 19.328 15.0119 19.7929 14.7832C20.2554 14.556 20.7395 14.374 21.2132 14.1694C21.3813 14.0969 21.5461 14.0164 21.7126 13.9407C22.047 13.7884 22.3775 13.6281 22.7168 13.4872C23.0537 13.347 23.401 13.2327 23.7395 13.0949C24.1468 12.9282 24.5429 12.7301 24.9558 12.5786C25.6063 12.3402 26.2673 12.13 26.8963 11.9174C27.3644 12.2033 27.562 12.5988 27.3708 13.1062C27.1835 13.136 26.9843 13.1513 26.7938 13.2012C26.501 13.2786 26.2113 13.3696 25.9264 13.4711C25.2582 13.7079 24.5941 13.9568 23.9267 14.1968C23.505 14.3482 23.1161 14.5705 22.6936 14.7252C21.9118 15.0127 21.1516 15.359 20.3586 15.62C19.9561 15.7521 19.564 15.9164 19.1671 16.0662C18.7478 16.2233 18.3245 16.3707 17.91 16.539C17.5235 16.6961 17.1442 16.8717 16.7649 17.0473C16.4112 17.2108 16.0623 17.3856 15.711 17.5547C15.6726 17.5732 15.631 17.5869 15.5926 17.6055C15.503 17.6514 15.4134 17.6997 15.3237 17.7464C15.3365 17.7714 15.3502 17.7963 15.363 17.8213C15.6022 17.7617 15.8495 17.7247 16.0783 17.6377C16.8041 17.363 17.5171 17.0521 18.2469 16.7895C18.9367 16.5415 19.628 16.3055 20.2698 15.9438C20.377 15.8834 20.4898 15.8318 20.6035 15.7859C21.0932 15.5862 21.5829 15.388 22.0742 15.1931C22.4671 15.0369 22.856 14.8653 23.2585 14.738C23.9019 14.5351 24.5605 14.3804 25.203 14.1726C25.8288 13.9705 26.4409 13.7264 27.0587 13.5017C27.1675 13.4622 27.278 13.4292 27.3372 13.4099C27.534 13.7651 27.7261 14.0921 27.8989 14.4296C27.9973 14.6213 28.1126 14.825 28.1318 15.032C28.159 15.3268 28.1054 15.6289 28.0862 15.9245C27.8493 15.939 27.6148 15.9293 27.3892 15.9712C27.0539 16.0332 26.729 16.1484 26.3937 16.2104C25.4847 16.3779 24.5677 16.5076 23.6626 16.6953C22.9769 16.837 22.3047 17.0465 21.6261 17.2229C21.3349 17.2986 21.038 17.3574 20.7499 17.4419C20.6299 17.4774 20.5234 17.5603 20.4106 17.6208C20.4162 17.653 20.421 17.6852 20.4266 17.7174C20.5227 17.7271 20.6179 17.7472 20.7131 17.7432C20.8091 17.7383 20.9043 17.7045 21.0004 17.6916C21.2812 17.653 21.5669 17.6353 21.8438 17.5789C22.6496 17.4138 23.4522 17.2301 24.2572 17.061C25.1902 16.8644 26.1241 16.6727 27.0587 16.4843C27.3132 16.4327 27.5724 16.4077 27.8277 16.3586C27.9941 16.3264 28.0766 16.3949 28.111 16.5479C28.1598 16.7654 28.2078 16.9836 28.2494 17.1705C27.8461 17.2051 27.4524 17.2309 27.0603 17.2744C26.6146 17.3243 26.1705 17.384 25.728 17.4516C25.5231 17.483 25.3183 17.5338 25.1222 17.6006C25.0526 17.624 25.007 17.7198 24.9502 17.7835C25.0278 17.831 25.1038 17.8825 25.1846 17.9236C25.2094 17.9365 25.2486 17.9212 25.2815 17.918C25.7608 17.8785 26.2401 17.8431 26.7186 17.798C27.0571 17.7657 27.3948 17.7263 27.7317 17.6787C27.9245 17.6514 28.1142 17.6022 28.3334 17.5579C28.5135 18.3183 28.419 19.0174 28.2374 19.7415C28.0502 19.7028 27.8765 19.644 27.7005 19.6344C27.2571 19.6086 26.813 19.6078 26.3689 19.5917C25.9952 19.578 25.6215 19.5369 25.2486 19.5458C24.5349 19.5619 23.8219 19.5981 23.1089 19.6392C22.7176 19.6618 22.3271 19.7085 21.9374 19.7479C21.2204 19.8204 20.4962 19.8494 19.7897 19.9791C18.7558 20.1692 17.734 20.4278 16.7089 20.6654C15.4902 20.9481 14.2723 21.2372 13.0552 21.5264C12.4694 21.6649 11.8861 21.8123 11.3003 21.9484C11.1595 21.9807 11.0123 21.9855 10.8682 22.0024C11.1787 21.8727 11.4948 21.789 11.8117 21.7044C12.179 21.6061 12.547 21.5087 12.9143 21.4096C13.2488 21.3202 13.5801 21.2195 13.917 21.143C14.2643 21.0641 14.6196 21.0214 14.9661 20.9376C15.4086 20.8305 15.8415 20.6831 16.284 20.58C17.1266 20.3843 17.974 20.2103 18.819 20.0226C19.4152 19.8905 20.0097 19.7512 20.6051 19.615C20.7187 19.5893 20.8299 19.5522 20.9436 19.5329C21.2532 19.4805 21.5645 19.4387 21.8742 19.3863C22.3639 19.3025 22.852 19.2083 23.3426 19.1286C23.6194 19.0843 23.8995 19.0585 24.1788 19.0295C24.5557 18.9908 24.9334 18.9538 25.3111 18.924C25.6888 18.8934 26.0673 18.8684 26.4457 18.8499C26.6762 18.8386 26.9075 18.8499 27.1379 18.841C27.4228 18.8297 27.7069 18.8088 28.0253 18.7895C27.9805 18.7202 27.9661 18.6735 27.9453 18.6703C27.7037 18.6308 27.4612 18.576 27.2171 18.568C26.9363 18.5591 26.6546 18.5994 26.3737 18.605C26.0192 18.6123 25.6647 18.5897 25.3111 18.6082C24.7901 18.6356 24.27 18.6783 23.7515 18.7307C23.1585 18.7911 22.5664 18.8652 21.975 18.9425C21.7366 18.9739 21.5005 19.0263 21.2636 19.0706C20.946 19.1302 20.6283 19.1874 20.3114 19.2518C19.9553 19.3243 19.6008 19.4097 19.2439 19.4781C18.8806 19.5482 18.5125 19.5909 18.1525 19.6706C17.7548 19.7584 17.3667 19.8881 16.969 19.9767C16.4768 20.0862 15.9767 20.1587 15.4862 20.2731C15.0885 20.3657 14.6996 20.5002 14.3051 20.6106C14.2379 20.6291 14.1626 20.6203 14.0906 20.6243C14.3059 20.5091 14.5267 20.4511 14.7476 20.3923C15.1901 20.2739 15.6342 20.1611 16.0743 20.0331C16.5369 19.8986 16.9954 19.7471 17.4571 19.6078C17.8084 19.5015 18.1621 19.4056 18.5133 19.2993C19.0279 19.1447 19.5352 18.9634 20.0553 18.8346C20.6275 18.6928 21.2116 18.5994 21.7902 18.4818C22.1271 18.4133 22.4623 18.3376 22.7984 18.2675C23.2737 18.1701 23.7507 18.0783 24.2252 17.976C24.286 17.9631 24.338 17.9043 24.3932 17.8664C24.3868 17.8447 24.3804 17.8229 24.374 17.8012C24.2948 17.7955 24.2156 17.781 24.138 17.7859C23.9147 17.8012 23.6906 17.8189 23.4682 17.8447C22.8136 17.9204 22.1591 17.9897 21.5069 18.0815C21.086 18.1411 20.6643 18.2112 20.253 18.3183C19.6408 18.4769 19.0391 18.6767 18.4301 18.8507C18.0484 18.9594 17.6595 19.0448 17.2778 19.1551C16.5008 19.3791 15.727 19.6159 14.95 19.839C14.3987 19.9976 13.8346 20.116 13.2928 20.3021C12.5839 20.5453 11.8933 20.8466 11.1891 21.1043C10.945 21.1937 10.681 21.2308 10.4265 21.292M15.0541 1.13962C15.2501 1.21453 15.4302 1.28219 15.6102 1.35146C15.7286 1.39737 15.8167 1.45617 15.7591 1.61323C15.6462 1.9193 15.5478 2.23101 15.435 2.53708C15.2461 3.04935 15.0621 3.56323 14.8564 4.06905C14.6332 4.61917 14.3739 5.15399 14.1546 5.70572C13.8634 6.43707 13.5977 7.17809 13.3176 7.91427C13.2464 8.10194 13.1528 8.28155 13.092 8.47164C13.0632 8.56024 13.0864 8.66575 13.0864 8.76321C13.1632 8.71811 13.276 8.69153 13.3112 8.62468C13.5673 8.13658 13.8082 7.64122 14.0522 7.14748C14.1338 6.98236 14.2187 6.81805 14.2883 6.6481C14.4403 6.27759 14.5804 5.90306 14.7308 5.53175C14.9004 5.11291 15.0805 4.6981 15.2477 4.27846C15.4294 3.82338 15.6006 3.36347 15.7775 2.90598C15.9535 2.45009 16.1311 1.99421 16.3144 1.52382C16.7473 1.61162 17.2882 1.53429 17.6115 1.93299C17.4923 2.11583 17.3859 2.27531 17.2842 2.43801C17.2578 2.47989 17.2538 2.53466 17.229 2.57816C16.981 3.01391 16.7313 3.44805 16.4816 3.88218C16.2112 4.35176 15.9375 4.81892 15.6702 5.29011C15.5014 5.58652 15.3349 5.88534 15.1773 6.18819C14.9853 6.5587 14.8124 6.93967 14.6148 7.30776C14.4243 7.66136 14.1963 7.99401 14.0162 8.35163C13.7521 8.87517 13.5121 9.4116 13.2696 9.94561C13.2264 10.0415 13.2216 10.1542 13.1992 10.2589C13.2288 10.2759 13.2584 10.2936 13.2872 10.3113C13.3809 10.2171 13.4977 10.1373 13.5641 10.027C13.7633 9.69673 13.9394 9.35281 14.1314 9.01774C14.4163 8.52158 14.7228 8.0375 14.9925 7.53329C15.3205 6.91954 15.6134 6.28645 15.9327 5.66787C16.3608 4.83825 16.8001 4.01347 17.2338 3.18627C17.321 3.01954 17.4115 2.85362 17.4803 2.67964C17.5595 2.47828 17.6171 2.26806 17.6851 2.05703C17.986 2.28497 18.2613 2.49359 18.5614 2.72072C18.4197 2.94786 18.2501 3.19594 18.1044 3.45771C17.818 3.974 17.5443 4.49835 17.2658 5.01948C16.9634 5.58652 16.6641 6.15678 16.3576 6.7214C16.188 7.03391 16.0215 7.35045 15.8247 7.64605C15.3501 8.35888 14.8452 9.05076 14.3771 9.76761C13.9282 10.4547 13.5161 11.1659 13.0792 11.861C12.7039 12.4578 12.2926 13.0345 12.0597 13.7361C12.1133 13.7248 12.1637 13.7296 12.1854 13.7063C12.3454 13.5379 12.5174 13.3768 12.6527 13.1892C12.8903 12.8597 13.112 12.5182 13.3264 12.1727C13.6401 11.6669 13.9466 11.1562 14.2467 10.6415C14.5604 10.1027 14.8548 9.55256 15.1709 9.01532C15.399 8.6279 15.651 8.25497 15.8863 7.87158C15.9647 7.74351 16.0095 7.5937 16.0959 7.47208C16.2752 7.22078 16.4864 6.99203 16.6585 6.7359C16.9049 6.36861 17.1298 5.98683 17.3587 5.60826C17.6395 5.14432 17.9212 4.67958 18.1917 4.2092C18.3189 3.9877 18.4213 3.7525 18.5334 3.52295C18.655 3.27326 18.775 3.02277 18.9062 2.75052C19.4056 2.65145 19.7369 2.95027 19.9393 3.44563C19.8561 3.58094 19.7633 3.72029 19.6816 3.86607C19.444 4.28894 19.2191 4.71904 18.9735 5.13707C18.7998 5.43267 18.5982 5.71056 18.4165 6.00213C18.1381 6.44996 17.8812 6.91229 17.5891 7.35126C17.1882 7.95535 16.7689 8.54816 16.3472 9.13775C16.0223 9.59283 15.691 10.0439 15.3469 10.4853C14.8772 11.0869 14.3931 11.6765 13.9146 12.2709C13.7409 12.4868 13.5657 12.7019 13.3921 12.9185C12.972 13.4421 12.5494 13.9624 12.1357 14.49C11.9117 14.7759 11.7076 15.0771 11.486 15.3647C11.1419 15.8101 10.7962 16.2547 10.4409 16.6913C9.9872 17.2494 9.52388 17.7996 9.06217 18.3505C9.03096 18.3875 8.97334 18.4028 8.89972 18.4447C8.91573 18.3811 8.91573 18.3545 8.92853 18.3368C9.34544 17.7851 9.76714 17.2366 10.1808 16.6824C10.5906 16.1331 11.0059 15.587 11.3932 15.0216C11.5452 14.7993 11.6268 14.5278 11.7404 14.2789C11.7212 14.2693 11.702 14.2596 11.6828 14.2499C10.8402 15.3993 9.9976 16.5487 9.15579 17.6981C9.79515 16.5817 10.4769 15.4992 11.1459 14.4094C11.8125 13.3245 12.4326 12.2138 12.9223 11.0185C12.8319 11.0185 12.7423 11.0281 12.7047 11.0781C12.547 11.2851 12.3886 11.4945 12.2622 11.7208C12.0437 12.1123 11.8645 12.5263 11.6396 12.9145C11.3603 13.397 11.0507 13.8617 10.757 14.3353C10.6954 14.4352 10.6554 14.5496 10.5914 14.6478C10.3089 15.0779 10.0216 15.5048 9.73594 15.9325C9.5959 16.1419 9.45426 16.3498 9.31343 16.5592C9.43266 16.2571 9.5919 15.9825 9.75994 15.7143C10.0304 15.2801 10.3201 14.8581 10.5745 14.4151C10.8634 13.9133 11.1235 13.3946 11.3924 12.8807C11.4828 12.7075 11.5596 12.5271 11.642 12.3499C11.7749 12.0631 11.9205 11.7812 12.0373 11.4881C12.1693 11.157 12.2726 10.8155 12.3918 10.4796C12.471 10.2565 12.5774 10.039 12.495 9.76036C12.4038 9.83607 12.319 9.87635 12.2814 9.94401C12.1766 10.1325 12.0837 10.3282 12.0005 10.528C11.8741 10.8284 11.7756 11.1425 11.6364 11.4365C11.4948 11.7353 11.3067 12.0116 11.1587 12.3072C10.9794 12.6656 10.829 13.0377 10.6522 13.397C10.4345 13.8384 10.2289 14.2894 9.96959 14.7066C9.49267 15.4742 8.98374 16.2217 8.48362 16.9748C8.14033 17.4919 7.78745 18.0025 7.44176 18.5188C7.32573 18.692 7.2185 18.87 7.10727 19.0464C7.08967 19.0351 7.07206 19.0247 7.05446 19.0134C7.57459 18.125 8.10032 17.239 8.61325 16.3465C8.99335 15.6861 9.37264 15.0248 9.72313 14.349C9.94799 13.9149 10.104 13.4453 10.3201 13.0063C10.5665 12.5061 10.8538 12.0269 11.1083 11.5299C11.4036 10.954 11.6868 10.3725 11.9677 9.78936C12.2286 9.24809 12.5126 8.71408 12.7271 8.15429C13.0088 7.41731 13.2368 6.66018 13.4769 5.90708C13.5873 5.56074 13.6697 5.20473 13.7649 4.85356C13.7417 4.83825 13.7193 4.82295 13.6961 4.80765C13.6257 4.86564 13.5329 4.91074 13.4905 4.98485C13.3841 5.1701 13.2872 5.36341 13.212 5.56316C13.0888 5.89017 12.992 6.22685 12.8719 6.55548C12.7951 6.76811 12.6927 6.97109 12.6103 7.18211C12.4838 7.50752 12.3798 7.84339 12.2406 8.16235C12.0093 8.69072 11.7604 9.21185 11.5108 9.73137C11.3123 10.1454 11.1027 10.5537 10.893 10.9621C10.4729 11.782 10.0464 12.5996 9.62871 13.4211C9.44386 13.7836 9.27262 14.1541 9.09577 14.5206C9.06137 14.4553 9.05896 14.4022 9.07817 14.3595C9.29342 13.881 9.51348 13.405 9.72953 12.9266C9.9808 12.37 10.2401 11.8167 10.4769 11.2537C10.781 10.5296 11.0699 9.79902 11.3571 9.06848C11.638 8.35565 11.9221 7.64444 12.1797 6.92276C12.3766 6.37264 12.5358 5.80963 12.7063 5.24984C12.8127 4.89947 12.9095 4.54507 13.0096 4.19228C13.0712 3.97481 13.144 3.75895 13.188 3.53745C13.2952 3.00424 13.3977 2.46942 13.4833 1.93219C13.5289 1.64786 13.5369 1.35709 13.5617 1.06955L13.4513 1.04538C13.4177 1.11868 13.3681 1.18876 13.3536 1.26608C13.3072 1.52866 13.2888 1.79606 13.2304 2.05542C13.1344 2.48473 13.0144 2.90839 12.9063 3.33528C12.8007 3.75492 12.7167 4.18181 12.5871 4.59339C12.4222 5.11452 12.2198 5.62437 12.0349 6.13905C11.8061 6.77697 11.5932 7.42214 11.3451 8.05281C11.1203 8.62387 10.8538 9.17722 10.6122 9.74103C10.3881 10.2638 10.1792 10.7938 9.95119 11.3149C9.74234 11.7917 9.51028 12.2581 9.29983 12.7341C9.02136 13.3656 8.76529 14.0075 8.47882 14.6358C8.24356 15.1512 7.96829 15.6482 7.72823 16.1613C7.51617 16.6164 7.32813 17.0819 7.12888 17.5434C7.11687 17.3896 7.14088 17.2486 7.1969 17.1222C7.597 16.2104 8.0027 15.3011 8.4084 14.3917C8.8125 13.4872 9.23741 12.5907 9.61751 11.6757C10.0808 10.561 10.5241 9.43576 10.9426 8.3033C11.1619 7.70968 11.3179 7.0919 11.4892 6.48137C11.6092 6.05287 11.71 5.61954 11.8141 5.18701C11.9453 4.64172 12.0861 4.09804 12.1966 3.54873C12.3014 3.02518 12.3814 2.496 12.4566 1.96682C12.507 1.61323 12.5494 1.25561 12.5574 0.899598C12.5614 0.723204 12.5927 0.66763 12.7727 0.654742C13.2912 0.618497 13.7962 0.682933 14.2963 0.811C14.4139 0.840802 14.5275 0.88349 14.6892 0.935844C14.5772 1.23708 14.4747 1.49805 14.3827 1.76304C14.2747 2.07556 14.1595 2.38727 14.0778 2.70703C13.9578 3.17822 13.861 3.65585 13.7666 4.13268C13.7561 4.18584 13.8226 4.2551 13.8538 4.31632C13.9074 4.28491 13.9858 4.26799 14.0114 4.22047C14.1298 4.00058 14.2491 3.77908 14.3387 3.54711C14.4771 3.1903 14.6068 2.82785 14.7148 2.45976C14.842 2.02642 14.9428 1.58504 15.0565 1.14123M11.8045 22.3318C11.8005 22.3012 11.7973 22.2706 11.7933 22.2408C11.9437 22.2086 12.0957 22.1812 12.2454 22.1417C12.5622 22.0588 12.8743 21.9581 13.1928 21.8832C14.029 21.6867 14.8684 21.5046 15.7046 21.3089C16.2488 21.1817 16.7873 21.0335 17.3322 20.9126C17.8076 20.8071 18.2885 20.7298 18.7654 20.6348C19.1551 20.5566 19.54 20.4519 19.9321 20.3907C20.477 20.3053 21.0252 20.2433 21.5733 20.1821C22.2447 20.1064 22.9177 20.0347 23.5906 19.9743C24.2388 19.9163 24.8878 19.8462 25.5367 19.8357C26.3457 19.8229 27.1555 19.8639 27.9653 19.8889C28.0934 19.8929 28.2158 19.9485 28.1366 20.112C28.0045 20.3859 27.8549 20.6509 27.7301 20.8877C27.4844 20.8152 27.274 20.7121 27.0571 20.696C26.4834 20.6533 25.9064 20.6299 25.3303 20.6331C24.5565 20.6372 23.7835 20.6686 23.0105 20.7016C22.9193 20.7056 22.8312 20.7942 22.7416 20.8434C22.752 20.8724 22.7624 20.9014 22.7728 20.9304C24.374 21.1535 25.9864 21.1221 27.6228 21.1172C27.4108 21.5361 27.1939 21.9662 26.9691 22.4108C26.9307 22.3641 26.9035 22.2956 26.8611 22.2851C26.4513 22.1796 26.0432 22.0531 25.6263 21.9911C25.035 21.9041 24.4364 21.8647 23.8403 21.8115C23.3914 21.7712 22.9417 21.7237 22.4911 21.7133C21.9558 21.7004 21.4197 21.7165 20.8835 21.7326C20.2042 21.7527 19.524 21.7696 18.8462 21.8163C18.2813 21.8558 17.7195 21.9404 17.1562 22C16.448 22.0749 15.739 22.1442 15.0309 22.2167C14.9228 22.2279 14.8156 22.2481 14.7084 22.2634C14.7044 22.2408 14.6996 22.2183 14.6956 22.1957C14.7716 22.178 14.8468 22.1546 14.9244 22.1434C15.2621 22.095 15.6022 22.0604 15.9383 22.0032C16.332 21.9364 16.7217 21.847 17.1138 21.7753C17.8356 21.644 18.5582 21.5175 19.2807 21.3911C19.6016 21.3355 19.9241 21.2815 20.2458 21.2332C20.6235 21.1768 21.0028 21.1325 21.3797 21.0713C21.5357 21.0463 21.6909 21.0053 21.8374 20.9473C21.9022 20.9215 21.9534 20.8401 21.9878 20.7725C21.9958 20.7572 21.9078 20.6581 21.863 20.6573C21.6293 20.6509 21.3933 20.646 21.162 20.6742C20.6499 20.737 20.1402 20.8208 19.6288 20.8941C19.1871 20.9569 18.7414 20.9948 18.3045 21.081C17.5403 21.2324 16.7833 21.4249 16.0191 21.5779C15.451 21.6915 14.8748 21.764 14.3051 21.8663C13.7722 21.9621 13.2424 22.0749 12.7111 22.1756C12.4094 22.2328 12.1061 22.2795 11.8045 22.331M4.8475 9.75311C4.8219 9.75714 4.79709 9.76117 4.77149 9.76439C4.75628 9.74586 4.73147 9.72975 4.72747 9.70881C4.63225 9.19816 4.55943 8.68186 4.4402 8.17765C4.30177 7.59128 4.12332 7.01458 3.96168 6.43385C3.84165 6.00213 3.73922 5.56477 3.59359 5.1419C3.41274 4.61756 3.19669 4.10529 2.99104 3.58981C2.94783 3.48107 2.90862 3.34495 2.82379 3.28373C2.55173 3.08801 2.71096 2.93739 2.8614 2.80368C2.95743 2.71911 3.09346 2.67964 3.21269 2.62246C3.35433 2.55399 3.41434 2.6289 3.44075 2.75858C3.53598 3.22896 3.67281 3.68082 3.91527 4.10207C4.01049 4.26719 4.08651 4.31149 4.24735 4.19953C4.13852 3.61961 4.0305 3.04129 3.92327 2.46942C4.21214 2.20362 4.52262 1.91849 4.8467 1.62128C4.86511 1.68894 4.87711 1.78882 4.91872 1.87339C4.96113 1.95877 5.03315 2.02965 5.09236 2.10616C5.15558 2.02079 5.27401 1.9338 5.27081 1.85083C5.26281 1.62209 5.20279 1.39576 5.15398 1.10982C5.38364 1.018 5.6501 0.903625 5.92297 0.806165C6.05501 0.758644 6.12943 0.826302 6.13583 0.970478C6.15423 1.38609 6.19425 1.8017 6.19184 2.21732C6.18784 3.01793 6.17264 3.81936 6.14063 4.61997C6.10462 5.53094 6.0334 6.43949 5.99819 7.35045C5.96218 8.29525 5.95418 9.24004 5.92618 10.1848C5.92298 10.3073 5.87416 10.4289 5.84695 10.5513C5.82455 10.5481 5.80214 10.5441 5.77974 10.5408C5.77334 10.4442 5.75814 10.3467 5.76134 10.2501C5.77654 9.72976 5.80375 9.21024 5.81015 8.68992C5.81655 8.17604 5.80054 7.66136 5.79894 7.14667C5.79814 6.83174 5.82215 6.51601 5.80535 6.20269C5.78934 5.8942 5.74213 5.58652 5.69652 5.28125C5.57889 4.48627 5.45646 3.6921 5.33163 2.89873C5.32443 2.85604 5.27721 2.81899 5.2484 2.77952C5.2196 2.81496 5.16919 2.84879 5.16599 2.88665C5.15398 3.01632 5.15238 3.14761 5.15958 3.27729C5.17719 3.6035 5.20359 3.92971 5.2244 4.25511C5.25241 4.70697 5.28601 5.15882 5.30282 5.61068C5.31242 5.88453 5.28762 6.16 5.29162 6.43466C5.30042 7.0468 5.31883 7.65894 5.33163 8.27108C5.33723 8.53849 5.34443 8.8059 5.34523 9.07331C5.34523 9.39791 5.34043 9.72251 5.33723 10.0479C5.31402 10.0503 5.29162 10.0519 5.26841 10.0544C5.246 10.0012 5.21 9.94964 5.20439 9.89487C5.17079 9.54853 5.14758 9.20138 5.11397 8.85504C5.06116 8.30652 5.02995 7.75398 4.93953 7.21191C4.8387 6.60541 4.69146 6.00615 4.54423 5.40932C4.49221 5.19829 4.38019 5.00256 4.29537 4.79959C4.26976 4.81006 4.24415 4.82053 4.21935 4.831C4.429 6.47251 4.63865 8.11321 4.8483 9.75472M24.8077 26.6652C24.8245 26.6176 24.8421 26.5701 24.8589 26.5226C24.6893 26.4259 24.5301 26.2995 24.3492 26.2383C23.7331 26.0321 23.1113 25.842 22.4879 25.66C21.9598 25.5061 21.4277 25.3603 20.8923 25.2339C20.5435 25.1509 20.185 25.1082 19.8313 25.0478C19.1447 24.9302 18.4573 24.8142 17.7708 24.6926C17.6427 24.6701 17.5179 24.6241 17.3915 24.5887C17.4963 24.5275 17.5907 24.5082 17.6795 24.5211C18.2629 24.6064 18.8446 24.7015 19.428 24.7877C20.2554 24.9101 21.0836 25.0253 21.911 25.1493C22.728 25.2709 23.5482 25.3813 24.3604 25.5303C25.1542 25.6761 25.9392 25.8686 26.729 26.0329C26.8915 26.0667 26.9363 26.1521 26.8619 26.2802C26.717 26.5298 26.553 26.7691 26.4409 26.9439C26.1417 26.8399 25.9072 26.7433 25.6631 26.6861C25.6031 26.6716 25.5143 26.7852 25.4383 26.8399C25.4871 26.9044 25.5255 26.9849 25.5887 27.0292C25.6832 27.0937 25.7944 27.1315 25.8768 27.1702C25.5263 27.432 25.1766 27.6913 24.8629 27.9249C24.3564 27.7219 23.8715 27.5214 23.3794 27.3369C23.3138 27.3127 23.2169 27.3723 23.1345 27.3933C23.1753 27.469 23.1969 27.5753 23.2601 27.6156C23.6522 27.8685 24.0563 28.1037 24.4508 28.3542C24.5133 28.3937 24.6037 28.5072 24.5877 28.5354C24.5045 28.686 24.4076 28.8375 24.2828 28.9526C24.2244 29.0058 24.0627 29.0211 23.9971 28.9784C23.6794 28.769 23.389 28.5169 23.0689 28.3115C22.592 28.0046 22.0999 27.7195 21.6093 27.4352C21.4165 27.3232 21.2084 27.2386 21.0076 27.1404C20.4858 26.8834 19.9689 26.6152 19.4408 26.3712C18.9911 26.1634 18.5285 25.9821 18.0716 25.7888C18.1525 25.7695 18.2301 25.7735 18.3029 25.7945C19.0751 26.016 19.8481 26.2367 20.6179 26.467C20.8243 26.5282 21.0236 26.616 21.222 26.6998C21.5389 26.8327 21.8486 26.9817 22.1687 27.1065C22.3175 27.1645 22.4815 27.1815 22.6392 27.2169C22.6504 27.179 22.6616 27.1412 22.6728 27.1033C21.1612 26.1054 19.4216 25.6769 17.7139 25.1598C17.9524 25.1702 18.1805 25.2202 18.4101 25.2621C18.8246 25.337 19.2423 25.395 19.6536 25.4811C20.2066 25.5979 20.7531 25.7389 21.3044 25.8621C21.9534 26.0071 22.6056 26.1384 23.2537 26.2874C23.4802 26.3398 23.6954 26.4388 23.9219 26.4936C24.2124 26.5637 24.5085 26.6096 24.8029 26.666M9.37504 18.4504C9.37024 18.4447 9.36464 18.4399 9.35984 18.4351C9.48627 18.2957 9.6127 18.1548 9.73994 18.0162C9.94239 17.7955 10.1568 17.5853 10.3449 17.3533C10.6386 16.9917 10.9074 16.6083 11.2011 16.2459C11.4484 15.9406 11.726 15.6611 11.9701 15.3542C12.1397 15.1408 12.259 14.8871 12.4278 14.6728C12.8727 14.1074 13.332 13.554 13.7842 12.995C13.9834 12.7486 14.1739 12.4933 14.3779 12.2508C14.5219 12.0801 14.694 11.9319 14.834 11.7587C15.0869 11.4454 15.3221 11.1183 15.5694 10.801C15.8799 10.4031 16.2088 10.0181 16.5064 9.61055C16.7777 9.23924 17.0154 8.84215 17.2738 8.46117C17.5803 8.01012 17.8996 7.56712 18.2013 7.11365C18.4349 6.76328 18.651 6.40083 18.8742 6.04401C19.0887 5.70169 19.3191 5.36824 19.5128 5.01384C19.7473 4.58373 19.9505 4.1359 20.1618 3.70498C20.4202 3.87252 20.6771 4.03763 20.9316 4.20275C20.6019 4.79395 20.2874 5.39562 19.9377 5.97474C19.5064 6.68998 19.0631 7.40039 18.5926 8.08986C18.1156 8.78979 17.6179 9.47684 17.0938 10.1413C16.5088 10.8824 15.8895 11.5968 15.2741 12.3128C14.8484 12.8082 14.4027 13.2858 13.9666 13.7723C13.5537 14.2338 13.1424 14.697 12.7295 15.1593C12.4774 15.4412 12.2318 15.7296 11.9725 16.0034C11.646 16.3489 11.3123 16.688 10.9722 17.0199C10.6498 17.334 10.3177 17.6393 9.9832 17.9413C9.78635 18.1185 9.57749 18.282 9.37424 18.4512M10.2585 19.5965C10.4585 19.4298 10.6618 19.2534 10.8722 19.0859C11.2115 18.8177 11.5452 18.5414 11.8997 18.2957C12.399 17.9502 12.9135 17.628 13.4241 17.3002C13.9818 16.9418 14.5371 16.5801 15.1021 16.2338C15.5518 15.9583 16.0159 15.7078 16.4704 15.4412C16.9522 15.1585 17.4299 14.8677 17.9108 14.5842C18.5406 14.2129 19.1647 13.8287 19.8065 13.4791C20.2762 13.223 20.7675 13.0063 21.2548 12.7864C22.075 12.4167 22.8897 12.0333 23.7259 11.7039C24.5909 11.3632 25.4783 11.0797 26.3457 10.7752C26.4569 11.062 26.5706 11.3535 26.6882 11.6564C26.3497 11.745 26.0048 11.8151 25.6735 11.9278C25.159 12.1034 24.6533 12.3064 24.146 12.5013C23.9131 12.5907 23.6842 12.689 23.4522 12.7808C23.0705 12.9314 22.684 13.0724 22.3063 13.2319C21.843 13.4284 21.3845 13.6362 20.9276 13.8464C20.4162 14.0816 19.8961 14.3039 19.4016 14.5721C18.647 14.9797 17.914 15.4275 17.165 15.8455C16.7609 16.0711 16.3392 16.2652 15.9311 16.4835C15.4502 16.7404 14.9933 17.0561 14.4915 17.2583C13.8778 17.5056 13.3112 17.8237 12.7591 18.1797C12.7175 18.2063 12.6711 18.2256 12.6271 18.249C12.2214 18.4592 11.8101 18.659 11.4116 18.8829C11.1019 19.0569 10.809 19.2615 10.5081 19.4507C10.4225 19.5047 10.3337 19.5538 10.2601 19.5981M13.5449 22.8191C13.5441 22.7998 13.5425 22.7797 13.5417 22.7603C14.2955 22.7023 15.0501 22.6492 15.8039 22.5864C16.6497 22.5155 17.4955 22.4325 18.3413 22.3624C18.847 22.3206 19.3544 22.2956 19.8609 22.2602C20.3754 22.2239 20.8891 22.1595 21.4037 22.153C22.1423 22.145 22.8816 22.1756 23.6202 22.1949C23.7683 22.1989 23.9155 22.2239 24.0635 22.2384C24.6165 22.2932 25.171 22.3367 25.7224 22.4059C26.1353 22.4583 26.5434 22.5437 26.9779 22.6178C26.9315 22.8562 26.8787 23.1316 26.8226 23.4208C26.4729 23.354 26.1337 23.1542 25.7608 23.2629C25.7544 23.2887 25.7488 23.3145 25.7424 23.3403C26.1049 23.4506 26.4665 23.561 26.6682 23.6222C26.669 23.9154 26.6706 24.1618 26.6714 24.4147C26.6434 24.4018 26.5714 24.3664 26.4978 24.3334C26.3273 24.2544 26.1633 24.1522 25.9856 24.103C25.5655 23.9878 25.1422 23.8815 24.7141 23.8018C24.194 23.7051 23.6706 23.6222 23.1449 23.5642C22.5312 23.4965 21.9142 23.4313 21.298 23.4192C20.2186 23.3975 19.1383 23.416 18.0588 23.4208C17.2618 23.424 16.4648 23.4337 15.667 23.4401C15.4918 23.4417 15.3165 23.4401 15.1413 23.4401C15.1397 23.4136 15.1373 23.3878 15.1357 23.3612C15.4766 23.3217 15.8167 23.2758 16.1584 23.2436C16.6353 23.1985 17.1122 23.1647 17.5899 23.1252C18.138 23.0793 18.6846 23.0108 19.2335 22.9923C19.8409 22.9722 20.4506 22.9883 21.0588 23.0052C21.715 23.0237 22.3703 23.0519 23.0257 23.093C23.5274 23.1244 24.0275 23.184 24.5293 23.2251C24.6253 23.2331 24.7229 23.2106 24.8197 23.2025C24.8245 23.1816 24.8293 23.1615 24.8341 23.1405C24.6573 23.0527 24.4884 22.9214 24.302 22.8844C23.8203 22.7877 23.3322 22.7168 22.844 22.6637C22.2719 22.6009 21.6973 22.563 21.1236 22.5235C20.6147 22.4889 20.1049 22.4414 19.5968 22.447C19.0503 22.4527 18.5045 22.5098 17.9588 22.5509C17.0698 22.6186 16.1816 22.7032 15.2925 22.7603C14.7116 22.7982 14.1282 22.8006 13.5465 22.8183M12.6831 16.4448C12.7031 16.3715 12.7023 16.3514 12.7111 16.3441C13.5209 15.6901 14.1899 14.8967 14.8884 14.1332C15.2261 13.7643 15.5542 13.3873 15.8919 13.0184C16.3168 12.5537 16.7585 12.1026 17.1722 11.6274C17.5467 11.1973 17.8916 10.7422 18.2549 10.3016C18.4773 10.0318 18.7158 9.77405 18.9367 9.50342C19.1311 9.26581 19.3047 9.01129 19.5008 8.7753C19.7032 8.53286 19.9313 8.31136 20.1298 8.0657C20.3978 7.73385 20.6523 7.38992 20.9051 7.04519C21.1612 6.69562 21.4277 6.35089 21.6533 5.98199C21.8694 5.62921 22.0382 5.24822 22.2383 4.86C22.3871 5.01787 22.5224 5.21843 22.4607 5.42221C22.3311 5.85393 22.1983 6.30176 21.9654 6.68113C21.5509 7.35609 21.0692 7.98998 20.6019 8.63112C20.2378 9.1305 19.8521 9.61377 19.4784 10.1059C19.1599 10.5247 18.8494 10.95 18.5277 11.3664C18.4069 11.5227 18.2797 11.6822 18.1268 11.8038C17.5707 12.2444 16.9866 12.6503 16.4424 13.1046C15.8623 13.5895 15.3157 14.1162 14.7532 14.6229C14.2683 15.061 13.7826 15.4984 13.2936 15.9325C13.1064 16.0985 12.9103 16.2539 12.6807 16.4456M14.0826 15.8077C14.2643 15.6369 14.4795 15.4114 14.7172 15.2133C15.2045 14.8081 15.7054 14.4191 16.1984 14.0204C16.5216 13.7586 16.8385 13.4904 17.1602 13.2278C17.5179 12.9354 17.886 12.6551 18.2341 12.3507C18.4861 12.13 18.6638 11.8102 19.0503 11.7853C19.0975 11.782 19.1439 11.7506 19.1879 11.7265C19.48 11.5662 19.7681 11.397 20.0641 11.244C20.5515 10.9911 21.0428 10.7462 21.5349 10.5014C22.1831 10.1792 22.832 9.85782 23.4842 9.54531C23.6562 9.46315 23.8411 9.40355 24.0259 9.35764C24.4909 9.24407 24.9566 9.1305 25.4263 9.04512C25.6079 9.0121 25.8792 9.25212 25.9008 9.352C25.3879 9.53967 24.8806 9.71445 24.3812 9.91179C24.0635 10.0366 23.7571 10.1905 23.449 10.3387C23.0201 10.5449 22.5872 10.7438 22.1711 10.9726C21.8166 11.1675 21.4909 11.4148 21.138 11.6113C20.5947 11.9125 20.0353 12.1848 19.4896 12.4804C19.1959 12.639 18.9126 12.817 18.6294 12.9926C18.0244 13.3672 17.4219 13.7449 16.8209 14.1251C16.5529 14.295 16.296 14.4843 16.0239 14.6478C15.6422 14.8774 15.2477 15.0876 14.8644 15.3148C14.5812 15.4831 14.3067 15.6651 14.0826 15.8069M22.0582 4.63689C21.927 4.76979 21.8366 4.83584 21.7782 4.92363C21.5525 5.26434 21.3453 5.61874 21.1148 5.95541C20.7227 6.52889 20.321 7.09593 19.9153 7.65974C19.8001 7.82003 19.6528 7.95535 19.5312 8.1108C19.3824 8.30008 19.2519 8.50466 19.0999 8.69233C18.5005 9.43013 17.9004 10.1679 17.293 10.8993C16.7729 11.5243 16.2416 12.1405 15.7158 12.7615C15.6086 12.8887 15.5118 13.024 15.399 13.1457C15.1621 13.4018 14.91 13.6442 14.6804 13.906C14.4227 14.2 14.2011 14.5278 13.929 14.8065C13.5665 15.177 13.1688 15.5121 12.7903 15.8665C12.427 16.2072 12.0749 16.56 11.706 16.8934C11.5156 17.0658 11.2979 17.2084 11.0595 17.3896C11.2259 17.181 11.3459 16.9973 11.4972 16.8467C11.7741 16.5713 12.0821 16.3272 12.3558 16.0493C12.8183 15.5789 13.2688 15.0957 13.7161 14.61C14.0738 14.2218 14.4227 13.8247 14.7676 13.4252C14.8612 13.3172 14.9124 13.1723 15.0069 13.0651C15.2749 12.7623 15.5598 12.4739 15.8303 12.1727C16.2424 11.7136 16.6665 11.2649 17.0506 10.7833C17.4979 10.2227 17.9236 9.64277 18.3293 9.05076C18.8278 8.32424 19.3039 7.58081 19.7753 6.83577C20.0073 6.46929 20.2066 6.08267 20.4226 5.70572C20.6931 5.23373 20.9644 4.76254 21.2428 4.27846C21.4725 4.37915 21.7526 4.50319 22.059 4.6377M26.3433 10.5183C26.0488 10.5827 25.764 10.6174 25.4991 10.7084C24.9174 10.9089 24.3452 11.1377 23.7683 11.3543C23.4658 11.4679 23.1601 11.5718 22.8616 11.6942C22.4175 11.8771 21.9798 12.0736 21.5381 12.2621C21.2396 12.3894 20.9364 12.5053 20.6419 12.6415C20.4154 12.7462 20.2002 12.875 19.9809 12.9942C19.548 13.2278 19.1127 13.4574 18.6838 13.699C18.3125 13.9084 17.9532 14.1388 17.5835 14.3498C17.1682 14.5866 16.7369 14.7968 16.3296 15.0457C15.7006 15.4299 15.0861 15.8367 14.4659 16.2354C13.8906 16.6051 13.3128 16.9724 12.7431 17.3501C12.4158 17.5668 12.1005 17.802 11.7796 18.0291C11.766 18.0122 11.7532 17.9953 11.7396 17.9784C11.9213 17.827 12.0965 17.6659 12.287 17.5249C12.7559 17.1778 13.2408 16.8532 13.7017 16.4955C14.2275 16.0872 14.7732 15.7134 15.3517 15.384C15.8999 15.0723 16.4408 14.7469 16.9802 14.4199C17.3715 14.1823 17.7484 13.9205 18.1445 13.6926C18.7718 13.3309 19.4096 12.9886 20.0433 12.6382C20.4378 12.42 20.8307 12.1993 21.2268 11.9834C21.4605 11.8561 21.7005 11.7394 21.9342 11.6105C22.1671 11.4824 22.3919 11.3382 22.628 11.215C22.9065 11.0692 23.1905 10.9331 23.477 10.8018C23.9627 10.5795 24.4492 10.3596 24.9398 10.147C25.3247 9.97944 25.7152 9.8248 26.1441 9.6468C26.2041 9.90696 26.2753 10.2146 26.3449 10.5175M6.45191 10.4925C6.43831 10.4853 6.4255 10.4788 6.4119 10.4716C6.4063 10.2903 6.39029 10.1083 6.3967 9.92709C6.4199 9.29964 6.45831 8.67301 6.47672 8.04556C6.50152 7.21514 6.50552 6.38311 6.53193 5.55269C6.55674 4.76012 6.59994 3.96756 6.63275 3.175C6.64716 2.82462 6.67596 2.47345 6.65916 2.12469C6.63675 1.6688 6.57674 1.21453 6.53113 0.745756C6.87842 0.7079 7.10487 0.954368 7.34813 1.12351C7.42895 1.17989 7.41935 1.39334 7.42175 1.5351C7.42976 2.03126 7.43856 2.52741 7.42175 3.02277C7.40495 3.50282 7.35454 3.98206 7.32173 4.4613C7.29452 4.8592 7.28572 5.2595 7.24331 5.65578C7.19289 6.13342 7.11688 6.60864 7.05126 7.08466C6.97364 7.64525 6.90242 8.20665 6.8136 8.76563C6.76879 9.04593 6.68877 9.32058 6.63035 9.59847C6.56714 9.89568 6.51113 10.1945 6.45191 10.4925ZM17.6411 23.9733C17.7027 23.9516 17.7396 23.9274 17.7764 23.9274C18.3813 23.9339 18.9863 23.9387 19.5904 23.9524C20.0705 23.9637 20.5499 23.9822 21.03 24.0048C21.3677 24.0201 21.7053 24.0499 22.043 24.0676C22.4287 24.0877 22.8168 24.0813 23.2001 24.1248C23.8019 24.1932 24.4012 24.2851 24.999 24.3841C25.5767 24.48 26.1513 24.5952 26.7274 24.7047C26.757 24.7103 26.7986 24.7337 26.8074 24.7587C26.9107 25.047 27.1499 25.3023 27.0475 25.6382C26.7002 25.5561 26.3697 25.4667 26.0344 25.4006C25.1774 25.2298 24.3212 25.0575 23.4602 24.9093C22.7104 24.7804 21.9542 24.691 21.2028 24.5694C20.0249 24.3793 18.8478 24.1763 17.6395 23.9741M1.32742 3.46013C1.85795 4.59098 2.42449 5.67834 2.88381 6.80919C3.34553 7.9481 3.70081 9.13131 4.10252 10.2952C4.07611 10.3057 4.0505 10.3169 4.0241 10.3274C3.80884 9.98427 3.58479 9.64599 3.37994 9.29642C3.20789 9.00163 3.07426 8.68428 2.89661 8.39351C2.58533 7.88528 2.24365 7.39475 1.93157 6.88651C1.60829 6.35894 1.2826 5.82976 1.00173 5.27883C0.82649 4.93571 0.696859 4.56198 0.773678 4.14959C0.848097 3.74526 1.04575 3.4859 1.32742 3.46013ZM23.4242 30.3396C23.3914 30.3863 23.3498 30.4524 23.3026 30.5144C23.0889 30.7923 22.4519 30.7528 22.1991 30.6457C21.6821 30.4258 21.2724 30.0537 20.8667 29.6743C20.4522 29.2861 20.0129 28.9236 19.5944 28.5394C19.3416 28.3075 19.1199 28.0417 18.863 27.8145C18.4741 27.4698 18.0628 27.1517 17.6723 26.8101C17.5467 26.7006 17.4547 26.5532 17.3475 26.4227C17.3619 26.4018 17.3763 26.3808 17.3907 26.3591C18.4285 26.9664 19.4944 27.5302 20.497 28.1915C21.4973 28.8512 22.4351 29.6083 23.4242 30.3404M2.42129 3.30145C3.54477 5.58329 4.17773 8.0375 4.57703 10.565C4.51942 10.4772 4.47141 10.3838 4.445 10.2847C4.34898 9.93031 4.28576 9.56464 4.16493 9.2191C3.87926 8.40237 3.56958 7.5945 3.26551 6.78422C3.18629 6.574 3.09506 6.36942 3.00544 6.16322C2.87181 5.85554 2.74217 5.54624 2.59734 5.2442C2.39729 4.82698 2.19244 4.41217 1.97478 4.00381C1.87076 3.80889 1.73312 3.6333 1.60589 3.44079C1.88756 3.39247 2.15642 3.34656 2.42209 3.30065M17.0914 25.8251C17.0986 25.8049 17.1066 25.7848 17.1138 25.7647C19.488 26.6539 21.7686 27.7235 23.7707 29.2748C23.677 29.5277 23.5842 29.7782 23.5074 29.9844C23.2361 29.7573 22.9721 29.5173 22.6888 29.3038C22.1439 28.8922 21.5981 28.4798 21.0332 28.0964C20.5739 27.7847 20.0889 27.5117 19.6112 27.229C19.0087 26.873 18.4037 26.5202 17.7956 26.1746C17.5683 26.0458 17.3266 25.9411 17.0914 25.8259M10.0952 22.5936C10.0904 22.563 10.0864 22.5324 10.0816 22.5018C10.4849 22.4486 10.8882 22.3955 11.2915 22.3423C11.2963 22.3769 11.3003 22.4108 11.3051 22.4454C10.9018 22.4945 10.4985 22.5445 10.0952 22.5936ZM6.33908 14.1315C6.20305 13.7401 6.47751 13.4179 6.46711 13.0474C6.49832 13.053 6.52953 13.0587 6.56074 13.0635C6.48712 13.4195 6.4127 13.7755 6.33908 14.1315Z" fill="#9B3C34"/>
</svg>
