<svg width="9" height="3" viewBox="0 0 9 3" fill="none" xmlns="http://www.w3.org/2000/svg">
<path d="M8.9615 0.000821649C8.66629 0.0681311 8.36945 0.128876 8.07587 0.203573C7.71705 0.295508 7.3615 0.399755 7.00431 0.499898C6.55823 0.624667 6.11052 0.742868 5.66771 0.878307C5.1727 1.03016 4.68177 1.19926 4.18921 1.35851C3.62489 1.54073 3.05975 1.72296 2.49461 1.90273C2.02733 2.0513 1.55515 2.18756 1.09114 2.3468C0.769014 2.45762 0.455048 2.59388 0.143528 2.73342C0.0815505 2.76133 0.0472989 2.85081 0 2.91237C0.0831807 2.93946 0.175331 3.00348 0.248726 2.98706C0.560246 2.91729 0.867688 2.82372 1.17595 2.73835C1.73701 2.58239 2.30215 2.4371 2.85832 2.26554C3.46342 2.08003 4.06036 1.86907 4.66139 1.67207C5.00634 1.55961 5.35619 1.46275 5.69788 1.34127C5.99064 1.23702 6.27036 1.09173 6.56475 0.992406C7.08749 0.816745 7.61756 0.66407 8.14274 0.497438C8.367 0.426024 8.59208 0.353788 8.80982 0.265137C8.88403 0.234766 8.93704 0.15268 8.99983 0.0943994C8.98678 0.0623864 8.97373 0.0311922 8.96069 0" fill="#9B3C34"/>
</svg>
