<svg width="4" height="9" viewBox="0 0 4 9" fill="none" xmlns="http://www.w3.org/2000/svg">
<path d="M0.119027 0C0.259068 0.277724 0.404943 0.552093 0.537482 0.834012C0.699197 1.17886 0.850075 1.5279 1.00429 1.87611C1.19684 2.31073 1.3969 2.74284 1.57946 3.1825C1.78368 3.67419 1.97124 4.17258 2.16796 4.66762C2.39303 5.23397 2.61893 5.80033 2.84733 6.36501C3.03572 6.83236 3.23744 7.29467 3.415 7.76705C3.53837 8.09428 3.63589 8.43242 3.73092 8.76971C3.74926 8.83684 3.70175 8.92326 3.68424 9.00045C3.60922 8.95179 3.49835 8.92158 3.46334 8.85278C3.31497 8.55995 3.18743 8.25622 3.05406 7.95584C2.80982 7.40962 2.55641 6.86676 2.32634 6.31467C2.0771 5.71475 1.85287 5.10392 1.61447 4.49897C1.47776 4.15244 1.32521 3.81179 1.19768 3.46191C1.08848 3.16153 1.01929 2.84605 0.905091 2.54735C0.701698 2.01875 0.475799 1.49938 0.263237 0.974133C0.172377 0.750108 0.0823496 0.524404 0.00982829 0.293666C-0.0151791 0.215635 0.0148294 0.119145 0.0198308 0.0318842C0.053174 0.0218156 0.0856837 0.0109071 0.119027 0.000838586" fill="#9B3C34"/>
</svg>
