<svg width="65" height="28" viewBox="0 0 65 28" fill="none" xmlns="http://www.w3.org/2000/svg">
<path d="M0.0190598 26.4209C2.04547 25.3973 4.04294 24.3306 6.0983 23.3647C8.61683 22.1826 11.1643 21.087 13.6973 19.9481C16.8672 18.5354 20.0226 17.0794 23.2214 15.7387C26.811 14.2394 30.4441 12.8699 34.0482 11.4428C38.1734 9.79935 42.2986 8.14151 46.4238 6.48369C49.8397 5.09976 53.2123 3.62935 56.6427 2.33193C59.0309 1.43814 61.4915 0.717337 63.9522 0.0253739C64.7658 -0.212969 65.3694 1.28585 64.738 1.85175C64.6783 1.90525 64.6145 1.95066 64.5456 1.98594C62.4179 3.06713 60.1889 4.00416 58.0033 4.98444C54.0228 6.77202 50.0568 8.63167 46.033 10.3039C41.6617 12.1203 37.2036 13.7637 32.789 15.5081C30.256 16.5027 27.7808 17.6272 25.2334 18.5498C23.0477 19.3571 20.7463 19.8472 18.5607 20.6833C14.7105 22.1682 10.9182 23.826 7.09703 25.3829C5.46143 26.0461 3.81137 26.7092 2.13234 27.2282C1.65291 27.3833 1.09407 27.2519 0.554463 27.1857C0.355969 27.1614 0.18487 27.027 0.125642 26.836C0.0866163 26.7102 0.0458843 26.586 0.00141946 26.4656C-0.00494212 26.4484 0.00262277 26.4291 0.0190598 26.4209Z" fill="#9C3C33"/>
</svg>
