<svg width="65" height="28" viewBox="0 0 65 28" fill="none" xmlns="http://www.w3.org/2000/svg">
<path d="M64.9809 26.4209C62.9545 25.3973 60.9571 24.3306 58.9017 23.3647C56.3832 22.1826 53.8357 21.087 51.3027 19.9481C48.1328 18.5353 44.9774 17.0793 41.7786 15.7386C38.1889 14.2394 34.5559 12.8698 30.9517 11.4427C26.8266 9.79924 22.7013 8.14139 18.5762 6.48356C15.1602 5.09962 11.7877 3.62921 8.35727 2.33177C5.969 1.43798 3.50838 0.717173 1.04774 0.0252061C0.234089 -0.21314 -0.36943 1.28568 0.261918 1.85159C0.321615 1.90509 0.385412 1.9505 0.454292 1.98578C2.58202 3.06698 4.81105 4.00402 6.99668 4.98431C10.9771 6.77189 14.9431 8.63156 18.967 10.3038C23.3382 12.1202 27.7963 13.7636 32.211 15.508C34.744 16.5027 37.2191 17.6271 39.7666 18.5497C41.9522 19.357 44.2536 19.8472 46.4393 20.6833C50.2894 22.1682 54.0817 23.826 57.903 25.3829C59.5386 26.046 61.1886 26.7092 62.8677 27.2282C63.3471 27.3833 63.9059 27.2519 64.4455 27.1857C64.644 27.1614 64.8151 27.027 64.8744 26.836C64.9134 26.7102 64.9541 26.586 64.9986 26.4656C65.0049 26.4483 64.9974 26.4291 64.9809 26.4209Z" fill="#9C3C33"/>
</svg>
