<svg width="104" height="48" viewBox="0 0 104 48" fill="none" xmlns="http://www.w3.org/2000/svg">
<path d="M27.824 37.1314H27.7402C26.6145 35.1798 24.5035 34.4276 22.6183 34.4276C20.8736 34.4276 19.4952 34.9014 19.4952 36.1837C19.4952 37.2706 20.1993 37.9399 22.9008 38.9157L23.9428 39.3066C27.77 40.7843 28.6984 41.815 28.6984 43.5992C28.6984 45.9122 26.6159 47.9749 22.986 47.9749C20.5372 47.9749 18.1168 46.8317 16.8789 45.6338L17.1884 42.345L17.2452 42.3169C18.3709 44.6032 21.5224 46.192 23.6901 46.192C25.8578 46.192 26.6457 45.3273 26.6457 44.3529C26.6457 43.1816 25.8862 42.5405 23.2117 41.5098L21.8603 41.036C18.6804 39.8648 17.3573 38.9452 17.3573 36.7996C17.3573 34.6539 19.8345 32.7305 22.9576 32.7305C25.2659 32.7305 26.9821 33.3998 28.4457 34.3193L27.8268 37.1342L27.824 37.1314Z" fill="#FEDFBE"/>
<path d="M31.5957 40.6161C31.5957 36.5188 35.6486 32.6719 39.8137 32.6719C43.7531 32.6719 46.8776 35.543 46.8776 40.0579C46.8776 44.1551 42.9652 48.002 38.9691 48.002C34.7188 48.002 31.5957 45.159 31.5957 40.6161ZM44.2045 40.6161C44.2045 37.16 42.2625 34.3437 38.9705 34.3437C35.6784 34.3437 34.2702 36.128 34.2702 40.0579C34.2702 43.5421 36.2406 46.3288 39.5326 46.3288C42.8247 46.3288 44.2045 44.5446 44.2045 40.6147V40.6161Z" fill="#FEDFBE"/>
<path d="M53.3233 27.332V43.3554C53.3233 47.1784 54.2234 47.7507 54.2234 47.7507H50.3961C50.3961 47.7507 50.9313 47.1784 50.9313 41.5345V33.8617C50.9313 30.168 50.2272 29.6225 49.834 29.5705V29.4411L53.3233 27.3334V27.332Z" fill="#FEDFBE"/>
<path d="M64.3742 32.5273C67.9487 32.5273 70.6786 35.092 70.6786 40.3323H59.5618C59.8428 43.7054 61.7848 46.0746 64.9094 46.0746C67.7514 46.0746 69.3271 44.1512 70.0596 42.4512H70.1164V43.9838C69.6096 45.2099 67.9771 47.7464 63.7836 47.7464C60.0132 47.7464 56.8887 45.1256 56.8887 40.3042C56.8887 35.9005 60.8011 32.5273 64.3742 32.5273ZM67.9487 38.7997C67.5825 35.4547 65.9229 34.1443 63.2768 34.1443C61.0538 34.1443 59.6185 35.5658 59.5334 39.1892L67.9487 38.7983V38.7997Z" fill="#FEDFBE"/>
<path d="M85.0332 47.7494H88.5282C88.5282 47.7494 87.8639 47.1364 87.7233 43.0392V39.1374C87.7233 34.5663 84.9608 32.7539 81.2528 32.7539C81.0981 32.7539 80.9448 32.7609 80.7915 32.7708C80.6396 32.7609 80.4862 32.7539 80.3301 32.7539C76.6221 32.7539 73.8596 34.5663 73.8596 39.1374V43.0392C73.7191 47.1364 73.0547 47.7494 73.0547 47.7494H76.4078C76.4078 47.7494 76.1636 47.1364 76.1281 41.0876V40.1961C76.1281 37.5232 76.9046 36.0511 78.381 35.3635C79.4272 34.877 82.0137 34.877 83.0586 35.3635C84.5349 36.0497 85.3114 37.5232 85.3114 40.1961V41.0876C85.276 47.1364 85.0318 47.7494 85.0318 47.7494H85.0332Z" fill="#FEDFBE"/>
<path d="M97.6945 32.5273C101.269 32.5273 103.999 35.092 103.999 40.3323H92.8821C93.1631 43.7054 95.1052 46.0746 98.2297 46.0746C101.072 46.0746 102.647 44.1512 103.38 42.4512H103.437V43.9838C102.93 45.2099 101.297 47.7464 97.1039 47.7464C93.3335 47.7464 90.209 45.1256 90.209 40.3042C90.209 35.9005 94.1214 32.5273 97.6945 32.5273ZM101.268 38.7997C100.901 35.4547 99.2418 34.1443 96.5957 34.1443C94.3726 34.1443 92.9374 35.5658 92.8523 39.1892L101.266 38.7983L101.268 38.7997Z" fill="#FEDFBE"/>
<path d="M13.4583 5.58932C13.5094 5.59213 13.5577 5.59354 13.6102 5.59635C13.6159 5.57666 13.623 5.55979 13.6258 5.54292C13.6372 5.42762 13.6471 5.31092 13.6571 5.19562C13.6727 5.00581 13.6784 4.81599 13.7039 4.62758C13.7465 4.3084 13.7976 3.99064 13.8544 3.67428C13.931 3.25527 14.0134 2.83768 14.1 2.42008C14.1369 2.24011 14.1738 2.05732 14.2348 1.88297C14.3896 1.44006 14.5358 0.991535 14.7317 0.566908C14.8268 0.361625 14.9815 0.181648 15.2456 0.0944731C15.7865 -0.0840952 16.2663 0.0199545 16.7362 0.289916C16.9335 0.403806 17.1294 0.533163 17.3437 0.602059C17.5141 0.656895 17.71 0.641428 17.8945 0.635803C18.2168 0.625961 18.461 0.741259 18.6398 1.01122C18.7264 1.14339 18.8215 1.2854 18.9479 1.36976C19.0629 1.44709 19.2346 1.50333 19.3667 1.48224C19.9388 1.39226 20.3788 1.6102 20.7167 2.03342C20.9112 2.27526 21.1752 2.38493 21.4251 2.53116C21.7005 2.69145 21.9787 2.84892 22.2456 3.02046C22.4415 3.14701 22.6388 3.27918 22.8092 3.43666C23.0817 3.68693 23.3004 3.98361 23.4508 4.32668C23.6567 4.79912 23.8497 5.27999 24.0911 5.73414C24.2061 5.95067 24.419 6.11518 24.5893 6.30218C24.6901 6.41186 24.8037 6.51028 24.8945 6.62839C25.011 6.77743 25.1515 6.87867 25.3346 6.92929C25.6767 7.0249 25.9067 7.24143 26.0714 7.55498C26.1992 7.79682 26.3809 8.01475 26.3809 8.30159C26.3809 8.54624 26.3738 8.79511 26.3326 9.03555C26.2772 9.36597 26.2787 9.68936 26.4589 9.97057C26.6293 10.2363 26.6832 10.5049 26.6108 10.803C26.5512 11.0448 26.6449 11.2304 26.7897 11.4188C27.1091 11.835 27.1588 12.1598 26.9047 12.6308C26.5597 13.2678 25.9962 13.5363 25.2892 13.5911C24.8718 13.6235 24.4587 13.7135 24.0428 13.7669C23.7149 13.8091 23.3827 13.8288 23.0548 13.8653C22.707 13.9033 22.3606 13.9469 22.0142 13.9919C21.7005 14.0341 21.3853 14.0762 21.073 14.1311C20.9027 14.1606 20.7351 14.2126 20.5691 14.2618C20.3022 14.3406 20.0353 14.4263 19.7698 14.5093C19.3624 14.6358 18.9507 14.7483 18.5504 14.8903C18.1288 15.0394 17.7185 15.2179 17.3012 15.3796C16.7546 15.592 16.3089 15.9491 15.8958 16.3498C15.5948 16.6423 15.2967 16.9404 15.0227 17.2581C14.5784 17.7713 14.2561 18.3633 14.0844 19.0143C13.9495 19.5261 13.8899 20.0576 13.8061 20.582C13.7919 20.6762 13.8572 20.7803 13.8388 20.8773C13.7976 21.0868 13.7834 21.136 13.5903 21.0995C13.5662 21.0952 13.5421 21.091 13.5165 21.0924C13.4455 21.0938 13.3235 21.1206 13.3135 21.0995C13.2724 20.9996 13.2553 20.8885 13.244 20.7803C13.234 20.6833 13.2511 20.5848 13.2397 20.4878C13.2156 20.2699 13.2071 20.0463 13.1489 19.8354C13.0182 19.3616 12.96 18.8751 12.7613 18.4111C12.5356 17.8838 12.1849 17.4578 11.84 17.0219C11.417 16.4876 10.9016 16.0405 10.3338 15.6721C9.95761 15.4289 9.5147 15.2784 9.09166 15.1125C8.63171 14.9325 8.16325 14.7736 7.69194 14.6218C7.36118 14.5149 7.02048 14.4404 6.68545 14.3462C6.52504 14.3012 6.37172 14.2295 6.20847 14.1958C5.87487 14.1254 5.53842 14.072 5.2034 14.013C4.98336 13.975 4.76333 13.9342 4.54045 13.9047C4.38146 13.8836 4.21962 13.8794 4.05921 13.8625C3.51834 13.8049 2.9789 13.75 2.43945 13.6839C2.08314 13.6404 1.72824 13.5855 1.37334 13.5265C0.775694 13.4266 0.37253 13.0667 0.111325 12.5479C-0.0859978 12.1556 -0.0107589 11.7745 0.256124 11.4371C0.405181 11.2487 0.505972 11.0743 0.450608 10.8128C0.386726 10.5105 0.436411 10.2166 0.61386 9.93682C0.796987 9.64718 0.781373 9.3266 0.717492 8.98633C0.643673 8.58983 0.612442 8.17505 0.855192 7.80244C0.93043 7.68715 0.985793 7.56201 1.05819 7.4453C1.21293 7.19362 1.42019 7.0024 1.72256 6.94475C1.98803 6.89413 2.12431 6.6776 2.29892 6.51309C2.4863 6.33593 2.66801 6.14752 2.82132 5.94083C2.96044 5.75523 3.07259 5.54573 3.17338 5.33623C3.38348 4.90035 3.54106 4.43495 3.78949 4.02298C3.97687 3.71083 4.23808 3.41978 4.52767 3.19622C4.87689 2.92626 5.2758 2.70973 5.67754 2.52132C6.0225 2.35962 6.29648 2.12621 6.53214 1.85063C6.82741 1.50333 7.21354 1.45272 7.62096 1.4724C7.92617 1.48647 8.16325 1.40913 8.33076 1.1476C8.40316 1.03371 8.48407 0.918417 8.58628 0.831242C8.75096 0.687825 8.94828 0.614712 9.17684 0.640021C9.61407 0.689233 9.98316 0.510663 10.3395 0.291319C10.886 -0.0475388 11.4567 -0.107997 12.0302 0.201334C12.1693 0.275855 12.2886 0.444579 12.3482 0.595027C12.5668 1.15323 12.7812 1.71424 12.9501 2.28791C13.0708 2.69567 13.119 3.12451 13.1929 3.54633C13.2624 3.94424 13.3334 4.34215 13.3873 4.74287C13.4243 5.01705 13.4342 5.29545 13.4569 5.59354L13.4583 5.58932ZM23.7106 6.11377C23.6652 6.21642 23.6467 6.34577 23.5715 6.41607C23.1981 6.76196 22.7978 7.08114 22.4301 7.43265C22.1633 7.68855 21.9333 7.98101 21.6863 8.2566C21.4095 8.56733 21.1227 8.86823 20.8615 9.19162C20.562 9.56282 20.278 9.94807 20.0026 10.3375C19.537 10.9942 19.0856 11.662 18.6228 12.3215C18.319 12.7545 18.0039 13.1806 17.6958 13.6122C17.6589 13.6629 17.6333 13.7205 17.6035 13.7753C17.8874 13.4801 18.1401 13.1679 18.3786 12.8445C18.5589 12.5985 18.7179 12.3384 18.8911 12.0881C19.0558 11.8505 19.229 11.6171 19.3979 11.3808C19.4944 11.2459 19.5853 11.1067 19.6861 10.9745C19.916 10.6778 20.1446 10.3797 20.3845 10.0901C20.5364 9.90589 20.7039 9.73295 20.87 9.56C21.0304 9.39409 21.1937 9.23239 21.3626 9.07491C21.7104 8.75012 22.0568 8.42251 22.4174 8.11177C22.5735 7.97679 22.7623 7.87977 22.9369 7.76729C22.9682 7.74761 23.0037 7.73495 23.0377 7.71948C23.0235 7.76588 23.0179 7.81931 22.9909 7.85587C22.9597 7.89946 22.9043 7.92617 22.8674 7.96695C22.362 8.50546 21.8467 9.03695 21.3555 9.58672C20.9126 10.0831 20.4853 10.5935 20.0694 11.1123C19.8649 11.3682 19.7088 11.6606 19.5228 11.9292C19.2446 12.3313 18.9592 12.7278 18.6782 13.1286C18.6469 13.1736 18.6327 13.2284 18.61 13.279C18.6668 13.2818 18.6938 13.2678 18.7122 13.2467C18.955 12.957 19.1949 12.666 19.4376 12.3777C19.6761 12.0951 19.9217 11.8195 20.1574 11.5341C20.4541 11.1742 20.7366 10.8044 21.0347 10.4458C21.3072 10.1182 21.5912 9.79903 21.8722 9.47845C22.0128 9.31816 22.1476 9.15225 22.3052 9.01024C22.663 8.68403 23.032 8.37049 23.3983 8.05272C23.5147 7.95148 23.6297 7.84603 23.7575 7.76166C23.9917 7.60559 24.2344 7.46218 24.4772 7.31735C24.5595 7.26814 24.6504 7.23018 24.7498 7.18097C24.5993 7.03755 24.4658 6.91241 24.3225 6.77603C24.1251 6.89835 23.915 7.02911 23.7049 7.15988C23.6893 7.13878 23.6737 7.1177 23.6581 7.09661C23.8412 6.94616 24.0243 6.79571 24.2061 6.64526C24.0385 6.46669 23.8739 6.29094 23.7092 6.11659C23.5587 5.78757 23.4082 5.45715 23.2549 5.1197C22.4685 6.05894 21.7218 7.0024 20.7863 7.7926C20.7664 7.70402 20.7593 7.61544 20.7976 7.5606C20.9992 7.27939 21.205 7.0024 21.4222 6.73384C21.709 6.37952 22.0028 6.03222 22.3024 5.68915C22.5536 5.40091 22.8092 5.11267 23.1882 4.93972C23.0903 4.71616 22.9937 4.494 22.8816 4.23248C22.6899 4.41245 22.5125 4.55446 22.3663 4.72179C22.0185 5.1211 21.665 5.51761 21.3484 5.94083C20.9424 6.48357 20.5662 7.0502 20.1815 7.60841C19.9813 7.89946 19.7854 8.19473 19.5995 8.49422C19.3581 8.88229 19.1211 9.27458 18.8925 9.66968C18.7392 9.93401 18.6015 10.2068 18.461 10.4782C18.231 10.9225 18.001 11.3668 17.7753 11.8139C17.5794 12.202 17.392 12.5943 17.1975 12.9823C16.9888 13.3985 16.7787 13.8147 16.5601 14.2267C16.377 14.5726 16.1868 14.9142 15.9951 15.2545C15.8901 15.4401 15.7737 15.6187 15.6629 15.8001L15.7013 15.8282C15.768 15.7494 15.8489 15.6791 15.9 15.592C16.0619 15.3164 16.2095 15.0338 16.3671 14.7554C16.5914 14.3617 16.8199 13.9722 17.0442 13.5785C17.3225 13.0892 17.6007 12.5999 17.8747 12.1078C18.0166 11.8533 18.143 11.5917 18.2849 11.3358C18.4354 11.0631 18.5972 10.7973 18.7506 10.526C18.884 10.2897 19.0018 10.0451 19.1438 9.8145C19.2928 9.57406 19.4675 9.3491 19.625 9.11288C19.8153 8.83027 19.9955 8.54062 20.1886 8.26081C20.2213 8.21442 20.2993 8.20035 20.3575 8.17083C20.3604 8.24957 20.393 8.34518 20.3604 8.40423C20.1588 8.77262 19.9416 9.12975 19.7329 9.49392C19.4802 9.93401 19.2375 10.3811 18.9805 10.8198C18.5334 11.5833 18.0777 12.3426 17.6277 13.1047C17.6092 13.1356 17.6064 13.1736 17.5964 13.2087C17.6674 13.1454 17.7029 13.0667 17.7526 12.9978C18.0095 12.628 18.2764 12.2652 18.5263 11.8912C18.7931 11.4905 19.0416 11.0771 19.3042 10.675C19.3936 10.5372 19.5072 10.4135 19.6052 10.2813C19.7854 10.0381 19.953 9.78638 20.1418 9.55016C20.4214 9.20146 20.7068 8.85839 21.0035 8.52375C21.3584 8.12302 21.7175 7.72511 22.0951 7.34548C22.4372 7.0024 22.7992 6.6776 23.1683 6.36265C23.3188 6.2347 23.4693 6.06175 23.712 6.11096L23.7106 6.11377ZM11.9436 15.0281C12.0245 15.3122 12.1055 15.5962 12.1878 15.8802C12.2091 15.8732 12.2318 15.8661 12.2531 15.8591C12.1977 15.6988 12.1452 15.5371 12.087 15.3768C12.043 15.2587 11.9905 15.1434 11.9422 15.0281C11.9465 14.993 11.9621 14.9536 11.9536 14.9213C11.8343 14.491 11.725 14.058 11.5859 13.6347C11.3658 12.9655 11.1416 12.2976 10.8889 11.641C10.6688 11.0715 10.4048 10.5175 10.162 9.95651C10.1138 9.84403 10.0797 9.72311 10.0258 9.61343C9.85966 9.27317 9.68363 8.93572 9.51754 8.59545C9.50192 8.56311 9.52747 8.50968 9.53315 8.4661C9.55445 8.46047 9.57716 8.45344 9.59845 8.44782C10.1464 9.11991 10.4885 9.90871 10.8236 10.6947C11.1671 11.4975 11.4652 12.3201 11.7747 13.1117C11.7733 13.1243 11.7818 13.1061 11.7775 13.0906C11.6171 12.5746 11.4666 12.0557 11.292 11.5439C11.1316 11.0771 10.9428 10.6216 10.771 10.159C10.649 9.83137 10.5269 9.50236 10.4147 9.17053C10.3707 9.04258 10.3054 8.90197 10.4516 8.74871C10.8832 9.62047 11.2296 10.5021 11.539 11.3963C11.8513 12.2934 12.1353 13.2017 12.4305 14.1044C12.4121 13.9328 12.3794 13.7627 12.3397 13.594C12.2361 13.1581 12.1296 12.7222 12.0203 12.2877C11.945 11.9868 11.8599 11.6888 11.7875 11.3865C11.7775 11.3471 11.8215 11.2951 11.84 11.2487C11.8655 11.2501 11.8911 11.2515 11.9166 11.2529C12.1977 12.3454 12.4802 13.4393 12.7613 14.5318C12.7741 14.4376 12.7542 14.3476 12.7386 14.2576C12.6719 13.8724 12.6137 13.4857 12.5384 13.1018C12.4518 12.6646 12.3454 12.2301 12.2531 11.7928C12.1679 11.3893 12.0884 10.9843 12.0047 10.5808C11.8073 9.63312 11.6058 8.68685 11.4113 7.73776C11.3332 7.36094 11.2835 6.97709 11.1927 6.60308C11.1018 6.23188 10.9755 5.86912 10.8661 5.50214C10.8278 5.37138 10.7952 5.23921 10.7583 5.10845C10.6859 4.84552 10.6191 4.58118 10.5382 4.32106C10.4573 4.06235 10.3565 3.80926 10.2742 3.55195C10.1748 3.23981 10.0996 2.92063 9.98884 2.61271C9.81423 2.12903 9.61833 1.65097 9.43946 1.19119C9.05191 1.05762 8.72966 1.13073 8.53092 1.47943C8.60332 1.60035 8.68991 1.72128 8.75238 1.85485C8.84891 2.05873 8.93408 2.26682 9.01216 2.47773C9.19529 2.97125 9.37132 3.46899 9.55303 3.96252C9.66801 4.27466 9.72622 4.60227 9.83978 4.91723C10.0485 5.49933 10.2131 6.09831 10.4431 6.67479C10.5595 6.96725 10.6532 7.26955 10.7568 7.56623C10.8676 7.87978 10.9854 8.19051 11.0862 8.50687C11.1813 8.80214 11.2622 9.10163 11.3431 9.40112C11.4184 9.68092 11.4851 9.96213 11.5561 10.2433C11.5632 10.2743 11.5759 10.3038 11.583 10.3347C11.6001 10.4079 11.6143 10.481 11.6313 10.5541C11.6114 10.5583 11.5901 10.5625 11.5703 10.5667C11.4908 10.4022 11.3928 10.2433 11.3332 10.0704C11.143 9.52626 10.9811 8.97228 10.7824 8.43095C10.595 7.91914 10.3991 7.41297 10.2997 6.87585C10.2827 6.78587 10.2586 6.69728 10.2302 6.61011C10.1109 6.2361 9.99026 5.86209 9.86676 5.48949C9.76881 5.1914 9.68079 4.8877 9.56154 4.59805C9.3699 4.13406 9.14419 3.68412 8.95538 3.22012C8.77225 2.76738 8.61894 2.30197 8.45284 1.84219C8.42303 1.76205 8.38896 1.68331 8.37193 1.63972C8.07381 1.69456 7.79415 1.73815 7.51875 1.79861C7.36118 1.83235 7.18941 1.86328 7.06164 1.94905C6.87994 2.07279 6.7323 2.24573 6.57188 2.39477C6.67693 2.53678 6.79476 2.66614 6.87852 2.81518C7.00344 3.03593 7.09288 3.27637 7.2178 3.49712C7.55566 4.09609 7.9205 4.68101 8.24558 5.28702C8.49259 5.74679 8.69417 6.22907 8.91705 6.7001C9.01358 6.90257 9.12147 7.09942 9.21091 7.3047C9.24782 7.39047 9.25208 7.4903 9.27053 7.5831C9.24924 7.59575 9.22936 7.607 9.20807 7.61966C9.15696 7.56904 9.09876 7.52404 9.05617 7.4678C9.01216 7.41015 8.98661 7.33985 8.94828 7.27939C8.83613 7.10082 8.70979 6.92928 8.609 6.74369C8.31798 6.20517 8.03974 5.65962 7.75156 5.1197C7.41796 4.494 7.08152 3.86831 6.74224 3.24543C6.64996 3.0753 6.54066 2.91501 6.44696 2.74629C6.38592 2.63661 6.30642 2.62114 6.20279 2.67317C6.05515 2.74769 5.9061 2.82221 5.77975 2.88689C5.95294 3.13436 6.12613 3.37057 6.28939 3.61663C6.47393 3.89503 6.6528 4.17624 6.82457 4.46166C6.90407 4.59383 6.97363 4.73444 7.02899 4.87786C7.04887 4.92848 7.0148 5.00018 7.00628 5.06205C6.9424 5.03955 6.87568 5.02127 6.81321 4.99315C6.79334 4.98472 6.7834 4.95519 6.76921 4.9355C6.56337 4.64304 6.35327 4.35199 6.15027 4.05672C6.00689 3.84863 5.86777 3.63631 5.73433 3.42119C5.65767 3.29746 5.59521 3.16669 5.51571 3.02046C4.9933 3.27636 4.63698 3.65881 4.30906 4.10312C4.4212 4.1917 4.53761 4.26341 4.62704 4.35903C4.85418 4.60087 5.06712 4.85395 5.28857 5.10001C5.47454 5.30811 5.67754 5.50214 5.85073 5.72008C6.18292 6.13627 6.50374 6.5609 6.82031 6.98834C6.99492 7.22315 7.15392 7.4678 7.31859 7.70964C7.61954 8.15395 7.95031 8.58139 8.21293 9.0468C8.59906 9.72732 8.93834 10.4346 9.29324 11.132C9.71486 11.9615 10.1308 12.7953 10.5467 13.6277C10.7469 14.0284 10.9414 14.4306 11.1444 14.8299C11.1927 14.9255 11.2608 15.0127 11.3204 15.1027C11.2466 14.865 11.143 14.6443 11.0408 14.4221C10.9215 14.1662 10.8008 13.9089 10.6816 13.653C10.5737 13.4196 10.4715 13.182 10.3551 12.9542C10.2344 12.718 10.0882 12.4944 9.97181 12.2582C9.82133 11.9545 9.69924 11.6381 9.54593 11.3358C9.25491 10.7622 8.9497 10.1955 8.65301 9.62328C8.44433 9.21974 8.23849 8.8148 8.03265 8.40986C7.9929 8.33252 7.96167 8.25237 7.91766 8.17785C7.79983 7.97679 7.67491 7.77854 7.55708 7.57607C7.37111 7.25689 7.19225 6.93209 7.00202 6.61433C6.89555 6.43435 6.77631 6.26282 6.65848 6.08987C6.50091 5.85647 6.34049 5.62306 6.17724 5.39247C6.01399 5.16188 5.84789 4.9341 5.67754 4.70913C5.57391 4.57274 5.45751 4.44479 5.35246 4.30981C5.22327 4.14249 5.09977 3.96955 4.95781 3.77833C5.01885 3.7713 5.05292 3.75723 5.06428 3.76848C5.2034 3.888 5.34962 4.00189 5.47028 4.13687C5.6094 4.29294 5.72155 4.47291 5.85215 4.63742C6.01825 4.8427 6.19995 5.03674 6.35895 5.24624C6.59176 5.55698 6.81748 5.87475 7.03467 6.19533C7.2831 6.56231 7.52443 6.93631 7.76292 7.31032C7.85945 7.46077 7.94179 7.62106 8.02981 7.77713C8.14763 7.98664 8.26688 8.19613 8.38186 8.40704C8.51105 8.64466 8.63171 8.88791 8.76231 9.12413C8.89576 9.36456 9.04765 9.59515 9.174 9.83981C9.31312 10.1084 9.42526 10.3924 9.56438 10.6609C9.73615 10.9942 9.9349 11.3133 10.1038 11.648C10.2415 11.9194 10.3494 12.2048 10.4743 12.4818C10.4956 12.5296 10.5368 12.5675 10.5695 12.6111C10.5325 12.434 10.4601 12.2807 10.3892 12.126C10.2458 11.8167 10.0982 11.5102 9.96045 11.1981C9.81565 10.8704 9.68363 10.5372 9.54309 10.2068C9.43662 9.95651 9.32164 9.70764 9.21517 9.45736C9.05759 9.09038 8.91847 8.71497 8.74386 8.35643C8.5508 7.96273 8.3265 7.58451 8.1164 7.19784C7.99432 6.97287 7.87791 6.74509 7.75724 6.52012C7.58547 6.20236 7.41086 5.886 7.24193 5.56682C7.22064 5.52605 7.22916 5.4684 7.22348 5.41918C7.23909 5.41215 7.25471 5.40653 7.27032 5.3995C7.31149 5.44168 7.35692 5.48105 7.39241 5.52745C7.49036 5.66243 7.58689 5.79882 7.67917 5.93802C7.94889 6.34718 8.22145 6.75494 8.48123 7.17113C8.64875 7.43968 8.81058 7.71386 8.94544 7.99929C9.14702 8.42391 9.32022 8.8626 9.51186 9.29286C9.63252 9.56282 9.7688 9.82575 9.88805 10.0957C10.1322 10.6455 10.365 11.1995 10.6092 11.7492C10.7824 12.1387 10.984 12.5169 11.1359 12.9148C11.336 13.4351 11.4936 13.9708 11.6824 14.4966C11.7477 14.678 11.8528 14.8468 11.9394 15.0211L11.9436 15.0281ZM21.2888 2.89814C21.1525 2.8208 21.0276 2.7491 20.9012 2.6802C20.8175 2.6338 20.7422 2.6113 20.6798 2.71816C20.5577 2.92626 20.4271 3.13014 20.305 3.33823C20.1006 3.68693 19.8948 4.03423 19.7031 4.38996C19.4944 4.77662 19.3113 5.17735 19.0998 5.5612C18.8187 6.07159 18.522 6.57355 18.2324 7.07973C18.1586 7.20909 18.1004 7.34688 18.0209 7.47202C17.984 7.52967 17.9116 7.56622 17.8562 7.61262C17.8449 7.54795 17.8065 7.47061 17.8278 7.41859C17.9854 7.04317 18.1543 6.67057 18.3204 6.29937C18.3758 6.17564 18.4297 6.0491 18.4936 5.92958C18.6327 5.66806 18.7818 5.41215 18.9223 5.15063C19.0813 4.85676 19.2332 4.55868 19.3936 4.26482C19.5682 3.94705 19.75 3.6321 19.9274 3.31573C20.1048 3.00078 20.2809 2.68442 20.464 2.35821C20.2071 2.15153 19.9913 1.80564 19.6094 1.80845C19.5611 1.96311 19.5214 2.0995 19.476 2.23307C19.4646 2.26823 19.4348 2.29635 19.422 2.33009C19.29 2.67739 19.1608 3.02468 19.0316 3.37198C18.8911 3.74739 18.7548 4.12422 18.6129 4.49963C18.5234 4.73585 18.4326 4.97206 18.3332 5.20406C18.2125 5.48808 18.0763 5.76648 17.9598 6.05331C17.8477 6.3289 17.7654 6.61573 17.6475 6.8871C17.4729 7.28501 17.2813 7.67449 17.0896 8.06396C17.0556 8.13286 16.9931 8.18911 16.9434 8.25097C16.9193 8.24254 16.8952 8.2341 16.871 8.22426C16.8795 8.12583 16.871 8.02178 16.9023 7.9318C16.9959 7.66183 17.1095 7.40031 17.2103 7.13176C17.3579 6.73525 17.49 6.33171 17.6504 5.94083C17.8463 5.46418 18.0692 4.99878 18.2707 4.52494C18.5419 3.8894 18.8045 3.24965 19.0728 2.61271C19.1268 2.48476 19.1779 2.35399 19.246 2.23307C19.3241 2.09247 19.4163 1.96171 19.5044 1.82251C19.2304 1.75783 18.9777 1.69878 18.7037 1.6341C18.6413 1.82251 18.5802 2.03623 18.4993 2.24151C18.3403 2.64927 18.1699 3.0514 18.0039 3.45634C17.8236 3.89643 17.639 4.33512 17.4616 4.77662C17.3636 5.02128 17.2614 5.26452 17.1862 5.5162C17.0045 6.12362 16.8483 6.73806 16.6609 7.34266C16.4806 7.92336 16.2705 8.49281 16.0803 9.0707C15.9171 9.56703 15.7836 10.0732 15.4926 10.5372C15.4741 10.5007 15.4472 10.4739 15.4486 10.4514C15.4685 10.2799 15.4798 10.107 15.5224 9.94104C15.5976 9.64999 15.6871 9.36175 15.7836 9.07773C15.9242 8.66013 16.0704 8.24394 16.2223 7.83056C16.3813 7.3975 16.5559 6.97006 16.7134 6.537C16.827 6.22485 16.9207 5.90427 17.0272 5.58932C17.0627 5.48387 17.128 5.38825 17.1564 5.28139C17.2146 5.06064 17.2444 4.83146 17.3097 4.61352C17.4034 4.29997 17.5141 3.99205 17.622 3.68272C17.754 3.30308 17.886 2.92345 18.0266 2.54803C18.0933 2.37087 18.1785 2.20214 18.2565 2.0292C18.3417 1.84219 18.4283 1.65519 18.5206 1.45272C18.3389 1.12089 18.0095 1.07168 17.6277 1.18838C17.5908 1.29946 17.5538 1.41757 17.5098 1.53286C17.3807 1.8675 17.2415 2.19933 17.1194 2.53678C17.0329 2.7744 16.9704 3.02187 16.8895 3.2623C16.766 3.6321 16.624 3.99767 16.5104 4.37027C16.3557 4.88489 16.2166 5.40231 16.0789 5.92255C15.9724 6.32328 15.873 6.724 15.785 7.12894C15.6644 7.68011 15.5579 8.23551 15.4457 8.78808C15.4046 8.98915 15.3648 9.19021 15.3237 9.39128C15.2243 9.87777 15.1278 10.3643 15.0227 10.8493C14.9659 11.1123 14.8907 11.371 14.8311 11.6325C14.7402 12.0389 14.6508 12.4452 14.5699 12.8544C14.4662 13.376 14.3725 13.9005 14.2774 14.4235C14.2703 14.4587 14.2902 14.4981 14.3016 14.5613C14.33 14.522 14.3456 14.5093 14.3498 14.4938C14.4677 13.9961 14.5798 13.4955 14.7005 12.9992C14.8197 12.5057 14.9347 12.0122 15.0738 11.5243C15.1292 11.333 15.2456 11.1587 15.3336 10.9759C15.3478 10.9829 15.3634 10.9886 15.3776 10.9956C15.1207 12.0178 14.8651 13.0414 14.6082 14.0636C14.9432 13.1721 15.2385 12.2737 15.5437 11.378C15.8475 10.4866 16.1882 9.60781 16.6396 8.76559C16.6836 8.81761 16.7205 8.87244 16.7092 8.91744C16.6652 9.10444 16.6212 9.29426 16.5516 9.47283C16.4309 9.78216 16.279 10.0802 16.1641 10.391C16.0207 10.7776 15.9029 11.1742 15.7708 11.565C15.7424 11.648 15.697 11.7239 15.6715 11.8069C15.5593 12.171 15.4514 12.5366 15.3435 12.9008C15.291 13.0793 15.2385 13.2579 15.186 13.4379C15.3024 13.227 15.3833 13.0076 15.4571 12.7855C15.5764 12.4269 15.68 12.0614 15.812 11.7084C15.9625 11.3063 16.1343 10.914 16.3018 10.5189C16.3585 10.3854 16.4253 10.2574 16.4877 10.1266C16.5885 9.91573 16.6808 9.6992 16.7929 9.49533C16.9193 9.26474 17.0669 9.04398 17.2018 8.81761C17.2912 8.66716 17.3665 8.50406 17.5652 8.41969C17.5652 8.50687 17.5822 8.57436 17.5624 8.62779C17.5042 8.77683 17.436 8.92166 17.3622 9.06367C17.25 9.27739 17.1166 9.48126 17.0158 9.6992C16.9122 9.92136 16.8441 10.159 16.7447 10.3825C16.6254 10.6539 16.4835 10.9154 16.3614 11.1854C16.2123 11.5172 16.0519 11.8476 15.9369 12.1921C15.724 12.8263 15.5394 13.4688 15.3464 14.11C15.2144 14.5501 15.0894 14.9916 14.9588 15.4331C14.9148 15.5807 14.8637 15.7269 14.8169 15.8732C14.8311 15.8774 14.8467 15.883 14.8609 15.8872C15.1221 15.1716 15.379 14.4545 15.6459 13.7402C15.8432 13.2115 16.0406 12.6842 16.262 12.1654C16.404 11.8322 16.5985 11.5228 16.7475 11.1924C16.9164 10.8156 17.0541 10.4261 17.2174 10.0465C17.4062 9.6064 17.6049 9.17053 17.8051 8.73606C17.9911 8.33252 18.1614 7.91774 18.38 7.53248C18.6682 7.02489 18.9933 6.537 19.3113 6.04629C19.4575 5.81991 19.6222 5.60478 19.7783 5.38544C19.7982 5.39107 19.8181 5.39669 19.838 5.40372C19.838 5.47121 19.8564 5.54573 19.8337 5.60478C19.7783 5.75242 19.713 5.89865 19.635 6.03644C19.5058 6.26141 19.3596 6.47513 19.2275 6.69728C19.1424 6.84211 19.0756 6.99537 18.9933 7.1416C18.867 7.36656 18.7236 7.5845 18.6072 7.8151C18.4155 8.19613 18.2352 8.5842 18.0564 8.97087C17.9144 9.27879 17.7796 9.59094 17.6461 9.90308C17.3764 10.5302 17.1109 11.1587 16.8398 11.7844C16.7205 12.0614 16.5899 12.3327 16.4636 12.6069C16.5175 12.5957 16.5488 12.5718 16.5644 12.5408C16.7362 12.1921 16.9037 11.842 17.0754 11.4933C17.2742 11.087 17.4687 10.6792 17.6788 10.2785C17.9485 9.76388 18.2296 9.25489 18.5121 8.7459C18.7875 8.24956 19.0586 7.75182 19.3496 7.26533C19.5711 6.89413 19.8181 6.537 20.058 6.17705C20.2085 5.95067 20.3646 5.72852 20.5194 5.50636C20.6145 5.36857 20.7039 5.22515 20.809 5.09579C21.0645 4.78365 21.3214 4.47291 21.5883 4.17061C21.7303 4.01032 21.8921 3.86972 22.0454 3.71927C22.0681 3.73614 22.0894 3.75442 22.1122 3.77129C22.0866 3.82472 22.0696 3.88659 22.0327 3.93018C21.9049 4.08063 21.7601 4.21701 21.638 4.37168C21.4378 4.62899 21.2519 4.89614 21.0588 5.15907C20.8686 5.41778 20.6642 5.66524 20.4896 5.9338C20.2695 6.27406 20.0736 6.6298 19.8664 6.97709C19.6094 7.40875 19.3411 7.83337 19.0984 8.27206C18.8783 8.66857 18.6881 9.08195 18.4808 9.48548C18.2878 9.85949 18.0848 10.2293 17.8945 10.6047C17.7214 10.9492 17.5638 11.3007 17.392 11.6452C17.1635 12.1021 16.9164 12.5507 16.6936 13.0105C16.5104 13.3873 16.3571 13.7796 16.1768 14.1578C16.0178 14.4938 15.8404 14.82 15.67 15.1505C15.7637 15.0844 15.8333 15.0042 15.8801 14.9128C16.2123 14.2548 16.5388 13.5954 16.8668 12.9345C17.1933 12.2779 17.5042 11.6128 17.8463 10.9646C18.2651 10.1744 18.698 9.39268 19.148 8.61936C19.3837 8.21441 19.6634 7.83478 19.9317 7.44952C20.1205 7.17956 20.3206 6.91804 20.5194 6.6551C20.7692 6.32328 21.0134 5.98723 21.276 5.66524C21.5259 5.35872 21.7913 5.06486 22.0596 4.77241C22.2385 4.57696 22.423 4.38433 22.6232 4.2128C22.7226 4.12703 22.7396 4.08344 22.6601 3.97517C22.433 3.66162 22.1547 3.40291 21.8424 3.17654C21.7686 3.12311 21.6905 3.07811 21.5826 3.01062C21.4634 3.2159 21.3626 3.39869 21.2547 3.57585C21.127 3.78536 21.0035 3.99767 20.8587 4.19452C20.6457 4.48416 20.4186 4.76537 20.19 5.04377C20.1645 5.0747 20.0935 5.06908 20.0424 5.08033C20.0339 5.03533 20.0069 4.9819 20.0225 4.94535C20.0921 4.77381 20.1616 4.60227 20.2525 4.44057C20.3916 4.19311 20.5378 3.94846 20.6968 3.71364C20.8842 3.43665 21.09 3.17232 21.2902 2.89814H21.2888ZM10.6844 14.7315C10.7043 14.7188 10.7228 14.7076 10.7426 14.6949C10.6887 14.5937 10.6319 14.4938 10.5837 14.3898C10.48 14.169 10.3877 13.9441 10.2784 13.7261C9.99168 13.1553 9.69499 12.59 9.40681 12.0192C9.21942 11.648 9.04765 11.2698 8.85601 10.9014C8.68992 10.5808 8.50395 10.2687 8.33076 9.95089C8.1888 9.69077 8.0653 9.42221 7.91198 9.16912C7.70046 8.81761 7.47332 8.47453 7.24619 8.13146C6.96795 7.71105 6.68829 7.29345 6.40012 6.88007C6.12329 6.48216 5.85357 6.07862 5.54836 5.7018C5.16791 5.23359 4.75765 4.78927 4.3559 4.33793C4.29202 4.26622 4.20117 4.22264 4.1458 4.34496C4.05211 4.54884 3.97119 4.75975 3.89454 4.94254C4.05353 5.0494 4.21394 5.12111 4.32609 5.23781C4.62563 5.54573 4.91522 5.86491 5.18778 6.19533C5.55546 6.63964 5.90752 7.0966 6.25816 7.55498C6.29932 7.60841 6.29081 7.70121 6.305 7.77573C6.28371 7.78416 6.26241 7.79119 6.24112 7.79963C5.34678 6.98834 4.59439 6.05191 3.81362 5.11267C3.6745 5.43043 3.53112 5.75804 3.3849 6.09549C3.43033 6.09549 3.48285 6.07862 3.50841 6.09831C3.76535 6.2825 4.03366 6.45685 4.26789 6.66635C4.60007 6.96443 4.90954 7.28783 5.22469 7.60278C5.46319 7.8404 5.70451 8.07521 5.92597 8.3283C6.19001 8.62779 6.43702 8.94275 6.68403 9.2563C6.99776 9.65421 7.31291 10.0507 7.61103 10.4613C7.85804 10.803 8.07807 11.1643 8.31372 11.5144C8.609 11.9545 8.90853 12.3932 9.20523 12.8319C9.25065 12.8994 9.2904 12.9697 9.33299 13.0386C9.34861 13.0301 9.3628 13.0217 9.37842 13.0133C9.35145 12.9612 9.33015 12.9078 9.29892 12.8572C9.16548 12.6421 9.0221 12.4312 8.89434 12.2118C8.74386 11.9559 8.609 11.6902 8.46278 11.4315C8.19306 10.9562 7.9205 10.4838 7.64652 10.0113C7.52443 9.80184 7.40093 9.59234 7.27458 9.38566C7.12694 9.14241 6.97079 8.90479 6.82457 8.66013C6.76495 8.5589 6.71384 8.45063 6.67694 8.33955C6.66132 8.29034 6.68261 8.22285 6.70533 8.17083C6.70959 8.15958 6.80896 8.16239 6.83167 8.1877C6.94666 8.31846 7.06306 8.45063 7.15676 8.59686C7.36544 8.91884 7.56134 9.25067 7.76434 9.57688C7.93895 9.85949 8.1306 10.1323 8.29101 10.4219C8.56925 10.9309 8.82194 11.454 9.09876 11.9629C9.3046 12.3412 9.53883 12.7053 9.75319 13.0793C9.95335 13.4295 10.1422 13.7852 10.3381 14.1367C10.4488 14.3364 10.568 14.5318 10.683 14.7286L10.6844 14.7315ZM21.2292 12.7911C21.2391 12.808 21.249 12.8234 21.259 12.8403C21.2774 12.8403 21.2987 12.8473 21.3115 12.8403C21.6508 12.6547 21.9816 12.4537 22.3279 12.2835C22.7311 12.0867 23.147 11.9165 23.5573 11.7366C23.8625 11.6016 24.162 11.454 24.4744 11.3387C24.8619 11.1952 25.2594 11.0771 25.6526 10.9534C25.735 10.9267 25.8329 10.8845 25.9081 10.9056C26.1509 10.9689 26.1608 10.8072 26.1651 10.6581C26.1679 10.5639 26.1253 10.4669 26.1012 10.3713C26.0728 10.2588 26.0018 10.2588 25.9138 10.3052C25.5987 10.4711 25.2736 10.6061 24.9158 10.6666C24.7753 10.6905 24.7143 10.6666 24.7015 10.5231C25.0862 10.3122 25.4695 10.1013 25.8499 9.89324C25.8641 9.60219 25.8797 9.29145 25.8954 8.96524C25.8471 8.98633 25.7846 9.02711 25.7165 9.04258C25.6469 9.05805 25.5717 9.05101 25.4993 9.05383C25.5178 8.9779 25.5107 8.86823 25.5603 8.83167C25.6952 8.72903 25.8542 8.65592 26.0416 8.55046C25.9848 8.37611 25.9223 8.16942 25.8485 7.96695C25.813 7.86993 25.7378 7.85868 25.6526 7.92336C25.4056 8.10896 25.1472 8.2819 24.9102 8.47875C24.4531 8.85839 24.0002 9.24364 23.5559 9.63874C23.0505 10.0887 22.5636 10.5569 22.0568 11.0054C21.5315 11.4708 20.9935 11.9194 20.4654 12.3805C20.3973 12.441 20.3504 12.5254 20.2937 12.5985L20.332 12.6322C20.3902 12.59 20.4541 12.5535 20.508 12.5057C20.799 12.2526 21.0844 11.9925 21.3796 11.7436C21.6721 11.4975 21.9745 11.2655 22.2697 11.0237C22.4514 10.8761 22.6204 10.7144 22.8078 10.5752C22.9923 10.4388 23.191 10.3221 23.3884 10.204C23.9008 9.89745 24.4147 9.59375 24.93 9.29145C24.9584 9.27458 25.0024 9.28582 25.0379 9.28301C25.0308 9.31676 25.0365 9.36035 25.0152 9.38144C24.9471 9.44893 24.8718 9.5122 24.7938 9.56844C24.5979 9.71186 24.3991 9.84965 24.2018 9.99166C23.9292 10.1885 23.6538 10.3811 23.3869 10.585C23.2251 10.7087 23.0789 10.8522 22.9199 10.9787C22.565 11.2613 22.2044 11.5397 21.8467 11.8195C21.6905 11.9419 21.5344 12.0642 21.3796 12.1893C21.1923 12.3412 21.0091 12.4972 20.8246 12.6519C20.8345 12.666 20.8445 12.68 20.8544 12.6941C20.8956 12.6814 20.9424 12.6786 20.9765 12.6561C21.1908 12.5127 21.4024 12.3623 21.6167 12.2188C21.9574 11.9911 22.2882 11.7492 22.6431 11.5453C23.0391 11.3176 23.4537 11.1193 23.8668 10.9225C24.013 10.8536 24.1791 10.8254 24.3352 10.7776C24.3409 10.7973 24.348 10.817 24.3537 10.8353C23.3117 11.4877 22.2697 12.1401 21.2277 12.7925L21.2292 12.7911ZM1.97809 9.33363C1.99654 9.30129 2.01642 9.26895 2.03487 9.23661C2.17115 9.28864 2.32021 9.31957 2.44229 9.39409C2.8554 9.64999 3.2614 9.91574 3.66456 10.1857C4.00526 10.4149 4.34313 10.6511 4.67247 10.8972C4.88683 11.0574 5.08273 11.243 5.28715 11.416C5.68322 11.7534 6.07787 12.0923 6.47677 12.4269C6.55201 12.4902 6.63719 12.5394 6.7181 12.5957C6.70249 12.5071 6.66842 12.4438 6.61873 12.3988C6.29081 12.105 5.95862 11.8167 5.62928 11.5243C5.16365 11.1081 4.70086 10.6891 4.23382 10.2743C3.77245 9.86371 3.31818 9.44752 2.84404 9.05242C2.38125 8.66716 1.89433 8.30862 1.42303 7.93461C1.3265 7.85728 1.25551 7.87275 1.21719 7.97539C1.14337 8.17645 1.08375 8.38173 1.0369 8.52796C1.2399 8.65029 1.40741 8.73887 1.55647 8.85135C1.59338 8.87947 1.57066 8.98352 1.57634 9.05242C1.5153 9.05382 1.45142 9.0707 1.39606 9.05523C1.31372 9.03133 1.23848 8.98633 1.17744 8.95681C1.19589 9.2802 1.21293 9.60218 1.22854 9.89183C1.5877 10.0859 1.93408 10.2687 2.27478 10.4641C2.32021 10.4894 2.33157 10.5738 2.35996 10.63C2.2975 10.6427 2.22652 10.6792 2.17257 10.6623C1.83897 10.5569 1.51104 10.4374 1.17886 10.3291C1.12633 10.3122 1.01844 10.3136 1.00993 10.3361C0.96308 10.4543 0.923331 10.5822 0.916233 10.7073C0.913394 10.7664 0.981535 10.8648 1.03832 10.8831C1.31088 10.9661 1.59338 11.0139 1.86452 11.0996C2.2691 11.229 2.66801 11.3752 3.06549 11.5214C3.22165 11.5791 3.36929 11.6578 3.5226 11.7267C3.92009 11.9039 4.32041 12.074 4.71364 12.261C5.04866 12.4199 5.37375 12.5999 5.7031 12.77C5.67612 12.7152 5.63637 12.6716 5.58953 12.6407C5.09267 12.3032 4.59723 11.9658 4.09612 11.6325C3.96268 11.5439 3.81646 11.4708 3.67308 11.3963C3.44594 11.2782 3.21171 11.1699 2.98742 11.0462C2.88237 10.9886 2.79435 10.9028 2.69924 10.8283C2.71486 10.8044 2.73189 10.7805 2.74751 10.7551C4.04359 11.1502 5.12106 11.9433 6.23402 12.6772C6.11336 12.545 5.97566 12.4382 5.84221 12.3271C5.60088 12.126 5.36807 11.9137 5.12106 11.7197C4.7903 11.4582 4.44676 11.2121 4.11315 10.9548C3.71993 10.6511 3.33238 10.3404 2.93631 10.0395C2.79861 9.93401 2.6382 9.85809 2.49908 9.75404C2.32021 9.62047 2.15128 9.47283 1.97809 9.33222V9.33363ZM14.073 14.2942C14.073 14.2942 14.0844 14.2942 14.0886 14.2956C14.1085 14.1578 14.1284 14.0186 14.1468 13.8808C14.1766 13.6615 14.1951 13.4393 14.2377 13.2228C14.3044 12.8839 14.3967 12.5507 14.4634 12.2118C14.5202 11.9264 14.5471 11.6367 14.6068 11.3513C14.6479 11.1545 14.736 10.9661 14.7785 10.7692C14.8907 10.249 14.9872 9.72592 15.0923 9.20287C15.1391 8.97227 15.1931 8.74449 15.2357 8.5125C15.2655 8.34939 15.2669 8.18207 15.2995 8.02038C15.3592 7.72792 15.433 7.43968 15.4969 7.14863C15.5764 6.78306 15.6402 6.41467 15.7325 6.05191C15.8163 5.72149 15.9298 5.3995 16.0249 5.07189C16.1371 4.68382 16.2379 4.29294 16.3543 3.90628C16.4437 3.60819 16.5488 3.31433 16.6467 3.01765C16.7404 2.73363 16.8213 2.44539 16.9321 2.1684C17.0669 1.83235 17.2259 1.50474 17.3721 1.18135C17.1521 1.11246 16.9349 1.04356 16.7191 0.974662C16.5374 1.44147 16.3429 1.90406 16.1783 2.37649C15.9738 2.96 15.7794 3.54773 15.6076 4.14109C15.4344 4.74287 15.2782 5.35169 15.1476 5.96333C15.0014 6.64667 14.8878 7.33704 14.7714 8.026C14.6905 8.50265 14.6309 8.98212 14.5599 9.46018C14.4932 9.91433 14.4236 10.3671 14.3555 10.8198C14.3143 11.0968 14.2661 11.3724 14.2334 11.6508C14.1923 12.0009 14.1568 12.351 14.1284 12.7011C14.1028 13.0344 14.0858 13.3676 14.073 13.7008C14.0659 13.8963 14.0716 14.0931 14.0716 14.2886L14.073 14.2942ZM12.9927 14.3279C12.9927 14.1353 12.997 13.9356 12.9927 13.736C12.9842 13.4154 12.9842 13.0948 12.9544 12.777C12.9132 12.3285 12.8522 11.8828 12.7968 11.4371C12.7357 10.9492 12.6775 10.4613 12.6052 9.97479C12.5484 9.58813 12.4703 9.20428 12.4064 8.81902C12.3383 8.40986 12.2758 8.00069 12.2091 7.59153C12.1211 7.05583 12.043 6.51872 11.9365 5.98723C11.8584 5.59775 11.7477 5.21531 11.6412 4.83286C11.461 4.1903 11.292 3.54352 11.0805 2.90939C10.8619 2.25417 10.6007 1.61301 10.3608 0.973255C10.1436 1.04496 9.92212 1.11667 9.69073 1.1926C9.80146 1.42741 9.92638 1.658 10.0201 1.90125C10.1649 2.27807 10.2912 2.66333 10.4218 3.04577C10.4814 3.22153 10.5354 3.39869 10.5936 3.57445C10.6901 3.86409 10.7938 4.15093 10.8832 4.44198C10.9925 4.79912 11.0919 5.15907 11.1898 5.52042C11.2991 5.92396 11.4198 6.32609 11.5035 6.73525C11.6313 7.35813 11.725 7.98804 11.8428 8.61373C11.9067 8.95118 11.9976 9.28301 12.0671 9.62046C12.1495 10.017 12.1878 10.4261 12.3113 10.8086C12.4632 11.2768 12.5512 11.7506 12.6108 12.2329C12.6151 12.2695 12.6264 12.3046 12.635 12.3412C12.7088 12.6716 12.7911 13.002 12.8522 13.3352C12.9004 13.594 12.9231 13.8583 12.9586 14.1198C12.9686 14.1943 12.9828 14.2675 12.9927 14.3307V14.3279ZM9.57148 13.9652C9.58284 13.9567 9.59562 13.9483 9.60697 13.9384C9.27905 13.4801 8.9497 13.0231 8.62461 12.5633C8.25978 12.0459 7.90346 11.5229 7.54005 11.0068C7.32143 10.6975 7.09429 10.3966 6.87142 10.0901C6.6457 9.77935 6.43703 9.45455 6.19427 9.15787C5.84648 8.73184 5.47454 8.32268 5.1097 7.9093C5.03731 7.82635 4.95213 7.75323 4.87263 7.6759C4.57736 7.38485 4.28634 7.08817 3.98255 6.80555C3.75542 6.59465 3.51125 6.40061 3.25998 6.18689C3.14499 6.32468 3.01297 6.48497 2.87385 6.6537C3.07969 6.82242 3.35651 6.92225 3.47292 7.18659C3.46156 7.20206 3.44878 7.21753 3.43743 7.23299C3.20035 7.07833 2.9647 6.92225 2.83268 6.83649C2.66375 6.97428 2.52179 7.08957 2.37699 7.20768C2.39829 7.21752 2.45223 7.24284 2.50618 7.26814C2.63252 7.3286 2.77022 7.3736 2.88379 7.45234C3.15067 7.63793 3.41471 7.83056 3.66456 8.03725C3.96835 8.28893 4.26647 8.55046 4.55181 8.82324C4.88399 9.14241 5.21618 9.46439 5.51855 9.81169C6.04664 10.4191 6.55343 11.0448 7.06732 11.6649C7.44635 12.1232 7.82254 12.583 8.20016 13.0414C8.28391 13.1426 8.36767 13.2424 8.45142 13.3423C8.46704 13.331 8.48265 13.3198 8.49969 13.3085C8.35915 13.0948 8.22287 12.8783 8.07807 12.6674C7.87649 12.3735 7.66639 12.0839 7.46197 11.7928C7.22632 11.4582 7.00344 11.1123 6.75217 10.7903C6.47251 10.4332 6.17298 10.0915 5.87203 9.75263C5.54836 9.38565 5.2176 9.0243 4.88115 8.66857C4.62279 8.39579 4.34881 8.13849 4.08618 7.87134C4.0365 7.82072 4.00101 7.75323 3.95984 7.69418C3.96977 7.68152 3.97971 7.66887 3.98823 7.65621C4.12309 7.71527 4.27925 7.75042 4.38997 7.8404C4.67531 8.071 4.94929 8.31705 5.21334 8.57014C5.52281 8.86823 5.8195 9.17896 6.1162 9.48829C6.37882 9.76247 6.64996 10.0324 6.88987 10.3263C7.14824 10.6413 7.37679 10.9801 7.61387 11.3119C8 11.8519 8.37619 12.4002 8.76941 12.9359C9.02636 13.286 9.30318 13.6207 9.57148 13.9623V13.9652ZM13.6414 11.4582C13.6741 11.4118 13.6855 11.4033 13.6855 11.3949C13.6727 10.6244 13.809 9.86793 13.9126 9.10866C13.9623 8.74168 14.0219 8.37611 14.0716 8.01054C14.1355 7.54795 14.1823 7.08395 14.2576 6.62417C14.3243 6.20798 14.4208 5.79601 14.5003 5.38122C14.5486 5.12673 14.5826 4.86942 14.6323 4.61492C14.6763 4.39136 14.7388 4.17202 14.78 3.94986C14.8225 3.71927 14.8396 3.48586 14.8864 3.25668C14.9489 2.94735 15.0241 2.63943 15.1008 2.33291C15.1789 2.02217 15.2498 1.70721 15.3535 1.40491C15.4528 1.11527 15.5905 0.839679 15.7169 0.541596C15.5551 0.530348 15.3762 0.547222 15.2882 0.679391C15.1022 0.956382 14.9091 1.24322 14.8027 1.55536C14.6139 2.11075 14.4804 2.68442 14.3356 3.25246C14.2235 3.69537 14.1312 4.1439 14.0262 4.58962C13.9381 4.96925 13.8416 5.34607 13.7579 5.72711C13.7266 5.86912 13.6954 6.01816 13.6982 6.16158C13.711 6.68744 13.7579 7.2119 13.7579 7.73776C13.7579 8.29737 13.7167 8.85838 13.694 9.41799C13.6755 9.90167 13.6556 10.3854 13.6414 10.869C13.6358 11.0546 13.6414 11.2388 13.6414 11.461V11.4582ZM13.3377 10.3572C13.349 10.173 13.376 9.94386 13.3746 9.71467C13.3746 9.24505 13.3575 8.77543 13.3504 8.30581C13.3462 7.99788 13.3476 7.68996 13.3448 7.38203C13.3419 7.03896 13.3263 6.69729 13.3348 6.35421C13.3405 6.10675 13.4384 5.85365 13.2695 5.62166C13.2482 5.59353 13.244 5.55136 13.2369 5.5148C13.1886 5.27155 13.1489 5.0283 13.0949 4.78646C13.0069 4.38855 12.9118 3.99204 12.8167 3.59554C12.6917 3.07249 12.5654 2.55085 12.432 2.03061C12.3965 1.89422 12.3425 1.75924 12.2801 1.63269C12.1225 1.31352 11.9649 0.992941 11.7889 0.685016C11.7207 0.565502 11.4539 0.523321 11.3857 0.558472C11.5234 0.939512 11.6654 1.31352 11.7917 1.69175C11.8712 1.93218 11.9308 2.17965 11.9933 2.42571C12.0799 2.76738 12.1736 3.10904 12.2403 3.45493C12.2985 3.7488 12.3113 4.0525 12.3681 4.34637C12.4547 4.79912 12.5668 5.24624 12.6577 5.69899C12.7074 5.94083 12.74 6.18689 12.7755 6.43295C12.8493 6.95459 12.9217 7.47764 12.9913 8.0007C13.0225 8.2341 13.0367 8.47031 13.0722 8.70231C13.1233 9.02852 13.1914 9.35332 13.244 9.67952C13.2837 9.91995 13.3093 10.1632 13.3348 10.3586L13.3377 10.3572ZM15.9313 0.537378C15.9185 0.675171 15.9227 0.758129 15.9 0.832649C15.812 1.1223 15.7084 1.40772 15.626 1.69878C15.4841 2.1923 15.3521 2.69004 15.2215 3.18638C15.1845 3.32698 15.1774 3.47602 15.1462 3.61803C15.1093 3.79238 15.0539 3.96392 15.0199 4.13827C14.8822 4.82865 14.7473 5.51901 14.6181 6.21079C14.5074 6.80274 14.4095 7.39609 14.3044 7.98944C14.2831 8.11036 14.2519 8.22988 14.2348 8.35221C14.2008 8.60811 14.1823 8.86682 14.1426 9.12132C14.0971 9.40674 14.0148 9.68796 13.985 9.97479C13.9452 10.3558 13.9438 10.7411 13.9211 11.1249C13.8998 11.4933 13.8657 11.8603 13.8501 12.2287C13.843 12.4185 13.8643 12.6097 13.8743 12.8319C13.914 12.6378 13.9623 12.4832 13.9765 12.3257C14.002 12.0375 13.9949 11.7464 14.0233 11.4596C14.0716 10.9731 14.1341 10.488 14.1979 10.0043C14.249 9.61625 14.3101 9.23099 14.3754 8.84433C14.3924 8.74028 14.4506 8.64186 14.4677 8.53781C14.5131 8.24113 14.5429 7.94304 14.5855 7.64637C14.6522 7.19503 14.7061 6.74087 14.7984 6.29375C14.9063 5.77351 15.0355 5.25749 15.1803 4.74709C15.3592 4.11999 15.5579 3.49852 15.7595 2.87705C15.8589 2.57193 15.9852 2.27526 16.0988 1.97436C16.2407 1.59754 16.3813 1.22072 16.5261 0.834057C16.3585 0.7511 16.1541 0.648459 15.9298 0.535975L15.9313 0.537378ZM10.5084 0.855147C10.612 1.0534 10.7284 1.23338 10.8037 1.42741C10.9669 1.85485 11.1089 2.28932 11.2608 2.72097C11.3403 2.94735 11.4269 3.17091 11.4993 3.39869C11.6072 3.73896 11.7037 4.08203 11.8059 4.4223C11.8755 4.65289 11.955 4.88067 12.0174 5.11407C12.0657 5.29264 12.0941 5.47683 12.131 5.65822C12.2034 6.01535 12.2815 6.37249 12.3468 6.73103C12.4036 7.04177 12.4433 7.35532 12.5001 7.66605C12.5626 8.01476 12.6492 8.36064 12.7003 8.71075C12.7812 9.25067 12.8408 9.79481 12.9089 10.3375C12.9714 10.8409 13.0367 11.3443 13.0935 11.8476C13.1261 12.1373 13.1418 12.4283 13.1645 12.718C13.1801 12.718 13.1971 12.718 13.2127 12.718C13.2127 12.5422 13.2213 12.3665 13.2113 12.1921C13.1858 11.7605 13.1403 11.3302 13.1261 10.8986C13.1091 10.405 13.0623 9.91714 12.9742 9.43205C12.8905 8.97227 12.8195 8.50968 12.7485 8.04709C12.6974 7.71105 12.6676 7.37219 12.6094 7.03896C12.5171 6.51028 12.4078 5.98442 12.3056 5.45715C12.2417 5.12814 12.1807 4.80052 12.1154 4.47151C12.0771 4.27747 12.0288 4.08625 11.9905 3.89222C11.9521 3.69818 11.928 3.50133 11.8854 3.30871C11.8357 3.08093 11.7775 2.85455 11.7165 2.62818C11.6114 2.24573 11.505 1.86328 11.3928 1.48365C11.3048 1.18416 11.2069 0.888894 11.1032 0.558472C10.9258 0.647053 10.7157 0.751098 10.5084 0.853739V0.855147ZM20.0367 12.2217C20.0466 12.2259 20.0566 12.2301 20.0679 12.2343C20.1744 12.1528 20.2866 12.0754 20.3873 11.9868C20.7366 11.6789 21.0773 11.3612 21.4293 11.056C21.8935 10.6511 22.3691 10.2574 22.8333 9.85106C23.2762 9.46299 23.7106 9.06648 24.1493 8.67419C24.3437 8.50125 24.5311 8.31987 24.7398 8.1652C25.0124 7.96273 25.302 7.78416 25.5916 7.58872C25.4468 7.37219 25.1969 7.35813 24.984 7.29907C24.913 7.27939 24.7952 7.38484 24.7128 7.45093C24.4247 7.68012 24.1351 7.9079 23.8597 8.15114C23.5928 8.38736 23.3415 8.64045 23.0817 8.8851C22.866 9.08757 22.6417 9.2816 22.4344 9.49251C22.1846 9.7456 21.9489 10.0128 21.7061 10.2757C21.4222 10.5836 21.1341 10.8887 20.8558 11.2023C20.7167 11.3597 20.5974 11.5341 20.4654 11.6986C20.3249 11.8744 20.1801 12.0473 20.0381 12.2217H20.0367ZM6.9495 12.1654C6.93246 12.1204 6.9282 12.0867 6.91117 12.067C6.61873 11.7239 6.3263 11.3808 6.0296 11.0406C5.79395 10.7706 5.55404 10.5063 5.31129 10.2419C5.14094 10.0563 4.96207 9.87637 4.7903 9.69217C4.59439 9.48127 4.41269 9.2563 4.20401 9.05804C3.8775 8.7459 3.5368 8.44641 3.19468 8.15114C2.86391 7.86572 2.52179 7.59153 2.18393 7.31313C2.16689 7.29907 2.13282 7.28642 2.11437 7.29204C1.89859 7.36797 1.63881 7.3511 1.49543 7.56904C1.70837 7.72933 1.91847 7.87555 2.11721 8.03725C2.62542 8.44782 3.13363 8.85557 3.63049 9.27879C4.06347 9.64718 4.47657 10.0381 4.90529 10.4107C5.57817 10.9956 6.25673 11.5721 6.95092 12.1682L6.9495 12.1654ZM26.5228 11.842C25.62 12.0712 24.7256 12.2582 23.8568 12.5282C22.9824 12.7995 22.1334 13.1539 21.2732 13.4716C21.2789 13.4913 21.286 13.511 21.2916 13.5321C21.5912 13.4941 21.8921 13.4632 22.1917 13.4154C22.4429 13.3746 22.6899 13.3015 22.9412 13.2664C23.3827 13.2045 23.827 13.1707 24.2671 13.1089C24.7242 13.0456 25.1841 12.9823 25.6342 12.8839C25.9152 12.822 26.1906 12.7208 26.3908 12.4832C26.5867 12.2498 26.6406 12.015 26.5214 11.842H26.5228ZM0.530104 11.8547C0.518748 11.8955 0.500293 11.9503 0.487516 12.0065C0.429313 12.2596 0.757239 12.6055 0.940366 12.6997C1.31372 12.8923 1.72256 12.9514 2.13566 13.0048C2.55728 13.0597 2.97464 13.1398 3.39484 13.1989C3.64895 13.234 3.90731 13.2368 4.16 13.2762C4.54329 13.3367 4.92232 13.4224 5.30561 13.4843C5.42769 13.504 5.55688 13.4871 5.68322 13.4871C5.6889 13.4688 5.69316 13.4505 5.69884 13.4323C4.85418 13.1243 4.02088 12.7799 3.16203 12.5183C2.30459 12.2568 1.42303 12.0768 0.528686 11.8547H0.530104ZM26.0913 11.1418C24.2444 11.5735 22.5338 12.3665 20.8927 13.3268C20.9708 13.3184 21.0475 13.3015 21.117 13.2706C21.3669 13.1581 21.6068 13.0231 21.8623 12.9289C22.4671 12.7081 23.0789 12.5043 23.6893 12.2976C23.8469 12.2442 24.0087 12.1992 24.1691 12.1542C24.409 12.0867 24.649 12.015 24.8917 11.9545C25.2267 11.873 25.5632 11.7942 25.901 11.7267C26.0629 11.6944 26.229 11.6902 26.4007 11.6733C26.2943 11.4891 26.1921 11.3133 26.0913 11.1404V11.1418ZM6.15027 13.3521C6.15878 13.3381 6.16588 13.324 6.1744 13.3113C4.52909 12.3721 2.82416 11.5707 0.975856 11.1559C0.875065 11.3288 0.775694 11.4989 0.694777 11.641C0.955982 11.6888 1.21861 11.7267 1.47697 11.7886C1.97383 11.9067 2.47211 12.0248 2.96186 12.1682C3.36077 12.2849 3.74974 12.4326 4.14013 12.5732C4.63272 12.7503 5.1239 12.9303 5.61366 13.1159C5.79679 13.1848 5.9714 13.2748 6.15027 13.3549V13.3521ZM11.3502 15.8324C11.3701 15.8211 11.39 15.8085 11.4099 15.7972C11.248 15.5413 11.0848 15.2854 10.9229 15.0295C10.9016 15.0436 10.8789 15.0563 10.8576 15.0703C11.0223 15.3248 11.187 15.5779 11.3516 15.8324H11.3502ZM18.0024 13.9989C18.292 13.892 18.346 13.5841 18.5632 13.4154C18.5447 13.3999 18.5277 13.3845 18.5092 13.369C18.3403 13.5785 18.1714 13.788 18.0024 13.9989Z" fill="#FEDFBE"/>
<path d="M7.59056 1.84656C7.69135 2.04341 7.7964 2.23744 7.89152 2.4371C8.00792 2.68176 8.11581 2.92922 8.22796 3.17528C8.36708 3.4832 8.51046 3.78972 8.64248 4.10046C8.79012 4.44916 8.92498 4.80208 9.06552 5.15219C9.22735 5.55291 9.39061 5.95364 9.55386 6.35436C9.69014 6.68619 9.83494 7.0138 9.9627 7.34703C10.0507 7.57903 10.1217 7.81806 10.1898 8.05709C10.204 8.10489 10.1685 8.16535 10.1558 8.22019C10.1018 8.18644 10.0223 8.16395 9.99677 8.11473C9.8903 7.90805 9.79803 7.69151 9.70149 7.4792C9.52547 7.09254 9.34234 6.70728 9.17767 6.3164C8.9988 5.89177 8.83696 5.45871 8.66519 5.02986C8.56724 4.7838 8.45651 4.54337 8.36566 4.2959C8.28616 4.08359 8.2379 3.86003 8.15556 3.64771C8.00934 3.27371 7.84609 2.90532 7.69277 2.53412C7.62747 2.37524 7.56217 2.21495 7.51107 2.05185C7.49261 1.9956 7.51532 1.92811 7.51816 1.86625C7.5423 1.85922 7.56643 1.85219 7.58914 1.84375L7.59056 1.84656Z" fill="#FEDFBE"/>
</svg>