<svg width="215" height="272" viewBox="0 0 215 272" fill="none" xmlns="http://www.w3.org/2000/svg">
<path d="M158.07 136.721C158.073 136.719 158.076 136.716 158.075 136.713C158.057 136.389 158.045 136.077 158.031 135.759C158.017 135.428 158.221 135.09 158.548 135.036C159.722 134.922 160.911 134.822 162.085 134.722C164.018 134.565 165.952 134.508 167.871 134.251C171.121 133.823 174.357 133.31 177.579 132.739C181.847 131.969 186.1 131.142 190.353 130.272C192.186 129.901 194.047 129.531 195.823 128.917C200.334 127.363 204.902 125.894 209.226 123.925C211.317 122.97 213.15 121.415 214.038 118.763C215.856 113.329 214.797 108.508 212.047 103.787C210.887 101.805 209.57 99.8367 208.868 97.6831C208.31 95.9717 208.467 94.0035 208.525 92.1494C208.625 88.9119 207.451 86.4588 204.701 84.6617C203.355 83.7918 201.909 82.8362 201.05 81.5669C200.262 80.4116 199.689 78.6859 199.904 77.3595C200.821 71.6119 198.601 67.1906 194.291 63.7962C191.828 61.8423 190.711 59.1895 189.221 56.6794C187.589 53.9125 185.985 51.1171 184.238 48.4358C182.949 46.4677 181.603 44.4853 179.999 42.7738C177.45 40.0355 174.429 37.8391 170.935 36.3273C166.123 34.2593 161.226 32.3196 156.601 29.895C154.395 28.7398 152.72 26.6005 150.815 24.889C149.699 23.8764 148.696 22.7355 147.493 21.8227C145.975 20.6532 144.944 19.2412 144.429 17.4014C143.455 13.9642 141.25 11.6538 138.056 9.99936C135.593 8.71577 133.374 6.89022 130.453 6.89022C127.961 6.89022 125.426 6.96153 122.978 7.37513C119.612 7.93137 116.319 7.91708 113.455 6.10579C110.748 4.39431 108.013 3.85236 104.977 4.57972C102.514 5.17875 100.624 4.23745 98.7054 2.78271C94.4667 -0.42627 91.1588 -0.925428 86.3616 1.62751C79.8747 5.0932 77.1396 10.7553 76.5812 17.8578C76.2518 22.0509 75.3353 26.2012 74.7912 30.38C74.3616 33.6746 74.1611 37.0119 73.7888 40.3065C73.4021 43.8007 72.9582 47.2806 72.5 50.7606C72.0704 53.9125 71.6408 57.0787 71.0823 60.2164C70.7816 61.9279 70.2518 63.6108 69.7505 65.2795C68.9486 67.9608 68.0751 70.6421 67.2302 73.3091C65.9415 77.4023 64.7959 81.5384 63.3496 85.5603C61.8317 89.7962 60.0131 93.9179 58.3663 98.111C56.204 103.602 52.5667 108.08 48.4855 112.231C45.507 115.254 42.4712 118.249 39.2349 121.002C34.0081 125.466 27.9795 128.703 21.3493 130.429C16.1369 131.784 10.724 132.383 5.38266 133.224C4.42323 133.367 3.36355 132.711 2.37547 132.896C0.241815 133.31 -0.259404 133.453 0.112913 135.392C0.155875 135.635 0.198853 135.877 0.184537 136.134C0.170221 136.847 -0.101884 138.074 0.112913 138.173C1.12962 138.587 2.26091 138.758 3.36355 138.872C4.35162 138.972 5.354 138.801 6.34207 138.915C8.56165 139.157 10.8385 139.243 12.9865 139.828C17.8123 141.14 22.767 141.725 27.4925 143.721C32.8625 145.989 37.2014 149.512 41.6406 152.978C47.0822 157.228 51.6359 162.405 55.3877 168.11C57.865 171.889 59.3973 176.339 61.0871 180.589C62.92 185.21 64.5381 189.917 66.0847 194.652C67.173 197.975 67.9319 201.398 68.8914 204.763C69.3496 206.375 70.0799 207.915 70.4236 209.555C71.1396 212.907 71.6838 216.287 72.2852 219.653C72.6719 221.864 73.0871 224.074 73.3878 226.314C73.6026 227.911 73.6456 229.537 73.8174 231.148C74.4045 236.582 74.963 242.002 75.6361 247.422C76.08 251.001 76.6384 254.567 77.2399 258.132C78.2566 264.137 81.9225 268.187 87.2065 270.811C91.2018 272.794 95.0825 272.038 98.5192 269.357C100.438 267.859 102.214 266.847 104.877 267.403C107.956 268.045 110.949 267.545 113.799 265.763C116.748 263.923 120.013 264.08 123.479 264.721C127.517 265.463 131.741 265.777 135.536 263.338C136.71 262.582 137.985 262.026 139.173 261.299C141.737 259.744 143.684 257.662 144.271 254.624C144.787 251.957 146.992 250.588 148.668 248.833C150.472 246.951 152.391 245.125 154.496 243.585C156.386 242.187 158.52 241.061 160.653 240.048C165.092 237.937 169.832 236.354 174.028 233.858C177.207 231.976 180.171 229.351 182.448 226.442C185.198 222.933 187.403 218.926 189.322 214.89C190.968 211.424 193.346 208.671 196.152 206.304C199.689 203.337 200.205 199.458 200.004 195.365C199.861 192.298 200.649 189.916 203.312 188.234C204.472 187.506 205.646 186.693 206.534 185.666C207.995 184.012 208.739 182.029 208.482 179.733C207.981 175.341 209.799 171.632 212.033 168.053C215.484 162.562 216.1 156.828 212.95 151.066C212.191 149.669 210.472 148.471 208.94 147.872C203.255 145.675 197.541 143.522 191.699 141.824C187.546 140.612 183.178 140.127 178.882 139.386C174.83 138.687 170.777 137.974 166.696 137.432C163.916 137.063 161.093 136.962 158.072 136.736C158.063 136.735 158.062 136.723 158.07 136.721ZM152.734 33.7173C151.689 34.1737 150.372 34.3591 149.656 35.115C146.133 38.866 142.882 42.8879 139.302 46.5818C136.696 49.2631 133.718 51.5735 130.911 54.0552C127.746 56.8363 124.682 59.7172 121.388 62.3415C117.608 65.3508 113.684 68.2032 109.717 70.9701C103.03 75.6481 96.2281 80.1835 89.512 84.8329C85.1015 87.885 80.7625 91.0512 76.3663 94.1461C76.1244 94.3201 75.8818 93.9798 76.103 93.7802C78.6918 91.4441 81.3974 89.314 84.185 87.286C86.691 85.4747 89.3402 83.8773 91.8891 82.1374C94.3092 80.4829 96.6863 78.743 99.092 77.0458C100.467 76.076 101.884 75.1632 103.23 74.1506C106.252 71.8401 109.288 69.5439 112.238 67.1336C114.114 65.6075 115.875 63.9246 117.636 62.2559C119.326 60.6443 120.973 59.0041 122.577 57.3069C125.885 53.8127 129.221 50.3327 132.386 46.7101C133.76 45.1413 134.749 43.2444 135.894 41.4902C136.129 41.1223 135.702 40.6141 135.299 40.7807C135.188 40.8264 135.085 40.8806 134.992 40.9482C134.548 41.262 134.276 41.8182 133.861 42.1891C128.376 47.2664 122.963 52.4435 117.364 57.3783C112.309 61.8281 107.111 66.121 101.827 70.2998C99.2209 72.3535 96.2424 73.9224 93.5073 75.7907C89.4118 78.5861 85.3736 81.4528 81.2924 84.2767C81.138 84.3824 80.9722 84.4687 80.8005 84.5454C80.3072 84.7657 79.6806 84.2874 80.0895 83.9344C83.0394 81.4956 86.0036 79.0853 88.9392 76.6464C91.8175 74.2504 94.6242 71.783 97.5311 69.4155C101.197 66.4347 104.963 63.5966 108.615 60.6015C111.951 57.8632 115.202 55.0107 118.467 52.1868C120.099 50.7749 121.789 49.42 123.235 47.8369C126.558 44.2428 129.751 40.5346 132.987 36.855C134.018 35.6855 135.092 34.5303 135.951 33.2467C137.541 30.8934 139.002 28.4546 140.477 26.0158C141.254 24.7323 142.956 24.4084 143.994 25.492C144.169 25.6745 144.343 25.8564 144.518 26.0383C145.381 26.9393 145.523 28.3126 144.858 29.3686C144.021 30.6986 143.158 32.0667 142.293 33.4377C142.173 33.6272 142.221 33.877 142.402 34.0092C142.583 34.1418 142.837 34.1105 142.981 33.9378C143.618 33.1728 144.255 32.408 144.892 31.6444C146.212 30.0617 148.589 29.9113 150.101 31.312C150.728 31.8938 151.354 32.4739 151.977 33.0535C152.46 33.5023 153.007 33.8676 153.608 34.1384C157.848 36.05 158.641 41.7438 155.061 44.7129C148.792 49.9119 142.696 55.2102 137.238 61.2737C136.503 62.0906 137.094 63.6072 137.999 62.9833C140.863 60.958 143.684 58.89 146.419 56.7079C150.028 53.827 153.565 50.8747 157.059 47.8654C159.236 45.9937 161.412 44.0984 163.11 41.6914C164.122 40.257 165.849 39.4673 167.463 40.1591C169.542 41.0506 170.282 43.8475 168.719 45.4831C168.13 46.1001 167.538 46.6831 166.911 47.2236C162.844 50.7178 158.806 54.2691 154.496 57.4495C148.968 61.5285 143.197 65.308 137.512 69.173C134.548 71.184 131.541 73.1522 128.491 75.0205C124.538 77.4451 120.543 79.8269 116.519 82.1231C113.827 83.6634 111.049 85.0468 108.285 86.4588C103.76 88.7692 99.2352 91.0797 94.6815 93.3474C90.7292 95.3156 86.734 97.1982 82.7817 99.1521C78.543 101.249 74.3043 103.359 70.1086 105.556C66.5859 107.396 63.1061 109.307 59.6407 111.232C57.8192 112.249 56.0641 113.372 54.2859 114.448C54.1717 114.517 54.0239 114.488 53.9443 114.381C53.8623 114.271 53.8808 114.116 53.9843 114.025C54.7128 113.389 55.3853 112.661 56.2039 112.188C59.0107 110.562 61.8889 109.079 64.7243 107.495C68.7338 105.242 72.7005 102.946 76.71 100.692C81.6934 97.897 86.6767 95.1017 91.6886 92.3491C94.2805 90.9228 96.944 89.6535 99.5503 88.2273C102.328 86.7155 105.035 85.0896 107.799 83.5493C110.204 82.2087 112.696 81.0249 115.044 79.5987C117.493 78.1011 119.784 76.3469 122.19 74.7638C125.068 72.8527 128.018 71.0414 130.868 69.1018C131.614 68.5838 130.744 67.1362 129.843 67.2458C129.684 67.2651 129.537 67.3053 129.407 67.376C125.655 69.4013 122.018 71.5834 118.309 73.6799C113.827 76.2186 109.273 78.6574 104.806 81.2388C97.03 85.7314 89.2972 90.3096 81.5359 94.8307C81.2583 94.9941 81.0513 94.6066 81.3158 94.4228C81.7511 94.1205 82.2055 93.8735 82.6241 93.5756C86.3903 90.9942 90.0848 88.3129 93.8939 85.8027C97.9751 83.1214 102.185 80.6255 106.281 77.9871C107.684 77.0885 108.944 75.9476 110.29 74.9635C112.768 73.1522 115.331 71.4693 117.737 69.5724C121.288 66.7627 124.782 63.896 128.19 60.9152C132.271 57.3497 136.324 53.7414 140.19 49.9477C143.684 46.5105 146.992 42.8736 150.2 39.1654C151.497 37.6602 153.249 36.1551 152.769 33.7349C152.766 33.719 152.749 33.7101 152.734 33.7173ZM62.0178 151.979C61.9703 151.951 61.9193 151.929 61.866 151.914C59.1129 151.14 56.3598 150.366 53.6067 149.58C53.4223 149.527 53.3188 149.331 53.3779 149.149C53.4354 148.971 53.6269 148.876 53.8037 148.936C55.331 149.453 56.8692 149.949 58.3949 150.496C59.2509 150.811 60.0924 151.168 60.9297 151.524C61.5953 151.806 62.3348 151.655 63.0345 151.837C67.4164 153.035 71.8269 154.133 76.1372 155.53C82.9535 157.741 89.7555 159.994 96.4429 162.533C102.242 164.744 107.884 167.397 113.598 169.835C114.744 170.32 115.975 170.663 117.092 171.205C120.558 172.873 123.994 174.642 127.46 176.31C127.709 176.429 128.08 176.311 128.438 176.222C128.641 176.172 128.813 176.022 128.872 175.821C128.929 175.625 128.861 175.414 128.701 175.288C121.913 169.904 113.983 166.512 106.08 163.189C98.0017 159.779 89.7275 156.815 81.7548 153.746C81.5637 153.672 81.4815 153.551 81.6791 153.605C86.9345 155.217 92.2185 156.728 97.4309 158.483C102.185 160.094 106.825 161.991 111.536 163.717C114.873 164.943 118.223 166.17 121.603 167.297C123.716 168.014 123.753 165.881 121.724 164.952C114.208 161.51 106.617 158.624 98.9345 156.001C91.4627 153.435 83.9143 151.06 76.3832 148.657C75.7567 148.457 75.912 147.808 76.5525 147.957C80.9917 148.998 85.4309 150.068 89.8557 151.166C92.9202 151.922 95.956 152.778 99.0348 153.505C99.3402 153.581 99.7204 153.343 100.093 153.143C100.294 153.035 100.429 152.823 100.417 152.595C100.404 152.364 100.243 152.169 100.019 152.112C89.9263 149.55 79.8225 146.977 69.7285 144.414C69.1489 144.267 69.2041 143.849 69.7935 143.95C73.7172 144.62 77.6551 145.205 81.5645 145.961C86.018 146.83 90.4428 147.9 94.8963 148.827C99.0061 149.683 103.13 150.482 107.24 151.323C116.892 153.306 126.529 155.331 136.195 157.285C140.033 158.069 143.942 158.568 147.751 159.481C151.531 160.394 155.226 161.663 158.964 162.761C160.295 163.146 161.641 163.474 162.973 163.845C165.651 164.573 168.343 165.243 170.992 166.056C173.627 166.869 176.205 167.881 178.825 168.709C182.004 169.707 185.255 170.463 188.391 171.575C191.791 172.786 195.165 174.099 198.468 175.387C201.257 176.475 203.937 178.789 203.395 181.733C203.307 182.211 203.166 182.669 202.969 183.105C201.841 185.602 198.597 185.145 196.109 183.998C194.033 183.028 191.914 182.172 189.766 181.388C184.739 179.548 179.67 177.779 174.644 175.954C171.465 174.799 168.128 174.214 164.921 173.073C158.992 170.976 152.892 169.322 147.021 167.011C144.042 165.842 140.963 164.901 137.942 163.86C134.749 162.747 131.584 161.563 128.362 160.551C125.355 159.595 122.305 158.782 119.254 157.969C116.405 157.213 113.541 156.543 110.677 155.83C110.362 155.759 110.061 155.63 109.746 155.559C109.116 155.414 108.486 155.29 107.856 155.151C107.667 155.11 107.479 155.229 107.44 155.419C107.407 155.577 107.486 155.736 107.63 155.807C109.218 156.582 110.764 157.5 112.438 158.069C117.98 159.98 123.622 161.606 129.135 163.603C134.348 165.485 139.503 167.454 144.973 168.452C145.889 168.623 146.792 168.866 147.679 169.151C151.489 170.349 155.298 171.561 159.092 172.802C162.128 173.786 165.221 174.67 168.171 175.868C172.897 177.794 177.479 180.061 182.205 181.958C186.816 183.798 191.556 185.338 196.238 187.007C197.444 187.45 198.13 188.736 197.904 190.001C197.513 192.196 197.146 194.306 196.682 196.391C196.338 197.975 196.023 199.7 195.15 200.984C194.881 201.374 194.589 201.748 194.281 202.111C192.332 204.414 188.967 204.286 186.329 202.824C184.081 201.569 181.632 200.67 179.384 199.415C173.283 196.021 167.326 192.355 161.154 189.089C156.472 186.608 151.56 184.582 146.763 182.343C144.701 181.373 142.696 180.29 140.605 179.391C139.836 179.064 138.954 178.992 138.109 178.853C137.905 178.819 137.699 178.91 137.594 179.088C137.479 179.283 137.511 179.532 137.666 179.696C138.078 180.134 138.472 180.593 138.944 180.946C139.531 181.388 140.247 181.644 140.863 182.03C142.682 183.156 144.429 184.426 146.319 185.438C151.804 188.362 157.36 191.157 162.859 194.053C169.231 197.404 175.603 200.784 181.947 204.193C183.68 205.12 185.312 206.218 187.03 207.159C188.147 207.773 188.305 208.571 187.775 209.613C186.621 211.869 183.763 212.578 181.683 211.13C180.518 210.319 179.353 209.519 178.166 208.743C175.331 206.888 172.467 205.091 169.56 203.366C168.214 202.567 166.782 201.868 165.322 201.312C164.402 200.956 163.697 202.437 164.087 203.343C164.106 203.389 164.127 203.434 164.147 203.48C164.233 203.679 164.534 203.779 164.734 203.922C167.713 205.99 170.677 208.101 173.684 210.14C175.804 211.581 177.966 212.978 180.157 214.319C182.361 215.666 183.358 218.387 181.829 220.469C180.271 222.591 178.46 224.418 176.467 226.101C174.702 227.591 172.303 227.01 170.606 225.444C168.143 223.162 165.565 221.022 163.059 218.797C160.94 216.929 158.964 214.89 156.744 213.15C152.505 209.812 148.181 206.589 143.827 203.408C141.436 201.654 138.944 200.057 136.481 198.402C131.956 195.379 127.603 192.056 122.863 189.417C115.932 185.538 108.729 182.129 101.627 178.564C93.1779 174.328 84.6862 170.149 76.2088 165.97C72.1277 163.959 68.0322 162.005 63.9653 159.966C63.4813 159.725 63.7849 159.114 64.2853 159.318C65.5804 159.849 66.847 160.43 68.1181 161.007C70.7243 162.205 73.3449 163.417 75.9511 164.615C78.3282 165.699 80.7483 166.726 83.0681 167.896C85.4738 169.108 87.7507 170.577 90.1564 171.747C93.2495 173.258 96.4715 174.485 99.5503 176.025C105.393 178.949 111.164 182.015 116.992 184.996C121.102 187.093 125.226 189.161 129.35 191.229C130.138 191.628 130.954 191.942 131.713 192.384C133.761 193.568 135.78 194.823 137.842 196.006C141.092 197.875 144.4 199.672 147.636 201.583C149.469 202.653 151.216 203.851 152.978 205.034C155.355 206.617 157.732 208.229 160.08 209.869C162.429 211.509 164.749 213.178 167.04 214.89C168.429 215.931 169.732 217.1 171.107 218.156C172.55 219.255 174.034 220.313 175.638 221.477C176.032 221.764 176.965 221.395 176.62 221.051C175.403 219.653 174.243 218.184 172.868 216.972C171.279 215.574 169.446 214.447 167.77 213.135C165.68 211.467 163.703 209.641 161.57 208.044C158.405 205.705 155.169 203.437 151.904 201.255C148.166 198.759 144.357 196.334 140.548 193.938C139.016 192.969 137.383 192.141 135.794 191.257C133.66 190.073 131.527 188.875 129.379 187.72C126.959 186.422 124.481 185.21 122.075 183.898C119.627 182.557 117.278 181.031 114.787 179.762C112.052 178.364 109.159 177.237 106.424 175.84C103.03 174.114 99.7794 172.117 96.3712 170.42C93.6075 169.037 90.7006 167.953 87.8796 166.698C87.5267 166.543 87.7716 166.045 88.1377 166.166C89.3107 166.551 90.4031 167.056 91.5025 167.553C94.6529 168.994 97.7746 170.477 100.954 171.861C104.29 173.315 107.684 174.642 111.049 176.054C113.598 177.123 116.133 178.279 118.682 179.348C122.419 180.931 126.243 182.329 129.894 184.083C133.904 186.023 137.756 188.276 141.694 190.387C143.985 191.614 146.305 192.783 148.596 193.995C151.832 195.721 155.054 197.475 158.305 199.173C158.65 199.351 159.115 199.321 159.55 199.339C159.705 199.346 159.851 199.263 159.91 199.12C159.967 198.98 159.936 198.817 159.829 198.71C159.465 198.347 159.112 197.967 158.706 197.661C157.331 196.677 155.942 195.707 154.524 194.78C150.357 192.07 146.204 189.332 141.966 186.722C139.231 185.039 136.438 183.413 133.531 182.058C129.207 180.033 124.739 178.293 120.357 176.367C117.608 175.155 114.93 173.786 112.18 172.588C106.581 170.135 100.939 167.796 95.3402 165.343C91.3736 163.603 87.5216 161.578 83.469 160.052C78.1707 158.041 72.7148 156.457 67.3592 154.561C65.5119 153.905 63.7935 152.849 62.0178 151.979ZM185.484 58.0468C185.484 58.048 185.484 58.0491 185.485 58.0501C186.272 59.4186 187.002 60.6732 187.704 61.9421C188.176 62.7836 188.405 63.5395 187.317 64.167C185.198 65.3936 183.121 66.7057 181.002 67.9322C177.45 69.986 173.913 72.054 170.291 73.9794C166.353 76.0759 162.271 77.9157 158.362 80.0408C153.164 82.8647 148.052 85.8455 142.897 88.755C141.579 89.4966 140.176 90.0814 138.901 90.88C138.852 90.911 138.805 90.9445 138.758 90.9802C138.049 91.5269 138.615 93.1549 139.446 92.8197C143.269 91.2366 147.064 89.5394 150.844 87.8707C152.104 87.3145 153.393 86.7726 154.61 86.1308C157.274 84.7331 159.88 83.2355 162.543 81.8236C165.536 80.2262 168.572 78.7002 171.565 77.0886C174.801 75.3343 178.009 73.5087 181.231 71.726C182.836 70.8339 184.445 69.9455 186.068 69.0498C188.913 67.4793 192.775 67.9049 194.814 70.4368C194.896 70.5395 194.977 70.6432 195.056 70.748C196.678 72.901 194.813 75.404 192.257 76.2613C191.899 76.3754 191.613 76.6749 191.269 76.8033C187.732 78.1297 184.195 79.4275 180.658 80.7254C176.835 82.1373 172.997 83.5065 169.174 84.9327C166.768 85.8313 164.362 86.744 161.999 87.7424C159.107 88.9547 156.271 90.3238 153.35 91.4933C150.543 92.62 147.622 93.4472 144.858 94.631C140.806 96.3852 136.839 98.3106 132.873 100.236C132.282 100.524 131.783 101.014 131.264 101.46C131.089 101.61 131.018 101.849 131.097 102.064C131.178 102.284 131.399 102.418 131.632 102.407C132.515 102.362 133.421 102.392 134.219 102.119C136.968 101.177 139.632 100.036 142.367 99.0237C146.405 97.5405 150.515 96.2141 154.496 94.6025C159.35 92.6343 164.09 90.3951 168.916 88.3699C175.388 85.6458 181.904 83.0073 188.391 80.3118C189.694 79.7698 191.026 79.2564 192.257 78.5718C194.38 77.4089 197.024 78.4273 197.585 80.782C198.017 82.5951 196.987 84.4464 195.212 85.0146C194.204 85.3373 193.178 85.6824 192.171 86.0737C188.019 87.671 183.923 89.3825 179.799 91.0512C175.317 92.8625 170.849 94.7166 166.353 96.4993C163.861 97.4834 161.384 98.5103 158.82 99.2662C152.634 101.092 146.376 102.661 140.219 104.543C134.305 106.355 128.505 108.465 122.62 110.376C117.866 111.919 113.024 113.196 108.534 115.774C108.159 115.989 108.127 116.75 108.557 116.723C110.305 116.523 112.066 116.409 113.756 115.981C116.72 115.226 119.655 114.327 122.548 113.357C126.801 111.945 131.04 110.476 135.25 108.95C139.66 107.353 144.014 105.599 148.424 104.015C151.603 102.875 154.868 101.933 158.076 100.864C159.15 100.507 160.123 99.8509 161.212 99.5657C163.46 98.9809 165.794 98.6815 168.014 98.0254C171.207 97.0841 174.343 95.9716 177.493 94.8877C181.36 93.5613 185.226 92.2349 189.05 90.823C190.854 90.1526 192.572 89.2969 194.334 88.5125C194.762 88.32 195.19 88.1268 195.621 87.9324C198.51 86.6265 202.51 86.5718 203.278 89.6482C203.401 90.1378 203.466 90.6527 203.478 91.1889C203.531 93.5112 201.562 95.1959 199.389 96.0144C195.98 97.3123 192.601 98.71 189.164 99.9365C186.744 100.806 184.224 101.434 181.775 102.247C178.009 103.488 174.286 104.914 170.491 106.055C165.25 107.61 159.98 109.007 154.682 110.391C150.601 111.46 146.52 112.459 142.395 113.343C136.782 114.555 131.126 115.625 125.498 116.752C123.45 117.165 121.402 117.565 119.355 117.978C114.4 118.976 109.445 119.946 104.505 121.002C101.827 121.572 99.1923 122.328 96.5288 122.927C92.3903 123.84 88.2519 124.738 84.0848 125.551C78.7721 126.592 73.4308 127.534 68.1038 128.489C67.9282 128.524 67.7422 128.494 67.5222 128.441C67.2172 128.367 67.0849 127.844 67.3878 127.762C72.457 126.578 77.5549 125.452 82.6098 124.239C87.6361 123.041 92.6624 121.886 97.6314 120.488C99.4932 119.957 101.198 118.864 102.971 117.997C103.105 117.931 103.163 117.767 103.104 117.63C103.055 117.515 102.93 117.457 102.809 117.487C92.4671 120.052 82.1113 122.602 71.7697 125.166C80.8485 121.8 89.9989 118.834 99.1207 115.768C107.652 112.899 116.069 109.704 124.171 105.566C124.916 105.185 124.992 103.856 124.18 104.058C122.276 104.5 120.343 104.943 118.524 105.641C115.374 106.854 112.338 108.38 109.173 109.535C105.235 110.975 101.197 112.159 97.2161 113.486C96.3712 113.771 95.598 114.227 94.7531 114.484C91.0442 115.611 87.3211 116.695 83.6122 117.779C82.896 117.986 82.664 117.361 83.3682 117.116C83.8393 116.952 84.3123 116.793 84.7864 116.638C88.438 115.439 92.1612 114.398 95.7555 113.072C99.851 111.56 103.846 109.834 107.87 108.152C109.23 107.581 110.534 106.911 111.865 106.283C114.013 105.271 116.219 104.344 118.295 103.217C120.643 101.947 122.892 100.464 125.197 99.1093C126.176 98.5355 127.207 98.0199 128.048 97.2021C128.771 96.4992 128.077 95.1394 127.13 95.4867C125.612 96.0715 124.138 96.7561 122.691 97.4977C120.515 98.6244 118.438 99.9651 116.219 100.978C113.956 102.019 111.536 102.703 109.259 103.702C106.495 104.9 103.832 106.326 101.082 107.553C97.703 109.05 94.3378 110.662 90.8294 111.817C84.3712 113.956 77.827 115.81 71.2971 117.75C66.815 119.076 62.3186 120.331 57.8221 121.644C56.3955 122.063 54.9818 122.547 53.5688 122.997C53.443 123.037 53.3078 122.966 53.2659 122.841C53.2259 122.722 53.2896 122.594 53.4081 122.552C60.6268 119.953 67.859 117.396 75.0632 114.741C80.4475 112.758 85.8175 110.776 91.1015 108.551C94.4953 107.125 97.6457 105.171 101.011 103.673C104.849 101.976 108.815 100.593 112.682 98.9524C117.164 97.0556 121.603 95.0589 126.028 93.0479C130.138 91.1796 134.362 89.4681 138.286 87.2717C143.455 84.3765 148.424 81.1105 153.422 77.9158C155.638 76.5033 157.749 74.9195 159.894 73.4052C160.048 73.2962 160.119 73.1028 160.064 72.9222C160.009 72.7433 159.841 72.6252 159.654 72.6141C159.056 72.5784 158.43 72.4731 157.918 72.6673C156.415 73.2235 154.925 73.8796 153.522 74.664C151.231 75.9618 149.054 77.4308 146.792 78.7572C145.317 79.6129 143.756 80.2833 142.267 81.1105C139.975 82.3798 137.756 83.8203 135.407 84.9898C131.527 86.9152 127.574 88.7265 123.636 90.5235C120.5 91.9497 117.321 93.3046 114.142 94.6453C107.756 97.3551 101.355 100.022 94.9822 102.746C92.5476 103.78 90.1556 104.899 87.751 106.002C87.2765 106.22 86.8107 105.746 87.2781 105.513C90.8294 103.787 94.3951 102.104 97.9464 100.379C102.085 98.382 106.238 96.428 110.319 94.3172C115.56 91.6074 120.744 88.7835 125.928 85.9454C130.982 83.1785 136.052 80.4544 141.006 77.5307C144.787 75.3058 148.424 72.8241 152.09 70.4138C154.395 68.902 156.658 67.3332 158.921 65.7786C160.324 64.8231 161.785 63.9246 163.102 62.8692C166.281 60.302 169.446 57.7205 172.524 55.0392C174.047 53.7095 175.394 52.2061 176.812 50.7604C176.989 50.5798 177.007 50.2978 176.848 50.1012C176.696 49.9139 176.435 49.8498 176.212 49.941C175.771 50.1209 175.317 50.2883 174.973 50.5752C173.441 51.8588 172.052 53.3135 170.477 54.5401C167.856 56.5511 165.135 58.4194 162.458 60.359C159.823 62.2702 157.302 64.3239 154.567 66.0782C151.102 68.2888 147.479 70.257 143.942 72.3392C139.546 74.9207 135.221 77.6162 130.753 80.0551C126.715 82.2657 122.505 84.1768 118.395 86.2591C114.586 88.1988 110.82 90.2383 106.997 92.1494C103.488 93.8894 99.9083 95.4725 96.3999 97.1982C91.7459 99.4944 87.1779 101.976 82.4953 104.215C78.6575 106.055 74.6623 107.595 70.8102 109.407C68.3681 110.546 65.977 111.781 63.5849 113.016C62.8476 113.397 62.3799 112.762 63.1204 112.387C69.8221 109.05 76.5382 105.77 83.2685 102.475C89.9559 99.1949 96.7293 96.0715 103.331 92.6343C111.379 88.427 119.34 84.077 127.216 79.5559C131.34 77.1884 135.207 74.3787 139.13 71.6832C141.88 69.7863 144.543 67.7753 147.221 65.7786C150.601 63.2685 154.023 60.8154 157.302 58.1769C160.424 55.6668 163.417 52.9998 166.396 50.3042C168.386 48.5072 170.348 46.6531 172.095 44.6421C172.968 43.6438 173.412 43.4726 174.515 44.2713C177.708 46.5533 180.343 49.3487 182.649 52.4863C183.651 53.8526 183.108 55.7957 181.632 56.6286C180.579 57.2228 179.572 57.7961 178.582 58.3908C176.448 59.6744 174.286 60.9153 172.281 62.37C169.331 64.5093 166.467 66.7913 163.632 69.0875C163.595 69.1178 163.563 69.1544 163.535 69.1964C163.11 69.8398 163.924 71.0698 164.634 70.7704C166.381 70.0715 168.128 69.3727 169.775 68.4599C172.295 67.0622 174.787 65.5932 177.178 63.9959C179.996 62.1155 182.685 60.0503 185.474 58.0416C185.478 58.0386 185.484 58.0416 185.484 58.0468ZM64.9963 164.601C64.9811 164.594 64.9758 164.574 64.9851 164.56C65.0496 164.46 65.1108 164.363 65.1724 164.265C65.2668 164.116 65.4599 164.065 65.6159 164.148C66.5529 164.645 67.4824 165.158 68.4474 165.6C70.6957 166.641 72.9869 167.568 75.2064 168.666C81.0203 171.547 86.7769 174.528 92.5908 177.423C96.3713 179.305 100.223 181.031 103.975 182.957C107.24 184.625 110.419 186.494 113.655 188.234C116.305 189.66 119.04 190.901 121.617 192.441C125.197 194.566 128.691 196.848 132.185 199.13C136.467 201.925 140.72 204.735 144.93 207.63C148.983 210.411 153.092 213.121 156.93 216.187C161.699 220.01 166.224 224.131 170.82 228.168C171.551 228.809 171.995 229.722 170.749 230.278C170.354 230.457 169.957 230.631 169.56 230.802C166.727 232.015 163.892 230.587 161.656 228.467C158.52 225.458 155.269 222.548 151.904 219.81C147.379 216.116 142.725 212.579 138.056 209.056C137.601 208.71 136.865 208.714 136.192 208.64C135.968 208.616 135.749 208.737 135.671 208.949C135.608 209.12 135.643 209.313 135.767 209.447C142.715 216.964 150.553 223.488 158.544 230.028C160.546 231.665 160.102 234.838 157.727 235.86C156.525 236.378 155.31 236.9 154.082 237.426C153.532 237.661 153.26 237.154 152.892 236.682C151.016 234.101 149.24 231.405 147.107 229.052C144.071 225.714 140.777 222.605 137.57 219.439C135.15 217.043 132.758 214.619 130.181 212.394C127.13 209.741 123.923 207.259 120.729 204.778C116.677 201.626 112.639 198.46 108.457 195.464C104.978 192.983 101.297 190.772 97.7316 188.405C93.2495 185.438 88.7817 182.429 84.3139 179.448C83.699 179.04 83.0611 178.677 82.4311 178.299C82.3065 178.224 82.2643 178.064 82.3366 177.938C82.4099 177.811 82.571 177.762 82.7036 177.826C83.1575 178.045 83.6172 178.24 84.0561 178.507C86.2471 179.847 88.3951 181.288 90.629 182.571C93.2352 184.083 95.9417 185.438 98.5765 186.907C103.417 189.617 108.228 192.355 113.04 195.108C115.173 196.334 117.307 197.575 119.412 198.845C121.889 200.328 124.309 201.897 126.801 203.366C127.832 203.965 128.935 204.478 130.066 204.849C130.567 205.006 131.255 204.792 131.784 204.564C131.899 204.521 131.87 203.523 131.613 203.294C130.281 202.139 128.935 200.97 127.445 200.028C124.166 197.932 120.787 195.964 117.464 193.924C114.586 192.17 111.808 190.245 108.858 188.633C103.674 185.838 98.3474 183.299 93.1636 180.518C89.3115 178.45 85.6027 176.096 81.7936 173.943C78.2279 171.932 74.605 170.035 71.0251 168.067C68.9916 166.954 67.0011 165.756 64.9963 164.601ZM84.7274 58.6494C84.7283 58.6485 84.7281 58.6469 84.7269 58.6463C84.6084 58.5773 84.4965 58.5084 84.3821 58.4395C84.2871 58.3822 84.2272 58.2797 84.2136 58.1696C84.1972 58.0375 84.1787 57.9087 84.228 57.8204C86.1182 54.4117 88.1659 51.0886 89.8987 47.6087C91.9034 43.5582 93.6361 39.3794 95.4691 35.2576C96.8438 32.1913 98.3474 29.182 99.5216 26.0443C100.982 22.1507 102.185 18.1573 103.445 14.2067C103.717 13.3795 104.147 12.3954 103.932 11.6395C103.288 9.20068 104.935 9.10086 106.452 9.05807C107.412 9.02953 108.4 9.45741 109.374 9.69987C110.519 9.98511 110.519 10.6982 110.047 11.5825C108.357 14.7487 106.982 18.0147 106.367 21.6087C106.042 23.4917 108.425 22.6866 109.354 21.017C110.596 18.7852 111.835 16.5593 113.067 14.3421C113.798 13.0257 115.158 12.1803 116.662 12.1071C118.299 12.0275 119.99 11.9449 121.729 11.8614C122.631 11.8181 123.109 12.6844 122.906 13.5649C122.664 14.6368 124.032 15.9325 124.912 15.2743C124.967 15.2332 125.014 15.1867 125.054 15.1337C127.057 12.5382 130.174 10.9504 133.27 12.0294C133.467 12.0981 133.664 12.1678 133.861 12.2385C134.849 12.5951 134.963 13.351 134.305 14.2067C132.414 16.6883 130.653 19.284 128.648 21.6658C124.782 26.2582 120.858 30.8078 116.834 35.2719C112.252 40.3492 107.483 45.2412 102.915 50.3327C98.1755 55.6097 93.6075 61.0151 88.9106 66.3206C88.3549 66.9384 87.601 67.3819 86.912 67.8819C86.7862 67.9731 86.611 67.9567 86.5076 67.8408C86.4142 67.7362 86.4069 67.5805 86.4877 67.4658C86.8605 66.9361 87.2029 66.3749 87.6361 65.8928C90.2137 62.969 92.8629 60.1023 95.3975 57.1358C97.9035 54.1978 100.266 51.16 102.729 48.1934C104.233 46.3679 105.88 44.6707 107.297 42.7881C108.686 40.934 109.875 38.9373 111.078 36.9548C114.2 31.8062 117.293 26.6433 120.371 21.4662C120.381 21.4504 120.39 21.4341 120.397 21.4174C120.619 20.9444 119.825 20.2418 119.455 20.6104C118.768 21.295 118.123 22.0509 117.55 22.8353C116.09 24.8035 114.686 26.8002 113.24 28.7826C111.235 31.5209 109.273 34.2878 107.197 36.9691C105.937 38.595 104.476 40.064 103.188 41.6613C100.309 45.2269 97.4739 48.8495 94.6242 52.4436C93.3784 54.0124 92.1325 55.5812 90.8581 57.1358C89.373 58.9436 87.8483 60.7119 86.3347 62.4913C86.2281 62.6166 86.0438 62.6405 85.9089 62.5464C85.7948 62.4669 85.7458 62.3226 85.7783 62.1873C85.8627 61.8355 85.9156 61.4675 86.1039 61.1862C87.5645 59.0326 89.0967 56.9076 90.5574 54.754C92.8772 51.3311 95.3402 48.008 97.4166 44.4425C99.7364 40.4633 101.756 36.2988 103.76 32.1485C104.412 30.7845 104.705 29.2485 105.134 27.78C105.188 27.5942 105.077 27.3954 104.893 27.3352C104.746 27.287 104.59 27.3474 104.507 27.4784C97.913 37.8679 91.3187 48.2574 84.7243 58.6469C84.7231 58.6489 84.7257 58.651 84.7274 58.6494ZM119.951 252.057C119.949 252.057 119.948 252.053 119.95 252.052C120.215 251.903 120.481 251.744 120.746 251.591C120.851 251.53 120.897 251.402 120.855 251.289C120.369 249.974 120.049 248.561 119.326 247.393C116.72 243.243 114.013 239.164 111.264 235.113C108.93 231.69 106.524 228.296 104.018 224.987C102.386 222.834 100.495 220.865 98.734 218.812C95.2972 214.832 91.8462 210.868 88.4381 206.86C88.2881 206.684 88.1459 206.503 88.0087 206.318C87.5074 205.642 88.1553 204.814 88.7244 205.434C91.7173 208.728 94.6529 212.066 97.6314 215.374C101.87 220.052 106.137 224.702 110.362 229.394C114.543 234.029 118.782 238.593 122.806 243.357C126.729 248.006 130.381 252.898 134.19 257.633C134.978 258.603 134.82 259.316 133.775 259.701C130.51 260.884 127.081 259.291 125.012 256.502C124.959 256.432 124.907 256.362 124.854 256.293C124.8 256.223 124.72 256.175 124.62 256.142C123.682 255.83 122.508 256.953 122.777 257.904C123.083 258.942 122.445 260.026 121.365 259.967C119.74 259.878 118.138 259.793 116.598 259.711C115.142 259.634 113.831 258.809 113.133 257.53C111.564 254.649 110.038 251.844 108.429 249.076C107.951 248.23 106.116 249.176 106.41 250.103C107.484 253.454 108.701 256.749 109.803 260.086C109.975 260.614 109.961 261.698 109.732 261.783C108.529 262.254 107.226 262.653 105.951 262.725C105.35 262.753 104.347 262.069 104.161 261.498C103.316 258.76 102.83 255.922 101.956 253.198C100.639 249.133 99.1493 245.125 97.66 241.132C97.0729 239.563 96.271 238.08 95.5693 236.539C93.765 232.546 92.0323 228.524 90.1278 224.574C88.7642 221.737 87.2481 218.972 85.768 216.192C85.5046 215.697 85.9496 215.308 86.2614 215.774C89.6982 220.766 93.135 225.743 96.5288 230.778C97.4309 232.118 98.1756 233.587 98.9345 235.028C100.137 237.31 101.24 239.663 102.5 241.916C103.011 242.834 103.738 243.623 104.418 244.441C104.591 244.65 104.889 244.7 105.115 244.551C105.316 244.417 105.414 244.164 105.342 243.934C101.819 232.797 95.3454 223.258 88.8637 213.705C88.4251 213.058 88.951 212.638 89.4548 213.235C91.5025 215.66 93.6648 217.999 95.641 220.48C98.3045 223.803 100.81 227.255 103.431 230.606C106.524 234.557 109.689 238.451 112.753 242.43C113.827 243.813 114.6 245.425 115.66 246.823C117.02 248.618 118.522 250.314 119.953 252.053C119.954 252.054 119.953 252.057 119.951 252.057ZM69.4707 130.555C69.4416 130.548 69.4213 130.522 69.42 130.492C69.4198 130.488 69.4196 130.485 69.4194 130.481C69.4168 130.431 69.4523 130.38 69.5016 130.373C70.874 130.178 72.2595 129.983 73.6312 129.802C75.8651 129.502 78.1277 129.317 80.333 128.889C83.7841 128.218 87.1779 127.291 90.629 126.621C93.5359 126.051 96.4858 125.78 99.3928 125.181C101.398 124.767 103.316 123.883 105.321 123.455C110.62 122.328 115.947 121.358 121.274 120.303C123.622 119.832 125.942 119.29 128.305 118.862C129.966 118.563 131.67 118.549 133.317 118.221C136.295 117.622 139.231 116.88 142.195 116.238C145.918 115.439 149.67 114.798 153.364 113.871C156.73 113.029 160.009 111.888 163.345 110.933C167.298 109.806 171.279 108.793 175.217 107.624C178.252 106.725 181.245 105.67 184.267 104.686C187.159 103.744 190.095 102.932 192.916 101.819C195.167 100.928 197.381 99.9318 199.57 98.9363C201.381 98.113 203.5 99.072 204.108 100.966C204.65 102.652 203.778 104.457 202.129 105.104C198.367 106.579 194.613 108.08 190.797 109.392C184.854 111.446 178.868 113.4 172.825 115.126C166.696 116.866 160.496 118.435 154.267 119.747C147.307 121.216 140.276 122.357 133.259 123.526C128.405 124.339 123.522 124.938 118.653 125.651C114.028 126.322 109.417 127.02 104.806 127.705C101.985 128.119 99.178 128.603 96.3426 128.931C92.777 129.345 89.2113 129.702 85.6456 129.987C82.2518 130.244 78.858 130.415 75.4642 130.543C73.4764 130.614 71.4743 130.558 69.4865 130.557C69.4812 130.557 69.4759 130.557 69.4707 130.555ZM69.0775 141.397C71.0394 141.397 73.0728 141.354 75.1062 141.397C78.3711 141.482 81.6361 141.482 84.8724 141.782C89.4404 142.195 93.9798 142.809 98.5192 143.365C103.488 143.978 108.457 144.563 113.412 145.29C117.35 145.861 121.259 146.645 125.183 147.287C129.35 147.971 133.517 148.599 137.684 149.269C143.14 150.154 148.61 150.938 154.023 152.008C157.99 152.792 161.885 153.905 165.78 154.974C172.324 156.785 178.911 158.483 185.369 160.608C190.992 162.458 196.512 164.612 202.008 166.687C203.723 167.334 204.644 169.167 204.068 170.907C203.431 172.831 201.253 173.798 199.425 172.922C198.181 172.327 196.926 171.752 195.637 171.262C191.799 169.807 187.875 168.537 183.98 167.225C182.19 166.626 180.386 166.084 178.596 165.5C175.646 164.53 172.725 163.489 169.761 162.59C166.123 161.492 162.458 160.494 158.777 159.51C154.668 158.411 150.572 157.199 146.405 156.358C140.061 155.074 133.646 154.133 127.274 152.949C123.837 152.307 120.457 151.394 117.021 150.696C112.982 149.868 108.815 149.483 104.92 148.242C100.152 146.716 95.3259 145.832 90.4142 145.233C90.0418 145.19 89.6839 145.076 89.3115 144.991C85.9464 144.249 82.5812 143.422 79.1874 142.809C76.5525 142.324 73.8604 142.095 71.1969 141.739C70.449 141.641 69.715 141.501 69.0771 141.401C69.0744 141.401 69.0748 141.397 69.0775 141.397ZM72.7965 175.768C72.7865 175.768 72.7807 175.757 72.7867 175.749C72.8416 175.675 72.8969 175.596 72.9562 175.519C73.0044 175.457 73.0931 175.446 73.1576 175.492C77.7879 178.76 82.4044 182.042 87.049 185.281C92.3187 188.947 97.6457 192.526 102.901 196.178C106.051 198.374 109.116 200.656 112.238 202.895C115.402 205.163 118.71 207.259 121.732 209.698C126.071 213.192 130.238 216.929 134.448 220.594C135.293 221.322 136.037 222.177 136.825 222.976C139.789 225.943 142.811 228.866 145.689 231.919C147.156 233.477 148.543 235.116 149.969 236.802C151.073 238.109 151.017 239.978 149.691 241.059C148.395 242.115 146.429 241.981 145.499 240.592C144.576 239.213 143.589 237.887 142.01 237.131C141.886 237.071 141.741 237.088 141.632 237.171C141.467 237.297 141.426 237.532 141.541 237.705C142.538 239.212 143.529 240.695 144.327 241.894C144.951 242.83 144.884 244.063 144.168 244.931C143.592 245.628 143.047 246.29 142.508 246.942C142.083 247.456 141.264 247.354 140.978 246.751C140.362 245.482 139.904 244.098 139.102 242.957C137.212 240.276 135.25 237.623 133.145 235.113C130.582 232.061 127.918 229.066 125.14 226.199C121.889 222.862 118.61 219.525 115.073 216.487C108.887 211.181 102.514 206.09 96.1994 200.927C91.5311 197.119 86.8485 193.339 82.1802 189.546C81.2248 188.766 80.2817 187.986 79.3394 187.206C79.2138 187.102 79.1888 186.922 79.2836 186.79C79.3817 186.653 79.5731 186.61 79.7147 186.702C81.8083 188.055 83.9252 189.374 85.9893 190.772C88.9822 192.797 91.9321 194.908 94.8963 196.962C98.3044 199.33 101.827 201.569 105.106 204.093C108.744 206.903 112.223 209.912 115.674 212.936C119.412 216.187 123.092 219.51 126.715 222.891C129.493 225.486 132.114 228.239 134.835 230.877C135.298 231.326 135.9 231.659 136.454 232.023C136.565 232.095 136.712 232.089 136.818 232.009C136.937 231.92 136.981 231.762 136.924 231.625C136.381 230.327 136.013 228.874 135.15 227.825C132.801 224.959 130.295 222.206 127.718 219.553C124.682 216.444 121.517 213.463 118.367 210.483C115.574 207.844 112.825 205.12 109.832 202.71C106.624 200.114 103.173 197.818 99.7937 195.436C94.2949 191.557 88.7101 187.777 83.2542 183.827C79.6897 181.246 76.2826 178.466 72.804 175.771C72.8019 175.769 72.7992 175.768 72.7965 175.768ZM98.2758 134.879C98.2944 134.879 98.3129 134.873 98.3282 134.862C98.7799 134.547 98.8644 134.437 98.9488 134.437C106.796 134.565 114.5 133.196 122.233 132.155C125.97 131.656 129.694 131.057 133.417 130.557C138.128 129.916 142.854 129.445 147.536 128.689C151.775 128.019 155.971 127.049 160.195 126.25C162.787 125.765 165.407 125.423 167.999 124.924C170.276 124.482 172.51 123.854 174.773 123.441C177.121 123.013 179.498 122.842 181.832 122.371C184.983 121.743 188.119 120.987 191.241 120.217C194.405 119.433 197.613 118.72 200.692 117.679C202.19 117.172 203.651 116.565 205.125 115.925C207.266 114.994 210.032 117.053 208.081 118.335C205.26 120.203 202.338 122.143 199.159 123.212C193.503 125.109 187.661 126.45 181.875 127.905C177.365 129.031 172.797 129.958 168.257 131.014C164.391 131.898 160.553 132.868 156.672 133.709C155.226 134.023 153.708 134.337 152.247 134.308C146.892 134.18 141.55 133.709 136.195 133.709C130.496 133.709 124.782 134.123 119.083 134.351C114.157 134.537 109.231 134.736 104.304 134.879C102.414 134.936 100.538 134.879 98.2758 134.879ZM109.513 137.939C109.515 137.934 109.52 137.931 109.526 137.93C111.4 137.816 113.731 137.546 116.061 137.56C120.844 137.56 125.627 137.731 130.41 137.803C133.546 137.845 136.682 137.831 139.818 137.86C143.312 137.888 146.792 138.045 150.286 137.959C152.806 137.902 155.384 136.918 157.746 138.615C158.033 138.829 158.462 138.872 158.835 138.944C161.312 139.428 163.789 139.828 166.252 140.37C170.305 141.254 174.343 142.21 178.381 143.165C183.708 144.42 189.021 145.689 194.319 147.03C195.708 147.387 197.083 147.929 198.372 148.556C201.622 150.139 204.887 151.722 208.023 153.491C210.266 154.752 207.511 156.895 205.09 156.021C202.648 155.139 200.218 154.269 197.77 153.462C195.322 152.664 192.801 152.065 190.295 151.437C186.816 150.567 183.336 149.626 179.813 148.956C176.82 148.371 173.727 148.242 170.734 147.672C166.123 146.802 161.57 145.675 156.959 144.762C154.496 144.263 151.99 143.935 149.484 143.579C144.171 142.837 138.844 142.11 133.517 141.411C131.14 141.097 128.734 140.955 126.371 140.598C123.049 140.085 119.741 139.4 116.419 138.872C113.98 138.474 111.512 138.218 109.525 137.962C109.514 137.961 109.508 137.949 109.513 137.939ZM209.528 111.875C209.527 111.874 209.527 111.874 209.526 111.874C208.123 112.002 207.279 111.96 206.52 112.188C203.57 113.072 200.663 114.113 197.699 114.94C192.673 116.366 187.603 117.693 182.548 119.005C181.116 119.376 179.598 119.447 178.152 119.761C176.377 120.132 174.629 120.688 172.854 121.03C165.823 122.414 158.792 123.769 151.746 125.066C145.718 126.179 139.675 127.163 133.632 128.218C132.4 128.432 131.183 128.746 129.937 128.917C127.331 129.26 124.696 129.445 122.104 129.844C119.197 130.301 116.333 131.128 113.412 131.427C109.531 131.827 105.608 131.841 101.698 132.069C97.9464 132.283 94.2089 132.625 90.4571 132.782C90.1612 132.793 89.8649 132.797 89.5671 132.796C88.8076 132.794 88.7126 131.58 89.4691 131.513C92.4047 131.256 95.3688 131.328 98.2901 131.042C103.245 130.557 108.185 129.93 113.111 129.288C117.063 128.775 120.987 128.161 124.925 127.505C125.985 127.334 126.987 126.749 128.047 126.578C131.068 126.122 134.104 125.822 137.126 125.394C141.722 124.724 146.348 124.182 150.901 123.255C156.2 122.171 161.455 120.873 166.653 119.419C173.04 117.622 179.369 115.625 185.699 113.6C188.806 112.601 191.828 111.332 194.892 110.191C198.475 108.86 202.057 107.541 205.721 106.188C206.168 106.023 206.667 106.22 206.881 106.645C207.65 108.17 208.555 109.948 209.533 111.871C209.534 111.874 209.53 111.877 209.528 111.875ZM206.295 166.355C206.292 166.355 206.29 166.355 206.287 166.354C204.269 165.313 202.438 164.144 200.463 163.389C196.109 161.749 191.684 160.322 187.288 158.796C184.983 157.998 182.706 157.128 180.386 156.4C176.921 155.316 173.427 154.347 169.961 153.32C167.613 152.621 165.293 151.822 162.916 151.195C161.097 150.71 159.221 150.425 157.374 150.054C153.737 149.326 150.099 148.542 146.448 147.886C143.283 147.315 140.09 146.916 136.925 146.346C133.374 145.718 129.851 144.848 126.286 144.335C120.787 143.522 115.245 142.923 109.717 142.238C104.591 141.611 99.4644 140.954 94.3378 140.384C91.4654 140.065 88.5794 139.907 85.7062 139.689C85.5751 139.679 85.4738 139.569 85.4738 139.438C85.4738 139.299 85.5866 139.186 85.7256 139.185C87.4317 139.178 89.137 139.105 90.8294 139.2C95.2257 139.457 99.6076 139.913 104.004 140.056C109.03 140.227 113.999 140.698 118.939 141.582C123.622 142.424 128.333 143.137 133.045 143.85C136.467 144.363 139.918 144.663 143.312 145.247C148.696 146.174 154.052 147.273 159.422 148.299C162.773 148.941 166.109 149.555 169.46 150.211C171.436 150.596 173.384 151.081 175.36 151.466C177.336 151.851 179.341 152.093 181.303 152.521C183.622 153.02 185.928 153.605 188.233 154.218C192.128 155.274 196.023 156.343 199.89 157.47C201.621 157.972 203.338 158.506 205.115 159.064C207.309 159.754 208.366 162.253 207.333 164.308C206.995 164.982 206.651 165.666 206.31 166.346C206.307 166.352 206.301 166.355 206.295 166.355ZM90.5287 70.6148C90.5287 70.6177 90.5247 70.6186 90.5236 70.6159C90.4865 70.5297 90.4494 70.443 90.4123 70.3468C90.4045 70.3265 90.408 70.3036 90.4213 70.2864C91.244 69.225 92.0258 68.1089 92.9201 67.1051C96.0562 63.5966 99.2925 60.1736 102.4 56.6366C106.524 51.9729 110.534 47.1951 114.672 42.5313C118.624 38.0816 122.663 33.7173 126.658 29.3103C128.419 27.3564 130.266 25.4738 131.842 23.3773C132.525 22.4704 133.181 21.5447 133.825 20.6065C136.016 17.4177 139.616 17.1997 140.663 20.9242C140.863 21.6373 139.789 22.8211 139.116 23.6483C136.782 26.5435 134.462 29.4529 131.985 32.2198C129.579 34.9011 127.001 37.4255 124.51 40.0355C122.448 42.2033 120.472 44.4567 118.324 46.539C115.746 49.0492 113.025 51.4167 110.347 53.8555C107.211 56.7079 104.104 59.6031 100.911 62.3985C99.3068 63.7962 97.5312 64.9942 95.8557 66.3206C94.0661 67.7323 92.3051 69.1868 90.5297 70.6127C90.5291 70.6132 90.5287 70.614 90.5287 70.6148ZM91.1015 202.111C91.5598 202.282 91.9035 202.325 92.1039 202.496C95.598 205.434 99.092 208.372 102.557 211.353C105.307 213.72 107.999 216.13 110.691 218.569C112.581 220.281 114.414 222.078 116.29 223.803C118.438 225.772 120.729 227.597 122.749 229.694C125.928 232.974 128.978 236.397 131.985 239.834C134.892 243.157 137.684 246.594 140.52 249.989C140.663 250.16 140.792 250.502 140.734 250.688C139.404 254.416 136.149 254.405 133.676 251.314C133.501 251.094 133.324 250.876 133.145 250.659C128.963 245.553 124.811 240.447 120.5 235.456C116.748 231.106 112.768 226.955 108.973 222.648C103.023 215.896 97.1581 209.086 91.0939 202.121C91.0894 202.115 91.0953 202.108 91.1015 202.111ZM94.3951 5.47551C94.3951 5.4738 94.3926 5.47349 94.3922 5.47514C92.0594 14.5421 90.1553 23.5235 87.407 32.2483C84.6762 40.9292 81.1205 49.3594 77.9141 57.8967C77.8486 58.0711 77.6657 58.1661 77.488 58.1103C77.3169 58.0565 77.1997 57.8871 77.2223 57.7092C77.5911 54.8026 77.901 51.8836 78.3712 48.9778C78.7864 46.4534 79.5311 43.9718 79.8891 41.4474C80.5191 37.0119 80.8628 32.5478 81.4929 28.1266C82.1373 23.5342 82.7817 18.9132 83.7841 14.3921C84.4141 11.5682 85.4451 8.80137 87.8652 6.79039C90.2413 4.82306 92.6317 4.28071 94.3928 5.4767C94.3938 5.47734 94.3951 5.47667 94.3951 5.47551ZM94.2662 266.606C94.2662 266.605 94.2653 266.604 94.2643 266.605C93.8492 266.719 93.2916 266.904 92.7197 267.032C90.1421 267.617 86.6194 264.322 85.66 262.482C83.6982 258.731 83.0967 254.624 82.5526 250.474C81.9941 246.238 81.1778 242.045 80.5764 237.823C80.2184 235.27 80.1898 232.674 79.7888 230.136C79.1731 226.285 78.2995 222.477 77.6695 218.626C77.4824 217.482 77.6195 216.275 77.6387 215.087C77.6411 214.936 77.7399 214.802 77.886 214.763C78.0624 214.716 78.2488 214.81 78.3123 214.981C81.4194 223.362 84.8757 231.637 87.5072 240.162C90.1696 248.773 92.0021 257.625 94.2632 266.606C94.2637 266.608 94.2662 266.608 94.2662 266.606ZM101.529 9.79968C101.527 9.79968 101.526 9.80069 101.526 9.80212C97.3081 27.6025 89.7034 44.1429 80.4566 60.015C80.183 60.4846 79.6227 60.2698 79.8461 59.7743C80.9917 57.2642 82.3664 54.8539 83.3258 52.2867C85.574 46.211 87.6504 40.064 89.7554 33.9313C90.2996 32.3482 90.7578 30.7223 91.2161 29.1107C91.9034 26.7004 92.6337 24.29 93.2495 21.8512C94.0801 18.4854 94.882 15.1052 95.5693 11.7108C95.7818 10.6618 95.8751 9.59493 95.9607 8.50644C96.0279 7.65241 96.9523 7.16897 97.696 7.5943C99.0026 8.34164 100.274 9.07135 101.53 9.79379C101.533 9.79541 101.532 9.79968 101.529 9.79968ZM79.0112 210.14C79.014 210.14 79.0168 210.139 79.0193 210.138C79.0466 210.122 79.074 210.106 79.1012 210.09C79.2812 209.988 79.5185 210.049 79.622 210.228C88.776 226.086 96.6242 242.499 100.932 260.21C101.209 261.347 100.591 262.582 99.5766 263.164C97.9933 264.073 96.1144 263.082 95.7939 261.284C95.5436 259.88 95.2763 258.48 94.9393 257.091C93.7364 252.099 92.5335 247.093 91.0729 242.173C89.8844 238.165 88.3808 234.258 86.9488 230.335C85.1445 225.386 83.3115 220.452 81.4213 215.531C80.7225 213.699 79.8107 211.952 78.997 210.162C78.9923 210.152 78.9998 210.14 79.0112 210.14ZM53.7553 157.888C53.7553 157.891 53.7587 157.892 53.76 157.89C53.8484 157.736 53.9449 157.583 54.0367 157.429C54.0791 157.358 54.1715 157.335 54.2415 157.379C56.6922 158.908 59.1429 160.45 61.5937 161.98C61.7787 162.095 61.8331 162.342 61.7188 162.528C61.6087 162.707 61.3752 162.757 61.1982 162.644C58.7148 161.058 56.2436 159.472 53.7592 157.886C53.7575 157.885 53.7553 157.886 53.7553 157.888ZM77.2846 87.2139C75.9145 88.3033 75.4026 87.8847 76.8214 86.8594C77.2881 86.5221 77.7315 86.158 78.1194 85.7296C78.2546 85.5803 78.4939 85.5744 78.6273 85.7254C78.7465 85.8604 78.7269 86.0667 78.586 86.1789C78.1523 86.5239 77.7185 86.8689 77.2846 87.2139Z" fill="#9C3C33"/>
</svg>
