<svg width="215" height="272" viewBox="0 0 215 272" fill="none" xmlns="http://www.w3.org/2000/svg">
<path d="M56.93 136.719C56.9266 136.718 56.9244 136.715 56.9246 136.712C56.9426 136.388 56.9549 136.076 56.9688 135.758C56.9832 135.426 56.7787 135.089 56.4517 135.035C55.2775 134.92 54.0889 134.821 52.9147 134.721C50.9815 134.564 49.0483 134.507 47.1294 134.25C43.8788 133.822 40.6425 133.309 37.4206 132.738C33.1532 131.968 28.9003 131.141 24.6473 130.271C22.8143 129.9 20.9527 129.529 19.1771 128.916C14.6663 127.362 10.0983 125.893 5.77367 123.924C3.68297 122.969 1.85 121.414 0.962171 118.762C-0.856453 113.328 0.203239 108.507 2.95266 103.786C4.11257 101.804 5.43 99.8358 6.13167 97.6822C6.69015 95.9708 6.53262 94.0026 6.47534 92.1485C6.3751 88.911 7.54935 86.458 10.2988 84.661C11.6448 83.791 13.0911 82.8354 13.9503 81.5661C14.7379 80.4108 15.3107 78.6852 15.0959 77.3588C14.1794 71.6112 16.399 67.1899 20.7093 63.7955C23.1723 61.8416 24.2893 59.1889 25.7786 56.6788C27.411 53.912 29.0148 51.1165 30.7618 48.4353C32.0506 46.4671 33.3967 44.4847 35.0006 42.7733C37.5495 40.035 40.571 37.8386 44.065 36.3268C48.8765 34.2588 53.7739 32.3191 58.3992 29.8946C60.6045 28.7394 62.2799 26.6001 64.1844 24.8886C65.3014 23.876 66.3038 22.7351 67.5067 21.8223C69.0246 20.6528 70.0556 19.2409 70.5711 17.4011C71.5449 13.9639 73.7501 11.6534 76.9435 9.99902C79.4065 8.71543 81.6261 6.88992 84.5473 6.88992C87.039 6.88992 89.5736 6.96122 92.0223 7.37482C95.3875 7.93103 98.681 7.91675 101.545 6.10549C104.251 4.39404 106.987 3.85206 110.022 4.57941C112.485 5.17845 114.376 4.23718 116.295 2.78244C120.533 -0.426514 123.841 -0.925702 128.638 1.6272C135.125 5.09289 137.86 10.7549 138.419 17.8575C138.748 22.0505 139.665 26.2008 140.209 30.3795C140.638 33.6741 140.839 37.0114 141.211 40.3059C141.598 43.8002 142.042 47.2801 142.5 50.76C142.929 53.9119 143.359 57.0781 143.918 60.2158C144.218 61.9272 144.748 63.6102 145.249 65.2788C146.051 67.9601 146.925 70.6413 147.77 73.3083C149.058 77.4016 150.204 81.5376 151.65 85.5595C153.168 89.7953 154.987 93.9171 156.634 98.1101C158.796 103.601 162.433 108.079 166.514 112.23C169.493 115.253 172.529 118.248 175.765 121.001C180.992 125.465 187.02 128.702 193.65 130.428C198.863 131.783 204.276 132.382 209.617 133.223C210.577 133.366 211.636 132.71 212.624 132.895C214.758 133.309 215.259 133.452 214.887 135.391C214.844 135.634 214.801 135.876 214.815 136.133C214.83 136.846 215.102 138.072 214.887 138.172C213.87 138.586 212.739 138.757 211.636 138.871C210.648 138.971 209.646 138.8 208.658 138.914C206.438 139.156 204.161 139.242 202.013 139.827C197.187 141.139 192.233 141.724 187.507 143.72C182.137 145.988 177.798 149.511 173.359 152.976C167.918 157.226 163.364 162.404 159.612 168.108C157.135 171.888 155.603 176.338 153.913 180.588C152.08 185.209 150.462 189.915 148.915 194.65C147.827 197.973 147.068 201.396 146.108 204.762C145.65 206.373 144.92 207.914 144.576 209.554C143.86 212.906 143.316 216.286 142.715 219.651C142.328 221.862 141.913 224.073 141.612 226.312C141.397 227.909 141.354 229.535 141.182 231.147C140.595 236.581 140.037 242 139.364 247.42C138.92 250.999 138.361 254.565 137.76 258.131C136.743 264.135 133.077 268.185 127.793 270.809C123.798 272.792 119.917 272.036 116.481 269.355C114.562 267.857 112.786 266.845 110.123 267.401C107.044 268.043 104.051 267.543 101.201 265.761C98.2514 263.921 94.9865 264.078 91.5211 264.72C87.4829 265.461 83.2585 265.775 79.4638 263.336C78.2895 262.58 77.015 262.024 75.8265 261.297C73.2632 259.742 71.3157 257.66 70.7286 254.622C70.2131 251.955 68.0078 250.586 66.3324 248.832C64.5281 246.949 62.6093 245.124 60.5042 243.583C58.614 242.186 56.4803 241.059 54.3467 240.046C49.9075 237.935 45.1676 236.352 40.9719 233.856C37.7929 231.974 34.8287 229.35 32.5518 226.44C29.8024 222.932 27.5972 218.924 25.6783 214.888C24.0315 211.422 21.6544 208.67 18.8477 206.302C15.3107 203.336 14.7952 199.456 14.9957 195.363C15.1389 192.297 14.3512 189.915 11.6877 188.232C10.5278 187.505 9.3536 186.692 8.46577 185.665C7.00514 184.011 6.26053 182.028 6.51829 179.732C7.01948 175.339 5.20084 171.631 2.96694 168.051C-0.484149 162.56 -1.09988 156.827 2.05049 151.065C2.80945 149.667 4.52782 148.469 6.06004 147.87C11.745 145.674 17.4587 143.521 23.3012 141.823C27.454 140.611 31.8215 140.126 36.1175 139.385C40.17 138.686 44.2225 137.973 48.3037 137.431C51.084 137.061 53.907 136.961 56.928 136.735C56.9366 136.734 56.9381 136.722 56.93 136.719ZM62.2656 33.7169C63.3109 34.1732 64.6284 34.3586 65.3443 35.1145C68.867 38.8654 72.1177 42.8873 75.6976 46.5812C78.3039 49.2625 81.2824 51.5729 84.0891 54.0545C87.2538 56.8356 90.3182 59.7166 93.6118 62.3408C97.3923 65.3501 101.316 68.2025 105.283 70.9694C111.97 75.6473 118.772 80.1827 125.488 84.8321C129.898 87.8842 134.237 91.0504 138.634 94.1453C138.875 94.3193 139.118 93.979 138.897 93.7794C136.308 91.4433 133.602 89.3132 130.815 87.2852C128.309 85.4739 125.66 83.8765 123.111 82.1366C120.691 80.4822 118.314 78.7422 115.908 77.045C114.533 76.0752 113.115 75.1624 111.769 74.1498C108.748 71.8394 105.712 69.5432 102.762 67.1329C100.886 65.6068 99.125 63.9239 97.3636 62.2552C95.6739 60.6436 94.0271 59.0035 92.4232 57.3063C89.1154 53.8121 85.7789 50.3321 82.6142 46.7096C81.2395 45.1408 80.2514 43.2439 79.1058 41.4897C78.8707 41.1218 79.2975 40.6136 79.7011 40.7802C79.8115 40.8258 79.9151 40.8801 80.0079 40.9477C80.4518 41.2615 80.7239 41.8177 81.1392 42.1885C86.6237 47.2658 92.0366 52.443 97.6357 57.3776C102.691 61.8274 107.889 66.1203 113.173 70.2991C115.779 72.3528 118.758 73.9216 121.493 75.79C125.588 78.5853 129.626 81.452 133.707 84.2759C133.862 84.3816 134.028 84.4679 134.199 84.5446C134.693 84.7649 135.319 84.2866 134.91 83.9336C131.96 81.4948 128.996 79.0845 126.061 76.6457C123.182 74.2497 120.376 71.7823 117.469 69.4148C113.803 66.4341 110.037 63.5959 106.385 60.6009C103.049 57.8626 99.798 55.0101 96.533 52.1862C94.9006 50.7743 93.2108 49.4194 91.7645 47.8363C88.4423 44.2423 85.249 40.5341 82.0127 36.8545C80.9817 35.685 79.9077 34.5298 79.0485 33.2462C77.459 30.8929 75.9983 28.4542 74.5234 26.0154C73.7457 24.7318 72.0442 24.408 71.0058 25.4916C70.831 25.674 70.6567 25.8559 70.4823 26.0379C69.6187 26.9388 69.4766 28.3121 70.1416 29.3681C70.9792 30.6981 71.8422 32.0662 72.7071 33.4372C72.8267 33.6267 72.7791 33.8765 72.5981 34.0087C72.4165 34.1413 72.1632 34.11 72.0193 33.9373C71.3822 33.1724 70.7452 32.4075 70.1081 31.6439C68.7878 30.0613 66.4113 29.9108 64.8994 31.3115C64.2715 31.8933 63.6461 32.4734 63.0227 33.053C62.5401 33.5018 61.9929 33.8671 61.3921 34.138C57.152 36.0495 56.3593 41.7432 59.9393 44.7124C66.2079 49.9114 72.3039 55.2096 77.7619 61.273C78.4973 62.09 77.9056 63.6066 77.0007 62.9826C74.1368 60.9574 71.3158 58.8894 68.5807 56.7073C64.972 53.8264 61.435 50.8741 57.941 47.8648C55.7644 45.9931 53.5878 44.0979 51.8899 41.6909C50.8781 40.2565 49.1505 39.4667 47.5372 40.1586C45.4584 41.0501 44.7181 43.8469 46.2805 45.4826C46.8698 46.0995 47.4619 46.6825 48.0889 47.223C52.1558 50.7172 56.194 54.2685 60.5043 57.4489C66.0317 61.5279 71.8026 65.3073 77.4876 69.1723C80.4518 71.1833 83.459 73.1515 86.5091 75.0198C90.4614 77.4443 94.4567 79.8261 98.4806 82.1223C101.173 83.6626 103.951 85.046 106.714 86.458C111.24 88.7684 115.765 91.0789 120.318 93.3466C124.271 95.3147 128.266 97.1973 132.218 99.1513C136.457 101.248 140.696 103.359 144.891 105.555C148.414 107.395 151.894 109.306 155.359 111.231C157.181 112.248 158.936 113.371 160.714 114.447C160.828 114.516 160.976 114.487 161.056 114.38C161.138 114.27 161.119 114.115 161.016 114.024C160.287 113.388 159.615 112.66 158.796 112.187C155.989 110.561 153.111 109.078 150.276 107.495C146.266 105.241 142.299 102.945 138.29 100.692C133.306 97.8962 128.323 95.1008 123.311 92.3482C120.719 90.922 118.056 89.6527 115.45 88.2265C112.672 86.7147 109.965 85.0888 107.201 83.5485C104.796 82.2079 102.304 81.0241 99.9555 79.5979C97.5068 78.1004 95.2156 76.3462 92.8099 74.7631C89.9316 72.852 86.9817 71.0407 84.1321 69.1011C83.3859 68.5831 84.2555 67.1355 85.1571 67.2451C85.316 67.2644 85.463 67.3046 85.5927 67.3753C89.3445 69.4006 92.9817 71.5826 96.6906 73.6792C101.173 76.2178 105.726 78.6566 110.194 81.2381C117.97 85.7306 125.703 90.3088 133.464 94.8298C133.742 94.9932 133.949 94.6057 133.684 94.422C133.249 94.1197 132.794 93.8726 132.376 93.5748C128.61 90.9933 124.915 88.3121 121.106 85.8019C117.025 83.1207 112.815 80.6248 108.719 77.9863C107.316 77.0878 106.056 75.9468 104.71 74.9627C102.232 73.1515 99.6691 71.4685 97.2634 69.5717C93.712 66.762 90.218 63.8954 86.8099 60.9146C82.7287 57.3491 78.6762 53.7408 74.8098 49.9471C71.3158 46.5099 68.0079 42.8731 64.8002 39.1649C63.5028 37.6597 61.7511 36.1546 62.2305 33.7344C62.2337 33.7185 62.2511 33.7096 62.2656 33.7169ZM152.982 151.978C153.03 151.95 153.081 151.928 153.134 151.913C155.887 151.139 158.64 150.365 161.393 149.579C161.578 149.526 161.681 149.33 161.622 149.148C161.564 148.97 161.373 148.875 161.196 148.935C159.669 149.452 158.131 149.948 156.605 150.495C155.749 150.809 154.907 151.167 154.07 151.522C153.405 151.805 152.665 151.654 151.965 151.835C147.583 153.033 143.173 154.132 138.863 155.529C132.046 157.74 125.244 159.993 118.557 162.532C112.757 164.742 107.115 167.395 101.402 169.834C100.256 170.319 99.0247 170.661 97.9078 171.203C94.4424 172.872 91.0056 174.64 87.5401 176.309C87.2913 176.428 86.9198 176.31 86.5615 176.221C86.3585 176.17 86.1868 176.02 86.1283 175.819C86.0711 175.623 86.1393 175.413 86.2994 175.286C93.0867 169.903 101.017 166.511 108.92 163.188C116.998 159.778 125.272 156.813 133.245 153.744C133.436 153.671 133.518 153.55 133.321 153.604C128.065 155.215 122.781 156.727 117.569 158.481C112.815 160.093 108.175 161.99 103.464 163.716C100.127 164.942 96.7765 166.169 93.397 167.295C91.2836 168.012 91.2466 165.88 93.2757 164.951C100.792 161.509 108.383 158.623 116.065 156C123.537 153.434 131.086 151.058 138.617 148.656C139.243 148.456 139.088 147.807 138.447 147.956C134.008 148.997 129.569 150.067 125.144 151.165C122.08 151.921 119.044 152.777 115.965 153.504C115.66 153.58 115.28 153.342 114.907 153.142C114.705 153.034 114.57 152.822 114.583 152.594C114.596 152.363 114.757 152.167 114.981 152.111C125.074 149.549 135.177 146.976 145.271 144.413C145.851 144.265 145.796 143.847 145.206 143.948C141.283 144.619 137.345 145.203 133.435 145.959C128.982 146.829 124.557 147.899 120.104 148.826C115.994 149.682 111.87 150.48 107.76 151.322C98.1083 153.304 88.471 155.33 78.8051 157.283C74.9673 158.068 71.058 158.567 67.2489 159.48C63.4685 160.393 59.7739 161.662 56.0364 162.76C54.7047 163.145 53.3586 163.473 52.0269 163.844C49.349 164.571 46.6569 165.242 44.0077 166.055C41.3729 166.868 38.7953 167.88 36.1747 168.707C32.9957 169.706 29.7451 170.462 26.6091 171.574C23.2085 172.785 19.8353 174.098 16.5318 175.386C13.7428 176.474 11.0626 178.787 11.6049 181.731C11.693 182.21 11.8344 182.668 12.0313 183.104C13.1588 185.601 16.4029 185.144 18.8907 183.996C20.9671 183.026 23.0864 182.171 25.2344 181.386C30.2607 179.547 35.3299 177.778 40.3562 175.952C43.5352 174.797 46.8717 174.212 50.0794 173.072C56.0078 170.975 62.1081 169.321 67.9792 167.01C70.9578 165.841 74.0365 164.899 77.058 163.858C80.2514 162.746 83.4161 161.562 86.638 160.549C89.6452 159.594 92.6953 158.781 95.7455 157.968C98.5951 157.212 101.459 156.542 104.323 155.829C104.638 155.757 104.939 155.629 105.254 155.558C105.884 155.413 106.514 155.288 107.144 155.15C107.333 155.108 107.521 155.228 107.56 155.418C107.593 155.575 107.514 155.735 107.369 155.805C105.781 156.581 104.236 157.498 102.562 158.068C97.0199 159.979 91.3779 161.605 85.8648 163.602C80.6523 165.484 75.4972 167.452 70.027 168.451C69.1105 168.622 68.2083 168.864 67.3205 169.149C63.5114 170.347 59.7023 171.56 55.9075 172.801C52.8717 173.785 49.7786 174.669 46.8287 175.867C42.1032 177.792 37.5208 180.06 32.7953 181.957C28.1843 183.797 23.4444 185.337 18.7618 187.006C17.5557 187.448 16.8701 188.735 17.0957 189.999C17.4872 192.195 17.8537 194.305 18.3179 196.39C18.6615 197.973 18.9766 199.699 19.8501 200.982C20.1193 201.372 20.4113 201.747 20.7189 202.11C22.6685 204.412 26.0327 204.285 28.6711 202.822C30.9194 201.567 33.3681 200.669 35.6163 199.414C41.7166 196.019 47.6736 192.354 53.8455 189.088C58.5281 186.606 63.4398 184.581 68.237 182.342C70.299 181.372 72.3038 180.288 74.3945 179.39C75.1644 179.063 76.0456 178.991 76.8909 178.851C77.0949 178.818 77.3009 178.909 77.4058 179.087C77.5206 179.282 77.4893 179.53 77.3341 179.695C76.9217 180.133 76.5275 180.592 76.0556 180.944C75.4685 181.386 74.7525 181.643 74.1368 182.028C72.3181 183.155 70.5711 184.424 68.6809 185.437C63.1964 188.36 57.6402 191.156 52.1414 194.051C45.7691 197.403 39.3967 200.783 33.053 204.191C31.3203 205.118 29.6879 206.217 27.9695 207.158C26.8525 207.771 26.695 208.57 27.2248 209.611C28.3793 211.867 31.2372 212.576 33.3172 211.128C34.482 210.317 35.6465 209.518 36.8335 208.741C39.6688 206.887 42.5328 205.09 45.4397 203.364C46.7858 202.565 48.2178 201.867 49.6784 201.31C50.5979 200.954 51.3032 202.435 50.9134 203.341C50.8936 203.387 50.8734 203.433 50.8526 203.478C50.7667 203.678 50.466 203.778 50.2655 203.92C47.287 205.988 44.3228 208.099 41.3156 210.139C39.1962 211.579 37.0339 212.977 34.843 214.317C32.6388 215.665 31.6422 218.385 33.1712 220.468C34.7292 222.589 36.5404 224.416 38.5329 226.099C40.2975 227.59 42.6967 227.008 44.3944 225.442C46.8574 223.16 49.435 221.021 51.9409 218.796C54.0603 216.927 56.0364 214.888 58.256 213.148C62.4947 209.811 66.8193 206.587 71.1725 203.407C73.564 201.653 76.0556 200.055 78.5186 198.401C83.0437 195.377 87.397 192.054 92.1369 189.416C99.0677 185.537 106.271 182.128 113.373 178.562C121.822 174.327 130.314 170.148 138.791 165.969C142.872 163.958 146.968 162.004 151.035 159.965C151.519 159.724 151.215 159.112 150.715 159.317C149.419 159.847 148.153 160.429 146.882 161.006C144.276 162.204 141.655 163.416 139.049 164.614C136.672 165.698 134.252 166.725 131.932 167.894C129.526 169.107 127.249 170.576 124.843 171.745C121.75 173.257 118.528 174.483 115.45 176.024C109.607 178.948 103.836 182.014 98.008 184.995C93.8982 187.091 89.7741 189.159 85.65 191.227C84.8624 191.626 84.0461 191.94 83.2871 192.382C81.2394 193.566 79.2203 194.821 77.1582 196.005C73.9076 197.873 70.5997 199.67 67.3634 201.581C65.5305 202.651 63.7835 203.849 62.0222 205.033C59.6451 206.616 57.2679 208.228 54.9195 209.868C52.571 211.508 50.2512 213.176 47.96 214.888C46.571 215.929 45.2679 217.099 43.8932 218.154C42.4501 219.253 40.9659 220.311 39.3623 221.476C38.968 221.762 38.0348 221.393 38.38 221.049C39.5972 219.651 40.7571 218.182 42.1318 216.97C43.7213 215.572 45.5543 214.446 47.2297 213.134C49.3204 211.465 51.2966 209.639 53.4302 208.042C56.5949 205.703 59.8312 203.435 63.0961 201.253C66.8336 198.758 70.6427 196.333 74.4518 193.937C75.984 192.967 77.6165 192.14 79.206 191.256C81.3397 190.072 83.4733 188.874 85.6213 187.719C88.0414 186.421 90.5187 185.209 92.9244 183.896C95.3731 182.556 97.7216 181.03 100.213 179.76C102.948 178.363 105.841 177.236 108.576 175.838C111.97 174.113 115.221 172.116 118.629 170.419C121.392 169.035 124.299 167.951 127.12 166.696C127.473 166.541 127.228 166.044 126.862 166.164C125.689 166.55 124.597 167.054 123.497 167.552C120.347 168.993 117.225 170.476 114.046 171.859C110.71 173.314 107.316 174.64 103.951 176.052C101.402 177.122 98.8672 178.277 96.3182 179.347C92.5808 180.93 88.7574 182.328 85.1058 184.082C81.0962 186.021 77.2442 188.275 73.3062 190.386C71.0151 191.612 68.6952 192.782 66.404 193.994C63.1677 195.72 59.9458 197.474 56.6952 199.171C56.3495 199.349 55.8848 199.32 55.4497 199.338C55.2954 199.344 55.1488 199.261 55.0901 199.118C55.0326 198.978 55.0642 198.816 55.1713 198.709C55.5351 198.346 55.8882 197.966 56.2942 197.659C57.6689 196.675 59.0579 195.705 60.4756 194.778C64.6427 192.069 68.7955 189.33 73.0341 186.72C75.7692 185.037 78.5616 183.412 81.4685 182.057C85.7931 180.031 90.261 178.291 94.6428 176.366C97.3923 175.154 100.07 173.785 102.819 172.587C108.419 170.134 114.061 167.795 119.66 165.341C123.626 163.602 127.478 161.576 131.531 160.05C136.829 158.039 142.285 156.456 147.641 154.559C149.488 153.903 151.206 152.848 152.982 151.978ZM29.516 58.0462C29.516 58.0473 29.5157 58.0485 29.5152 58.0494C28.7279 59.418 27.9979 60.6726 27.2965 61.9414C26.8239 62.7829 26.5948 63.5388 27.6831 64.1664C29.8024 65.3929 31.8788 66.705 33.9981 67.9315C37.5495 69.9853 41.0865 72.0533 44.7094 73.9786C48.6474 76.0752 52.7286 77.915 56.6379 80.04C61.836 82.8639 66.9482 85.8447 72.1033 88.7542C73.4208 89.4958 74.8241 90.0805 76.0986 90.8792C76.1477 90.9102 76.1952 90.9437 76.2415 90.9794C76.9505 91.5261 76.3846 93.1541 75.5544 92.8189C71.731 91.2358 67.9363 89.5386 64.1558 87.8699C62.8957 87.3137 61.6069 86.7717 60.3897 86.13C57.7262 84.7323 55.1199 83.2347 52.4565 81.8228C49.4636 80.2254 46.4278 78.6994 43.4349 77.0878C40.1986 75.3336 36.991 73.508 33.769 71.7253C32.164 70.8332 30.5554 69.9447 28.9324 69.0491C26.0865 67.4786 22.2247 67.9042 20.1863 70.4361C20.1036 70.5388 20.0226 70.6425 19.9437 70.7473C18.3219 72.9003 20.1872 75.4033 22.7427 76.2606C23.1007 76.3747 23.3871 76.6742 23.7308 76.8026C27.2678 78.1289 30.8048 79.4268 34.3418 80.7246C38.1652 82.1366 42.003 83.5057 45.8264 84.9319C48.2321 85.8305 50.6378 86.7432 53.0006 87.7416C55.8932 88.9539 58.7286 90.323 61.6498 91.4925C64.4565 92.6192 67.3778 93.4464 70.1415 94.6301C74.194 96.3844 78.1606 98.3097 82.1272 100.235C82.7179 100.523 83.2173 101.014 83.7364 101.459C83.9105 101.609 83.9821 101.848 83.9027 102.063C83.8218 102.283 83.6013 102.417 83.3677 102.406C82.4851 102.361 81.5789 102.391 80.7812 102.118C78.0318 101.176 75.3683 100.035 72.6332 99.0228C68.595 97.5396 64.4852 96.2132 60.5043 94.6016C55.6498 92.6335 50.9099 90.3943 46.0841 88.3691C39.6115 85.645 33.096 83.0065 26.6091 80.311C25.306 79.769 23.9742 79.2556 22.7427 78.571C20.6198 77.4081 17.9761 78.4265 17.4152 80.7812C16.9833 82.5943 18.0129 84.4456 19.788 85.0138C20.7959 85.3365 21.8222 85.6816 22.8287 86.0729C26.9814 87.6702 31.0769 89.3817 35.201 91.0503C39.6831 92.8616 44.151 94.7157 48.6474 96.4985C51.1391 97.4826 53.6164 98.5094 56.1796 99.2653C62.3658 101.091 68.6236 102.66 74.7812 104.542C80.6953 106.354 86.4948 108.464 92.3803 110.375C97.1337 111.918 101.976 113.195 106.466 115.773C106.84 115.988 106.873 116.749 106.442 116.722C104.695 116.522 102.934 116.408 101.244 115.98C98.2801 115.225 95.3445 114.326 92.4519 113.356C88.1989 111.944 83.9602 110.475 79.7502 108.949C75.3397 107.352 70.9864 105.598 66.5759 104.015C63.3969 102.874 60.1319 101.932 56.9243 100.863C55.8503 100.506 54.8765 99.85 53.7882 99.5648C51.54 98.9801 49.2059 98.6806 46.9863 98.0245C43.793 97.0832 40.6569 95.9708 37.5065 94.8868C33.6402 93.5605 29.7738 92.2341 25.9504 90.8221C24.1461 90.1518 22.4277 89.2961 20.6663 88.5117C20.2379 88.3192 19.8095 88.126 19.3793 87.9316C16.4897 86.6257 12.4902 86.571 11.7215 89.6474C11.5992 90.137 11.5343 90.6518 11.5221 91.1881C11.4693 93.5104 13.4375 95.195 15.6114 96.0135C19.0196 97.3114 22.399 98.7091 25.8358 99.9356C28.2559 100.806 30.7762 101.433 33.2249 102.246C36.991 103.487 40.7142 104.913 44.5089 106.054C49.75 107.609 55.0197 109.006 60.3181 110.39C64.3993 111.459 68.4804 112.458 72.6045 113.342C78.2179 114.554 83.8743 115.624 89.502 116.751C91.5498 117.164 93.5975 117.564 95.6452 117.977C100.6 118.975 105.555 119.945 110.495 121.001C113.173 121.571 115.808 122.327 118.471 122.926C122.61 123.839 126.748 124.737 130.915 125.55C136.228 126.591 141.569 127.533 146.896 128.488C147.072 128.523 147.258 128.493 147.478 128.44C147.783 128.366 147.915 127.843 147.612 127.761C142.543 126.577 137.445 125.45 132.39 124.238C127.364 123.04 122.337 121.885 117.368 120.487C115.507 119.956 113.802 118.863 112.029 117.996C111.895 117.93 111.837 117.766 111.896 117.629C111.945 117.514 112.07 117.456 112.191 117.486C122.533 120.051 132.889 122.601 143.23 125.165C134.151 121.799 125.001 118.833 115.879 115.767C107.348 112.899 98.9304 109.703 90.8287 105.565C90.0838 105.184 90.0078 103.855 90.8194 104.057C92.724 104.499 94.6572 104.942 96.4758 105.64C99.6262 106.853 102.662 108.379 105.827 109.534C109.765 110.975 113.803 112.158 117.784 113.485C118.629 113.77 119.402 114.226 120.247 114.483C123.956 115.61 127.679 116.694 131.388 117.778C132.104 117.985 132.336 117.36 131.632 117.115C131.161 116.951 130.688 116.792 130.213 116.637C126.562 115.439 122.839 114.397 119.244 113.071C115.149 111.559 111.154 109.834 107.13 108.151C105.769 107.58 104.466 106.91 103.135 106.282C100.987 105.27 98.7813 104.343 96.7049 103.216C94.3565 101.947 92.1082 100.463 89.8027 99.1085C88.8242 98.5347 87.7932 98.019 86.952 97.2013C86.2289 96.4983 86.9228 95.1385 87.8695 95.4859C89.3874 96.0706 90.8624 96.7552 92.3087 97.4968C94.4853 98.6235 96.5617 99.9642 98.7813 100.977C101.044 102.018 103.464 102.702 105.741 103.701C108.504 104.899 111.168 106.325 113.917 107.552C117.297 109.049 120.662 110.661 124.17 111.816C130.629 113.955 137.173 115.809 143.703 117.749C148.185 119.075 152.681 120.33 157.178 121.643C158.604 122.062 160.018 122.546 161.431 122.996C161.557 123.036 161.692 122.965 161.734 122.84C161.774 122.721 161.71 122.593 161.592 122.551C154.373 119.952 147.141 117.395 139.937 114.74C134.552 112.757 129.182 110.775 123.898 108.55C120.505 107.124 117.354 105.17 113.989 103.672C110.151 101.975 106.185 100.592 102.318 98.9516C97.8362 97.0547 93.397 95.058 88.9721 93.0471C84.8623 91.1787 80.638 89.4673 76.7143 87.2709C71.5449 84.3757 66.5759 81.1097 61.5783 77.915C59.3616 76.5026 57.2508 74.9188 55.1059 73.4044C54.9516 73.2955 54.881 73.1021 54.9362 72.9215C54.9907 72.7426 55.1589 72.6245 55.3456 72.6134C55.9443 72.5777 56.57 72.4724 57.0818 72.6666C58.5854 73.2228 60.0747 73.8788 61.478 74.6632C63.7692 75.9611 65.9458 77.4301 68.2083 78.7564C69.6833 79.6122 71.2441 80.2825 72.7334 81.1097C75.0246 82.379 77.2442 83.8195 79.5926 84.989C83.4733 86.9144 87.4256 88.7256 91.3636 90.5227C94.4996 91.9489 97.6787 93.3038 100.858 94.6444C107.244 97.3542 113.645 100.021 120.018 102.745C122.452 103.779 124.844 104.898 127.249 106.001C127.723 106.219 128.189 105.745 127.722 105.512C124.17 103.786 120.605 102.103 117.053 100.378C112.915 98.3811 108.762 96.4272 104.681 94.3164C99.44 91.6066 94.2562 88.7827 89.0724 85.9446C84.0175 83.1777 78.9482 80.4537 73.9936 77.5299C70.2131 75.3051 66.5759 72.8234 62.91 70.4131C60.6045 68.9014 58.3419 67.3325 56.0794 65.778C54.676 64.8224 53.2154 63.9239 51.898 62.8685C48.719 60.3014 45.5543 57.7199 42.4755 55.0386C40.9534 53.7089 39.6057 52.2055 38.1884 50.7599C38.0114 50.5792 37.993 50.2972 38.1522 50.1006C38.3038 49.9133 38.5652 49.8492 38.7883 49.9404C39.2285 50.1203 39.6834 50.2877 40.0268 50.5746C41.559 51.8582 42.9481 53.3129 44.5233 54.5395C47.1438 56.5504 49.8646 58.4187 52.5424 60.3584C55.1773 62.2695 57.6975 64.3233 60.4326 66.0775C63.898 68.2881 67.521 70.2563 71.058 72.3385C75.4542 74.92 79.7788 77.6155 84.2466 80.0543C88.2848 82.2649 92.4949 84.1761 96.6047 86.2583C100.414 88.198 104.18 90.2374 108.003 92.1486C111.512 93.8885 115.092 95.4716 118.6 97.1973C123.254 99.4935 127.822 101.975 132.505 104.214C136.342 106.054 140.338 107.594 144.19 109.406C146.632 110.545 149.023 111.78 151.415 113.015C152.152 113.396 152.62 112.761 151.879 112.386C145.178 109.049 138.462 105.769 131.731 102.474C125.044 99.194 118.271 96.0706 111.669 92.6335C103.621 88.4262 95.6596 84.0762 87.7836 79.5551C83.6595 77.1876 79.7931 74.378 75.8695 71.6825C73.12 69.7856 70.4566 67.7746 67.7787 65.778C64.3993 63.2678 60.9768 60.8148 57.6975 58.1763C54.5758 55.6662 51.583 52.9992 48.6044 50.3036C46.614 48.5066 44.6521 46.6525 42.9051 44.6416C42.0316 43.6433 41.5877 43.4721 40.4851 44.2708C37.2917 46.5527 34.6569 49.3481 32.3514 52.4857C31.3489 53.852 31.8922 55.7951 33.3679 56.6279C34.4209 57.2222 35.4282 57.7955 36.4182 58.3902C38.5519 59.6738 40.7142 60.9146 42.7189 62.3693C45.6688 64.5087 48.5328 66.7906 51.3682 69.0868C51.4054 69.1171 51.4374 69.1537 51.4651 69.1957C51.8901 69.8391 51.0764 71.0691 50.3658 70.7697C48.6187 70.0708 46.8717 69.372 45.2249 68.4592C42.7046 67.0616 40.213 65.5925 37.8215 63.9952C35.0039 62.1149 32.3149 60.0496 29.5262 58.041C29.522 58.0379 29.516 58.041 29.516 58.0462ZM150.004 164.6C150.019 164.592 150.024 164.573 150.015 164.559C149.95 164.458 149.889 164.361 149.827 164.264C149.733 164.115 149.54 164.064 149.384 164.147C148.447 164.644 147.517 165.157 146.552 165.598C144.304 166.639 142.013 167.566 139.793 168.665C133.98 171.546 128.223 174.526 122.409 177.421C118.629 179.304 114.777 181.03 111.025 182.955C107.76 184.624 104.581 186.492 101.345 188.232C98.6954 189.658 95.9603 190.899 93.3827 192.439C89.8027 194.564 86.3087 196.846 82.8146 199.128C78.533 201.924 74.28 204.733 70.0699 207.629C66.0174 210.41 61.9076 213.119 58.0699 216.186C53.3013 220.008 48.7762 224.13 44.1795 228.166C43.4492 228.808 43.0053 229.72 44.2512 230.277C44.6458 230.456 45.0429 230.63 45.4402 230.8C48.2732 232.014 51.1076 230.586 53.3443 228.465C56.4804 225.456 59.731 222.547 63.0961 219.808C67.6212 216.114 72.2752 212.577 76.9434 209.055C77.3987 208.709 78.1347 208.712 78.8075 208.639C79.0318 208.614 79.2508 208.735 79.3289 208.947C79.3919 209.118 79.3566 209.311 79.2329 209.445C72.2849 216.963 64.4474 223.486 56.4556 230.026C54.4544 231.664 54.8976 234.836 57.2726 235.858C58.4747 236.376 59.6897 236.898 60.9177 237.424C61.4678 237.66 61.7398 237.152 62.1081 236.68C63.984 234.099 65.7596 231.403 67.8933 229.05C70.9291 225.713 74.2227 222.604 77.4303 219.438C79.8504 217.041 82.2418 214.617 84.8194 212.392C87.8695 209.739 91.0772 207.258 94.2705 204.776C98.323 201.624 102.361 198.458 106.543 195.463C110.022 192.981 113.703 190.771 117.268 188.403C121.75 185.437 126.218 182.427 130.686 179.447C131.301 179.038 131.939 178.676 132.569 178.297C132.693 178.223 132.736 178.063 132.663 177.937C132.59 177.809 132.429 177.76 132.296 177.824C131.842 178.043 131.383 178.238 130.944 178.505C128.753 179.846 126.605 181.286 124.371 182.57C121.765 184.082 119.058 185.437 116.423 186.906C111.583 189.616 106.772 192.354 101.96 195.106C99.8266 196.333 97.693 197.574 95.588 198.843C93.1106 200.326 90.6906 201.895 88.1989 203.364C87.1679 203.963 86.0652 204.477 84.934 204.847C84.4328 205.004 83.7454 204.79 83.2156 204.562C83.101 204.519 83.1296 203.521 83.3874 203.293C84.7191 202.138 86.0652 200.968 87.5545 200.027C90.8337 197.93 94.2132 195.962 97.5354 193.923C100.414 192.168 103.192 190.243 106.142 188.631C111.325 185.836 116.652 183.297 121.836 180.516C125.688 178.448 129.397 176.095 133.206 173.942C136.772 171.931 140.395 170.034 143.975 168.066C146.008 166.953 147.999 165.755 150.004 164.6ZM130.273 58.6487C130.272 58.6478 130.272 58.6463 130.273 58.6457C130.392 58.5767 130.503 58.5078 130.618 58.4388C130.713 58.3816 130.773 58.2791 130.786 58.169C130.803 58.0369 130.821 57.9081 130.772 57.8198C128.882 54.4111 126.834 51.088 125.101 47.6081C123.096 43.5577 121.364 39.3789 119.531 35.2571C118.156 32.1908 116.652 29.1815 115.478 26.0439C114.018 22.1503 112.815 18.1569 111.555 14.2063C111.283 13.3791 110.853 12.3951 111.068 11.6392C111.712 9.20034 110.065 9.10053 108.547 9.05773C107.588 9.02922 106.6 9.45708 105.626 9.69956C104.481 9.98478 104.481 10.6978 104.953 11.5821C106.643 14.7483 108.018 18.0143 108.633 21.6083C108.958 23.4912 106.575 22.6862 105.646 21.0166C104.404 18.7848 103.165 16.5589 101.933 14.3417C101.202 13.0254 99.8423 12.1799 98.3382 12.1068C96.7009 12.0271 95.0097 11.9445 93.2713 11.8611C92.3688 11.8178 91.8913 12.684 92.0939 13.5646C92.3355 14.6364 90.9681 15.9321 90.0882 15.2739C90.0333 15.2328 89.9854 15.1863 89.9459 15.1334C87.9434 12.5378 84.8258 10.9501 81.7301 12.029C81.533 12.0977 81.3359 12.1674 81.1392 12.2382C80.1511 12.5948 80.0365 13.3506 80.6953 14.2063C82.5855 16.6879 84.3469 19.2836 86.3516 21.6654C90.218 26.2578 94.1416 30.8074 98.1655 35.2714C102.748 40.3487 107.516 45.2406 112.084 50.3322C116.824 55.6091 121.392 61.0145 126.089 66.3199C126.645 66.9377 127.399 67.3812 128.088 67.8812C128.214 67.9724 128.389 67.956 128.492 67.8401C128.586 67.7355 128.593 67.5798 128.512 67.4651C128.139 66.9354 127.797 66.3742 127.364 65.8921C124.786 62.9684 122.137 60.1017 119.602 57.1352C117.096 54.1972 114.734 51.1594 112.271 48.1929C110.767 46.3673 109.12 44.6701 107.703 42.7875C106.314 40.9335 105.125 38.9368 103.922 36.9543C100.8 31.8057 97.7073 26.6429 94.6285 21.4657C94.619 21.45 94.6104 21.4337 94.6025 21.417C94.3809 20.944 95.1749 20.2414 95.545 20.61C96.2324 21.2946 96.8767 22.0505 97.4495 22.8349C98.9102 24.8031 100.314 26.7997 101.76 28.7822C103.765 31.5205 105.726 34.2873 107.803 36.9686C109.063 38.5945 110.524 40.0634 111.812 41.6608C114.691 45.2263 117.526 48.8489 120.376 52.443C121.622 54.0118 122.867 55.5806 124.142 57.1352C125.627 58.9429 127.152 60.7113 128.665 62.4907C128.772 62.6159 128.956 62.6398 129.091 62.5458C129.205 62.4662 129.254 62.3219 129.222 62.1867C129.137 61.8349 129.084 61.4669 128.896 61.1856C127.435 59.032 125.903 56.907 124.443 54.7534C122.123 51.3305 119.66 48.0074 117.583 44.4419C115.263 40.4628 113.244 36.2983 111.24 32.148C110.588 30.7841 110.295 29.248 109.866 27.7796C109.812 27.5937 109.923 27.3949 110.107 27.3348C110.254 27.2865 110.409 27.347 110.493 27.478C117.087 37.8674 123.681 48.2569 130.276 58.6463C130.277 58.6483 130.274 58.6504 130.273 58.6487ZM95.0489 252.055C95.0514 252.055 95.0522 252.052 95.0501 252.05C94.7845 251.901 94.519 251.742 94.2534 251.589C94.1484 251.528 94.1027 251.401 94.1447 251.287C94.631 249.973 94.9512 248.559 95.6739 247.391C98.2801 243.241 100.987 239.162 103.736 235.112C106.07 231.689 108.476 228.294 110.982 224.985C112.614 222.832 114.505 220.864 116.266 218.81C119.703 214.831 123.154 210.866 126.562 206.858C126.712 206.682 126.854 206.501 126.991 206.316C127.492 205.64 126.845 204.812 126.275 205.432C123.283 208.727 120.347 212.064 117.368 215.373C113.13 220.051 108.862 224.7 104.638 229.392C100.457 234.028 96.218 238.591 92.1941 243.355C88.2705 248.004 84.6189 252.896 80.8098 257.631C80.0222 258.601 80.1798 259.314 81.2251 259.699C84.4904 260.882 87.9188 259.29 89.9883 256.501C90.0405 256.43 90.0932 256.36 90.1464 256.291C90.1998 256.222 90.2801 256.173 90.3799 256.14C91.3176 255.828 92.4921 256.951 92.2228 257.902C91.9173 258.94 92.5547 260.024 93.635 259.965C95.2596 259.876 96.8616 259.791 98.4023 259.709C99.8576 259.632 101.169 258.807 101.866 257.528C103.436 254.647 104.962 251.842 106.571 249.074C107.049 248.228 108.884 249.174 108.59 250.101C107.516 253.453 106.299 256.747 105.197 260.084C105.025 260.612 105.039 261.696 105.268 261.782C106.471 262.252 107.774 262.652 109.049 262.723C109.65 262.751 110.652 262.067 110.839 261.496C111.683 258.758 112.17 255.92 113.044 253.196C114.361 249.131 115.851 245.124 117.34 241.13C117.927 239.561 118.729 238.078 119.431 236.538C121.235 232.544 122.968 228.522 124.872 224.572C126.236 221.736 127.752 218.97 129.232 216.19C129.495 215.696 129.05 215.306 128.738 215.772C125.302 220.764 121.865 225.741 118.471 230.776C117.569 232.117 116.824 233.586 116.065 235.026C114.862 237.308 113.76 239.661 112.5 241.915C111.989 242.832 111.262 243.621 110.582 244.439C110.408 244.648 110.111 244.699 109.885 244.549C109.684 244.415 109.585 244.162 109.658 243.932C113.181 232.795 119.654 223.256 126.136 213.703C126.575 213.057 126.049 212.637 125.545 213.234C123.497 215.658 121.335 217.997 119.359 220.479C116.695 223.802 114.189 227.253 111.569 230.605C108.476 234.555 105.311 238.449 102.247 242.428C101.173 243.811 100.399 245.423 99.3398 246.821C97.9804 248.616 96.478 250.312 95.047 252.051C95.0457 252.053 95.0469 252.055 95.0489 252.055ZM145.529 130.554C145.558 130.547 145.579 130.521 145.58 130.491C145.58 130.487 145.58 130.484 145.58 130.48C145.583 130.43 145.548 130.379 145.498 130.372C144.126 130.177 142.74 129.982 141.369 129.8C139.135 129.501 136.872 129.315 134.667 128.888C131.216 128.217 127.822 127.29 124.371 126.62C121.464 126.049 118.514 125.779 115.607 125.18C113.602 124.766 111.684 123.882 109.679 123.454C104.38 122.327 99.0533 121.357 93.7264 120.302C91.3779 119.831 89.0581 119.289 86.6953 118.861C85.0342 118.562 83.3301 118.548 81.6833 118.22C78.7048 117.621 75.7692 116.879 72.805 116.237C69.0819 115.438 65.33 114.797 61.6355 113.87C58.2703 113.028 54.9911 111.887 51.6545 110.932C47.7023 109.805 43.7214 108.792 39.7834 107.623C36.7476 106.724 33.7547 105.669 30.7332 104.685C27.8406 103.744 24.905 102.931 22.084 101.818C19.8328 100.927 17.6188 99.9309 15.4298 98.9354C13.6192 98.1121 11.5002 99.0711 10.8918 100.965C10.3498 102.652 11.2219 104.456 12.8713 105.103C16.6332 106.578 20.3867 108.079 24.2034 109.391C30.1461 111.445 36.1318 113.399 42.1748 115.125C48.3037 116.865 54.5042 118.434 60.7333 119.746C67.6928 121.215 74.7239 122.356 81.7406 123.525C86.5951 124.338 91.4782 124.937 96.3469 125.65C100.972 126.32 105.583 127.019 110.194 127.704C113.015 128.117 115.822 128.602 118.657 128.93C122.223 129.344 125.789 129.701 129.354 129.986C132.748 130.243 136.142 130.414 139.536 130.542C141.523 130.613 143.526 130.556 145.513 130.556C145.519 130.556 145.524 130.556 145.529 130.554ZM145.922 141.395C143.961 141.395 141.927 141.353 139.894 141.395C136.629 141.481 133.364 141.481 130.128 141.781C125.559 142.194 121.02 142.807 116.481 143.364C111.512 143.977 106.543 144.562 101.588 145.289C97.65 145.859 93.7407 146.644 89.817 147.286C85.65 147.97 81.4829 148.598 77.3158 149.268C71.8599 150.152 66.3897 150.937 60.9768 152.006C57.0102 152.791 53.1152 153.903 49.2202 154.973C42.676 156.784 36.0889 158.481 29.6306 160.606C24.0084 162.457 18.4878 164.611 12.9917 166.685C11.2774 167.332 10.3562 169.166 10.9321 170.905C11.5691 172.83 13.7467 173.796 15.575 172.921C16.819 172.325 18.0736 171.75 19.3632 171.26C23.201 169.805 27.1246 168.536 31.0196 167.224C32.8096 166.625 34.6139 166.083 36.4039 165.498C39.3538 164.529 42.275 163.487 45.2393 162.589C48.8765 161.491 52.5424 160.492 56.2226 159.508C60.3324 158.41 64.4279 157.198 68.595 156.356C74.9387 155.073 81.354 154.132 87.7263 152.948C91.1631 152.306 94.5426 151.393 97.9794 150.694C102.018 149.867 106.185 149.482 110.08 148.241C114.848 146.715 119.674 145.831 124.586 145.232C124.958 145.189 125.316 145.075 125.688 144.99C129.054 144.248 132.419 143.421 135.813 142.807C138.447 142.323 141.139 142.094 143.803 141.738C144.551 141.639 145.285 141.499 145.923 141.4C145.925 141.399 145.925 141.395 145.922 141.395ZM142.203 175.767C142.213 175.767 142.219 175.756 142.213 175.747C142.158 175.674 142.103 175.595 142.044 175.518C141.995 175.455 141.907 175.445 141.842 175.491C137.212 178.759 132.596 182.04 127.951 185.28C122.681 188.945 117.354 192.525 112.099 196.176C108.948 198.372 105.884 200.654 102.762 202.894C99.5975 205.161 96.2896 207.258 93.2681 209.697C88.9292 213.191 84.7621 216.927 80.5521 220.593C79.7072 221.32 78.9626 222.176 78.175 222.975C75.2108 225.941 72.1893 228.865 69.311 231.917C67.8438 233.475 66.4568 235.114 65.0314 236.8C63.9269 238.107 63.9828 239.977 65.3091 241.057C66.6046 242.113 68.571 241.979 69.5006 240.59C70.4234 239.211 71.4109 237.885 72.9904 237.129C73.1138 237.07 73.2593 237.086 73.368 237.169C73.5326 237.295 73.5739 237.53 73.4594 237.703C72.4616 239.21 71.4707 240.693 70.6724 241.892C70.0488 242.828 70.1157 244.061 70.832 244.929C71.4078 245.627 71.9533 246.288 72.4915 246.94C72.9165 247.455 73.7355 247.352 74.0222 246.749C74.638 245.48 75.0962 244.097 75.8981 242.956C77.7883 240.274 79.7501 237.622 81.8551 235.112C84.4184 232.059 87.0819 229.064 89.86 226.198C93.1106 222.86 96.3899 219.523 99.9269 216.485C106.113 211.18 112.485 206.088 118.8 200.925C123.469 197.117 128.151 193.338 132.82 189.544C133.775 188.764 134.718 187.985 135.66 187.205C135.786 187.101 135.811 186.921 135.716 186.788C135.618 186.651 135.427 186.609 135.285 186.7C133.192 188.054 131.075 189.373 129.011 190.771C126.018 192.796 123.068 194.907 120.104 196.961C116.695 199.328 113.173 201.567 109.894 204.092C106.256 206.901 102.777 209.91 99.3254 212.934C95.5879 216.186 91.9077 219.509 88.2848 222.889C85.5068 225.485 82.8862 228.237 80.1654 230.876C79.7021 231.324 79.1 231.658 78.5462 232.021C78.4352 232.094 78.288 232.087 78.1818 232.008C78.0628 231.918 78.0189 231.76 78.0764 231.623C78.6191 230.325 78.9868 228.872 79.8504 227.824C82.1988 224.957 84.7048 222.204 87.2824 219.552C90.3182 216.442 93.4829 213.462 96.6333 210.481C99.4257 207.842 102.175 205.118 105.168 202.708C108.376 200.112 111.827 197.816 115.206 195.434C120.705 191.555 126.29 187.776 131.746 183.825C135.31 181.245 138.717 178.464 142.196 175.77C142.198 175.768 142.201 175.767 142.203 175.767ZM116.724 134.878C116.705 134.878 116.687 134.872 116.672 134.861C116.22 134.546 116.135 134.436 116.051 134.436C108.204 134.564 100.5 133.195 92.7669 132.154C89.0295 131.654 85.3063 131.055 81.5831 130.556C76.8719 129.915 72.1463 129.444 67.4637 128.688C63.225 128.018 59.0293 127.048 54.8049 126.249C52.213 125.764 49.5925 125.422 47.0006 124.923C44.7237 124.481 42.4898 123.853 40.2273 123.44C37.8788 123.012 35.5017 122.841 33.1676 122.37C30.0172 121.742 26.8812 120.986 23.7594 120.216C20.5947 119.432 17.3871 118.719 14.3083 117.678C12.81 117.171 11.3486 116.564 9.87537 115.924C7.73396 114.993 4.9677 117.052 6.91925 118.334C9.74026 120.202 12.6615 122.142 15.8405 123.211C21.4969 125.108 27.3394 126.449 33.1246 127.904C37.6354 129.03 42.2034 129.957 46.7428 131.013C50.6092 131.897 54.4469 132.867 58.3276 133.708C59.7739 134.022 61.2918 134.336 62.7524 134.307C68.1081 134.179 73.4494 133.708 78.8051 133.708C84.5044 133.708 90.218 134.122 95.9173 134.35C100.843 134.535 105.769 134.735 110.695 134.878C112.586 134.935 114.462 134.878 116.724 134.878ZM105.487 137.938C105.485 137.933 105.48 137.93 105.474 137.929C103.599 137.815 101.269 137.545 98.9388 137.559C94.156 137.559 89.3731 137.73 84.5903 137.801C81.4542 137.844 78.3182 137.83 75.1821 137.858C71.6881 137.887 68.2084 138.044 64.7143 137.958C62.194 137.901 59.6164 136.917 57.2536 138.614C56.9672 138.828 56.5377 138.871 56.1653 138.942C53.688 139.427 51.2106 139.827 48.7476 140.369C44.6951 141.253 40.6569 142.208 36.6187 143.164C31.2917 144.419 25.979 145.688 20.6807 147.029C19.2916 147.386 17.9169 147.927 16.6281 148.555C13.3775 150.138 10.1126 151.721 6.97654 153.49C4.73365 154.751 7.48942 156.893 9.90972 156.019C12.3519 155.137 14.7821 154.268 17.2296 153.461C19.6783 152.662 22.1986 152.063 24.7046 151.436C28.1843 150.566 31.664 149.625 35.1867 148.954C38.1795 148.37 41.2726 148.241 44.2655 147.671C48.8765 146.801 53.4302 145.674 58.0412 144.761C60.5043 144.262 63.0102 143.934 65.5162 143.578C70.8289 142.836 76.1559 142.109 81.4829 141.41C83.86 141.096 86.2657 140.953 88.6285 140.597C91.9507 140.083 95.2586 139.399 98.5808 138.871C101.02 138.473 103.488 138.217 105.475 137.961C105.486 137.96 105.492 137.948 105.487 137.938ZM5.47193 111.874C5.47256 111.873 5.47345 111.873 5.47434 111.873C6.87684 112.001 7.72141 111.959 8.48011 112.187C11.43 113.071 14.3369 114.112 17.3012 114.939C22.3274 116.366 27.3967 117.692 32.4516 119.004C33.8836 119.375 35.4015 119.446 36.8478 119.76C38.6234 120.131 40.3705 120.687 42.1462 121.029C49.1772 122.413 56.2083 123.768 63.2536 125.065C69.2823 126.178 75.3253 127.162 81.3683 128.217C82.5998 128.431 83.817 128.745 85.0628 128.916C87.6691 129.258 90.3039 129.444 92.8958 129.843C95.8028 130.3 98.6667 131.127 101.588 131.426C105.469 131.826 109.392 131.84 113.302 132.068C117.053 132.282 120.791 132.624 124.543 132.781C124.839 132.792 125.135 132.796 125.433 132.795C126.192 132.793 126.287 131.579 125.531 131.512C122.595 131.255 119.631 131.326 116.71 131.041C111.755 130.556 106.815 129.929 101.889 129.287C97.9364 128.774 94.0128 128.16 90.0748 127.504C89.0151 127.333 88.0127 126.748 86.9531 126.577C83.9316 126.121 80.8957 125.821 77.8742 125.393C73.2776 124.723 68.6522 124.181 64.0985 123.254C58.8002 122.17 53.5448 120.872 48.3467 119.418C41.96 117.621 35.6306 115.624 29.3012 113.599C26.1938 112.6 23.1723 111.331 20.1078 110.19C16.5255 108.859 12.9431 107.54 9.27922 106.187C8.83237 106.022 8.33301 106.219 8.11857 106.644C7.34967 108.169 6.44507 109.947 5.46718 111.87C5.46563 111.873 5.46953 111.876 5.47193 111.874ZM8.70518 166.354C8.70784 166.354 8.71047 166.353 8.71283 166.352C10.7305 165.312 12.5625 164.143 14.5374 163.388C18.8907 161.747 23.3155 160.321 27.7117 158.795C30.0172 157.997 32.2941 157.127 34.6139 156.399C38.0793 155.315 41.5733 154.345 45.0388 153.319C47.3872 152.62 49.7071 151.821 52.0842 151.194C53.9028 150.709 55.7787 150.423 57.6259 150.053C61.2632 149.325 64.9004 148.541 68.552 147.885C71.7167 147.314 74.91 146.915 78.0747 146.344C81.6261 145.717 85.1487 144.847 88.7144 144.333C94.2132 143.521 99.755 142.922 105.283 142.237C110.409 141.609 115.536 140.953 120.662 140.383C123.534 140.063 126.42 139.906 129.294 139.688C129.425 139.678 129.526 139.568 129.526 139.437C129.526 139.298 129.413 139.185 129.274 139.184C127.568 139.177 125.863 139.104 124.17 139.199C119.774 139.456 115.392 139.912 110.996 140.055C105.97 140.226 101.001 140.697 96.0605 141.581C91.3779 142.422 86.6666 143.135 81.9554 143.849C78.533 144.362 75.0819 144.661 71.6881 145.246C66.3038 146.173 60.9482 147.271 55.5782 148.298C52.2274 148.94 48.8908 149.553 45.54 150.209C43.5638 150.594 41.6163 151.079 39.6402 151.464C37.664 151.85 35.6593 152.092 33.6974 152.52C31.3776 153.019 29.0721 153.604 26.7666 154.217C22.8716 155.272 18.9766 156.342 15.1102 157.469C13.3791 157.971 11.6619 158.505 9.88522 159.063C7.69115 159.753 6.63426 162.251 7.66672 164.307C8.00541 164.981 8.34859 165.664 8.69028 166.345C8.69311 166.351 8.69888 166.354 8.70518 166.354ZM124.471 70.6141C124.471 70.617 124.475 70.6178 124.476 70.6152C124.513 70.529 124.55 70.4423 124.588 70.3461C124.595 70.3258 124.592 70.3029 124.579 70.2856C123.756 69.2243 122.974 68.1083 122.08 67.1044C118.944 63.5959 115.707 60.173 112.6 56.636C108.476 51.9723 104.466 47.1945 100.328 42.5308C96.3756 38.0811 92.3374 33.7169 88.3421 29.3099C86.5808 27.356 84.7335 25.4734 83.1583 23.3769C82.4754 22.47 81.8191 21.5443 81.1745 20.6061C78.9837 17.4173 75.3843 17.1993 74.3372 20.9238C74.1368 21.6369 75.2108 22.8206 75.8838 23.6478C78.2179 26.543 80.5378 29.4525 83.0151 32.2193C85.4209 34.9006 87.9984 37.425 90.4901 40.035C92.5522 42.2028 94.5283 44.4562 96.6763 46.5384C99.2538 49.0486 101.975 51.4161 104.652 53.8549C107.788 56.7073 110.896 59.6025 114.089 62.3979C115.693 63.7956 117.469 64.9936 119.144 66.3199C120.934 67.7316 122.695 69.1861 124.47 70.612C124.471 70.6125 124.471 70.6133 124.471 70.6141ZM123.898 202.109C123.44 202.28 123.096 202.323 122.896 202.494C119.402 205.432 115.908 208.37 112.442 211.351C109.693 213.718 107.001 216.129 104.309 218.568C102.419 220.279 100.586 222.076 98.7097 223.802C96.5617 225.77 94.2705 227.595 92.2514 229.692C89.0724 232.972 86.0223 236.395 83.0151 239.832C80.1082 243.155 77.3158 246.592 74.4804 249.987C74.3372 250.158 74.2084 250.5 74.2656 250.686C75.5955 254.414 78.851 254.403 81.3235 251.312C81.4991 251.092 81.6762 250.874 81.8551 250.657C86.0366 245.551 90.1893 240.446 94.4996 235.454C98.2514 231.104 102.232 226.954 106.027 222.646C111.977 215.894 117.842 209.085 123.906 202.119C123.911 202.114 123.905 202.106 123.898 202.109ZM120.605 5.4752C120.605 5.47349 120.607 5.47319 120.608 5.47483C122.941 14.5417 124.845 23.5231 127.593 32.2479C130.324 40.9287 133.879 49.3588 137.086 57.8961C137.151 58.0705 137.334 58.1655 137.512 58.1097C137.683 58.0559 137.8 57.8865 137.778 57.7086C137.409 54.802 137.099 51.883 136.629 48.9773C136.213 46.4529 135.469 43.9713 135.111 41.4469C134.481 37.0114 134.137 32.5474 133.507 28.1261C132.863 23.5337 132.218 18.9128 131.216 14.3917C130.586 11.5678 129.555 8.80103 127.135 6.79008C124.759 4.82275 122.368 4.2804 120.607 5.47639C120.606 5.47703 120.605 5.47636 120.605 5.4752ZM120.734 266.604C120.734 266.603 120.735 266.602 120.736 266.603C121.151 266.717 121.708 266.902 122.28 267.03C124.858 267.615 128.38 264.32 129.34 262.48C131.302 258.73 131.903 254.622 132.447 250.472C133.006 246.236 133.822 242.043 134.423 237.821C134.781 235.268 134.81 232.673 135.211 230.134C135.827 226.283 136.7 222.475 137.33 218.625C137.517 217.48 137.38 216.273 137.361 215.086C137.359 214.934 137.26 214.801 137.114 214.762C136.937 214.714 136.751 214.808 136.688 214.979C133.581 223.361 130.124 231.635 127.493 240.16C124.83 248.771 122.998 257.624 120.737 266.605C120.736 266.606 120.734 266.606 120.734 266.604ZM113.471 9.79934C113.472 9.79934 113.474 9.80035 113.474 9.80179C117.692 27.602 125.296 44.1423 134.543 60.0143C134.817 60.484 135.377 60.2692 135.154 59.7737C134.008 57.2635 132.633 54.8532 131.674 52.2861C129.426 46.2104 127.349 40.0635 125.244 33.9308C124.7 32.3477 124.242 30.7218 123.784 29.1102C123.096 26.6999 122.366 24.2896 121.75 21.8508C120.92 18.485 120.118 15.1048 119.431 11.7105C119.218 10.6614 119.125 9.59459 119.039 8.50614C118.972 7.65208 118.048 7.16864 117.304 7.59396C115.997 8.34131 114.726 9.07101 113.469 9.79345C113.467 9.79507 113.468 9.79934 113.471 9.79934ZM135.989 210.139C135.986 210.139 135.983 210.138 135.981 210.136C135.953 210.12 135.926 210.104 135.899 210.089C135.719 209.987 135.481 210.048 135.378 210.227C126.224 226.084 118.376 242.497 114.068 260.208C113.791 261.345 114.409 262.58 115.423 263.162C117.007 264.071 118.886 263.08 119.206 261.282C119.456 259.878 119.724 258.478 120.061 257.089C121.263 252.098 122.466 247.092 123.927 242.171C125.116 238.164 126.619 234.256 128.051 230.334C129.855 225.385 131.688 220.45 133.579 215.53C134.277 213.697 135.189 211.95 136.003 210.161C136.008 210.15 136 210.139 135.989 210.139ZM161.245 157.887C161.245 157.89 161.241 157.891 161.24 157.888C161.151 157.735 161.055 157.581 160.963 157.428C160.921 157.357 160.828 157.334 160.758 157.378C158.308 158.907 155.857 160.449 153.406 161.978C153.221 162.094 153.167 162.341 153.281 162.527C153.391 162.705 153.625 162.755 153.802 162.642C156.285 161.057 158.756 159.471 161.241 157.885C161.242 157.884 161.245 157.885 161.245 157.887ZM137.715 87.213C139.085 88.3025 139.597 87.8838 138.178 86.8586C137.712 86.5213 137.268 86.1572 136.88 85.7288C136.745 85.5795 136.506 85.5736 136.373 85.7246C136.253 85.8596 136.273 86.0659 136.414 86.1781C136.848 86.5231 137.281 86.8681 137.715 87.213Z" fill="#9C3C33"/>
</svg>
