<svg width="65" height="28" viewBox="0 0 65 28" fill="none" xmlns="http://www.w3.org/2000/svg">
<path d="M0.0200465 26.4201C2.04639 25.3966 4.04381 24.3298 6.0991 23.364C8.61755 22.1819 11.165 21.0864 13.6979 19.9475C16.8677 18.5348 20.023 17.0788 23.2217 15.7382C26.8112 14.239 30.4442 12.8695 34.0482 11.4424C38.1732 9.79905 42.2983 8.14127 46.4234 6.48349C49.8392 5.09961 53.2116 3.62924 56.6419 2.33185C59.0301 1.4381 61.4907 0.717315 63.9512 0.0253731C64.7649 -0.212962 65.3684 1.28581 64.737 1.85169C64.6773 1.90519 64.6135 1.9506 64.5447 1.98588C62.417 3.06704 60.188 4.00404 58.0025 4.98429C54.0222 6.77181 50.0563 8.63141 46.0325 10.3036C41.6614 12.1199 37.2035 13.7633 32.789 15.5076C30.256 16.5022 27.781 17.6267 25.2336 18.5492C23.048 19.3565 20.7467 19.8466 18.5611 20.6827C14.7111 22.1675 10.9189 23.8253 7.0978 25.3822C5.46225 26.0453 3.81224 26.7084 2.13327 27.2273C1.65385 27.3825 1.09503 27.251 0.555434 27.1849C0.356946 27.1605 0.185852 27.0262 0.126625 26.8352C0.087601 26.7094 0.0468702 26.5852 0.00240669 26.4648C-0.0039547 26.4476 0.00360996 26.4283 0.0200465 26.4201Z" fill="#9C3C33"/>
</svg>
