<svg width="215" height="272" viewBox="0 0 215 272" fill="none" xmlns="http://www.w3.org/2000/svg">
<path d="M56.9303 136.72C56.9269 136.719 56.9247 136.716 56.9249 136.712C56.9428 136.389 56.9552 136.077 56.969 135.758C56.9834 135.427 56.779 135.089 56.452 135.035C55.2777 134.921 54.0892 134.821 52.9149 134.721C50.9817 134.565 49.0485 134.507 47.1297 134.251C43.879 133.823 40.6427 133.309 37.4207 132.739C33.1534 131.969 28.9004 131.142 24.6474 130.272C22.8144 129.901 20.9528 129.53 19.1771 128.917C14.6664 127.362 10.0983 125.893 5.7737 123.925C3.68299 122.969 1.85001 121.415 0.962175 118.762C-0.856457 113.328 0.20324 108.508 2.95267 103.787C4.11259 101.804 5.43002 99.8363 6.1317 97.6827C6.69018 95.9712 6.53264 94.003 6.47537 92.149C6.37513 88.9115 7.54938 86.4584 10.2988 84.6613C11.6449 83.7913 13.0912 82.8358 13.9504 81.5664C14.738 80.4112 15.3108 78.6855 15.096 77.3591C14.1795 71.6115 16.3991 67.1902 20.7094 63.7958C23.1724 61.8419 24.2894 59.1892 25.7787 56.679C27.4111 53.9122 29.0149 51.1168 30.762 48.4355C32.0508 46.4673 33.3969 44.4849 35.0007 42.7735C37.5497 40.0351 40.5712 37.8387 44.0652 36.3269C48.8767 34.2589 53.7742 32.3193 58.3995 29.8947C60.6048 28.7395 62.2802 26.6002 64.1847 24.8888C65.3017 23.8761 66.3041 22.7352 67.507 21.8224C69.0249 20.6529 70.0559 19.2409 70.5715 17.4011C71.5452 13.964 73.7505 11.6535 76.9438 9.99907C79.4068 8.71547 81.6264 6.88995 84.5477 6.88995C87.0394 6.88995 89.574 6.96125 92.0227 7.37486C95.3879 7.93107 98.6815 7.91678 101.545 6.10551C104.252 4.39406 106.987 3.85207 110.023 4.57943C112.486 5.17847 114.376 4.2372 116.295 2.78245C120.534 -0.426516 123.842 -0.925707 128.639 1.62721C135.126 5.09291 137.861 10.755 138.419 17.8575C138.749 22.0506 139.665 26.2009 140.209 30.3797C140.639 33.6742 140.839 37.0116 141.212 40.3061C141.598 43.8004 142.042 47.2803 142.501 50.7602C142.93 53.9122 143.36 57.0784 143.918 60.2161C144.219 61.9275 144.749 63.6105 145.25 65.2791C146.052 67.9604 146.925 70.6417 147.77 73.3087C149.059 77.4019 150.205 81.538 151.651 85.5599C153.169 89.7958 154.987 93.9175 156.634 98.1105C158.797 103.601 162.434 108.08 166.515 112.23C169.494 115.254 172.529 118.249 175.766 121.001C180.993 125.465 187.021 128.703 193.651 130.429C198.864 131.783 204.277 132.382 209.618 133.224C210.578 133.367 211.637 132.71 212.625 132.896C214.759 133.309 215.26 133.452 214.888 135.392C214.845 135.634 214.802 135.877 214.816 136.133C214.831 136.847 215.103 138.073 214.888 138.173C213.871 138.587 212.74 138.758 211.637 138.872C210.649 138.972 209.647 138.8 208.659 138.915C206.439 139.157 204.162 139.243 202.014 139.827C197.188 141.139 192.234 141.724 187.508 143.721C182.138 145.989 177.799 149.511 173.36 152.977C167.918 157.227 163.365 162.404 159.613 168.109C157.135 171.889 155.603 176.338 153.913 180.588C152.081 185.209 150.462 189.916 148.916 194.651C147.828 197.974 147.069 201.397 146.109 204.763C145.651 206.374 144.921 207.915 144.577 209.555C143.861 212.906 143.317 216.287 142.715 219.652C142.329 221.863 141.913 224.074 141.613 226.313C141.398 227.91 141.355 229.536 141.183 231.148C140.596 236.582 140.037 242.001 139.364 247.421C138.921 251.001 138.362 254.566 137.761 258.132C136.744 264.136 133.078 268.186 127.794 270.811C123.799 272.793 119.918 272.037 116.481 269.356C114.562 267.858 112.787 266.846 110.123 267.402C107.044 268.044 104.051 267.545 101.202 265.762C98.2519 263.922 94.9869 264.079 91.5215 264.721C87.4833 265.462 83.2589 265.776 79.4641 263.337C78.2899 262.581 77.0154 262.025 75.8268 261.298C73.2636 259.743 71.3161 257.661 70.7289 254.623C70.2134 251.956 68.0081 250.587 66.3327 248.833C64.5284 246.95 62.6096 245.125 60.5045 243.584C58.6143 242.187 56.4806 241.06 54.3469 240.047C49.9077 237.937 45.1678 236.353 40.9721 233.858C37.7931 231.975 34.8288 229.351 32.552 226.441C29.8025 222.933 27.5973 218.925 25.6784 214.889C24.0316 211.423 21.6545 208.671 18.8478 206.303C15.3107 203.337 14.7953 199.457 14.9957 195.364C15.1389 192.298 14.3513 189.916 11.6878 188.233C10.5279 187.506 9.35364 186.693 8.46581 185.666C7.00517 184.011 6.26056 182.029 6.51832 179.733C7.01951 175.34 5.20087 171.632 2.96696 168.052C-0.484151 162.561 -1.09989 156.828 2.0505 151.066C2.80946 149.668 4.52784 148.47 6.06007 147.871C11.7451 145.675 17.4588 143.521 23.3013 141.824C27.4541 140.612 31.8217 140.127 36.1177 139.385C40.1702 138.686 44.2227 137.973 48.3039 137.431C51.0843 137.062 53.9073 136.961 56.9283 136.735C56.9369 136.735 56.9384 136.723 56.9303 136.72ZM62.2659 33.717C63.3112 34.1734 64.6286 34.3588 65.3446 35.1147C68.8674 38.8656 72.118 42.8875 75.698 46.5814C78.3042 49.2627 81.2828 51.5732 84.0895 54.0548C87.2542 56.8359 90.3187 59.7169 93.6122 62.3411C97.3927 65.3504 101.316 68.2028 105.283 70.9697C111.97 75.6477 118.772 80.1831 125.488 84.8325C129.899 87.8846 134.238 91.0508 138.634 94.1457C138.876 94.3197 139.119 93.9794 138.897 93.7798C136.309 91.4437 133.603 89.3136 130.815 87.2856C128.309 85.4743 125.66 83.8769 123.111 82.1369C120.691 80.4825 118.314 78.7426 115.908 77.0454C114.534 76.0756 113.116 75.1628 111.77 74.1502C108.748 71.8397 105.713 69.5435 102.763 67.1332C100.887 65.6071 99.1254 63.9242 97.3641 62.2555C95.6743 60.6439 94.0275 59.0038 92.4237 57.3066C89.1158 53.8123 85.7792 50.3324 82.6145 46.7098C81.2398 45.141 80.2517 43.2441 79.1061 41.4898C78.8711 41.122 79.2979 40.6138 79.7014 40.7804C79.8119 40.826 79.9154 40.8803 80.0083 40.9479C80.4522 41.2616 80.7243 41.8179 81.1395 42.1887C86.6241 47.266 92.037 52.4432 97.6361 57.3779C102.691 61.8277 107.889 66.1206 113.173 70.2994C115.78 72.3531 118.758 73.922 121.493 75.7903C125.589 78.5857 129.627 81.4524 133.708 84.2763C133.863 84.382 134.028 84.4683 134.2 84.545C134.693 84.7653 135.32 84.287 134.911 83.934C131.961 81.4952 128.997 79.0849 126.061 76.6461C123.183 74.25 120.376 71.7827 117.469 69.4151C113.803 66.4344 110.037 63.5962 106.386 60.6011C103.049 57.8628 99.7984 55.0104 96.5335 52.1865C94.901 50.7745 93.2113 49.4196 91.765 47.8365C88.4427 44.2425 85.2494 40.5343 82.0131 36.8547C80.982 35.6852 79.908 34.5299 79.0488 33.2463C77.4593 30.8931 75.9987 28.4543 74.5237 26.0155C73.7461 24.732 72.0445 24.4081 71.0062 25.4917C70.8313 25.6741 70.657 25.8561 70.4826 26.038C69.619 26.9389 69.4769 28.3123 70.1419 29.3683C70.9795 30.6983 71.8425 32.0664 72.7075 33.4373C72.8271 33.6269 72.7794 33.8766 72.5984 34.0088C72.4169 34.1415 72.1635 34.1102 72.0196 33.9375C71.3826 33.1725 70.7455 32.4077 70.1084 31.644C68.7881 30.0614 66.4116 29.911 64.8997 31.3117C64.2718 31.8935 63.6464 32.4736 63.023 33.0532C62.5404 33.502 61.9932 33.8672 61.3924 34.1381C57.1522 36.0497 56.3595 41.7434 59.9396 44.7126C66.2082 49.9116 72.3042 55.2098 77.7623 61.2733C78.4976 62.0902 77.906 63.6068 77.0011 62.9829C74.1371 60.9577 71.3161 58.8897 68.581 56.7076C64.9723 53.8266 61.4353 50.8743 57.9413 47.865C55.7647 45.9933 53.5881 44.0981 51.8901 41.691C50.8783 40.2567 49.1507 39.4669 47.5374 40.1588C45.4586 41.0503 44.7183 43.8471 46.2807 45.4828C46.87 46.0997 47.4621 46.6827 48.0891 47.2232C52.156 50.7175 56.1942 54.2687 60.5045 57.4492C66.032 61.5281 71.803 65.3076 77.488 69.1727C80.4522 71.1836 83.4594 73.1518 86.5095 75.0201C90.4618 77.4447 94.4571 79.8265 98.481 82.1227C101.173 83.663 103.951 85.0464 106.715 86.4584C111.24 88.7688 115.765 91.0793 120.319 93.347C124.271 95.3152 128.267 97.1978 132.219 99.1517C136.458 101.248 140.696 103.359 144.892 105.555C148.415 107.395 151.894 109.306 155.36 111.232C157.181 112.249 158.936 113.372 160.715 114.448C160.829 114.517 160.977 114.487 161.056 114.38C161.138 114.27 161.12 114.115 161.016 114.025C160.288 113.389 159.615 112.661 158.797 112.187C155.99 110.561 153.112 109.078 150.276 107.495C146.267 105.242 142.3 102.945 138.29 100.692C133.307 97.8966 128.324 95.1012 123.312 92.3486C120.72 90.9224 118.056 89.6531 115.45 88.2269C112.672 86.7151 109.966 85.0892 107.202 83.5489C104.796 82.2083 102.304 81.0245 99.956 79.5983C97.5073 78.1008 95.2161 76.3465 92.8103 74.7634C89.932 72.8523 86.9821 71.041 84.1324 69.1014C83.3863 68.5834 84.2559 67.1358 85.1575 67.2454C85.3164 67.2647 85.4634 67.3049 85.5931 67.3757C89.3449 69.4009 92.9822 71.583 96.691 73.6795C101.173 76.2182 105.727 78.657 110.195 81.2384C117.97 85.731 125.703 90.3092 133.465 94.8303C133.742 94.9936 133.949 94.6061 133.685 94.4224C133.249 94.1201 132.795 93.873 132.376 93.5752C128.61 90.9938 124.916 88.3125 121.107 85.8023C117.025 83.121 112.815 80.6251 108.72 77.9866C107.316 77.0881 106.056 75.9472 104.71 74.9631C102.233 73.1518 99.6696 71.4689 97.2638 69.572C93.7125 66.7624 90.2184 63.8956 86.8103 60.9149C82.7291 57.3493 78.6765 53.7411 74.8101 49.9473C71.3161 46.5101 68.0082 42.8733 64.8005 39.1651C63.5031 37.6599 61.7514 36.1547 62.2308 33.7345C62.234 33.7187 62.2514 33.7098 62.2659 33.717ZM152.983 151.979C153.03 151.95 153.081 151.928 153.135 151.913C155.888 151.14 158.641 150.366 161.394 149.579C161.578 149.527 161.682 149.331 161.623 149.148C161.565 148.971 161.374 148.876 161.197 148.935C159.67 149.452 158.131 149.949 156.606 150.495C155.75 150.81 154.908 151.168 154.071 151.523C153.405 151.805 152.666 151.654 151.966 151.836C147.584 153.034 143.174 154.132 138.863 155.53C132.047 157.741 125.245 159.994 118.558 162.533C112.758 164.743 107.116 167.396 101.402 169.835C100.257 170.32 99.0252 170.662 97.9082 171.204C94.4428 172.873 91.006 174.641 87.5405 176.31C87.2917 176.428 86.9202 176.311 86.5619 176.222C86.3589 176.171 86.1872 176.021 86.1287 175.82C86.0715 175.624 86.1397 175.414 86.2998 175.287C93.0871 169.904 101.018 166.512 108.92 163.189C116.999 159.779 125.273 156.814 133.246 153.745C133.437 153.671 133.519 153.551 133.321 153.605C128.066 155.216 122.782 156.728 117.569 158.482C112.815 160.094 108.176 161.991 103.464 163.716C100.128 164.943 96.7769 166.169 93.3974 167.296C91.2841 168.013 91.247 165.88 93.2762 164.951C100.792 161.51 108.383 158.623 116.066 156.001C123.538 153.434 131.086 151.059 138.617 148.656C139.244 148.456 139.089 147.808 138.448 147.957C134.009 148.998 129.57 150.068 125.145 151.166C122.08 151.922 119.044 152.777 115.966 153.505C115.66 153.581 115.28 153.342 114.907 153.142C114.706 153.034 114.571 152.823 114.584 152.595C114.597 152.364 114.758 152.168 114.982 152.111C125.074 149.55 135.178 146.977 145.272 144.413C145.852 144.266 145.796 143.848 145.207 143.949C141.283 144.619 137.345 145.204 133.436 145.96C128.983 146.83 124.558 147.9 120.104 148.827C115.994 149.682 111.87 150.481 107.76 151.323C98.1087 153.305 88.4714 155.33 78.8054 157.284C74.9677 158.069 71.0583 158.568 67.2492 159.48C63.4687 160.393 59.7742 161.663 56.0367 162.761C54.7049 163.146 53.3589 163.474 52.0271 163.845C49.3493 164.572 46.6571 165.242 44.0079 166.055C41.3731 166.868 38.7955 167.881 36.1749 168.708C32.9959 169.706 29.7453 170.462 26.6092 171.575C23.2086 172.786 19.8354 174.099 16.5319 175.387C13.7429 176.474 11.0627 178.788 11.605 181.732C11.6931 182.211 11.8344 182.669 12.0314 183.105C13.1588 185.602 16.403 185.145 18.8908 183.997C20.9672 183.027 23.0865 182.172 25.2345 181.387C30.2608 179.547 35.3301 177.779 40.3564 175.953C43.5354 174.798 46.8719 174.213 50.0796 173.072C56.0081 170.976 62.1084 169.321 67.9795 167.011C70.9581 165.841 74.0369 164.9 77.0584 163.859C80.2517 162.747 83.4164 161.563 86.6384 160.55C89.6456 159.595 92.6957 158.782 95.7459 157.969C98.5956 157.213 101.46 156.543 104.324 155.829C104.639 155.758 104.939 155.63 105.254 155.558C105.884 155.414 106.515 155.289 107.145 155.151C107.334 155.109 107.521 155.229 107.561 155.419C107.593 155.576 107.515 155.735 107.37 155.806C105.782 156.581 104.237 157.499 102.562 158.069C97.0204 159.98 91.3783 161.606 85.8651 163.602C80.6527 165.485 75.4975 167.453 70.0273 168.451C69.1108 168.623 68.2086 168.865 67.3208 169.15C63.5117 170.348 59.7026 171.561 55.9078 172.801C52.872 173.785 49.7789 174.67 46.829 175.868C42.1034 177.793 37.521 180.061 32.7954 181.958C28.1844 183.797 23.4445 185.338 18.7619 187.006C17.5557 187.449 16.8702 188.736 17.0958 190C17.4873 192.196 17.8538 194.305 18.3179 196.391C18.6616 197.974 18.9767 199.7 19.8502 200.983C20.1193 201.373 20.4114 201.748 20.719 202.111C22.6686 204.413 26.0328 204.286 28.6713 202.823C30.9195 201.568 33.3682 200.67 35.6165 199.414C41.7167 196.02 47.6738 192.355 53.8457 189.089C58.5283 186.607 63.4401 184.582 68.2373 182.343C70.2994 181.373 72.3041 180.289 74.3948 179.39C75.1648 179.064 76.0459 178.992 76.8912 178.852C77.0952 178.819 77.3013 178.91 77.4061 179.088C77.5209 179.283 77.4896 179.531 77.3345 179.696C76.922 180.134 76.5279 180.593 76.056 180.945C75.4688 181.387 74.7529 181.644 74.1371 182.029C72.3185 183.156 70.5714 184.425 68.6812 185.438C63.1967 188.361 57.6405 191.157 52.1416 194.052C45.7693 197.404 39.3969 200.784 33.0532 204.192C31.3205 205.119 29.688 206.217 27.9696 207.159C26.8527 207.772 26.6951 208.571 27.2249 209.612C28.3794 211.868 31.2374 212.577 33.3173 211.129C34.4822 210.318 35.6467 209.519 36.8337 208.742C39.669 206.888 42.533 205.091 45.4399 203.365C46.786 202.566 48.218 201.868 49.6787 201.311C50.5982 200.955 51.3035 202.436 50.9136 203.342C50.8938 203.388 50.8736 203.434 50.8529 203.479C50.7669 203.679 50.4662 203.779 50.2657 203.921C47.2872 205.989 44.323 208.1 41.3158 210.14C39.1964 211.58 37.0341 212.978 34.8432 214.318C32.6389 215.666 31.6423 218.386 33.1714 220.469C34.7294 222.59 36.5406 224.417 38.533 226.1C40.2977 227.591 42.6969 227.009 44.3946 225.443C46.8576 223.161 49.4352 221.022 51.9412 218.797C54.0605 216.928 56.0367 214.889 58.2563 213.149C62.495 209.812 66.8196 206.588 71.1729 203.408C73.5643 201.654 76.056 200.056 78.519 198.402C83.0441 195.378 87.3974 192.055 92.1373 189.417C99.0681 185.537 106.271 182.129 113.374 178.563C121.823 174.327 130.314 170.149 138.792 165.97C142.873 163.959 146.968 162.005 151.035 159.965C151.519 159.724 151.216 159.113 150.715 159.318C149.42 159.848 148.154 160.43 146.882 161.007C144.276 162.205 141.656 163.417 139.049 164.615C136.672 165.699 134.252 166.726 131.932 167.895C129.527 169.107 127.25 170.576 124.844 171.746C121.751 173.258 118.529 174.484 115.45 176.025C109.608 178.948 103.837 182.015 98.0085 184.995C93.8986 187.092 89.7745 189.16 85.6503 191.228C84.8628 191.627 84.0465 191.941 83.2875 192.383C81.2398 193.567 79.2207 194.822 77.1586 196.006C73.908 197.874 70.6001 199.671 67.3638 201.582C65.5308 202.652 63.7838 203.85 62.0224 205.034C59.6453 206.617 57.2682 208.228 54.9197 209.869C52.5712 211.509 50.2514 213.177 47.9602 214.889C46.5712 215.93 45.2681 217.1 43.8934 218.155C42.4502 219.254 40.966 220.312 39.3625 221.477C38.9682 221.763 38.0349 221.394 38.3802 221.05C39.5974 219.652 40.7573 218.183 42.132 216.971C43.7215 215.573 45.5545 214.447 47.2299 213.135C49.3206 211.466 51.2968 209.64 53.4305 208.043C56.5952 205.704 59.8315 203.436 63.0964 201.254C66.8339 198.758 70.643 196.334 74.4521 193.938C75.9844 192.968 77.6169 192.141 79.2064 191.257C81.34 190.073 83.4737 188.875 85.6217 187.72C88.0418 186.422 90.5191 185.209 92.9249 183.897C95.3736 182.557 97.722 181.031 100.214 179.761C102.949 178.364 105.841 177.237 108.577 175.839C111.97 174.113 115.221 172.117 118.629 170.42C121.393 169.036 124.3 167.952 127.121 166.697C127.474 166.542 127.229 166.045 126.863 166.165C125.69 166.551 124.597 167.055 123.498 167.553C120.348 168.993 117.226 170.477 114.047 171.86C110.71 173.315 107.316 174.641 103.951 176.053C101.402 177.123 98.8676 178.278 96.3187 179.348C92.5812 180.931 88.7578 182.328 85.1062 184.083C81.0966 186.022 77.2445 188.276 73.3066 190.387C71.0154 191.613 68.6955 192.783 66.4043 193.995C63.168 195.721 59.946 197.475 56.6954 199.172C56.3498 199.35 55.8851 199.321 55.45 199.339C55.2957 199.345 55.149 199.262 55.0904 199.119C55.0329 198.979 55.0644 198.817 55.1716 198.71C55.5354 198.347 55.8885 197.967 56.2945 197.66C57.6692 196.676 59.0582 195.706 60.4759 194.779C64.643 192.069 68.7958 189.331 73.0345 186.721C75.7696 185.038 78.562 183.412 81.4689 182.057C85.7935 180.032 90.2614 178.292 94.6433 176.367C97.3927 175.155 100.071 173.785 102.82 172.587C108.419 170.134 114.061 167.795 119.66 165.342C123.627 163.602 127.479 161.577 131.531 160.051C136.83 158.04 142.286 156.457 147.641 154.56C149.489 153.904 151.207 152.849 152.983 151.979ZM29.5162 58.0465C29.5162 58.0476 29.5159 58.0487 29.5153 58.0497C28.728 59.4183 27.998 60.6729 27.2966 61.9417C26.824 62.7832 26.5949 63.5391 27.6832 64.1667C29.8026 65.3932 31.8789 66.7053 33.9983 67.9319C37.5496 69.9856 41.0867 72.0536 44.7096 73.979C48.6476 76.0755 52.7288 77.9153 56.6381 80.0404C61.8363 82.8643 66.9485 85.8451 72.1037 88.7546C73.4211 89.4962 74.8245 90.0809 76.0989 90.8796C76.148 90.9106 76.1956 90.9441 76.2419 90.9798C76.9508 91.5265 76.3849 93.1545 75.5548 92.8193C71.7313 91.2362 67.9366 89.539 64.1561 87.8703C62.8959 87.3141 61.6071 86.7721 60.39 86.1304C57.7264 84.7327 55.1202 83.2351 52.4567 81.8232C49.4638 80.2258 46.428 78.6998 43.4351 77.0882C40.1988 75.3339 36.9912 73.5083 33.7692 71.7256C32.1641 70.8335 30.5555 69.9451 28.9326 69.0494C26.0867 67.4789 22.2248 67.9045 20.1863 70.4364C20.1037 70.5391 20.0227 70.6428 19.9438 70.7476C18.322 72.9006 20.1873 75.4036 22.7428 76.2609C23.1008 76.375 23.3872 76.6745 23.7309 76.8029C27.2679 78.1293 30.8049 79.4271 34.342 80.725C38.1654 82.1369 42.0032 83.5061 45.8266 84.9323C48.2323 85.8308 50.6381 86.7436 53.0009 87.742C55.8935 88.9543 58.7288 90.3234 61.6501 91.4929C64.4568 92.6196 67.3781 93.4468 70.1418 94.6306C74.1944 96.3848 78.161 98.3102 82.1276 100.236C82.7183 100.524 83.2177 101.014 83.7368 101.46C83.9109 101.609 83.9825 101.849 83.9031 102.064C83.8222 102.283 83.6017 102.418 83.368 102.406C82.4855 102.362 81.5793 102.391 80.7815 102.118C78.0321 101.177 75.3686 100.036 72.6335 99.0233C68.5953 97.54 64.4855 96.2137 60.5045 94.6021C55.6501 92.6339 50.9102 90.3947 46.0843 88.3695C39.6117 85.6454 33.0961 83.0069 26.6092 80.3114C25.3061 79.7694 23.9743 79.256 22.7428 78.5714C20.6199 77.4085 17.9761 78.4269 17.4152 80.7816C16.9834 82.5947 18.013 84.446 19.7881 85.0142C20.796 85.3369 21.8223 85.6819 22.8288 86.0733C26.9815 87.6706 31.077 89.3821 35.2012 91.0508C39.6833 92.862 44.1512 94.7161 48.6476 96.4989C51.1393 97.483 53.6166 98.5099 56.1799 99.2658C62.3661 101.091 68.6239 102.66 74.7815 104.543C80.6957 106.354 86.4952 108.465 92.3807 110.376C97.1342 111.918 101.976 113.196 106.467 115.774C106.841 115.989 106.874 116.749 106.443 116.723C104.696 116.523 102.935 116.409 101.245 115.981C98.2805 115.225 95.345 114.327 92.4523 113.357C88.1993 111.945 83.9606 110.476 79.7505 108.95C75.34 107.352 70.9867 105.598 66.5762 104.015C63.3971 102.874 60.1322 101.933 56.9245 100.863C55.8506 100.507 54.8768 99.8505 53.7885 99.5653C51.5402 98.9805 49.2061 98.681 46.9865 98.025C43.7932 97.0837 40.6571 95.9712 37.5067 94.8873C33.6403 93.5609 29.7739 92.2345 25.9505 90.8226C24.1462 90.1522 22.4278 89.2965 20.6664 88.5121C20.238 88.3196 19.8096 88.1264 19.3793 87.932C16.4898 86.6261 12.4902 86.5714 11.7216 89.6478C11.5993 90.1374 11.5344 90.6523 11.5222 91.1885C11.4693 93.5108 13.4376 95.1955 15.6115 96.014C19.0196 97.3118 22.3991 98.7095 25.8359 99.9361C28.256 100.806 30.7763 101.434 33.225 102.247C36.9912 103.487 40.7143 104.914 44.5091 106.055C49.7502 107.609 55.02 109.007 60.3184 110.39C64.3995 111.46 68.4807 112.458 72.6049 113.342C78.2183 114.555 83.8747 115.624 89.5024 116.751C91.5502 117.165 93.5979 117.564 95.6456 117.978C100.6 118.976 105.555 119.946 110.495 121.001C113.173 121.572 115.808 122.328 118.472 122.927C122.61 123.839 126.749 124.738 130.916 125.551C136.228 126.592 141.57 127.533 146.897 128.489C147.072 128.524 147.258 128.494 147.478 128.44C147.783 128.366 147.916 127.844 147.613 127.762C142.543 126.578 137.446 125.451 132.391 124.239C127.364 123.041 122.338 121.886 117.369 120.488C115.507 119.956 113.803 118.864 112.03 117.996C111.895 117.93 111.837 117.767 111.896 117.629C111.946 117.515 112.071 117.457 112.192 117.487C122.533 120.051 132.889 122.601 143.231 125.166C134.152 121.8 125.002 118.833 115.88 115.767C107.348 112.899 98.9309 109.704 90.8291 105.565C90.0843 105.185 90.0082 103.856 90.8198 104.058C92.7244 104.5 94.6576 104.942 96.4762 105.641C99.6266 106.853 102.662 108.379 105.827 109.535C109.765 110.975 113.803 112.159 117.784 113.485C118.629 113.77 119.402 114.227 120.247 114.483C123.956 115.61 127.679 116.694 131.388 117.778C132.104 117.986 132.336 117.361 131.632 117.115C131.161 116.951 130.688 116.792 130.214 116.637C126.562 115.439 122.839 114.398 119.245 113.072C115.149 111.56 111.154 109.834 107.13 108.151C105.77 107.581 104.467 106.91 103.135 106.283C100.987 105.27 98.7817 104.343 96.7054 103.216C94.3569 101.947 92.1086 100.464 89.8031 99.1089C88.8246 98.5351 87.7936 98.0195 86.9524 97.2017C86.2293 96.4987 86.9232 95.1389 87.8699 95.4863C89.3878 96.0711 90.8628 96.7556 92.3091 97.4973C94.4858 98.624 96.5621 99.9646 98.7817 100.977C101.044 102.018 103.464 102.703 105.741 103.701C108.505 104.899 111.168 106.326 113.918 107.552C117.297 109.05 120.663 110.661 124.171 111.816C130.629 113.956 137.173 115.81 143.703 117.749C148.186 119.076 152.682 120.331 157.178 121.643C158.605 122.063 160.019 122.546 161.432 122.997C161.558 123.037 161.693 122.966 161.735 122.841C161.775 122.721 161.711 122.594 161.592 122.551C154.374 119.953 147.141 117.396 139.937 114.74C134.553 112.758 129.183 110.775 123.899 108.55C120.505 107.124 117.355 105.17 113.989 103.673C110.152 101.976 106.185 100.592 102.319 98.952C97.8366 97.0551 93.3974 95.0585 88.9725 93.0475C84.8627 91.1792 80.6383 89.4677 76.7147 87.2713C71.5452 84.3761 66.5762 81.1101 61.5785 77.9153C59.3618 76.5029 57.251 74.9191 55.1062 73.4048C54.9519 73.2959 54.8813 73.1024 54.9364 72.9218C54.991 72.7429 55.1592 72.6249 55.3458 72.6137C55.9445 72.578 56.5703 72.4727 57.082 72.6669C58.5856 73.2231 60.0749 73.8792 61.4783 74.6636C63.7695 75.9614 65.9461 77.4304 68.2086 78.7568C69.6836 79.6125 71.2445 80.2829 72.7337 81.1101C75.0249 82.3794 77.2445 83.8199 79.593 84.9894C83.4737 86.9148 87.426 88.726 91.364 90.5231C94.5001 91.9493 97.6791 93.3042 100.858 94.6449C107.245 97.3547 113.646 100.022 120.018 102.746C122.453 103.78 124.845 104.899 127.249 106.002C127.724 106.219 128.19 105.745 127.722 105.513C124.171 103.787 120.605 102.104 117.054 100.378C112.916 98.3815 108.763 96.4276 104.682 94.3168C99.4404 91.607 94.2566 88.7831 89.0728 85.9449C84.0179 83.1781 78.9486 80.454 73.9939 77.5303C70.2134 75.3054 66.5762 72.8238 62.9103 70.4135C60.6048 68.9017 58.3422 67.3328 56.0796 65.7783C54.6763 64.8227 53.2157 63.9242 51.8982 62.8688C48.7192 60.3016 45.5545 57.7201 42.4757 55.0389C40.9536 53.7091 39.6058 52.2058 38.1886 50.7601C38.0116 50.5795 37.9932 50.2974 38.1524 50.1009C38.304 49.9135 38.5654 49.8495 38.7884 49.9406C39.2287 50.1206 39.6836 50.2879 40.027 50.5748C41.5592 51.8584 42.9483 53.3132 44.5235 54.5397C47.144 56.5507 49.8648 58.419 52.5427 60.3587C55.1775 62.2698 57.6978 64.3235 60.4329 66.0778C63.8983 68.2884 67.5213 70.2566 71.0583 72.3389C75.4546 74.9203 79.7792 77.6158 84.247 80.0547C88.2852 82.2653 92.4953 84.1764 96.6051 86.2587C100.414 88.1984 104.18 90.2379 108.004 92.149C111.512 93.889 115.092 95.472 118.601 97.1977C123.254 99.494 127.823 101.976 132.505 104.215C136.343 106.055 140.338 107.595 144.19 109.406C146.632 110.546 149.024 111.78 151.416 113.016C152.153 113.396 152.621 112.761 151.88 112.387C145.178 109.05 138.462 105.769 131.732 102.475C125.045 99.1945 118.271 96.0711 111.67 92.6339C103.622 88.4266 95.66 84.0766 87.784 79.5555C83.6599 77.188 79.7935 74.3784 75.8698 71.6828C73.1204 69.7859 70.4569 67.775 67.7791 65.7783C64.3995 63.2681 60.9771 60.8151 57.6978 58.1766C54.576 55.6664 51.5832 52.9994 48.6047 50.3039C46.6142 48.5068 44.6523 46.6528 42.9053 44.6418C42.0318 43.6435 41.5879 43.4723 40.4852 44.271C37.2919 46.5529 34.657 49.3483 32.3515 52.486C31.3491 53.8522 31.8923 55.7953 33.3681 56.6282C34.421 57.2224 35.4283 57.7957 36.4184 58.3905C38.552 59.6741 40.7144 60.9149 42.7191 62.3696C45.6691 64.5089 48.5331 66.7909 51.3684 69.0871C51.4056 69.1174 51.4376 69.1541 51.4653 69.196C51.8903 69.8394 51.0766 71.0694 50.366 70.77C48.619 70.0712 46.8719 69.3723 45.2251 68.4595C42.7048 67.0619 40.2131 65.5928 37.8217 63.9955C35.0041 62.1152 32.3151 60.0499 29.5263 58.0413C29.5221 58.0382 29.5162 58.0412 29.5162 58.0465ZM150.004 164.601C150.019 164.593 150.025 164.574 150.015 164.559C149.951 164.459 149.89 164.362 149.828 164.265C149.734 164.115 149.541 164.065 149.385 164.147C148.448 164.645 147.518 165.157 146.553 165.599C144.305 166.64 142.014 167.567 139.794 168.665C133.98 171.546 128.224 174.527 122.41 177.422C118.629 179.305 114.777 181.031 111.025 182.956C107.76 184.625 104.581 186.493 101.345 188.233C98.6958 189.659 95.9607 190.9 93.3831 192.44C89.8031 194.565 86.3091 196.847 82.815 199.129C78.5333 201.925 74.2803 204.734 70.0702 207.629C66.0177 210.411 61.9079 213.12 58.0701 216.187C53.3016 220.009 48.7764 224.131 44.1797 228.167C43.4494 228.809 43.0055 229.722 44.2514 230.278C44.646 230.457 45.0431 230.631 45.4404 230.801C48.2734 232.015 51.1079 230.587 53.3446 228.466C56.4806 225.457 59.7312 222.548 63.0964 219.809C67.6215 216.115 72.2755 212.578 76.9438 209.056C77.3991 208.71 78.1351 208.713 78.8079 208.64C79.0322 208.615 79.2512 208.736 79.3292 208.948C79.3923 209.119 79.3569 209.312 79.2332 209.446C72.2852 216.964 64.4477 223.487 56.4558 230.027C54.4547 231.665 54.8978 234.837 57.2728 235.86C58.4749 236.377 59.69 236.899 60.918 237.425C61.4681 237.661 61.74 237.153 62.1084 236.681C63.9843 234.1 65.7599 231.404 67.8936 229.051C70.9294 225.714 74.223 222.605 77.4307 219.439C79.8507 217.042 82.2422 214.618 84.8198 212.393C87.8699 209.74 91.0776 207.259 94.2709 204.777C98.3235 201.625 102.362 198.459 106.543 195.464C110.023 192.982 113.703 190.772 117.269 188.404C121.751 185.438 126.219 182.428 130.687 179.447C131.301 179.039 131.939 178.677 132.569 178.298C132.694 178.223 132.736 178.064 132.664 177.938C132.591 177.81 132.43 177.761 132.297 177.825C131.843 178.044 131.383 178.239 130.944 178.506C128.753 179.847 126.605 181.287 124.371 182.571C121.765 184.083 119.059 185.438 116.424 186.907C111.584 189.616 106.772 192.355 101.961 195.107C99.8271 196.334 97.6934 197.575 95.5884 198.844C93.111 200.327 90.691 201.896 88.1993 203.365C87.1683 203.964 86.0656 204.478 84.9344 204.848C84.4332 205.005 83.7458 204.791 83.2159 204.563C83.1014 204.52 83.13 203.522 83.3878 203.294C84.7195 202.139 86.0656 200.969 87.5549 200.028C90.8341 197.931 94.2137 195.963 97.5359 193.924C100.414 192.169 103.192 190.244 106.142 188.632C111.326 185.837 116.653 183.298 121.837 180.517C125.689 178.449 129.398 176.096 133.207 173.942C136.773 171.931 140.395 170.034 143.975 168.066C146.009 166.954 147.999 165.756 150.004 164.601ZM130.273 58.649C130.272 58.6481 130.272 58.6466 130.274 58.6459C130.392 58.577 130.504 58.508 130.618 58.4391C130.713 58.3819 130.773 58.2793 130.787 58.1693C130.803 58.0371 130.822 57.9083 130.772 57.82C128.882 54.4114 126.835 51.0883 125.102 47.6083C123.097 43.5579 121.364 39.3791 119.531 35.2573C118.157 32.191 116.653 29.1817 115.479 26.044C114.018 22.1504 112.815 18.157 111.555 14.2064C111.283 13.3792 110.853 12.3951 111.068 11.6392C111.713 9.20038 110.066 9.10057 108.548 9.05777C107.589 9.02927 106.6 9.45712 105.627 9.6996C104.481 9.98482 104.481 10.6979 104.954 11.5821C106.643 14.7484 108.018 18.0144 108.634 21.6084C108.958 23.4914 106.575 22.6863 105.646 21.0167C104.405 18.7849 103.165 16.559 101.933 14.3418C101.202 13.0254 99.8428 12.18 98.3387 12.1068C96.7013 12.0272 95.0102 11.9446 93.2717 11.8612C92.3692 11.8179 91.8917 12.6841 92.0943 13.5646C92.3359 14.6365 90.9685 15.9322 90.0886 15.274C90.0337 15.2329 89.9858 15.1864 89.9463 15.1335C87.9438 12.5379 84.8262 10.9501 81.7305 12.0291C81.5333 12.0978 81.3362 12.1675 81.1395 12.2383C80.1515 12.5948 80.0369 13.3506 80.6956 14.2064C82.5859 16.688 84.3472 19.2837 86.352 21.6655C90.2184 26.2579 94.1421 30.8075 98.166 35.2716C102.748 40.3489 107.517 45.2408 112.085 50.3324C116.825 55.6094 121.393 61.0147 126.09 66.3202C126.646 66.938 127.399 67.3816 128.088 67.8815C128.214 67.9727 128.389 67.9564 128.493 67.8404C128.586 67.7358 128.594 67.5801 128.513 67.4654C128.14 66.9357 127.798 66.3745 127.364 65.8924C124.787 62.9687 122.138 60.1019 119.603 57.1354C117.097 54.1974 114.734 51.1596 112.271 48.1931C110.768 46.3675 109.121 44.6703 107.703 42.7877C106.314 40.9336 105.125 38.9369 103.923 36.9545C100.801 31.8059 97.7077 26.643 94.6289 21.4658C94.6194 21.4501 94.6108 21.4338 94.603 21.4171C94.3813 20.9441 95.1754 20.2415 95.5454 20.6101C96.2328 21.2947 96.8772 22.0506 97.45 22.835C98.9106 24.8032 100.314 26.7999 101.76 28.7823C103.765 31.5206 105.727 34.2875 107.803 36.9688C109.063 38.5947 110.524 40.0636 111.813 41.661C114.691 45.2265 117.527 48.8492 120.376 52.4432C121.622 54.012 122.868 55.5808 124.142 57.1354C125.627 58.9432 127.152 60.7116 128.666 62.4909C128.772 62.6162 128.957 62.6401 129.092 62.5461C129.206 62.4665 129.255 62.3222 129.222 62.1869C129.138 61.8352 129.085 61.4672 128.897 61.1859C127.436 59.0323 125.904 56.9073 124.443 54.7537C122.123 51.3308 119.66 48.0077 117.584 44.4421C115.264 40.463 113.245 36.2985 111.24 32.1482C110.589 30.7842 110.295 29.2482 109.867 27.7797C109.813 27.5939 109.923 27.3951 110.107 27.3349C110.255 27.2866 110.41 27.3471 110.493 27.4781C117.087 37.8676 123.682 48.2571 130.276 58.6466C130.277 58.6485 130.275 58.6506 130.273 58.649ZM95.0493 252.056C95.0518 252.056 95.0527 252.053 95.0505 252.052C94.7849 251.902 94.5194 251.743 94.2538 251.59C94.1489 251.53 94.1031 251.402 94.1451 251.288C94.6315 249.974 94.9517 248.56 95.6743 247.392C98.2805 243.242 100.987 239.163 103.736 235.113C106.071 231.69 108.476 228.295 110.982 224.986C112.615 222.833 114.505 220.865 116.266 218.811C119.703 214.832 123.154 210.867 126.562 206.859C126.712 206.683 126.855 206.502 126.992 206.317C127.493 205.641 126.845 204.813 126.276 205.433C123.283 208.728 120.348 212.065 117.369 215.374C113.13 220.052 108.863 224.701 104.639 229.393C100.457 234.029 96.2184 238.593 92.1945 243.356C88.2709 248.006 84.6193 252.897 80.8102 257.632C80.0226 258.602 80.1801 259.315 81.2255 259.701C84.4908 260.883 87.9192 259.291 89.9887 256.502C90.0409 256.431 90.0936 256.361 90.1468 256.292C90.2002 256.223 90.2805 256.174 90.3803 256.141C91.318 255.829 92.4925 256.953 92.2232 257.903C91.9178 258.941 92.5551 260.025 93.6354 259.966C95.26 259.877 96.862 259.792 98.4027 259.711C99.858 259.633 101.17 258.809 101.867 257.529C103.437 254.649 104.962 251.843 106.572 249.075C107.05 248.229 108.885 249.176 108.591 250.102C107.517 253.454 106.3 256.748 105.197 260.086C105.025 260.613 105.04 261.697 105.269 261.783C106.472 262.253 107.775 262.653 109.049 262.724C109.651 262.753 110.653 262.068 110.839 261.498C111.684 258.759 112.171 255.921 113.044 253.197C114.362 249.132 115.851 245.125 117.34 241.131C117.928 239.562 118.729 238.079 119.431 236.539C121.235 232.545 122.968 228.524 124.873 224.573C126.236 221.737 127.752 218.971 129.232 216.191C129.496 215.697 129.051 215.307 128.739 215.773C125.302 220.765 121.865 225.742 118.472 230.777C117.569 232.118 116.825 233.587 116.066 235.027C114.863 237.309 113.76 239.662 112.5 241.916C111.99 242.834 111.262 243.622 110.582 244.44C110.409 244.649 110.112 244.7 109.886 244.55C109.684 244.416 109.586 244.164 109.659 243.933C113.182 232.796 119.655 223.257 126.137 213.704C126.575 213.058 126.049 212.637 125.546 213.234C123.498 215.659 121.336 217.998 119.359 220.48C116.696 223.803 114.19 227.254 111.569 230.606C108.476 234.556 105.312 238.45 102.247 242.429C101.173 243.813 100.4 245.424 99.3402 246.822C97.9808 248.617 96.4785 250.313 95.0475 252.052C95.0462 252.054 95.0473 252.056 95.0493 252.056ZM145.53 130.555C145.559 130.548 145.579 130.522 145.581 130.492C145.581 130.488 145.581 130.484 145.581 130.48C145.584 130.431 145.548 130.379 145.499 130.372C144.126 130.177 142.741 129.982 141.369 129.801C139.135 129.502 136.873 129.316 134.667 128.888C131.216 128.218 127.823 127.291 124.371 126.621C121.465 126.05 118.515 125.779 115.608 125.18C113.603 124.766 111.684 123.882 109.679 123.454C104.381 122.328 99.0538 121.358 93.7268 120.302C91.3783 119.832 89.0585 119.29 86.6957 118.862C85.0346 118.562 83.3305 118.548 81.6837 118.22C78.7052 117.621 75.7696 116.879 72.8054 116.238C69.0822 115.439 65.3303 114.797 61.6358 113.87C58.2706 113.029 54.9913 111.888 51.6548 110.932C47.7025 109.805 43.7216 108.793 39.7836 107.623C36.7477 106.725 33.7549 105.669 30.7334 104.685C27.8407 103.744 24.9051 102.931 22.0841 101.819C19.8329 100.927 17.6189 99.9314 15.4298 98.9359C13.6193 98.1125 11.5002 99.0716 10.8918 100.965C10.3498 102.652 11.2219 104.456 12.8713 105.103C16.6333 106.579 20.3868 108.08 24.2035 109.392C30.1462 111.446 36.132 113.4 42.175 115.125C48.3039 116.865 54.5044 118.434 60.7336 119.746C67.6931 121.215 74.7242 122.356 81.741 123.526C86.5955 124.339 91.4786 124.938 96.3474 125.651C100.973 126.321 105.584 127.02 110.195 127.704C113.016 128.118 115.822 128.603 118.658 128.931C122.223 129.345 125.789 129.701 129.355 129.986C132.749 130.243 136.142 130.414 139.536 130.543C141.524 130.614 143.526 130.557 145.514 130.557C145.519 130.557 145.525 130.556 145.53 130.555ZM145.923 141.396C143.961 141.396 141.928 141.353 139.894 141.396C136.629 141.482 133.364 141.482 130.128 141.781C125.56 142.195 121.021 142.808 116.481 143.364C111.512 143.978 106.543 144.562 101.588 145.29C97.6505 145.86 93.7411 146.645 89.8175 147.286C85.6504 147.971 81.4832 148.598 77.3161 149.269C71.8602 150.153 66.39 150.937 60.9771 152.007C57.0104 152.792 53.1154 153.904 49.2204 154.974C42.6762 156.785 36.089 158.482 29.6307 160.607C24.0085 162.458 18.4878 164.612 12.9918 166.686C11.2774 167.333 10.3563 169.167 10.9321 170.906C11.5692 172.831 13.7468 173.797 15.5751 172.922C16.8191 172.326 18.0737 171.751 19.3633 171.261C23.2011 169.806 27.1247 168.537 31.0197 167.225C32.8097 166.626 34.614 166.084 36.404 165.499C39.3539 164.529 42.2752 163.488 45.2395 162.59C48.8767 161.491 52.5426 160.493 56.2228 159.509C60.3327 158.411 64.4282 157.199 68.5953 156.357C74.939 155.073 81.3543 154.132 87.7267 152.948C91.1635 152.307 94.543 151.394 97.9798 150.695C102.018 149.868 106.185 149.483 110.08 148.242C114.849 146.716 119.675 145.832 124.586 145.233C124.959 145.19 125.317 145.076 125.689 144.99C129.054 144.249 132.419 143.421 135.813 142.808C138.448 142.323 141.14 142.095 143.804 141.738C144.552 141.64 145.286 141.5 145.923 141.401C145.926 141.4 145.926 141.396 145.923 141.396ZM142.204 175.768C142.214 175.768 142.22 175.756 142.214 175.748C142.159 175.674 142.104 175.595 142.044 175.519C141.996 175.456 141.907 175.446 141.843 175.491C137.213 178.759 132.596 182.041 127.951 185.281C122.682 188.946 117.355 192.526 112.099 196.177C108.949 198.373 105.884 200.655 102.763 202.894C99.5979 205.162 96.29 207.259 93.2685 209.697C88.9296 213.192 84.7625 216.928 80.5524 220.594C79.7076 221.321 78.9629 222.177 78.1753 222.976C75.2111 225.942 72.1896 228.866 69.3113 231.918C67.8441 233.477 66.4571 235.115 65.0317 236.802C63.9272 238.108 63.9831 239.978 65.3094 241.059C66.6049 242.114 68.5713 241.98 69.5009 240.591C70.4238 239.212 71.4112 237.886 72.9907 237.13C73.1142 237.071 73.2596 237.087 73.3683 237.17C73.533 237.296 73.5743 237.531 73.4597 237.704C72.4619 239.211 71.471 240.694 70.6728 241.893C70.0491 242.829 70.116 244.062 70.8323 244.93C71.4082 245.628 71.9537 246.289 72.4918 246.941C72.9169 247.456 73.7358 247.353 74.0226 246.751C74.6383 245.481 75.0965 244.098 75.8985 242.957C77.7887 240.275 79.7505 237.623 81.8555 235.113C84.4188 232.061 87.0823 229.065 89.8604 226.199C93.111 222.861 96.3903 219.524 99.9273 216.486C106.114 211.181 112.486 206.089 118.801 200.926C123.469 197.118 128.152 193.339 132.82 189.545C133.776 188.765 134.719 187.986 135.661 187.206C135.787 187.102 135.812 186.922 135.717 186.789C135.619 186.652 135.427 186.61 135.286 186.701C133.192 188.055 131.075 189.374 129.011 190.772C126.018 192.797 123.068 194.908 120.104 196.961C116.696 199.329 113.173 201.568 109.894 204.092C106.257 206.902 102.777 209.911 99.3259 212.935C95.5884 216.187 91.9082 219.51 88.2852 222.89C85.5071 225.486 82.8866 228.238 80.1658 230.877C79.7025 231.325 79.1004 231.659 78.5466 232.022C78.4356 232.095 78.2884 232.088 78.1822 232.009C78.0632 231.919 78.0193 231.761 78.0767 231.624C78.6195 230.326 78.9872 228.873 79.8507 227.825C82.1992 224.958 84.7052 222.205 87.2828 219.553C90.3186 216.443 93.4833 213.463 96.6337 210.482C99.4261 207.843 102.176 205.119 105.168 202.709C108.376 200.113 111.827 197.817 115.207 195.435C120.706 191.556 126.29 187.777 131.746 183.826C135.311 181.245 138.718 178.465 142.197 175.77C142.199 175.769 142.201 175.768 142.204 175.768ZM116.725 134.878C116.706 134.878 116.688 134.872 116.672 134.862C116.221 134.546 116.136 134.436 116.052 134.436C108.204 134.565 100.5 133.195 92.7674 132.154C89.0299 131.655 85.3067 131.056 81.5835 130.557C76.8722 129.915 72.1466 129.444 67.464 128.689C63.2253 128.018 59.0296 127.048 54.8052 126.25C52.2133 125.765 49.5927 125.422 47.0008 124.923C44.7239 124.481 42.49 123.854 40.2275 123.44C37.879 123.012 35.5019 122.841 33.1677 122.37C30.0173 121.743 26.8813 120.987 23.7595 120.217C20.5948 119.432 17.3872 118.719 14.3084 117.678C12.81 117.171 11.3487 116.565 9.87542 115.924C7.73399 114.993 4.96772 117.052 6.91928 118.334C9.74031 120.203 12.6616 122.142 15.8406 123.212C21.497 125.109 27.3395 126.449 33.1248 127.904C37.6355 129.031 42.2036 129.958 46.743 131.013C50.6094 131.898 54.4472 132.867 58.3279 133.709C59.7742 134.023 61.2921 134.336 62.7527 134.308C68.1084 134.179 73.4498 133.709 78.8054 133.709C84.5048 133.709 90.2184 134.122 95.9177 134.351C100.844 134.536 105.77 134.736 110.696 134.878C112.586 134.935 114.462 134.878 116.725 134.878ZM105.488 137.939C105.485 137.934 105.48 137.93 105.474 137.93C103.6 137.815 101.27 137.545 98.9393 137.56C94.1564 137.56 89.3735 137.731 84.5906 137.802C81.4546 137.845 78.3185 137.831 75.1825 137.859C71.6884 137.888 68.2087 138.045 64.7146 137.959C62.1943 137.902 59.6167 136.918 57.2539 138.615C56.9675 138.829 56.5379 138.872 56.1656 138.943C53.6882 139.428 51.2109 139.827 48.7478 140.369C44.6953 141.253 40.6571 142.209 36.6188 143.165C31.2918 144.42 25.9791 145.689 20.6808 147.03C19.2917 147.386 17.917 147.928 16.6282 148.556C13.3776 150.139 10.1126 151.722 6.97657 153.49C4.73367 154.752 7.48945 156.894 9.90976 156.02C12.352 155.138 14.7821 154.268 17.2297 153.462C19.6784 152.663 22.1987 152.064 24.7047 151.437C28.1844 150.567 31.6641 149.625 35.1868 148.955C38.1797 148.37 41.2728 148.242 44.2657 147.671C48.8767 146.801 53.4305 145.675 58.0415 144.762C60.5045 144.263 63.0105 143.935 65.5165 143.578C70.8292 142.837 76.1562 142.109 81.4832 141.41C83.8604 141.097 86.2661 140.954 88.6289 140.597C91.9511 140.084 95.259 139.399 98.5813 138.872C101.021 138.474 103.489 138.218 105.475 137.962C105.486 137.96 105.493 137.949 105.488 137.939ZM5.47196 111.874C5.47259 111.874 5.47348 111.874 5.47436 111.874C6.87687 112.002 7.72144 111.959 8.48015 112.187C11.4301 113.071 14.337 114.113 17.3012 114.94C22.3275 116.366 27.3968 117.692 32.4517 119.005C33.8837 119.375 35.4016 119.447 36.848 119.76C38.6236 120.131 40.3707 120.688 42.1464 121.03C49.1774 122.413 56.2085 123.768 63.2539 125.066C69.2826 126.178 75.3256 127.162 81.3687 128.218C82.6002 128.432 83.8174 128.746 85.0632 128.917C87.6695 129.259 90.3043 129.444 92.8962 129.844C95.8032 130.3 98.6672 131.127 101.588 131.427C105.469 131.826 109.393 131.84 113.302 132.069C117.054 132.283 120.791 132.625 124.543 132.782C124.839 132.793 125.136 132.797 125.433 132.796C126.193 132.793 126.288 131.58 125.531 131.512C122.596 131.256 119.632 131.327 116.71 131.042C111.756 130.557 106.815 129.929 101.889 129.288C97.9369 128.774 94.0132 128.161 90.0752 127.505C89.0155 127.334 88.0131 126.749 86.9535 126.578C83.932 126.121 80.8961 125.822 77.8746 125.394C73.2779 124.724 68.6526 124.182 64.0988 123.255C58.8004 122.171 53.545 120.873 48.3469 119.418C41.9602 117.621 35.6308 115.624 29.3014 113.599C26.1939 112.601 23.1724 111.332 20.1079 110.191C16.5255 108.859 12.9432 107.54 9.27926 106.187C8.83241 106.022 8.33305 106.219 8.1186 106.645C7.34971 108.17 6.4451 109.947 5.4672 111.871C5.46566 111.874 5.46955 111.877 5.47196 111.874ZM8.70522 166.355C8.70788 166.355 8.71051 166.354 8.71287 166.353C10.7306 165.312 12.5625 164.144 14.5375 163.388C18.8908 161.748 23.3156 160.322 27.7118 158.796C30.0173 157.997 32.2942 157.127 34.614 156.4C38.0795 155.316 41.5735 154.346 45.039 153.319C47.3874 152.62 49.7073 151.822 52.0844 151.194C53.903 150.709 55.7789 150.424 57.6262 150.053C61.2635 149.326 64.9007 148.541 68.5523 147.885C71.717 147.315 74.9104 146.916 78.0751 146.345C81.6264 145.718 85.1491 144.848 88.7148 144.334C94.2137 143.521 99.7555 142.922 105.283 142.238C110.41 141.61 115.536 140.954 120.663 140.383C123.535 140.064 126.421 139.907 129.294 139.688C129.425 139.678 129.527 139.569 129.527 139.437C129.527 139.298 129.414 139.186 129.275 139.185C127.569 139.178 125.863 139.105 124.171 139.2C119.775 139.456 115.393 139.913 110.997 140.055C105.97 140.227 101.001 140.697 96.0609 141.582C91.3783 142.423 86.667 143.136 81.9558 143.849C78.5333 144.363 75.0822 144.662 71.6884 145.247C66.3041 146.174 60.9484 147.272 55.5785 148.299C52.2276 148.941 48.891 149.554 45.5402 150.21C43.564 150.595 41.6165 151.08 39.6404 151.465C37.6642 151.85 35.6594 152.093 33.6976 152.521C31.3778 153.02 29.0723 153.604 26.7667 154.218C22.8717 155.273 18.9767 156.343 15.1103 157.47C13.3792 157.971 11.662 158.505 9.88527 159.064C7.69119 159.753 6.63429 162.252 7.66676 164.307C8.00545 164.981 8.34863 165.665 8.69032 166.346C8.69315 166.351 8.69891 166.355 8.70522 166.355ZM124.472 70.6144C124.472 70.6174 124.476 70.6182 124.477 70.6155C124.514 70.5293 124.551 70.4427 124.588 70.3464C124.596 70.3261 124.592 70.3032 124.579 70.286C123.756 69.2246 122.975 68.1086 122.08 67.1047C118.944 63.5962 115.708 60.1732 112.6 56.6362C108.476 51.9725 104.467 47.1947 100.328 42.531C96.376 38.0812 92.3378 33.717 88.3425 29.31C86.5812 27.3561 84.7339 25.4735 83.1587 23.377C82.4757 22.4701 81.8195 21.5444 81.1749 20.6062C78.984 17.4174 75.3847 17.1994 74.3376 20.9239C74.1371 21.637 75.2111 22.8207 75.8841 23.6479C78.2183 26.5432 80.5381 29.4526 83.0155 32.2195C85.4212 34.9008 87.9988 37.4252 90.4905 40.0351C92.5526 42.203 94.5287 44.4564 96.6767 46.5387C99.2543 49.0488 101.975 51.4163 104.653 53.8551C107.789 56.7076 110.896 59.6028 114.09 62.3981C115.694 63.7958 117.469 64.9939 119.145 66.3202C120.934 67.7319 122.695 69.1864 124.471 70.6123C124.471 70.6129 124.472 70.6136 124.472 70.6144ZM123.899 202.11C123.441 202.281 123.097 202.324 122.896 202.495C119.402 205.433 115.908 208.371 112.443 211.352C109.694 213.719 107.001 216.13 104.309 218.569C102.419 220.28 100.586 222.077 98.7101 223.803C96.5621 225.771 94.2709 227.596 92.2518 229.693C89.0728 232.973 86.0227 236.396 83.0155 239.833C80.1085 243.156 77.3161 246.594 74.4808 249.988C74.3376 250.159 74.2087 250.501 74.266 250.687C75.5959 254.415 78.8514 254.404 81.3239 251.313C81.4995 251.094 81.6766 250.875 81.8555 250.658C86.0369 245.552 90.1898 240.447 94.5001 235.455C98.2519 231.105 102.233 226.955 106.028 222.647C111.978 215.895 117.842 209.086 123.907 202.12C123.911 202.115 123.905 202.107 123.899 202.11ZM120.605 5.47523C120.605 5.47352 120.608 5.47321 120.608 5.47486C122.941 14.5418 124.845 23.5232 127.593 32.248C130.324 40.9289 133.88 49.359 137.086 57.8963C137.152 58.0707 137.335 58.1658 137.512 58.1099C137.684 58.0562 137.801 57.8868 137.778 57.7089C137.409 54.8022 137.099 51.8832 136.629 48.9775C136.214 46.4531 135.469 43.9715 135.111 41.4471C134.481 37.0115 134.138 32.5475 133.508 28.1262C132.863 23.5338 132.219 18.9129 131.216 14.3918C130.586 11.5679 129.555 8.80107 127.135 6.79011C124.759 4.82277 122.369 4.28042 120.608 5.47642C120.607 5.47706 120.605 5.47639 120.605 5.47523ZM120.734 266.605C120.734 266.604 120.735 266.604 120.736 266.604C121.151 266.718 121.709 266.903 122.281 267.031C124.858 267.616 128.381 264.321 129.34 262.482C131.302 258.731 131.904 254.623 132.448 250.473C133.006 246.237 133.823 242.044 134.424 237.822C134.782 235.269 134.811 232.674 135.212 230.135C135.827 226.284 136.701 222.476 137.331 218.626C137.518 217.481 137.381 216.274 137.362 215.087C137.359 214.935 137.261 214.802 137.114 214.763C136.938 214.715 136.752 214.809 136.688 214.98C133.581 223.362 130.125 231.636 127.493 240.161C124.831 248.772 122.998 257.625 120.737 266.606C120.737 266.607 120.734 266.607 120.734 266.605ZM113.472 9.79939C113.473 9.79939 113.474 9.8004 113.475 9.80183C117.692 27.6022 125.297 44.1425 134.544 60.0146C134.817 60.4843 135.378 60.2695 135.154 59.7739C134.009 57.2638 132.634 54.8535 131.675 52.2863C129.426 46.2106 127.35 40.0637 125.245 33.9309C124.701 32.3478 124.243 30.722 123.784 29.1103C123.097 26.7 122.367 24.2897 121.751 21.8509C120.92 18.4851 120.118 15.1049 119.431 11.7105C119.219 10.6615 119.125 9.59464 119.04 8.50618C118.973 7.65211 118.048 7.16867 117.304 7.59399C115.998 8.34135 114.727 9.07105 113.47 9.7935C113.467 9.79512 113.468 9.79939 113.472 9.79939ZM135.989 210.14C135.986 210.14 135.984 210.139 135.981 210.137C135.954 210.121 135.926 210.105 135.899 210.09C135.719 209.988 135.482 210.049 135.379 210.228C126.224 226.085 118.376 242.498 114.068 260.209C113.792 261.346 114.409 262.581 115.424 263.164C117.007 264.073 118.886 263.081 119.206 261.284C119.457 259.88 119.724 258.479 120.061 257.091C121.264 252.099 122.467 247.093 123.928 242.172C125.116 238.165 126.62 234.257 128.052 230.335C129.856 225.386 131.689 220.451 133.579 215.531C134.278 213.698 135.19 211.951 136.004 210.162C136.008 210.151 136.001 210.14 135.989 210.14ZM161.245 157.888C161.245 157.89 161.242 157.891 161.241 157.889C161.152 157.736 161.056 157.582 160.964 157.429C160.921 157.358 160.829 157.335 160.759 157.378C158.308 158.908 155.858 160.449 153.407 161.979C153.222 162.095 153.167 162.342 153.282 162.527C153.392 162.706 153.625 162.756 153.802 162.643C156.286 161.057 158.757 159.471 161.241 157.886C161.243 157.885 161.245 157.886 161.245 157.888ZM137.716 87.2134C139.086 88.3029 139.598 87.8842 138.179 86.859C137.712 86.5217 137.269 86.1576 136.881 85.7292C136.746 85.5798 136.507 85.5739 136.373 85.725C136.254 85.86 136.274 86.0663 136.414 86.1785C136.848 86.5234 137.282 86.8684 137.716 87.2134Z" fill="#9C3C33"/>
</svg>
