<svg width="65" height="28" viewBox="0 0 65 28" fill="none" xmlns="http://www.w3.org/2000/svg">
<path d="M64.98 26.4201C62.9536 25.3966 60.9562 24.3298 58.9009 23.364C56.3824 22.1819 53.835 21.0863 51.3021 19.9475C48.1323 18.5348 44.977 17.0788 41.7783 15.7381C38.1888 14.2389 34.5558 12.8694 30.9518 11.4423C26.8267 9.79894 22.7016 8.14115 18.5766 6.48336C15.1607 5.09947 11.7883 3.6291 8.35801 2.3317C5.96981 1.43794 3.50926 0.717151 1.0487 0.0252054C0.235069 -0.213134 -0.368432 1.28565 0.262898 1.85153C0.322593 1.90503 0.386388 1.95044 0.455265 1.98572C2.58293 3.06689 4.8119 4.0039 6.99745 4.98416C10.9778 6.77168 14.9437 8.63129 18.9674 10.3035C23.3385 12.1199 27.7965 13.7632 32.211 15.5075C34.7439 16.5022 37.219 17.6266 39.7664 18.5492C41.952 19.3565 44.2533 19.8466 46.4388 20.6827C50.2889 22.1675 54.0811 23.8253 57.9022 25.3821C59.5377 26.0453 61.1878 26.7084 62.8667 27.2273C63.3461 27.3825 63.905 27.251 64.4446 27.1849C64.6431 27.1605 64.8141 27.0262 64.8734 26.8352C64.9124 26.7094 64.9531 26.5852 64.9976 26.4648C65.004 26.4475 64.9964 26.4283 64.98 26.4201Z" fill="#9C3C33"/>
</svg>
