<svg width="104" height="48" viewBox="0 0 104 48" fill="none" xmlns="http://www.w3.org/2000/svg">
<path d="M27.824 37.1314H27.7402C26.6145 35.1798 24.5035 34.4276 22.6183 34.4276C20.8736 34.4276 19.4952 34.9014 19.4952 36.1837C19.4952 37.2706 20.1993 37.9399 22.9008 38.9157L23.9428 39.3066C27.77 40.7843 28.6984 41.815 28.6984 43.5992C28.6984 45.9122 26.6159 47.9749 22.986 47.9749C20.5372 47.9749 18.1168 46.8317 16.8789 45.6338L17.1884 42.345L17.2452 42.3169C18.3709 44.6032 21.5224 46.192 23.6901 46.192C25.8578 46.192 26.6457 45.3273 26.6457 44.3529C26.6457 43.1816 25.8862 42.5405 23.2117 41.5098L21.8603 41.036C18.6804 39.8648 17.3573 38.9452 17.3573 36.7996C17.3573 34.6539 19.8345 32.7305 22.9576 32.7305C25.2659 32.7305 26.9821 33.3998 28.4457 34.3193L27.8268 37.1342L27.824 37.1314Z" fill="#FEDFBE"/>
<path d="M31.5957 40.6161C31.5957 36.5188 35.6486 32.6719 39.8137 32.6719C43.7531 32.6719 46.8776 35.543 46.8776 40.0579C46.8776 44.1551 42.9652 48.002 38.9691 48.002C34.7188 48.002 31.5957 45.159 31.5957 40.6161ZM44.2045 40.6161C44.2045 37.16 42.2625 34.3437 38.9705 34.3437C35.6784 34.3437 34.2702 36.128 34.2702 40.0579C34.2702 43.5421 36.2406 46.3288 39.5326 46.3288C42.8247 46.3288 44.2045 44.5446 44.2045 40.6147V40.6161Z" fill="#FEDFBE"/>
<path d="M53.3233 27.332V43.3554C53.3233 47.1784 54.2234 47.7507 54.2234 47.7507H50.3961C50.3961 47.7507 50.9313 47.1784 50.9313 41.5345V33.8617C50.9313 30.168 50.2272 29.6225 49.834 29.5705V29.4411L53.3233 27.3334V27.332Z" fill="#FEDFBE"/>
<path d="M64.3742 32.5273C67.9487 32.5273 70.6786 35.092 70.6786 40.3323H59.5618C59.8428 43.7054 61.7848 46.0746 64.9094 46.0746C67.7514 46.0746 69.3271 44.1512 70.0596 42.4512H70.1164V43.9838C69.6096 45.2099 67.9771 47.7464 63.7836 47.7464C60.0132 47.7464 56.8887 45.1256 56.8887 40.3042C56.8887 35.9005 60.8011 32.5273 64.3742 32.5273ZM67.9487 38.7997C67.5825 35.4547 65.9229 34.1443 63.2768 34.1443C61.0538 34.1443 59.6185 35.5658 59.5334 39.1892L67.9487 38.7983V38.7997Z" fill="#FEDFBE"/>
<path d="M85.0332 47.7494H88.5282C88.5282 47.7494 87.8639 47.1364 87.7233 43.0392V39.1374C87.7233 34.5663 84.9608 32.7539 81.2528 32.7539C81.0981 32.7539 80.9448 32.7609 80.7915 32.7708C80.6396 32.7609 80.4862 32.7539 80.3301 32.7539C76.6221 32.7539 73.8596 34.5663 73.8596 39.1374V43.0392C73.7191 47.1364 73.0547 47.7494 73.0547 47.7494H76.4078C76.4078 47.7494 76.1636 47.1364 76.1281 41.0876V40.1961C76.1281 37.5232 76.9046 36.0511 78.381 35.3635C79.4272 34.877 82.0137 34.877 83.0586 35.3635C84.5349 36.0497 85.3114 37.5232 85.3114 40.1961V41.0876C85.276 47.1364 85.0318 47.7494 85.0318 47.7494H85.0332Z" fill="#FEDFBE"/>
<path d="M97.6945 32.5273C101.269 32.5273 103.999 35.092 103.999 40.3323H92.8821C93.1631 43.7054 95.1052 46.0746 98.2297 46.0746C101.072 46.0746 102.647 44.1512 103.38 42.4512H103.437V43.9838C102.93 45.2099 101.297 47.7464 97.1039 47.7464C93.3335 47.7464 90.209 45.1256 90.209 40.3042C90.209 35.9005 94.1214 32.5273 97.6945 32.5273ZM101.268 38.7997C100.901 35.4547 99.2418 34.1443 96.5957 34.1443C94.3726 34.1443 92.9374 35.5658 92.8523 39.1892L101.266 38.7983L101.268 38.7997Z" fill="#FEDFBE"/>
<path d="M13.4583 5.58932C13.5094 5.59213 13.5577 5.59354 13.6102 5.59635C13.6159 5.57666 13.623 5.55979 13.6258 5.54292C13.6372 5.42762 13.6471 5.31092 13.6571 5.19562C13.6727 5.00581 13.6784 4.81599 13.7039 4.62758C13.7465 4.3084 13.7976 3.99064 13.8544 3.67428C13.931 3.25527 14.0134 2.83768 14.1 2.42008C14.1369 2.24011 14.1738 2.05732 14.2348 1.88297C14.3896 1.44006 14.5358 0.991535 14.7317 0.566908C14.8268 0.361625 14.9815 0.181648 15.2456 0.0944731C15.7865 -0.0840952 16.2663 0.0199545 16.7362 0.289916C16.9335 0.403806 17.1294 0.533163 17.3437 0.602059C17.5141 0.656895 17.71 0.641428 17.8945 0.635803C18.2168 0.625961 18.461 0.741259 18.6398 1.01122C18.7264 1.14339 18.8215 1.2854 18.9479 1.36976C19.0629 1.44709 19.2346 1.50333 19.3667 1.48224C19.9388 1.39226 20.3788 1.6102 20.7167 2.03342C20.9112 2.27526 21.1752 2.38493 21.4251 2.53116C21.7005 2.69145 21.9787 2.84892 22.2456 3.02046C22.4415 3.14701 22.6388 3.27918 22.8092 3.43666C23.0817 3.68693 23.3004 3.98361 23.4508 4.32668C23.6567 4.79912 23.8497 5.27999 24.0911 5.73414C24.2061 5.95067 24.419 6.11518 24.5893 6.30218C24.6901 6.41186 24.8037 6.51028 24.8945 6.62839C25.011 6.77743 25.1515 6.87867 25.3346 6.92929C25.6767 7.0249 25.9067 7.24143 26.0714 7.55498C26.1992 7.79682 26.3809 8.01475 26.3809 8.30159C26.3809 8.54624 26.3738 8.79511 26.3326 9.03555C26.2772 9.36597 26.2787 9.68936 26.4589 9.97057C26.6293 10.2363 26.6832 10.5049 26.6108 10.803C26.5512 11.0448 26.6449 11.2304 26.7897 11.4188C27.1091 11.835 27.1588 12.1598 26.9047 12.6308C26.5597 13.2678 25.9962 13.5363 25.2892 13.5911C24.8718 13.6235 24.4587 13.7135 24.0428 13.7669C23.7149 13.8091 23.3827 13.8288 23.0548 13.8653C22.707 13.9033 22.3606 13.9469 22.0142 13.9919C21.7005 14.0341 21.3853 14.0762 21.073 14.1311C20.9027 14.1606 20.7351 14.2126 20.5691 14.2618C20.3022 14.3406 20.0353 14.4263 19.7698 14.5093C19.3624 14.6358 18.9507 14.7483 18.5504 14.8903C18.1288 15.0394 17.7185 15.2179 17.3012 15.3796C16.7546 15.592 16.3089 15.9491 15.8958 16.3498C15.5948 16.6423 15.2967 16.9404 15.0227 17.2581C14.5784 17.7713 14.2561 18.3633 14.0844 19.0143C13.9495 19.5261 13.8899 20.0576 13.8061 20.582C13.7919 20.6762 13.8572 20.7803 13.8388 20.8773C13.7976 21.0868 13.7834 21.136 13.5903 21.0995C13.5662 21.0952 13.5421 21.091 13.5165 21.0924C13.4455 21.0938 13.3235 21.1206 13.3135 21.0995C13.2724 20.9996 13.2553 20.8885 13.244 20.7803C13.234 20.6833 13.2511 20.5848 13.2397 20.4878C13.2156 20.2699 13.2071 20.0463 13.1489 19.8354C13.0182 19.3616 12.96 18.8751 12.7613 18.4111C12.5356 17.8838 12.1849 17.4578 11.84 17.0219C11.417 16.4876 10.9016 16.0405 10.3338 15.6721C9.95761 15.4289 9.5147 15.2784 9.09166 15.1125C8.63171 14.9325 8.16325 14.7736 7.69194 14.6218C7.36118 14.5149 7.02048 14.4404 6.68545 14.3462C6.52504 14.3012 6.37172 14.2295 6.20847 14.1958C5.87487 14.1254 5.53842 14.072 5.2034 14.013C4.98336 13.975 4.76333 13.9342 4.54045 13.9047C4.38146 13.8836 4.21962 13.8794 4.05921 13.8625C3.51834 13.8049 2.9789 13.75 2.43945 13.6839C2.08314 13.6404 1.72824 13.5855 1.37334 13.5265C0.775694 13.4266 0.37253 13.0667 0.111325 12.5479C-0.0859978 12.1556 -0.0107589 11.7745 0.256124 11.4371C0.405181 11.2487 0.505972 11.0743 0.450608 10.8128C0.386726 10.5105 0.436411 10.2166 0.61386 9.93682C0.796987 9.64718 0.781373 9.3266 0.717492 8.98633C0.643673 8.58983 0.612442 8.17505 0.855192 7.80244C0.93043 7.68715 0.985793 7.56201 1.05819 7.4453C1.21293 7.19362 1.42019 7.0024 1.72256 6.94475C1.98803 6.89413 2.12431 6.6776 2.29892 6.51309C2.4863 6.33593 2.66801 6.14752 2.82132 5.94083C2.96044 5.75523 3.07259 5.54573 3.17338 5.33623C3.38348 4.90035 3.54106 4.43495 3.78949 4.02298C3.97687 3.71083 4.23808 3.41978 4.52767 3.19622C4.87689 2.92626 5.2758 2.70973 5.67754 2.52132C6.0225 2.35962 6.29648 2.12621 6.53214 1.85063C6.82741 1.50333 7.21354 1.45272 7.62096 1.4724C7.92617 1.48647 8.16325 1.40913 8.33076 1.1476C8.40316 1.03371 8.48407 0.918417 8.58628 0.831242C8.75096 0.687825 8.94828 0.614712 9.17684 0.640021C9.61407 0.689233 9.98316 0.510663 10.3395 0.291319C10.886 -0.0475388 11.4567 -0.107997 12.0302 0.201334C12.1693 0.275855 12.2886 0.444579 12.3482 0.595027C12.5668 1.15323 12.7812 1.71424 12.9501 2.28791C13.0708 2.69567 13.119 3.12451 13.1929 3.54633C13.2624 3.94424 13.3334 4.34215 13.3873 4.74287C13.4243 5.01705 13.4342 5.29545 13.4569 5.59354L13.4583 5.58932ZM23.7106 6.11377C23.6652 6.21642 23.6467 6.34577 23.5715 6.41607C23.1981 6.76196 22.7978 7.08114 22.4301 7.43265C22.1633 7.68855 21.9333 7.98101 21.6863 8.2566C21.4095 8.56733 21.1227 8.86823 20.8615 9.19162C20.562 9.56282 20.278 9.94807 20.0026 10.3375C19.537 10.9942 19.0856 11.662 18.6228 12.3215C18.319 12.7545 18.0039 13.1806 17.6958 13.6122C17.6589 13.6629 17.6333 13.7205 17.6035 13.7753C17.8874 13.4801 18.1401 13.1679 18.3786 12.8445C18.5589 12.5985 18.7179 12.3384 18.8911 12.0881C19.0558 11.8505 19.229 11.6171 19.3979 11.3808C19.4944 11.2459 19.5853 11.1067 19.6861 10.9745C19.916 10.6778 20.1446 10.3797 20.3845 10.0901C20.5364 9.90589 20.7039 9.73295 20.87 9.56C21.0304 9.39409 21.1937 9.23239 21.3626 9.07491C21.7104 8.75012 22.0568 8.42251 22.4174 8.11177C22.5735 7.97679 22.7623 7.87977 22.9369 7.76729C22.9682 7.74761 23.0037 7.73495 23.0377 7.71948C23.0235 7.76588 23.0179 7.81931 22.9909 7.85587C22.9597 7.89946 22.9043 7.92617 22.8674 7.96695C22.362 8.50546 21.8467 9.03695 21.3555 9.58672C20.9126 10.0831 20.4853 10.5935 20.0694 11.1123C19.8649 11.3682 19.7088 11.6606 19.5228 11.9292C19.2446 12.3313 18.9592 12.7278 18.6782 13.1286C18.6469 13.1736 18.6327 13.2284 18.61 13.279C18.6668 13.2818 18.6938 13.2678 18.7122 13.2467C18.955 12.957 19.1949 12.666 19.4376 12.3777C19.6761 12.0951 19.9217 11.8195 20.1574 11.5341C20.4541 11.1742 20.7366 10.8044 21.0347 10.4458C21.3072 10.1182 21.5912 9.79903 21.8722 9.47845C22.0128 9.31816 22.1476 9.15225 22.3052 9.01024C22.663 8.68403 23.032 8.37049 23.3983 8.05272C23.5147 7.95148 23.6297 7.84603 23.7575 7.76166C23.9917 7.60559 24.2344 7.46218 24.4772 7.31735C24.5595 7.26814 24.6504 7.23018 24.7498 7.18097C24.5993 7.03755 24.4658 6.91241 24.3225 6.77603C24.1251 6.89835 23.915 7.02911 23.7049 7.15988C23.6893 7.13878 23.6737 7.1177 23.6581 7.09661C23.8412 6.94616 24.0243 6.79571 24.2061 6.64526C24.0385 6.46669 23.8739 6.29094 23.7092 6.11659C23.5587 5.78757 23.4082 5.45715 23.2549 5.1197C22.4685 6.05894 21.7218 7.0024 20.7863 7.7926C20.7664 7.70402 20.7593 7.61544 20.7976 7.5606C20.9992 7.27939 21.205 7.0024 21.4222 6.73384C21.709 6.37952 22.0028 6.03222 22.3024 5.68915C22.5536 5.40091 22.8092 5.11267 23.1882 4.93972C23.0903 4.71616 22.9937 4.494 22.8816 4.23248C22.6899 4.41245 22.5125 4.55446 22.3663 4.72179C22.0185 5.1211 21.665 5.51761 21.3484 5.94083C20.9424 6.48357 20.5662 7.0502 20.1815 7.60841C19.9813 7.89946 19.7854 8.19473 19.5995 8.49422C19.3581 8.88229 19.1211 9.27458 18.8925 9.66968C18.7392 9.93401 18.6015 10.2068 18.461 10.4782C18.231 10.9225 18.001 11.3668 17.7753 11.8139C17.5794 12.202 17.392 12.5943 17.1975 12.9823C16.9888 13.3985 16.7787 13.8147 16.5601 14.2267C16.377 14.5726 16.1868 14.9142 15.9951 15.2545C15.8901 15.4401 15.7737 15.6187 15.6629 15.8001L15.7013 15.8282C15.768 15.7494 15.8489 15.6791 15.9 15.592C16.0619 15.3164 16.2095 15.0338 16.3671 14.7554C16.5914 14.3617 16.8199 13.9722 17.0442 13.5785C17.3225 13.0892 17.6007 12.5999 17.8747 12.1078C18.0166 11.8533 18.143 11.5917 18.2849 11.3358C18.4354 11.0631 18.5972 10.7973 18.7506 10.526C18.884 10.2897 19.0018 10.0451 19.1438 9.8145C19.2928 9.57406 19.4675 9.3491 19.625 9.11288C19.8153 8.83027 19.9955 8.54062 20.1886 8.26081C20.2213 8.21442 20.2993 8.20035 20.3575 8.17083C20.3604 8.24957 20.393 8.34518 20.3604 8.40423C20.1588 8.77262 19.9416 9.12975 19.7329 9.49392C19.4802 9.93401 19.2375 10.3811 18.9805 10.8198C18.5334 11.5833 18.0777 12.3426 17.6277 13.1047C17.6092 13.1356 17.6064 13.1736 17.5964 13.2087C17.6674 13.1454 17.7029 13.0667 17.7526 12.9978C18.0095 12.628 18.2764 12.2652 18.5263 11.8912C18.7931 11.4905 19.0416 11.0771 19.3042 10.675C19.3936 10.5372 19.5072 10.4135 19.6052 10.2813C19.7854 10.0381 19.953 9.78638 20.1418 9.55016C20.4214 9.20146 20.7068 8.85839 21.0035 8.52375C21.3584 8.12302 21.7175 7.72511 22.0951 7.34548C22.4372 7.0024 22.7992 6.6776 23.1683 6.36265C23.3188 6.2347 23.4693 6.06175 23.712 6.11096L23.7106 6.11377ZM11.9436 15.0281C12.0245 15.3122 12.1055 15.5962 12.1878 15.8802C12.2091 15.8732 12.2318 15.8661 12.2531 15.8591C12.1977 15.6988 12.1452 15.5371 12.087 15.3768C12.043 15.2587 11.9905 15.1434 11.9422 15.0281C11.9465 14.993 11.9621 14.9536 11.9536 14.9213C11.8343 14.491 11.725 14.058 11.5859 13.6347C11.3658 12.9655 11.1416 12.2976 10.8889 11.641C10.6688 11.0715 10.4048 10.5175 10.162 9.95651C10.1138 9.84403 10.0797 9.72311 10.0258 9.61343C9.85966 9.27317 9.68363 8.93572 9.51754 8.59545C9.50192 8.56311 9.52747 8.50968 9.53315 8.4661C9.55445 8.46047 9.57716 8.45344 9.59845 8.44782C10.1464 9.11991 10.4885 9.90871 10.8236 10.6947C11.1671 11.4975 11.4652 12.3201 11.7747 13.1117C11.7733 13.1243 11.7818 13.1061 11.7775 13.0906C11.6171 12.5746 11.4666 12.0557 11.292 11.5439C11.1316 11.0771 10.9428 10.6216 10.771 10.159C10.649 9.83137 10.5269 9.50236 10.4147 9.17053C10.3707 9.04258 10.3054 8.90197 10.4516 8.74871C10.8832 9.62047 11.2296 10.5021 11.539 11.3963C11.8513 12.2934 12.1353 13.2017 12.4305 14.1044C12.4121 13.9328 12.3794 13.7627 12.3397 13.594C12.2361 13.1581 12.1296 12.7222 12.0203 12.2877C11.945 11.9868 11.8599 11.6888 11.7875 11.3865C11.7775 11.3471 11.8215 11.2951 11.84 11.2487C11.8655 11.2501 11.8911 11.2515 11.9166 11.2529C12.1977 12.3454 12.4802 13.4393 12.7613 14.5318C12.7741 14.4376 12.7542 14.3476 12.7386 14.2576C12.6719 13.8724 12.6137 13.4857 12.5384 13.1018C12.4518 12.6646 12.3454 12.2301 12.2531 11.7928C12.1679 11.3893 12.0884 10.9843 12.0047 10.5808C11.8073 9.63312 11.6058 8.68685 11.4113 7.73776C11.3332 7.36094 11.2835 6.97709 11.1927 6.60308C11.1018 6.23188 10.9755 5.86912 10.8661 5.50214C10.8278 5.37138 10.7952 5.23921 10.7583 5.10845C10.6859 4.84552 10.6191 4.58118 10.5382 4.32106C10.4573 4.06235 10.3565 3.80926 10.2742 3.55195C10.1748 3.23981 10.0996 2.92063 9.98884 2.61271C9.81423 2.12903 9.61833 1.65097 9.43946 1.19119C9.05191 1.05762 8.72966 1.13073 8.53092 1.47943C8.60332 1.60035 8.68991 1.72128 8.75238 1.85485C8.84891 2.05873 8.93408 2.26682 9.01216 2.47773C9.19529 2.97125 9.37132 3.46899 9.55303 3.96252C9.66801 4.27466 9.72622 4.60227 9.83978 4.91723C10.0485 5.49933 10.2131 6.09831 10.4431 6.67479C10.5595 6.96725 10.6532 7.26955 10.7568 7.56623C10.8676 7.87978 10.9854 8.19051 11.0862 8.50687C11.1813 8.80214 11.2622 9.10163 11.3431 9.40112C11.4184 9.68092 11.4851 9.96213 11.5561 10.2433C11.5632 10.2743 11.5759 10.3038 11.583 10.3347C11.6001 10.4079 11.6143 10.481 11.6313 10.5541C11.6114 10.5583 11.5901 10.5625 11.5703 10.5667C11.4908 10.4022 11.3928 10.2433 11.3332 10.0704C11.143 9.52626 10.9811 8.97228 10.7824 8.43095C10.595 7.91914 10.3991 7.41297 10.2997 6.87585C10.2827 6.78587 10.2586 6.69728 10.2302 6.61011C10.1109 6.2361 9.99026 5.86209 9.86676 5.48949C9.76881 5.1914 9.68079 4.8877 9.56154 4.59805C9.3699 4.13406 9.14419 3.68412 8.95538 3.22012C8.77225 2.76738 8.61894 2.30197 8.45284 1.84219C8.42303 1.76205 8.38896 1.68331 8.37193 1.63972C8.07381 1.69456 7.79415 1.73815 7.51875 1.79861C7.36118 1.83235 7.18941 1.86328 7.06164 1.94905C6.87994 2.07279 6.7323 2.24573 6.57188 2.39477C6.67693 2.53678 6.79476 2.66614 6.87852 2.81518C7.00344 3.03593 7.09288 3.27637 7.2178 3.49712C7.55566 4.09609 7.9205 4.68101 8.24558 5.28702C8.49259 5.74679 8.69417 6.22907 8.91705 6.7001C9.01358 6.90257 9.12147 7.09942 9.21091 7.3047C9.24782 7.39047 9.25208 7.4903 9.27053 7.5831C9.24924 7.59575 9.22936 7.607 9.20807 7.61966C9.15696 7.56904 9.09876 7.52404 9.05617 7.4678C9.01216 7.41015 8.98661 7.33985 8.94828 7.27939C8.83613 7.10082 8.70979 6.92928 8.609 6.74369C8.31798 6.20517 8.03974 5.65962 7.75156 5.1197C7.41796 4.494 7.08152 3.86831 6.74224 3.24543C6.64996 3.0753 6.54066 2.91501 6.44696 2.74629C6.38592 2.63661 6.30642 2.62114 6.20279 2.67317C6.05515 2.74769 5.9061 2.82221 5.77975 2.88689C5.95294 3.13436 6.12613 3.37057 6.28939 3.61663C6.47393 3.89503 6.6528 4.17624 6.82457 4.46166C6.90407 4.59383 6.97363 4.73444 7.02899 4.87786C7.04887 4.92848 7.0148 5.00018 7.00628 5.06205C6.9424 5.03955 6.87568 5.02127 6.81321 4.99315C6.79334 4.98472 6.7834 4.95519 6.76921 4.9355C6.56337 4.64304 6.35327 4.35199 6.15027 4.05672C6.00689 3.84863 5.86777 3.63631 5.73433 3.42119C5.65767 3.29746 5.59521 3.16669 5.51571 3.02046C4.9933 3.27636 4.63698 3.65881 4.30906 4.10312C4.4212 4.1917 4.53761 4.26341 4.62704 4.35903C4.85418 4.60087 5.06712 4.85395 5.28857 5.10001C5.47454 5.30811 5.67754 5.50214 5.85073 5.72008C6.18292 6.13627 6.50374 6.5609 6.82031 6.98834C6.99492 7.22315 7.15392 7.4678 7.31859 7.70964C7.61954 8.15395 7.95031 8.58139 8.21293 9.0468C8.59906 9.72732 8.93834 10.4346 9.29324 11.132C9.71486 11.9615 10.1308 12.7953 10.5467 13.6277C10.7469 14.0284 10.9414 14.4306 11.1444 14.8299C11.1927 14.9255 11.2608 15.0127 11.3204 15.1027C11.2466 14.865 11.143 14.6443 11.0408 14.4221C10.9215 14.1662 10.8008 13.9089 10.6816 13.653C10.5737 13.4196 10.4715 13.182 10.3551 12.9542C10.2344 12.718 10.0882 12.4944 9.97181 12.2582C9.82133 11.9545 9.69924 11.6381 9.54593 11.3358C9.25491 10.7622 8.9497 10.1955 8.65301 9.62328C8.44433 9.21974 8.23849 8.8148 8.03265 8.40986C7.9929 8.33252 7.96167 8.25237 7.91766 8.17785C7.79983 7.97679 7.67491 7.77854 7.55708 7.57607C7.37111 7.25689 7.19225 6.93209 7.00202 6.61433C6.89555 6.43435 6.77631 6.26282 6.65848 6.08987C6.50091 5.85647 6.34049 5.62306 6.17724 5.39247C6.01399 5.16188 5.84789 4.9341 5.67754 4.70913C5.57391 4.57274 5.45751 4.44479 5.35246 4.30981C5.22327 4.14249 5.09977 3.96955 4.95781 3.77833C5.01885 3.7713 5.05292 3.75723 5.06428 3.76848C5.2034 3.888 5.34962 4.00189 5.47028 4.13687C5.6094 4.29294 5.72155 4.47291 5.85215 4.63742C6.01825 4.8427 6.19995 5.03674 6.35895 5.24624C6.59176 5.55698 6.81748 5.87475 7.03467 6.19533C7.2831 6.56231 7.52443 6.93631 7.76292 7.31032C7.85945 7.46077 7.94179 7.62106 8.02981 7.77713C8.14763 7.98664 8.26688 8.19613 8.38186 8.40704C8.51105 8.64466 8.63171 8.88791 8.76231 9.12413C8.89576 9.36456 9.04765 9.59515 9.174 9.83981C9.31312 10.1084 9.42526 10.3924 9.56438 10.6609C9.73615 10.9942 9.9349 11.3133 10.1038 11.648C10.2415 11.9194 10.3494 12.2048 10.4743 12.4818C10.4956 12.5296 10.5368 12.5675 10.5695 12.6111C10.5325 12.434 10.4601 12.2807 10.3892 12.126C10.2458 11.8167 10.0982 11.5102 9.96045 11.1981C9.81565 10.8704 9.68363 10.5372 9.54309 10.2068C9.43662 9.95651 9.32164 9.70764 9.21517 9.45736C9.05759 9.09038 8.91847 8.71497 8.74386 8.35643C8.5508 7.96273 8.3265 7.58451 8.1164 7.19784C7.99432 6.97287 7.87791 6.74509 7.75724 6.52012C7.58547 6.20236 7.41086 5.886 7.24193 5.56682C7.22064 5.52605 7.22916 5.4684 7.22348 5.41918C7.23909 5.41215 7.25471 5.40653 7.27032 5.3995C7.31149 5.44168 7.35692 5.48105 7.39241 5.52745C7.49036 5.66243 7.58689 5.79882 7.67917 5.93802C7.94889 6.34718 8.22145 6.75494 8.48123 7.17113C8.64875 7.43968 8.81058 7.71386 8.94544 7.99929C9.14702 8.42391 9.32022 8.8626 9.51186 9.29286C9.63252 9.56282 9.7688 9.82575 9.88805 10.0957C10.1322 10.6455 10.365 11.1995 10.6092 11.7492C10.7824 12.1387 10.984 12.5169 11.1359 12.9148C11.336 13.4351 11.4936 13.9708 11.6824 14.4966C11.7477 14.678 11.8528 14.8468 11.9394 15.0211L11.9436 15.0281ZM21.2888 2.89814C21.1525 2.8208 21.0276 2.7491 20.9012 2.6802C20.8175 2.6338 20.7422 2.6113 20.6798 2.71816C20.5577 2.92626 20.4271 3.13014 20.305 3.33823C20.1006 3.68693 19.8948 4.03423 19.7031 4.38996C19.4944 4.77662 19.3113 5.17735 19.0998 5.5612C18.8187 6.07159 18.522 6.57355 18.2324 7.07973C18.1586 7.20909 18.1004 7.34688 18.0209 7.47202C17.984 7.52967 17.9116 7.56622 17.8562 7.61262C17.8449 7.54795 17.8065 7.47061 17.8278 7.41859C17.9854 7.04317 18.1543 6.67057 18.3204 6.29937C18.3758 6.17564 18.4297 6.0491 18.4936 5.92958C18.6327 5.66806 18.7818 5.41215 18.9223 5.15063C19.0813 4.85676 19.2332 4.55868 19.3936 4.26482C19.5682 3.94705 19.75 3.6321 19.9274 3.31573C20.1048 3.00078 20.2809 2.68442 20.464 2.35821C20.2071 2.15153 19.9913 1.80564 19.6094 1.80845C19.5611 1.96311 19.5214 2.0995 19.476 2.23307C19.4646 2.26823 19.4348 2.29635 19.422 2.33009C19.29 2.67739 19.1608 3.02468 19.0316 3.37198C18.8911 3.74739 18.7548 4.12422 18.6129 4.49963C18.5234 4.73585 18.4326 4.97206 18.3332 5.20406C18.2125 5.48808 18.0763 5.76648 17.9598 6.05331C17.8477 6.3289 17.7654 6.61573 17.6475 6.8871C17.4729 7.28501 17.2813 7.67449 17.0896 8.06396C17.0556 8.13286 16.9931 8.18911 16.9434 8.25097C16.9193 8.24254 16.8952 8.2341 16.871 8.22426C16.8795 8.12583 16.871 8.02178 16.9023 7.9318C16.9959 7.66183 17.1095 7.40031 17.2103 7.13176C17.3579 6.73525 17.49 6.33171 17.6504 5.94083C17.8463 5.46418 18.0692 4.99878 18.2707 4.52494C18.5419 3.8894 18.8045 3.24965 19.0728 2.61271C19.1268 2.48476 19.1779 2.35399 19.246 2.23307C19.3241 2.09247 19.4163 1.96171 19.5044 1.82251C19.2304 1.75783 18.9777 1.69878 18.7037 1.6341C18.6413 1.82251 18.5802 2.03623 18.4993 2.24151C18.3403 2.64927 18.1699 3.0514 18.0039 3.45634C17.8236 3.89643 17.639 4.33512 17.4616 4.77662C17.3636 5.02128 17.2614 5.26452 17.1862 5.5162C17.0045 6.12362 16.8483 6.73806 16.6609 7.34266C16.4806 7.92336 16.2705 8.49281 16.0803 9.0707C15.9171 9.56703 15.7836 10.0732 15.4926 10.5372C15.4741 10.5007 15.4472 10.4739 15.4486 10.4514C15.4685 10.2799 15.4798 10.107 15.5224 9.94104C15.5976 9.64999 15.6871 9.36175 15.7836 9.07773C15.9242 8.66013 16.0704 8.24394 16.2223 7.83056C16.3813 7.3975 16.5559 6.97006 16.7134 6.537C16.827 6.22485 16.9207 5.90427 17.0272 5.58932C17.0627 5.48387 17.128 5.38825 17.1564 5.28139C17.2146 5.06064 17.2444 4.83146 17.3097 4.61352C17.4034 4.29997 17.5141 3.99205 17.622 3.68272C17.754 3.30308 17.886 2.92345 18.0266 2.54803C18.0933 2.37087 18.1785 2.20214 18.2565 2.0292C18.3417 1.84219 18.4283 1.65519 18.5206 1.45272C18.3389 1.12089 18.0095 1.07168 17.6277 1.18838C17.5908 1.29946 17.5538 1.41757 17.5098 1.53286C17.3807 1.8675 17.2415 2.19933 17.1194 2.53678C17.0329 2.7744 16.9704 3.02187 16.8895 3.2623C16.766 3.6321 16.624 3.99767 16.5104 4.37027C16.3557 4.88489 16.2166 5.40231 16.0789 5.92255C15.9724 6.32328 15.873 6.724 15.785 7.12894C15.6644 7.68011 15.5579 8.23551 15.4457 8.78808C15.4046 8.98915 15.3648 9.19021 15.3237 9.39128C15.2243 9.87777 15.1278 10.3643 15.0227 10.8493C14.9659 11.1123 14.8907 11.371 14.8311 11.6325C14.7402 12.0389 14.6508 12.4452 14.5699 12.8544C14.4662 13.376 14.3725 13.9005 14.2774 14.4235C14.2703 14.4587 14.2902 14.4981 14.3016 14.5613C14.33 14.522 14.3456 14.5093 14.3498 14.4938C14.4677 13.9961 14.5798 13.4955 14.7005 12.9992C14.8197 12.5057 14.9347 12.0122 15.0738 11.5243C15.1292 11.333 15.2456 11.1587 15.3336 10.9759C15.3478 10.9829 15.3634 10.9886 15.3776 10.9956C15.1207 12.0178 14.8651 13.0414 14.6082 14.0636C14.9432 13.1721 15.2385 12.2737 15.5437 11.378C15.8475 10.4866 16.1882 9.60781 16.6396 8.76559C16.6836 8.81761 16.7205 8.87244 16.7092 8.91744C16.6652 9.10444 16.6212 9.29426 16.5516 9.47283C16.4309 9.78216 16.279 10.0802 16.1641 10.391C16.0207 10.7776 15.9029 11.1742 15.7708 11.565C15.7424 11.648 15.697 11.7239 15.6715 11.8069C15.5593 12.171 15.4514 12.5366 15.3435 12.9008C15.291 13.0793 15.2385 13.2579 15.186 13.4379C15.3024 13.227 15.3833 13.0076 15.4571 12.7855C15.5764 12.4269 15.68 12.0614 15.812 11.7084C15.9625 11.3063 16.1343 10.914 16.3018 10.5189C16.3585 10.3854 16.4253 10.2574 16.4877 10.1266C16.5885 9.91573 16.6808 9.6992 16.7929 9.49533C16.9193 9.26474 17.0669 9.04398 17.2018 8.81761C17.2912 8.66716 17.3665 8.50406 17.5652 8.41969C17.5652 8.50687 17.5822 8.57436 17.5624 8.62779C17.5042 8.77683 17.436 8.92166 17.3622 9.06367C17.25 9.27739 17.1166 9.48126 17.0158 9.6992C16.9122 9.92136 16.8441 10.159 16.7447 10.3825C16.6254 10.6539 16.4835 10.9154 16.3614 11.1854C16.2123 11.5172 16.0519 11.8476 15.9369 12.1921C15.724 12.8263 15.5394 13.4688 15.3464 14.11C15.2144 14.5501 15.0894 14.9916 14.9588 15.4331C14.9148 15.5807 14.8637 15.7269 14.8169 15.8732C14.8311 15.8774 14.8467 15.883 14.8609 15.8872C15.1221 15.1716 15.379 14.4545 15.6459 13.7402C15.8432 13.2115 16.0406 12.6842 16.262 12.1654C16.404 11.8322 16.5985 11.5228 16.7475 11.1924C16.9164 10.8156 17.0541 10.4261 17.2174 10.0465C17.4062 9.6064 17.6049 9.17053 17.8051 8.73606C17.9911 8.33252 18.1614 7.91774 18.38 7.53248C18.6682 7.02489 18.9933 6.537 19.3113 6.04629C19.4575 5.81991 19.6222 5.60478 19.7783 5.38544C19.7982 5.39107 19.8181 5.39669 19.838 5.40372C19.838 5.47121 19.8564 5.54573 19.8337 5.60478C19.7783 5.75242 19.713 5.89865 19.635 6.03644C19.5058 6.26141 19.3596 6.47513 19.2275 6.69728C19.1424 6.84211 19.0756 6.99537 18.9933 7.1416C18.867 7.36656 18.7236 7.5845 18.6072 7.8151C18.4155 8.19613 18.2352 8.5842 18.0564 8.97087C17.9144 9.27879 17.7796 9.59094 17.6461 9.90308C17.3764 10.5302 17.1109 11.1587 16.8398 11.7844C16.7205 12.0614 16.5899 12.3327 16.4636 12.6069C16.5175 12.5957 16.5488 12.5718 16.5644 12.5408C16.7362 12.1921 16.9037 11.842 17.0754 11.4933C17.2742 11.087 17.4687 10.6792 17.6788 10.2785C17.9485 9.76388 18.2296 9.25489 18.5121 8.7459C18.7875 8.24956 19.0586 7.75182 19.3496 7.26533C19.5711 6.89413 19.8181 6.537 20.058 6.17705C20.2085 5.95067 20.3646 5.72852 20.5194 5.50636C20.6145 5.36857 20.7039 5.22515 20.809 5.09579C21.0645 4.78365 21.3214 4.47291 21.5883 4.17061C21.7303 4.01032 21.8921 3.86972 22.0454 3.71927C22.0681 3.73614 22.0894 3.75442 22.1122 3.77129C22.0866 3.82472 22.0696 3.88659 22.0327 3.93018C21.9049 4.08063 21.7601 4.21701 21.638 4.37168C21.4378 4.62899 21.2519 4.89614 21.0588 5.15907C20.8686 5.41778 20.6642 5.66524 20.4896 5.9338C20.2695 6.27406 20.0736 6.6298 19.8664 6.97709C19.6094 7.40875 19.3411 7.83337 19.0984 8.27206C18.8783 8.66857 18.6881 9.08195 18.4808 9.48548C18.2878 9.85949 18.0848 10.2293 17.8945 10.6047C17.7214 10.9492 17.5638 11.3007 17.392 11.6452C17.1635 12.1021 16.9164 12.5507 16.6936 13.0105C16.5104 13.3873 16.3571 13.7796 16.1768 14.1578C16.0178 14.4938 15.8404 14.82 15.67 15.1505C15.7637 15.0844 15.8333 15.0042 15.8801 14.9128C16.2123 14.2548 16.5388 13.5954 16.8668 12.9345C17.1933 12.2779 17.5042 11.6128 17.8463 10.9646C18.2651 10.1744 18.698 9.39268 19.148 8.61936C19.3837 8.21441 19.6634 7.83478 19.9317 7.44952C20.1205 7.17956 20.3206 6.91804 20.5194 6.6551C20.7692 6.32328 21.0134 5.98723 21.276 5.66524C21.5259 5.35872 21.7913 5.06486 22.0596 4.77241C22.2385 4.57696 22.423 4.38433 22.6232 4.2128C22.7226 4.12703 22.7396 4.08344 22.6601 3.97517C22.433 3.66162 22.1547 3.40291 21.8424 3.17654C21.7686 3.12311 21.6905 3.07811 21.5826 3.01062C21.4634 3.2159 21.3626 3.39869 21.2547 3.57585C21.127 3.78536 21.0035 3.99767 20.8587 4.19452C20.6457 4.48416 20.4186 4.76537 20.19 5.04377C20.1645 5.0747 20.0935 5.06908 20.0424 5.08033C20.0339 5.03533 20.0069 4.9819 20.0225 4.94535C20.0921 4.77381 20.1616 4.60227 20.2525 4.44057C20.3916 4.19311 20.5378 3.94846 20.6968 3.71364C20.8842 3.43665 21.09 3.17232 21.2902 2.89814H21.2888ZM10.6844 14.7315C10.7043 14.7188 10.7228 14.7076 10.7426 14.6949C10.6887 14.5937 10.6319 14.4938 10.5837 14.3898C10.48 14.169 10.3877 13.9441 10.2784 13.7261C9.99168 13.1553 9.69499 12.59 9.40681 12.0192C9.21942 11.648 9.04765 11.2698 8.85601 10.9014C8.68992 10.5808 8.50395 10.2687 8.33076 9.95089C8.1888 9.69077 8.0653 9.42221 7.91198 9.16912C7.70046 8.81761 7.47332 8.47453 7.24619 8.13146C6.96795 7.71105 6.68829 7.29345 6.40012 6.88007C6.12329 6.48216 5.85357 6.07862 5.54836 5.7018C5.16791 5.23359 4.75765 4.78927 4.3559 4.33793C4.29202 4.26622 4.20117 4.22264 4.1458 4.34496C4.05211 4.54884 3.97119 4.75975 3.89454 4.94254C4.05353 5.0494 4.21394 5.12111 4.32609 5.23781C4.62563 5.54573 4.91522 5.86491 5.18778 6.19533C5.55546 6.63964 5.90752 7.0966 6.25816 7.55498C6.29932 7.60841 6.29081 7.70121 6.305 7.77573C6.28371 7.78416 6.26241 7.79119 6.24112 7.79963C5.34678 6.98834 4.59439 6.05191 3.81362 5.11267C3.6745 5.43043 3.53112 5.75804 3.3849 6.09549C3.43033 6.09549 3.48285 6.07862 3.50841 6.09831C3.76535 6.2825 4.03366 6.45685 4.26789 6.66635C4.60007 6.96443 4.90954 7.28783 5.22469 7.60278C5.46319 7.8404 5.70451 8.07521 5.92597 8.3283C6.19001 8.62779 6.43702 8.94275 6.68403 9.2563C6.99776 9.65421 7.31291 10.0507 7.61103 10.4613C7.85804 10.803 8.07807 11.1643 8.31372 11.5144C8.609 11.9545 8.90853 12.3932 9.20523 12.8319C9.25065 12.8994 9.2904 12.9697 9.33299 13.0386C9.34861 13.0301 9.3628 13.0217 9.37842 13.0133C9.35145 12.9612 9.33015 12.9078 9.29892 12.8572C9.16548 12.6421 9.0221 12.4312 8.89434 12.2118C8.74386 11.9559 8.609 11.6902 8.46278 11.4315C8.19306 10.9562 7.9205 10.4838 7.64652 10.0113C7.52443 9.80184 7.40093 9.59234 7.27458 9.38566C7.12694 9.14241 6.97079 8.90479 6.82457 8.66013C6.76495 8.5589 6.71384 8.45063 6.67694 8.33955C6.66132 8.29034 6.68261 8.22285 6.70533 8.17083C6.70959 8.15958 6.80896 8.16239 6.83167 8.1877C6.94666 8.31846 7.06306 8.45063 7.15676 8.59686C7.36544 8.91884 7.56134 9.25067 7.76434 9.57688C7.93895 9.85949 8.1306 10.1323 8.29101 10.4219C8.56925 10.9309 8.82194 11.454 9.09876 11.9629C9.3046 12.3412 9.53883 12.7053 9.75319 13.0793C9.95335 13.4295 10.1422 13.7852 10.3381 14.1367C10.4488 14.3364 10.568 14.5318 10.683 14.7286L10.6844 14.7315ZM21.2292 12.7911C21.2391 12.808 21.249 12.8234 21.259 12.8403C21.2774 12.8403 21.2987 12.8473 21.3115 12.8403C21.6508 12.6547 21.9816 12.4537 22.3279 12.2835C22.7311 12.0867 23.147 11.9165 23.5573 11.7366C23.8625 11.6016 24.162 11.454 24.4744 11.3387C24.8619 11.1952 25.2594 11.0771 25.6526 10.9534C25.735 10.9267 25.8329 10.8845 25.9081 10.9056C26.1509 10.9689 26.1608 10.8072 26.1651 10.6581C26.1679 10.5639 26.1253 10.4669 26.1012 10.3713C26.0728 10.2588 26.0018 10.2588 25.9138 10.3052C25.5987 10.4711 25.2736 10.6061 24.9158 10.6666C24.7753 10.6905 24.7143 10.6666 24.7015 10.5231C25.0862 10.3122 25.4695 10.1013 25.8499 9.89324C25.8641 9.60219 25.8797 9.29145 25.8954 8.96524C25.8471 8.98633 25.7846 9.02711 25.7165 9.04258C25.6469 9.05805 25.5717 9.05101 25.4993 9.05383C25.5178 8.9779 25.5107 8.86823 25.5603 8.83167C25.6952 8.72903 25.8542 8.65592 26.0416 8.55046C25.9848 8.37611 25.9223 8.16942 25.8485 7.96695C25.813 7.86993 25.7378 7.85868 25.6526 7.92336C25.4056 8.10896 25.1472 8.2819 24.9102 8.47875C24.4531 8.85839 24.0002 9.24364 23.5559 9.63874C23.0505 10.0887 22.5636 10.5569 22.0568 11.0054C21.5315 11.4708 20.9935 11.9194 20.4654 12.3805C20.3973 12.441 20.3504 12.5254 20.2937 12.5985L20.332 12.6322C20.3902 12.59 20.4541 12.5535 20.508 12.5057C20.799 12.2526 21.0844 11.9925 21.3796 11.7436C21.6721 11.4975 21.9745 11.2655 22.2697 11.0237C22.4514 10.8761 22.6204 10.7144 22.8078 10.5752C22.9923 10.4388 23.191 10.3221 23.3884 10.204C23.9008 9.89745 24.4147 9.59375 24.93 9.29145C24.9584 9.27458 25.0024 9.28582 25.0379 9.28301C25.0308 9.31676 25.0365 9.36035 25.0152 9.38144C24.9471 9.44893 24.8718 9.5122 24.7938 9.56844C24.5979 9.71186 24.3991 9.84965 24.2018 9.99166C23.9292 10.1885 23.6538 10.3811 23.3869 10.585C23.2251 10.7087 23.0789 10.8522 22.9199 10.9787C22.565 11.2613 22.2044 11.5397 21.8467 11.8195C21.6905 11.9419 21.5344 12.0642 21.3796 12.1893C21.1923 12.3412 21.0091 12.4972 20.8246 12.6519C20.8345 12.666 20.8445 12.68 20.8544 12.6941C20.8956 12.6814 20.9424 12.6786 20.9765 12.6561C21.1908 12.5127 21.4024 12.3623 21.6167 12.2188C21.9574 11.9911 22.2882 11.7492 22.6431 11.5453C23.0391 11.3176 23.4537 11.1193 23.8668 10.9225C24.013 10.8536 24.1791 10.8254 24.3352 10.7776C24.3409 10.7973 24.348 10.817 24.3537 10.8353C23.3117 11.4877 22.2697 12.1401 21.2277 12.7925L21.2292 12.7911ZM1.97809 9.33363C1.99654 9.30129 2.01642 9.26895 2.03487 9.23661C2.17115 9.28864 2.32021 9.31957 2.44229 9.39409C2.8554 9.64999 3.2614 9.91574 3.66456 10.1857C4.00526 10.4149 4.34313 10.6511 4.67247 10.8972C4.88683 11.0574 5.08273 11.243 5.28715 11.416C5.68322 11.7534 6.07787 12.0923 6.47677 12.4269C6.55201 12.4902 6.63719 12.5394 6.7181 12.5957C6.70249 12.5071 6.66842 12.4438 6.61873 12.3988C6.29081 12.105 5.95862 11.8167 5.62928 11.5243C5.16365 11.1081 4.70086 10.6891 4.23382 10.2743C3.77245 9.86371 3.31818 9.44752 2.84404 9.05242C2.38125 8.66716 1.89433 8.30862 1.42303 7.93461C1.3265 7.85728 1.25551 7.87275 1.21719 7.97539C1.14337 8.17645 1.08375 8.38173 1.0369 8.52796C1.2399 8.65029 1.40741 8.73887 1.55647 8.85135C1.59338 8.87947 1.57066 8.98352 1.57634 9.05242C1.5153 9.05382 1.45142 9.0707 1.39606 9.05523C1.31372 9.03133 1.23848 8.98633 1.17744 8.95681C1.19589 9.2802 1.21293 9.60218 1.22854 9.89183C1.5877 10.0859 1.93408 10.2687 2.27478 10.4641C2.32021 10.4894 2.33157 10.5738 2.35996 10.63C2.2975 10.6427 2.22652 10.6792 2.17257 10.6623C1.83897 10.5569 1.51104 10.4374 1.17886 10.3291C1.12633 10.3122 1.01844 10.3136 1.00993 10.3361C0.96308 10.4543 0.923331 10.5822 0.916233 10.7073C0.913394 10.7664 0.981535 10.8648 1.03832 10.8831C1.31088 10.9661 1.59338 11.0139 1.86452 11.0996C2.2691 11.229 2.66801 11.3752 3.06549 11.5214C3.22165 11.5791 3.36929 11.6578 3.5226 11.7267C3.92009 11.9039 4.32041 12.074 4.71364 12.261C5.04866 12.4199 5.37375 12.5999 5.7031 12.77C5.67612 12.7152 5.63637 12.6716 5.58953 12.6407C5.09267 12.3032 4.59723 11.9658 4.09612 11.6325C3.96268 11.5439 3.81646 11.4708 3.67308 11.3963C3.44594 11.2782 3.21171 11.1699 2.98742 11.0462C2.88237 10.9886 2.79435 10.9028 2.69924 10.8283C2.71486 10.8044 2.73189 10.7805 2.74751 10.7551C4.04359 11.1502 5.12106 11.9433 6.23402 12.6772C6.11336 12.545 5.97566 12.4382 5.84221 12.3271C5.60088 12.126 5.36807 11.9137 5.12106 11.7197C4.7903 11.4582 4.44676 11.2121 4.11315 10.9548C3.71993 10.6511 3.33238 10.3404 2.93631 10.0395C2.79861 9.93401 2.6382 9.85809 2.49908 9.75404C2.32021 9.62047 2.15128 9.47283 1.97809 9.33222V9.33363ZM14.073 14.2942C14.073 14.2942 14.0844 14.2942 14.0886 14.2956C14.1085 14.1578 14.1284 14.0186 14.1468 13.8808C14.1766 13.6615 14.1951 13.4393 14.2377 13.2228C14.3044 12.8839 14.3967 12.5507 14.4634 12.2118C14.5202 11.9264 14.5471 11.6367 14.6068 11.3513C14.6479 11.1545 14.736 10.9661 14.7785 10.7692C14.8907 10.249 14.9872 9.72592 15.0923 9.20287C15.1391 8.97227 15.1931 8.74449 15.2357 8.5125C15.2655 8.34939 15.2669 8.18207 15.2995 8.02038C15.3592 7.72792 15.433 7.43968 15.4969 7.14863C15.5764 6.78306 15.6402 6.41467 15.7325 6.05191C15.8163 5.72149 15.9298 5.3995 16.0249 5.07189C16.1371 4.68382 16.2379 4.29294 16.3543 3.90628C16.4437 3.60819 16.5488 3.31433 16.6467 3.01765C16.7404 2.73363 16.8213 2.44539 16.9321 2.1684C17.0669 1.83235 17.2259 1.50474 17.3721 1.18135C17.1521 1.11246 16.9349 1.04356 16.7191 0.974662C16.5374 1.44147 16.3429 1.90406 16.1783 2.37649C15.9738 2.96 15.7794 3.54773 15.6076 4.14109C15.4344 4.74287 15.2782 5.35169 15.1476 5.96333C15.0014 6.64667 14.8878 7.33704 14.7714 8.026C14.6905 8.50265 14.6309 8.98212 14.5599 9.46018C14.4932 9.91433 14.4236 10.3671 14.3555 10.8198C14.3143 11.0968 14.2661 11.3724 14.2334 11.6508C14.1923 12.0009 14.1568 12.351 14.1284 12.7011C14.1028 13.0344 14.0858 13.3676 14.073 13.7008C14.0659 13.8963 14.0716 14.0931 14.0716 14.2886L14.073 14.2942ZM12.9927 14.3279C12.9927 14.1353 12.997 13.9356 12.9927 13.736C12.9842 13.4154 12.9842 13.0948 12.9544 12.777C12.9132 12.3285 12.8522 11.8828 12.7968 11.4371C12.7357 10.9492 12.6775 10.4613 12.6052 9.97479C12.5484 9.58813 12.4703 9.20428 12.4064 8.81902C12.3383 8.40986 12.2758 8.00069 12.2091 7.59153C12.1211 7.05583 12.043 6.51872 11.9365 5.98723C11.8584 5.59775 11.7477 5.21531 11.6412 4.83286C11.461 4.1903 11.292 3.54352 11.0805 2.90939C10.8619 2.25417 10.6007 1.61301 10.3608 0.973255C10.1436 1.04496 9.92212 1.11667 9.69073 1.1926C9.80146 1.42741 9.92638 1.658 10.0201 1.90125C10.1649 2.27807 10.2912 2.66333 10.4218 3.04577C10.4814 3.22153 10.5354 3.39869 10.5936 3.57445C10.6901 3.86409 10.7938 4.15093 10.8832 4.44198C10.9925 4.79912 11.0919 5.15907 11.1898 5.52042C11.2991 5.92396 11.4198 6.32609 11.5035 6.73525C11.6313 7.35813 11.725 7.98804 11.8428 8.61373C11.9067 8.95118 11.9976 9.28301 12.0671 9.62046C12.1495 10.017 12.1878 10.4261 12.3113 10.8086C12.4632 11.2768 12.5512 11.7506 12.6108 12.2329C12.6151 12.2695 12.6264 12.3046 12.635 12.3412C12.7088 12.6716 12.7911 13.002 12.8522 13.3352C12.9004 13.594 12.9231 13.8583 12.9586 14.1198C12.9686 14.1943 12.9828 14.2675 12.9927 14.3307V14.3279ZM9.57148 13.9652C9.58284 13.9567 9.59562 13.9483 9.60697 13.9384C9.27905 13.4801 8.9497 13.0231 8.62461 12.5633C8.25978 12.0459 7.90346 11.5229 7.54005 11.0068C7.32143 10.6975 7.09429 10.3966 6.87142 10.0901C6.6457 9.77935 6.43703 9.45455 6.19427 9.15787C5.84648 8.73184 5.47454 8.32268 5.1097 7.9093C5.03731 7.82635 4.95213 7.75323 4.87263 7.6759C4.57736 7.38485 4.28634 7.08817 3.98255 6.80555C3.75542 6.59465 3.51125 6.40061 3.25998 6.18689C3.14499 6.32468 3.01297 6.48497 2.87385 6.6537C3.07969 6.82242 3.35651 6.92225 3.47292 7.18659C3.46156 7.20206 3.44878 7.21753 3.43743 7.23299C3.20035 7.07833 2.9647 6.92225 2.83268 6.83649C2.66375 6.97428 2.52179 7.08957 2.37699 7.20768C2.39829 7.21752 2.45223 7.24284 2.50618 7.26814C2.63252 7.3286 2.77022 7.3736 2.88379 7.45234C3.15067 7.63793 3.41471 7.83056 3.66456 8.03725C3.96835 8.28893 4.26647 8.55046 4.55181 8.82324C4.88399 9.14241 5.21618 9.46439 5.51855 9.81169C6.04664 10.4191 6.55343 11.0448 7.06732 11.6649C7.44635 12.1232 7.82254 12.583 8.20016 13.0414C8.28391 13.1426 8.36767 13.2424 8.45142 13.3423C8.46704 13.331 8.48265 13.3198 8.49969 13.3085C8.35915 13.0948 8.22287 12.8783 8.07807 12.6674C7.87649 12.3735 7.66639 12.0839 7.46197 11.7928C7.22632 11.4582 7.00344 11.1123 6.75217 10.7903C6.47251 10.4332 6.17298 10.0915 5.87203 9.75263C5.54836 9.38565 5.2176 9.0243 4.88115 8.66857C4.62279 8.39579 4.34881 8.13849 4.08618 7.87134C4.0365 7.82072 4.00101 7.75323 3.95984 7.69418C3.96977 7.68152 3.97971 7.66887 3.98823 7.65621C4.12309 7.71527 4.27925 7.75042 4.38997 7.8404C4.67531 8.071 4.94929 8.31705 5.21334 8.57014C5.52281 8.86823 5.8195 9.17896 6.1162 9.48829C6.37882 9.76247 6.64996 10.0324 6.88987 10.3263C7.14824 10.6413 7.37679 10.9801 7.61387 11.3119C8 11.8519 8.37619 12.4002 8.76941 12.9359C9.02636 13.286 9.30318 13.6207 9.57148 13.9623V13.9652ZM13.6414 11.4582C13.6741 11.4118 13.6855 11.4033 13.6855 11.3949C13.6727 10.6244 13.809 9.86793 13.9126 9.10866C13.9623 8.74168 14.0219 8.37611 14.0716 8.01054C14.1355 7.54795 14.1823 7.08395 14.2576 6.62417C14.3243 6.20798 14.4208 5.79601 14.5003 5.38122C14.5486 5.12673 14.5826 4.86942 14.6323 4.61492C14.6763 4.39136 14.7388 4.17202 14.78 3.94986C14.8225 3.71927 14.8396 3.48586 14.8864 3.25668C14.9489 2.94735 15.0241 2.63943 15.1008 2.33291C15.1789 2.02217 15.2498 1.70721 15.3535 1.40491C15.4528 1.11527 15.5905 0.839679 15.7169 0.541596C15.5551 0.530348 15.3762 0.547222 15.2882 0.679391C15.1022 0.956382 14.9091 1.24322 14.8027 1.55536C14.6139 2.11075 14.4804 2.68442 14.3356 3.25246C14.2235 3.69537 14.1312 4.1439 14.0262 4.58962C13.9381 4.96925 13.8416 5.34607 13.7579 5.72711C13.7266 5.86912 13.6954 6.01816 13.6982 6.16158C13.711 6.68744 13.7579 7.2119 13.7579 7.73776C13.7579 8.29737 13.7167 8.85838 13.694 9.41799C13.6755 9.90167 13.6556 10.3854 13.6414 10.869C13.6358 11.0546 13.6414 11.2388 13.6414 11.461V11.4582ZM13.3377 10.3572C13.349 10.173 13.376 9.94386 13.3746 9.71467C13.3746 9.24505 13.3575 8.77543 13.3504 8.30581C13.3462 7.99788 13.3476 7.68996 13.3448 7.38203C13.3419 7.03896 13.3263 6.69729 13.3348 6.35421C13.3405 6.10675 13.4384 5.85365 13.2695 5.62166C13.2482 5.59353 13.244 5.55136 13.2369 5.5148C13.1886 5.27155 13.1489 5.0283 13.0949 4.78646C13.0069 4.38855 12.9118 3.99204 12.8167 3.59554C12.6917 3.07249 12.5654 2.55085 12.432 2.03061C12.3965 1.89422 12.3425 1.75924 12.2801 1.63269C12.1225 1.31352 11.9649 0.992941 11.7889 0.685016C11.7207 0.565502 11.4539 0.523321 11.3857 0.558472C11.5234 0.939512 11.6654 1.31352 11.7917 1.69175C11.8712 1.93218 11.9308 2.17965 11.9933 2.42571C12.0799 2.76738 12.1736 3.10904 12.2403 3.45493C12.2985 3.7488 12.3113 4.0525 12.3681 4.34637C12.4547 4.79912 12.5668 5.24624 12.6577 5.69899C12.7074 5.94083 12.74 6.18689 12.7755 6.43295C12.8493 6.95459 12.9217 7.47764 12.9913 8.0007C13.0225 8.2341 13.0367 8.47031 13.0722 8.70231C13.1233 9.02852 13.1914 9.35332 13.244 9.67952C13.2837 9.91995 13.3093 10.1632 13.3348 10.3586L13.3377 10.3572ZM15.9313 0.537378C15.9185 0.675171 15.9227 0.758129 15.9 0.832649C15.812 1.1223 15.7084 1.40772 15.626 1.69878C15.4841 2.1923 15.3521 2.69004 15.2215 3.18638C15.1845 3.32698 15.1774 3.47602 15.1462 3.61803C15.1093 3.79238 15.0539 3.96392 15.0199 4.13827C14.8822 4.82865 14.7473 5.51901 14.6181 6.21079C14.5074 6.80274 14.4095 7.39609 14.3044 7.98944C14.2831 8.11036 14.2519 8.22988 14.2348 8.35221C14.2008 8.60811 14.1823 8.86682 14.1426 9.12132C14.0971 9.40674 14.0148 9.68796 13.985 9.97479C13.9452 10.3558 13.9438 10.7411 13.9211 11.1249C13.8998 11.4933 13.8657 11.8603 13.8501 12.2287C13.843 12.4185 13.8643 12.6097 13.8743 12.8319C13.914 12.6378 13.9623 12.4832 13.9765 12.3257C14.002 12.0375 13.9949 11.7464 14.0233 11.4596C14.0716 10.9731 14.1341 10.488 14.1979 10.0043C14.249 9.61625 14.3101 9.23099 14.3754 8.84433C14.3924 8.74028 14.4506 8.64186 14.4677 8.53781C14.5131 8.24113 14.5429 7.94304 14.5855 7.64637C14.6522 7.19503 14.7061 6.74087 14.7984 6.29375C14.9063 5.77351 15.0355 5.25749 15.1803 4.74709C15.3592 4.11999 15.5579 3.49852 15.7595 2.87705C15.8589 2.57193 15.9852 2.27526 16.0988 1.97436C16.2407 1.59754 16.3813 1.22072 16.5261 0.834057C16.3585 0.7511 16.1541 0.648459 15.9298 0.535975L15.9313 0.537378ZM10.5084 0.855147C10.612 1.0534 10.7284 1.23338 10.8037 1.42741C10.9669 1.85485 11.1089 2.28932 11.2608 2.72097C11.3403 2.94735 11.4269 3.17091 11.4993 3.39869C11.6072 3.73896 11.7037 4.08203 11.8059 4.4223C11.8755 4.65289 11.955 4.88067 12.0174 5.11407C12.0657 5.29264 12.0941 5.47683 12.131 5.65822C12.2034 6.01535 12.2815 6.37249 12.3468 6.73103C12.4036 7.04177 12.4433 7.35532 12.5001 7.66605C12.5626 8.01476 12.6492 8.36064 12.7003 8.71075C12.7812 9.25067 12.8408 9.79481 12.9089 10.3375C12.9714 10.8409 13.0367 11.3443 13.0935 11.8476C13.1261 12.1373 13.1418 12.4283 13.1645 12.718C13.1801 12.718 13.1971 12.718 13.2127 12.718C13.2127 12.5422 13.2213 12.3665 13.2113 12.1921C13.1858 11.7605 13.1403 11.3302 13.1261 10.8986C13.1091 10.405 13.0623 9.91714 12.9742 9.43205C12.8905 8.97227 12.8195 8.50968 12.7485 8.04709C12.6974 7.71105 12.6676 7.37219 12.6094 7.03896C12.5171 6.51028 12.4078 5.98442 12.3056 5.45715C12.2417 5.12814 12.1807 4.80052 12.1154 4.47151C12.0771 4.27747 12.0288 4.08625 11.9905 3.89222C11.9521 3.69818 11.928 3.50133 11.8854 3.30871C11.8357 3.08093 11.7775 2.85455 11.7165 2.62818C11.6114 2.24573 11.505 1.86328 11.3928 1.48365C11.3048 1.18416 11.2069 0.888894 11.1032 0.558472C10.9258 0.647053 10.7157 0.751098 10.5084 0.853739V0.855147ZM20.0367 12.2217C20.0466 12.2259 20.0566 12.2301 20.0679 12.2343C20.1744 12.1528 20.2866 12.0754 20.3873 11.9868C20.7366 11.6789 21.0773 11.3612 21.4293 11.056C21.8935 10.6511 22.3691 10.2574 22.8333 9.85106C23.2762 9.46299 23.7106 9.06648 24.1493 8.67419C24.3437 8.50125 24.5311 8.31987 24.7398 8.1652C25.0124 7.96273 25.302 7.78416 25.5916 7.58872C25.4468 7.37219 25.1969 7.35813 24.984 7.29907C24.913 7.27939 24.7952 7.38484 24.7128 7.45093C24.4247 7.68012 24.1351 7.9079 23.8597 8.15114C23.5928 8.38736 23.3415 8.64045 23.0817 8.8851C22.866 9.08757 22.6417 9.2816 22.4344 9.49251C22.1846 9.7456 21.9489 10.0128 21.7061 10.2757C21.4222 10.5836 21.1341 10.8887 20.8558 11.2023C20.7167 11.3597 20.5974 11.5341 20.4654 11.6986C20.3249 11.8744 20.1801 12.0473 20.0381 12.2217H20.0367ZM6.9495 12.1654C6.93246 12.1204 6.9282 12.0867 6.91117 12.067C6.61873 11.7239 6.3263 11.3808 6.0296 11.0406C5.79395 10.7706 5.55404 10.5063 5.31129 10.2419C5.14094 10.0563 4.96207 9.87637 4.7903 9.69217C4.59439 9.48127 4.41269 9.2563 4.20401 9.05804C3.8775 8.7459 3.5368 8.44641 3.19468 8.15114C2.86391 7.86572 2.52179 7.59153 2.18393 7.31313C2.16689 7.29907 2.13282 7.28642 2.11437 7.29204C1.89859 7.36797 1.63881 7.3511 1.49543 7.56904C1.70837 7.72933 1.91847 7.87555 2.11721 8.03725C2.62542 8.44782 3.13363 8.85557 3.63049 9.27879C4.06347 9.64718 4.47657 10.0381 4.90529 10.4107C5.57817 10.9956 6.25673 11.5721 6.95092 12.1682L6.9495 12.1654ZM26.5228 11.842C25.62 12.0712 24.7256 12.2582 23.8568 12.5282C22.9824 12.7995 22.1334 13.1539 21.2732 13.4716C21.2789 13.4913 21.286 13.511 21.2916 13.5321C21.5912 13.4941 21.8921 13.4632 22.1917 13.4154C22.4429 13.3746 22.6899 13.3015 22.9412 13.2664C23.3827 13.2045 23.827 13.1707 24.2671 13.1089C24.7242 13.0456 25.1841 12.9823 25.6342 12.8839C25.9152 12.822 26.1906 12.7208 26.3908 12.4832C26.5867 12.2498 26.6406 12.015 26.5214 11.842H26.5228ZM0.530104 11.8547C0.518748 11.8955 0.500293 11.9503 0.487516 12.0065C0.429313 12.2596 0.757239 12.6055 0.940366 12.6997C1.31372 12.8923 1.72256 12.9514 2.13566 13.0048C2.55728 13.0597 2.97464 13.1398 3.39484 13.1989C3.64895 13.234 3.90731 13.2368 4.16 13.2762C4.54329 13.3367 4.92232 13.4224 5.30561 13.4843C5.42769 13.504 5.55688 13.4871 5.68322 13.4871C5.6889 13.4688 5.69316 13.4505 5.69884 13.4323C4.85418 13.1243 4.02088 12.7799 3.16203 12.5183C2.30459 12.2568 1.42303 12.0768 0.528686 11.8547H0.530104ZM26.0913 11.1418C24.2444 11.5735 22.5338 12.3665 20.8927 13.3268C20.9708 13.3184 21.0475 13.3015 21.117 13.2706C21.3669 13.1581 21.6068 13.0231 21.8623 12.9289C22.4671 12.7081 23.0789 12.5043 23.6893 12.2976C23.8469 12.2442 24.0087 12.1992 24.1691 12.1542C24.409 12.0867 24.649 12.015 24.8917 11.9545C25.2267 11.873 25.5632 11.7942 25.901 11.7267C26.0629 11.6944 26.229 11.6902 26.4007 11.6733C26.2943 11.4891 26.1921 11.3133 26.0913 11.1404V11.1418ZM6.15027 13.3521C6.15878 13.3381 6.16588 13.324 6.1744 13.3113C4.52909 12.3721 2.82416 11.5707 0.975856 11.1559C0.875065 11.3288 0.775694 11.4989 0.694777 11.641C0.955982 11.6888 1.21861 11.7267 1.47697 11.7886C1.97383 11.9067 2.47211 12.0248 2.96186 12.1682C3.36077 12.2849 3.74974 12.4326 4.14013 12.5732C4.63272 12.7503 5.1239 12.9303 5.61366 13.1159C5.79679 13.1848 5.9714 13.2748 6.15027 13.3549V13.3521ZM11.3502 15.8324C11.3701 15.8211 11.39 15.8085 11.4099 15.7972C11.248 15.5413 11.0848 15.2854 10.9229 15.0295C10.9016 15.0436 10.8789 15.0563 10.8576 15.0703C11.0223 15.3248 11.187 15.5779 11.3516 15.8324H11.3502ZM18.0024 13.9989C18.292 13.892 18.346 13.5841 18.5632 13.4154C18.5447 13.3999 18.5277 13.3845 18.5092 13.369C18.3403 13.5785 18.1714 13.788 18.0024 13.9989Z" fill="#FEDFBE"/>
<path d="M7.59056 1.84656C7.69135 2.04341 7.7964 2.23744 7.89152 2.4371C8.00792 2.68176 8.11581 2.92922 8.22796 3.17528C8.36708 3.4832 8.51046 3.78972 8.64248 4.10046C8.79012 4.44916 8.92498 4.80208 9.06552 5.15219C9.22735 5.55291 9.39061 5.95364 9.55386 6.35436C9.69014 6.68619 9.83494 7.0138 9.9627 7.34703C10.0507 7.57903 10.1217 7.81806 10.1898 8.05709C10.204 8.10489 10.1685 8.16535 10.1558 8.22019C10.1018 8.18644 10.0223 8.16395 9.99677 8.11473C9.8903 7.90805 9.79803 7.69151 9.70149 7.4792C9.52547 7.09254 9.34234 6.70728 9.17767 6.3164C8.9988 5.89177 8.83696 5.45871 8.66519 5.02986C8.56724 4.7838 8.45651 4.54337 8.36566 4.2959C8.28616 4.08359 8.2379 3.86003 8.15556 3.64771C8.00934 3.27371 7.84609 2.90532 7.69277 2.53412C7.62747 2.37524 7.56217 2.21495 7.51107 2.05185C7.49261 1.9956 7.51532 1.92811 7.51816 1.86625C7.5423 1.85922 7.56643 1.85219 7.58914 1.84375L7.59056 1.84656Z" fill="#FEDFBE"/>
<path d="M13.4798 21.0268C13.5309 21.0296 13.5792 21.031 13.6317 21.0338C13.6374 21.0142 13.6445 20.9973 13.6473 20.9804C13.6587 20.8651 13.6686 20.7484 13.6786 20.6331C13.6942 20.4433 13.6998 20.2535 13.7254 20.0651C13.768 19.7459 13.8191 19.4281 13.8759 19.1118C13.9525 18.6928 14.0349 18.2752 14.1215 17.8576C14.1584 17.6776 14.1953 17.4948 14.2563 17.3205C14.4111 16.8776 14.5573 16.429 14.7532 16.0044C14.8483 15.7991 15.003 15.6191 15.2671 15.532C15.8079 15.3534 16.2878 15.4575 16.7576 15.7274C16.955 15.8413 17.1509 15.9707 17.3652 16.0396C17.5356 16.0944 17.7315 16.0789 17.916 16.0733C18.2383 16.0635 18.4825 16.1788 18.6613 16.4487C18.7479 16.5809 18.843 16.7229 18.9694 16.8073C19.0844 16.8846 19.2561 16.9408 19.3881 16.9197C19.9602 16.8298 20.4003 17.0477 20.7382 17.4709C20.9327 17.7128 21.1967 17.8224 21.4466 17.9687C21.722 18.1289 22.0002 18.2864 22.2671 18.458C22.463 18.5845 22.6603 18.7167 22.8307 18.8742C23.1032 19.1244 23.3218 19.4211 23.4723 19.7642C23.6782 20.2366 23.8712 20.7175 24.1125 21.1716C24.2275 21.3882 24.4405 21.5527 24.6108 21.7397C24.7116 21.8494 24.8252 21.9478 24.916 22.0659C25.0324 22.2149 25.173 22.3162 25.3561 22.3668C25.6982 22.4624 25.9282 22.6789 26.0929 22.9925C26.2206 23.2343 26.4023 23.4523 26.4023 23.7391C26.4023 23.9837 26.3952 24.2326 26.3541 24.473C26.2987 24.8035 26.3001 25.1269 26.4804 25.4081C26.6508 25.6738 26.7047 25.9424 26.6323 26.2405C26.5727 26.4823 26.6664 26.6679 26.8112 26.8563C27.1306 27.2725 27.1803 27.5973 26.9262 28.0683C26.5812 28.7053 26.0176 28.9738 25.3107 29.0287C24.8933 29.061 24.4802 29.151 24.0643 29.2044C23.7364 29.2466 23.4042 29.2663 23.0762 29.3028C22.7284 29.3408 22.3821 29.3844 22.0357 29.4294C21.722 29.4716 21.4068 29.5137 21.0945 29.5686C20.9241 29.5981 20.7566 29.6501 20.5905 29.6993C20.3237 29.7781 20.0568 29.8638 19.7913 29.9468C19.3839 30.0733 18.9722 30.1858 18.5719 30.3278C18.1503 30.4769 17.74 30.6554 17.3226 30.8171C16.7761 31.0295 16.3303 31.3866 15.9172 31.7873C15.6163 32.0798 15.3182 32.3779 15.0442 32.6956C14.5999 33.2088 14.2776 33.8008 14.1058 34.4518C13.971 34.9636 13.9114 35.4951 13.8276 36.0195C13.8134 36.1137 13.8517 36.2164 13.8603 36.3148C13.8787 36.5088 13.8049 36.5735 13.6118 36.537C13.5877 36.5327 13.5636 36.5285 13.538 36.5299C13.467 36.5313 13.3449 36.558 13.335 36.537C13.2938 36.4371 13.2768 36.3261 13.2655 36.2178C13.2555 36.1208 13.2725 36.0223 13.2612 35.9253C13.2371 35.7074 13.2285 35.4838 13.1703 35.2729C13.0397 34.7991 12.9815 34.3126 12.7828 33.8486C12.5571 33.3213 12.2064 32.8953 11.8615 32.4594C11.4384 31.9251 10.9231 31.478 10.3553 31.1096C9.9791 30.8664 9.53618 30.7159 9.11315 30.55C8.6532 30.37 8.18473 30.2111 7.71343 30.0593C7.38266 29.9524 7.04196 29.8779 6.70694 29.7837C6.54652 29.7387 6.39321 29.667 6.22996 29.6333C5.89635 29.5629 5.55991 29.5095 5.22488 29.4505C5.00485 29.4125 4.78481 29.3717 4.56194 29.3422C4.40294 29.3211 4.24111 29.3169 4.08069 29.3C3.53983 29.2424 3.00039 29.1875 2.46094 29.1214C2.10462 29.0779 1.74972 29.023 1.39483 28.964C0.797178 28.8641 0.394015 28.5042 0.13281 27.9854C-0.0645134 27.5931 0.0107255 27.212 0.277609 26.8746C0.426666 26.6862 0.527456 26.5118 0.472092 26.2503C0.40821 25.948 0.457897 25.6541 0.635346 25.3743C0.818474 25.0847 0.802857 24.7641 0.738976 24.4238C0.665157 24.0273 0.633926 23.6125 0.876676 23.2399C0.951915 23.1246 1.00728 22.9995 1.07968 22.8828C1.23441 22.6311 1.44167 22.4399 1.74405 22.3822C2.00951 22.3316 2.14579 22.1151 2.3204 21.9506C2.50779 21.7734 2.6895 21.585 2.84281 21.3783C2.98193 21.1927 3.09408 20.9832 3.19487 20.7737C3.40497 20.3379 3.56254 19.8725 3.81097 19.4605C3.99836 19.1483 4.25956 18.8573 4.54916 18.6337C4.89838 18.3638 5.29728 18.1472 5.69903 17.9588C6.04399 17.7971 6.31797 17.5637 6.55362 17.2881C6.8489 16.9408 7.23503 16.8902 7.64245 16.9099C7.94766 16.924 8.18473 16.8466 8.35224 16.5851C8.42464 16.4712 8.50556 16.3559 8.60777 16.2687C8.77244 16.1253 8.96977 16.0522 9.19832 16.0775C9.63555 16.1267 10.0046 15.9482 10.361 15.7288C10.9075 15.39 11.4782 15.3295 12.0517 15.6388C12.1908 15.7134 12.3101 15.8821 12.3697 16.0325C12.5883 16.5907 12.8027 17.1517 12.9716 17.7254C13.0923 18.1332 13.1405 18.562 13.2143 18.9838C13.2839 19.3817 13.3549 19.7797 13.4088 20.1804C13.4457 20.4546 13.4557 20.733 13.4784 21.031L13.4798 21.0268ZM23.7321 21.5513C23.6867 21.6539 23.6682 21.7833 23.593 21.8536C23.2196 22.1995 22.8193 22.5186 22.4516 22.8701C22.1847 23.1261 21.9548 23.4185 21.7078 23.6941C21.4309 24.0048 21.1442 24.3057 20.883 24.6291C20.5834 25.0003 20.2995 25.3856 20.0241 25.775C19.5585 26.4317 19.1071 27.0995 18.6443 27.759C18.3405 28.192 18.0253 28.6181 17.7173 29.0497C17.6804 29.1004 17.6548 29.158 17.625 29.2128C17.9089 28.9176 18.1616 28.6054 18.4001 28.282C18.5804 28.036 18.7394 27.7759 18.9126 27.5256C19.0773 27.288 19.2504 27.0546 19.4194 26.8183C19.5159 26.6834 19.6068 26.5442 19.7076 26.412C19.9375 26.1153 20.1661 25.8172 20.406 25.5276C20.5579 25.3434 20.7254 25.1704 20.8915 24.9975C21.0519 24.8316 21.2152 24.6699 21.3841 24.5124C21.7319 24.1876 22.0783 23.86 22.4388 23.5493C22.595 23.4143 22.7838 23.3173 22.9584 23.2048C22.9897 23.1851 23.0251 23.1725 23.0592 23.157C23.045 23.2034 23.0393 23.2568 23.0124 23.2934C22.9811 23.337 22.9258 23.3637 22.8889 23.4044C22.3835 23.943 21.8682 24.4744 21.377 25.0242C20.9341 25.5206 20.5068 26.031 20.0908 26.5498C19.8864 26.8057 19.7303 27.0981 19.5443 27.3667C19.2661 27.7688 18.9807 28.1653 18.6996 28.5661C18.6684 28.611 18.6542 28.6659 18.6315 28.7165C18.6883 28.7193 18.7153 28.7053 18.7337 28.6842C18.9765 28.3945 19.2164 28.1035 19.4591 27.8152C19.6976 27.5326 19.9432 27.257 20.1789 26.9716C20.4756 26.6117 20.7581 26.2419 21.0562 25.8833C21.3287 25.5557 21.6126 25.2365 21.8937 24.916C22.0343 24.7557 22.1691 24.5897 22.3267 24.4477C22.6844 24.1215 23.0535 23.808 23.4198 23.4902C23.5362 23.389 23.6512 23.2835 23.7789 23.1992C24.0132 23.0431 24.2559 22.8997 24.4987 22.7549C24.581 22.7056 24.6719 22.6677 24.7712 22.6185C24.6208 22.475 24.4873 22.3499 24.3439 22.2135C24.1466 22.3358 23.9365 22.4666 23.7264 22.5974C23.7108 22.5763 23.6952 22.5552 23.6796 22.5341C23.8627 22.3837 24.0458 22.2332 24.2275 22.0828C24.06 21.9042 23.8954 21.7284 23.7307 21.5541C23.5802 21.2251 23.4297 20.8946 23.2764 20.5572C22.49 21.4964 21.7432 22.4399 20.8077 23.2301C20.7879 23.1415 20.7808 23.0529 20.8191 22.9981C21.0207 22.7169 21.2265 22.4399 21.4437 22.1713C21.7305 21.817 22.0243 21.4697 22.3239 21.1266C22.5751 20.8384 22.8307 20.5502 23.2097 20.3772C23.1117 20.1537 23.0152 19.9315 22.9031 19.67C22.7114 19.85 22.534 19.992 22.3877 20.1593C22.0399 20.5586 21.6865 20.9551 21.3699 21.3783C20.9639 21.9211 20.5877 22.4877 20.203 23.0459C20.0028 23.337 19.8069 23.6322 19.621 23.9317C19.3796 24.3198 19.1426 24.7121 18.914 25.1072C18.7607 25.3715 18.623 25.6443 18.4824 25.9157C18.2525 26.36 18.0225 26.8043 17.7968 27.2514C17.6009 27.6395 17.4135 28.0318 17.219 28.4198C17.0103 28.836 16.8002 29.2522 16.5816 29.6642C16.3985 30.0101 16.2083 30.3517 16.0166 30.692C15.9116 30.8776 15.7952 31.0562 15.6844 31.2376L15.7228 31.2657C15.7895 31.1869 15.8704 31.1166 15.9215 31.0295C16.0833 30.7539 16.231 30.4713 16.3886 30.1929C16.6128 29.7992 16.8414 29.4097 17.0657 29.016C17.3439 28.5267 17.6222 28.0374 17.8962 27.5453C18.0381 27.2908 18.1645 27.0292 18.3064 26.7733C18.4569 26.5006 18.6187 26.2348 18.772 25.9635C18.9055 25.7272 19.0233 25.4826 19.1653 25.252C19.3143 25.0116 19.4889 24.7866 19.6465 24.5504C19.8367 24.2678 20.017 23.9781 20.2101 23.6983C20.2427 23.6519 20.3208 23.6379 20.379 23.6083C20.3819 23.6871 20.4145 23.7827 20.3819 23.8417C20.1803 24.2101 19.9631 24.5673 19.7544 24.9314C19.5017 25.3715 19.259 25.8186 19.002 26.2573C18.5548 27.0208 18.0992 27.7801 17.6491 28.5422C17.6307 28.5731 17.6279 28.6111 17.6179 28.6462C17.6889 28.5829 17.7244 28.5042 17.7741 28.4353C18.031 28.0655 18.2979 27.7027 18.5477 27.3287C18.8146 26.928 19.0631 26.5146 19.3257 26.1125C19.4151 25.9747 19.5287 25.851 19.6266 25.7188C19.8069 25.4756 19.9744 25.2239 20.1632 24.9877C20.4429 24.639 20.7282 24.2959 21.0249 23.9612C21.3798 23.5605 21.739 23.1626 22.1166 22.783C22.4587 22.4399 22.8207 22.1151 23.1898 21.8001C23.3403 21.6722 23.4908 21.4993 23.7335 21.5485L23.7321 21.5513ZM11.9651 30.4656C12.046 30.7497 12.1269 31.0337 12.2093 31.3177C12.2306 31.3107 12.2533 31.3036 12.2746 31.2966C12.2192 31.1363 12.1667 30.9746 12.1085 30.8143C12.0645 30.6962 12.0119 30.5809 11.9637 30.4656C11.9679 30.4305 11.9836 30.3911 11.975 30.3588C11.8558 29.9285 11.7465 29.4955 11.6074 29.0722C11.3873 28.403 11.163 27.7351 10.9103 27.0785C10.6903 26.509 10.4263 25.955 10.1835 25.394C10.1353 25.2815 10.1012 25.1606 10.0472 25.0509C9.88115 24.7107 9.70512 24.3732 9.53902 24.033C9.52341 24.0006 9.54896 23.9472 9.55464 23.9036C9.57593 23.898 9.59865 23.8909 9.61994 23.8853C10.1679 24.5574 10.51 25.3462 10.845 26.1322C11.1886 26.935 11.4867 27.7576 11.7962 28.5492C11.7948 28.5618 11.8033 28.5436 11.799 28.5281C11.6386 28.0121 11.4881 27.4932 11.3135 26.9814C11.1531 26.5146 10.9643 26.0591 10.7925 25.5965C10.6704 25.2689 10.5484 24.9399 10.4362 24.608C10.3922 24.4801 10.3269 24.3395 10.4731 24.1862C10.9047 25.058 11.251 25.9396 11.5605 26.8338C11.8728 27.7309 12.1567 28.6392 12.452 29.5419C12.4336 29.3703 12.4009 29.2002 12.3612 29.0315C12.2575 28.5956 12.1511 28.1597 12.0418 27.7252C11.9665 27.4243 11.8813 27.1263 11.8089 26.824C11.799 26.7846 11.843 26.7326 11.8615 26.6862C11.887 26.6876 11.9126 26.689 11.9381 26.6904C12.2192 27.7829 12.5017 28.8768 12.7828 29.9693C12.7956 29.8751 12.7757 29.7851 12.7601 29.6951C12.6934 29.3099 12.6352 28.9232 12.5599 28.5393C12.4733 28.1021 12.3668 27.6676 12.2746 27.2303C12.1894 26.8268 12.1099 26.4218 12.0261 26.0183C11.8288 25.0706 11.6272 24.1243 11.4328 23.1753C11.3547 22.7984 11.305 22.4146 11.2141 22.0406C11.1233 21.6694 10.9969 21.3066 10.8876 20.9396C10.8493 20.8089 10.8167 20.6767 10.7797 20.5459C10.7073 20.283 10.6406 20.0187 10.5597 19.7586C10.4788 19.4998 10.378 19.2468 10.2957 18.9894C10.1963 18.6773 10.1211 18.3581 10.0103 18.0502C9.83572 17.5665 9.63981 17.0885 9.46095 16.6287C9.0734 16.4951 8.75115 16.5682 8.55241 16.9169C8.6248 17.0379 8.7114 17.1588 8.77386 17.2923C8.8704 17.4962 8.95557 17.7043 9.03365 17.9152C9.21678 18.4087 9.39281 18.9065 9.57451 19.4C9.6895 19.7122 9.7477 20.0398 9.86127 20.3547C10.0699 20.9368 10.2346 21.5358 10.4646 22.1123C10.581 22.4047 10.6747 22.707 10.7783 23.0037C10.8891 23.3173 11.0069 23.628 11.1077 23.9444C11.2028 24.2396 11.2837 24.5391 11.3646 24.8386C11.4399 25.1184 11.5066 25.3996 11.5776 25.6808C11.5847 25.7118 11.5974 25.7413 11.6045 25.7722C11.6216 25.8453 11.6358 25.9185 11.6528 25.9916C11.6329 25.9958 11.6116 26 11.5918 26.0042C11.5123 25.8397 11.4143 25.6808 11.3547 25.5079C11.1645 24.9638 11.0026 24.4098 10.8039 23.8684C10.6165 23.3566 10.4206 22.8505 10.3212 22.3134C10.3042 22.2234 10.28 22.1348 10.2517 22.0476C10.1324 21.6736 10.0117 21.2996 9.88824 20.927C9.79029 20.6289 9.70228 20.3252 9.58303 20.0356C9.39139 19.5716 9.16567 19.1216 8.97686 18.6576C8.79374 18.2049 8.64042 17.7395 8.47433 17.2797C8.44452 17.1995 8.41045 17.1208 8.39341 17.0772C8.0953 17.1321 7.81564 17.1756 7.54024 17.2361C7.38266 17.2699 7.21089 17.3008 7.08313 17.3866C6.90142 17.5103 6.75378 17.6832 6.59337 17.8323C6.69842 17.9743 6.81625 18.1036 6.9 18.2527C7.02493 18.4734 7.11436 18.7139 7.23928 18.9346C7.57715 19.5336 7.94198 20.1185 8.26707 20.7245C8.51408 21.1843 8.71566 21.6666 8.93853 22.1376C9.03507 22.3401 9.14296 22.5369 9.23239 22.7422C9.2693 22.828 9.27356 22.9278 9.29201 23.0206C9.27072 23.0333 9.25084 23.0445 9.22955 23.0572C9.17845 23.0065 9.12024 22.9615 9.07766 22.9053C9.03365 22.8477 9.00809 22.7774 8.96977 22.7169C8.85762 22.5383 8.73127 22.3668 8.63048 22.1812C8.33947 21.6427 8.06123 21.0971 7.77305 20.5572C7.43945 19.9315 7.103 19.3058 6.76372 18.6829C6.67145 18.5128 6.56214 18.3525 6.46845 18.1838C6.4074 18.0741 6.32791 18.0586 6.22428 18.1107C6.07664 18.1852 5.92758 18.2597 5.80124 18.3244C5.97443 18.5719 6.14762 18.8081 6.31087 19.0541C6.49542 19.3325 6.67429 19.6137 6.84606 19.8992C6.92556 20.0313 6.99512 20.1719 7.05048 20.3154C7.07035 20.366 7.03628 20.4377 7.02777 20.4995C6.96388 20.477 6.89716 20.4588 6.8347 20.4307C6.81483 20.4222 6.80489 20.3927 6.79069 20.373C6.58485 20.0805 6.37475 19.7895 6.17175 19.4942C6.02837 19.2861 5.88925 19.0738 5.75581 18.8587C5.67915 18.735 5.61669 18.6042 5.53719 18.458C5.01479 18.7139 4.65847 19.0963 4.33054 19.5406C4.44269 19.6292 4.55909 19.7009 4.64853 19.7965C4.87566 20.0384 5.0886 20.2915 5.31006 20.5375C5.49603 20.7456 5.69903 20.9396 5.87222 21.1576C6.2044 21.5738 6.52523 21.9984 6.8418 22.4258C7.01641 22.6606 7.1754 22.9053 7.34008 23.1471C7.64103 23.5915 7.97179 24.0189 8.23442 24.4843C8.62055 25.1648 8.95983 25.8721 9.31473 26.5695C9.73635 27.399 10.1523 28.2328 10.5682 29.0652C10.7684 29.4659 10.9629 29.8681 11.1659 30.2674C11.2141 30.363 11.2823 30.4502 11.3419 30.5402C11.2681 30.3025 11.1645 30.0818 11.0622 29.8596C10.943 29.6037 10.8223 29.3464 10.7031 29.0905C10.5952 28.8571 10.493 28.6195 10.3766 28.3917C10.2559 28.1555 10.1097 27.9319 9.99329 27.6957C9.84282 27.392 9.72073 27.0756 9.56742 26.7733C9.2764 26.1997 8.97118 25.633 8.67449 25.0608C8.46581 24.6572 8.25997 24.2523 8.05413 23.8474C8.01438 23.77 7.98315 23.6899 7.93914 23.6154C7.82132 23.4143 7.69639 23.216 7.57857 23.0136C7.3926 22.6944 7.21373 22.3696 7.02351 22.0518C6.91704 21.8719 6.79779 21.7003 6.67997 21.5274C6.52239 21.294 6.36198 21.0606 6.19872 20.83C6.03547 20.5994 5.86938 20.3716 5.69903 20.1466C5.5954 20.0102 5.47899 19.8823 5.37394 19.7473C5.24476 19.58 5.12125 19.407 4.97929 19.2158C5.04034 19.2088 5.07441 19.1947 5.08576 19.206C5.22488 19.3255 5.3711 19.4394 5.49177 19.5744C5.63089 19.7304 5.74303 19.9104 5.87364 20.0749C6.03973 20.2802 6.22144 20.4742 6.38043 20.6837C6.61325 20.9945 6.83896 21.3122 7.05616 21.6328C7.30459 21.9998 7.54592 22.3738 7.78441 22.7478C7.88094 22.8983 7.96327 23.0586 8.05129 23.2146C8.16912 23.4241 8.28836 23.6336 8.40335 23.8445C8.53253 24.0822 8.6532 24.3254 8.7838 24.5616C8.91724 24.8021 9.06914 25.0326 9.19548 25.2773C9.3346 25.5459 9.44675 25.8299 9.58587 26.0984C9.75764 26.4317 9.95638 26.7508 10.1253 27.0855C10.263 27.3569 10.3709 27.6423 10.4958 27.9193C10.5171 27.9671 10.5583 28.005 10.5909 28.0486C10.554 27.8715 10.4816 27.7182 10.4107 27.5635C10.2673 27.2542 10.1196 26.9477 9.98194 26.6356C9.83714 26.3079 9.70511 25.9747 9.56458 25.6443C9.45811 25.394 9.34312 25.1451 9.23665 24.8949C9.07907 24.5279 8.93995 24.1525 8.76534 23.7939C8.57228 23.4002 8.34798 23.022 8.13789 22.6353C8.0158 22.4104 7.89939 22.1826 7.77873 21.9576C7.60696 21.6399 7.43235 21.3235 7.26342 21.0043C7.24212 20.9635 7.25064 20.9059 7.24496 20.8567C7.26058 20.8497 7.27619 20.844 7.29181 20.837C7.33298 20.8792 7.37841 20.9185 7.41389 20.9649C7.51185 21.0999 7.60838 21.2363 7.70065 21.3755C7.97037 21.7847 8.24294 22.1924 8.50272 22.6086C8.67023 22.8772 8.83207 23.1514 8.96693 23.4368C9.16851 23.8614 9.3417 24.3001 9.53334 24.7304C9.65401 25.0003 9.79029 25.2632 9.90954 25.5332C10.1537 26.083 10.3865 26.637 10.6307 27.1867C10.8039 27.5762 11.0055 27.9544 11.1574 28.3523C11.3575 28.8726 11.5151 29.4083 11.7039 29.9341C11.7692 30.1155 11.8743 30.2843 11.9608 30.4586L11.9651 30.4656ZM21.3103 18.3356C21.174 18.2583 21.0491 18.1866 20.9227 18.1177C20.839 18.0713 20.7637 18.0488 20.7013 18.1557C20.5792 18.3638 20.4486 18.5676 20.3265 18.7757C20.1221 19.1244 19.9162 19.4717 19.7246 19.8275C19.5159 20.2141 19.3328 20.6148 19.1213 20.9987C18.8402 21.5091 18.5435 22.0111 18.2539 22.5172C18.1801 22.6466 18.1219 22.7844 18.0424 22.9095C18.0055 22.9672 17.9331 23.0037 17.8777 23.0501C17.8663 22.9854 17.828 22.9081 17.8493 22.8561C18.0069 22.4807 18.1758 22.1081 18.3419 21.7369C18.3973 21.6131 18.4512 21.4866 18.5151 21.3671C18.6542 21.1056 18.8033 20.8497 18.9438 20.5881C19.1028 20.2943 19.2547 19.9962 19.4151 19.7023C19.5897 19.3846 19.7714 19.0696 19.9489 18.7532C20.1263 18.4383 20.3024 18.1219 20.4855 17.7957C20.2285 17.589 20.0128 17.2431 19.6309 17.2459C19.5826 17.4006 19.5429 17.537 19.4975 17.6706C19.4861 17.7057 19.4563 17.7338 19.4435 17.7676C19.3115 18.1149 19.1823 18.4622 19.0531 18.8095C18.9126 19.1849 18.7763 19.5617 18.6343 19.9371C18.5449 20.1733 18.4541 20.4096 18.3547 20.6416C18.234 20.9256 18.0977 21.204 17.9813 21.4908C17.8692 21.7664 17.7868 22.0532 17.669 22.3246C17.4944 22.7225 17.3028 23.112 17.1111 23.5015C17.0771 23.5704 17.0146 23.6266 16.9649 23.6885C16.9408 23.68 16.9166 23.6716 16.8925 23.6618C16.901 23.5633 16.8925 23.4593 16.9237 23.3693C17.0174 23.0993 17.131 22.8378 17.2318 22.5693C17.3794 22.1727 17.5114 21.7692 17.6719 21.3783C17.8678 20.9017 18.0906 20.4363 18.2922 19.9624C18.5634 19.3269 18.826 18.6872 19.0943 18.0502C19.1482 17.9223 19.1993 17.7915 19.2675 17.6706C19.3456 17.53 19.4378 17.3992 19.5258 17.26C19.2519 17.1953 18.9992 17.1363 18.7252 17.0716C18.6627 17.26 18.6017 17.4737 18.5208 17.679C18.3618 18.0868 18.1914 18.4889 18.0253 18.8938C17.8451 19.3339 17.6605 19.7726 17.4831 20.2141C17.3851 20.4588 17.2829 20.702 17.2077 20.9537C17.0259 21.5611 16.8698 22.1756 16.6824 22.7802C16.5021 23.3609 16.292 23.9303 16.1018 24.5082C15.9385 25.0045 15.8051 25.5107 15.5141 25.9747C15.4956 25.9381 15.4687 25.9114 15.4701 25.8889C15.49 25.7174 15.5013 25.5445 15.5439 25.3785C15.6191 25.0875 15.7086 24.7992 15.8051 24.5152C15.9456 24.0976 16.0919 23.6814 16.2437 23.2681C16.4027 22.835 16.5774 22.4076 16.7349 21.9745C16.8485 21.6624 16.9422 21.3418 17.0487 21.0268C17.0842 20.9214 17.1495 20.8257 17.1778 20.7189C17.236 20.4981 17.2659 20.269 17.3312 20.051C17.4249 19.7375 17.5356 19.4295 17.6435 19.1202C17.7755 18.7406 17.9075 18.3609 18.0481 17.9855C18.1148 17.8084 18.1999 17.6396 18.278 17.4667C18.3632 17.2797 18.4498 17.0927 18.5421 16.8902C18.3604 16.5584 18.031 16.5092 17.6491 16.6259C17.6122 16.737 17.5753 16.8551 17.5313 16.9704C17.4021 17.305 17.263 17.6368 17.1409 17.9743C17.0543 18.2119 16.9919 18.4594 16.911 18.6998C16.7875 19.0696 16.6455 19.4352 16.5319 19.8078C16.3772 20.3224 16.2381 20.8398 16.1004 21.36C15.9939 21.7608 15.8945 22.1615 15.8065 22.5664C15.6859 23.1176 15.5794 23.673 15.4672 24.2256C15.4261 24.4266 15.3863 24.6277 15.3452 24.8288C15.2458 25.3153 15.1492 25.8018 15.0442 26.2869C14.9874 26.5498 14.9122 26.8085 14.8526 27.07C14.7617 27.4764 14.6723 27.8827 14.5913 28.2919C14.4877 28.8135 14.394 29.338 14.2989 29.861C14.2918 29.8962 14.3117 29.9355 14.323 29.9988C14.3514 29.9595 14.3671 29.9468 14.3713 29.9313C14.4891 29.4336 14.6013 28.933 14.722 28.4367C14.8412 27.9432 14.9562 27.4497 15.0953 26.9618C15.1507 26.7705 15.2671 26.5962 15.3551 26.4134C15.3693 26.4204 15.3849 26.4261 15.3991 26.4331C15.1421 27.4553 14.8866 28.4789 14.6297 29.5011C14.9647 28.6096 15.26 27.7112 15.5652 26.8155C15.869 25.9241 16.2097 25.0453 16.6611 24.2031C16.7051 24.2551 16.742 24.3099 16.7307 24.3549C16.6867 24.5419 16.6427 24.7318 16.5731 24.9103C16.4524 25.2197 16.3005 25.5177 16.1856 25.8285C16.0422 26.2151 15.9243 26.6116 15.7923 27.0025C15.7639 27.0855 15.7185 27.1614 15.693 27.2444C15.5808 27.6085 15.4729 27.9741 15.365 28.3383C15.3125 28.5168 15.26 28.6954 15.2075 28.8754C15.3239 28.6645 15.4048 28.4451 15.4786 28.223C15.5978 27.8644 15.7015 27.4989 15.8335 27.1459C15.984 26.7438 16.1557 26.3515 16.3233 25.9564C16.38 25.8229 16.4468 25.6949 16.5092 25.5641C16.61 25.3532 16.7023 25.1367 16.8144 24.9328C16.9408 24.7022 17.0884 24.4815 17.2233 24.2551C17.3127 24.1047 17.3879 23.9416 17.5867 23.8572C17.5867 23.9444 17.6037 24.0119 17.5838 24.0653C17.5256 24.2143 17.4575 24.3592 17.3837 24.5012C17.2715 24.7149 17.1381 24.9188 17.0373 25.1367C16.9337 25.3589 16.8655 25.5965 16.7662 25.82C16.6469 26.0914 16.505 26.3529 16.3829 26.6229C16.2338 26.9547 16.0734 27.2851 15.9584 27.6296C15.7455 28.2638 15.5609 28.9063 15.3679 29.5475C15.2358 29.9876 15.1109 30.4291 14.9803 30.8706C14.9363 31.0182 14.8852 31.1644 14.8384 31.3107C14.8526 31.3149 14.8682 31.3205 14.8824 31.3247C15.1436 30.609 15.4005 29.892 15.6674 29.1777C15.8647 28.649 16.062 28.1217 16.2835 27.6029C16.4255 27.2697 16.6199 26.9604 16.769 26.6299C16.9379 26.2531 17.0756 25.8636 17.2389 25.484C17.4277 25.0439 17.6264 24.608 17.8266 24.1736C18.0126 23.77 18.1829 23.3552 18.4015 22.97C18.6897 22.4624 19.0148 21.9745 19.3328 21.4838C19.479 21.2574 19.6437 21.0423 19.7998 20.8229C19.8197 20.8286 19.8396 20.8342 19.8594 20.8412C19.8594 20.9087 19.8779 20.9832 19.8552 21.0423C19.7998 21.1899 19.7345 21.3361 19.6564 21.4739C19.5273 21.6989 19.3811 21.9126 19.249 22.1348C19.1639 22.2796 19.0971 22.4329 19.0148 22.5791C18.8885 22.8041 18.7451 23.022 18.6287 23.2526C18.437 23.6336 18.2567 24.0217 18.0779 24.4084C17.9359 24.7163 17.801 25.0284 17.6676 25.3406C17.3979 25.9677 17.1324 26.5962 16.8613 27.2219C16.742 27.4989 16.6114 27.7702 16.4851 28.0444C16.539 28.0332 16.5703 28.0093 16.5859 27.9783C16.7576 27.6296 16.9252 27.2795 17.0969 26.9308C17.2957 26.5245 17.4902 26.1167 17.7003 25.716C17.97 25.2014 18.2511 24.6924 18.5336 24.1834C18.809 23.6871 19.0801 23.1893 19.3711 22.7028C19.5926 22.3316 19.8396 21.9745 20.0795 21.6145C20.23 21.3882 20.3861 21.166 20.5409 20.9439C20.636 20.8061 20.7254 20.6627 20.8305 20.5333C21.086 20.2212 21.3429 19.9104 21.6098 19.6081C21.7518 19.4478 21.9136 19.3072 22.0669 19.1568C22.0896 19.1736 22.1109 19.1919 22.1336 19.2088C22.1081 19.2622 22.0911 19.3241 22.0541 19.3677C21.9264 19.5181 21.7816 19.6545 21.6595 19.8092C21.4593 20.0665 21.2734 20.3336 21.0803 20.5966C20.8901 20.8553 20.6857 21.1027 20.511 21.3713C20.291 21.7116 20.0951 22.0673 19.8878 22.4146C19.6309 22.8462 19.3626 23.2709 19.1198 23.7096C18.8998 24.1061 18.7096 24.5194 18.5023 24.923C18.3093 25.297 18.1063 25.6668 17.916 26.0422C17.7428 26.3867 17.5853 26.7382 17.4135 27.0827C17.1849 27.5396 16.9379 27.9882 16.7151 28.448C16.5319 28.8248 16.3786 29.2171 16.1983 29.5953C16.0393 29.9313 15.8619 30.2575 15.6915 30.588C15.7852 30.5219 15.8548 30.4417 15.9016 30.3503C16.2338 29.6923 16.5603 29.0329 16.8882 28.372C17.2148 27.7154 17.5256 27.0503 17.8678 26.4021C18.2865 25.6119 18.7195 24.8302 19.1695 24.0569C19.4052 23.6519 19.6848 23.2723 19.9531 22.887C20.1419 22.6171 20.3421 22.3555 20.5409 22.0926C20.7907 21.7608 21.0349 21.4247 21.2975 21.1027C21.5473 20.7962 21.8128 20.5024 22.0811 20.2099C22.26 20.0145 22.4445 19.8218 22.6447 19.6503C22.7441 19.5645 22.7611 19.5209 22.6816 19.4127C22.4545 19.0991 22.1762 18.8404 21.8639 18.614C21.7901 18.5606 21.712 18.5156 21.6041 18.4481C21.4849 18.6534 21.3841 18.8362 21.2762 19.0134C21.1484 19.2229 21.0249 19.4352 20.8801 19.632C20.6672 19.9217 20.4401 20.2029 20.2115 20.4813C20.186 20.5122 20.115 20.5066 20.0639 20.5178C20.0554 20.4728 20.0284 20.4194 20.044 20.3828C20.1136 20.2113 20.1831 20.0398 20.274 19.8781C20.4131 19.6306 20.5593 19.386 20.7183 19.1511C20.9057 18.8742 21.1115 18.6098 21.3117 18.3356H21.3103ZM10.7059 30.169C10.7258 30.1563 10.7443 30.1451 10.7641 30.1324C10.7102 30.0312 10.6534 29.9313 10.6051 29.8273C10.5015 29.6065 10.4092 29.3816 10.2999 29.1636C10.0132 28.5928 9.71647 28.0275 9.4283 27.4567C9.24091 27.0855 9.06914 26.7073 8.87749 26.3389C8.7114 26.0183 8.52543 25.7062 8.35224 25.3884C8.21029 25.1283 8.08678 24.8597 7.93347 24.6066C7.72195 24.2551 7.49481 23.912 7.26768 23.569C6.98944 23.1485 6.70978 22.731 6.4216 22.3176C6.14478 21.9197 5.87506 21.5161 5.56984 21.1393C5.18939 20.6711 4.77913 20.2268 4.37739 19.7754C4.31351 19.7037 4.22265 19.6601 4.16729 19.7825C4.0736 19.9863 3.99268 20.1972 3.91602 20.38C4.07502 20.4869 4.23543 20.5586 4.34758 20.6753C4.64711 20.9832 4.93671 21.3024 5.20927 21.6328C5.57694 22.0771 5.929 22.5341 6.27964 22.9925C6.32081 23.0459 6.31229 23.1387 6.32649 23.2132C6.30519 23.2217 6.2839 23.2287 6.26261 23.2371C5.36826 22.4258 4.61588 21.4894 3.8351 20.5502C3.69598 20.8679 3.5526 21.1955 3.40639 21.533C3.45181 21.533 3.50434 21.5161 3.52989 21.5358C3.78684 21.72 4.05514 21.8943 4.28937 22.1039C4.62156 22.4019 4.93103 22.7253 5.24618 23.0403C5.48467 23.2779 5.726 23.5127 5.94746 23.7658C6.2115 24.0653 6.45851 24.3802 6.70552 24.6938C7.01925 25.0917 7.3344 25.4882 7.63251 25.8988C7.87952 26.2405 8.09956 26.6018 8.33521 26.9519C8.63048 27.392 8.93002 27.8307 9.22671 28.2694C9.27214 28.3369 9.31189 28.4072 9.35448 28.4761C9.37009 28.4676 9.38429 28.4592 9.3999 28.4508C9.37293 28.3987 9.35164 28.3453 9.32041 28.2947C9.18696 28.0796 9.04359 27.8687 8.91582 27.6493C8.76535 27.3934 8.63048 27.1277 8.48427 26.869C8.21454 26.3937 7.94198 25.9213 7.668 25.4488C7.54592 25.2393 7.42241 25.0298 7.29607 24.8232C7.14843 24.5799 6.99228 24.3423 6.84606 24.0976C6.78644 23.9964 6.73533 23.8881 6.69842 23.777C6.6828 23.7278 6.7041 23.6603 6.72681 23.6083C6.73107 23.5971 6.83044 23.5999 6.85316 23.6252C6.96814 23.756 7.08455 23.8881 7.17824 24.0344C7.38692 24.3563 7.58283 24.6882 7.78583 25.0144C7.96044 25.297 8.15208 25.5698 8.3125 25.8594C8.59074 26.3684 8.84342 26.8915 9.12024 27.4004C9.32608 27.7787 9.56032 28.1428 9.77467 28.5168C9.97484 28.867 10.1636 29.2227 10.3595 29.5742C10.4703 29.7739 10.5895 29.9693 10.7045 30.1661L10.7059 30.169ZM21.2507 28.2272C21.2606 28.2441 21.2705 28.2595 21.2805 28.2764C21.2989 28.2764 21.3202 28.2834 21.333 28.2764C21.6723 28.0908 22.003 27.8898 22.3494 27.7196C22.7526 27.5228 23.1685 27.3526 23.5788 27.1727C23.884 27.0377 24.1835 26.89 24.4958 26.7747C24.8834 26.6313 25.2809 26.5132 25.6741 26.3895C25.7564 26.3628 25.8544 26.3206 25.9296 26.3417C26.1724 26.405 26.1823 26.2433 26.1866 26.0942C26.1894 26 26.1468 25.903 26.1227 25.8074C26.0943 25.6949 26.0233 25.6949 25.9353 25.7413C25.6202 25.9072 25.2951 26.0422 24.9373 26.1027C24.7968 26.1266 24.7357 26.1027 24.723 25.9592C25.1077 25.7483 25.491 25.5374 25.8714 25.3293C25.8856 25.0383 25.9012 24.7275 25.9168 24.4013C25.8686 24.4224 25.8061 24.4632 25.738 24.4787C25.6684 24.4941 25.5932 24.4871 25.5208 24.4899C25.5392 24.414 25.5321 24.3043 25.5818 24.2678C25.7167 24.1651 25.8757 24.092 26.0631 23.9865C26.0063 23.8122 25.9438 23.6055 25.87 23.403C25.8345 23.306 25.7593 23.2948 25.6741 23.3595C25.4271 23.5451 25.1687 23.718 24.9317 23.9148C24.4745 24.2945 24.0217 24.6797 23.5774 25.0748C23.072 25.5248 22.5851 25.993 22.0783 26.4415C21.553 26.9069 21.015 27.3555 20.4869 27.8166C20.4188 27.8771 20.3719 27.9615 20.3151 28.0346L20.3535 28.0683C20.4117 28.0261 20.4756 27.9896 20.5295 27.9418C20.8205 27.6887 21.1059 27.4286 21.4011 27.1797C21.6936 26.9336 21.9959 26.7016 22.2912 26.4598C22.4729 26.3122 22.6419 26.1505 22.8292 26.0113C23.0138 25.8749 23.2125 25.7582 23.4098 25.6401C23.9223 25.3335 24.4362 25.0298 24.9515 24.7275C24.9799 24.7107 25.0239 24.7219 25.0594 24.7191C25.0523 24.7528 25.058 24.7964 25.0367 24.8175C24.9686 24.885 24.8933 24.9483 24.8152 25.0045C24.6193 25.148 24.4206 25.2857 24.2233 25.4278C23.9507 25.6246 23.6753 25.8172 23.4084 26.0211C23.2466 26.1448 23.1004 26.2883 22.9414 26.4148C22.5865 26.6974 22.2259 26.9758 21.8682 27.2556C21.712 27.3779 21.5559 27.5003 21.4011 27.6254C21.2137 27.7773 21.0306 27.9333 20.8461 28.088C20.856 28.1021 20.8659 28.1161 20.8759 28.1302C20.917 28.1175 20.9639 28.1147 20.998 28.0922C21.2123 27.9488 21.4238 27.7984 21.6382 27.6549C21.9789 27.4272 22.3097 27.1853 22.6646 26.9814C23.0606 26.7537 23.4751 26.5554 23.8883 26.3586C24.0345 26.2897 24.2006 26.2615 24.3567 26.2137C24.3624 26.2334 24.3695 26.2531 24.3752 26.2714C23.3332 26.9238 22.2912 27.5762 21.2492 28.2286L21.2507 28.2272ZM1.99957 24.7697C2.01803 24.7374 2.0379 24.705 2.05636 24.6727C2.19264 24.7247 2.34169 24.7557 2.46378 24.8302C2.87688 25.0861 3.28288 25.3518 3.68605 25.6218C4.02675 25.851 4.36461 26.0872 4.69396 26.3332C4.90832 26.4935 5.10422 26.6791 5.30864 26.8521C5.70471 27.1895 6.09935 27.5284 6.49826 27.863C6.5735 27.9263 6.65867 27.9755 6.73959 28.0318C6.72397 27.9432 6.6899 27.8799 6.64022 27.8349C6.31229 27.541 5.98011 27.2528 5.65076 26.9603C5.18514 26.5442 4.72235 26.1252 4.2553 25.7104C3.79394 25.2998 3.33967 24.8836 2.86552 24.4885C2.40274 24.1033 1.91582 23.7447 1.44451 23.3707C1.34798 23.2934 1.277 23.3088 1.23867 23.4115C1.16485 23.6125 1.10523 23.8178 1.05838 23.9641C1.26139 24.0864 1.4289 24.175 1.57795 24.2874C1.61486 24.3156 1.59215 24.4196 1.59783 24.4885C1.53679 24.4899 1.4729 24.5068 1.41754 24.4913C1.3352 24.4674 1.25997 24.4224 1.19892 24.3929C1.21738 24.7163 1.23441 25.0383 1.25003 25.3279C1.60919 25.522 1.95557 25.7047 2.29627 25.9002C2.34169 25.9255 2.35305 26.0099 2.38144 26.0661C2.31898 26.0788 2.248 26.1153 2.19406 26.0984C1.86045 25.993 1.53253 25.8735 1.20034 25.7652C1.14782 25.7483 1.03993 25.7497 1.03141 25.7722C0.984565 25.8903 0.944816 26.0183 0.937718 26.1434C0.934879 26.2025 1.00302 26.3009 1.0598 26.3192C1.33236 26.4021 1.61486 26.45 1.88601 26.5357C2.29059 26.6651 2.68949 26.8113 3.08698 26.9575C3.24313 27.0152 3.39077 27.0939 3.54409 27.1628C3.94157 27.34 4.3419 27.5101 4.73512 27.6971C5.07015 27.856 5.39523 28.036 5.72458 28.2061C5.69761 28.1513 5.65786 28.1077 5.61101 28.0768C5.11416 27.7393 4.61872 27.4019 4.1176 27.0686C3.98416 26.98 3.83794 26.9069 3.69457 26.8324C3.46743 26.7143 3.2332 26.606 3.0089 26.4823C2.90385 26.4246 2.81584 26.3389 2.72073 26.2644C2.73634 26.2404 2.75338 26.2165 2.76899 26.1912C4.06508 26.5863 5.14255 27.3794 6.25551 28.1133C6.13484 27.9811 5.99714 27.8743 5.8637 27.7632C5.62237 27.5621 5.38956 27.3498 5.14255 27.1558C4.81178 26.8943 4.46824 26.6482 4.13464 26.3909C3.74141 26.0872 3.35386 25.7765 2.9578 25.4756C2.8201 25.3701 2.65968 25.2942 2.52056 25.1901C2.34169 25.0566 2.17276 24.9089 1.99957 24.7683V24.7697ZM14.0945 29.7317C14.0945 29.7317 14.1058 29.7317 14.1101 29.7331C14.13 29.5953 14.1499 29.4561 14.1683 29.3183C14.1981 29.099 14.2166 28.8768 14.2592 28.6603C14.3259 28.3214 14.4182 27.9882 14.4849 27.6493C14.5417 27.3639 14.5686 27.0742 14.6283 26.7888C14.6694 26.592 14.7574 26.4036 14.8 26.2067C14.9122 25.6865 15.0087 25.1634 15.1138 24.6404C15.1606 24.4098 15.2145 24.182 15.2571 23.95C15.2869 23.7869 15.2884 23.6196 15.321 23.4579C15.3806 23.1654 15.4545 22.8772 15.5183 22.5861C15.5978 22.2206 15.6617 21.8522 15.754 21.4894C15.8378 21.159 15.9513 20.837 16.0464 20.5094C16.1586 20.1213 16.2594 19.7304 16.3758 19.3438C16.4652 19.0457 16.5703 18.7518 16.6682 18.4552C16.7619 18.1711 16.8428 17.8829 16.9535 17.6059C17.0884 17.2699 17.2474 16.9422 17.3936 16.6189C17.1736 16.55 16.9564 16.4811 16.7406 16.4122C16.5589 16.879 16.3644 17.3416 16.1997 17.814C15.9953 18.3975 15.8008 18.9852 15.6291 19.5786C15.4559 20.1804 15.2997 20.7892 15.1691 21.4008C15.0229 22.0842 14.9093 22.7745 14.7929 23.4635C14.712 23.9402 14.6524 24.4196 14.5814 24.8977C14.5147 25.3518 14.4451 25.8046 14.377 26.2573C14.3358 26.5343 14.2876 26.8099 14.2549 27.0883C14.2137 27.4384 14.1782 27.7885 14.1499 28.1386C14.1243 28.4719 14.1073 28.8051 14.0945 29.1383C14.0874 29.3338 14.0931 29.5306 14.0931 29.726L14.0945 29.7317ZM13.0142 29.7654C13.0142 29.5728 13.0184 29.3731 13.0142 29.1735C13.0057 28.8529 13.0057 28.5323 12.9759 28.2145C12.9347 27.766 12.8736 27.3203 12.8183 26.8746C12.7572 26.3867 12.699 25.8988 12.6266 25.4123C12.5699 25.0256 12.4918 24.6418 12.4279 24.2565C12.3598 23.8474 12.2973 23.4382 12.2306 23.029C12.1426 22.4933 12.0645 21.9562 11.958 21.4247C11.8799 21.0353 11.7692 20.6528 11.6627 20.2704C11.4824 19.6278 11.3135 18.981 11.102 18.3469C10.8834 17.6917 10.6222 17.0505 10.3823 16.4108C10.1651 16.4825 9.94361 16.5542 9.71221 16.6301C9.82294 16.8649 9.94786 17.0955 10.0416 17.3387C10.1864 17.7156 10.3127 18.1008 10.4433 18.4833C10.5029 18.659 10.5569 18.8362 10.6151 19.0119C10.7116 19.3016 10.8152 19.5884 10.9047 19.8795C11.014 20.2366 11.1133 20.5966 11.2113 20.9579C11.3206 21.3615 11.4413 21.7636 11.525 22.1727C11.6528 22.7956 11.7465 23.4255 11.8643 24.0512C11.9282 24.3887 12.019 24.7205 12.0886 25.058C12.1709 25.4545 12.2093 25.8636 12.3328 26.2461C12.4847 26.7143 12.5727 27.1881 12.6323 27.6704C12.6366 27.707 12.6479 27.7421 12.6564 27.7787C12.7303 28.1091 12.8126 28.4395 12.8736 28.7727C12.9219 29.0315 12.9446 29.2958 12.9801 29.5573C12.99 29.6318 13.0042 29.705 13.0142 29.7682V29.7654ZM9.59297 29.4027C9.60432 29.3942 9.6171 29.3858 9.62846 29.3759C9.30053 28.9176 8.97119 28.4606 8.6461 28.0008C8.28126 27.4834 7.92495 26.9604 7.56153 26.4443C7.34291 26.135 7.11578 25.8341 6.8929 25.5276C6.66719 25.2168 6.45851 24.892 6.21576 24.5954C5.86796 24.1693 5.49603 23.7602 5.13119 23.3468C5.05879 23.2638 4.97362 23.1907 4.89412 23.1134C4.59885 22.8223 4.30783 22.5257 4.00404 22.2431C3.7769 22.0321 3.53273 21.8381 3.28146 21.6244C3.16648 21.7622 3.03446 21.9225 2.89534 22.0912C3.10118 22.2599 3.378 22.3598 3.4944 22.6241C3.48305 22.6396 3.47027 22.655 3.45891 22.6705C3.22184 22.5158 2.98619 22.3598 2.85417 22.274C2.68523 22.4118 2.54328 22.5271 2.39848 22.6452C2.41977 22.655 2.47372 22.6803 2.52766 22.7056C2.65401 22.7661 2.7917 22.8111 2.90527 22.8898C3.17215 23.0754 3.4362 23.2681 3.68605 23.4747C3.98984 23.7264 4.28795 23.988 4.57329 24.2607C4.90548 24.5799 5.23766 24.9019 5.54003 25.2492C6.06812 25.8566 6.57491 26.4823 7.08881 27.1024C7.46784 27.5607 7.84403 28.0205 8.22164 28.4789C8.3054 28.5801 8.38915 28.6799 8.47291 28.7798C8.48852 28.7685 8.50414 28.7573 8.52118 28.746C8.38064 28.5323 8.24436 28.3158 8.09956 28.1049C7.89798 27.811 7.68787 27.5214 7.48345 27.2303C7.2478 26.8957 7.02493 26.5498 6.77366 26.2278C6.494 25.8707 6.19446 25.529 5.89351 25.1901C5.56984 24.8231 5.23908 24.4618 4.90264 24.1061C4.64427 23.8333 4.37029 23.576 4.10767 23.3088C4.05798 23.2582 4.02249 23.1907 3.98132 23.1317C3.99126 23.119 4.0012 23.1064 4.00971 23.0937C4.14457 23.1528 4.30073 23.1879 4.41146 23.2779C4.6968 23.5085 4.97078 23.7546 5.23482 24.0076C5.54429 24.3057 5.84099 24.6165 6.13768 24.9258C6.40031 25.2 6.67145 25.4699 6.91136 25.7638C7.16972 26.0788 7.39828 26.4176 7.63535 26.7494C8.02148 27.2894 8.39767 27.8377 8.7909 28.3734C9.04784 28.7235 9.32466 29.0582 9.59297 29.3998V29.4027ZM13.6629 26.8943C13.6956 26.8479 13.7069 26.8394 13.7069 26.831C13.6942 26.0605 13.8304 25.304 13.9341 24.5448C13.9838 24.1778 14.0434 23.8122 14.0931 23.4466C14.157 22.984 14.2038 22.52 14.279 22.0603C14.3458 21.6441 14.4423 21.2321 14.5218 20.8173C14.5701 20.5628 14.6041 20.3055 14.6538 20.051C14.6978 19.8275 14.7603 19.6081 14.8014 19.386C14.844 19.1554 14.8611 18.922 14.9079 18.6928C14.9704 18.3834 15.0456 18.0755 15.1223 17.769C15.2004 17.4583 15.2713 17.1433 15.375 16.841C15.4743 16.5514 15.612 16.2758 15.7384 15.9777C15.5765 15.9664 15.3977 15.9833 15.3097 16.1155C15.1237 16.3925 14.9306 16.6793 14.8242 16.9915C14.6354 17.5468 14.5019 18.1205 14.3571 18.6886C14.245 19.1315 14.1527 19.58 14.0476 20.0257C13.9596 20.4053 13.8631 20.7822 13.7793 21.1632C13.7481 21.3052 13.7169 21.4543 13.7197 21.5977C13.7325 22.1235 13.7793 22.648 13.7793 23.1739C13.7793 23.7335 13.7382 24.2945 13.7155 24.8541C13.697 25.3378 13.6771 25.8215 13.6629 26.3051C13.6573 26.4907 13.6629 26.6749 13.6629 26.8971V26.8943ZM13.3591 25.7947C13.3705 25.6105 13.3975 25.3814 13.3961 25.1522C13.3961 24.6825 13.379 24.2129 13.3719 23.7433C13.3677 23.4354 13.3691 23.1275 13.3662 22.8195C13.3634 22.4765 13.3478 22.1348 13.3563 21.7917C13.362 21.5442 13.4599 21.2912 13.291 21.0592C13.2697 21.031 13.2654 20.9889 13.2584 20.9523C13.2101 20.709 13.1703 20.4658 13.1164 20.224C13.0284 19.826 12.9333 19.4295 12.8382 19.033C12.7132 18.51 12.5869 17.9883 12.4534 17.4681C12.418 17.3317 12.364 17.1967 12.3015 17.0702C12.144 16.751 11.9864 16.4304 11.8104 16.1225C11.7422 16.003 11.4753 15.9608 11.4072 15.996C11.5449 16.377 11.6869 16.751 11.8132 17.1292C11.8927 17.3697 11.9523 17.6171 12.0148 17.8632C12.1014 18.2049 12.1951 18.5465 12.2618 18.8924C12.32 19.1863 12.3328 19.49 12.3896 19.7839C12.4762 20.2366 12.5883 20.6837 12.6792 21.1365C12.7288 21.3783 12.7615 21.6244 12.797 21.8704C12.8708 22.3921 12.9432 22.9151 13.0128 23.4382C13.044 23.6716 13.0582 23.9078 13.0937 24.1398C13.1448 24.466 13.2129 24.7908 13.2655 25.117C13.3052 25.3575 13.3307 25.6007 13.3563 25.7961L13.3591 25.7947ZM15.9527 15.9749C15.94 16.1127 15.9442 16.1956 15.9215 16.2701C15.8335 16.5598 15.7299 16.8452 15.6475 17.1363C15.5056 17.6298 15.3735 18.1275 15.2429 18.6239C15.206 18.7645 15.1989 18.9135 15.1677 19.0555C15.1308 19.2299 15.0754 19.4014 15.0414 19.5758C14.9037 20.2661 14.7688 20.9565 14.6396 21.6483C14.5289 22.2402 14.4309 22.8336 14.3259 23.4269C14.3046 23.5479 14.2734 23.6674 14.2563 23.7897C14.2223 24.0456 14.2038 24.3043 14.1641 24.5588C14.1186 24.8442 14.0363 25.1255 14.0065 25.4123C13.9667 25.7933 13.9653 26.1786 13.9426 26.5624C13.9213 26.9308 13.8872 27.2978 13.8716 27.6662C13.8645 27.856 13.8858 28.0472 13.8958 28.2694C13.9355 28.0753 13.9838 27.9207 13.998 27.7632C14.0235 27.475 14.0164 27.1839 14.0448 26.8971C14.0931 26.4106 14.1555 25.9255 14.2194 25.4418C14.2705 25.0537 14.3316 24.6685 14.3969 24.2818C14.4139 24.1778 14.4721 24.0794 14.4891 23.9753C14.5346 23.6786 14.5644 23.3805 14.607 23.0839C14.6737 22.6325 14.7276 22.1784 14.8199 21.7312C14.9278 21.211 15.057 20.695 15.2018 20.1846C15.3806 19.5575 15.5794 18.936 15.781 18.3145C15.8803 18.0094 16.0067 17.7128 16.1202 17.4119C16.2622 17.035 16.4027 16.6582 16.5475 16.2716C16.38 16.1886 16.1756 16.086 15.9513 15.9735L15.9527 15.9749ZM10.5299 16.2912C10.6335 16.4895 10.7499 16.6695 10.8252 16.8635C10.9884 17.2909 11.1304 17.7254 11.2823 18.1571C11.3618 18.3834 11.4484 18.607 11.5208 18.8348C11.6287 19.175 11.7252 19.5181 11.8274 19.8584C11.897 20.089 11.9765 20.3168 12.0389 20.5502C12.0872 20.7287 12.1156 20.9129 12.1525 21.0943C12.2249 21.4514 12.303 21.8086 12.3683 22.1671C12.4251 22.4779 12.4648 22.7914 12.5216 23.1021C12.584 23.4508 12.6706 23.7967 12.7217 24.1468C12.8027 24.6868 12.8623 25.2309 12.9304 25.7736C12.9929 26.277 13.0582 26.7804 13.115 27.2837C13.1476 27.5734 13.1632 27.8644 13.186 28.1541C13.2016 28.1541 13.2186 28.1541 13.2342 28.1541C13.2342 27.9783 13.2427 27.8026 13.2328 27.6282C13.2072 27.1966 13.1618 26.7663 13.1476 26.3347C13.1306 25.8411 13.0837 25.3532 12.9957 24.8681C12.912 24.4084 12.841 23.9458 12.77 23.4832C12.7189 23.1471 12.6891 22.8083 12.6309 22.475C12.5386 21.9464 12.4293 21.4205 12.3271 20.8932C12.2632 20.5642 12.2022 20.2366 12.1369 19.9076C12.0985 19.7136 12.0503 19.5223 12.0119 19.3283C11.9736 19.1343 11.9495 18.9374 11.9069 18.7448C11.8572 18.517 11.799 18.2906 11.738 18.0643C11.6329 17.6818 11.5265 17.2994 11.4143 16.9197C11.3263 16.6203 11.2283 16.325 11.1247 15.9946C10.9473 16.0831 10.7372 16.1872 10.5299 16.2898V16.2912ZM20.0582 27.6578C20.0681 27.662 20.0781 27.6662 20.0894 27.6704C20.1959 27.5889 20.308 27.5115 20.4088 27.4229C20.7581 27.115 21.0988 26.7972 21.4508 26.4921C21.915 26.0872 22.3906 25.6935 22.8548 25.2871C23.2977 24.8991 23.7321 24.5026 24.1708 24.1103C24.3652 23.9373 24.5526 23.756 24.7613 23.6013C25.0339 23.3988 25.3235 23.2203 25.6131 23.0248C25.4683 22.8083 25.2184 22.7942 25.0055 22.7352C24.9345 22.7155 24.8167 22.8209 24.7343 22.887C24.4462 23.1162 24.1566 23.344 23.8812 23.5872C23.6143 23.8235 23.363 24.0765 23.1032 24.3212C22.8874 24.5237 22.6631 24.7177 22.4559 24.9286C22.206 25.1817 21.9704 25.4488 21.7276 25.7118C21.4437 26.0197 21.1555 26.3248 20.8773 26.6384C20.7382 26.7958 20.6189 26.9702 20.4869 27.1347C20.3464 27.3105 20.2016 27.4834 20.0596 27.6578H20.0582ZM6.97098 27.6029C6.95395 27.5579 6.94969 27.5242 6.93265 27.5045C6.64022 27.1614 6.34778 26.8183 6.05109 26.4781C5.81543 26.2081 5.57552 25.9438 5.33277 25.6794C5.16242 25.4938 4.98355 25.3139 4.81178 25.1297C4.61588 24.9188 4.43417 24.6938 4.22549 24.4955C3.89899 24.1834 3.55828 23.8839 3.21616 23.5886C2.8854 23.3032 2.54328 23.029 2.20541 22.7506C2.18838 22.7366 2.15431 22.7239 2.13585 22.7295C1.92008 22.8055 1.66029 22.7886 1.51691 23.0065C1.72985 23.1668 1.93995 23.3131 2.13869 23.4747C2.64691 23.8853 3.15512 24.2931 3.65198 24.7163C4.08495 25.0847 4.49805 25.4756 4.92677 25.8482C5.59966 26.4331 6.27822 27.0096 6.9724 27.6057L6.97098 27.6029ZM26.5457 27.2795C25.6429 27.5087 24.7485 27.6957 23.8797 27.9657C23.0053 28.237 22.1564 28.5914 21.2961 28.9091C21.3018 28.9288 21.3089 28.9485 21.3145 28.9696C21.6141 28.9316 21.915 28.9007 22.2146 28.8529C22.4658 28.8121 22.7128 28.739 22.9641 28.7039C23.4056 28.642 23.8499 28.6082 24.29 28.5464C24.7471 28.4831 25.2071 28.4198 25.6571 28.3214C25.9381 28.2595 26.2135 28.1583 26.4137 27.9207C26.6096 27.6873 26.6636 27.4525 26.5443 27.2795H26.5457ZM0.55301 27.2908C0.541653 27.3315 0.523198 27.3864 0.510422 27.4426C0.452218 27.6957 0.780144 28.0416 0.963272 28.1358C1.33662 28.3284 1.74547 28.3875 2.15857 28.4409C2.58019 28.4958 2.99754 28.5759 3.41774 28.635C3.67185 28.6701 3.93022 28.6729 4.1829 28.7123C4.56619 28.7728 4.94523 28.8585 5.32851 28.9204C5.4506 28.9401 5.57978 28.9232 5.70613 28.9232C5.7118 28.9049 5.71606 28.8866 5.72174 28.8684C4.87709 28.5604 4.04378 28.216 3.18493 27.9544C2.3275 27.6929 1.44593 27.5129 0.551591 27.2908H0.55301ZM26.1128 26.5779C24.2659 27.0096 22.5553 27.8026 20.9142 28.7629C20.9923 28.7545 21.0689 28.7376 21.1385 28.7067C21.3884 28.5942 21.6283 28.4592 21.8838 28.365C22.4885 28.1442 23.1004 27.9404 23.7108 27.7337C23.8684 27.6802 24.0302 27.6353 24.1906 27.5903C24.4305 27.5228 24.6704 27.4511 24.9132 27.3906C25.2482 27.309 25.5847 27.2303 25.9225 27.1628C26.0844 27.1305 26.2505 27.1263 26.4222 27.1094C26.3158 26.9252 26.2135 26.7494 26.1128 26.5765V26.5779ZM6.17175 28.7882C6.18027 28.7742 6.18737 28.7601 6.19589 28.7474C4.55058 27.8082 2.84565 27.0067 0.997343 26.592C0.896552 26.7649 0.797179 26.935 0.716262 27.0771C0.977467 27.1249 1.24009 27.1628 1.49846 27.2247C1.99532 27.3428 2.49359 27.4609 2.98335 27.6043C3.38225 27.721 3.77122 27.8687 4.16161 28.0093C4.65421 28.1864 5.14539 28.3664 5.63515 28.552C5.81827 28.6209 5.99288 28.7109 6.17175 28.791V28.7882ZM11.3731 31.2699C11.393 31.2586 11.4129 31.246 11.4328 31.2347C11.2709 30.9788 11.1077 30.7229 10.9458 30.467C10.9245 30.4811 10.9018 30.4938 10.8805 30.5078C11.0452 30.7623 11.2099 31.0154 11.3746 31.2699H11.3731ZM18.0239 29.435C18.3135 29.3281 18.3675 29.0202 18.5847 28.8515C18.5662 28.836 18.5492 28.8206 18.5307 28.8051C18.3618 29.0146 18.1929 29.2241 18.0239 29.435Z" fill="#FEDFBE"/>
<path d="M7.61205 17.2841C7.71284 17.4809 7.81789 17.6749 7.913 17.8746C8.02941 18.1193 8.1373 18.3667 8.24944 18.6128C8.38856 18.9207 8.53194 19.2272 8.66397 19.538C8.8116 19.8867 8.94646 20.2396 9.087 20.5897C9.24884 20.9904 9.41209 21.3911 9.57534 21.7919C9.71162 22.1237 9.85642 22.4513 9.98419 22.7845C10.0722 23.0165 10.1432 23.2556 10.2113 23.4946C10.2255 23.5424 10.19 23.6029 10.1773 23.6577C10.1233 23.6239 10.0438 23.6014 10.0183 23.5522C9.91178 23.3455 9.81951 23.129 9.72298 22.9167C9.54695 22.53 9.36382 22.1448 9.19915 21.7539C9.02028 21.3293 8.85845 20.8962 8.68668 20.4674C8.58873 20.2213 8.478 19.9809 8.38715 19.7334C8.30765 19.5211 8.25938 19.2975 8.17704 19.0852C8.03083 18.7112 7.86757 18.3428 7.71426 17.9716C7.64896 17.8127 7.58366 17.6524 7.53255 17.4893C7.5141 17.4331 7.53681 17.3656 7.53965 17.3037C7.56378 17.2967 7.58792 17.2897 7.61063 17.2812L7.61205 17.2841Z" fill="#FEDFBE"/>
</svg>
