<svg width="103" height="48" viewBox="0 0 103 48" fill="none" xmlns="http://www.w3.org/2000/svg">
<g id="logo">
<g id="Group">
<path id="Vector" d="M27.5594 37.1314H27.4764C26.3614 35.1798 24.2706 34.4276 22.4034 34.4276C20.6754 34.4276 19.3101 34.9014 19.3101 36.1837C19.3101 37.2706 20.0075 37.9399 22.6832 38.9157L23.7153 39.3066C27.506 40.7843 28.4255 41.815 28.4255 43.5992C28.4255 45.9122 26.3629 47.9749 22.7676 47.9749C20.3421 47.9749 17.9448 46.8317 16.7188 45.6338L17.0253 42.345L17.0815 42.3169C18.1965 44.6032 21.3179 46.192 23.465 46.192C25.612 46.192 26.3924 45.3273 26.3924 44.3529C26.3924 43.1816 25.6401 42.5405 22.9911 41.5098L21.6526 41.036C18.503 39.8648 17.1926 38.9452 17.1926 36.7996C17.1926 34.6539 19.6461 32.7305 22.7395 32.7305C25.0257 32.7305 26.7256 33.3998 28.1752 34.3193L27.5622 37.1342L27.5594 37.1314Z" fill="#9C3C33"/>
<path id="Vector_2" d="M31.2969 40.6161C31.2969 36.5188 35.3112 32.6719 39.4365 32.6719C43.3383 32.6719 46.433 35.543 46.433 40.0579C46.433 44.1551 42.5579 48.002 38.5999 48.002C34.3902 48.002 31.2969 45.159 31.2969 40.6161ZM43.7854 40.6161C43.7854 37.16 41.8619 34.3437 38.6013 34.3437C35.3407 34.3437 33.9459 36.128 33.9459 40.0579C33.9459 43.5421 35.8975 46.3288 39.1581 46.3288C42.4187 46.3288 43.7854 44.5446 43.7854 40.6147V40.6161Z" fill="#9C3C33"/>
<path id="Vector_3" d="M52.8154 27.332V43.3554C52.8154 47.1784 53.7069 47.7507 53.7069 47.7507H49.9162C49.9162 47.7507 50.4462 47.1784 50.4462 41.5345V33.8617C50.4462 30.168 49.7489 29.6225 49.3594 29.5705V29.4411L52.8154 27.3334V27.332Z" fill="#9C3C33"/>
<path id="Vector_4" d="M63.7579 32.5273C67.2983 32.5273 70.0021 35.092 70.0021 40.3323H58.9913C59.2697 43.7054 61.1932 46.0746 64.2879 46.0746C67.1028 46.0746 68.6636 44.1512 69.3891 42.4512H69.4453V43.9838C68.9434 45.2099 67.3264 47.7464 63.1729 47.7464C59.4385 47.7464 56.3438 45.1256 56.3438 40.3042C56.3438 35.9005 60.2188 32.5273 63.7579 32.5273ZM67.2983 38.7997C66.9355 35.4547 65.2919 34.1443 62.671 34.1443C60.4691 34.1443 59.0476 35.5658 58.9632 39.1892L67.2983 38.7983V38.7997Z" fill="#9C3C33"/>
<path id="Vector_5" d="M84.2236 47.7494H87.6853C87.6853 47.7494 87.0273 47.1364 86.8881 43.0392V39.1374C86.8881 34.5663 84.1519 32.7539 80.4793 32.7539C80.3261 32.7539 80.1742 32.7609 80.0223 32.7708C79.8719 32.7609 79.72 32.7539 79.5654 32.7539C75.8928 32.7539 73.1566 34.5663 73.1566 39.1374V43.0392C73.0174 47.1364 72.3594 47.7494 72.3594 47.7494H75.6805C75.6805 47.7494 75.4386 47.1364 75.4035 41.0876V40.1961C75.4035 37.5232 76.1726 36.0511 77.6349 35.3635C78.6711 34.877 81.233 34.877 82.2678 35.3635C83.7301 36.0497 84.4992 37.5232 84.4992 40.1961V41.0876C84.4641 47.1364 84.2222 47.7494 84.2222 47.7494H84.2236Z" fill="#9C3C33"/>
<path id="Vector_6" d="M96.7657 32.5273C100.306 32.5273 103.01 35.092 103.01 40.3323H91.9991C92.2775 43.7054 94.201 46.0746 97.2957 46.0746C100.111 46.0746 101.671 44.1512 102.397 42.4512H102.453V43.9838C101.951 45.2099 100.334 47.7464 96.1807 47.7464C92.4463 47.7464 89.3516 45.1256 89.3516 40.3042C89.3516 35.9005 93.2266 32.5273 96.7657 32.5273ZM100.305 38.7997C99.9419 35.4547 98.2983 34.1443 95.6774 34.1443C93.4755 34.1443 92.054 35.5658 91.9696 39.1892L100.303 38.7983L100.305 38.7997Z" fill="#9C3C33"/>
</g>
<g id="Group_2">
<path id="Vector_7" d="M13.3299 5.58932C13.3806 5.59213 13.4284 5.59354 13.4804 5.59635C13.486 5.57666 13.4931 5.55979 13.4959 5.54292C13.5071 5.42762 13.517 5.31092 13.5268 5.19562C13.5423 5.00581 13.5479 4.81599 13.5732 4.62758C13.6154 4.3084 13.666 3.99064 13.7222 3.67428C13.7982 3.25527 13.8797 2.83768 13.9655 2.42008C14.002 2.24011 14.0386 2.05732 14.0991 1.88297C14.2523 1.44006 14.3971 0.991535 14.5912 0.566908C14.6854 0.361625 14.8386 0.181648 15.1002 0.0944731C15.6359 -0.0840952 16.1111 0.0199545 16.5765 0.289916C16.772 0.403806 16.966 0.533163 17.1783 0.602059C17.347 0.656895 17.5411 0.641428 17.7239 0.635803C18.043 0.625961 18.2849 0.741259 18.462 1.01122C18.5478 1.14339 18.642 1.2854 18.7671 1.36976C18.881 1.44709 19.0512 1.50333 19.1819 1.48224C19.7486 1.39226 20.1844 1.6102 20.5191 2.03342C20.7117 2.27526 20.9732 2.38493 21.2207 2.53116C21.4935 2.69145 21.7691 2.84892 22.0334 3.02046C22.2274 3.14701 22.4229 3.27918 22.5916 3.43666C22.8616 3.68693 23.0781 3.98361 23.2271 4.32668C23.431 4.79912 23.6222 5.27999 23.8613 5.73414C23.9752 5.95067 24.1861 6.11518 24.3548 6.30218C24.4546 6.41186 24.5671 6.51028 24.6571 6.62839C24.7724 6.77743 24.9116 6.87867 25.093 6.92929C25.4318 7.0249 25.6596 7.24143 25.8227 7.55498C25.9492 7.79682 26.1292 8.01475 26.1292 8.30159C26.1292 8.54624 26.1222 8.79511 26.0814 9.03555C26.0266 9.36597 26.028 9.68936 26.2066 9.97057C26.3753 10.2363 26.4287 10.5049 26.357 10.803C26.298 11.0448 26.3907 11.2304 26.5342 11.4188C26.8505 11.835 26.8997 12.1598 26.6481 12.6308C26.3064 13.2678 25.7482 13.5363 25.048 13.5911C24.6346 13.6235 24.2254 13.7135 23.8135 13.7669C23.4887 13.8091 23.1596 13.8288 22.8348 13.8653C22.4904 13.9033 22.1473 13.9469 21.8042 13.9919C21.4935 14.0341 21.1813 14.0762 20.872 14.1311C20.7033 14.1606 20.5374 14.2126 20.3729 14.2618C20.1085 14.3406 19.8442 14.4263 19.5812 14.5093C19.1777 14.6358 18.77 14.7483 18.3734 14.8903C17.9559 15.0394 17.5495 15.2179 17.1361 15.3796C16.5948 15.592 16.1533 15.9491 15.7441 16.3498C15.4461 16.6423 15.1508 16.9404 14.8794 17.2581C14.4393 17.7713 14.1201 18.3633 13.95 19.0143C13.8164 19.5261 13.7574 20.0576 13.6744 20.582C13.6604 20.6762 13.725 20.7803 13.7068 20.8773C13.666 21.0868 13.6519 21.136 13.4607 21.0995C13.4368 21.0952 13.4129 21.091 13.3876 21.0924C13.3173 21.0938 13.1964 21.1206 13.1865 21.0995C13.1458 20.9996 13.1289 20.8885 13.1176 20.7803C13.1078 20.6833 13.1247 20.5848 13.1134 20.4878C13.0895 20.2699 13.0811 20.0463 13.0234 19.8354C12.8941 19.3616 12.8364 18.8751 12.6396 18.4111C12.416 17.8838 12.0687 17.4578 11.727 17.0219C11.308 16.4876 10.7977 16.0405 10.2352 15.6721C9.86263 15.4289 9.42394 15.2784 9.00494 15.1125C8.54938 14.9325 8.08538 14.7736 7.61857 14.6218C7.29096 14.5149 6.95351 14.4404 6.62168 14.3462C6.4628 14.3012 6.31094 14.2295 6.14925 14.1958C5.81883 14.1254 5.48559 14.072 5.15376 14.013C4.93583 13.975 4.71789 13.9342 4.49714 13.9047C4.33966 13.8836 4.17937 13.8794 4.02049 13.8625C3.48478 13.8049 2.95048 13.75 2.41618 13.6839C2.06327 13.6404 1.71175 13.5855 1.36024 13.5265C0.768295 13.4266 0.368977 13.0667 0.110263 12.5479C-0.0851775 12.1556 -0.0106562 11.7745 0.253681 11.4371C0.401316 11.2487 0.501145 11.0743 0.446309 10.8128C0.383037 10.5105 0.432248 10.2166 0.608004 9.93682C0.789385 9.64718 0.77392 9.3266 0.710648 8.98633C0.637533 8.58983 0.6066 8.17505 0.847035 7.80244C0.921555 7.68715 0.97639 7.56201 1.0481 7.4453C1.20136 7.19362 1.40664 7.0024 1.70613 6.94475C1.96906 6.89413 2.10404 6.6776 2.27699 6.51309C2.46259 6.33593 2.64256 6.14752 2.79441 5.94083C2.93221 5.75523 3.04328 5.54573 3.14311 5.33623C3.35121 4.90035 3.50728 4.43495 3.75334 4.02298C3.93894 3.71083 4.19765 3.41978 4.48449 3.19622C4.83037 2.92626 5.22547 2.70973 5.62338 2.52132C5.96505 2.35962 6.23642 2.12621 6.46983 1.85063C6.76229 1.50333 7.14473 1.45272 7.54827 1.4724C7.85057 1.48647 8.08538 1.40913 8.25129 1.1476C8.323 1.03371 8.40315 0.918417 8.50438 0.831242C8.66748 0.687825 8.86293 0.614712 9.0893 0.640021C9.52236 0.689233 9.88794 0.510663 10.2409 0.291319C10.7822 -0.0475388 11.3474 -0.107997 11.9155 0.201334C12.0533 0.275855 12.1714 0.444579 12.2304 0.595027C12.4469 1.15323 12.6593 1.71424 12.8266 2.28791C12.9461 2.69567 12.9939 3.12451 13.067 3.54633C13.1359 3.94424 13.2062 4.34215 13.2596 4.74287C13.2962 5.01705 13.306 5.29545 13.3285 5.59354L13.3299 5.58932ZM23.4844 6.11377C23.4394 6.21642 23.4212 6.34577 23.3467 6.41607C22.9769 6.76196 22.5804 7.08114 22.2162 7.43265C21.9518 7.68855 21.7241 7.98101 21.4794 8.2566C21.2052 8.56733 20.9212 8.86823 20.6625 9.19162C20.3658 9.56282 20.0846 9.94807 19.8118 10.3375C19.3507 10.9942 18.9035 11.662 18.4452 12.3215C18.1443 12.7545 17.8321 13.1806 17.527 13.6122C17.4904 13.6629 17.4651 13.7205 17.4356 13.7753C17.7168 13.4801 17.9671 13.1679 18.2033 12.8445C18.3819 12.5985 18.5394 12.3384 18.7109 12.0881C18.874 11.8505 19.0455 11.6171 19.2129 11.3808C19.3085 11.2459 19.3985 11.1067 19.4983 10.9745C19.7261 10.6778 19.9524 10.3797 20.1901 10.0901C20.3405 9.90589 20.5064 9.73295 20.6709 9.56C20.8298 9.39409 20.9915 9.23239 21.1588 9.07491C21.5033 8.75012 21.8464 8.42251 22.2035 8.11177C22.3582 7.97679 22.5452 7.87977 22.7181 7.76729C22.7491 7.74761 22.7842 7.73495 22.818 7.71948C22.8039 7.76588 22.7983 7.81931 22.7716 7.85587C22.7406 7.89946 22.6858 7.92617 22.6492 7.96695C22.1487 8.50546 21.6383 9.03695 21.1518 9.58672C20.7131 10.0831 20.2899 10.5935 19.8779 11.1123C19.6755 11.3682 19.5208 11.6606 19.3366 11.9292C19.061 12.3313 18.7784 12.7278 18.5 13.1286C18.4691 13.1736 18.455 13.2284 18.4325 13.279C18.4887 13.2818 18.5155 13.2678 18.5337 13.2467C18.7742 12.957 19.0118 12.666 19.2522 12.3777C19.4884 12.0951 19.7317 11.8195 19.9651 11.5341C20.259 11.1742 20.5388 10.8044 20.834 10.4458C21.104 10.1182 21.3852 9.79903 21.6636 9.47845C21.8028 9.31816 21.9364 9.15225 22.0925 9.01024C22.4468 8.68403 22.8124 8.37049 23.1751 8.05272C23.2904 7.95148 23.4043 7.84603 23.5308 7.76166C23.7628 7.60559 24.0033 7.46218 24.2437 7.31735C24.3253 7.26814 24.4152 7.23018 24.5137 7.18097C24.3646 7.03755 24.2325 6.91241 24.0904 6.77603C23.895 6.89835 23.6869 7.02911 23.4788 7.15988C23.4634 7.13878 23.4479 7.1177 23.4324 7.09661C23.6138 6.94616 23.7952 6.79571 23.9752 6.64526C23.8092 6.46669 23.6461 6.29094 23.483 6.11659C23.334 5.78757 23.185 5.45715 23.0331 5.1197C22.2541 6.05894 21.5146 7.0024 20.588 7.7926C20.5683 7.70402 20.5613 7.61544 20.5992 7.5606C20.7989 7.27939 21.0028 7.0024 21.2179 6.73384C21.5019 6.37952 21.793 6.03222 22.0896 5.68915C22.3385 5.40091 22.5916 5.11267 22.967 4.93972C22.87 4.71616 22.7744 4.494 22.6633 4.23248C22.4735 4.41245 22.2977 4.55446 22.1529 4.72179C21.8084 5.1211 21.4583 5.51761 21.1448 5.94083C20.7426 6.48357 20.37 7.0502 19.989 7.60841C19.7907 7.89946 19.5967 8.19473 19.4125 8.49422C19.1735 8.88229 18.9387 9.27458 18.7123 9.66968C18.5605 9.93401 18.4241 10.2068 18.2849 10.4782C18.0571 10.9225 17.8293 11.3668 17.6057 11.8139C17.4117 12.202 17.2261 12.5943 17.0335 12.9823C16.8268 13.3985 16.6187 13.8147 16.4022 14.2267C16.2208 14.5726 16.0324 14.9142 15.8426 15.2545C15.7385 15.4401 15.6232 15.6187 15.5135 15.8001L15.5515 15.8282C15.6176 15.7494 15.6977 15.6791 15.7484 15.592C15.9086 15.3164 16.0549 15.0338 16.2109 14.7554C16.4331 14.3617 16.6595 13.9722 16.8816 13.5785C17.1572 13.0892 17.4328 12.5999 17.7042 12.1078C17.8448 11.8533 17.9699 11.5917 18.1105 11.3358C18.2596 11.0631 18.4198 10.7973 18.5717 10.526C18.7039 10.2897 18.8206 10.0451 18.9612 9.8145C19.1088 9.57406 19.2818 9.3491 19.4378 9.11288C19.6262 8.83027 19.8048 8.54062 19.996 8.26081C20.0284 8.21442 20.1057 8.20035 20.1634 8.17083C20.1662 8.24957 20.1985 8.34518 20.1662 8.40423C19.9665 8.77262 19.7514 9.12975 19.5447 9.49392C19.2944 9.93401 19.054 10.3811 18.7995 10.8198C18.3566 11.5833 17.9052 12.3426 17.4595 13.1047C17.4412 13.1356 17.4384 13.1736 17.4286 13.2087C17.4989 13.1454 17.534 13.0667 17.5832 12.9978C17.8377 12.628 18.1021 12.2652 18.3495 11.8912C18.6139 11.4905 18.8599 11.0771 19.1201 10.675C19.2086 10.5372 19.3211 10.4135 19.4181 10.2813C19.5967 10.0381 19.7626 9.78638 19.9496 9.55016C20.2266 9.20146 20.5092 8.85839 20.8031 8.52375C21.1546 8.12302 21.5103 7.72511 21.8844 7.34548C22.2232 7.0024 22.5818 6.6776 22.9473 6.36265C23.0964 6.2347 23.2454 6.06175 23.4858 6.11096L23.4844 6.11377ZM11.8297 15.0281C11.9098 15.3122 11.99 15.5962 12.0715 15.8802C12.0926 15.8732 12.1151 15.8661 12.1362 15.8591C12.0814 15.6988 12.0293 15.5371 11.9717 15.3768C11.9281 15.2587 11.8761 15.1434 11.8283 15.0281C11.8325 14.993 11.848 14.9536 11.8395 14.9213C11.7214 14.491 11.6132 14.058 11.4754 13.6347C11.2574 12.9655 11.0353 12.2976 10.785 11.641C10.5671 11.0715 10.3055 10.5175 10.0651 9.95651C10.0173 9.84403 9.98355 9.72311 9.93012 9.61343C9.76561 9.27317 9.59126 8.93572 9.42675 8.59545C9.41129 8.56311 9.43659 8.50968 9.44222 8.4661C9.46331 8.46047 9.48581 8.45344 9.5069 8.44782C10.0496 9.11991 10.3885 9.90871 10.7203 10.6947C11.0606 11.4975 11.3559 12.3201 11.6624 13.1117C11.661 13.1243 11.6694 13.1061 11.6652 13.0906C11.5063 12.5746 11.3573 12.0557 11.1843 11.5439C11.0254 11.0771 10.8384 10.6216 10.6683 10.159C10.5474 9.83137 10.4265 9.50236 10.3154 9.17053C10.2718 9.04258 10.2071 8.90197 10.3519 8.74871C10.7794 9.62047 11.1224 10.5021 11.429 11.3963C11.7383 12.2934 12.0195 13.2017 12.312 14.1044C12.2937 13.9328 12.2613 13.7627 12.222 13.594C12.1193 13.1581 12.0139 12.7222 11.9056 12.2877C11.8311 11.9868 11.7467 11.6888 11.675 11.3865C11.6652 11.3471 11.7088 11.2951 11.727 11.2487C11.7524 11.2501 11.7777 11.2515 11.803 11.2529C12.0814 12.3454 12.3612 13.4393 12.6396 14.5318C12.6522 14.4376 12.6325 14.3476 12.6171 14.2576C12.551 13.8724 12.4933 13.4857 12.4188 13.1018C12.3331 12.6646 12.2276 12.2301 12.1362 11.7928C12.0518 11.3893 11.9731 10.9843 11.8902 10.5808C11.6947 9.63312 11.4951 8.68685 11.3024 7.73776C11.2251 7.36094 11.1759 6.97709 11.0859 6.60308C10.9959 6.23188 10.8708 5.86912 10.7625 5.50214C10.7245 5.37138 10.6922 5.23921 10.6556 5.10845C10.5839 4.84552 10.5178 4.58118 10.4377 4.32106C10.3576 4.06235 10.2577 3.80926 10.1762 3.55195C10.0778 3.23981 10.0032 2.92063 9.89356 2.61271C9.72062 2.12903 9.52658 1.65097 9.34942 1.19119C8.96557 1.05762 8.64639 1.13073 8.44955 1.47943C8.52126 1.60035 8.60702 1.72128 8.66889 1.85485C8.7645 2.05873 8.84886 2.26682 8.9262 2.47773C9.10758 2.97125 9.28193 3.46899 9.4619 3.96252C9.57579 4.27466 9.63344 4.60227 9.74593 4.91723C9.95261 5.49933 10.1157 6.09831 10.3435 6.67479C10.4588 6.96725 10.5516 7.26955 10.6542 7.56623C10.7639 7.87978 10.8806 8.19051 10.9804 8.50687C11.0746 8.80214 11.1548 9.10163 11.2349 9.40112C11.3095 9.68092 11.3755 9.96213 11.4458 10.2433C11.4529 10.2743 11.4655 10.3038 11.4726 10.3347C11.4894 10.4079 11.5035 10.481 11.5204 10.5541C11.5007 10.5583 11.4796 10.5625 11.4599 10.5667C11.3812 10.4022 11.2841 10.2433 11.2251 10.0704C11.0367 9.52626 10.8764 8.97228 10.6795 8.43095C10.4939 7.91914 10.2999 7.41297 10.2015 6.87585C10.1846 6.78587 10.1607 6.69728 10.1326 6.61011C10.0145 6.2361 9.89497 5.86209 9.77264 5.48949C9.67562 5.1914 9.58845 4.8877 9.47034 4.59805C9.28052 4.13406 9.05696 3.68412 8.86996 3.22012C8.68858 2.76738 8.53672 2.30197 8.37221 1.84219C8.34269 1.76205 8.30894 1.68331 8.29207 1.63972C7.9968 1.69456 7.71981 1.73815 7.44703 1.79861C7.29096 1.83235 7.12083 1.86328 6.99428 1.94905C6.81431 2.07279 6.66808 2.24573 6.5092 2.39477C6.61324 2.53678 6.72995 2.66614 6.8129 2.81518C6.93664 3.03593 7.02522 3.27637 7.14895 3.49712C7.48359 4.09609 7.84495 4.68101 8.16693 5.28702C8.41158 5.74679 8.61124 6.22907 8.83199 6.7001C8.9276 6.90257 9.03446 7.09942 9.12305 7.3047C9.1596 7.39047 9.16382 7.4903 9.1821 7.5831C9.16101 7.59575 9.14132 7.607 9.12023 7.61966C9.06962 7.56904 9.01197 7.52404 8.96978 7.4678C8.9262 7.41015 8.90089 7.33985 8.86293 7.27939C8.75185 7.10082 8.62671 6.92928 8.52688 6.74369C8.23864 6.20517 7.96305 5.65962 7.67762 5.1197C7.3472 4.494 7.01397 3.86831 6.67792 3.24543C6.58653 3.0753 6.47827 2.91501 6.38547 2.74629C6.32501 2.63661 6.24627 2.62114 6.14363 2.67317C5.9974 2.74769 5.84976 2.82221 5.72462 2.88689C5.89616 3.13436 6.0677 3.37057 6.22939 3.61663C6.41218 3.89503 6.58934 4.17624 6.75947 4.46166C6.83821 4.59383 6.90711 4.73444 6.96195 4.87786C6.98163 4.92848 6.94788 5.00018 6.93945 5.06205C6.87618 5.03955 6.81009 5.02127 6.74823 4.99315C6.72854 4.98472 6.7187 4.95519 6.70464 4.9355C6.50076 4.64304 6.29267 4.35199 6.0916 4.05672C5.94959 3.84863 5.8118 3.63631 5.67963 3.42119C5.6037 3.29746 5.54183 3.16669 5.4631 3.02046C4.94567 3.27636 4.59275 3.65881 4.26795 4.10312C4.37903 4.1917 4.49433 4.26341 4.58291 4.35903C4.80788 4.60087 5.01878 4.85395 5.23813 5.10001C5.42232 5.30811 5.62338 5.50214 5.79492 5.72008C6.12394 6.13627 6.44171 6.5609 6.75526 6.98834C6.9282 7.22315 7.08568 7.4678 7.24878 7.70964C7.54686 8.15395 7.87447 8.58139 8.13459 9.0468C8.51704 9.72732 8.85308 10.4346 9.2046 11.132C9.62219 11.9615 10.0342 12.7953 10.4461 13.6277C10.6444 14.0284 10.837 14.4306 11.0381 14.8299C11.0859 14.9255 11.1534 15.0127 11.2124 15.1027C11.1393 14.865 11.0367 14.6443 10.9354 14.4221C10.8173 14.1662 10.6978 13.9089 10.5797 13.653C10.4729 13.4196 10.3716 13.182 10.2563 12.9542C10.1368 12.718 9.99198 12.4944 9.87669 12.2582C9.72765 11.9545 9.60673 11.6381 9.45487 11.3358C9.16663 10.7622 8.86433 10.1955 8.57047 9.62328C8.36378 9.21974 8.1599 8.8148 7.95602 8.40986C7.91665 8.33252 7.88572 8.25237 7.84213 8.17785C7.72543 7.97679 7.6017 7.77854 7.485 7.57607C7.3008 7.25689 7.12364 6.93209 6.93523 6.61433C6.82978 6.43435 6.71167 6.26282 6.59497 6.08987C6.43889 5.85647 6.28001 5.62306 6.11832 5.39247C5.95662 5.16188 5.79211 4.9341 5.62338 4.70913C5.52074 4.57274 5.40545 4.44479 5.3014 4.30981C5.17345 4.14249 5.05112 3.96955 4.91052 3.77833C4.97098 3.7713 5.00472 3.75723 5.01597 3.76848C5.15377 3.888 5.29859 4.00189 5.4181 4.13687C5.5559 4.29294 5.66697 4.47291 5.79633 4.63742C5.96084 4.8427 6.14081 5.03674 6.29829 5.24624C6.52888 5.55698 6.75245 5.87475 6.96757 6.19533C7.21363 6.56231 7.45266 6.93631 7.68887 7.31032C7.78448 7.46077 7.86604 7.62106 7.95321 7.77713C8.06991 7.98664 8.18802 8.19613 8.30191 8.40704C8.42986 8.64466 8.54938 8.88791 8.67873 9.12413C8.8109 9.36456 8.96135 9.59515 9.08649 9.83981C9.22428 10.1084 9.33536 10.3924 9.47315 10.6609C9.64328 10.9942 9.84013 11.3133 10.0075 11.648C10.1438 11.9194 10.2507 12.2048 10.3744 12.4818C10.3955 12.5296 10.4363 12.5675 10.4686 12.6111C10.4321 12.434 10.3604 12.2807 10.2901 12.126C10.1481 11.8167 10.0018 11.5102 9.86544 11.1981C9.72202 10.8704 9.59126 10.5372 9.45206 10.2068C9.34661 9.95651 9.23272 9.70764 9.12726 9.45736C8.97119 9.09038 8.8334 8.71497 8.66045 8.35643C8.46923 7.96273 8.24708 7.58451 8.03898 7.19784C7.91806 6.97287 7.80276 6.74509 7.68325 6.52012C7.51312 6.20236 7.34017 5.886 7.17285 5.56682C7.15176 5.52605 7.1602 5.4684 7.15458 5.41918C7.17004 5.41215 7.18551 5.40653 7.20097 5.3995C7.24175 5.44168 7.28674 5.48105 7.32189 5.52745C7.41891 5.66243 7.51452 5.79882 7.60592 5.93802C7.87307 6.34718 8.14303 6.75494 8.40033 7.17113C8.56625 7.43968 8.72654 7.71386 8.86011 7.99929C9.05977 8.42391 9.23131 8.8626 9.42113 9.29286C9.54064 9.56282 9.67562 9.82575 9.79373 10.0957C10.0356 10.6455 10.2662 11.1995 10.508 11.7492C10.6795 12.1387 10.8792 12.5169 11.0296 12.9148C11.2279 13.4351 11.384 13.9708 11.571 14.4966C11.6357 14.678 11.7397 14.8468 11.8255 15.0211L11.8297 15.0281ZM21.0857 2.89814C20.9507 2.8208 20.827 2.7491 20.7019 2.6802C20.6189 2.6338 20.5444 2.6113 20.4825 2.71816C20.3616 2.92626 20.2322 3.13014 20.1113 3.33823C19.9089 3.68693 19.705 4.03423 19.5152 4.38996C19.3085 4.77662 19.1271 5.17735 18.9176 5.5612C18.6392 6.07159 18.3453 6.57355 18.0585 7.07973C17.9854 7.20909 17.9277 7.34688 17.849 7.47202C17.8124 7.52967 17.7407 7.56622 17.6859 7.61262C17.6746 7.54795 17.6367 7.47061 17.6578 7.41859C17.8138 7.04317 17.9812 6.67057 18.1457 6.29937C18.2005 6.17564 18.2539 6.0491 18.3172 5.92958C18.455 5.66806 18.6026 5.41215 18.7418 5.15063C18.8993 4.85676 19.0498 4.55868 19.2086 4.26482C19.3816 3.94705 19.5616 3.6321 19.7373 3.31573C19.9131 3.00078 20.0874 2.68442 20.2688 2.35821C20.0143 2.15153 19.8006 1.80564 19.4224 1.80845C19.3746 1.96311 19.3352 2.0995 19.2902 2.23307C19.2789 2.26823 19.2494 2.29635 19.2368 2.33009C19.106 2.67739 18.9781 3.02468 18.8501 3.37198C18.7109 3.74739 18.5759 4.12422 18.4353 4.49963C18.3467 4.73585 18.2567 4.97206 18.1583 5.20406C18.0388 5.48808 17.9038 5.76648 17.7885 6.05331C17.6775 6.3289 17.5959 6.61573 17.4792 6.8871C17.3063 7.28501 17.1164 7.67449 16.9266 8.06396C16.8929 8.13286 16.831 8.18911 16.7818 8.25097C16.7579 8.24254 16.734 8.2341 16.7101 8.22426C16.7185 8.12583 16.7101 8.02178 16.741 7.9318C16.8338 7.66183 16.9463 7.40031 17.0461 7.13176C17.1924 6.73525 17.3231 6.33171 17.482 5.94083C17.676 5.46418 17.8968 4.99878 18.0965 4.52494C18.365 3.8894 18.6251 3.24965 18.8909 2.61271C18.9443 2.48476 18.9949 2.35399 19.0624 2.23307C19.1397 2.09247 19.2311 1.96171 19.3183 1.82251C19.0469 1.75783 18.7967 1.69878 18.5253 1.6341C18.4634 1.82251 18.403 2.03623 18.3228 2.24151C18.1654 2.64927 17.9966 3.0514 17.8321 3.45634C17.6536 3.89643 17.4708 4.33512 17.295 4.77662C17.198 5.02128 17.0968 5.26452 17.0222 5.5162C16.8423 6.12362 16.6876 6.73806 16.502 7.34266C16.3234 7.92336 16.1153 8.49281 15.9269 9.0707C15.7652 9.56703 15.6331 10.0732 15.3448 10.5372C15.3265 10.5007 15.2998 10.4739 15.3012 10.4514C15.3209 10.2799 15.3322 10.107 15.3743 9.94104C15.4489 9.64999 15.5374 9.36175 15.6331 9.07773C15.7723 8.66013 15.9171 8.24394 16.0675 7.83056C16.225 7.3975 16.398 6.97006 16.554 6.537C16.6665 6.22485 16.7593 5.90427 16.8648 5.58932C16.8999 5.48387 16.9646 5.38825 16.9927 5.28139C17.0504 5.06064 17.0799 4.83146 17.1446 4.61352C17.2374 4.29997 17.347 3.99205 17.4539 3.68272C17.5847 3.30308 17.7154 2.92345 17.8546 2.54803C17.9207 2.37087 18.0051 2.20214 18.0824 2.0292C18.1668 1.84219 18.2525 1.65519 18.3439 1.45272C18.1639 1.12089 17.8377 1.07168 17.4595 1.18838C17.423 1.29946 17.3864 1.41757 17.3428 1.53286C17.2149 1.8675 17.0771 2.19933 16.9562 2.53678C16.8704 2.7744 16.8085 3.02187 16.7284 3.2623C16.606 3.6321 16.4654 3.99767 16.353 4.37027C16.1997 4.88489 16.0619 5.40231 15.9255 5.92255C15.8201 6.32328 15.7216 6.724 15.6345 7.12894C15.5149 7.68011 15.4095 8.23551 15.2984 8.78808C15.2576 8.98915 15.2183 9.19021 15.1775 9.39128C15.0791 9.87777 14.9835 10.3643 14.8794 10.8493C14.8232 11.1123 14.7487 11.371 14.6896 11.6325C14.5996 12.0389 14.511 12.4452 14.4309 12.8544C14.3282 13.376 14.2354 13.9005 14.1412 14.4235C14.1342 14.4587 14.1539 14.4981 14.1651 14.5613C14.1933 14.522 14.2087 14.5093 14.2129 14.4938C14.3296 13.9961 14.4407 13.4955 14.5602 12.9992C14.6783 12.5057 14.7922 12.0122 14.93 11.5243C14.9849 11.333 15.1002 11.1587 15.1873 10.9759C15.2014 10.9829 15.2169 10.9886 15.2309 10.9956C14.9764 12.0178 14.7233 13.0414 14.4688 14.0636C14.8007 13.1721 15.0931 12.2737 15.3954 11.378C15.6963 10.4866 16.0338 9.60781 16.4809 8.76559C16.5245 8.81761 16.5611 8.87244 16.5498 8.91744C16.5062 9.10444 16.4626 9.29426 16.3937 9.47283C16.2742 9.78216 16.1238 10.0802 16.0099 10.391C15.8679 10.7776 15.7512 11.1742 15.6204 11.565C15.5923 11.648 15.5473 11.7239 15.522 11.8069C15.4109 12.171 15.304 12.5366 15.1972 12.9008C15.1452 13.0793 15.0931 13.2579 15.0411 13.4379C15.1564 13.227 15.2366 13.0076 15.3097 12.7855C15.4278 12.4269 15.5304 12.0614 15.6612 11.7084C15.8102 11.3063 15.9804 10.914 16.1463 10.5189C16.2025 10.3854 16.2686 10.2574 16.3305 10.1266C16.4303 9.91573 16.5217 9.6992 16.6328 9.49533C16.7579 9.26474 16.9041 9.04398 17.0377 8.81761C17.1263 8.66716 17.2008 8.50406 17.3977 8.41969C17.3977 8.50687 17.4145 8.57436 17.3948 8.62779C17.3372 8.77683 17.2697 8.92166 17.1966 9.06367C17.0855 9.27739 16.9533 9.48126 16.8535 9.6992C16.7509 9.92136 16.6834 10.159 16.585 10.3825C16.4668 10.6539 16.3262 10.9154 16.2053 11.1854C16.0577 11.5172 15.8988 11.8476 15.7849 12.1921C15.574 12.8263 15.3912 13.4688 15.2 14.11C15.0692 14.5501 14.9455 14.9916 14.8161 15.4331C14.7726 15.5807 14.7219 15.7269 14.6755 15.8732C14.6896 15.8774 14.7051 15.883 14.7191 15.8872C14.9778 15.1716 15.2323 14.4545 15.4967 13.7402C15.6921 13.2115 15.8876 12.6842 16.1069 12.1654C16.2475 11.8322 16.4401 11.5228 16.5878 11.1924C16.7551 10.8156 16.8915 10.4261 17.0532 10.0465C17.2402 9.6064 17.437 9.17053 17.6353 8.73606C17.8195 8.33252 17.9882 7.91774 18.2047 7.53248C18.4902 7.02489 18.8121 6.537 19.1271 6.04629C19.2719 5.81991 19.435 5.60478 19.5897 5.38544C19.6094 5.39107 19.6291 5.39669 19.6487 5.40372C19.6487 5.47121 19.667 5.54573 19.6445 5.60478C19.5897 5.75242 19.525 5.89865 19.4477 6.03644C19.3197 6.26141 19.1749 6.47513 19.0441 6.69728C18.9598 6.84211 18.8937 6.99537 18.8121 7.1416C18.687 7.36656 18.545 7.5845 18.4297 7.8151C18.2399 8.19613 18.0613 8.5842 17.8841 8.97087C17.7435 9.27879 17.61 9.59094 17.4778 9.90308C17.2106 10.5302 16.9477 11.1587 16.6792 11.7844C16.5611 12.0614 16.4317 12.3327 16.3066 12.6069C16.36 12.5957 16.3909 12.5718 16.4064 12.5408C16.5765 12.1921 16.7424 11.842 16.9126 11.4933C17.1094 11.087 17.302 10.6792 17.5101 10.2785C17.7773 9.76388 18.0557 9.25489 18.3355 8.7459C18.6083 8.24956 18.8768 7.75182 19.1651 7.26533C19.3844 6.89413 19.6291 6.537 19.8667 6.17705C20.0157 5.95067 20.1704 5.72852 20.3236 5.50636C20.4178 5.36857 20.5064 5.22515 20.6105 5.09579C20.8636 4.78365 21.1181 4.47291 21.3824 4.17061C21.523 4.01032 21.6833 3.86972 21.8351 3.71927C21.8576 3.73614 21.8787 3.75442 21.9012 3.77129C21.8759 3.82472 21.8591 3.88659 21.8225 3.93018C21.6959 4.08063 21.5525 4.21701 21.4316 4.37168C21.2334 4.62899 21.0492 4.89614 20.8579 5.15907C20.6695 5.41778 20.4671 5.66524 20.2941 5.9338C20.0762 6.27406 19.8821 6.6298 19.6769 6.97709C19.4224 7.40875 19.1566 7.83337 18.9162 8.27206C18.6982 8.66857 18.5098 9.08195 18.3046 9.48548C18.1133 9.85949 17.9123 10.2293 17.7239 10.6047C17.5523 10.9492 17.3962 11.3007 17.2261 11.6452C16.9997 12.1021 16.7551 12.5507 16.5343 13.0105C16.353 13.3873 16.2011 13.7796 16.0225 14.1578C15.8651 14.4938 15.6893 14.82 15.5206 15.1505C15.6134 15.0844 15.6823 15.0042 15.7287 14.9128C16.0577 14.2548 16.3811 13.5954 16.7059 12.9345C17.0293 12.2779 17.3372 11.6128 17.676 10.9646C18.0908 10.1744 18.5197 9.39268 18.9654 8.61936C19.1988 8.21441 19.4758 7.83478 19.7415 7.44952C19.9285 7.17956 20.1268 6.91804 20.3236 6.6551C20.5711 6.32328 20.8129 5.98723 21.0731 5.66524C21.3205 5.35872 21.5835 5.06486 21.8492 4.77241C22.0264 4.57696 22.2092 4.38433 22.4074 4.2128C22.5058 4.12703 22.5227 4.08344 22.444 3.97517C22.219 3.66162 21.9434 3.40291 21.6341 3.17654C21.561 3.12311 21.4836 3.07811 21.3768 3.01062C21.2587 3.2159 21.1588 3.39869 21.052 3.57585C20.9254 3.78536 20.8031 3.99767 20.6597 4.19452C20.4488 4.48416 20.2238 4.76537 19.9974 5.04377C19.9721 5.0747 19.9018 5.06908 19.8512 5.08033C19.8428 5.03533 19.8161 4.9819 19.8315 4.94535C19.9004 4.77381 19.9693 4.60227 20.0593 4.44057C20.1971 4.19311 20.3419 3.94846 20.4994 3.71364C20.685 3.43665 20.8889 3.17232 21.0871 2.89814H21.0857ZM10.5825 14.7315C10.6022 14.7188 10.6205 14.7076 10.6402 14.6949C10.5867 14.5937 10.5305 14.4938 10.4827 14.3898C10.3801 14.169 10.2887 13.9441 10.1804 13.7261C9.89637 13.1553 9.60251 12.59 9.31708 12.0192C9.13148 11.648 8.96135 11.2698 8.77153 10.9014C8.60703 10.5808 8.42283 10.2687 8.25129 9.95089C8.11069 9.69077 7.98836 9.42221 7.83651 9.16912C7.62701 8.81761 7.40204 8.47453 7.17707 8.13146C6.90148 7.71105 6.62449 7.29345 6.33907 6.88007C6.06489 6.48216 5.79774 6.07862 5.49544 5.7018C5.11861 5.23359 4.71226 4.78927 4.31435 4.33793C4.25108 4.26622 4.16109 4.22264 4.10626 4.34496C4.01346 4.54884 3.93331 4.75975 3.85739 4.94254C4.01486 5.0494 4.17375 5.12111 4.28483 5.23781C4.5815 5.54573 4.86834 5.86491 5.1383 6.19533C5.50246 6.63964 5.85117 7.0966 6.19846 7.55498C6.23924 7.60841 6.2308 7.70121 6.24486 7.77573C6.22377 7.78416 6.20268 7.79119 6.18159 7.79963C5.29578 6.98834 4.55057 6.05191 3.77724 5.11267C3.63945 5.43043 3.49744 5.75804 3.35261 6.09549C3.39761 6.09549 3.44963 6.07862 3.47494 6.09831C3.72944 6.2825 3.99518 6.45685 4.22718 6.66635C4.55619 6.96443 4.86271 7.28783 5.17486 7.60278C5.41107 7.8404 5.6501 8.07521 5.86944 8.3283C6.13097 8.62779 6.37562 8.94275 6.62028 9.2563C6.93101 9.65421 7.24316 10.0507 7.53843 10.4613C7.78308 10.803 8.00102 11.1643 8.23442 11.5144C8.52688 11.9545 8.82356 12.3932 9.11742 12.8319C9.16241 12.8994 9.20178 12.9697 9.24396 13.0386C9.25943 13.0301 9.27349 13.0217 9.28896 13.0133C9.26224 12.9612 9.24115 12.9078 9.21022 12.8572C9.07805 12.6421 8.93604 12.4312 8.80949 12.2118C8.66045 11.9559 8.52688 11.6902 8.38206 11.4315C8.11491 10.9562 7.84495 10.4838 7.57358 10.0113C7.45266 9.80184 7.33033 9.59234 7.20519 9.38566C7.05896 9.14241 6.9043 8.90479 6.75947 8.66013C6.70042 8.5589 6.6498 8.45063 6.61325 8.33955C6.59778 8.29034 6.61887 8.22285 6.64137 8.17083C6.64558 8.15958 6.74401 8.16239 6.7665 8.1877C6.88039 8.31846 6.99569 8.45063 7.08849 8.59686C7.29518 8.91884 7.48922 9.25067 7.69028 9.57688C7.86322 9.85949 8.05304 10.1323 8.21192 10.4219C8.48751 10.9309 8.73779 11.454 9.01197 11.9629C9.21584 12.3412 9.44784 12.7053 9.66016 13.0793C9.85841 13.4295 10.0454 13.7852 10.2394 14.1367C10.3491 14.3364 10.4672 14.5318 10.5811 14.7286L10.5825 14.7315ZM21.0267 12.7911C21.0365 12.808 21.0464 12.8234 21.0562 12.8403C21.0745 12.8403 21.0956 12.8473 21.1082 12.8403C21.4443 12.6547 21.7719 12.4537 22.1149 12.2835C22.5143 12.0867 22.9262 11.9165 23.3326 11.7366C23.6349 11.6016 23.9316 11.454 24.2409 11.3387C24.6247 11.1952 25.0184 11.0771 25.4079 10.9534C25.4895 10.9267 25.5865 10.8845 25.661 10.9056C25.9014 10.9689 25.9113 10.8072 25.9155 10.6581C25.9183 10.5639 25.8761 10.4669 25.8522 10.3713C25.8241 10.2588 25.7538 10.2588 25.6666 10.3052C25.3545 10.4711 25.0325 10.6061 24.6782 10.6666C24.539 10.6905 24.4785 10.6666 24.4659 10.5231C24.8469 10.3122 25.2265 10.1013 25.6034 9.89324C25.6174 9.60219 25.6329 9.29145 25.6484 8.96524C25.6005 8.98633 25.5387 9.02711 25.4712 9.04258C25.4023 9.05805 25.3278 9.05101 25.2561 9.05383C25.2743 8.9779 25.2673 8.86823 25.3165 8.83167C25.4501 8.72903 25.6076 8.65592 25.7932 8.55046C25.7369 8.37611 25.6751 8.16942 25.602 7.96695C25.5668 7.86993 25.4923 7.85868 25.4079 7.92336C25.1633 8.10896 24.9074 8.2819 24.6726 8.47875C24.2198 8.85839 23.7713 9.24364 23.3312 9.63874C22.8306 10.0887 22.3484 10.5569 21.8464 11.0054C21.3262 11.4708 20.7933 11.9194 20.2702 12.3805C20.2027 12.441 20.1563 12.5254 20.1001 12.5985L20.138 12.6322C20.1957 12.59 20.259 12.5535 20.3124 12.5057C20.6006 12.2526 20.8832 11.9925 21.1757 11.7436C21.4654 11.4975 21.7648 11.2655 22.0573 11.0237C22.2373 10.8761 22.4046 10.7144 22.5902 10.5752C22.773 10.4388 22.9698 10.3221 23.1653 10.204C23.6729 9.89745 24.1818 9.59375 24.6922 9.29145C24.7204 9.27458 24.7639 9.28582 24.7991 9.28301C24.7921 9.31676 24.7977 9.36035 24.7766 9.38144C24.7091 9.44893 24.6346 9.5122 24.5573 9.56844C24.3632 9.71186 24.1664 9.84965 23.9709 9.99166C23.701 10.1885 23.4282 10.3811 23.1639 10.585C23.0036 10.7087 22.8588 10.8522 22.7013 10.9787C22.3498 11.2613 21.9926 11.5397 21.6383 11.8195C21.4836 11.9419 21.329 12.0642 21.1757 12.1893C20.9901 12.3412 20.8087 12.4972 20.6259 12.6519C20.6358 12.666 20.6456 12.68 20.6555 12.6941C20.6962 12.6814 20.7426 12.6786 20.7764 12.6561C20.9887 12.5127 21.1982 12.3623 21.4105 12.2188C21.748 11.9911 22.0756 11.7492 22.4271 11.5453C22.8194 11.3176 23.2299 11.1193 23.6391 10.9225C23.7839 10.8536 23.9484 10.8254 24.1031 10.7776C24.1087 10.7973 24.1158 10.817 24.1214 10.8353C23.0893 11.4877 22.0573 12.1401 21.0253 12.7925L21.0267 12.7911ZM1.95922 9.33363C1.9775 9.30129 1.99718 9.26895 2.01546 9.23661C2.15044 9.28864 2.29808 9.31957 2.419 9.39409C2.82816 9.64999 3.23029 9.91574 3.62961 10.1857C3.96706 10.4149 4.3017 10.6511 4.6279 10.8972C4.84022 11.0574 5.03425 11.243 5.23672 11.416C5.62901 11.7534 6.01989 12.0923 6.41499 12.4269C6.48951 12.4902 6.57387 12.5394 6.65402 12.5957C6.63855 12.5071 6.60481 12.4438 6.5556 12.3988C6.2308 12.105 5.90178 11.8167 5.57558 11.5243C5.1144 11.1081 4.65602 10.6891 4.19343 10.2743C3.73647 9.86371 3.28653 9.44752 2.81691 9.05242C2.35854 8.66716 1.87626 8.30862 1.40945 7.93461C1.31384 7.85728 1.24354 7.87275 1.20558 7.97539C1.13246 8.17645 1.07341 8.38173 1.02701 8.52796C1.22807 8.65029 1.39399 8.73887 1.54162 8.85135C1.57818 8.87947 1.55568 8.98352 1.56131 9.05242C1.50085 9.05382 1.43758 9.0707 1.38274 9.05523C1.30119 9.03133 1.22667 8.98633 1.16621 8.95681C1.18449 9.2802 1.20136 9.60218 1.21682 9.89183C1.57255 10.0859 1.91563 10.2687 2.25308 10.4641C2.29808 10.4894 2.30933 10.5738 2.33745 10.63C2.27558 10.6427 2.20528 10.6792 2.15185 10.6623C1.82143 10.5569 1.49663 10.4374 1.16761 10.3291C1.11559 10.3122 1.00873 10.3136 1.00029 10.3361C0.953894 10.4543 0.914524 10.5822 0.907494 10.7073C0.904682 10.7664 0.972172 10.8648 1.02841 10.8831C1.29838 10.9661 1.57818 11.0139 1.84674 11.0996C2.24746 11.229 2.64256 11.3752 3.03625 11.5214C3.19092 11.5791 3.33715 11.6578 3.489 11.7267C3.8827 11.9039 4.2792 12.074 4.66868 12.261C5.00051 12.4199 5.32249 12.5999 5.64869 12.77C5.62198 12.7152 5.58261 12.6716 5.53621 12.6407C5.04409 12.3032 4.55338 11.9658 4.05704 11.6325C3.92488 11.5439 3.78005 11.4708 3.63804 11.3963C3.41307 11.2782 3.18108 11.1699 2.95892 11.0462C2.85487 10.9886 2.7677 10.9028 2.67349 10.8283C2.68896 10.8044 2.70583 10.7805 2.7213 10.7551C4.00502 11.1502 5.07222 11.9433 6.17456 12.6772C6.05504 12.545 5.91866 12.4382 5.78649 12.3271C5.54746 12.126 5.31687 11.9137 5.07221 11.7197C4.7446 11.4582 4.40434 11.2121 4.07392 10.9548C3.68444 10.6511 3.30059 10.3404 2.9083 10.0395C2.77192 9.93401 2.61303 9.85809 2.47524 9.75404C2.29808 9.62047 2.13076 9.47283 1.95922 9.33222V9.33363ZM13.9388 14.2942C13.9388 14.2942 13.95 14.2942 13.9542 14.2956C13.9739 14.1578 13.9936 14.0186 14.0119 13.8808C14.0414 13.6615 14.0597 13.4393 14.1019 13.2228C14.168 12.8839 14.2593 12.5507 14.3254 12.2118C14.3817 11.9264 14.4084 11.6367 14.4674 11.3513C14.5082 11.1545 14.5954 10.9661 14.6376 10.7692C14.7487 10.249 14.8443 9.72592 14.9483 9.20287C14.9947 8.97227 15.0481 8.74449 15.0903 8.5125C15.1199 8.34939 15.1213 8.18207 15.1536 8.02038C15.2126 7.72792 15.2858 7.43968 15.349 7.14863C15.4278 6.78306 15.491 6.41467 15.5824 6.05191C15.6654 5.72149 15.7779 5.3995 15.8721 5.07189C15.9832 4.68382 16.083 4.29294 16.1983 3.90628C16.2869 3.60819 16.3909 3.31433 16.4879 3.01765C16.5807 2.73363 16.6609 2.44539 16.7706 2.1684C16.9041 1.83235 17.0616 1.50474 17.2064 1.18135C16.9885 1.11246 16.7734 1.04356 16.5596 0.974662C16.3797 1.44147 16.187 1.90406 16.0239 2.37649C15.8215 2.96 15.6288 3.54773 15.4587 4.14109C15.2872 4.74287 15.1325 5.35169 15.0031 5.96333C14.8583 6.64667 14.7458 7.33704 14.6305 8.026C14.5504 8.50265 14.4913 8.98212 14.421 9.46018C14.355 9.91433 14.2861 10.3671 14.2186 10.8198C14.1778 11.0968 14.13 11.3724 14.0977 11.6508C14.0569 12.0009 14.0217 12.351 13.9936 12.7011C13.9683 13.0344 13.9514 13.3676 13.9388 13.7008C13.9317 13.8963 13.9374 14.0931 13.9374 14.2886L13.9388 14.2942ZM12.8688 14.3279C12.8688 14.1353 12.873 13.9356 12.8688 13.736C12.8603 13.4154 12.8603 13.0948 12.8308 12.777C12.79 12.3285 12.7296 11.8828 12.6747 11.4371C12.6143 10.9492 12.5566 10.4613 12.4849 9.97479C12.4287 9.58813 12.3513 9.20428 12.2881 8.81902C12.2206 8.40986 12.1587 8.00069 12.0926 7.59153C12.0054 7.05583 11.9281 6.51872 11.8227 5.98723C11.7453 5.59775 11.6357 5.21531 11.5302 4.83286C11.3516 4.1903 11.1843 3.54352 10.9748 2.90939C10.7583 2.25417 10.4996 1.61301 10.2619 0.973255C10.0468 1.04496 9.82748 1.11667 9.59829 1.1926C9.70796 1.42741 9.8317 1.658 9.92449 1.90125C10.0679 2.27807 10.1931 2.66333 10.3224 3.04577C10.3815 3.22153 10.4349 3.39869 10.4925 3.57445C10.5881 3.86409 10.6908 4.15093 10.7794 4.44198C10.8876 4.79912 10.9861 5.15907 11.0831 5.52042C11.1913 5.92396 11.3109 6.32609 11.3938 6.73525C11.5204 7.35813 11.6132 7.98804 11.7299 8.61373C11.7931 8.95118 11.8831 9.28301 11.952 9.62046C12.0336 10.017 12.0715 10.4261 12.1939 10.8086C12.3443 11.2768 12.4315 11.7506 12.4905 12.2329C12.4948 12.2695 12.506 12.3046 12.5144 12.3412C12.5876 12.6716 12.6691 13.002 12.7296 13.3352C12.7774 13.594 12.7999 13.8583 12.835 14.1198C12.8449 14.1943 12.8589 14.2675 12.8688 14.3307V14.3279ZM9.48018 13.9652C9.49143 13.9567 9.50408 13.9483 9.51533 13.9384C9.19054 13.4801 8.86433 13.0231 8.54235 12.5633C8.18099 12.0459 7.82807 11.5229 7.46812 11.0068C7.25159 10.6975 7.02662 10.3966 6.80587 10.0901C6.58231 9.77935 6.37562 9.45455 6.13519 9.15787C5.79071 8.73184 5.42232 8.32268 5.06096 7.9093C4.98926 7.82635 4.90489 7.75323 4.82615 7.6759C4.5337 7.38485 4.24546 7.08817 3.94456 6.80555C3.71959 6.59465 3.47775 6.40061 3.22888 6.18689C3.11499 6.32468 2.98423 6.48497 2.84644 6.6537C3.05031 6.82242 3.32449 6.92225 3.43979 7.18659C3.42854 7.20206 3.41589 7.21753 3.40464 7.23299C3.16983 7.07833 2.93642 6.92225 2.80566 6.83649C2.63834 6.97428 2.49774 7.08957 2.35432 7.20768C2.37541 7.21752 2.42884 7.24284 2.48227 7.26814C2.60741 7.3286 2.7438 7.3736 2.85628 7.45234C3.12062 7.63793 3.38214 7.83056 3.62961 8.03725C3.9305 8.28893 4.22577 8.55046 4.50839 8.82324C4.8374 9.14241 5.16642 9.46439 5.46591 9.81169C5.98896 10.4191 6.49092 11.0448 6.99991 11.6649C7.37532 12.1232 7.74793 12.583 8.12194 13.0414C8.20489 13.1426 8.28785 13.2424 8.37081 13.3423C8.38627 13.331 8.40174 13.3198 8.41861 13.3085C8.27941 13.0948 8.14443 12.8783 8.00102 12.6674C7.80136 12.3735 7.59326 12.0839 7.39079 11.7928C7.15739 11.4582 6.93664 11.1123 6.68777 10.7903C6.41077 10.4332 6.1141 10.0915 5.81602 9.75263C5.49544 9.38565 5.16783 9.0243 4.83459 8.66857C4.57869 8.39579 4.30732 8.13849 4.0472 7.87134C3.99799 7.82072 3.96284 7.75323 3.92207 7.69418C3.93191 7.68152 3.94175 7.66887 3.95019 7.65621C4.08376 7.71527 4.23843 7.75042 4.3481 7.8404C4.63071 8.071 4.90208 8.31705 5.16361 8.57014C5.47013 8.86823 5.76399 9.17896 6.05786 9.48829C6.31798 9.76247 6.58653 10.0324 6.82415 10.3263C7.08005 10.6413 7.30643 10.9801 7.54124 11.3119C7.92369 11.8519 8.29629 12.4002 8.68576 12.9359C8.94026 13.286 9.21444 13.6207 9.48018 13.9623V13.9652ZM13.5113 11.4582C13.5437 11.4118 13.5549 11.4033 13.5549 11.3949C13.5423 10.6244 13.6772 9.86793 13.7799 9.10866C13.8291 8.74168 13.8881 8.37611 13.9374 8.01054C14.0006 7.54795 14.047 7.08395 14.1216 6.62417C14.1876 6.20798 14.2832 5.79601 14.362 5.38122C14.4098 5.12673 14.4435 4.86942 14.4928 4.61492C14.5363 4.39136 14.5982 4.17202 14.639 3.94986C14.6812 3.71927 14.698 3.48586 14.7444 3.25668C14.8063 2.94735 14.8808 2.63943 14.9567 2.33291C15.0341 2.02217 15.1044 1.70721 15.207 1.40491C15.3054 1.11527 15.4418 0.839679 15.567 0.541596C15.4067 0.530348 15.2295 0.547222 15.1423 0.679391C14.9582 0.956382 14.7669 1.24322 14.6615 1.55536C14.4745 2.11075 14.3423 2.68442 14.1989 3.25246C14.0878 3.69537 13.9964 4.1439 13.8924 4.58962C13.8052 4.96925 13.7096 5.34607 13.6266 5.72711C13.5957 5.86912 13.5648 6.01816 13.5676 6.16158C13.5802 6.68744 13.6266 7.2119 13.6266 7.73776C13.6266 8.29737 13.5858 8.85838 13.5634 9.41799C13.5451 9.90167 13.5254 10.3854 13.5113 10.869C13.5057 11.0546 13.5113 11.2388 13.5113 11.461V11.4582ZM13.2104 10.3572C13.2217 10.173 13.2484 9.94386 13.247 9.71467C13.247 9.24505 13.2301 8.77543 13.2231 8.30581C13.2189 7.99788 13.2203 7.68996 13.2175 7.38203C13.2147 7.03896 13.1992 6.69729 13.2076 6.35421C13.2132 6.10675 13.3103 5.85365 13.1429 5.62166C13.1219 5.59353 13.1176 5.55136 13.1106 5.5148C13.0628 5.27155 13.0234 5.0283 12.97 4.78646C12.8828 4.38855 12.7886 3.99204 12.6944 3.59554C12.5707 3.07249 12.4455 2.55085 12.3134 2.03061C12.2782 1.89422 12.2248 1.75924 12.1629 1.63269C12.0069 1.31352 11.8508 0.992941 11.6764 0.685016C11.6089 0.565502 11.3446 0.523321 11.2771 0.558472C11.4135 0.939512 11.5541 1.31352 11.6792 1.69175C11.758 1.93218 11.817 2.17965 11.8789 2.42571C11.9647 2.76738 12.0575 3.10904 12.1236 3.45493C12.1812 3.7488 12.1939 4.0525 12.2501 4.34637C12.3359 4.79912 12.4469 5.24624 12.5369 5.69899C12.5861 5.94083 12.6185 6.18689 12.6536 6.43295C12.7268 6.95459 12.7985 7.47764 12.8674 8.0007C12.8983 8.2341 12.9123 8.47031 12.9475 8.70231C12.9981 9.02852 13.0656 9.35332 13.1176 9.67952C13.157 9.91995 13.1823 10.1632 13.2076 10.3586L13.2104 10.3572ZM15.7793 0.537378C15.7666 0.675171 15.7709 0.758129 15.7484 0.832649C15.6612 1.1223 15.5585 1.40772 15.477 1.69878C15.3364 2.1923 15.2056 2.69004 15.0763 3.18638C15.0397 3.32698 15.0327 3.47602 15.0017 3.61803C14.9652 3.79238 14.9103 3.96392 14.8766 4.13827C14.7402 4.82865 14.6066 5.51901 14.4787 6.21079C14.369 6.80274 14.272 7.39609 14.168 7.98944C14.1469 8.11036 14.1159 8.22988 14.0991 8.35221C14.0653 8.60811 14.047 8.86682 14.0077 9.12132C13.9627 9.40674 13.8811 9.68796 13.8516 9.97479C13.8122 10.3558 13.8108 10.7411 13.7883 11.1249C13.7672 11.4933 13.7335 11.8603 13.718 12.2287C13.711 12.4185 13.7321 12.6097 13.7419 12.8319C13.7813 12.6378 13.8291 12.4832 13.8432 12.3257C13.8685 12.0375 13.8614 11.7464 13.8896 11.4596C13.9374 10.9731 13.9992 10.488 14.0625 10.0043C14.1131 9.61625 14.1736 9.23099 14.2383 8.84433C14.2551 8.74028 14.3128 8.64186 14.3296 8.53781C14.3746 8.24113 14.4042 7.94304 14.4464 7.64637C14.5124 7.19503 14.5659 6.74087 14.6573 6.29375C14.7641 5.77351 14.8921 5.25749 15.0355 4.74709C15.2126 4.11999 15.4095 3.49852 15.6092 2.87705C15.7076 2.57193 15.8327 2.27526 15.9452 1.97436C16.0858 1.59754 16.225 1.22072 16.3684 0.834057C16.2025 0.7511 16 0.648459 15.7779 0.535975L15.7793 0.537378ZM10.4082 0.855147C10.5108 1.0534 10.6261 1.23338 10.7006 1.42741C10.8623 1.85485 11.0029 2.28932 11.1534 2.72097C11.2321 2.94735 11.3179 3.17091 11.3896 3.39869C11.4965 3.73896 11.5921 4.08203 11.6933 4.4223C11.7622 4.65289 11.8409 4.88067 11.9028 5.11407C11.9506 5.29264 11.9787 5.47683 12.0153 5.65822C12.087 6.01535 12.1643 6.37249 12.229 6.73103C12.2853 7.04177 12.3246 7.35532 12.3809 7.66605C12.4427 8.01476 12.5285 8.36064 12.5791 8.71075C12.6593 9.25067 12.7183 9.79481 12.7858 10.3375C12.8477 10.8409 12.9124 11.3443 12.9686 11.8476C13.0009 12.1373 13.0164 12.4283 13.0389 12.718C13.0544 12.718 13.0712 12.718 13.0867 12.718C13.0867 12.5422 13.0951 12.3665 13.0853 12.1921C13.06 11.7605 13.015 11.3302 13.0009 10.8986C12.9841 10.405 12.9377 9.91714 12.8505 9.43205C12.7675 8.97227 12.6972 8.50968 12.6269 8.04709C12.5763 7.71105 12.5468 7.37219 12.4891 7.03896C12.3977 6.51028 12.2895 5.98442 12.1882 5.45715C12.125 5.12814 12.0645 4.80052 11.9998 4.47151C11.9619 4.27747 11.9141 4.08625 11.8761 3.89222C11.8381 3.69818 11.8142 3.50133 11.772 3.30871C11.7228 3.08093 11.6652 2.85455 11.6047 2.62818C11.5007 2.24573 11.3952 1.86328 11.2841 1.48365C11.197 1.18416 11.1 0.888894 10.9973 0.558472C10.8216 0.647053 10.6135 0.751098 10.4082 0.853739V0.855147ZM19.8456 12.2217C19.8554 12.2259 19.8653 12.2301 19.8765 12.2343C19.982 12.1528 20.093 12.0754 20.1929 11.9868C20.5388 11.6789 20.8762 11.3612 21.2249 11.056C21.6847 10.6511 22.1557 10.2574 22.6155 9.85106C23.0542 9.46299 23.4844 9.06648 23.9189 8.67419C24.1115 8.50125 24.2971 8.31987 24.5038 8.1652C24.7738 7.96273 25.0606 7.78416 25.3475 7.58872C25.204 7.37219 24.9566 7.35813 24.7457 7.29907C24.6754 7.27939 24.5587 7.38484 24.4771 7.45093C24.1917 7.68012 23.9049 7.9079 23.6321 8.15114C23.3677 8.38736 23.1189 8.64045 22.8616 8.8851C22.6478 9.08757 22.4257 9.2816 22.2204 9.49251C21.9729 9.7456 21.7395 10.0128 21.4991 10.2757C21.2179 10.5836 20.9325 10.8887 20.6569 11.2023C20.5191 11.3597 20.401 11.5341 20.2702 11.6986C20.131 11.8744 19.9876 12.0473 19.847 12.2217H19.8456ZM6.88321 12.1654C6.86633 12.1204 6.86212 12.0867 6.84524 12.067C6.5556 11.7239 6.26595 11.3808 5.97209 11.0406C5.73868 10.7706 5.50106 10.5063 5.26063 10.2419C5.0919 10.0563 4.91474 9.87637 4.7446 9.69217C4.55057 9.48127 4.3706 9.2563 4.16391 9.05804C3.84051 8.7459 3.50306 8.44641 3.1642 8.15114C2.83659 7.86572 2.49774 7.59153 2.1631 7.31313C2.14622 7.29907 2.11248 7.28642 2.0942 7.29204C1.88048 7.36797 1.62317 7.3511 1.48116 7.56904C1.69207 7.72933 1.90017 7.87555 2.09701 8.03725C2.60038 8.44782 3.10374 8.85557 3.59586 9.27879C4.02471 9.64718 4.43387 10.0381 4.8585 10.4107C5.52496 10.9956 6.19705 11.5721 6.88461 12.1682L6.88321 12.1654ZM26.2698 11.842C25.3756 12.0712 24.4898 12.2582 23.6293 12.5282C22.7631 12.7995 21.9223 13.1539 21.0703 13.4716C21.0759 13.4913 21.0829 13.511 21.0885 13.5321C21.3852 13.4941 21.6833 13.4632 21.98 13.4154C22.2288 13.3746 22.4735 13.3015 22.7224 13.2664C23.1596 13.2045 23.5997 13.1707 24.0356 13.1089C24.4884 13.0456 24.9439 12.9823 25.3896 12.8839C25.668 12.822 25.9408 12.7208 26.1391 12.4832C26.3331 12.2498 26.3865 12.015 26.2684 11.842H26.2698ZM0.525048 11.8547C0.513799 11.8955 0.49552 11.9503 0.482866 12.0065C0.425218 12.2596 0.750016 12.6055 0.931396 12.6997C1.30119 12.8923 1.70613 12.9514 2.11529 13.0048C2.53289 13.0597 2.94627 13.1398 3.36246 13.1989C3.61414 13.234 3.87004 13.2368 4.12032 13.2762C4.49995 13.3367 4.87537 13.4224 5.255 13.4843C5.37592 13.504 5.50387 13.4871 5.62901 13.4871C5.63463 13.4688 5.63885 13.4505 5.64448 13.4323C4.80788 13.1243 3.98253 12.7799 3.13187 12.5183C2.28261 12.2568 1.40945 12.0768 0.523643 11.8547H0.525048ZM25.8424 11.1418C24.0131 11.5735 22.3188 12.3665 20.6934 13.3268C20.7708 13.3184 20.8467 13.3015 20.9156 13.2706C21.1631 13.1581 21.4007 13.0231 21.6538 12.9289C22.2527 12.7081 22.8587 12.5043 23.4634 12.2976C23.6194 12.2442 23.7797 12.1992 23.9386 12.1542C24.1762 12.0867 24.4138 12.015 24.6543 11.9545C24.9861 11.873 25.3193 11.7942 25.654 11.7267C25.8143 11.6944 25.9788 11.6902 26.1489 11.6733C26.0435 11.4891 25.9422 11.3133 25.8424 11.1404V11.1418ZM6.0916 13.3521C6.10004 13.3381 6.10707 13.324 6.1155 13.3113C4.48589 12.3721 2.79722 11.5707 0.966548 11.1559C0.866718 11.3288 0.768295 11.4989 0.68815 11.641C0.946863 11.6888 1.20698 11.7267 1.46288 11.7886C1.955 11.9067 2.44852 12.0248 2.93361 12.1682C3.32871 12.2849 3.71397 12.4326 4.10063 12.5732C4.58853 12.7503 5.07503 12.9303 5.56011 13.1159C5.74149 13.1848 5.91444 13.2748 6.0916 13.3549V13.3521ZM11.242 15.8324C11.2616 15.8211 11.2813 15.8085 11.301 15.7972C11.1407 15.5413 10.979 15.2854 10.8187 15.0295C10.7977 15.0436 10.7752 15.0563 10.7541 15.0703C10.9172 15.3248 11.0803 15.5779 11.2434 15.8324H11.242ZM17.8307 13.9989C18.1175 13.892 18.171 13.5841 18.3861 13.4154C18.3678 13.3999 18.351 13.3845 18.3327 13.369C18.1654 13.5785 17.998 13.788 17.8307 13.9989Z" fill="#9C3C33"/>
<path id="Vector_8" d="M7.52333 1.84656C7.62316 2.04341 7.72721 2.23744 7.82141 2.4371C7.93671 2.68176 8.04357 2.92922 8.15465 3.17528C8.29244 3.4832 8.43445 3.78972 8.56521 4.10046C8.71144 4.44916 8.84502 4.80208 8.98422 5.15219C9.14451 5.55291 9.3062 5.95364 9.4679 6.35436C9.60288 6.68619 9.74629 7.0138 9.87284 7.34703C9.96001 7.57903 10.0303 7.81806 10.0978 8.05709C10.1119 8.10489 10.0767 8.16535 10.0641 8.22019C10.0106 8.18644 9.93189 8.16395 9.90659 8.11473C9.80113 7.90805 9.70974 7.69151 9.61413 7.4792C9.43978 7.09254 9.2584 6.70728 9.09529 6.3164C8.91813 5.89177 8.75784 5.45871 8.58771 5.02986C8.49069 4.7838 8.38102 4.54337 8.29103 4.2959C8.21229 4.08359 8.16449 3.86003 8.08294 3.64771C7.93811 3.27371 7.77642 2.90532 7.62457 2.53412C7.55989 2.37524 7.49521 2.21495 7.44459 2.05185C7.42631 1.9956 7.44881 1.92811 7.45162 1.86625C7.47552 1.85922 7.49943 1.85219 7.52192 1.84375L7.52333 1.84656Z" fill="#9C3C33"/>
</g>
<g id="Group_3">
<path id="Vector_9" d="M13.3534 21.0268C13.404 21.0296 13.4518 21.031 13.5038 21.0338C13.5095 21.0142 13.5165 20.9973 13.5193 20.9804C13.5305 20.8651 13.5404 20.7484 13.5502 20.6331C13.5657 20.4433 13.5713 20.2535 13.5966 20.0651C13.6388 19.7459 13.6894 19.4281 13.7457 19.1118C13.8216 18.6928 13.9032 18.2752 13.9889 17.8576C14.0255 17.6776 14.062 17.4948 14.1225 17.3205C14.2758 16.8776 14.4206 16.429 14.6146 16.0044C14.7088 15.7991 14.8621 15.6191 15.1236 15.532C15.6593 15.3534 16.1346 15.4575 16.6 15.7274C16.7954 15.8413 16.9894 15.9707 17.2017 16.0396C17.3705 16.0944 17.5645 16.0789 17.7473 16.0733C18.0665 16.0635 18.3083 16.1788 18.4855 16.4487C18.5712 16.5809 18.6654 16.7229 18.7906 16.8073C18.9045 16.8846 19.0746 16.9408 19.2054 16.9197C19.772 16.8298 20.2079 17.0477 20.5425 17.4709C20.7351 17.7128 20.9967 17.8224 21.2441 17.9687C21.5169 18.1289 21.7925 18.2864 22.0568 18.458C22.2509 18.5845 22.4463 18.7167 22.615 18.8742C22.885 19.1244 23.1015 19.4211 23.2506 19.7642C23.4545 20.2366 23.6457 20.7175 23.8847 21.1716C23.9986 21.3882 24.2095 21.5527 24.3782 21.7397C24.4781 21.8494 24.5905 21.9478 24.6805 22.0659C24.7958 22.2149 24.935 22.3162 25.1164 22.3668C25.4553 22.4624 25.683 22.6789 25.8461 22.9925C25.9727 23.2343 26.1527 23.4523 26.1527 23.7391C26.1527 23.9837 26.1456 24.2326 26.1049 24.473C26.05 24.8035 26.0514 25.1269 26.23 25.4081C26.3987 25.6738 26.4522 25.9424 26.3804 26.2405C26.3214 26.4823 26.4142 26.6679 26.5576 26.8563C26.874 27.2725 26.9232 27.5973 26.6715 28.0683C26.3298 28.7053 25.7716 28.9738 25.0714 29.0287C24.658 29.061 24.2489 29.151 23.8369 29.2044C23.5121 29.2466 23.1831 29.2663 22.8583 29.3028C22.5138 29.3408 22.1707 29.3844 21.8277 29.4294C21.5169 29.4716 21.2048 29.5137 20.8954 29.5686C20.7267 29.5981 20.5608 29.6501 20.3963 29.6993C20.132 29.7781 19.8676 29.8638 19.6047 29.9468C19.2011 30.0733 18.7934 30.1858 18.3969 30.3278C17.9793 30.4769 17.5729 30.6554 17.1596 30.8171C16.6182 31.0295 16.1767 31.3866 15.7676 31.7873C15.4695 32.0798 15.1742 32.3779 14.9029 32.6956C14.4628 33.2088 14.1436 33.8008 13.9735 34.4518C13.8399 34.9636 13.7808 35.4951 13.6979 36.0195C13.6838 36.1137 13.7218 36.2164 13.7302 36.3148C13.7485 36.5088 13.6754 36.5735 13.4841 36.537C13.4602 36.5327 13.4363 36.5285 13.411 36.5299C13.3407 36.5313 13.2198 36.558 13.21 36.537C13.1692 36.4371 13.1523 36.3261 13.1411 36.2178C13.1312 36.1208 13.1481 36.0223 13.1369 35.9253C13.113 35.7074 13.1045 35.4838 13.0469 35.2729C12.9175 34.7991 12.8599 34.3126 12.663 33.8486C12.4395 33.3213 12.0922 32.8953 11.7505 32.4594C11.3315 31.9251 10.8211 31.478 10.2587 31.1096C9.88607 30.8664 9.44738 30.7159 9.02838 30.55C8.57282 30.37 8.10882 30.2111 7.64201 30.0593C7.3144 29.9524 6.97695 29.8779 6.64512 29.7837C6.48624 29.7387 6.33438 29.667 6.17269 29.6333C5.84227 29.5629 5.50903 29.5095 5.1772 29.4505C4.95927 29.4125 4.74133 29.3717 4.52058 29.3422C4.3631 29.3211 4.20281 29.3169 4.04393 29.3C3.50822 29.2424 2.97392 29.1875 2.43962 29.1214C2.08671 29.0779 1.73519 29.023 1.38368 28.964C0.791732 28.8641 0.392414 28.5042 0.133701 27.9854C-0.06174 27.5931 0.0127813 27.212 0.277119 26.8746C0.424754 26.6862 0.524583 26.5118 0.469747 26.2503C0.406475 25.948 0.455688 25.6541 0.631444 25.3743C0.812824 25.0847 0.797357 24.7641 0.734085 24.4238C0.66097 24.0273 0.630037 23.6125 0.870472 23.2399C0.944993 23.1246 0.999828 22.9995 1.07154 22.8828C1.2248 22.6311 1.43008 22.4399 1.72957 22.3822C1.9925 22.3316 2.12748 22.1151 2.30042 21.9506C2.48602 21.7734 2.666 21.585 2.81785 21.3783C2.95565 21.1927 3.06672 20.9832 3.16655 20.7737C3.37465 20.3379 3.53072 19.8725 3.77678 19.4605C3.96238 19.1483 4.22109 18.8573 4.50792 18.6337C4.85381 18.3638 5.24891 18.1472 5.64682 17.9588C5.98849 17.7971 6.25986 17.5637 6.49327 17.2881C6.78573 16.9408 7.16817 16.8902 7.57171 16.9099C7.87401 16.924 8.10882 16.8466 8.27473 16.5851C8.34644 16.4712 8.42659 16.3559 8.52782 16.2687C8.69092 16.1253 8.88636 16.0522 9.11274 16.0775C9.5458 16.1267 9.91138 15.9482 10.2643 15.7288C10.8056 15.39 11.3709 15.3295 11.9389 15.6388C12.0767 15.7134 12.1948 15.8821 12.2539 16.0325C12.4704 16.5907 12.6827 17.1517 12.85 17.7254C12.9695 18.1332 13.0173 18.562 13.0905 18.9838C13.1593 19.3817 13.2297 19.7797 13.2831 20.1804C13.3196 20.4546 13.3295 20.733 13.352 21.031L13.3534 21.0268ZM23.5079 21.5513C23.4629 21.6539 23.4446 21.7833 23.3701 21.8536C23.0003 22.1995 22.6038 22.5186 22.2396 22.8701C21.9753 23.1261 21.7475 23.4185 21.5029 23.6941C21.2287 24.0048 20.9447 24.3057 20.6859 24.6291C20.3893 25.0003 20.108 25.3856 19.8353 25.775C19.3741 26.4317 18.927 27.0995 18.4686 27.759C18.1677 28.192 17.8556 28.6181 17.5504 29.0497C17.5139 29.1004 17.4886 29.158 17.4591 29.2128C17.7403 28.9176 17.9905 28.6054 18.2268 28.282C18.4053 28.036 18.5628 27.7759 18.7343 27.5256C18.8974 27.288 19.069 27.0546 19.2363 26.8183C19.3319 26.6834 19.4219 26.5442 19.5217 26.412C19.7495 26.1153 19.9759 25.8172 20.2135 25.5276C20.364 25.3434 20.5299 25.1704 20.6944 24.9975C20.8533 24.8316 21.015 24.6699 21.1823 24.5124C21.5268 24.1876 21.8698 23.86 22.227 23.5493C22.3816 23.4143 22.5686 23.3173 22.7416 23.2048C22.7725 23.1851 22.8077 23.1725 22.8414 23.157C22.8274 23.2034 22.8217 23.2568 22.795 23.2934C22.7641 23.337 22.7092 23.3637 22.6727 23.4044C22.1721 23.943 21.6617 24.4744 21.1752 25.0242C20.7366 25.5206 20.3133 26.031 19.9014 26.5498C19.6989 26.8057 19.5442 27.0981 19.36 27.3667C19.0844 27.7688 18.8018 28.1653 18.5234 28.5661C18.4925 28.611 18.4784 28.6659 18.4559 28.7165C18.5122 28.7193 18.5389 28.7053 18.5572 28.6842C18.7976 28.3945 19.0352 28.1035 19.2757 27.8152C19.5119 27.5326 19.7551 27.257 19.9885 26.9716C20.2824 26.6117 20.5622 26.2419 20.8575 25.8833C21.1274 25.5557 21.4086 25.2365 21.687 24.916C21.8262 24.7557 21.9598 24.5897 22.1159 24.4477C22.4702 24.1215 22.8358 23.808 23.1985 23.4902C23.3138 23.389 23.4277 23.2835 23.5543 23.1992C23.7863 23.0431 24.0267 22.8997 24.2671 22.7549C24.3487 22.7056 24.4387 22.6677 24.5371 22.6185C24.3881 22.475 24.2559 22.3499 24.1139 22.2135C23.9184 22.3358 23.7104 22.4666 23.5023 22.5974C23.4868 22.5763 23.4713 22.5552 23.4559 22.5341C23.6372 22.3837 23.8186 22.2332 23.9986 22.0828C23.8327 21.9042 23.6696 21.7284 23.5065 21.5541C23.3574 21.2251 23.2084 20.8946 23.0565 20.5572C22.2776 21.4964 21.538 22.4399 20.6114 23.2301C20.5917 23.1415 20.5847 23.0529 20.6227 22.9981C20.8223 22.7169 21.0262 22.4399 21.2413 22.1713C21.5253 21.817 21.8164 21.4697 22.1131 21.1266C22.3619 20.8384 22.615 20.5502 22.9905 20.3772C22.8934 20.1537 22.7978 19.9315 22.6867 19.67C22.4969 19.85 22.3212 19.992 22.1764 20.1593C21.8319 20.5586 21.4818 20.9551 21.1682 21.3783C20.7661 21.9211 20.3935 22.4877 20.0124 23.0459C19.8142 23.337 19.6202 23.6322 19.436 23.9317C19.1969 24.3198 18.9621 24.7121 18.7357 25.1072C18.5839 25.3715 18.4475 25.6443 18.3083 25.9157C18.0805 26.36 17.8527 26.8043 17.6292 27.2514C17.4351 27.6395 17.2496 28.0318 17.0569 28.4198C16.8502 28.836 16.6421 29.2522 16.4256 29.6642C16.2442 30.0101 16.0558 30.3517 15.866 30.692C15.762 30.8776 15.6467 31.0562 15.537 31.2376L15.5749 31.2657C15.641 31.1869 15.7212 31.1166 15.7718 31.0295C15.9321 30.7539 16.0783 30.4713 16.2344 30.1929C16.4565 29.7992 16.6829 29.4097 16.9051 29.016C17.1807 28.5267 17.4562 28.0374 17.7276 27.5453C17.8682 27.2908 17.9934 27.0292 18.134 26.7733C18.283 26.5006 18.4433 26.2348 18.5951 25.9635C18.7273 25.7272 18.844 25.4826 18.9846 25.252C19.1323 25.0116 19.3052 24.7866 19.4613 24.5504C19.6497 24.2678 19.8282 23.9781 20.0195 23.6983C20.0518 23.6519 20.1291 23.6379 20.1868 23.6083C20.1896 23.6871 20.2219 23.7827 20.1896 23.8417C19.9899 24.2101 19.7748 24.5673 19.5681 24.9314C19.3179 25.3715 19.0774 25.8186 18.8229 26.2573C18.38 27.0208 17.9287 27.7801 17.483 28.5422C17.4647 28.5731 17.4619 28.6111 17.452 28.6462C17.5223 28.5829 17.5575 28.5042 17.6067 28.4353C17.8612 28.0655 18.1255 27.7027 18.373 27.3287C18.6373 26.928 18.8834 26.5146 19.1435 26.1125C19.2321 25.9747 19.3446 25.851 19.4416 25.7188C19.6202 25.4756 19.7861 25.2239 19.9731 24.9877C20.2501 24.639 20.5327 24.2959 20.8265 23.9612C21.1781 23.5605 21.5338 23.1626 21.9078 22.783C22.2467 22.4399 22.6052 22.1151 22.9708 21.8001C23.1198 21.6722 23.2689 21.4993 23.5093 21.5485L23.5079 21.5513ZM11.8531 30.4656C11.9333 30.7497 12.0134 31.0337 12.095 31.3177C12.1161 31.3107 12.1386 31.3036 12.1596 31.2966C12.1048 31.1363 12.0528 30.9746 11.9951 30.8143C11.9516 30.6962 11.8995 30.5809 11.8517 30.4656C11.8559 30.4305 11.8714 30.3911 11.863 30.3588C11.7449 29.9285 11.6366 29.4955 11.4988 29.0722C11.2809 28.403 11.0587 27.7351 10.8084 27.0785C10.5905 26.509 10.329 25.955 10.0885 25.394C10.0407 25.2815 10.007 25.1606 9.95356 25.0509C9.78905 24.7107 9.6147 24.3732 9.45019 24.033C9.43472 24.0006 9.46003 23.9472 9.46566 23.9036C9.48675 23.898 9.50924 23.8909 9.53034 23.8853C10.0731 24.5574 10.4119 25.3462 10.7438 26.1322C11.084 26.935 11.3793 27.7576 11.6858 28.5492C11.6844 28.5618 11.6928 28.5436 11.6886 28.5281C11.5297 28.0121 11.3807 27.4932 11.2078 26.9814C11.0489 26.5146 10.8619 26.0591 10.6917 25.5965C10.5708 25.2689 10.4499 24.9399 10.3388 24.608C10.2952 24.4801 10.2305 24.3395 10.3754 24.1862C10.8028 25.058 11.1459 25.9396 11.4524 26.8338C11.7617 27.7309 12.0429 28.6392 12.3354 29.5419C12.3171 29.3703 12.2848 29.2002 12.2454 29.0315C12.1428 28.5956 12.0373 28.1597 11.9291 27.7252C11.8545 27.4243 11.7702 27.1263 11.6985 26.824C11.6886 26.7846 11.7322 26.7326 11.7505 26.6862C11.7758 26.6876 11.8011 26.689 11.8264 26.6904C12.1048 27.7829 12.3846 28.8768 12.663 29.9693C12.6757 29.8751 12.656 29.7851 12.6405 29.6951C12.5744 29.3099 12.5168 28.9232 12.4423 28.5393C12.3565 28.1021 12.251 27.6676 12.1596 27.2303C12.0753 26.8268 11.9965 26.4218 11.9136 26.0183C11.7181 25.0706 11.5185 24.1243 11.3259 23.1753C11.2485 22.7984 11.1993 22.4146 11.1093 22.0406C11.0193 21.6694 10.8942 21.3066 10.7859 20.9396C10.748 20.8089 10.7156 20.6767 10.6791 20.5459C10.6074 20.283 10.5413 20.0187 10.4611 19.7586C10.381 19.4998 10.2812 19.2468 10.1996 18.9894C10.1012 18.6773 10.0267 18.3581 9.917 18.0502C9.74405 17.5665 9.55002 17.0885 9.37286 16.6287C8.98901 16.4951 8.66983 16.5682 8.47298 16.9169C8.54469 17.0379 8.63046 17.1588 8.69233 17.2923C8.78794 17.4962 8.8723 17.7043 8.94964 17.9152C9.13102 18.4087 9.30537 18.9065 9.48534 19.4C9.59923 19.7122 9.65688 20.0398 9.76936 20.3547C9.97605 20.9368 10.1392 21.5358 10.3669 22.1123C10.4822 22.4047 10.575 22.707 10.6777 23.0037C10.7873 23.3173 10.904 23.628 11.0039 23.9444C11.0981 24.2396 11.1782 24.5391 11.2584 24.8386C11.3329 25.1184 11.399 25.3996 11.4693 25.6808C11.4763 25.7118 11.489 25.7413 11.496 25.7722C11.5129 25.8453 11.5269 25.9185 11.5438 25.9916C11.5241 25.9958 11.503 26 11.4833 26.0042C11.4046 25.8397 11.3076 25.6808 11.2485 25.5079C11.0601 24.9638 10.8998 24.4098 10.703 23.8684C10.5174 23.3566 10.3233 22.8505 10.2249 22.3134C10.2081 22.2234 10.1841 22.1348 10.156 22.0476C10.0379 21.6736 9.9184 21.2996 9.79608 20.927C9.69906 20.6289 9.61189 20.3252 9.49378 20.0356C9.30396 19.5716 9.0804 19.1216 8.89339 18.6576C8.71201 18.2049 8.56016 17.7395 8.39565 17.2797C8.36613 17.1995 8.33238 17.1208 8.31551 17.0772C8.02024 17.1321 7.74325 17.1756 7.47047 17.2361C7.3144 17.2699 7.14427 17.3008 7.01772 17.3866C6.83775 17.5103 6.69152 17.6832 6.53264 17.8323C6.63668 17.9743 6.75338 18.1036 6.83634 18.2527C6.96007 18.4734 7.04866 18.7139 7.17239 18.9346C7.50703 19.5336 7.86838 20.1185 8.19037 20.7245C8.43502 21.1843 8.63468 21.6666 8.85543 22.1376C8.95104 22.3401 9.0579 22.5369 9.14648 22.7422C9.18304 22.828 9.18726 22.9278 9.20554 23.0206C9.18445 23.0333 9.16476 23.0445 9.14367 23.0572C9.09305 23.0065 9.03541 22.9615 8.99322 22.9053C8.94964 22.8477 8.92433 22.7774 8.88636 22.7169C8.77528 22.5383 8.65015 22.3668 8.55032 22.1812C8.26208 21.6427 7.98649 21.0971 7.70106 20.5572C7.37064 19.9315 7.03741 19.3058 6.70136 18.6829C6.60997 18.5128 6.5017 18.3525 6.4089 18.1838C6.34844 18.0741 6.2697 18.0586 6.16706 18.1107C6.02083 18.1852 5.8732 18.2597 5.74806 18.3244C5.9196 18.5719 6.09114 18.8081 6.25283 19.0541C6.43562 19.3325 6.61278 19.6137 6.78291 19.8992C6.86165 20.0313 6.93055 20.1719 6.98538 20.3154C7.00507 20.366 6.97132 20.4377 6.96289 20.4995C6.89962 20.477 6.83353 20.4588 6.77166 20.4307C6.75198 20.4222 6.74214 20.3927 6.72808 20.373C6.5242 20.0805 6.3161 19.7895 6.11504 19.4942C5.97303 19.2861 5.83523 19.0738 5.70307 18.8587C5.62714 18.735 5.56527 18.6042 5.48654 18.458C4.96911 18.7139 4.61619 19.0963 4.29139 19.5406C4.40247 19.6292 4.51777 19.7009 4.60635 19.7965C4.83131 20.0384 5.04222 20.2915 5.26157 20.5375C5.44576 20.7456 5.64682 20.9396 5.81836 21.1576C6.14738 21.5738 6.46515 21.9984 6.7787 22.4258C6.95164 22.6606 7.10912 22.9053 7.27222 23.1471C7.5703 23.5915 7.89791 24.0189 8.15803 24.4843C8.54048 25.1648 8.87652 25.8721 9.22803 26.5695C9.64563 27.399 10.0576 28.2328 10.4696 29.0652C10.6678 29.4659 10.8605 29.8681 11.0615 30.2674C11.1093 30.363 11.1768 30.4502 11.2359 30.5402C11.1628 30.3025 11.0601 30.0818 10.9589 29.8596C10.8408 29.6037 10.7213 29.3464 10.6032 29.0905C10.4963 28.8571 10.3951 28.6195 10.2798 28.3917C10.1602 28.1555 10.0154 27.9319 9.90013 27.6957C9.75109 27.392 9.63017 27.0756 9.47831 26.7733C9.19007 26.1997 8.88777 25.633 8.5939 25.0608C8.38721 24.6572 8.18334 24.2523 7.97946 23.8474C7.94009 23.77 7.90916 23.6899 7.86557 23.6154C7.74887 23.4143 7.62514 23.216 7.50844 23.0136C7.32424 22.6944 7.14708 22.3696 6.95867 22.0518C6.85322 21.8719 6.73511 21.7003 6.61841 21.5274C6.46233 21.294 6.30345 21.0606 6.14175 20.83C5.98006 20.5994 5.81555 20.3716 5.64682 20.1466C5.54418 20.0102 5.42889 19.8823 5.32484 19.7473C5.19689 19.58 5.07456 19.407 4.93396 19.2158C4.99442 19.2088 5.02816 19.1947 5.03941 19.206C5.1772 19.3255 5.32203 19.4394 5.44154 19.5744C5.57933 19.7304 5.69041 19.9104 5.81977 20.0749C5.98428 20.2802 6.16425 20.4742 6.32173 20.6837C6.55232 20.9945 6.77588 21.3122 6.99101 21.6328C7.23707 21.9998 7.4761 22.3738 7.71231 22.7478C7.80792 22.8983 7.88947 23.0586 7.97665 23.2146C8.09335 23.4241 8.21146 23.6336 8.32535 23.8445C8.4533 24.0822 8.57281 24.3254 8.70217 24.5616C8.83434 24.8021 8.98479 25.0326 9.10993 25.2773C9.24772 25.5459 9.3588 25.8299 9.49659 26.0984C9.66672 26.4317 9.86357 26.7508 10.0309 27.0855C10.1673 27.3569 10.2741 27.6423 10.3979 27.9193C10.419 27.9671 10.4597 28.005 10.4921 28.0486C10.4555 27.8715 10.3838 27.7182 10.3135 27.5635C10.1715 27.2542 10.0253 26.9477 9.88888 26.6356C9.74546 26.3079 9.6147 25.9747 9.4755 25.6443C9.37005 25.394 9.25616 25.1451 9.1507 24.8949C8.99463 24.5279 8.85684 24.1525 8.68389 23.7939C8.49267 23.4002 8.27051 23.022 8.06242 22.6353C7.9415 22.4104 7.8262 22.1826 7.70669 21.9576C7.53656 21.6399 7.36361 21.3235 7.19629 21.0043C7.1752 20.9635 7.18364 20.9059 7.17801 20.8567C7.19348 20.8497 7.20895 20.844 7.22441 20.837C7.26519 20.8792 7.31018 20.9185 7.34533 20.9649C7.44235 21.0999 7.53796 21.2363 7.62935 21.3755C7.8965 21.7847 8.16647 22.1924 8.42377 22.6086C8.58969 22.8772 8.74998 23.1514 8.88355 23.4368C9.08321 23.8614 9.25475 24.3001 9.44457 24.7304C9.56408 25.0003 9.69906 25.2632 9.81717 25.5332C10.059 26.083 10.2896 26.637 10.5314 27.1867C10.703 27.5762 10.9026 27.9544 11.0531 28.3523C11.2513 28.8726 11.4074 29.4083 11.5944 29.9341C11.6591 30.1155 11.7631 30.2843 11.8489 30.4586L11.8531 30.4656ZM21.1092 18.3356C20.9742 18.2583 20.8504 18.1866 20.7253 18.1177C20.6424 18.0713 20.5678 18.0488 20.506 18.1557C20.385 18.3638 20.2557 18.5676 20.1348 18.7757C19.9323 19.1244 19.7284 19.4717 19.5386 19.8275C19.3319 20.2141 19.1505 20.6148 18.941 20.9987C18.6626 21.5091 18.3688 22.0111 18.0819 22.5172C18.0088 22.6466 17.9512 22.7844 17.8724 22.9095C17.8359 22.9672 17.7642 23.0037 17.7093 23.0501C17.6981 22.9854 17.6601 22.9081 17.6812 22.8561C17.8373 22.4807 18.0046 22.1081 18.1691 21.7369C18.2239 21.6131 18.2774 21.4866 18.3406 21.3671C18.4784 21.1056 18.6261 20.8497 18.7653 20.5881C18.9228 20.2943 19.0732 19.9962 19.2321 19.7023C19.405 19.3846 19.585 19.0696 19.7608 18.7532C19.9365 18.4383 20.1109 18.1219 20.2922 17.7957C20.0377 17.589 19.824 17.2431 19.4458 17.2459C19.398 17.4006 19.3586 17.537 19.3136 17.6706C19.3024 17.7057 19.2729 17.7338 19.2602 17.7676C19.1294 18.1149 19.0015 18.4622 18.8735 18.8095C18.7343 19.1849 18.5994 19.5617 18.4588 19.9371C18.3702 20.1733 18.2802 20.4096 18.1818 20.6416C18.0623 20.9256 17.9273 21.204 17.812 21.4908C17.7009 21.7664 17.6193 22.0532 17.5026 22.3246C17.3297 22.7225 17.1399 23.112 16.9501 23.5015C16.9163 23.5704 16.8545 23.6266 16.8052 23.6885C16.7813 23.68 16.7574 23.6716 16.7335 23.6618C16.742 23.5633 16.7335 23.4593 16.7645 23.3693C16.8573 23.0993 16.9697 22.8378 17.0696 22.5693C17.2158 22.1727 17.3466 21.7692 17.5055 21.3783C17.6995 20.9017 17.9202 20.4363 18.1199 19.9624C18.3885 19.3269 18.6486 18.6872 18.9143 18.0502C18.9677 17.9223 19.0184 17.7915 19.0859 17.6706C19.1632 17.53 19.2546 17.3992 19.3418 17.26C19.0704 17.1953 18.8201 17.1363 18.5487 17.0716C18.4869 17.26 18.4264 17.4737 18.3463 17.679C18.1888 18.0868 18.0201 18.4889 17.8556 18.8938C17.677 19.3339 17.4942 19.7726 17.3184 20.2141C17.2214 20.4588 17.1202 20.702 17.0457 20.9537C16.8657 21.5611 16.711 22.1756 16.5254 22.7802C16.3469 23.3609 16.1388 23.9303 15.9504 24.5082C15.7887 25.0045 15.6565 25.5107 15.3683 25.9747C15.35 25.9381 15.3233 25.9114 15.3247 25.8889C15.3444 25.7174 15.3556 25.5445 15.3978 25.3785C15.4723 25.0875 15.5609 24.7992 15.6565 24.5152C15.7957 24.0976 15.9405 23.6814 16.091 23.2681C16.2484 22.835 16.4214 22.4076 16.5775 21.9745C16.6899 21.6624 16.7827 21.3418 16.8882 21.0268C16.9233 20.9214 16.988 20.8257 17.0161 20.7189C17.0738 20.4981 17.1033 20.269 17.168 20.051C17.2608 19.7375 17.3705 19.4295 17.4773 19.1202C17.6081 18.7406 17.7389 18.3609 17.8781 17.9855C17.9441 17.8084 18.0285 17.6396 18.1058 17.4667C18.1902 17.2797 18.276 17.0927 18.3674 16.8902C18.1874 16.5584 17.8612 16.5092 17.483 16.6259C17.4464 16.737 17.4098 16.8551 17.3663 16.9704C17.2383 17.305 17.1005 17.6368 16.9796 17.9743C16.8938 18.2119 16.832 18.4594 16.7518 18.6998C16.6295 19.0696 16.4889 19.4352 16.3764 19.8078C16.2231 20.3224 16.0853 20.8398 15.949 21.36C15.8435 21.7608 15.7451 22.1615 15.6579 22.5664C15.5384 23.1176 15.4329 23.673 15.3219 24.2256C15.2811 24.4266 15.2417 24.6277 15.2009 24.8288C15.1025 25.3153 15.0069 25.8018 14.9029 26.2869C14.8466 26.5498 14.7721 26.8085 14.713 27.07C14.623 27.4764 14.5345 27.8827 14.4543 28.2919C14.3517 28.8135 14.2589 29.338 14.1647 29.861C14.1576 29.8962 14.1773 29.9355 14.1886 29.9988C14.2167 29.9595 14.2322 29.9468 14.2364 29.9313C14.3531 29.4336 14.4642 28.933 14.5837 28.4367C14.7018 27.9432 14.8157 27.4497 14.9535 26.9618C15.0083 26.7705 15.1236 26.5962 15.2108 26.4134C15.2248 26.4204 15.2403 26.4261 15.2544 26.4331C14.9999 27.4553 14.7468 28.4789 14.4923 29.5011C14.8241 28.6096 15.1166 27.7112 15.4189 26.8155C15.7198 25.9241 16.0572 25.0453 16.5043 24.2031C16.5479 24.2551 16.5845 24.3099 16.5732 24.3549C16.5297 24.5419 16.4861 24.7318 16.4172 24.9103C16.2977 25.2197 16.1472 25.5177 16.0333 25.8285C15.8913 26.2151 15.7746 26.6116 15.6438 27.0025C15.6157 27.0855 15.5707 27.1614 15.5454 27.2444C15.4343 27.6085 15.3275 27.9741 15.2206 28.3383C15.1686 28.5168 15.1166 28.6954 15.0645 28.8754C15.1798 28.6645 15.26 28.4451 15.3331 28.223C15.4512 27.8644 15.5539 27.4989 15.6846 27.1459C15.8337 26.7438 16.0038 26.3515 16.1697 25.9564C16.2259 25.8229 16.292 25.6949 16.3539 25.5641C16.4537 25.3532 16.5451 25.1367 16.6562 24.9328C16.7813 24.7022 16.9276 24.4815 17.0611 24.2551C17.1497 24.1047 17.2242 23.9416 17.4211 23.8572C17.4211 23.9444 17.438 24.0119 17.4183 24.0653C17.3606 24.2143 17.2931 24.3592 17.22 24.5012C17.1089 24.7149 16.9768 24.9188 16.8769 25.1367C16.7743 25.3589 16.7068 25.5965 16.6084 25.82C16.4903 26.0914 16.3497 26.3529 16.2288 26.6229C16.0811 26.9547 15.9222 27.2851 15.8084 27.6296C15.5974 28.2638 15.4147 28.9063 15.2234 29.5475C15.0927 29.9876 14.9689 30.4291 14.8396 30.8706C14.796 31.0182 14.7454 31.1644 14.699 31.3107C14.713 31.3149 14.7285 31.3205 14.7426 31.3247C15.0013 30.609 15.2558 29.892 15.5201 29.1777C15.7155 28.649 15.911 28.1217 16.1303 27.6029C16.2709 27.2697 16.4636 26.9604 16.6112 26.6299C16.7785 26.2531 16.9149 25.8636 17.0766 25.484C17.2636 25.0439 17.4605 24.608 17.6587 24.1736C17.8429 23.77 18.0116 23.3552 18.2282 22.97C18.5136 22.4624 18.8356 21.9745 19.1505 21.4838C19.2954 21.2574 19.4585 21.0423 19.6131 20.8229C19.6328 20.8286 19.6525 20.8342 19.6722 20.8412C19.6722 20.9087 19.6905 20.9832 19.668 21.0423C19.6131 21.1899 19.5484 21.3361 19.4711 21.4739C19.3432 21.6989 19.1983 21.9126 19.0676 22.1348C18.9832 22.2796 18.9171 22.4329 18.8356 22.5791C18.7104 22.8041 18.5684 23.022 18.4531 23.2526C18.2633 23.6336 18.0847 24.0217 17.9076 24.4084C17.767 24.7163 17.6334 25.0284 17.5012 25.3406C17.2341 25.9677 16.9712 26.5962 16.7026 27.2219C16.5845 27.4989 16.4551 27.7702 16.33 28.0444C16.3834 28.0332 16.4144 28.0093 16.4298 27.9783C16.6 27.6296 16.7659 27.2795 16.936 26.9308C17.1328 26.5245 17.3255 26.1167 17.5336 25.716C17.8007 25.2014 18.0791 24.6924 18.3589 24.1834C18.6317 23.6871 18.9003 23.1893 19.1885 22.7028C19.4078 22.3316 19.6525 21.9745 19.8901 21.6145C20.0392 21.3882 20.1938 21.166 20.3471 20.9439C20.4413 20.8061 20.5299 20.6627 20.6339 20.5333C20.887 20.2212 21.1415 19.9104 21.4058 19.6081C21.5464 19.4478 21.7067 19.3072 21.8586 19.1568C21.8811 19.1736 21.9022 19.1919 21.9247 19.2088C21.8994 19.2622 21.8825 19.3241 21.8459 19.3677C21.7194 19.5181 21.576 19.6545 21.455 19.8092C21.2568 20.0665 21.0726 20.3336 20.8814 20.5966C20.693 20.8553 20.4905 21.1027 20.3176 21.3713C20.0996 21.7116 19.9056 22.0673 19.7003 22.4146C19.4458 22.8462 19.1801 23.2709 18.9396 23.7096C18.7217 24.1061 18.5333 24.5194 18.328 24.923C18.1368 25.297 17.9357 25.6668 17.7473 26.0422C17.5758 26.3867 17.4197 26.7382 17.2496 27.0827C17.0232 27.5396 16.7785 27.9882 16.5578 28.448C16.3764 28.8248 16.2245 29.2171 16.046 29.5953C15.8885 29.9313 15.7127 30.2575 15.544 30.588C15.6368 30.5219 15.7057 30.4417 15.7521 30.3503C16.0811 29.6923 16.4045 29.0329 16.7293 28.372C17.0527 27.7154 17.3606 27.0503 17.6995 26.4021C18.1143 25.6119 18.5431 24.8302 18.9888 24.0569C19.2222 23.6519 19.4992 23.2723 19.765 22.887C19.952 22.6171 20.1502 22.3555 20.3471 22.0926C20.5945 21.7608 20.8364 21.4247 21.0965 21.1027C21.344 20.7962 21.6069 20.5024 21.8726 20.2099C22.0498 20.0145 22.2326 19.8218 22.4308 19.6503C22.5293 19.5645 22.5461 19.5209 22.4674 19.4127C22.2424 19.0991 21.9669 18.8404 21.6575 18.614C21.5844 18.5606 21.5071 18.5156 21.4002 18.4481C21.2821 18.6534 21.1823 18.8362 21.0754 19.0134C20.9489 19.2229 20.8265 19.4352 20.6831 19.632C20.4722 19.9217 20.2472 20.2029 20.0209 20.4813C19.9956 20.5122 19.9253 20.5066 19.8746 20.5178C19.8662 20.4728 19.8395 20.4194 19.855 20.3828C19.9239 20.2113 19.9928 20.0398 20.0827 19.8781C20.2205 19.6306 20.3654 19.386 20.5228 19.1511C20.7084 18.8742 20.9123 18.6098 21.1106 18.3356H21.1092ZM10.606 30.169C10.6256 30.1563 10.6439 30.1451 10.6636 30.1324C10.6102 30.0312 10.5539 29.9313 10.5061 29.8273C10.4035 29.6065 10.3121 29.3816 10.2038 29.1636C9.91981 28.5928 9.62595 28.0275 9.34052 27.4567C9.15492 27.0855 8.98479 26.7073 8.79497 26.3389C8.63046 26.0183 8.44627 25.7062 8.27473 25.3884C8.13413 25.1283 8.0118 24.8597 7.85995 24.6066C7.65045 24.2551 7.42548 23.912 7.20051 23.569C6.92492 23.1485 6.64793 22.731 6.3625 22.3176C6.08832 21.9197 5.82117 21.5161 5.51887 21.1393C5.14205 20.6711 4.7357 20.2268 4.33779 19.7754C4.27452 19.7037 4.18453 19.6601 4.1297 19.7825C4.0369 19.9863 3.95675 20.1972 3.88083 20.38C4.0383 20.4869 4.19719 20.5586 4.30826 20.6753C4.60494 20.9832 4.89178 21.3024 5.16174 21.6328C5.5259 22.0771 5.8746 22.5341 6.2219 22.9925C6.26267 23.0459 6.25424 23.1387 6.2683 23.2132C6.24721 23.2217 6.22612 23.2287 6.20503 23.2371C5.31921 22.4258 4.57401 21.4894 3.80068 20.5502C3.66289 20.8679 3.52088 21.1955 3.37605 21.533C3.42105 21.533 3.47307 21.5161 3.49838 21.5358C3.75288 21.72 4.01862 21.8943 4.25062 22.1039C4.57963 22.4019 4.88615 22.7253 5.19829 23.0403C5.43451 23.2779 5.67354 23.5127 5.89288 23.7658C6.15441 24.0653 6.39906 24.3802 6.64371 24.6938C6.95445 25.0917 7.26659 25.4882 7.56186 25.8988C7.80652 26.2405 8.02445 26.6018 8.25786 26.9519C8.55032 27.392 8.84699 27.8307 9.14086 28.2694C9.18585 28.3369 9.22522 28.4072 9.2674 28.4761C9.28287 28.4676 9.29693 28.4592 9.3124 28.4508C9.28568 28.3987 9.26459 28.3453 9.23366 28.2947C9.10149 28.0796 8.95948 27.8687 8.83293 27.6493C8.68389 27.3934 8.55032 27.1277 8.40549 26.869C8.13834 26.3937 7.86838 25.9213 7.59702 25.4488C7.4761 25.2393 7.35377 25.0298 7.22863 24.8232C7.0824 24.5799 6.92774 24.3423 6.78291 24.0976C6.72386 23.9964 6.67324 23.8881 6.63668 23.777C6.62122 23.7278 6.64231 23.6603 6.66481 23.6083C6.66902 23.5971 6.76745 23.5999 6.78994 23.6252C6.90383 23.756 7.01913 23.8881 7.11193 24.0344C7.31862 24.3563 7.51265 24.6882 7.71372 25.0144C7.88666 25.297 8.07648 25.5698 8.23536 25.8594C8.51095 26.3684 8.76122 26.8915 9.03541 27.4004C9.23928 27.7787 9.47128 28.1428 9.68359 28.5168C9.88185 28.867 10.0689 29.2227 10.2629 29.5742C10.3726 29.7739 10.4907 29.9693 10.6046 30.1661L10.606 30.169ZM21.0501 28.2272C21.0599 28.2441 21.0698 28.2595 21.0796 28.2764C21.0979 28.2764 21.119 28.2834 21.1317 28.2764C21.4677 28.0908 21.7953 27.8898 22.1384 27.7196C22.5377 27.5228 22.9497 27.3526 23.356 27.1727C23.6583 27.0377 23.955 26.89 24.2643 26.7747C24.6482 26.6313 25.0419 26.5132 25.4314 26.3895C25.5129 26.3628 25.6099 26.3206 25.6844 26.3417C25.9249 26.405 25.9347 26.2433 25.9389 26.0942C25.9418 26 25.8996 25.903 25.8757 25.8074C25.8475 25.6949 25.7772 25.6949 25.6901 25.7413C25.3779 25.9072 25.0559 26.0422 24.7016 26.1027C24.5624 26.1266 24.502 26.1027 24.4893 25.9592C24.8703 25.7483 25.25 25.5374 25.6268 25.3293C25.6409 25.0383 25.6563 24.7275 25.6718 24.4013C25.624 24.4224 25.5621 24.4632 25.4946 24.4787C25.4257 24.4941 25.3512 24.4871 25.2795 24.4899C25.2978 24.414 25.2908 24.3043 25.34 24.2678C25.4735 24.1651 25.631 24.092 25.8166 23.9865C25.7604 23.8122 25.6985 23.6055 25.6254 23.403C25.5902 23.306 25.5157 23.2948 25.4314 23.3595C25.1867 23.5451 24.9308 23.718 24.696 23.9148C24.2432 24.2945 23.7947 24.6797 23.3546 25.0748C22.8541 25.5248 22.3718 25.993 21.8698 26.4415C21.3496 26.9069 20.8167 27.3555 20.2936 27.8166C20.2262 27.8771 20.1798 27.9615 20.1235 28.0346L20.1615 28.0683C20.2191 28.0261 20.2824 27.9896 20.3358 27.9418C20.6241 27.6887 20.9067 27.4286 21.1991 27.1797C21.4888 26.9336 21.7883 26.7016 22.0807 26.4598C22.2607 26.3122 22.428 26.1505 22.6136 26.0113C22.7964 25.8749 22.9933 25.7582 23.1887 25.6401C23.6963 25.3335 24.2053 25.0298 24.7157 24.7275C24.7438 24.7107 24.7874 24.7219 24.8225 24.7191C24.8155 24.7528 24.8211 24.7964 24.8 24.8175C24.7325 24.885 24.658 24.9483 24.5807 25.0045C24.3867 25.148 24.1898 25.2857 23.9944 25.4278C23.7244 25.6246 23.4516 25.8172 23.1873 26.0211C23.027 26.1448 22.8822 26.2883 22.7247 26.4148C22.3732 26.6974 22.0161 26.9758 21.6617 27.2556C21.5071 27.3779 21.3524 27.5003 21.1991 27.6254C21.0135 27.7773 20.8322 27.9333 20.6494 28.088C20.6592 28.1021 20.6691 28.1161 20.6789 28.1302C20.7197 28.1175 20.7661 28.1147 20.7998 28.0922C21.0121 27.9488 21.2216 27.7984 21.434 27.6549C21.7714 27.4272 22.099 27.1853 22.4505 26.9814C22.8428 26.7537 23.2534 26.5554 23.6625 26.3586C23.8074 26.2897 23.9719 26.2615 24.1265 26.2137C24.1322 26.2334 24.1392 26.2531 24.1448 26.2714C23.1128 26.9238 22.0807 27.5762 21.0487 28.2286L21.0501 28.2272ZM1.98266 24.7697C2.00094 24.7374 2.02062 24.705 2.0389 24.6727C2.17388 24.7247 2.32151 24.7557 2.44244 24.8302C2.8516 25.0861 3.25373 25.3518 3.65304 25.6218C3.9905 25.851 4.32514 26.0872 4.65134 26.3332C4.86365 26.4935 5.05769 26.6791 5.26016 26.8521C5.65245 27.1895 6.04333 27.5284 6.43843 27.863C6.51295 27.9263 6.59731 27.9755 6.67746 28.0318C6.66199 27.9432 6.62825 27.8799 6.57904 27.8349C6.25424 27.541 5.92522 27.2528 5.59902 26.9603C5.13784 26.5442 4.67946 26.1252 4.21687 25.7104C3.75991 25.2998 3.30997 24.8836 2.84035 24.4885C2.38198 24.1033 1.8997 23.7447 1.43289 23.3707C1.33728 23.2934 1.26698 23.3088 1.22902 23.4115C1.1559 23.6125 1.09685 23.8178 1.05045 23.9641C1.25151 24.0864 1.41743 24.175 1.56506 24.2874C1.60162 24.3156 1.57912 24.4196 1.58475 24.4885C1.52429 24.4899 1.46101 24.5068 1.40618 24.4913C1.32463 24.4674 1.25011 24.4224 1.18965 24.3929C1.20792 24.7163 1.2248 25.0383 1.24026 25.3279C1.59599 25.522 1.93907 25.7047 2.27652 25.9002C2.32152 25.9255 2.33276 26.0099 2.36089 26.0661C2.29902 26.0788 2.22872 26.1153 2.17529 26.0984C1.84486 25.993 1.52007 25.8735 1.19105 25.7652C1.13903 25.7483 1.03217 25.7497 1.02373 25.7722C0.977331 25.8903 0.937961 26.0183 0.930931 26.1434C0.928119 26.2025 0.99561 26.3009 1.05185 26.3192C1.32181 26.4021 1.60162 26.45 1.87017 26.5357C2.2709 26.6651 2.666 26.8113 3.05969 26.9575C3.21436 27.0152 3.36059 27.0939 3.51244 27.1628C3.90613 27.34 4.30264 27.5101 4.69212 27.6971C5.02394 27.856 5.34593 28.036 5.67213 28.2061C5.64542 28.1513 5.60605 28.1077 5.55965 28.0768C5.06753 27.7393 4.57682 27.4019 4.08048 27.0686C3.94832 26.98 3.80349 26.9069 3.66148 26.8324C3.43651 26.7143 3.20452 26.606 2.98236 26.4823C2.87831 26.4246 2.79114 26.3389 2.69693 26.2644C2.7124 26.2404 2.72927 26.2165 2.74474 26.1912C4.02846 26.5863 5.09565 27.3794 6.198 28.1133C6.07848 27.9811 5.9421 27.8743 5.80993 27.7632C5.5709 27.5621 5.34031 27.3498 5.09565 27.1558C4.76804 26.8943 4.42778 26.6482 4.09736 26.3909C3.70788 26.0872 3.32403 25.7765 2.93174 25.4756C2.79536 25.3701 2.63647 25.2942 2.49868 25.1901C2.32152 25.0566 2.1542 24.9089 1.98266 24.7683V24.7697ZM13.9622 29.7317C13.9622 29.7317 13.9735 29.7317 13.9777 29.7331C13.9974 29.5953 14.017 29.4561 14.0353 29.3183C14.0648 29.099 14.0831 28.8768 14.1253 28.6603C14.1914 28.3214 14.2828 27.9882 14.3489 27.6493C14.4051 27.3639 14.4318 27.0742 14.4909 26.7888C14.5317 26.592 14.6188 26.4036 14.661 26.2067C14.7721 25.6865 14.8677 25.1634 14.9717 24.6404C15.0181 24.4098 15.0716 24.182 15.1138 23.95C15.1433 23.7869 15.1447 23.6196 15.177 23.4579C15.2361 23.1654 15.3092 22.8772 15.3725 22.5861C15.4512 22.2206 15.5145 21.8522 15.6059 21.4894C15.6888 21.159 15.8013 20.837 15.8955 20.5094C16.0066 20.1213 16.1064 19.7304 16.2217 19.3438C16.3103 19.0457 16.4144 18.7518 16.5114 18.4552C16.6042 18.1711 16.6843 17.8829 16.794 17.6059C16.9276 17.2699 17.085 16.9422 17.2299 16.6189C17.0119 16.55 16.7968 16.4811 16.5831 16.4122C16.4031 16.879 16.2105 17.3416 16.0474 17.814C15.8449 18.3975 15.6523 18.9852 15.4821 19.5786C15.3106 20.1804 15.1559 20.7892 15.0266 21.4008C14.8818 22.0842 14.7693 22.7745 14.654 23.4635C14.5738 23.9402 14.5148 24.4196 14.4445 24.8977C14.3784 25.3518 14.3095 25.8046 14.242 26.2573C14.2012 26.5343 14.1534 26.8099 14.1211 27.0883C14.0803 27.4384 14.0452 27.7885 14.017 28.1386C13.9917 28.4719 13.9749 28.8051 13.9622 29.1383C13.9552 29.3338 13.9608 29.5306 13.9608 29.726L13.9622 29.7317ZM12.8922 29.7654C12.8922 29.5728 12.8964 29.3731 12.8922 29.1735C12.8838 28.8529 12.8838 28.5323 12.8542 28.2145C12.8135 27.766 12.753 27.3203 12.6982 26.8746C12.6377 26.3867 12.5801 25.8988 12.5084 25.4123C12.4521 25.0256 12.3748 24.6418 12.3115 24.2565C12.244 23.8474 12.1821 23.4382 12.1161 23.029C12.0289 22.4933 11.9516 21.9562 11.8461 21.4247C11.7688 21.0353 11.6591 20.6528 11.5536 20.2704C11.3751 19.6278 11.2078 18.981 10.9983 18.3469C10.7817 17.6917 10.523 17.0505 10.2854 16.4108C10.0703 16.4825 9.85092 16.5542 9.62173 16.6301C9.7314 16.8649 9.85513 17.0955 9.94793 17.3387C10.0913 17.7156 10.2165 18.1008 10.3458 18.4833C10.4049 18.659 10.4583 18.8362 10.516 19.0119C10.6116 19.3016 10.7142 19.5884 10.8028 19.8795C10.9111 20.2366 11.0095 20.5966 11.1065 20.9579C11.2148 21.3615 11.3343 21.7636 11.4173 22.1727C11.5438 22.7956 11.6366 23.4255 11.7533 24.0512C11.8166 24.3887 11.9066 24.7205 11.9755 25.058C12.057 25.4545 12.095 25.8636 12.2173 26.2461C12.3677 26.7143 12.4549 27.1881 12.514 27.6704C12.5182 27.707 12.5294 27.7421 12.5379 27.7787C12.611 28.1091 12.6925 28.4395 12.753 28.7727C12.8008 29.0315 12.8233 29.2958 12.8585 29.5573C12.8683 29.6318 12.8824 29.705 12.8922 29.7682V29.7654ZM9.50362 29.4027C9.51487 29.3942 9.52752 29.3858 9.53877 29.3759C9.21397 28.9176 8.88777 28.4606 8.56578 28.0008C8.20443 27.4834 7.85151 26.9604 7.49156 26.4443C7.27503 26.135 7.05006 25.8341 6.82931 25.5276C6.60575 25.2168 6.39906 24.892 6.15863 24.5954C5.81414 24.1693 5.44576 23.7602 5.0844 23.3468C5.0127 23.2638 4.92833 23.1907 4.84959 23.1134C4.55714 22.8223 4.2689 22.5257 3.968 22.2431C3.74303 22.0321 3.50119 21.8381 3.25232 21.6244C3.13843 21.7622 3.00767 21.9225 2.86988 22.0912C3.07375 22.2599 3.34793 22.3598 3.46323 22.6241C3.45198 22.6396 3.43933 22.655 3.42808 22.6705C3.19327 22.5158 2.95986 22.3598 2.8291 22.274C2.66178 22.4118 2.52117 22.5271 2.37776 22.6452C2.39885 22.655 2.45228 22.6803 2.50571 22.7056C2.63085 22.7661 2.76723 22.8111 2.87972 22.8898C3.14405 23.0754 3.40558 23.2681 3.65304 23.4747C3.95394 23.7264 4.24921 23.988 4.53183 24.2607C4.86084 24.5799 5.18986 24.9019 5.48935 25.2492C6.0124 25.8566 6.51436 26.4823 7.02335 27.1024C7.39876 27.5607 7.77137 28.0205 8.14538 28.4789C8.22833 28.5801 8.31129 28.6799 8.39425 28.7798C8.40971 28.7685 8.42518 28.7573 8.44205 28.746C8.30285 28.5323 8.16787 28.3158 8.02446 28.1049C7.8248 27.811 7.6167 27.5214 7.41423 27.2303C7.18082 26.8957 6.96007 26.5498 6.7112 26.2278C6.43421 25.8707 6.13754 25.529 5.83945 25.1901C5.51887 24.8231 5.19126 24.4618 4.85803 24.1061C4.60213 23.8333 4.33076 23.576 4.07064 23.3088C4.02143 23.2582 3.98628 23.1907 3.9455 23.1317C3.95535 23.119 3.96519 23.1064 3.97362 23.0937C4.1072 23.1528 4.26186 23.1879 4.37154 23.2779C4.65415 23.5085 4.92552 23.7546 5.18705 24.0076C5.49356 24.3057 5.78743 24.6165 6.08129 24.9258C6.34141 25.2 6.60997 25.4699 6.84759 25.7638C7.10349 26.0788 7.32987 26.4176 7.56468 26.7494C7.94712 27.2894 8.31973 27.8377 8.7092 28.3734C8.9637 28.7235 9.23788 29.0582 9.50362 29.3998V29.4027ZM13.5348 26.8943C13.5671 26.8479 13.5784 26.8394 13.5784 26.831C13.5657 26.0605 13.7007 25.304 13.8033 24.5448C13.8525 24.1778 13.9116 23.8122 13.9608 23.4466C14.0241 22.984 14.0705 22.52 14.145 22.0603C14.2111 21.6441 14.3067 21.2321 14.3854 20.8173C14.4332 20.5628 14.467 20.3055 14.5162 20.051C14.5598 19.8275 14.6216 19.6081 14.6624 19.386C14.7046 19.1554 14.7215 18.922 14.7679 18.6928C14.8297 18.3834 14.9043 18.0755 14.9802 17.769C15.0575 17.4583 15.1278 17.1433 15.2305 16.841C15.3289 16.5514 15.4653 16.2758 15.5904 15.9777C15.4301 15.9664 15.253 15.9833 15.1658 16.1155C14.9816 16.3925 14.7904 16.6793 14.6849 16.9915C14.4979 17.5468 14.3657 18.1205 14.2223 18.6886C14.1112 19.1315 14.0199 19.58 13.9158 20.0257C13.8286 20.4053 13.733 20.7822 13.6501 21.1632C13.6191 21.3052 13.5882 21.4543 13.591 21.5977C13.6037 22.1235 13.6501 22.648 13.6501 23.1739C13.6501 23.7335 13.6093 24.2945 13.5868 24.8541C13.5685 25.3378 13.5488 25.8215 13.5348 26.3051C13.5291 26.4907 13.5348 26.6749 13.5348 26.8971V26.8943ZM13.2339 25.7947C13.2451 25.6105 13.2718 25.3814 13.2704 25.1522C13.2704 24.6825 13.2536 24.2129 13.2465 23.7433C13.2423 23.4354 13.2437 23.1275 13.2409 22.8195C13.2381 22.4765 13.2226 22.1348 13.2311 21.7917C13.2367 21.5442 13.3337 21.2912 13.1664 21.0592C13.1453 21.031 13.1411 20.9889 13.134 20.9523C13.0862 20.709 13.0469 20.4658 12.9934 20.224C12.9063 19.826 12.8121 19.4295 12.7179 19.033C12.5941 18.51 12.469 17.9883 12.3368 17.4681C12.3017 17.3317 12.2482 17.1967 12.1864 17.0702C12.0303 16.751 11.8742 16.4304 11.6999 16.1225C11.6324 16.003 11.368 15.9608 11.3006 15.996C11.4369 16.377 11.5775 16.751 11.7027 17.1292C11.7814 17.3697 11.8405 17.6171 11.9023 17.8632C11.9881 18.2049 12.0809 18.5465 12.147 18.8924C12.2046 19.1863 12.2173 19.49 12.2735 19.7839C12.3593 20.2366 12.4704 20.6837 12.5604 21.1365C12.6096 21.3783 12.6419 21.6244 12.6771 21.8704C12.7502 22.3921 12.8219 22.9151 12.8908 23.4382C12.9217 23.6716 12.9358 23.9078 12.9709 24.1398C13.0216 24.466 13.089 24.7908 13.1411 25.117C13.1804 25.3575 13.2057 25.6007 13.2311 25.7961L13.2339 25.7947ZM15.8027 15.9749C15.7901 16.1127 15.7943 16.1956 15.7718 16.2701C15.6846 16.5598 15.582 16.8452 15.5004 17.1363C15.3598 17.6298 15.2291 18.1275 15.0997 18.6239C15.0631 18.7645 15.0561 18.9135 15.0252 19.0555C14.9886 19.2299 14.9338 19.4014 14.9 19.5758C14.7637 20.2661 14.6301 20.9565 14.5021 21.6483C14.3925 22.2402 14.2954 22.8336 14.1914 23.4269C14.1703 23.5479 14.1394 23.6674 14.1225 23.7897C14.0887 24.0456 14.0705 24.3043 14.0311 24.5588C13.9861 24.8442 13.9046 25.1255 13.875 25.4123C13.8357 25.7933 13.8343 26.1786 13.8118 26.5624C13.7907 26.9308 13.7569 27.2978 13.7415 27.6662C13.7344 27.856 13.7555 28.0472 13.7654 28.2694C13.8047 28.0753 13.8525 27.9207 13.8666 27.7632C13.8919 27.475 13.8849 27.1839 13.913 26.8971C13.9608 26.4106 14.0227 25.9255 14.0859 25.4418C14.1366 25.0537 14.197 24.6685 14.2617 24.2818C14.2786 24.1778 14.3362 24.0794 14.3531 23.9753C14.3981 23.6786 14.4276 23.3805 14.4698 23.0839C14.5359 22.6325 14.5893 22.1784 14.6807 21.7312C14.7876 21.211 14.9155 20.695 15.0589 20.1846C15.2361 19.5575 15.4329 18.936 15.6326 18.3145C15.731 18.0094 15.8562 17.7128 15.9686 17.4119C16.1092 17.035 16.2484 16.6582 16.3919 16.2716C16.2259 16.1886 16.0235 16.086 15.8013 15.9735L15.8027 15.9749ZM10.4316 16.2912C10.5343 16.4895 10.6496 16.6695 10.7241 16.8635C10.8858 17.2909 11.0264 17.7254 11.1768 18.1571C11.2556 18.3834 11.3413 18.607 11.413 18.8348C11.5199 19.175 11.6155 19.5181 11.7167 19.8584C11.7856 20.089 11.8644 20.3168 11.9262 20.5502C11.974 20.7287 12.0022 20.9129 12.0387 21.0943C12.1104 21.4514 12.1878 21.8086 12.2524 22.1671C12.3087 22.4779 12.3481 22.7914 12.4043 23.1021C12.4662 23.4508 12.5519 23.7967 12.6026 24.1468C12.6827 24.6868 12.7418 25.2309 12.8092 25.7736C12.8711 26.277 12.9358 26.7804 12.992 27.2837C13.0244 27.5734 13.0398 27.8644 13.0623 28.1541C13.0778 28.1541 13.0947 28.1541 13.1101 28.1541C13.1101 27.9783 13.1186 27.8026 13.1087 27.6282C13.0834 27.1966 13.0384 26.7663 13.0244 26.3347C13.0075 25.8411 12.9611 25.3532 12.8739 24.8681C12.791 24.4084 12.7207 23.9458 12.6504 23.4832C12.5997 23.1471 12.5702 22.8083 12.5126 22.475C12.4212 21.9464 12.3129 21.4205 12.2117 20.8932C12.1484 20.5642 12.0879 20.2366 12.0233 19.9076C11.9853 19.7136 11.9375 19.5223 11.8995 19.3283C11.8616 19.1343 11.8377 18.9374 11.7955 18.7448C11.7463 18.517 11.6886 18.2906 11.6282 18.0643C11.5241 17.6818 11.4187 17.2994 11.3076 16.9197C11.2204 16.6203 11.1234 16.325 11.0207 15.9946C10.845 16.0831 10.6369 16.1872 10.4316 16.2898V16.2912ZM19.869 27.6578C19.8789 27.662 19.8887 27.6662 19.9 27.6704C20.0054 27.5889 20.1165 27.5115 20.2163 27.4229C20.5622 27.115 20.8997 26.7972 21.2484 26.4921C21.7081 26.0872 22.1792 25.6935 22.6389 25.2871C23.0776 24.8991 23.5079 24.5026 23.9424 24.1103C24.135 23.9373 24.3206 23.756 24.5273 23.6013C24.7972 23.3988 25.0841 23.2203 25.3709 23.0248C25.2275 22.8083 24.98 22.7942 24.7691 22.7352C24.6988 22.7155 24.5821 22.8209 24.5006 22.887C24.2151 23.1162 23.9283 23.344 23.6555 23.5872C23.3912 23.8235 23.1423 24.0765 22.885 24.3212C22.6713 24.5237 22.4491 24.7177 22.2438 24.9286C21.9964 25.1817 21.763 25.4488 21.5225 25.7118C21.2413 26.0197 20.9559 26.3248 20.6803 26.6384C20.5425 26.7958 20.4244 26.9702 20.2936 27.1347C20.1545 27.3105 20.011 27.4834 19.8704 27.6578H19.869ZM6.90664 27.6029C6.88977 27.5579 6.88556 27.5242 6.86868 27.5045C6.57904 27.1614 6.28939 26.8183 5.99552 26.4781C5.76212 26.2081 5.5245 25.9438 5.28406 25.6794C5.11534 25.4938 4.93818 25.3139 4.76804 25.1297C4.57401 24.9188 4.39403 24.6938 4.18734 24.4955C3.86395 24.1834 3.5265 23.8839 3.18764 23.5886C2.86003 23.3032 2.52118 23.029 2.18654 22.7506C2.16966 22.7366 2.13592 22.7239 2.11764 22.7295C1.90392 22.8055 1.64661 22.7886 1.5046 23.0065C1.71551 23.1668 1.9236 23.3131 2.12045 23.4747C2.62382 23.8853 3.12718 24.2931 3.6193 24.7163C4.04815 25.0847 4.45731 25.4756 4.88193 25.8482C5.5484 26.4331 6.22049 27.0096 6.90805 27.6057L6.90664 27.6029ZM26.2947 27.2795C25.4004 27.5087 24.5146 27.6957 23.6541 27.9657C22.788 28.237 21.9472 28.5914 21.0951 28.9091C21.1007 28.9288 21.1077 28.9485 21.1134 28.9696C21.4101 28.9316 21.7081 28.9007 22.0048 28.8529C22.2537 28.8121 22.4983 28.739 22.7472 28.7039C23.1845 28.642 23.6246 28.6082 24.0605 28.5464C24.5132 28.4831 24.9688 28.4198 25.4145 28.3214C25.6929 28.2595 25.9657 28.1583 26.1639 27.9207C26.3579 27.6873 26.4114 27.4525 26.2933 27.2795H26.2947ZM0.549893 27.2908C0.538644 27.3315 0.520365 27.3864 0.507711 27.4426C0.450063 27.6957 0.774861 28.0416 0.956241 28.1358C1.32603 28.3284 1.73097 28.3875 2.14014 28.4409C2.55773 28.4958 2.97111 28.5759 3.3873 28.635C3.63898 28.6701 3.89488 28.6729 4.14516 28.7123C4.5248 28.7728 4.90021 28.8585 5.27985 28.9204C5.40077 28.9401 5.52872 28.9232 5.65386 28.9232C5.65948 28.9049 5.6637 28.8866 5.66932 28.8684C4.83272 28.5604 4.00737 28.216 3.15671 27.9544C2.30745 27.6929 1.4343 27.5129 0.548487 27.2908H0.549893ZM25.8658 26.5779C24.0366 27.0096 22.3423 27.8026 20.7169 28.7629C20.7942 28.7545 20.8701 28.7376 20.939 28.7067C21.1865 28.5942 21.4241 28.4592 21.6772 28.365C22.2762 28.1442 22.8822 27.9404 23.4868 27.7337C23.6429 27.6802 23.8032 27.6353 23.962 27.5903C24.1997 27.5228 24.4373 27.4511 24.6777 27.3906C25.0095 27.309 25.3428 27.2303 25.6774 27.1628C25.8377 27.1305 26.0022 27.1263 26.1723 27.1094C26.0669 26.9252 25.9657 26.7494 25.8658 26.5765V26.5779ZM6.11504 28.7882C6.12348 28.7742 6.13051 28.7601 6.13894 28.7474C4.50933 27.8082 2.82066 27.0067 0.989987 26.592C0.890158 26.7649 0.791733 26.935 0.711588 27.0771C0.970301 27.1249 1.23042 27.1628 1.48632 27.2247C1.97844 27.3428 2.47196 27.4609 2.95705 27.6043C3.35215 27.721 3.73741 27.8687 4.12407 28.0093C4.61197 28.1864 5.09847 28.3664 5.58355 28.552C5.76493 28.6209 5.93788 28.7109 6.11504 28.791V28.7882ZM11.2668 31.2699C11.2865 31.2586 11.3062 31.246 11.3259 31.2347C11.1656 30.9788 11.0039 30.7229 10.8436 30.467C10.8225 30.4811 10.8 30.4938 10.7789 30.5078C10.942 30.7623 11.1051 31.0154 11.2682 31.2699H11.2668ZM17.8542 29.435C18.141 29.3281 18.1944 29.0202 18.4095 28.8515C18.3913 28.836 18.3744 28.8206 18.3561 28.8051C18.1888 29.0146 18.0215 29.2241 17.8542 29.435Z" fill="#9C3C33"/>
<path id="Vector_10" d="M7.53896 17.2841C7.63878 17.4809 7.74283 17.6749 7.83704 17.8746C7.95233 18.1193 8.05919 18.3667 8.17027 18.6128C8.30807 18.9207 8.45008 19.2272 8.58084 19.538C8.72707 19.8867 8.86064 20.2396 8.99984 20.5897C9.16013 20.9904 9.32183 21.3911 9.48352 21.7919C9.6185 22.1237 9.76192 22.4513 9.88847 22.7845C9.97564 23.0165 10.0459 23.2556 10.1134 23.4946C10.1275 23.5424 10.0923 23.6029 10.0797 23.6577C10.0263 23.6239 9.94752 23.6014 9.92221 23.5522C9.81676 23.3455 9.72536 23.129 9.62975 22.9167C9.4554 22.53 9.27402 22.1448 9.11092 21.7539C8.93376 21.3293 8.77347 20.8962 8.60334 20.4674C8.50632 20.2213 8.39665 19.9809 8.30666 19.7334C8.22792 19.5211 8.18011 19.2975 8.09856 19.0852C7.95374 18.7112 7.79204 18.3428 7.64019 17.9716C7.57551 17.8127 7.51083 17.6524 7.46022 17.4893C7.44194 17.4331 7.46444 17.3656 7.46725 17.3037C7.49115 17.2967 7.51505 17.2897 7.53755 17.2812L7.53896 17.2841Z" fill="#9C3C33"/>
</g>
</g>
</svg>
